<?xml version="1.0" encoding="UTF-8"?><svg id="b" xmlns="http://www.w3.org/2000/svg" width="1024" height="1024" viewBox="0 0 1024 1024"><path d="m420.16,685.86c-20.24-38.74-61.47-93.9-61.47-93.9,0,0,15.01-15.37,16.47-16,1.08-.47,2.19-2.99,3.88-3.81,1.68-.82,20.4-22.62,21.03-23.22.15-.14,13.19-17.53,14.37-19.02,1.25-1.59,12.09-18.51,13.07-19.92.22-.32.82-.02,1.54-1.11.56-.85,24.7-35.34,24.7-35.34l68.22-102.42,9.32-9.01s9.57-12.45,13.34-17.46c3.79-5.05,8.11-5.99,11.95-10.65,3.57-4.32,7.44-8.76,11.82-13.56,3.74-4.1,7.72-8.16,12.11-12.49,5-4.93,8.71-8.52,12.28-11.68,3.7-3.26,9.47-4.88,14.43-8.78,2.14-1.68,15.13-7.39,15.13-7.39l68.34,121.04-.12.13s3.53,10.01,2.88,10.88c-.65.87-3.32,1.06-3.32,1.06-2.54,1.81-3.88,1.61-6.34,3.64-2.37,1.95-4.92,1.41-7.55,3.86-2.74,2.55-7.99,5.39-10.27,7.77-2.57,2.68-5.99,3.69-8.35,6.41-2.38,2.75-5.9,4.5-8.41,7.68-2.51,3.18-4.95,6.34-7.3,9.6-2.38,3.3-4.74,6.8-7.18,10.47-.83,1.26-3.37,5.16-3.94,6.04-.45.7-5.79,9.47-5.79,9.47h-.06l-.81,1.41c-.67,1.03-79.05,121.13-82.37,126.23l-.17.27s-.34.59-.35.6c-3.14,4.84-6.56,9.73-10.54,15.31-4.04,5.66-7.42,10.26-10.72,14.43-3.38,4.28-7.07,8.61-11.24,13.36-4.34,4.95-7.93,8.93-11.41,12.49-3.69,3.77-7.66,7.6-11.93,11.48-3.69,3.36-6.02,7.53-10.57,11.19-4.37,3.51-7.28,7.95-11.3,10.78-4.02,2.83-7.69,8.21-12.32,11.03-4.43,2.7-7.61,6.44-12.01,8.72,0,0-8.72-9.85-19.03-29.58Z" style="stroke:#fff; stroke-miterlimit:10; stroke-width:4px;"/><path d="m724.48,250.08c2.57,0,4.77.05,6.84.08,2.41.04,4.63.06,6.76.15,2.12.09,4.31.21,6.68.39,2,.15,4.01.32,6.53.54,2.37.21,4.51.4,6.52.62,2.27.24,4.4.5,6.45.77,2.14.29,4.27.59,6.37.93,2.1.34,4.21.7,6.29,1.08,2,.37,4.06.77,6.21,1.24,1.93.42,3.94.87,6.13,1.39,2.04.48,4.04,1.02,6.05,1.55,2.03.53,4.08,1.13,6.05,1.7,2.09.61,4.02,1.19,5.9,1.78,2.04.64,3.94,1.28,5.81,1.93,1.92.67,3.89,1.35,5.82,2.09,1.89.72,3.75,1.46,5.66,2.24,1.93.79,3.76,1.6,5.58,2.4,1.89.83,3.78,1.7,5.58,2.55,1.79.85,3.57,1.68,5.42,2.63,1.74.89,3.57,1.86,5.42,2.86,1.77.96,3.51,1.93,5.27,2.94,1.74,1,3.44,2.03,5.19,3.1,1.72,1.05,3.46,2.2,5.19,3.33,1.7,1.11,3.41,2.24,5.11,3.41,1.72,1.18,3.4,2.38,5.03,3.56,1.69,1.23,3.35,2.4,4.95,3.64,1.59,1.23,3.22,2.52,4.87,3.87,1.56,1.27,3.09,2.63,4.72,4.02,1.74,1.48,3.27,2.82,4.72,4.1,1.64,1.46,3.17,2.79,4.64,4.18,1.47,1.39,2.98,2.91,4.56,4.49,1.41,1.42,2.89,2.9,4.48,4.57,1.5,1.57,2.91,3.1,4.32,4.64,1.46,1.59,2.88,3.23,4.24,4.8,1.37,1.57,2.75,3.1,4.09,4.72,1.31,1.58,2.62,3.21,3.93,4.88,1.28,1.62,2.5,3.33,3.77,5.03,1.24,1.65,2.48,3.32,3.69,5.03,1.24,1.75,2.41,3.45,3.54,5.11,1.19,1.76,2.38,3.41,3.46,5.11,1.13,1.77,2.17,3.53,3.22,5.26,1.09,1.79,2.14,3.58,3.14,5.34.99,1.74,2,3.57,2.99,5.42.92,1.73,1.79,3.51,2.75,5.42.92,1.83,1.86,3.7,2.75,5.57.88,1.87,1.76,3.77,2.59,5.65.86,1.95,1.67,3.81,2.44,5.65.82,1.96,1.56,3.85,2.28,5.73.72,1.88,1.42,3.8,2.12,5.8.65,1.87,1.29,3.82,1.96,5.88.66,2.02,1.29,3.99,1.89,5.96.62,2.05,1.19,4.13,1.73,6.11.53,1.95,1.05,3.97,1.57,6.11.46,1.93,1,3.96,1.49,6.19.48,2.17.93,4.18,1.34,6.19.44,2.18.82,4.29,1.18,6.35.35,2.05.69,4.2,1.02,6.42.29,2.02.57,4.12.86,6.42.29,2.32.56,4.44.78,6.5.25,2.29.45,4.52.63,6.66.2,2.37.33,4.54.47,6.66.15,2.34.3,4.56.39,6.73.09,2.17.12,4.48.16,6.89.04,2.16.08,4.4.08,6.89,0,2.65-.04,5.06-.08,7.35-.04,2.54-.07,4.96-.16,7.28-.09,2.31-.24,4.7-.39,7.2-.14,2.24-.28,4.52-.47,7.04-.19,2.45-.42,4.76-.63,6.96-.23,2.38-.44,4.67-.71,6.89-.27,2.19-.59,4.44-.94,6.81-.31,2.1-.62,4.31-1.02,6.73-.39,2.37-.8,4.49-1.18,6.58-.42,2.31-.82,4.5-1.26,6.58-.47,2.22-1.01,4.36-1.49,6.42-.51,2.17-1.03,4.29-1.57,6.35-.53,2.02-1.09,4.09-1.73,6.27-.58,1.95-1.2,4-1.89,6.19-.11.36-.35.64-.71.77l-1.81.7c-.36.14-.77.11-1.1-.08l-.08-.08c.61.33-2.19-1.2-1.57-.85l-142.34-77.24c-.5-.17-.67-.68-1.02-1.01-.44-.4-1.03-.63-1.26-1.24-.34-.88-.48-1.93-.39-3.1.07-.9.11-1.81.16-2.71.05-.92.22-5.07.23-5.49.04-1.04.08-1.94.08-2.79s-.13-3.78-.16-4.64c-.02-.5-.1-2.8-.16-3.71-.05-.9-.35-4.79-.39-5.34-.08-.98-.14-1.83-.23-2.63-.09-.79-.45-3.47-.55-4.1-.09-.57-.57-3.35-.63-3.72-.16-.97-.32-1.74-.47-2.48-.16-.76-.33-1.5-.55-2.4-.14-.58-1.05-4.19-1.26-4.95-.23-.84-.4-1.57-.63-2.32-.23-.75-.51-1.58-.79-2.4-.24-.73-1.39-3.87-1.65-4.57-.3-.79-.57-1.54-.87-2.24-.29-.71-.6-1.41-.94-2.17-.3-.67-.64-1.36-1.02-2.17-.32-.68-.63-1.41-1.02-2.17-.33-.65-2.14-4-2.28-4.26-.43-.78-.81-1.47-1.18-2.09-.38-.63-.79-1.3-1.26-2.01-.36-.56-2.19-3.37-2.59-3.95-.49-.7-.97-1.34-1.42-1.93-.63-.86-.99-1.38-1.41-1.94-.54-.7-1.02-1.29-1.5-1.86-.46-.56-1.91-2.17-2.12-2.4-.22-.24-2.23-2.39-2.75-2.94-.59-.62-1.11-1.25-1.65-1.78-.56-.56-1.16-1.09-1.73-1.63-.56-.53-2.93-2.64-3.46-3.1-.64-.55-1.24-1.1-1.81-1.55-.63-.5-1.28-.93-1.89-1.39-.64-.49-1.2-.96-1.81-1.39-.59-.42-1.22-.87-1.89-1.32-.57-.37-3.3-2.02-3.93-2.4-.69-.41-1.32-.8-1.97-1.16-.66-.37-1.35-.72-2.04-1.08-.68-.36-1.35-.75-2.04-1.08-.73-.36-1.46-.63-2.12-.93-.72-.33-1.36-.64-2.04-.93-.71-.3-1.48-.57-2.2-.85-.72-.28-1.39-.59-2.12-.85-.7-.25-1.5-.52-2.28-.77-.72-.23-1.48-.46-2.28-.7-.74-.22-1.43-.41-2.2-.62-.75-.2-1.57-.35-2.36-.54-.74-.18-1.53-.37-2.36-.54-.75-.16-1.5-.3-2.36-.46-.77-.14-1.53-.33-2.36-.46-.76-.12-1.56-.19-2.44-.31-.77-.11-1.56-.22-2.44-.31-.75-.08-4.51-.42-5.11-.46-.95-.07-1.8-.12-2.59-.15-.8-.03-1.63-.07-2.59-.08-.75,0-4.32,0-5.03,0-.85.01-1.63.05-2.36.08-.74.03-1.48.1-2.28.15-.7.05-3.98.32-4.64.39-.83.08-1.57.14-2.28.23-.77.1-1.52.2-2.28.31-.78.12-1.54.26-2.28.39-.68.12-2.49.49-2.75.54-.34.07-3.21.68-3.93.85-.76.18-3.95,1.04-4.4,1.16-.81.22-1.47.41-2.12.62-.65.21-1.35-.13-1.57-.77l-.32-.85s-.12-.02-.16-.08l-71.68-132.58c-.09-.17.17-.28.16-.46l-.71-1.24c-.32-.61-.07-1.31.55-1.63,2.36-1.19,4.81-2.39,7.39-3.56,2.36-1.07,4.82-2.14,7.46-3.25,2.66-1.11,5.15-2.09,7.54-3.02,2.63-1.02,5.15-1.94,7.63-2.79,2.47-.84,5.05-1.67,7.78-2.48,2.47-.73,5.05-1.42,7.86-2.17,2.81-.75,5.37-1.42,7.86-2.01,2.76-.66,5.43-1.27,8.02-1.78,2.6-.51,5.26-.95,8.1-1.39,2.6-.4,5.35-.79,8.25-1.16,2.72-.35,5.45-.67,8.25-.93,2.74-.25,5.56-.44,8.41-.62,5.78-.36,11.46-.54,17.05-.54Z" style="stroke:#fff; stroke-miterlimit:10; stroke-width:4px;"/><path d="m220.91,516.61c-1.5.86-139.86,76.86-141.78,78.14-.1.07-3.29,2.06-3.76,2.91-.31.58.06,1.16.06,1.85,0,.03-.02.45,0,.64.01.1.05.14.06.21.02.12,0,.19,0,.14.02.19.06.32.12.5.01.04.06.14.06.14.06.22,1.78,6.21,1.91,6.61.53,1.65,1.02,3.07,2.03,5.97.59,1.68,1.05,2.86,2.21,5.96.15.41,2.2,5.5,2.39,5.97,1.14,2.82,1.66,4.12,2.39,5.75.56,1.27,2.31,5.21,2.56,5.75.11.23,4.94,10,4.95,10.01.06.14,3.23,5.84,3.58,6.46.41.74,5.13,8.73,5.43,9.23,0,0,.68,1.2.78,1.35.22.35,2.56,3.7,2.74,3.97.44.66,7.02,10.16,6.92,10.02.34.48.59.82.84,1.14,1.32,1.75,2.53,3.23,3.76,4.76.27.33,7.59,9.05,7.93,9.45,1.59,1.79,2.82,3.15,4.06,4.48,1.41,1.51,2.11,2.18,3.88,3.98.32.33,8.37,8.3,9.07,8.95.19.17,7.81,6.77,9.07,7.81.68.56,3.15,2.61,4.53,3.69,3.09,2.43,3.7,2.86,4.83,3.69,1.86,1.38,3.27,2.4,4.71,3.41.35.24,6.24,4.14,6.32,4.19.59.37,6.89,4.33,8.35,5.19.07.04,4.82,2.87,5.01,2.98.25.14,4.81,2.54,5.25,2.77,1.58.82,3.18,1.62,5.13,2.55,1.71.83,3.38,1.61,5.19,2.41.12.05,4.6,1.91,5.49,2.27,1.99.83,3.63,1.48,5.31,2.13,1.55.59,3.23,1.26,5.49,2.06,1.61.57,10.15,3.49,10.56,3.62.7.22,3.2.92,5.85,1.63.42.11,5.8,1.49,6.38,1.63.5.12,4.97,1.1,5.79,1.28,2.23.48,3.87.79,6.08,1.21.86.16,6.18,1.06,7.57,1.28,1.48.23,2.42.37,4.36.64,2.24.31,4.25.56,6.14.78,1.82.22,3.85.42,6.32.64.84.08,6.07.4,9.01.57.78.05,3.2.2,3.52.22,2.04.09,4.29.16,6.56.21,1.53.04,6.48.08,7.16.07.76,0,6.33-.13,6.74-.14.27-.01,6.97-.41,7.22-.43.61-.05,10.32-1.05,10.97-1.14,1.44-.18,2.5-.33,3.58-.5.51-.08,6.84-1.18,7.34-1.28.41-.08,10.09-2.28,10.62-2.41,2.25-.55,3.53-.86,3.76-.92.21-.06,15.41-5.12,15.98-5.33.81-.29,1.24-.52,1.73-.71.74-.29,10.2-4.15,10.62-4.33.46-.21,6.32-2.94,6.86-3.2,2.28-1.11,6.67-3.25,7.1-3.48.37-.2,8.74-5.09,10.2-5.96,3.49-2.08,6.34-3.82,7.04-4.26,1.3-.83,2.37-1.52,3.4-2.2,1.18-.78,5.58-3.77,6.68-4.54,1-.69,5.35-3.78,6.68-4.76,1.35-.99,3.99-3.05,4.23-3.27.02-.02,8.21-6.79,8.21-6.79-.07-.14-80.91-121.58-80.97-121.75-.12-.34-.43-.36-.59-.64-1.29.88-2.58-.56-3.88.26-2.58,1.62-5.16,3.12-7.75,4.47-2.59,1.35-5.2,2.61-7.81,3.69-2.62,1.08-5.24,2.03-7.87,2.84-2.64.81-5.28,1.45-7.93,1.99-2.65.54-5.32.94-7.99,1.21-2.67.27-5.36.43-8.05.43-1.77,0-3.52-.07-5.25-.14-1.73-.07-3.45-.14-5.13-.28-1.68-.14-3.37-.35-5.01-.57-1.64-.22-3.24-.49-4.83-.78-1.6-.29-3.16-.63-4.71-1-1.55-.36-3.09-.77-4.59-1.21-1.5-.44-2.95-.91-4.41-1.42-1.46-.51-2.94-1.05-4.35-1.63-1.41-.59-2.81-1.19-4.18-1.85-1.37-.66-2.67-1.33-3.99-2.06-1.32-.73-2.66-1.54-3.94-2.34-1.28-.81-2.52-1.61-3.76-2.49-1.24-.87-2.45-1.82-3.64-2.77-1.19-.95-2.37-1.96-3.52-2.98-1.15-1.02-2.24-2.03-3.34-3.13s-2.23-2.24-3.28-3.41c-1.06-1.17.32-.04-.67-1.25-.99-1.22-1.94-2.43-2.86-3.69-.92-1.27-1.83-2.53-2.68-3.84-.86-1.31-1.65-2.69-2.45-4.05-.79-1.36-1.6-2.71-2.33-4.12-.73-1.4-1.37-2.81-2.03-4.26-.66-1.45-1.32-2.97-1.91-4.47-.59-1.5-1.14-3-1.67-4.54-.53-1.54-1.03-3.09-1.49-4.69-.46-1.59-.92-3.19-1.31-4.83s-.74-3.36-1.07-5.04c-.33-1.69-.63-3.38-.89-5.11-.26-1.73.62-5.23.62-5.23,0,0,.5-6.34.46-6.93Z" style="stroke:#fff; stroke-miterlimit:10; stroke-width:4px;"/><path d="m814.3,523.42c-.04.56-.1,1.14-.15,1.7-.13,1.74-.32,3.49-.52,5.18-.2,1.7-.4,3.31-.67,4.96-.27,1.65-.56,3.28-.89,4.89-.33,1.61-.71,3.25-1.11,4.81-.4,1.56-.79,3.07-1.26,4.59-.46,1.52-1.03,3.04-1.55,4.52-.53,1.47-1.03,2.87-1.63,4.3-.6,1.43-1.26,2.91-1.92,4.29-.66,1.38-1.35,2.73-2.07,4.07-.73,1.34-1.5,2.63-2.3,3.92s-1.66,2.6-2.52,3.85c-.86,1.25-1.74,2.42-2.67,3.63-.93,1.21-1.89,2.39-2.89,3.55-.99,1.16-1.98,2.37-3.04,3.48-1.06,1.11-2.22,2.13-3.33,3.18-1.1,1.04-2.18,2.06-3.33,3.04-1.15.98-21.17,21.37-76.74,14.57-2.67-.51-10.33-4.19-12.96-5.22-2.63-1.03-13.03-9.3-15.62-10.85-1.3-.78-2.15-2.19-3.45-3.03-.16.27-4.9,8.87-5.03,9.2-.06.17-73.41,113.32-74.12,114.48-.06.1-2.29,4.09-2.37,4.22l.22,1.48c.09.07,3.16,2.35,3.18,2.37.25.2,2.86,2.16,4.22,3.11,1.34.94,5.74,3.86,6.74,4.52,1.11.73,5.48,3.62,6.66,4.37,1.04.65,2.1,1.29,3.41,2.07.7.42,3.6,2.09,7.11,4.07,1.47.83,9.84,5.51,10.22,5.7.43.22,4.89,2.27,7.18,3.33.54.25,6.42,2.84,6.89,3.04.42.18,9.92,3.87,10.66,4.14.49.18.96.39,1.78.67.58.19,15.85,4.98,16.07,5.04.23.06,1.52.36,3.78.89.53.12,10.25,2.22,10.66,2.29.5.09,6.81,1.18,7.33,1.26,1.09.16,2.18.27,3.63.44.65.08,10.42,1.07,11.03,1.11.25.02,6.99.36,7.26.37.41.01,5.97.14,6.74.15.68,0,5.65-.04,7.18-.08,2.28-.05,4.54-.06,6.59-.15.32-.02,2.77-.18,3.55-.22,2.95-.16,8.26-.45,9.11-.52,2.49-.21,4.46-.46,6.29-.67,1.9-.21,3.97-.45,6.22-.74,1.94-.25,2.88-.37,4.37-.59,1.4-.21,6.77-1.03,7.63-1.18,2.23-.4,3.83-.73,6.07-1.18.82-.17,5.35-1.07,5.85-1.18.59-.13,5.95-1.45,6.37-1.56,2.66-.68,5.22-1.42,5.92-1.63.41-.12,8.97-2.86,10.59-3.41,2.27-.77,3.99-1.43,5.55-2,1.69-.62,3.33-1.21,5.33-2,.89-.35,5.36-2.1,5.48-2.15,1.82-.77,3.54-1.51,5.26-2.3,1.96-.9,3.52-1.66,5.11-2.44.44-.22,5-2.53,5.26-2.67.19-.1,4.96-2.77,5.04-2.81,1.47-.82,7.85-4.6,8.44-4.96.08-.05,6.02-3.77,6.37-4,1.45-.96,2.87-1.94,4.74-3.26,1.13-.79,1.7-1.24,4.81-3.55,1.39-1.04,3.91-2.94,4.59-3.48,1.27-.99,8.92-7.31,9.11-7.48.7-.62,8.78-8.2,9.11-8.51,1.77-1.72,2.43-2.34,3.85-3.78,1.25-1.27,2.55-2.59,4.15-4.29.35-.38,7.66-8.72,7.92-9.04,1.23-1.45,2.45-2.85,3.78-4.52.24-.3.55-.58.89-1.04-.1.13,6.44-8.93,6.89-9.55.19-.26,2.59-3.52,2.81-3.85.09-.14.74-1.25.74-1.26.31-.48,5.07-8.11,5.48-8.81.35-.59,3.57-6.02,3.63-6.15,0-.01,4.85-9.33,4.96-9.55.25-.52,2.03-4.27,2.59-5.48.73-1.56,1.22-2.79,2.37-5.48.19-.45,2.21-5.31,2.37-5.7,1.16-2.96,1.63-4.11,2.22-5.7,1.02-2.76,1.54-4.13,2.07-5.7.13-.38,1.86-6.08,1.93-6.29,0,0,.06-.04.07-.07.06-.17.05-.34.07-.52,0,.05-.02-.04,0-.15.01-.08.06-.05.07-.15.02-.18,0-.64,0-.67,0-.66.39-1.23.08-1.78-.47-.82-3.68-2.68-3.78-2.74-1.93-1.23-136.22-73.97-137.73-74.79Z" style="stroke:#fff; stroke-linejoin:round; stroke-width:4px;"/><path d="m408.96,279.55l-71.08,128.63-3.93,7.66,3.8,1.04c1.45.45,2.64.91,4,1.39,1.39.5,2.65,1.02,4.25,1.67,1.18.49,2.4,1.03,4.25,1.88,1.84.85,2.82,1.28,4.12,1.95,1.14.59,3.41,1.79,4.18,2.23.14.08,3.14,1.97,3.55,2.23.83.52,3.59,2.3,4.5,2.92,1.76,1.21,2.79,1.91,3.86,2.72,1.25.93,2.59,1.98,3.93,3.06.32.26,6.67,5.72,7.35,6.34.16.15,3.28,3.14,4.06,3.9,1.06,1.04,2.18,2.16,3.86,3.9.05.05,3.15,3.19,3.8,3.9.54.58,3.34,3.86,3.74,4.32,1.24,1.42,2.52,2.91,3.81,4.46,1.36,1.64,2.63,3.19,3.8,4.67.44.56,3.71,4.61,3.8,4.73,1.6,2.1,2.74,3.62,3.8,5.08.24.33,4.59,6.66,5.39,7.8.61.88,3.55,5.16,3.86,5.64.26.38,5.37,8.4,5.64,8.84l3.49,5.71.64.94c.02.1,1.26,2.05,1.26,2.05l8.43,12.12,71.81,107.16,6.27,10.17-.12.07.63.91c4.03,5.56,8.17,11.02,12.3,16.22,4.15,5.23,8.27,10.21,12.49,15.04,3.91,4.48,8.14,9.08,12.93,14.06,4.09,4.26,8.45,8.46,13.24,12.95,5.47,5.12,9.53,8.84,13.44,12.12,4.04,3.38,8.51,6.82,13.94,10.86,2.35,1.74,4.71,3.51,7.16,5.22.11.08,1.77,1.18,1.77,1.19l1.52-2.65,82.71-123.38-.13-.14.64-.97s-2.61-1.95-3.49-2.64c-.06-.05-.11-.13-.13-.14-.07-.05-.51-.38-.89-.63l-.89-.56c-2.77-1.88-5.48-3.82-8.17-5.92-2.59-2.02-5.23-4.21-8.11-6.76-3-2.64-5.62-5.12-8.11-7.59-2.81-2.78-5.54-5.54-8.11-8.35-2.6-2.85-5.24-5.96-7.99-9.26-2.74-3.3-5.41-6.58-7.99-9.96-2.6-3.42-5.19-7.05-7.86-10.86-.91-1.3-3.69-5.35-4.31-6.27-.49-.73-6.34-9.82-6.34-9.82h-.06l-.89-1.46c-.73-1.07-86.49-125.62-90.13-130.9l-.19-.28s-.37-.61-.38-.63c-3.43-5.02-7.18-10.09-11.54-15.88-4.42-5.86-8.12-10.64-11.72-14.97-3.7-4.44-7.74-8.93-12.3-13.86-4.75-5.13-8.67-9.26-12.49-12.95-4.04-3.91-8.39-7.88-13.06-11.91-4.04-3.48-8.39-6.93-13.37-10.72-4.78-3.64-9.35-6.95-13.75-9.89-4.4-2.93-9.06-5.78-14.13-8.7-4.35-2.51-14.09-8.33-16.05-9.5-.23-.13-.35-.21-.35-.21Z" style="stroke:#fff; stroke-miterlimit:10; stroke-width:4px;"/><path d="m300.6,252.41c-2.41,0-4.46.05-6.41.08-2.26.04-4.34.06-6.33.15-1.98.09-4.04.21-6.26.38-1.87.14-8.5.31-10.85.53-2.22.2-4.22.4-6.11.6-2.13.24-4.12.49-6.04.76-2,.28-4,.58-5.96.91-1.97.33-3.94.68-5.89,1.06-1.88.36-1.43.75-3.45,1.21-1.8.41-3.69.85-5.74,1.36-1.91.47-3.79,1-5.67,1.51-1.9.52-3.82,1.1-5.67,1.66-1.96.6-3.76,1.16-5.52,1.74-1.91.63-3.69,1.25-5.45,1.89-1.79.65-3.64,1.32-5.45,2.04-1.77.7-3.52,1.43-5.3,2.19-1.81.77-3.53,1.56-5.23,2.34-1.77.81-3.54,1.66-5.23,2.5-1.67.83-3.34,1.64-5.08,2.57-1.63.87-3.34,1.82-5.08,2.8-1.66.94-3.29,1.88-4.93,2.87-1.63.98-3.23,1.98-4.86,3.02-1.61,1.03-3.24,2.15-4.86,3.25-1.6,1.08-3.2,2.19-4.79,3.33-1.61,1.16-3.19,2.32-4.71,3.48-1.58,1.2-3.14,2.35-4.64,3.55-1.49,1.2-3.02,2.46-4.56,3.78-1.46,1.24-2.89,2.57-4.42,3.93-1.63,1.45-3.07,2.76-4.42,4.01-1.54,1.42-2.97,2.73-4.34,4.08-1.38,1.36-2.8,2.84-4.27,4.39-1.32,1.38-2.7,2.84-4.2,4.46-1.4,1.53-2.72,3.03-4.05,4.54-1.36,1.55-2.7,3.15-3.98,4.69-1.28,1.54-2.57,3.03-3.83,4.61-1.22,1.54-2.45,3.14-3.68,4.76-1.2,1.58-2.34,3.26-3.53,4.92-1.16,1.62-2.32,3.24-3.46,4.92-1.16,1.71-2.26,3.37-3.31,4.99-1.12,1.72-2.23,3.33-3.24,4.99-1.06,1.73-2.04,3.45-3.02,5.14-1.02,1.75-2.01,3.5-2.95,5.22-.93,1.7-1.88,3.48-2.8,5.29-.86,1.69-1.68,3.43-2.58,5.29-.87,1.79-1.75,3.62-2.58,5.45-.83,1.83-1.65,3.68-2.43,5.52-.81,1.91-1.57,3.72-2.28,5.52-.76,1.92-1.46,3.76-2.14,5.6-.67,1.84-1.33,3.72-1.99,5.67-.61,1.82-1.21,3.73-1.84,5.75-.62,1.97-1.21,3.9-1.77,5.82-.58,2.01-1.11,4.03-1.62,5.97-.5,1.9-.99,3.88-1.47,5.97-.44,1.88-.93,3.87-1.4,6.05-.45,2.12-.87,4.08-1.25,6.05-.41,2.13-.77,4.19-1.1,6.2-.33,2-.65,4.1-.96,6.28-.28,1.98-.53,4.02-.81,6.28-.28,2.27-.52,4.33-.74,6.35-.24,2.24-.42,4.42-.59,6.5-.18,2.31-.31,4.43-.44,6.5-.14,2.29-.29,4.45-.37,6.58-.08,2.12-.11,4.38-.15,6.73-.03,2.11-.07,4.3-.07,6.73,0,2.59.04,4.95.07,7.18.04,2.49.06,4.85.15,7.11.08,2.26.22,4.59.37,7.03.13,2.19.26,4.41.44,6.88.18,2.4.39,4.65.59,6.81.21,2.32.41,4.56.66,6.73.25,2.14.56,4.33.88,6.66.29,2.05.58,4.21.96,6.58.37,2.32.75,4.39,1.1,6.43.4,2.25.76,4.39,1.18,6.43.44,2.17.94,4.25,1.4,6.28.48,2.12.97,4.19,1.47,6.2.5,1.98,1.02,4,1.62,6.13.54,1.91,1.12,3.91,1.77,6.05.11.36.33.63.66.76l1.69.68c.33.13.72.11,1.03-.08l.07-.07c-.57.32,2.05-1.17,1.47-.83l133.34-75.47c.46-.17.62-.67.96-.98.41-.39,2.24-.6,2.46-1.19.32-.86,1.54.47,1.46-.68-.06-.88,2.27-1.77,2.22-2.65-.05-.9-.21-4.95-.22-5.37-.03-1.02.04-6.42.07-7.26.02-.49.1-2.73.15-3.63.05-.88.32-4.68.37-5.22.08-.96.13-1.79.22-2.57.09-.77.42-3.39.52-4.01.09-.55.53-3.27.59-3.63.15-.95.3-1.7.44-2.42.15-.74.31-1.46.52-2.34.13-.57.98-4.1,1.18-4.84.22-.83.38-1.53.59-2.27.21-.73.48-1.55.74-2.34.23-.71,1.3-3.78,1.55-4.46.28-.77.54-1.5.81-2.19.27-.69.56-1.37.88-2.12.28-.65.6-1.33.96-2.12.3-.66.59-1.37.96-2.12.31-.63,2-3.91,2.13-4.16.4-.76.75-1.43,1.1-2.04.35-.61.74-1.27,1.18-1.97.34-.55,2.06-3.29,2.43-3.86.45-.68.91-1.31,1.33-1.89.6-.84.93-1.35,1.33-1.89.5-.68.96-1.26,1.4-1.81.43-.55,1.79-2.12,1.99-2.34.2-.23,2.09-2.34,2.58-2.87.55-.61,1.04-1.22,1.55-1.74.53-.54,1.09-1.07,1.62-1.59.26-.26.96-.91,1.64-1.55.68-.63,1.35-1.26,1.6-1.48.6-.54,1.16-1.07,1.69-1.51.59-.49,1.2-.91,1.77-1.36.6-.48,1.12-.94,1.69-1.36.55-.41,1.14-.85,1.77-1.29.53-.36,3.09-1.98,3.68-2.34.64-.4,1.24-.79,1.84-1.13.62-.36,3.18-1.79,3.83-2.12.69-.35,1.99-.91,1.99-.91,0,0,1.28-.63,1.91-.91.66-.29,2.06-.83,2.06-.83,0,0,1.3-.58,1.99-.83.66-.24,1.4-.51,2.14-.76.67-.23,1.39-.45,2.13-.68,0,0,1.34-.4,2.06-.6.7-.2,1.47-.34,2.21-.53.7-.17,8-1.95,8.82-2.04.7-.08,4.23-.41,4.79-.45.89-.07,1.69-.12,2.43-.15.75-.03,1.52-.06,2.43-.08.7,0,4.04,0,4.71,0,.79.01,1.52.05,2.21.08.7.03,1.39.1,2.13.15.65.05,3.73.32,4.35.38.77.08,1.47.14,2.13.23.72.1,1.42.19,2.13.3.73.11,1.45.25,2.14.38.64.11,2.33.47,2.58.53.32.07,3.01.66,3.68.83.71.18,3.71,1.01,4.12,1.13.76.22,1.38.4,1.99.6.61.2,74.35-134.02,74.35-134.02.79.23-32.68-16.38-34.63-17.09-.39-.14-5.88-2.05-8.44-2.84-2.32-.71-4.73-1.39-7.36-2.12-2.63-.73-12.45-.84-14.87-1.34-2.44-.5-2.56-.93-5.22-1.36-2.44-.39-5.01-.77-7.73-1.13-2.55-.34-5.1-.65-7.73-.91-2.57-.25-5.21-.43-7.88-.6-5.42-.35-10.74-.53-15.98-.53Z" style="stroke:#fff; stroke-miterlimit:10; stroke-width:4px;"/></svg>