<?xml version="1.0" encoding="UTF-8"?><svg id="a" xmlns="http://www.w3.org/2000/svg" width="1024" height="1024" viewBox="0 0 1024 1024"><g id="b"><g id="c" style="fill:none; opacity:.1;"><path id="d" d="m430.46,920.7l346.24-13.34,101.08-119.73-247.31-79.49-200.01,212.56Z" style="fill-rule:evenodd;"/></g><g id="e"><path id="f" d="m243.55,835.86l1.96-660.37,219.72-81v129.51l-97.61,74.55,42.63,263.81,20.2,358.33-186.91-84.83Z" style="fill-rule:evenodd;"/></g><g id="g"><path id="h" d="m465.24,94.5l255.63,18.71v115.21l-255.63-4.41V94.5Z" style="fill-rule:evenodd;"/></g><g id="i"><path id="j" d="m497.98,115.98v89.75l202.9,3.5v-78.4l-202.9-14.85Z" style="fill-rule:evenodd;"/></g><g id="k"><path id="l" d="m367.63,298.56l97.61-74.55,255.63,4.41-86.83,66.32-266.41,3.82Z" style="fill-rule:evenodd;"/></g><g id="m"><path id="n" d="m367.63,298.56l266.41-3.82,37.93,234.69-261.71,32.95-42.63-263.81Z" style="fill-rule:evenodd;"/></g><g id="o"><path id="p" d="m430.46,920.7l-20.2-358.33,261.71-32.95,17.97,318.77-259.48,72.51Z" style="fill-rule:evenodd;"/></g><g id="q"><g id="r"><g id="s"><path id="t" d="m415.39,653.25l260.99-45.63c37.44-7.22,61.53-28.46,72.8-63.15l-83.82-55.92,6.22,67.25-176.51,25.75-79.69,71.71Z" style="fill-rule:evenodd;"/></g><g id="u"><path id="v" d="m367.63,298.56l266.41-3.82,8.68,53.73-263.97,18.97-11.13-68.88Z" style="fill-rule:evenodd;"/></g><g id="w"><path id="x" d="m425.07,492.98l-24.78-166.59,218.85-3.93,22.57,147.21-216.64,23.31Z" style="fill:#4d3812; fill-rule:evenodd;"/></g><g id="y"><path id="z" d="m406.11,365.47l-5.81-39.08,218.85-3.93,4.2,27.39-217.24,15.62Z" style="fill:#3b2b0e; fill-rule:evenodd;"/></g><g id="aa"><path id="ab" d="m403.48,520.43l91.59,61.11c-16.64,38.78-42.11,64.33-79.69,71.71l-97.54-29.01,85.64-103.81Z" style="fill-rule:evenodd;"/></g><g id="ac"><path id="ad" d="m403.48,520.43l261.88-31.89,83.82,55.92-254.11,37.07-91.59-61.11Z" style="fill-rule:evenodd;"/></g><g id="ae"><path id="af" d="m415.39,653.25l260.99-45.63.82,14.57-260.57,53.05-1.24-21.98Z" style="fill-rule:evenodd;"/></g><g id="ag"><path id="ah" d="m588.31,515.47c16.22,2.46,29.36,11.8,29.36,20.86s-13.15,14.42-29.36,11.96c-16.22-2.46-29.36-11.8-29.36-20.86s13.14-14.42,29.36-11.96" style="fill:#380000; fill-rule:evenodd;"/></g><g id="ai"><path id="aj" d="m593.79,533.74c-1.03,3.03-4.31,4.65-7.34,3.62-3.02-1.02-4.65-4.31-3.62-7.34l20.03-58.62c1.03-3.03,4.31-4.65,7.34-3.62,3.03,1.02,4.65,4.31,3.62,7.33l-20.03,58.62Z" style="fill:#fff07f; fill-rule:evenodd;"/></g><g id="ak"><path id="al" d="m609.45,486.4c8.11,0,14.72-6.61,14.72-14.72s-6.61-14.72-14.72-14.72-14.72,6.61-14.72,14.72,6.61,14.72,14.72,14.72" style="fill-rule:evenodd;"/></g><g id="am"><path id="an" d="m607.73,458.19c4.61,0,7.27,3.74,5.94,8.36-1.33,4.61-6.15,8.35-10.76,8.35s-7.27-3.74-5.94-8.35c1.33-4.61,6.15-8.36,10.76-8.36" style="fill-rule:evenodd;"/></g><g id="ao"><path id="ap" d="m622.19,464.29c1.26,2.17,1.98,4.69,1.98,7.39,0,8.13-6.59,14.72-14.72,14.72-6.98,0-12.82-4.86-14.34-11.37,2.55,4.39,7.3,7.34,12.74,7.34,8.13,0,14.72-6.59,14.72-14.72,0-1.15-.13-2.27-.38-3.35" style="fill-rule:evenodd;"/></g><g id="aq"><path id="ar" d="m643.08,664.47l29-7.36,5.08,84.4-29,7.36-5.08-84.4Z" style="fill:#302305; fill-rule:evenodd;"/></g><g id="as"><path id="at" d="m654.17,670.84l11.64-2.95,4.08,67.73-11.63,2.95-4.08-67.73Z" style="fill:#4f3a0a; fill-rule:evenodd;"/></g><g id="au"><path id="av" d="m521.21,521.09c10.29,1.56,18.63,7.48,18.63,13.24s-8.34,9.15-18.63,7.58c-10.29-1.56-18.63-7.48-18.63-13.23s8.34-9.15,18.63-7.59" style="fill:#600; fill-rule:evenodd;"/></g><g id="aw"><path id="ax" d="m521.3,521.3c6.95,1.06,12.88,4.39,15.2,8.17l1.84.52-.91,3.97c-.99,4.34-7.84,6.76-16.13,5.51-8.97-1.36-16.25-6.53-16.25-11.54,0-.63.12-1.23.33-1.79l1.36-5.17,3.64,1.04c2.88-1.02,6.71-1.33,10.92-.7" style="fill:#fb0; fill-rule:evenodd;"/></g><g id="ay"><path id="az" d="m522.65,516.15c8.97,1.36,16.25,6.53,16.25,11.55s-7.28,7.98-16.25,6.62c-8.97-1.36-16.25-6.53-16.25-11.54s7.28-7.98,16.25-6.62" style="fill:#ffdd30; fill-rule:evenodd;"/></g><g id="ba"><path id="bb" d="m546.97,546.37c10.29,1.56,18.63,7.48,18.63,13.23s-8.34,9.15-18.63,7.59c-10.28-1.56-18.63-7.48-18.63-13.23s8.34-9.14,18.63-7.59" style="fill:#600; fill-rule:evenodd;"/></g><g id="bc"><path id="bd" d="m547.07,546.57c6.94,1.06,12.87,4.39,15.19,8.16l1.84.53-.91,3.97h0c-.99,4.33-7.83,6.76-16.12,5.51-8.98-1.36-16.25-6.53-16.25-11.55,0-.62.11-1.22.33-1.78l1.36-5.17,3.65,1.04c2.88-1.02,6.71-1.34,10.91-.7" style="fill:#fb0; fill-rule:evenodd;"/></g><g id="be"><path id="bf" d="m548.41,541.42c8.98,1.36,16.25,6.53,16.25,11.55s-7.27,7.98-16.25,6.62c-8.97-1.36-16.25-6.53-16.25-11.54s7.28-7.98,16.25-6.62" style="fill:#ffdd30; fill-rule:evenodd;"/></g><g id="bg"><path id="bh" d="m634.95,508.98c9.27,1.41,16.78,6.74,16.78,11.92s-7.51,8.24-16.78,6.83c-9.27-1.41-16.78-6.74-16.78-11.92s7.51-8.24,16.78-6.83" style="fill:#600; fill-rule:evenodd;"/></g><g id="bi"><path id="bj" d="m635.03,509.16c6.25.95,11.59,3.95,13.69,7.35l1.66.47-.82,3.57c-.89,3.9-7.05,6.09-14.52,4.96-8.08-1.23-14.64-5.88-14.64-10.4,0-.57.1-1.1.3-1.61l1.22-4.66,3.28.93c2.6-.92,6.05-1.2,9.83-.63" style="fill:#fb0; fill-rule:evenodd;"/></g><g id="bk"><path id="bl" d="m636.25,504.52c8.08,1.22,14.64,5.88,14.64,10.4s-6.55,7.19-14.64,5.96c-8.08-1.23-14.64-5.88-14.64-10.39s6.55-7.19,14.64-5.96" style="fill:#ffdd30; fill-rule:evenodd;"/></g><g id="bm"><path id="bn" d="m658.15,531.73c9.26,1.41,16.78,6.74,16.78,11.92s-7.51,8.24-16.78,6.83c-9.26-1.4-16.78-6.74-16.78-11.91s7.51-8.24,16.78-6.84" style="fill:#600; fill-rule:evenodd;"/></g><g id="bo"><path id="bp" d="m658.23,531.92c6.25.95,11.59,3.95,13.69,7.35l1.65.47-.82,3.57c-.89,3.9-7.05,6.1-14.52,4.96-8.09-1.22-14.64-5.88-14.64-10.39,0-.57.1-1.1.3-1.61l1.22-4.66,3.28.93c2.6-.92,6.05-1.2,9.83-.63" style="fill:#fb0; fill-rule:evenodd;"/></g><g id="bq"><path id="br" d="m659.45,527.28c8.08,1.22,14.64,5.88,14.64,10.4s-6.55,7.19-14.64,5.96c-8.08-1.22-14.64-5.88-14.64-10.4s6.55-7.18,14.64-5.96" style="fill:#ffdd30; fill-rule:evenodd;"/></g><g id="bs"><path id="bt" d="m486.04,98.55l2.43,3.94,4.49,1.09-2.99,3.52.35,4.61-4.28-1.76-4.28,1.76.35-4.61-2.99-3.52,4.49-1.09,2.43-3.94Z" style="fill:#fff07f; fill-rule:evenodd;"/></g><g id="bu"><path id="bv" d="m510.79,100.42c.8,1.3,1.6,2.6,2.4,3.89,1.48.36,2.96.72,4.44,1.08-.99,1.16-1.97,2.32-2.96,3.49.12,1.52.23,3.04.35,4.56-1.41-.58-2.82-1.16-4.23-1.74-1.41.58-2.82,1.16-4.23,1.74.11-1.52.23-3.04.35-4.56-.99-1.16-1.98-2.32-2.96-3.49,1.48-.36,2.96-.72,4.45-1.08.8-1.3,1.6-2.59,2.4-3.89" style="fill:#fff07f; fill-rule:evenodd;"/></g><g id="bw"><path id="bx" d="m535.56,102.3c.79,1.28,1.58,2.57,2.37,3.85,1.46.36,2.93.71,4.39,1.07-.98,1.15-1.95,2.3-2.93,3.44.11,1.5.23,3.01.34,4.51-1.39-.57-2.79-1.15-4.18-1.72-1.4.57-2.79,1.14-4.18,1.72.11-1.51.23-3.01.34-4.51-.98-1.15-1.95-2.3-2.93-3.44,1.46-.36,2.93-.71,4.39-1.07.79-1.28,1.58-2.57,2.37-3.85" style="fill:#fff07f; fill-rule:evenodd;"/></g><g id="by"><path id="bz" d="m560.31,104.17c.78,1.27,1.57,2.54,2.35,3.81,1.45.35,2.9.7,4.34,1.06-.96,1.13-1.93,2.27-2.89,3.41.11,1.49.23,2.97.34,4.45-1.38-.56-2.75-1.13-4.13-1.7-1.38.56-2.76,1.13-4.13,1.7.11-1.49.23-2.97.34-4.45-.96-1.13-1.93-2.27-2.89-3.41,1.45-.35,2.89-.7,4.35-1.06.78-1.27,1.56-2.54,2.34-3.81" style="fill:#fff07f; fill-rule:evenodd;"/></g><g id="ca"><path id="cb" d="m585.07,106.05c.77,1.26,1.55,2.51,2.32,3.76,1.43.35,2.86.69,4.29,1.04-.96,1.12-1.91,2.24-2.86,3.37.11,1.47.22,2.94.34,4.41-1.36-.56-2.72-1.12-4.09-1.68-1.36.56-2.72,1.12-4.08,1.68.11-1.47.22-2.94.33-4.41-.95-1.12-1.91-2.25-2.86-3.37,1.43-.35,2.86-.7,4.29-1.04.77-1.26,1.55-2.51,2.32-3.76" style="fill:#fff07f; fill-rule:evenodd;"/></g><g id="cc"><path id="cd" d="m609.83,107.93c.76,1.24,1.53,2.48,2.29,3.72,1.41.34,2.83.69,4.24,1.03-.94,1.11-1.88,2.22-2.83,3.32.11,1.45.22,2.9.33,4.36-1.34-.56-2.69-1.11-4.04-1.66-1.35.55-2.69,1.1-4.04,1.66.11-1.45.22-2.9.33-4.36-.94-1.11-1.89-2.22-2.83-3.32,1.41-.34,2.83-.69,4.24-1.03.76-1.24,1.53-2.48,2.29-3.72" style="fill:#fff07f; fill-rule:evenodd;"/></g><g id="ce"><path id="cf" d="m634.58,109.8c.76,1.22,1.51,2.45,2.26,3.68,1.4.34,2.8.68,4.2,1.01-.93,1.1-1.86,2.19-2.79,3.29.11,1.43.22,2.87.33,4.3-1.33-.54-2.66-1.09-3.99-1.64-1.33.55-2.66,1.1-3.99,1.64.11-1.43.22-2.87.33-4.3-.93-1.1-1.86-2.19-2.79-3.29,1.4-.34,2.79-.67,4.19-1.01.75-1.23,1.51-2.45,2.26-3.68" style="fill:#fff07f; fill-rule:evenodd;"/></g><g id="cg"><path id="ch" d="m659.34,111.68c.75,1.21,1.49,2.42,2.24,3.63,1.38.33,2.76.67,4.14,1-.92,1.08-1.84,2.17-2.76,3.25.11,1.42.22,2.83.32,4.25-1.31-.54-2.63-1.08-3.94-1.62-1.32.54-2.63,1.08-3.94,1.62.11-1.42.22-2.83.32-4.25-.92-1.08-1.84-2.17-2.76-3.25,1.38-.34,2.76-.67,4.14-1,.74-1.21,1.49-2.42,2.24-3.63" style="fill:#fff07f; fill-rule:evenodd;"/></g><g id="ci"><path id="cj" d="m684.1,113.56c.74,1.2,1.47,2.39,2.21,3.58,1.36.33,2.73.66,4.09,1-.91,1.07-1.82,2.14-2.73,3.21.11,1.4.21,2.8.32,4.2-1.3-.54-2.6-1.07-3.9-1.6-1.3.54-2.59,1.07-3.89,1.6.11-1.4.21-2.8.32-4.2-.91-1.07-1.82-2.14-2.73-3.21,1.37-.33,2.73-.66,4.09-1,.73-1.19,1.47-2.39,2.21-3.58" style="fill:#fff07f; fill-rule:evenodd;"/></g><g id="ck"><path id="cl" d="m708.86,115.43l2.18,3.54,4.04.98-2.69,3.17.32,4.15-3.84-1.58-3.85,1.58.32-4.15-2.69-3.17,4.04-.98,2.18-3.54Z" style="fill:#fff07f; fill-rule:evenodd;"/></g><g id="cm"><path id="cn" d="m485.48,120.46c.81,1.31,1.62,2.63,2.43,3.94,1.5.36,2.99.73,4.49,1.09-1,1.18-2,2.35-2.99,3.53.12,1.54.23,3.08.35,4.61-1.43-.58-2.85-1.17-4.28-1.76-1.42.59-2.85,1.18-4.28,1.76.12-1.54.23-3.07.35-4.61-1-1.18-2-2.35-2.99-3.53,1.5-.36,2.99-.72,4.49-1.09.81-1.31,1.62-2.63,2.43-3.94" style="fill:#fff07f; fill-rule:evenodd;"/></g><g id="co"><path id="cp" d="m484.93,142.37c.81,1.31,1.62,2.63,2.43,3.94,1.5.36,3,.72,4.5,1.09-1,1.18-2,2.35-3,3.53.12,1.54.24,3.08.35,4.61-1.43-.58-2.85-1.18-4.28-1.76-1.43.58-2.85,1.18-4.28,1.76.12-1.54.23-3.07.35-4.61-1-1.18-2-2.35-3-3.53,1.5-.36,3-.73,4.49-1.09.81-1.31,1.62-2.62,2.43-3.94" style="fill:#fff07f; fill-rule:evenodd;"/></g><g id="cq"><path id="cr" d="m484.37,164.29c.81,1.31,1.62,2.62,2.43,3.94,1.5.36,3,.73,4.5,1.09-1,1.18-2,2.35-3,3.53.12,1.54.23,3.07.35,4.61-1.43-.59-2.85-1.18-4.28-1.76-1.43.58-2.85,1.17-4.28,1.76.12-1.54.24-3.07.35-4.61-1-1.18-2-2.35-3-3.53,1.5-.36,3-.73,4.5-1.09.81-1.31,1.62-2.62,2.43-3.94" style="fill:#fff07f; fill-rule:evenodd;"/></g><g id="cs"><path id="ct" d="m483.82,186.2c.81,1.31,1.62,2.63,2.43,3.94,1.5.36,3,.73,4.5,1.09-1,1.17-2,2.35-3,3.53.12,1.54.23,3.07.35,4.61-1.42-.59-2.85-1.18-4.28-1.76-1.43.58-2.85,1.17-4.28,1.76.12-1.54.23-3.08.35-4.61-1-1.18-2-2.35-3-3.53,1.5-.36,3-.73,4.5-1.09.81-1.31,1.61-2.62,2.43-3.94" style="fill:#fff07f; fill-rule:evenodd;"/></g><g id="cu"><path id="cv" d="m483.27,208.11l2.43,3.94,4.5,1.09-3,3.53.35,4.61-4.28-1.76-4.28,1.76.35-4.61-2.99-3.53,4.5-1.09,2.43-3.94Z" style="fill:#fff07f; fill-rule:evenodd;"/></g><g id="cw"><path id="cx" d="m709.13,135.14c.73,1.18,1.45,2.36,2.18,3.54,1.35.33,2.69.65,4.04.98-.9,1.05-1.8,2.11-2.69,3.17.11,1.38.21,2.76.32,4.15-1.28-.53-2.56-1.06-3.85-1.58-1.28.53-2.56,1.06-3.85,1.58.11-1.38.21-2.76.32-4.15-.9-1.05-1.79-2.11-2.69-3.17,1.35-.33,2.69-.65,4.04-.98.72-1.18,1.45-2.36,2.18-3.54" style="fill:#fff07f; fill-rule:evenodd;"/></g><g id="cy"><path id="cz" d="m709.4,154.85c.73,1.18,1.46,2.36,2.18,3.54,1.35.33,2.69.65,4.04.98-.9,1.05-1.79,2.11-2.69,3.17.1,1.39.21,2.77.32,4.15-1.28-.53-2.56-1.06-3.85-1.58-1.28.53-2.56,1.06-3.85,1.58.11-1.38.21-2.76.32-4.15-.9-1.06-1.79-2.12-2.69-3.17,1.35-.33,2.69-.66,4.04-.98.72-1.18,1.45-2.36,2.18-3.54" style="fill:#fff07f; fill-rule:evenodd;"/></g><g id="da"><path id="db" d="m709.67,174.55c.73,1.18,1.46,2.36,2.18,3.54,1.34.33,2.69.65,4.04.98-.9,1.06-1.79,2.11-2.69,3.17.1,1.38.21,2.76.31,4.15-1.28-.53-2.56-1.06-3.84-1.58-1.28.53-2.56,1.05-3.85,1.58.11-1.38.21-2.76.32-4.15-.9-1.06-1.8-2.11-2.69-3.17,1.35-.33,2.69-.65,4.04-.98.73-1.18,1.45-2.36,2.18-3.54" style="fill:#fff07f; fill-rule:evenodd;"/></g><g id="dc"><path id="dd" d="m709.94,194.26c.72,1.18,1.45,2.36,2.18,3.54,1.35.33,2.7.65,4.04.98-.9,1.06-1.8,2.11-2.69,3.17.1,1.38.21,2.76.32,4.15-1.28-.53-2.56-1.05-3.84-1.58-1.28.53-2.57,1.05-3.85,1.58.11-1.38.21-2.76.32-4.15-.9-1.06-1.79-2.11-2.69-3.17,1.34-.33,2.69-.65,4.04-.98.73-1.18,1.45-2.36,2.18-3.54" style="fill:#fff07f; fill-rule:evenodd;"/></g><g id="de"><path id="df" d="m508.48,208.76c.8,1.3,1.6,2.6,2.4,3.89,1.48.36,2.96.72,4.45,1.08-.99,1.17-1.98,2.32-2.96,3.49.12,1.52.23,3.04.35,4.56-1.41-.58-2.82-1.16-4.23-1.74-1.41.58-2.82,1.16-4.23,1.74.12-1.52.23-3.04.35-4.56-.99-1.17-1.97-2.32-2.96-3.49,1.48-.36,2.96-.72,4.45-1.08.8-1.3,1.6-2.6,2.4-3.89" style="fill:#fff07f; fill-rule:evenodd;"/></g><g id="dg"><path id="dh" d="m533.7,209.41c.79,1.28,1.58,2.57,2.37,3.85,1.47.35,2.93.71,4.39,1.07-.97,1.15-1.95,2.3-2.93,3.45.11,1.51.23,3.01.34,4.51-1.4-.57-2.79-1.15-4.18-1.72-1.39.57-2.79,1.15-4.18,1.72.11-1.5.23-3,.34-4.51-.98-1.15-1.95-2.3-2.93-3.45,1.46-.36,2.93-.71,4.39-1.07.79-1.29,1.58-2.57,2.37-3.85" style="fill:#fff07f; fill-rule:evenodd;"/></g><g id="di"><path id="dj" d="m558.92,210.06c.78,1.27,1.56,2.54,2.34,3.81,1.45.35,2.9.7,4.35,1.05-.97,1.14-1.93,2.28-2.89,3.41.11,1.49.22,2.97.34,4.46-1.38-.56-2.76-1.13-4.13-1.7-1.38.56-2.76,1.13-4.13,1.7.11-1.49.23-2.97.34-4.46-.97-1.13-1.93-2.27-2.89-3.41,1.45-.35,2.89-.7,4.34-1.05.78-1.27,1.56-2.54,2.35-3.81" style="fill:#fff07f; fill-rule:evenodd;"/></g><g id="dk"><path id="dl" d="m584.13,210.71c.77,1.26,1.54,2.51,2.32,3.76,1.43.35,2.86.69,4.29,1.04-.95,1.12-1.91,2.24-2.86,3.37.11,1.47.22,2.94.33,4.4-1.36-.56-2.72-1.12-4.08-1.68-1.36.56-2.73,1.12-4.09,1.68.11-1.46.22-2.94.34-4.4-.96-1.12-1.91-2.25-2.86-3.37,1.43-.35,2.86-.7,4.3-1.04.77-1.25,1.54-2.51,2.32-3.76" style="fill:#fff07f; fill-rule:evenodd;"/></g><g id="dm"><path id="dn" d="m609.35,211.36c.77,1.24,1.53,2.48,2.29,3.72,1.41.34,2.83.69,4.24,1.03-.94,1.11-1.89,2.22-2.83,3.33.11,1.45.22,2.9.33,4.36-1.35-.55-2.69-1.11-4.04-1.66-1.34.55-2.69,1.11-4.04,1.66.11-1.45.22-2.9.34-4.36-.95-1.11-1.89-2.22-2.83-3.33,1.41-.34,2.83-.68,4.24-1.03.76-1.24,1.53-2.48,2.29-3.72" style="fill:#fff07f; fill-rule:evenodd;"/></g><g id="do"><path id="dp" d="m634.56,212.01c.76,1.23,1.51,2.45,2.26,3.68,1.4.34,2.8.68,4.19,1.02-.93,1.09-1.86,2.19-2.79,3.29.11,1.43.22,2.87.33,4.3-1.33-.55-2.66-1.1-3.99-1.64-1.33.55-2.66,1.09-3.99,1.64.11-1.44.22-2.87.33-4.3-.93-1.09-1.86-2.19-2.79-3.29,1.4-.34,2.79-.68,4.19-1.02.75-1.22,1.51-2.45,2.26-3.68" style="fill:#fff07f; fill-rule:evenodd;"/></g><g id="dq"><path id="dr" d="m659.78,212.66c.74,1.21,1.49,2.42,2.24,3.63,1.38.34,2.76.67,4.14,1-.92,1.09-1.84,2.17-2.76,3.25.11,1.42.22,2.84.33,4.25-1.32-.54-2.63-1.08-3.94-1.62-1.31.54-2.63,1.08-3.94,1.62.11-1.42.22-2.83.33-4.25-.92-1.08-1.84-2.17-2.76-3.25,1.38-.33,2.76-.67,4.14-1,.75-1.21,1.49-2.42,2.24-3.63" style="fill:#fff07f; fill-rule:evenodd;"/></g><g id="ds"><path id="dt" d="m685,213.32c.74,1.2,1.47,2.39,2.21,3.58,1.36.33,2.73.66,4.09,1-.91,1.07-1.82,2.14-2.73,3.2.11,1.4.21,2.8.32,4.2-1.3-.53-2.6-1.07-3.89-1.6-1.3.54-2.6,1.07-3.89,1.6.11-1.4.21-2.8.32-4.2-.91-1.07-1.82-2.14-2.73-3.21,1.37-.33,2.73-.66,4.09-1,.74-1.19,1.47-2.39,2.21-3.58" style="fill:#fff07f; fill-rule:evenodd;"/></g><g id="du"><path id="dv" d="m710.21,213.97l2.18,3.54,4.04.98-2.69,3.17.32,4.15-3.85-1.58-3.84,1.58.32-4.15-2.69-3.17,4.04-.98,2.18-3.54Z" style="fill:#fff07f; fill-rule:evenodd;"/></g><g id="dw" style="fill:none; opacity:.5;"><path id="dx" d="m243.55,835.86l1.46-491.59c60.69,56.54,102.83,180.61,102.83,324.6,0,74.32-11.23,143.34-30.43,200.5l-73.85-33.52Z" style="fill-rule:evenodd;"/></g></g></g></g></svg>