<?xml version="1.0" encoding="UTF-8"?><svg id="a" xmlns="http://www.w3.org/2000/svg" width="1024" height="1024" viewBox="0 0 1024 1024"><path id="b" d="m827.74,906.8s-23.23,15.31-48.4,15.31-73.54,10.95-94.84,10.95-81.28,4.36-100.64,4.36-65.8-8.75-81.28-8.75-67.75-15.31-67.75-15.31c0,0-13.55,13.13-13.55,28.45s5.82,50.35,5.82,50.35l-7.74,32.81h443.22s.98-37.06-11.62-48.14c-4.35-3.83-8.23-10.28-11.52-17.71-3.09-6.99,1.9-16.38-.09-23.87-4.42-16.51-13.61-29.59-11.62-28.46" style="fill-rule:evenodd;"/><path id="c" d="m827.74,906.8s-23.23,15.31-48.4,15.31-73.54,10.95-94.84,10.95-81.28,4.36-100.64,4.36-65.8-8.75-81.28-8.75-67.75-15.31-67.75-15.31c0,0-13.55,13.13-13.55,28.45s5.82,50.35,5.82,50.35l-7.74,32.81h443.22s.98-37.06-11.62-48.14c-4.35-3.83-8.23-10.28-11.52-17.71-3.09-6.99,1.9-16.38-.09-23.87-4.42-16.51-13.61-29.59-11.62-28.46h0Z" style="fill:none; stroke:#000; stroke-miterlimit:11.5; stroke-width:3.12px;"/><path id="d" d="m781.86,927.19l147.96-4.7s11.91-11.78,16.37-21.87c4.46-10.1-4.47-127.93-4.47-127.93l-10.42-149.8-28.29-223.88-363.21,20.2-101.23-1.68s-19.36-1.68-20.84,6.74c-1.49,8.41-1.49,47.13-1.49,47.13l212.87,370.32,152.74,85.48" style="fill-rule:evenodd;"/><path id="e" d="m781.86,927.19l147.96-4.7s11.91-11.78,16.37-21.87c4.46-10.1-4.47-127.93-4.47-127.93l-10.42-149.8-28.29-223.88-363.21,20.2-101.23-1.68s-19.36-1.68-20.84,6.74c-1.49,8.41-1.49,47.13-1.49,47.13l212.87,370.32,152.74,85.48h0Z" style="fill:none; stroke:#000; stroke-linejoin:round; stroke-width:3.12px;"/><path id="f" d="m489.19,456.24s-89.31,67.34-87.82,92.58c1.49,25.24,20.84,116.13,20.84,116.13,0,0-16.37,1.68-8.94,26.93s0,31.98-2.97,43.76c-2.98,11.78,12.28,21.85,15.26,40.36,2.97,18.51,4.82,27.47,4.82,40.94s.75,24.76.75,36.54-14.18,60.23,9.63,73.69l194.3-.63,131.6.63h47.28c13.4-15.15,26.57-23.2,25.07-51.82-1.49-28.61,22.33-52.19,23.81-70.7s-7.44-42.08-8.94-74.06c-1.5-31.98-8.94-52.19-2.97-63.97,5.95-11.77,14.88-131.27,14.88-131.27l-19.35-77.43-29.78-37.03-233.7-8.43s-90.8,48.81-93.79,43.76" style="fill-rule:evenodd;"/><path id="g" d="m489.19,456.24s-89.31,67.34-87.82,92.58c1.49,25.24,20.84,116.13,20.84,116.13,0,0-16.37,1.68-8.94,26.93s0,31.98-2.97,43.76c-2.98,11.78,12.28,21.85,15.26,40.36,2.97,18.51,4.82,27.47,4.82,40.94s.75,24.76.75,36.54-14.18,60.23,9.63,73.69l194.3-.63,131.6.63h47.28c13.4-15.15,26.57-23.2,25.07-51.82-1.49-28.61,22.33-52.19,23.81-70.7s-7.44-42.08-8.94-74.06c-1.5-31.98-8.94-52.19-2.97-63.97,5.94-11.77,14.88-131.27,14.88-131.27l-19.35-77.43-29.78-37.03-233.7-8.43s-90.8,48.81-93.79,43.76h0v.02Z" style="fill:none; stroke:#000; stroke-linejoin:round; stroke-width:3.12px;"/><path id="h" d="m726.91,438.09s-27.47-29.56-29.48-55.31c-2.02-25.76,6.03-74.27,2.01-96.99-4.03-22.73-15.42-40.17-6.7-46.22,8.71-6.06,79.74-3.03,86.44-.76,6.7,2.26,22.11-4.55,29.49,9.84,7.37,14.41,33.51,141.7,34.17,161.4.66,19.71-12.73,19.71-33.51,25.78s-35.52,12.12-35.52,12.12c0,0-11.38-9.09-25.47-8.34-14.07.77-20.1-1.52-21.44-1.52" style="fill-rule:evenodd;"/><path id="i" d="m726.91,438.09s-27.47-29.56-29.48-55.31c-2.02-25.76,6.03-74.27,2.01-96.99-4.03-22.73-15.42-40.17-6.7-46.22,8.71-6.06,79.74-3.03,86.44-.76,6.7,2.26,22.11-4.55,29.49,9.84,7.37,14.41,33.51,141.7,34.17,161.4.66,19.71-12.73,19.71-33.51,25.78s-35.52,12.12-35.52,12.12c0,0-11.38-9.09-25.47-8.34-14.07.77-20.1-1.52-21.44-1.52h.01Z" style="fill:none; stroke:#000; stroke-linejoin:round; stroke-width:3.12px;"/><path id="j" d="m439.09,299.25s-3.38,47.73,5.07,78.29c8.45,30.55,18.57,51.54,25.33,63,3.38,11.46,20.26,28.64,20.26,28.64l21.95-13.36-32.08-190.94s-40.53,38.18-40.53,34.38" style="fill-rule:evenodd;"/><path id="k" d="m439.09,299.25s-3.38,47.73,5.07,78.29c8.45,30.55,18.57,51.54,25.33,63,3.38,11.46,20.26,28.64,20.26,28.64l21.95-13.36-32.08-190.94s-40.53,38.18-40.53,34.38h0Z" style="fill:none; stroke:#000; stroke-linejoin:round; stroke-width:3.12px;"/><path id="l" d="m398.66,243.13l25.98-27.11,33.94-6.77,19.99,62.12-34.96,32.76-44.95-61" style="fill-rule:evenodd;"/><path id="m" d="m398.66,243.13l25.98-27.11,33.94-6.77,19.99,62.12-34.96,32.76-44.95-61h-.01Z" style="fill:none; stroke:#000; stroke-linejoin:round; stroke-width:3.12px;"/><path id="n" d="m403.65,236.36l31.98-7.9,16.98,64.37" style="fill-rule:evenodd;"/><path id="o" d="m403.65,236.36l31.98-7.9,16.98,64.37" style="fill:none; stroke:#000; stroke-linejoin:round; stroke-width:3.12px;"/><path id="p" d="m427.63,238.61l-26.96,5.66s-3-1.13-4,4.51c-.99,5.66,1.01,7.92,1.01,7.92l11.98,45.18s0,2.25,4,5.64,8.99,1.13,8.99,1.13l22.98-4.52-17.99-65.52" style="fill-rule:evenodd;"/><path id="q" d="m427.63,238.61l-26.96,5.66s-3-1.13-4,4.51c-.99,5.66,1.01,7.92,1.01,7.92l11.98,45.18s0,2.25,4,5.64,8.99,1.13,8.99,1.13l22.98-4.52-17.99-65.52h0Z" style="fill:none; stroke:#000; stroke-linejoin:round; stroke-width:3.12px;"/><path id="r" d="m462.58,217.17s16.68-34.2,50.95-50.83c20.98-10.17,39.04-18.34,83.89-13.56,52.95,5.66,88.89,39.54,88.89,39.54l-47.95,31.63s-51.93-46.31-85.88-45.18c-33.96,1.13-54.94,15.81-63.93,25.98-8.99,10.17-21.96,28.24-21.96,28.24l-4-15.81" style="fill-rule:evenodd;"/><path id="s" d="m462.58,217.17s16.68-34.2,50.95-50.83c20.98-10.17,39.04-18.34,83.89-13.56,52.95,5.66,88.89,39.54,88.89,39.54l-47.95,31.63s-51.93-46.31-85.88-45.18c-33.96,1.13-54.94,15.81-63.93,25.98-8.99,10.17-21.96,28.24-21.96,28.24l-4-15.81h-.01Z" style="fill:none; stroke:#000; stroke-linejoin:round; stroke-width:3.12px;"/><path id="t" d="m946.05,555.54v18.94l11.4.76s4.03,0,5.37-3.78c1.33-3.79,0-50.77,0-50.77,0,0,2.01-11.37-6.04-10.61-8.05.76-10.73,45.48-10.73,45.48" style="fill-rule:evenodd;"/><path id="u" d="m946.05,555.54v18.94l11.4.76s4.03,0,5.37-3.78c1.33-3.79,0-50.77,0-50.77,0,0,2.01-11.37-6.04-10.61-8.05.76-10.73,45.48-10.73,45.48h0Z" style="fill:none; stroke:#000; stroke-linejoin:round; stroke-width:3.12px;"/><path id="v" d="m948.05,546.45s-1.33,47.74-2.01,57.6c-.66,9.84-4.01,28.03-8.04,36.37-4.01,8.33-24.8,46.98-40.21,51.53-15.41,4.54-46.24,11.36-60.99,9.09-14.74-2.26-36.85-23.49-46.24-37.88-9.37-14.41-13.4-36.37-9.37-54.56,4.01-18.2,13.4-22.73,16.75-35.63,3.35-12.88,15.41-30.31,15.41-30.31" style="fill-rule:evenodd;"/><path id="w" d="m948.05,546.45s-1.33,47.74-2.01,57.6c-.66,9.84-4.01,28.03-8.04,36.37-4.01,8.33-24.8,46.98-40.21,51.53-15.41,4.54-46.24,11.36-60.99,9.09-14.74-2.26-36.85-23.49-46.24-37.88-9.37-14.41-13.4-36.37-9.37-54.56,4.01-18.2,13.4-22.73,16.75-35.63,3.35-12.88,15.41-30.31,15.41-30.31" style="fill:none; stroke:#000; stroke-linejoin:round; stroke-width:3.12px;"/><path id="x" d="m709.28,169.73l26.96-7.9s5.01-1.13,10.99,0c5.99,1.12,9.99,3.38,9.99,3.38,0,0,23.96,9.04,26.96,19.2,3,10.17,7.99,63.25,7.99,63.25,0,0,2.01,6.77-3,12.43-5,5.66-34.95,11.29-34.95,11.29" style="fill-rule:evenodd;"/><path id="y" d="m709.28,169.73l26.96-7.9s5.01-1.13,10.99,0c5.99,1.12,9.99,3.38,9.99,3.38,0,0,23.96,9.04,26.96,19.2,3,10.17,7.99,63.25,7.99,63.25,0,0,2.01,6.77-3,12.43-5,5.66-34.95,11.29-34.95,11.29m-328.59-31.63l29.97-30.48" style="fill:none; stroke:#000; stroke-linejoin:round; stroke-width:3.12px;"/><path id="z" d="m672.32,185.55s-5-5.66-3-11.3c2.01-5.64,14.99-14.68,19.99-13.56,5,1.13,23.98,1.13,23.98,1.13l6.99,2.25-20.98,14.69s3,6.77-3.99,7.9c-7,1.13-22.98-2.25-22.98-1.12" style="fill-rule:evenodd;"/><path id="aa" d="m672.32,185.55s-5-5.66-3-11.3c2.01-5.64,14.99-14.68,19.99-13.56,5,1.13,23.98,1.13,23.98,1.13l6.99,2.25-20.98,14.69s3,6.77-3.99,7.9c-7,1.13-22.98-2.25-22.98-1.12h-.01Z" style="fill:none; stroke:#000; stroke-linejoin:round; stroke-width:3.12px;"/><path id="ab" d="m680.31,183.29s-.99-6.77,5.99-12.43c7-5.64,13.98-9.04,13.98-9.04" style="fill-rule:evenodd;"/><path id="ac" d="m680.31,183.29s-.99-6.77,5.99-12.43c7-5.64,13.98-9.04,13.98-9.04" style="fill:none; stroke:#000; stroke-linejoin:round; stroke-width:3.12px;"/><path id="ad" d="m787.9,396.42s-4.7,14.39,0,28.03c4.7,13.64,11.4,18.18,12.73,25.01,1.34,6.83-7.37,37.14-3.34,55.32,4.01,18.18-5.37,37.13,6.03,50.76,11.4,13.65,28.81,25.78,34.85,30.33,6.04,4.54,22.12,11.36,36.85,11.36s36.86-6.82,46.24-14.39c9.38-7.58,13.4-18.94,21.44-27.28,8.04-8.33,16.08-18.94,16.75-38.64.68-19.71,2.68-57.6-.66-71.23-3.35-13.63.66-28.04-3.35-34.86-4.01-6.82-127.33-38.65-167.53-14.39" style="fill-rule:evenodd;"/><path id="ae" d="m787.9,396.42s-4.7,14.39,0,28.03c4.7,13.64,11.4,18.18,12.73,25.01,1.34,6.83-7.37,37.14-3.34,55.32,4.01,18.18-5.37,37.13,6.03,50.76,11.4,13.65,28.81,25.78,34.85,30.33,6.04,4.54,22.12,11.36,36.85,11.36s36.86-6.82,46.24-14.39c9.38-7.58,13.4-18.94,21.44-27.28,8.04-8.33,16.08-18.94,16.75-38.64.68-19.71,2.68-57.6-.66-71.23-3.35-13.63.66-28.04-3.35-34.86-4.01-6.82-127.33-38.65-167.53-14.39v-.02Z" style="fill:none; stroke:#000; stroke-linejoin:round; stroke-width:3.12px;"/><path id="af" d="m760.21,306.37s3.99,7.92,13.98,15.81c9.98,7.92,0,9.04,12.99,18.08,12.99,9.04,10.99,12.42,10.99,12.42,0,0,.99,9.05-4,16.95s-11.98,5.64-8.99,16.94c2.98,11.29,11.98,29.37,32.96,37.27,20.98,7.92,59.93,22.59,78.91,20.33,18.97-2.26,34.95-3.39,46.93-13.56,11.99-10.17,16.99-9.04,13.98-29.36-3-20.33,0-21.45-5-31.63-5-10.17-17.97-21.45-17.97-21.45h-9.98l-4-16.95s4,1.13,5.99-12.42c1.99-13.56,1.01-38.41,1.01-38.41,0,0-9.99-29.37-14.99-37.27-5-7.9-29.95-37.27-29.95-37.27,0,0-53.93-2.25-56.94,7.92-3,10.15,6.99,82.44-7,86.95-13.97,4.52-47.94-15.81-47.94-15.81,0,0-11.99,20.33-10.99,21.45" style="fill-rule:evenodd;"/><path id="ag" d="m760.21,306.37s3.99,7.92,13.98,15.81c9.98,7.92,0,9.04,12.99,18.08,12.99,9.04,10.99,12.42,10.99,12.42,0,0,.99,9.05-4,16.95s-11.98,5.64-8.99,16.94c2.98,11.29,11.98,29.37,32.96,37.27,20.98,7.92,59.93,22.59,78.91,20.33,18.97-2.26,34.95-3.39,46.93-13.56,11.99-10.17,16.99-9.04,13.98-29.36-3-20.33,0-21.45-5-31.63-5-10.17-17.97-21.45-17.97-21.45h-9.98l-4-16.95s4,1.13,5.99-12.42c1.99-13.56,1.01-38.41,1.01-38.41,0,0-9.99-29.37-14.99-37.27-5-7.9-29.95-37.27-29.95-37.27,0,0-53.93-2.25-56.94,7.92-3,10.15,6.99,82.44-7,86.95-13.97,4.52-47.94-15.81-47.94-15.81,0,0-11.99,20.33-10.99,21.45h.01Z" style="fill:none; stroke:#000; stroke-linejoin:round; stroke-width:3.12px;"/><path id="ah" d="m812.15,350.44s-10.99-12.44-14.98-18.07c-4-5.66-14.98-13.56-18.98-18.08-3.99-4.51-6.99-9.04-6.99-9.04l-9,4.52s-13.97-14.68-13.97-22.59,7.99-12.43,16.98-10.17c9,2.26,13.98,4.52,13.98,4.52,0,0,6.99-2.25,15.98,4.51,8.99,4.52,8.99,7.92,8.99,7.92,0,0,1.99-7.92,7-10.17,5-2.25,2.98-3.39,2.98-3.39,0,0-3.99-7.9-3.99-15.81s5-12.42,3-19.2c-1.99-6.76-5-3.38-5-11.29s.99-11.29.99-11.29c0,0-6.99-12.43-7.99-20.32-.99-7.92-3.99-30.5,3-32.76,7-2.25,12.99,1.13,12.99,1.13l5.99,6.76s3.99-10.15,11.99-10.15c4.98,2.25,7.98,2.25,11.98,7.9,3.99,5.66,5,13.56,5,13.56,0,0,5-3.39,14.98-2.26,9.98,1.13,17.97,20.33,17.97,20.33l-3,7.9,5,10.17s1.99-14.68,11.99-14.68,14.98-1.13,17.97,6.77c3,7.9,1.99,13.56,1.99,21.45s3,10.15,3,18.07,1.01,16.95,1.01,16.95c0,0,6.99,1.12,5,9.04-2.01,7.9-5,11.29-5,11.29,0,0,.99,1.13,0,9.04-1.01,7.92-2.01,16.94-2.01,16.94,0,0-1.99,27.12-18.97,35.01-16.99,7.92-26.97,14.68-46.94,14.68s-42.95-19.19-42.95-19.19" style="fill-rule:evenodd;"/><path id="ai" d="m812.15,350.44s-10.99-12.44-14.98-18.07c-4-5.66-14.98-13.56-18.98-18.08-3.99-4.51-6.99-9.04-6.99-9.04l-9,4.52s-13.97-14.68-13.97-22.59,7.99-12.43,16.98-10.17c9,2.26,13.98,4.52,13.98,4.52,0,0,6.99-2.25,15.98,4.51,8.99,4.52,8.99,7.92,8.99,7.92,0,0,1.99-7.92,7-10.17,5-2.25,2.98-3.39,2.98-3.39,0,0-3.99-7.9-3.99-15.81s5-12.42,3-19.2c-1.99-6.76-5-3.38-5-11.29s.99-11.29.99-11.29c0,0-6.99-12.43-7.99-20.32-.99-7.92-3.99-30.5,3-32.76,7-2.25,12.99,1.13,12.99,1.13l5.99,6.76s3.99-10.15,11.99-10.15c4.98,2.25,7.98,2.25,11.98,7.9,3.99,5.66,5,13.56,5,13.56,0,0,5-3.39,14.98-2.26,9.98,1.13,17.97,20.33,17.97,20.33l-3,7.9,5,10.17s1.99-14.68,11.99-14.68,14.98-1.13,17.97,6.77c3,7.9,1.99,13.56,1.99,21.45s3,10.15,3,18.07,1.01,16.95,1.01,16.95c0,0,6.99,1.12,5,9.04-2.01,7.9-5,11.29-5,11.29,0,0,.99,1.13,0,9.04-1.01,7.92-2.01,16.94-2.01,16.94,0,0-1.99,27.12-18.97,35.01-16.99,7.92-26.97,14.68-46.94,14.68s-42.95-19.19-42.95-19.19h0Z" style="fill:none; stroke:#000; stroke-linejoin:round; stroke-width:3.12px;"/><path id="aj" d="m440.38,211.14c.61,3.03-3.46,6.7-9.1,8.16s-10.73.19-11.35-2.86c-.61-3.02,3.47-6.69,9.1-8.15,5.64-1.48,10.73-.2,11.35,2.85" style="fill-rule:evenodd;"/><path id="ak" d="m440.38,211.14c.61,3.03-3.46,6.7-9.1,8.16s-10.73.19-11.35-2.86c-.61-3.02,3.47-6.69,9.1-8.15,5.64-1.48,10.73-.2,11.35,2.85h0Z" style="fill:none; stroke:#000; stroke-linejoin:round; stroke-width:3.12px;"/><path id="al" d="m920.54,322.19s-5.46,17.06-24.03,24.37c-18.58,7.31-40.43,9.76-40.43,9.76l6.56,25.6s10.92,1.22,30.59-3.67c19.67-4.88,32.77-17.06,32.77-17.06,0,0-5.46-40.23-5.46-39" style="fill-rule:evenodd;"/><path id="am" d="m920.54,322.19s-5.46,17.06-24.03,24.37c-18.58,7.31-40.43,9.76-40.43,9.76l6.56,25.6s10.92,1.22,30.59-3.67c19.67-4.88,32.77-17.06,32.77-17.06,0,0-5.46-40.23-5.46-39h.01Z" style="fill:none; stroke:#000; stroke-linejoin:round; stroke-width:3.12px;"/><path id="an" d="m822.13,177.63s1.01,10.17,2.01,18.08c.99,7.9,1.99,9.04,1.99,9.04,0,0-1.99,2.25-1.01,9.04,1.01,6.77,3,11.3,3,11.3v6.76c0,12.44,4,20.33,4,20.33" style="fill-rule:evenodd;"/><path id="ao" d="m822.13,177.63s1.01,10.17,2.01,18.08c.99,7.9,1.99,9.04,1.99,9.04,0,0-1.99,2.25-1.01,9.04,1.01,6.77,3,11.3,3,11.3v6.76c0,12.44,4,20.33,4,20.33" style="fill:none; stroke:#000; stroke-linejoin:round; stroke-width:3.12px;"/><path id="ap" d="m852.11,188.93s-5.01,12.43-2.01,18.07,5.99,9.04,5.99,9.04c0,0-.99,3.39,1.01,10.17,1.99,6.78,3.99,9.04,3.99,9.04,0,0-3.99,10.17-.99,15.81,2.98,5.66,1.99,9.04,1.99,9.04" style="fill-rule:evenodd;"/><path id="aq" d="m852.11,188.93s-5.01,12.43-2.01,18.07,5.99,9.04,5.99,9.04c0,0-.99,3.39,1.01,10.17,1.99,6.78,3.99,9.04,3.99,9.04,0,0-3.99,10.17-.99,15.81,2.98,5.66,1.99,9.04,1.99,9.04" style="fill:none; stroke:#000; stroke-linejoin:round; stroke-width:3.12px;"/><path id="ar" d="m886.05,227.32l2.01,10.17s-4,6.77-2.01,12.43c2.01,5.64,3,7.92,3,7.92,0,0-3-1.13-3,5.64s4,10.17,4,10.17" style="fill-rule:evenodd;"/><path id="as" d="m886.05,227.32l2.01,10.17s-4,6.77-2.01,12.43c2.01,5.64,3,7.92,3,7.92,0,0-3-1.13-3,5.64s4,10.17,4,10.17" style="fill:none; stroke:#000; stroke-linejoin:round; stroke-width:3.12px;"/><path id="at" d="m456.46,484.86s-23.81,0-37.22,13.46c-13.4,13.46-11.92,21.87-17.86,33.66-5.95,11.78-14.89,18.52-17.87,33.67-2.97,15.15-4.46,20.2-7.43,33.66-2.98,13.47-5.95,26.93-5.95,26.93,0,0-2.98,0-5.95,6.72-2.97,6.74-20.83,0-34.23,13.47-13.4,13.47-34.24,18.51-34.24,18.51l-16.37,132.99s43.18,5.05,58.07,0c14.89-5.06,28.28,3.37,35.72-6.74,7.44-10.09,4.47-5.05,13.4-13.47,8.94-8.41,35.72-16.83,35.72-16.83,0,0-7.69-93.7.96-164.99,8.12-67,32.56-111.87,33.3-111.06" style="fill-rule:evenodd;"/><path id="au" d="m456.46,484.86s-23.81,0-37.22,13.46c-13.4,13.46-11.92,21.87-17.86,33.66-5.95,11.78-14.89,18.52-17.87,33.67-2.97,15.15-4.46,20.2-7.43,33.66-2.98,13.47-5.95,26.93-5.95,26.93,0,0-2.98,0-5.95,6.72-2.97,6.74-20.83,0-34.23,13.47-13.4,13.47-34.24,18.51-34.24,18.51l-16.37,132.99s43.18,5.05,58.07,0c14.89-5.06,28.28,3.37,35.72-6.74,7.44-10.09,4.47-5.05,13.4-13.47,8.94-8.41,35.72-16.83,35.72-16.83,0,0-7.69-93.7.96-164.99,8.12-67,32.56-111.87,33.3-111.06h-.03Z" style="fill:none; stroke:#000; stroke-linejoin:round; stroke-width:3.12px;"/><path id="av" d="m126.06,887.52s1.8,2.23,8.09,2.23,10.79-.75,12.59-7.43c1.8-6.7-7.2-11.91-7.2-11.91,0,0-11.69.75-12.59,4.46-.89,3.72.9,15.62-.89,12.64" style="fill-rule:evenodd;"/><path id="aw" d="m126.06,887.52s1.8,2.23,8.09,2.23,10.79-.75,12.59-7.43c1.8-6.7-7.2-11.91-7.2-11.91,0,0-11.69.75-12.59,4.46-.89,3.72.9,15.62-.89,12.64h0Z" style="fill:none; stroke:#000; stroke-linejoin:round; stroke-width:3.12px;"/><path id="ax" d="m113.47,901.95s1.8,3.05,8.09,3.05,10.79-1.02,12.59-10.17c1.8-9.16-7.19-16.28-7.19-16.28,0,0-11.69,1.02-12.59,6.1-.89,5.08.9,21.37-.89,17.3" style="fill-rule:evenodd;"/><path id="ay" d="m113.47,901.95s1.8,3.05,8.09,3.05,10.79-1.02,12.59-10.17c1.8-9.16-7.19-16.28-7.19-16.28,0,0-11.69,1.02-12.59,6.1-.89,5.08.9,21.37-.89,17.3h-.01Z" style="fill:none; stroke:#000; stroke-linejoin:round; stroke-width:3.12px;"/><path id="az" d="m97.29,890.76s-3.59,7.12,2.7,10.17,15.28,2.04,15.28,2.04l2.7-10.17-11.69-48.82s-18.89,0-20.69,6.1c-1.8,6.1-3.59,21.35.9,27.46s10.78,14.24,10.78,13.24" style="fill-rule:evenodd;"/><path id="ba" d="m97.29,890.76s-3.59,7.12,2.7,10.17,15.28,2.04,15.28,2.04l2.7-10.17-11.69-48.82s-18.89,0-20.69,6.1c-1.8,6.1-3.59,21.35.9,27.46s10.78,14.24,10.78,13.24h0Z" style="fill:none; stroke:#000; stroke-linejoin:round; stroke-width:3.12px;"/><path id="bb" d="m312.2,681.31s-3.59-11.19-10.79-16.27c-7.2-5.08-9-8.14-17.97-5.08-9,3.05-34.18,11.19-47.66,18.31-13.5,7.12-13.5,12.2-30.57,21.35-17.09,9.15-28.78,9.15-35.97,19.3-7.2,10.18-10.78,10.18-15.28,20.35-4.5,10.15-5.39,20.33-15.28,25.41-9.89,5.1-10.78,9.15-21.58,13.24-10.79,4.06-19.78,7.12-24.28,19.32-4.49,12.2,2.7,20.32-4.49,22.36-7.2,2.05-7.2,1.02-14.39,10.17-7.19,9.15-12.59,17.29-9.89,26.44,2.7,9.15,6.3,22.37,6.3,22.37,0,0,48.56-2.04,53.05-3.05,4.5-1.02,8.09-1.02,13.49-6.1,5.4-5.08,10.79-10.17,18.89-18.31,8.09-8.14,6.3-10.17,12.59-9.15s18.88-7.12,31.47-6.1c12.58,1.02,18.88,6.1,33.27,3.05,14.39-3.05,14.39-8.14,28.77-8.14s22.47-7.12,41.36-11.19c18.88-4.05,21.58-5.08,27.88-11.19,6.3-6.11,9-4.06,6.3-25.42-2.7-21.35,5.39-34.56-5.39-53.88-10.79-19.34-13.5-29.49-15.28-36.6-1.8-7.12-6.3-11.19-4.5-11.19" style="fill-rule:evenodd;"/><path id="bc" d="m312.2,681.31s-3.59-11.19-10.79-16.27c-7.2-5.08-9-8.14-17.97-5.08-9,3.05-34.18,11.19-47.66,18.31-13.5,7.12-13.5,12.2-30.57,21.35-17.09,9.15-28.78,9.15-35.97,19.3-7.2,10.18-10.78,10.18-15.28,20.35-4.5,10.15-5.39,20.33-15.28,25.41-9.89,5.1-10.78,9.15-21.58,13.24-10.79,4.06-19.78,7.12-24.28,19.32-4.49,12.2,2.7,20.32-4.49,22.36-7.2,2.05-7.2,1.02-14.39,10.17-7.19,9.15-12.59,17.29-9.89,26.44,2.7,9.15,6.3,22.37,6.3,22.37,0,0,48.56-2.04,53.05-3.05,4.5-1.02,8.09-1.02,13.49-6.1,5.4-5.08,10.79-10.17,18.89-18.31,8.09-8.14,6.3-10.17,12.59-9.15s18.88-7.12,31.47-6.1c12.58,1.02,18.88,6.1,33.27,3.05,14.39-3.05,14.39-8.12,28.77-8.12s22.47-7.13,41.36-11.2c18.88-4.05,21.58-5.08,27.88-11.19,6.3-6.11,9-4.06,6.3-25.42-2.7-21.35,5.39-34.56-5.39-53.88-10.79-19.34-13.5-29.49-15.28-36.6-1.8-7.12-6.3-11.19-4.5-11.19h-.02Z" style="fill:none; stroke:#000; stroke-linejoin:round; stroke-width:3.12px;"/><path id="bd" d="m114.38,826.69l-6.3-8.12s-6.3,1.01-12.59,7.11c-6.3,6.1-7.2,3.05-13.5,12.2-6.3,9.15-11.69,13.24-9.89,19.34l4.5,15.25-4.5,6.1s2.7,8.14,7.2,14.23,11.69,7.12,15.28,0c3.61-7.12,6.3-10.17,1.8-15.25s-6.3-16.27-6.3-16.27c0,0,5.4-6.1,9.89-7.12,4.49-1.03,4.49,1.02,4.49,1.02,0,0-8.99,10.17-4.49,20.33,4.49,10.17,2.97,9.26,8.09,11.19,10.79,4.06,23.38-14.23,20.69-15.25-9.72-3.68-19.78-7.12-20.69-12.22-.9-5.07,6.3-32.54,6.3-32.54" style="fill-rule:evenodd;"/><path id="be" d="m114.38,826.69l-6.3-8.12s-6.3,1.01-12.59,7.11c-6.3,6.1-7.2,3.05-13.5,12.2-6.3,9.15-11.69,13.24-9.89,19.34l4.5,15.25-4.5,6.1s2.7,8.14,7.2,14.23,11.69,7.12,15.28,0c3.61-7.12,6.3-10.17,1.8-15.25s-6.3-16.27-6.3-16.27c0,0,5.4-6.1,9.89-7.12,4.49-1.03,4.49,1.02,4.49,1.02,0,0-8.99,10.17-4.49,20.33,4.49,10.17,2.97,9.26,8.09,11.19,10.79,4.06,23.38-14.23,20.69-15.25-9.72-3.68-19.78-7.12-20.69-12.22-.9-5.07,6.3-32.54,6.3-32.54h.01Z" style="fill:none; stroke:#000; stroke-linejoin:round; stroke-width:3.12px;"/><path id="bf" d="m134.15,765.69s9.89,14.23,20.69,27.46c10.78,13.22,14.38,15.25,20.69,24.41s8.08,16.27,8.08,16.27c0,0,3.59-2.04-.9,5.08-4.49,7.12-9.88,7.12-9.88,7.12,0,0,5.4,3.05,16.2-2.04,10.78-5.08,11.68-9.15,10.78-20.33s-9.89-21.35-14.39-30.5-11.69-18.31-19.78-25.42c-14.29-12.57-17.08-17.29-17.08-17.29,0,0-3.59,1.02-9,4.06-5.39,3.05-2.7,11.19-5.39,11.19" style="fill-rule:evenodd;"/><path id="bg" d="m134.15,765.69s9.89,14.23,20.69,27.46c10.78,13.22,14.38,15.25,20.69,24.41s8.08,16.27,8.08,16.27c0,0,3.59-2.04-.9,5.08-4.49,7.12-9.88,7.12-9.88,7.12,0,0,5.4,3.05,16.2-2.04,10.78-5.08,11.68-9.15,10.78-20.33s-9.89-21.35-14.39-30.5-11.69-18.31-19.78-25.42c-14.29-12.57-17.08-17.29-17.08-17.29,0,0-3.59,1.02-9,4.06-5.39,3.05-2.7,11.19-5.39,11.19h-.01Z" style="fill:none; stroke:#000; stroke-linejoin:round; stroke-width:3.12px;"/><path id="bh" d="m105.38,856.19s.89-2.04,5.39-10.17c4.5-8.14,4.5-5.08,8.09-17.29,3.59-12.2.9-26.44.9-26.44" style="fill-rule:evenodd;"/><path id="bi" d="m105.38,856.19s.89-2.04,5.39-10.17c4.5-8.14,4.5-5.08,8.09-17.29,3.59-12.2.9-26.44.9-26.44m762.4-103.68l13.4,228.93" style="fill:none; stroke:#000; stroke-linejoin:round; stroke-width:3.12px;"/><path id="bj" d="m810.32,928.68l119.74-5.83s11.92-11.78,16.37-21.89c4.47-10.1-4.46-127.93-4.46-127.93l-10.43-149.8-28.28-223.87-363.21,20.2-101.23-1.68s-19.36-1.68-20.84,6.74c-1.49,8.41-1.49,47.13-1.49,47.13l212.87,370.3,180.95,86.63" style="fill:#ebebeb; fill-rule:evenodd;"/><path id="bk" d="m810.32,928.68l119.74-5.83s11.92-11.78,16.37-21.89c4.47-10.1-4.46-127.93-4.46-127.93l-10.43-149.8-28.28-223.87-363.21,20.2-101.23-1.68s-19.36-1.68-20.84,6.74c-1.49,8.41-1.49,47.13-1.49,47.13l212.87,370.3,180.95,86.63h0Z" style="fill:none; stroke:#000; stroke-miterlimit:11.5; stroke-width:1.25px;"/><path id="bl" d="m489.44,456.61s-89.31,67.32-87.82,92.57c1.49,25.25,20.84,116.15,20.84,116.15,0,0-16.37,1.68-8.94,26.93,7.43,25.24,0,31.98-2.98,43.76-2.97,11.77,12.29,21.84,15.28,40.34,2.97,18.52,4.82,27.47,4.82,40.94s.75,24.76.75,36.54-14.18,60.23,9.62,73.69l195.12,44.92,130.79-44.92h47.28c13.39-15.15,26.56-23.2,25.07-51.82s22.33-52.18,23.81-70.7c1.49-18.51-7.44-42.08-8.94-74.06-1.5-31.98-8.94-52.18-2.98-63.96,5.95-11.77,14.89-131.29,14.89-131.29l-19.35-77.42-29.78-37.04-233.7-8.41s-90.82,48.81-93.79,43.76" style="fill-rule:evenodd; stroke:#fff; stroke-miterlimit:10; stroke-width:3px;"/><path id="bm" d="m489.44,456.61s-89.31,67.32-87.82,92.57c1.49,25.25,20.84,116.15,20.84,116.15,0,0-16.37,1.68-8.94,26.93,7.43,25.24,0,31.98-2.98,43.76-2.97,11.77,12.29,21.84,15.28,40.34,2.97,18.52,4.82,27.47,4.82,40.94s.75,24.76.75,36.54-14.18,60.23,9.62,73.69l195.12,44.92,130.79-44.92h47.28c13.39-15.15,26.56-23.2,25.07-51.82s22.33-52.18,23.81-70.7c1.49-18.51-7.44-42.08-8.94-74.06-1.5-31.98-8.94-52.18-2.98-63.96,5.95-11.77,14.89-131.29,14.89-131.29l-19.35-77.42-29.78-37.04-233.7-8.41s-90.82,48.81-93.79,43.76h0v.02Z" style="fill:none; stroke:#000; stroke-miterlimit:11.5; stroke-width:1.88px;"/><path id="bn" d="m796.84,670.41s-12.47,12.07-19.58,6.04c-7.12-6.04-21.35-12.07-7.12,6.04s43.58,44.56,43.58,44.56c0,0-27.56-.29-40.02-.29s75.18,54.96,46.71,56.97-57.38,3.4-48.5,13.47c8.9,10.08,52.49,42.73,41.81,50.77-10.68,8.05-41.81,15.65-57.82,13.62-16.02-2.01-28.47,14.11-14.23,16.11s42.71,18.11,55.17,18.11,24.91,2.02,10.68,8.05c-14.23,6.04-16.02,16.1-16.02,16.1,0,0,41.82-5.54,43.61-21.64,1.78-16.1-6.23-31.2,14.23-68.43,10.65-19.38,16.01-26.16,6.23-60.37-5.92-20.68-5.34-67.43-5.34-67.43,0,0-55.17-33.71-53.38-31.69" style="fill-rule:evenodd; opacity:.5; stroke:#fff; stroke-miterlimit:10;"/><path id="bo" d="m727.16,438.45s-27.48-29.56-29.49-55.31c-2.01-25.76,6.04-74.25,2.01-96.99-4.01-22.72-15.41-40.17-6.69-46.21,8.7-6.06,79.74-3.03,86.44-.77,6.7,2.29,22.11-4.55,29.48,9.86,7.38,14.41,33.52,141.69,34.18,161.4.66,19.7-12.74,19.7-33.51,25.76-20.78,6.06-35.52,12.12-35.52,12.12,0,0-11.38-9.1-25.47-8.33-14.07.76-20.1-1.53-21.44-1.53" style="fill:#c8c8c8; fill-rule:evenodd;"/><path id="bp" d="m727.16,438.45s-27.48-29.56-29.49-55.31c-2.01-25.76,6.04-74.25,2.01-96.99-4.01-22.72-15.41-40.17-6.69-46.21,8.7-6.06,79.74-3.03,86.44-.77,6.7,2.29,22.11-4.55,29.48,9.86,7.38,14.41,33.52,141.69,34.18,161.4.66,19.7-12.74,19.7-33.51,25.76-20.78,6.06-35.52,12.12-35.52,12.12,0,0-11.38-9.1-25.47-8.33-14.07.76-20.1-1.53-21.44-1.53h.01Z" style="fill:none; stroke:#000; stroke-miterlimit:11.5; stroke-width:1.25px;"/><path id="bq" d="m439.33,299.6s-3.38,47.73,5.07,78.29c8.44,30.55,18.57,51.54,25.32,63,3.39,11.46,20.27,28.64,20.27,28.64l21.95-13.36-32.08-190.93s-40.53,38.18-40.53,34.37" style="fill-rule:evenodd; stroke:#fff; stroke-miterlimit:10;"/><path id="br" d="m439.33,299.6s-3.38,47.73,5.07,78.29c8.44,30.55,18.57,51.54,25.32,63,3.39,11.46,20.27,28.64,20.27,28.64l21.95-13.36-32.08-190.93s-40.53,38.18-40.53,34.37h0Z" style="fill:none; stroke:#000; stroke-miterlimit:11.5; stroke-width:1.25px;"/><path id="bs" d="m800.88,446.79s-13.4-9.86-28.82-11.37c-15.41-1.52-28.81-10.61-37.52-13.63-8.71-3.03-16.75-10.61-16.75-10.61,0,0,4.01-5.31,2.01-18.18s-4.7-19.7-6.7-23.49-3.35-9.09-3.35-9.09c0,0,14.07-42.44,12.06-65.17-2.01-22.73-12.06-55.31-12.06-55.31l-26.81,27.27s4.7,23.49,4.01,37.88c-.68,14.41-2.01,47.74-9.37,64.42l-9.38,10.61-6.04,19.7s-22.78,31.82-28.82,37.13c-6.03,5.31-20.77,17.43-20.77,17.43" style="fill-rule:evenodd; stroke:#fff; stroke-miterlimit:10;"/><path id="bt" d="m800.88,446.79s-13.4-9.86-28.82-11.37c-15.41-1.52-28.81-10.61-37.52-13.63-8.71-3.03-16.75-10.61-16.75-10.61,0,0,4.01-5.31,2.01-18.18s-4.7-19.7-6.7-23.49-3.35-9.09-3.35-9.09c0,0,14.07-42.44,12.06-65.17-2.01-22.73-12.06-55.31-12.06-55.31l-26.81,27.27s4.7,23.49,4.01,37.88c-.68,14.41-2.01,47.74-9.37,64.42l-9.38,10.61-6.04,19.7s-22.78,31.82-28.82,37.13c-6.03,5.31-20.77,17.43-20.77,17.43" style="fill:none; stroke:#000; stroke-miterlimit:11.5; stroke-width:1.25px;"/><path id="bu" d="m398.91,243.51l25.96-27.12,33.96-6.76,19.99,62.11-34.96,32.76-44.95-60.99" style="fill-rule:evenodd; stroke:#fff; stroke-miterlimit:10;"/><path id="bv" d="m398.91,243.51l25.96-27.12,33.96-6.76,19.99,62.11-34.96,32.76-44.95-60.99h-.01Z" style="fill:none; stroke:#000; stroke-miterlimit:14.3; stroke-width:1.25px;"/><path id="bw" d="m718.4,416.27l-18.01,3.69-14.72,12.96s22.91-7.41,24.53,1.85c1.64,9.26,0,16.67,0,16.67,0,0,13.09-12.96,19.65-3.72,6.55,9.26,16.36-3.69,16.36,7.42s-16.36,29.61-18.01,46.25,4.91,40.72,4.91,40.72c0,0,3.27-29.61,9.82-40.72s16.36-11.11,16.36-11.11c0,0,0,14.81,3.27,27.75,3.27,12.96,3.27-9.25,8.19-25.9,4.9-16.64,26.18,7.64,26.18,7.64l3.27-39.1-1.64-12.96-13.09-22.2s-.41,10.42-9,11.35c-20.16,2.16-35.99-10.18-35.99-10.18,0,0-6.97-2.67-13.1-5.56-4.76-2.24-9-4.85-9-4.85" style="fill:#c8c8c8; fill-rule:evenodd;"/><path id="bx" d="m800.37,455.87s-8.35-3.77-20.05-15.11c-11.7-11.34-11.7-5.67-21.74-11.35-10.03-5.67-36.75-17-36.75-17,0,0,0,1.89-1.67-17.01-1.68-18.89-3.35-20.78-3.35-20.78,0,0,8.35-1.89,8.35-13.24s5.02-30.23,1.67-45.35c-3.34-15.11-8.35-49.12-8.35-49.12" style="fill:none; stroke:#000; stroke-miterlimit:11.5; stroke-width:1.88px;"/><path id="by" d="m403.9,236.72l31.97-7.92,16.99,64.37" style="fill-rule:evenodd; stroke:#fff; stroke-miterlimit:10;"/><path id="bz" d="m403.9,236.72l31.97-7.92,16.99,64.37" style="fill:none; stroke:#000; stroke-miterlimit:14.3; stroke-width:.94px;"/><path id="ca" d="m462.84,264.96s-7.99,2.25-9-10.17,5-11.29,5-11.29l10.99-1.13" style="fill-rule:evenodd; stroke:#fff; stroke-miterlimit:10;"/><path id="cb" d="m462.84,264.96s-7.99,2.25-9-10.17,5-11.29,5-11.29l10.99-1.13" style="fill:none; stroke:#000; stroke-miterlimit:11.5; stroke-width:1.25px;"/><path id="cc" d="m480.56,463.46l2.67,17.43s5.37,6.06,9.38,6.82c4.03.77,5.36-2.26,11.4-1.52,6.03.76,27.47,3.79,62.99-1.52,35.51-5.31,54.95-12.88,74.37-22.73,19.44-9.86,47.58-30.31,58.98-40.16,11.4-7.58,11.4-17.43,11.4-17.43l-18.1-1.53" style="fill-rule:evenodd; stroke:#fff; stroke-miterlimit:10;"/><path id="cd" d="m480.56,463.46l2.67,17.43s5.37,6.06,9.38,6.82c4.03.77,5.36-2.26,11.4-1.52,6.03.76,27.47,3.79,62.99-1.52,35.51-5.31,54.95-12.88,74.37-22.73,19.44-9.86,47.58-30.31,58.98-40.16,11.4-7.58,11.4-17.43,11.4-17.43l-18.1-1.53" style="fill:none; stroke:#000; stroke-miterlimit:14.3; stroke-width:.94px;"/><path id="ce" d="m489.94,454.36s-26.14-39.44-32.82-75.8c-6.7-36.37-7.38-68.92-3.35-89.38,4.01-20.47,12.73-41.67,20.77-54.57,8.04-12.88,44.23-48.48,75.05-44.71,30.84,3.79,75.05,21.98,90.47,39.41,17.41,17.43,38.86,40.17,42.88,59.1,4.03,18.95-.66,65.92-2.67,73.52-2.01,7.57-10.05,14.39-12.74,20.46-2.68,6.06-5.36,15.16-6.03,21.98-.68,6.81-14.08,41.66-31.49,49.24-17.43,7.58-97.17,22.73-111.92,20.47-14.73-2.26-26.81-7.57-26.81-7.57,0,0,0-11.37-1.34-12.12" style="fill:#c8c8c8; fill-rule:evenodd;"/><path id="cf" d="m489.94,454.36s-26.14-39.44-32.82-75.8c-6.7-36.37-7.38-68.92-3.35-89.38,4.01-20.47,12.73-41.67,20.77-54.57,8.04-12.88,44.23-48.48,75.05-44.71,30.84,3.79,75.05,21.98,90.47,39.41,17.41,17.43,38.86,40.17,42.88,59.1,4.03,18.95-.66,65.92-2.67,73.52-2.01,7.57-10.05,14.39-12.74,20.46-2.68,6.06-5.36,15.16-6.03,21.98-.68,6.81-14.08,41.66-31.49,49.24-17.43,7.58-97.17,22.73-111.92,20.47-14.73-2.26-26.81-7.57-26.81-7.57,0,0,0-11.37-1.34-12.12h-.02Z" style="fill:none; stroke:#000; stroke-miterlimit:11.5; stroke-width:1.25px;"/><path id="cg" d="m647.93,605.82s-4.5-12.64-1.79-28.44c2.68-15.8,5.38-14.75,11.68-23.18,6.3-8.43,14.39-25.28,19.79-37.92,5.38-12.63,16.18-27.38,19.77-32.64s9.89-12.64,15.29-15.8c5.38-3.16,6.3-12.64,17.08-18.97,10.79-6.31,24.29-18.95,24.29-18.95,0,0-17.09,4.23-25.18,9.48-8.09,5.27-16.18,7.38-19.77,14.74-3.59,7.38-17.99,20.01-26.09,30.55-8.08,10.55-16.18,27.39-24.27,37.92s-23.38,29.49-24.27,41.08c-.89,11.59-2.7,37.92-2.7,37.92" style="fill-rule:evenodd; stroke:#fff; stroke-miterlimit:10;"/><path id="ch" d="m647.93,605.82s-4.5-12.64-1.79-28.44c2.68-15.8,5.38-14.75,11.68-23.18,6.3-8.43,14.39-25.28,19.79-37.92,5.38-12.63,16.18-27.38,19.77-32.64s9.89-12.64,15.29-15.8c5.38-3.16,6.3-12.64,17.08-18.97,10.79-6.31,24.29-18.95,24.29-18.95,0,0-17.09,4.23-25.18,9.48-8.09,5.27-16.18,7.38-19.77,14.74-3.59,7.38-17.99,20.02-26.09,30.55-8.08,10.55-16.18,27.39-24.27,37.92s-23.38,29.49-24.27,41.08c-.89,11.59-2.7,37.92-2.7,37.92" style="fill:none; stroke:#000; stroke-linejoin:round; stroke-width:.94px;"/><path id="ci" d="m666.19,430.11s-23.91,14.27-47.58,23.48c-19.44,7.58-40.88,13.65-85.78,16.68-31.55,2.14-42.89-13.63-42.89-13.63l-8.71,6.82s2.01,10.61,6.7,10.61,8.04-.76,13.4,0,13.4,5.31,44.23,3.03c21.44-1.59,54.95-7.58,73.04-14.41,18.09-6.83,52.95-25.76,62.33-35.62,9.37-9.84,12.73-12.88,12.73-12.88" style="fill-rule:evenodd; stroke:#fff; stroke-miterlimit:10;"/><path id="cj" d="m666.19,430.11s-23.91,14.27-47.58,23.48c-19.44,7.58-40.88,13.65-85.78,16.68-31.55,2.14-42.89-13.63-42.89-13.63l-8.71,6.82s2.01,10.61,6.7,10.61,8.04-.76,13.4,0,13.4,5.31,44.23,3.03c21.44-1.59,54.95-7.58,73.04-14.41,18.09-6.83,52.95-25.76,62.33-35.62,9.37-9.84,12.73-12.88,12.73-12.88" style="fill:none; stroke:#000; stroke-miterlimit:14.3; stroke-width:.94px;"/><path id="ck" d="m633.35,443s14.74-78.81,2.68-110.63c-12.07-31.82-31.49-84.11-63.67-89.41-32.16-5.31-58.3,3.02-71.7,15.16-17.82,16.11-16.75,39.4-16.75,39.4,0,0-4.7-50.76,36.19-78.05,22.98-15.34,48.91-21.21,76.4-15.15,27.47,6.06,70.36,50.01,79.08,68.95,4.01,8.74,8.04,83.36,4.7,90.17-3.37,6.82-31.51,71.99-34.86,76.52-3.35,4.55-12.06-.76-12.06,3.03" style="fill:#e2e2e2; fill-rule:evenodd;"/><path id="cl" d="m633.35,443s14.74-78.81,2.68-110.63c-12.07-31.82-31.49-84.11-63.67-89.41-32.16-5.31-58.3,3.02-71.7,15.16-17.82,16.11-16.75,39.4-16.75,39.4,0,0-4.7-50.76,36.19-78.05,22.98-15.34,48.91-21.21,76.4-15.15,27.47,6.06,70.36,50.01,79.08,68.95,4.01,8.74,8.04,83.36,4.7,90.17-3.37,6.82-31.51,71.99-34.86,76.52-3.35,4.55-12.06-.76-12.06,3.03h0Z" style="fill:none; stroke:#000; stroke-miterlimit:11.5; stroke-width:1.25px;"/><path id="cm" d="m427.88,238.98l-26.96,5.64s-3-1.12-4,4.52c-.99,5.64,1.01,7.9,1.01,7.9l11.98,45.17s0,2.26,4,5.66c3.99,3.38,8.99,1.12,8.99,1.12l22.98-4.51-17.99-65.51" style="fill-rule:evenodd; stroke:#fff; stroke-miterlimit:10;"/><path id="cn" d="m427.88,238.98l-26.96,5.64s-3-1.12-4,4.52c-.99,5.64,1.01,7.9,1.01,7.9l11.98,45.17s0,2.26,4,5.66c3.99,3.38,8.99,1.12,8.99,1.12l22.98-4.51-17.99-65.51h0Z" style="fill:none; stroke:#000; stroke-miterlimit:14.3; stroke-width:1.25px;"/><path id="co" d="m423.59,256.48c1.12,5.46-1.03,10.69-4.78,11.68-3.77.98-7.72-2.67-8.84-8.14-1.11-5.46,1.03-10.69,4.78-11.68,3.77-.98,7.72,2.66,8.84,8.14" style="fill-rule:evenodd; stroke:#fff; stroke-miterlimit:10;"/><path id="cp" d="m423.59,256.48c1.12,5.46-1.03,10.69-4.78,11.68-3.77.98-7.72-2.67-8.84-8.14-1.11-5.46,1.03-10.69,4.78-11.68,3.77-.98,7.72,2.66,8.84,8.14Z" style="fill:none; stroke:#000; stroke-miterlimit:14.3; stroke-width:.94px;"/><path id="cq" d="m431.33,284.98c1.16,5.71-1.08,11.17-5.03,12.22-3.94,1.02-8.08-2.77-9.26-8.49-1.16-5.71,1.09-11.19,5.03-12.22,3.95-1.02,8.09,2.77,9.26,8.49" style="fill-rule:evenodd; stroke:#fff; stroke-miterlimit:10;"/><path id="cr" d="m431.33,284.98c1.16,5.71-1.08,11.17-5.03,12.22-3.94,1.02-8.08-2.77-9.26-8.49-1.16-5.71,1.09-11.19,5.03-12.22,3.95-1.02,8.09,2.77,9.26,8.49Z" style="fill:none; stroke:#000; stroke-miterlimit:14.3; stroke-width:.94px;"/><path id="cs" d="m462.83,217.52s16.67-34.2,50.95-50.82c20.97-10.17,39.04-18.34,83.89-13.56,52.92,5.64,88.89,39.52,88.89,39.52l-47.95,31.63s-51.94-46.31-85.9-45.17c-33.94,1.12-54.92,15.8-63.92,25.96-8.99,10.17-21.96,28.24-21.96,28.24l-4-15.81" style="fill-rule:evenodd; stroke:#fff; stroke-miterlimit:10;"/><path id="ct" d="m462.83,217.52s16.67-34.2,50.95-50.82c20.97-10.17,39.04-18.34,83.89-13.56,52.92,5.64,88.89,39.52,88.89,39.52l-47.95,31.63s-51.94-46.31-85.9-45.17c-33.94,1.12-54.92,15.8-63.92,25.96-8.99,10.17-21.96,28.24-21.96,28.24l-4-15.81h0Z" style="fill:none; stroke:#000; stroke-miterlimit:14.3; stroke-width:1.25px;"/><path id="cu" d="m632.62,208.48l45.94-25.98,39.96-1.12,2.98,82.44-41.95,19.2s-25.96-11.3-28.96-22.59c-3-11.29-17.97-51.95-17.97-51.95" style="fill-rule:evenodd; stroke:#fff; stroke-miterlimit:10;"/><path id="cv" d="m632.62,208.48l45.94-25.98,39.96-1.12,2.98,82.44-41.95,19.2s-25.96-11.3-28.96-22.59c-3-11.29-17.97-51.95-17.97-51.95h0Z" style="fill:none; stroke:#000; stroke-miterlimit:14.3; stroke-width:1.25px;"/><path id="cw" d="m946.3,555.89v18.95l11.4.76s4.01,0,5.36-3.79c1.34-3.78,0-50.76,0-50.76,0,0,2.01-11.37-6.04-10.61s-10.71,45.45-10.71,45.45" style="fill-rule:evenodd; stroke:#fff; stroke-miterlimit:10;"/><path id="cx" d="m946.3,555.89v18.95l11.4.76s4.01,0,5.36-3.79c1.34-3.78,0-50.76,0-50.76,0,0,2.01-11.37-6.04-10.61s-10.71,45.45-10.71,45.45h-.01Z" style="fill:none; stroke:#000; stroke-miterlimit:11.5; stroke-width:1.25px;"/><path id="cy" d="m948.3,546.81s-1.33,47.73-2.01,57.58-4.01,28.04-8.04,36.37c-4.01,8.34-24.8,46.98-40.21,51.53-15.41,4.54-46.24,11.37-60.99,9.09-14.74-2.26-36.85-23.49-46.24-37.88-9.37-14.39-13.4-36.37-9.37-54.56,4.01-18.18,13.4-22.73,16.75-35.62s15.41-30.31,15.41-30.31" style="fill-rule:evenodd; stroke:#fff; stroke-miterlimit:10; stroke-width:3px;"/><path id="cz" d="m948.3,546.81s-1.33,47.73-2.01,57.58-4.01,28.04-8.04,36.37c-4.01,8.34-24.8,46.98-40.21,51.53-15.41,4.54-46.24,11.37-60.99,9.09-14.74-2.26-36.85-23.49-46.24-37.88-9.37-14.39-13.4-36.37-9.37-54.56,4.01-18.18,13.4-22.73,16.75-35.62s15.41-30.31,15.41-30.31" style="fill:none; stroke:#000; stroke-miterlimit:11.5; stroke-width:1.88px;"/><path id="da" d="m645.61,203.96l28.97-3.38,12.99,56.46-13.98,6.77-34.96-48.56,7-11.3" style="fill-rule:evenodd;"/><path id="db" d="m645.61,203.96l28.97-3.38,12.99,56.46-13.98,6.77-34.96-48.56,7-11.3h-.01Z" style="fill:none; stroke:#000; stroke-miterlimit:11.5; stroke-width:1.25px;"/><path id="dc" d="m636.61,227.69s-54.48-44.56-98.42-37.78c-43.94,6.78-64.37,46.82-64.37,46.82,0,0-10.99-6.77-6.99-16.94,3.99-10.17,32.96-48.57,81.89-45.18,48.96,3.39,85.9,37.27,85.9,37.27,0,0,0,15.81,1.99,15.81" style="fill-rule:evenodd; stroke:#fff; stroke-miterlimit:10;"/><path id="dd" d="m636.61,227.69s-54.48-44.56-98.42-37.78c-43.94,6.78-64.37,46.82-64.37,46.82,0,0-10.99-6.77-6.99-16.94,3.99-10.17,32.96-48.57,81.89-45.18,48.96,3.39,85.9,37.27,85.9,37.27,0,0,0,15.81,1.99,15.81h0Z" style="fill:none; stroke:#000; stroke-miterlimit:14.3; stroke-width:.94px;"/><path id="de" d="m633.61,210.74l33.96-3.39,12.99,63.25s1.99,10.15-3,11.29-20.97,1.13-20.97,1.13c0,0-5.01,1.12-5.99-3.39-1.01-4.52-16.99-68.89-16.99-68.89" style="fill-rule:evenodd; stroke:#fff; stroke-miterlimit:10;"/><path id="df" d="m633.61,210.74l33.96-3.39,12.99,63.25s1.99,10.15-3,11.29-20.97,1.13-20.97,1.13c0,0-5.01,1.12-5.99-3.39-1.01-4.52-16.99-68.89-16.99-68.89h0Z" style="fill:none; stroke:#000; stroke-miterlimit:14.3; stroke-width:1.25px;"/><path id="dg" d="m671.36,257.83c1.39,6.97-1.27,13.6-5.93,14.79-4.68,1.18-9.59-3.49-10.99-10.47-1.39-6.96,1.27-13.58,5.93-14.78s9.59,3.49,10.99,10.45" style="fill-rule:evenodd; stroke:#fff; stroke-miterlimit:10;"/><path id="dh" d="m671.36,257.83c1.39,6.97-1.27,13.6-5.93,14.79-4.68,1.18-9.59-3.49-10.99-10.47-1.39-6.96,1.27-13.58,5.93-14.78s9.59,3.49,10.99,10.45h0Z" style="fill:none; stroke:#000; stroke-miterlimit:14.3; stroke-width:.94px;"/><path id="di" d="m663.27,224.77c.96,6.48-1.8,12.42-6.14,13.24-4.35.82-8.64-3.78-9.61-10.28-.96-6.49,1.8-12.42,6.14-13.24s8.64,3.78,9.61,10.28" style="fill-rule:evenodd; stroke:#fff; stroke-miterlimit:10;"/><path id="dj" d="m663.27,224.77c.96,6.48-1.8,12.42-6.14,13.24-4.35.82-8.64-3.78-9.61-10.28-.96-6.49,1.8-12.42,6.14-13.24s8.64,3.78,9.61,10.28Z" style="fill:none; stroke:#000; stroke-miterlimit:14.3; stroke-width:.94px;"/><path id="dk" d="m709.53,170.09l26.96-7.92s5.01-1.13,10.99,0c5.99,1.13,9.98,3.39,9.98,3.39,0,0,23.98,9.04,26.97,19.2,3,10.15,7.99,63.24,7.99,63.24,0,0,1.99,6.77-3,12.43s-34.96,11.29-34.96,11.29" style="fill-rule:evenodd; stroke:#fff; stroke-miterlimit:10;"/><path id="dl" d="m709.53,170.09l26.96-7.92s5.01-1.13,10.99,0c5.99,1.13,9.98,3.39,9.98,3.39,0,0,23.98,9.04,26.97,19.2,3,10.15,7.99,63.24,7.99,63.24,0,0,1.99,6.77-3,12.43s-34.96,11.29-34.96,11.29" style="fill:none; stroke:#000; stroke-miterlimit:14.3; stroke-width:1.25px;"/><path id="dm" d="m425.88,240.11l29.97-30.49" style="fill:none; stroke:#000; stroke-miterlimit:14.3; stroke-width:.94px;"/><path id="dn" d="m672.56,185.91s-5-5.66-3-11.3c2.01-5.64,14.99-14.68,19.99-13.56,5,1.13,23.98,1.13,23.98,1.13l6.99,2.26-20.98,14.68s3,6.77-4,7.9c-6.99,1.13-22.97-2.25-22.97-1.12" style="fill-rule:evenodd; stroke:#fff; stroke-miterlimit:10;"/><path id="do" d="m672.56,185.91s-5-5.66-3-11.3c2.01-5.64,14.99-14.68,19.99-13.56,5,1.13,23.98,1.13,23.98,1.13l6.99,2.26-20.98,14.68s3,6.77-4,7.9c-6.99,1.13-22.97-2.25-22.97-1.12h-.01Zm7.99-2.26s-1.01-6.76,5.99-12.43c6.99-5.64,13.98-9.04,13.98-9.04" style="fill:none; stroke:#000; stroke-miterlimit:11.5; stroke-width:1.25px;"/><path id="dp" d="m784.8,418.75s-15.41,19.7-24.8,28.8c-9.38,9.09-24.8,30.31-34.18,34.09-9.38,3.79-18.1,0-18.1,0,0,0,10.73,7.57,23.47,6.83,12.73-.77,25.47-10.61,31.49-13.65,6.03-3.02,10.71-7.57,18.76-13.63s15.41-16.68,15.41-16.68c0,0-12.73-24.25-12.06-25.76" style="fill-rule:evenodd; stroke:#fff; stroke-miterlimit:10;"/><path id="dq" d="m784.8,418.75s-15.41,19.7-24.8,28.8c-9.38,9.09-24.8,30.31-34.18,34.09-9.38,3.79-18.1,0-18.1,0,0,0,10.73,7.57,23.47,6.83,12.73-.77,25.47-10.61,31.49-13.65,6.03-3.02,10.71-7.57,18.76-13.63s15.41-16.68,15.41-16.68c0,0-12.73-24.25-12.06-25.76h.01Z" style="fill:none; stroke:#000; stroke-linejoin:round; stroke-width:1.25px;"/><path id="dr" d="m788.15,396.77s-4.7,14.41,0,28.04c4.7,13.63,11.4,18.18,12.73,25.01,1.34,6.82-7.37,37.13-3.35,55.31,4.03,18.18-5.36,37.14,6.04,50.76,11.4,13.65,28.81,25.78,34.85,30.33,6.03,4.54,22.11,11.37,36.85,11.37s36.85-6.83,46.24-14.41c9.38-7.57,13.4-18.94,21.44-27.28,8.04-8.33,16.08-18.94,16.75-38.64.66-19.7,2.68-57.58-.66-71.23-3.35-13.63.66-28.03-3.35-34.85-4.03-6.82-127.33-38.65-167.53-14.41" style="fill-rule:evenodd; stroke:#fff; stroke-miterlimit:10; stroke-width:3px;"/><path id="ds" d="m788.15,396.77s-4.7,14.41,0,28.04c4.7,13.63,11.4,18.18,12.73,25.01,1.34,6.82-7.37,37.13-3.35,55.31,4.03,18.18-5.36,37.14,6.04,50.76,11.4,13.65,28.81,25.78,34.85,30.33,6.03,4.54,22.11,11.37,36.85,11.37s36.85-6.83,46.24-14.41c9.38-7.57,13.4-18.94,21.44-27.28,8.04-8.33,16.08-18.94,16.75-38.64.66-19.7,2.68-57.58-.66-71.23-3.35-13.63.66-28.03-3.35-34.85-4.03-6.82-127.33-38.65-167.53-14.41h-.01Z" style="fill:none; stroke:#000; stroke-miterlimit:11.5; stroke-width:1.88px;"/><path id="dt" d="m752.33,237.93l-23.14,29.29s-11.03-5.85-22.56-12.71c-11.53-6.85-28.01-14.38-27.9-20.97.1-6.59-1.53-12.7,3.69-24.52,3.21-7.28,5.8-18.08,11.99-19.49s20.07,7.81,29.01,16.34c8.94,8.54,28.9,32.04,28.9,32.04" style="fill-rule:evenodd; stroke:#fff; stroke-miterlimit:10;"/><path id="du" d="m752.33,237.93l-23.14,29.31s-11.03-5.87-22.56-12.73c-11.53-6.85-28.01-14.38-27.9-20.97.1-6.59-1.53-12.7,3.69-24.52,3.21-7.28,5.8-18.08,11.99-19.49s20.07,7.81,29.01,16.34c8.94,8.54,28.9,32.04,28.9,32.04h0Z" style="fill:none; stroke:#000; stroke-miterlimit:11.5; stroke-width:1.25px;"/><path id="dv" d="m760.05,205.74l20.49-5.58,5.52,45.87-20.49,5.58" style="fill-rule:evenodd; stroke:#fff; stroke-miterlimit:10;"/><path id="dw" d="m760.05,205.74l20.49-5.58,5.52,45.87-20.49,5.58-5.52-45.87h0Z" style="fill:none; stroke:#000; stroke-miterlimit:14.3; stroke-width:.94px;"/><path id="dx" d="m711.52,181.39s-5-7.92,0-9.04c5-1.13,26.97,11.29,26.97,11.29,0,0,5,3.39,9.98,10.17,4.99,6.78,5.98,20.32,5.98,20.32l5.99,47.44s-2.98,11.29-7.99,11.29-10.98-1.12-10.98-1.12l-19.99-16.95s-9.98-75.67-9.98-73.41" style="fill-rule:evenodd; stroke:#fff; stroke-miterlimit:10;"/><path id="dy" d="m711.52,181.39s-5-7.92,0-9.04c5-1.13,26.97,11.29,26.97,11.29,0,0,5,3.39,9.98,10.17,4.99,6.78,5.98,20.32,5.98,20.32l5.99,47.44s-2.98,11.29-7.99,11.29-10.98-1.12-10.98-1.12l-19.99-16.95s-9.98-75.67-9.98-73.41h.01Zm-110.86,6.77s1.01-9.04,15.98-16.95c14.98-7.9,23.98-7.9,23.98-7.9m180.37,531.25s-34.15-.94-55.63-9.84c-40.21-16.68-56.29-31.83-66.34-40.92-10.05-9.1-36.85-21.23-36.85-21.23l.66,9.1s26.14,9.84,32.84,18.94c6.7,9.09,24.14,31.07,40.21,35.62,16.08,4.55,44.23,18.18,67.02,17.43s28.15-3.03,28.15-3.03c0,0-10.05-3.78-10.05-6.06h-.02Z" style="fill:none; stroke:#000; stroke-miterlimit:14.3; stroke-width:.94px;"/><path id="dz" d="m440.63,211.48c.61,3.03-3.47,6.69-9.11,8.16-5.63,1.48-10.71.2-11.32-2.85-.62-3.05,3.46-6.7,9.1-8.16,5.64-1.48,10.71-.2,11.35,2.85" style="fill-rule:evenodd; stroke:#fff; stroke-miterlimit:10;"/><path id="ea" d="m440.63,211.48c.61,3.03-3.47,6.69-9.11,8.16-5.63,1.48-10.71.2-11.32-2.85-.62-3.05,3.46-6.7,9.1-8.16,5.64-1.48,10.71-.2,11.35,2.85h-.01Z" style="fill:none; stroke:#000; stroke-miterlimit:11.5; stroke-width:1.25px;"/><path id="eb" d="m551.49,669.93l56.45,2.71c7.11.34,12.69,7.83,12.36,16.58l-5.87,155.97c-.32,8.75-6.45,15.67-13.56,15.34l-112.9-5.43c-7.11-.34-12.69-7.82-12.36-16.58l5.87-155.97c.34-8.75,6.45-15.67,13.56-15.34l56.46,2.72" style="fill:#d7d7d7; fill-rule:evenodd;"/><path id="ec" d="m551.49,669.93l56.45,2.71c7.11.34,12.69,7.83,12.36,16.58l-5.87,155.97c-.32,8.75-6.45,15.67-13.56,15.34l-112.9-5.43c-7.11-.34-12.69-7.82-12.36-16.57l5.87-155.98c.34-8.75,6.45-15.67,13.56-15.34l56.46,2.72h0Z" style="fill:none; stroke:#000; stroke-miterlimit:11.5; stroke-width:1.25px;"/><path id="ed" d="m702.03,369.14l-18.47,1.13s-7.99,3.39-7.49,20.32,6.49,23.15,6.49,23.15l20.48-1.69s6.99-14.68,4.5-22.58c-2.5-7.92-5.51-20.33-5.51-20.33" style="fill-rule:evenodd; stroke:#fff; stroke-miterlimit:10;"/><path id="ee" d="m702.03,369.14l-18.47,1.13s-7.99,3.39-7.49,20.32,6.49,23.15,6.49,23.15l20.48-1.69s6.99-14.68,4.5-22.58c-2.5-7.92-5.51-20.33-5.51-20.33h0Z" style="fill:none; stroke:#000; stroke-miterlimit:14.3; stroke-width:.94px;"/><path id="ef" d="m694.84,309.84l-17.28.82s-7.46,2.44-7,14.67c.47,12.22,6.08,16.7,6.08,16.7l19.13-1.23s6.55-10.59,4.21-16.29c-2.34-5.69-5.13-14.67-5.13-14.67" style="fill:#787878; fill-rule:evenodd;"/><path id="eg" d="m694.84,309.84l-17.28.82s-7.46,2.44-7,14.67c.47,12.22,6.08,16.7,6.08,16.7l19.13-1.23s6.55-10.59,4.21-16.29c-2.34-5.69-5.13-14.67-5.13-14.67h0Z" style="fill:none; stroke:#000; stroke-miterlimit:11.5; stroke-width:1.25px;"/><path id="eh" d="m706.03,325.74c0,8.54-4.6,15.47-10.28,15.47s-10.25-6.94-10.25-15.47,4.6-15.49,10.25-15.49,10.28,6.94,10.28,15.49" style="fill:#787878; fill-rule:evenodd;"/><path id="ei" d="m706.03,325.74c0,8.54-4.6,15.47-10.28,15.47s-10.25-6.94-10.25-15.47,4.6-15.49,10.25-15.49,10.28,6.94,10.28,15.49Z" style="fill:none; stroke:#000; stroke-miterlimit:11.5; stroke-width:1.25px;"/><path id="ej" d="m654.8,455.88l-4.7,19.7-13.4,9.1-4.7-3.03,3.35-24.25,16.08-12.12,3.35,10.61" style="fill:#787878; fill-rule:evenodd;"/><path id="ek" d="m654.8,455.88l-4.7,19.7-13.4,9.1-4.7-3.03,3.35-24.25,16.08-12.12,3.35,10.61h.02Z" style="fill:none; stroke:#000; stroke-miterlimit:11.5; stroke-width:1.25px;"/><path id="el" d="m714.03,391.16c0,11.83-4.92,21.45-10.99,21.45s-10.99-9.62-10.99-21.45,4.91-21.45,10.99-21.45,10.99,9.61,10.99,21.45" style="fill-rule:evenodd; stroke:#fff; stroke-miterlimit:10;"/><path id="em" d="m714.03,391.16c0,11.83-4.92,21.45-10.99,21.45s-10.99-9.62-10.99-21.45,4.91-21.45,10.99-21.45,10.99,9.61,10.99,21.45Z" style="fill:none; stroke:#000; stroke-miterlimit:14.3; stroke-width:.94px;"/><path id="en" d="m650.1,452.09v25.78h10.73v-25.78h-10.73Z" style="fill:#c8c8c8;"/><path id="eo" d="m650.1,477.86v-25.76h10.73v25.76h-10.73Z" style="fill:none; stroke:#000; stroke-miterlimit:11.5; stroke-width:1.25px;"/><path id="ep" d="m716.51,300.82l-18.47,1.12s-7.99,3.4-7.49,20.33c.5,16.95,6.49,23.15,6.49,23.15l20.48-1.69s6.99-14.68,4.5-22.59c-2.5-7.9-5.51-20.32-5.51-20.32" style="fill-rule:evenodd; stroke:#fff; stroke-miterlimit:10;"/><path id="eq" d="m716.51,300.82l-18.47,1.12s-7.99,3.4-7.49,20.33c.5,16.95,6.49,23.15,6.49,23.15l20.48-1.69s6.99-14.68,4.5-22.59c-2.5-7.9-5.51-20.32-5.51-20.32h0Z" style="fill:none; stroke:#000; stroke-miterlimit:11.5; stroke-width:1.25px;"/><path id="er" d="m728.51,322.83c0,11.85-4.92,21.45-10.99,21.45s-10.99-9.61-10.99-21.45,4.92-21.45,10.99-21.45,10.99,9.62,10.99,21.45" style="fill-rule:evenodd; stroke:#fff; stroke-miterlimit:10;"/><path id="es" d="m728.51,322.83c0,11.85-4.92,21.45-10.99,21.45s-10.99-9.61-10.99-21.45,4.92-21.45,10.99-21.45,10.99,9.62,10.99,21.45Z" style="fill:none; stroke:#000; stroke-miterlimit:11.5; stroke-width:1.25px;"/><path id="et" d="m513.05,709.53s-23.38,1.02-31.47,1.02-17.08-5.08-18.88,2.04-2.7,42.71-2.7,42.71c0,0-1.8,8.14,2.7,10.17,4.49,2.04,30.57,4.06,30.57,4.06l6.3-6.1,6.29,7.12,10.79-5.08,85.42,3.05v-10.17l6.3-1.02s3.59-9.15.9-13.22-10.79-4.06-10.79-4.06l-61.14-2.04s-22.48-30.5-24.29-28.47" style="fill-rule:evenodd;"/><path id="eu" d="m513.05,709.53s-23.38,1.02-31.47,1.02-17.08-5.08-18.88,2.04-2.7,42.71-2.7,42.71c0,0-1.8,8.14,2.7,10.17,4.49,2.04,30.57,4.06,30.57,4.06l6.3-6.1,6.29,7.12,10.79-5.08,85.42,3.05v-10.17l6.3-1.02s3.59-9.15.9-13.22-10.79-4.06-10.79-4.06l-61.14-2.04s-22.48-30.5-24.29-28.47v-.02Z" style="fill:none; stroke:#000; stroke-miterlimit:11.5; stroke-width:1.25px;"/><path id="ev" d="m922.84,579.4s5.36-6.06,3.35-21.23-8.72-34.86-7.38-52.29c1.34-17.41,2.68-25.76,0-41.66-2.67-15.92-6.7-21.98-6.7-21.98" style="fill:none; stroke:#000; stroke-miterlimit:14.3; stroke-width:.94px;"/><path id="ew" d="m810.27,690.78s-18.11-9.1-27.48-18.94c-9.38-9.86-28.16-30.33-39.55-38.65" style="fill-rule:evenodd; stroke:#fff; stroke-miterlimit:10;"/><path id="ex" d="m810.27,690.78s-18.11-9.1-27.48-18.94c-9.38-9.86-28.16-30.33-39.55-38.65" style="fill:none; stroke:#000; stroke-miterlimit:11.5; stroke-width:1.25px;"/><path id="ey" d="m706.4,480.13s-22.78-31.07-27.48-38.64c-4.7-7.58-11.4-10.61-10.05-21.98,1.34-11.37,12.06-17.43,12.06-17.43,0,0-4.01,12.88-1.34,20.46,2.68,7.58,26.14,42.43,30.17,49.27,4.01,6.82,18.76,5.31,18.76,5.31,0,0-11.4,10.6-22.11,3.02" style="fill-rule:evenodd; stroke:#fff; stroke-miterlimit:10;"/><path id="ez" d="m706.4,480.13s-22.78-31.07-27.48-38.64c-4.7-7.58-11.4-10.61-10.05-21.98,1.34-11.37,12.06-17.43,12.06-17.43,0,0-4.01,12.88-1.34,20.46,2.68,7.58,26.14,42.43,30.17,49.27,4.01,6.82,18.76,5.31,18.76,5.31,0,0-11.4,10.6-22.11,3.02h-.02Z" style="fill:none; stroke:#000; stroke-miterlimit:11.5; stroke-width:1.25px;"/><path id="fa" d="m668.2,416.47s3.35-7.57,13.4-15.15,16.07-24.25,22.11-34.1c6.04-9.84,13.4-23.48,13.4-23.48l-5.36-11.37-13.4.76s0,18.94-6.7,30.31-6.04,18.94-16.08,30.31-7.37,22.72-7.37,22.72" style="fill-rule:evenodd; stroke:#fff; stroke-miterlimit:10;"/><path id="fb" d="m668.2,416.47s3.35-7.57,13.4-15.15,16.07-24.25,22.11-34.1c6.04-9.84,13.4-23.48,13.4-23.48l-5.36-11.37-13.4.76s0,18.94-6.7,30.31-6.04,18.94-16.08,30.31-7.37,22.72-7.37,22.72h0Z" style="fill:none; stroke:#000; stroke-miterlimit:11.5; stroke-width:1.25px;"/><path id="fc" d="m698.35,334.64s7.37-3.78,18.1,5.31c6.96,5.9,23.45,6.82,26.81,7.58,3.35.75,11.4,2.26,22.11.75,10.73-1.52,22.12-8.33,22.12-8.33l-11.4-25.01s-5.37,7.57-18.76,6.06c-13.41-1.52-23.47,0-32.18-3.79-8.71-3.78-6.41-4.47-12.74-.76-16.75,9.86-14.07,18.18-14.07,18.18" style="fill-rule:evenodd; stroke:#fff; stroke-miterlimit:10;"/><path id="fd" d="m698.35,334.64s7.37-3.78,18.1,5.31c6.96,5.9,23.45,6.82,26.81,7.58,3.35.75,11.4,2.26,22.11.75,10.73-1.52,22.12-8.33,22.12-8.33l-11.4-25.01s-5.37,7.57-18.76,6.06c-13.41-1.52-23.47,0-32.18-3.79-8.71-3.78-6.41-4.47-12.74-.76-16.75,9.86-14.07,18.18-14.07,18.18h.01Zm36.19,9.72s-1.35,4.09,1.33,6.13c2.68,2.05,4.03.68,10.73,1.37,6.7.68,9.38-1.37,9.38-5.44s-2.02-27.91-2.02-27.91c0,0-3.35-2.05-7.37-2.05h-10.05l-1.34,4.09" style="fill:none; stroke:#000; stroke-miterlimit:11.5; stroke-width:1.25px;"/><path id="fe" d="m614.66,598.71l10.79-16.27s3.59-4.06,1.8-11.19c-1.8-7.12-12.59-62.02-12.59-62.02" style="fill-rule:evenodd; stroke:#fff; stroke-miterlimit:10;"/><path id="ff" d="m614.66,598.71l10.79-16.27s3.59-4.06,1.8-11.19c-1.8-7.12-12.59-62.02-12.59-62.02" style="fill:none; stroke:#000; stroke-miterlimit:11.5; stroke-width:1.25px;"/><path id="fg" d="m651.45,369.5v84.09h9.38v-84.09h-9.38Z" style="fill:#919191;"/><path id="fh" d="m651.45,453.62v-84.11h9.38v84.11h-9.38Z" style="fill:none; stroke:#000; stroke-miterlimit:11.5; stroke-width:1.25px;"/><path id="fi" d="m668.86,424.06c0,6.28-3.29,11.37-7.37,11.37s-7.38-5.1-7.38-11.37,3.29-11.37,7.38-11.37,7.37,5.1,7.37,11.37" style="fill:#919191; fill-rule:evenodd;"/><path id="fj" d="m668.86,424.06c0,6.28-3.29,11.37-7.37,11.37s-7.38-5.1-7.38-11.37,3.29-11.37,7.38-11.37,7.37,5.1,7.37,11.37Z" style="fill:none; stroke:#000; stroke-miterlimit:11.5; stroke-width:1.25px;"/><path id="fk" d="m665.52,488.08c0,8.58-5.39,15.54-12.06,15.54s-12.07-6.96-12.07-15.54,5.41-15.52,12.07-15.52,12.06,6.96,12.06,15.52" style="fill:#919191; fill-rule:evenodd;"/><path id="fl" d="m665.52,488.08c0,8.58-5.39,15.54-12.06,15.54s-12.07-6.96-12.07-15.54,5.41-15.52,12.07-15.52,12.06,6.96,12.06,15.52Z" style="fill:none; stroke:#000; stroke-miterlimit:11.5; stroke-width:1.25px;"/><path id="fm" d="m650.76,474.82l-4.01,17.43,8.71,3.79,4.7-18.2-9.38-3.02" style="fill-rule:evenodd;"/><path id="fn" d="m650.76,474.82l-4.01,17.43,8.71,3.79,4.7-18.2-9.38-3.02h-.01Zm-166.86-178.83s0,22.72,2.68,34.09c2.67,11.37-4.7,27.28,0,41.67,4.68,14.41,36.85,53.8,48.25,62.9,11.38,9.09,1.33,26.51,10.71,30.31,9.38,3.78,17.41,1.52,34.85-2.29,17.43-3.78,45.93-10.95,50.62-17.77,4.7-6.83,5.01-23.14,5.01-23.14" style="fill:none; stroke:#000; stroke-miterlimit:11.5; stroke-width:1.25px;"/><path id="fo" d="m527.47,324.79s10.05,6.82,12.07,10.6c2.01,3.79-.68,8.34-3.37,16.68-2.67,8.34-11.4,5.31-8.04,18.94,3.35,13.65,14.74,10.61,21.44,7.57,6.71-3.02,8.72-12.12,12.74-10.6,4.03,1.52,4.7,3.78,4.7,3.78,0,0,3.35,0,2.68-5.31" style="fill:none; stroke:#000; stroke-linejoin:round; stroke-width:.94px;"/><path id="fp" d="m596.16,596.06l31.58,1.53c3.96.19,7.1,4.1,6.92,8.7l-3.06,81.62c-.19,4.59-3.59,8.2-7.56,8l-63.16-3.03c-3.99-.2-7.12-4.11-6.95-8.7l3.08-81.63c.17-4.57,3.58-8.19,7.56-8l31.58,1.53" style="fill-rule:evenodd; stroke:#fff; stroke-miterlimit:10;"/><path id="fq" d="m596.16,596.06l31.58,1.53c3.96.19,7.1,4.1,6.92,8.7l-3.06,81.62c-.19,4.59-3.59,8.2-7.56,8l-63.16-3.03c-3.99-.2-7.12-4.11-6.95-8.7l3.08-81.63c.17-4.57,3.58-8.19,7.56-8l31.58,1.53h.01Z" style="fill:none; stroke:#000; stroke-miterlimit:14.3; stroke-width:.94px;"/><path id="fr" d="m496.57,510.07l31.58,1.52c3.98.2,7.11,4.12,6.94,8.71l-.46,11.88c-.17,4.59-3.58,8.2-7.56,8l-63.16-3.03c-3.98-.19-7.11-4.12-6.94-8.7l.46-11.89c.17-4.57,3.58-8.2,7.56-8l31.57,1.53" style="fill-rule:evenodd; stroke:#fff; stroke-miterlimit:10;"/><path id="fs" d="m496.57,510.07l31.58,1.52c3.98.2,7.11,4.12,6.94,8.71l-.46,11.88c-.17,4.59-3.58,8.2-7.56,8l-63.16-3.03c-3.98-.19-7.11-4.12-6.94-8.7l.46-11.89c.17-4.57,3.58-8.2,7.56-8l31.57,1.53h0Z" style="fill:none; stroke:#000; stroke-miterlimit:11.5; stroke-width:1.25px;"/><path id="ft" d="m470.71,523.47l64.72,1.93-1.88,80.29-64.72-1.93" style="fill-rule:evenodd; stroke:#fff; stroke-miterlimit:10;"/><path id="fu" d="m470.71,523.47l64.72,1.93-1.88,80.29-64.72-1.93,1.88-80.29h0Z" style="fill:none; stroke:#000; stroke-miterlimit:11.5; stroke-width:1.25px;"/><path id="fv" d="m552.94,294.49s10.73-6.08,20.11-4.55c9.37,1.52,24.8,8.33,24.8,8.33,0,0-18.77-16.68-27.48-16.68s-19.44,3.03-19.44,3.03c0,0,2.67,12.88,2.01,9.86" style="fill:#787878; fill-rule:evenodd;"/><path id="fw" d="m552.94,294.49s10.73-6.08,20.11-4.55c9.37,1.52,24.8,8.33,24.8,8.33,0,0-18.77-16.68-27.48-16.68s-19.44,3.03-19.44,3.03c0,0,2.67,12.88,2.01,9.86h0Z" style="fill:none; stroke:#000; stroke-linejoin:round; stroke-width:.94px;"/><path id="fx" d="m518,313.77s-9.15-2.7-15.11,1.34-14.44,14.75-14.44,14.75c0,0,7.81-20.91,13.77-23.35s14.19-2.58,14.19-2.58c0,0,2.04,12.86,1.59,9.83" style="fill:#787878; fill-rule:evenodd;"/><path id="fy" d="m518,313.77s-9.15-2.7-15.11,1.34-14.44,14.75-14.44,14.75c0,0,7.81-20.91,13.77-23.35s14.19-2.58,14.19-2.58c0,0,2.04,12.86,1.59,9.83h0Z" style="fill:none; stroke:#000; stroke-linejoin:round; stroke-width:.94px;"/><path id="fz" d="m566.33,328.58v-15.15s2.68-6.06,12.07-4.55,18.76,7.57,18.76,7.57" style="fill:#fff; fill-rule:evenodd; stroke:#000; stroke-miterlimit:10;"/><path id="ga" d="m566.33,328.58v-15.15s2.68-6.06,12.07-4.55,18.76,7.57,18.76,7.57" style="fill:none; stroke:#000; stroke-linejoin:round; stroke-width:.94px;"/><path id="gb" d="m456.71,485.22s-23.81,0-37.22,13.46-11.92,21.87-17.86,33.66c-5.95,11.78-14.89,18.51-17.87,33.66-2.97,15.16-4.46,20.21-7.43,33.67-2.98,13.47-5.95,26.93-5.95,26.93,0,0-2.98,0-5.95,6.72-2.97,6.74-20.84,0-34.23,13.47-13.4,13.47-34.24,18.51-34.24,18.51l-16.37,132.98s43.18,5.06,58.05,0c14.89-5.05,28.29,3.38,35.73-6.72,7.44-10.1,4.47-5.05,13.4-13.47,8.94-8.43,35.72-16.83,35.72-16.83,0,0-7.69-93.71.96-164.99,8.1-67,32.56-111.87,33.3-111.06" style="fill-rule:evenodd; stroke:#fff; stroke-miterlimit:10;"/><path id="gc" d="m456.71,485.22s-23.81,0-37.22,13.46-11.92,21.87-17.86,33.66c-5.95,11.78-14.89,18.51-17.87,33.66-2.97,15.16-4.46,20.21-7.43,33.67-2.98,13.47-5.95,26.93-5.95,26.93,0,0-2.98,0-5.95,6.72-2.97,6.74-20.84,0-34.23,13.47-13.4,13.47-34.24,18.51-34.24,18.51l-16.37,132.98s43.18,5.06,58.05,0c14.89-5.05,28.29,3.38,35.73-6.72,7.44-10.1,4.47-5.05,13.4-13.47,8.94-8.43,35.72-16.83,35.72-16.83,0,0-7.69-93.71.96-164.99,8.1-67,32.56-111.87,33.3-111.06h-.02Z" style="fill:none; stroke:#000; stroke-miterlimit:11.5; stroke-width:1.25px;"/><path id="gd" d="m495.97,685.13s-42.27,1.03-49.47-1.02c-7.18-2.02-13.48-6.1-17.08-13.21-3.59-7.12,2.7-59.99,2.7-59.99,0,0,0-18.31,11.68-22.37,11.7-4.06,49.47,1.02,49.47,1.02" style="fill:#646464; fill-rule:evenodd;"/><path id="ge" d="m495.97,685.13s-42.27,1.03-49.47-1.02c-7.18-2.02-13.48-6.1-17.08-13.21-3.59-7.12,2.7-59.99,2.7-59.99,0,0,0-18.31,11.68-22.37,11.7-4.06,49.47,1.02,49.47,1.02" style="fill:none; stroke:#000; stroke-miterlimit:11.5; stroke-width:1.25px;"/><path id="gf" d="m524.8,339.94l-6.04-9.86s-8.71-.76-13.4,4.55-8.04,14.41-8.04,14.41" style="fill:#fff; fill-rule:evenodd; stroke:#000; stroke-miterlimit:10;"/><path id="gg" d="m524.8,339.94l-6.04-9.86s-8.71-.76-13.4,4.55-8.04,14.41-8.04,14.41" style="fill:none; stroke:#000; stroke-linejoin:round; stroke-width:.94px;"/><path id="gh" d="m578.86,309.64s-3.46,10.66,1.72,11.32,5.18-9.99,5.18-9.99" style="fill-rule:evenodd;"/><path id="gi" d="m578.86,309.64s-3.46,10.66,1.72,11.32,5.18-9.99,5.18-9.99" style="fill:none; stroke:#000; stroke-miterlimit:11.5; stroke-width:1.25px;"/><path id="gj" d="m510.51,330.86s-3.47,10.66,1.72,11.32c5.19.66,5.18-11.32,5.18-11.32" style="fill-rule:evenodd;"/><path id="gk" d="m510.51,330.86s-3.47,10.66,1.72,11.32c5.19.66,5.18-11.32,5.18-11.32" style="fill:none; stroke:#000; stroke-miterlimit:11.5; stroke-width:1.25px;"/><path id="gl" d="m542.21,409.66s14.07,0,18.1-.76c4.01-.76,15.41-13.63,22.12-15.91,6.7-2.29,14.07-10.61,14.07-10.61,0,0-18.76,40.17-31.49,42.43-12.74,2.29-22.78-15.92-22.78-15.16" style="fill-rule:evenodd; stroke:#fff; stroke-miterlimit:10;"/><path id="gm" d="m542.21,409.66s14.07,0,18.1-.76c4.01-.76,15.41-13.63,22.12-15.91,6.7-2.29,14.07-10.61,14.07-10.61,0,0-18.76,40.17-31.49,42.43-12.74,2.29-22.78-15.92-22.78-15.16h-.01Zm10.71,19.71s2.02,6.82,11.4,6.82,20.11-16.68,20.11-16.68" style="fill:none; stroke:#000; stroke-linejoin:round; stroke-width:.94px;"/><path id="gn" d="m496.43,665.59l-21.65-42.28,1.96-36.36s2.62-8.16,7.88-9.65c5.24-1.49,25.59,4.45,25.59,4.45l-13.78,83.83" style="fill-rule:evenodd; stroke:#fff; stroke-miterlimit:10;"/><path id="go" d="m496.43,665.6l-21.65-42.29,1.96-36.36s2.62-8.16,7.88-9.65c5.24-1.49,25.59,4.45,25.59,4.45l-13.78,83.85h0Z" style="fill:none; stroke:#000; stroke-miterlimit:11.5; stroke-width:1.25px;"/><path id="gp" d="m585.73,710l9.3,1.11s9.3-.55,12.23-4.42,4.89-10.5,4.89-10.5l2.45-97.32s.48-8.84-7.34-16.03c-7.83-7.18-20.54-5.53-20.54-5.53l-.98,132.7" style="fill-rule:evenodd; stroke:#fff; stroke-miterlimit:10;"/><path id="gq" d="m585.73,710l9.3,1.11s9.3-.55,12.23-4.42,4.89-10.5,4.89-10.5l2.45-97.32s.48-8.84-7.34-16.03c-7.83-7.18-20.54-5.53-20.54-5.53l-.98,132.7h-.02Z" style="fill:none; stroke:#000; stroke-miterlimit:11.5; stroke-width:1.25px;"/><path id="gr" d="m579.76,709.36l14.44,14.85s3.94,3.7,3.27,8.16c-2.62,4.45-7.88,2.96-7.88,2.96l-60.37.75s-9.17,0-9.17-5.18,10.49-14.09,10.49-14.09" style="fill-rule:evenodd; stroke:#fff; stroke-miterlimit:10;"/><path id="gs" d="m579.76,709.36l14.44,14.85s3.94,3.7,3.27,8.16c-2.62,4.45-7.88,2.96-7.88,2.96l-60.37.75s-9.17,0-9.17-5.18,10.49-14.09,10.49-14.09" style="fill:none; stroke:#000; stroke-miterlimit:14.3; stroke-width:.94px;"/><path id="gt" d="m585.09,361.93s1.34,9.09,12.75,14.39c11.4,5.31,14.07,6.82,12.73,15.16" style="fill:none; stroke:#000; stroke-linejoin:round; stroke-width:.94px;"/><path id="gu" d="m557.27,497.8l18.18.73-1.09,34.82-18.18-.73" style="fill-rule:evenodd; stroke:#fff; stroke-miterlimit:10;"/><path id="gv" d="m557.27,497.8l18.18.73-1.09,34.82-18.18-.73,1.09-34.82Z" style="fill:none; stroke:#000; stroke-miterlimit:11.5; stroke-width:1.25px;"/><path id="gw" d="m535.51,392.99s.66,3.78,2.01,12.88c1.34,9.09,2.68,14.39,2.68,14.39" style="fill-rule:evenodd; stroke:#fff; stroke-miterlimit:10;"/><path id="gx" d="m535.51,392.99s.66,3.78,2.01,12.88c1.34,9.09,2.68,14.39,2.68,14.39" style="fill:none; stroke:#000; stroke-linejoin:round; stroke-width:.94px;"/><path id="gy" d="m126.3,887.88s1.8,2.21,8.09,2.21,10.79-.75,12.59-7.42c1.8-6.69-7.2-11.89-7.2-11.89,0,0-11.69.75-12.59,4.45-.89,3.72.9,15.61-.89,12.64" style="fill:#787878; fill-rule:evenodd;"/><path id="gz" d="m126.3,887.88s1.8,2.21,8.09,2.21,10.79-.75,12.59-7.42c1.8-6.69-7.2-11.89-7.2-11.89,0,0-11.69.75-12.59,4.45-.89,3.72.9,15.61-.89,12.64Z" style="fill:none; stroke:#000; stroke-miterlimit:11.5; stroke-width:1.25px;"/><path id="ha" d="m113.71,902.3s1.8,3.05,8.09,3.05,10.79-1.02,12.59-10.17-7.19-16.27-7.19-16.27c0,0-11.69,1.03-12.59,6.1-.89,5.08.9,21.35-.89,17.29" style="fill:#787878; fill-rule:evenodd;"/><path id="hb" d="m113.71,902.3s1.8,3.05,8.09,3.05,10.79-1.02,12.59-10.17-7.2-16.27-7.2-16.27c0,0-11.69,1.03-12.59,6.1-.89,5.08.9,21.35-.89,17.29h0Z" style="fill:none; stroke:#000; stroke-miterlimit:11.5; stroke-width:1.25px;"/><path id="hc" d="m97.54,891.11s-3.59,7.13,2.7,10.18c6.3,3.05,15.29,2.02,15.29,2.02l2.7-10.17-11.69-48.81s-18.89,0-20.69,6.1c-1.8,6.1-3.59,21.35.9,27.46,4.49,6.1,10.78,14.24,10.78,13.22" style="fill:#787878; fill-rule:evenodd;"/><path id="hd" d="m97.54,891.11s-3.59,7.13,2.7,10.18c6.3,3.05,15.29,2.02,15.29,2.02l2.7-10.17-11.69-48.81s-18.89,0-20.69,6.1c-1.8,6.1-3.59,21.35.9,27.46,4.49,6.1,10.78,14.24,10.78,13.22h-.01Z" style="fill:none; stroke:#000; stroke-miterlimit:11.5; stroke-width:1.25px;"/><path id="he" d="m312.44,681.67s-3.59-11.19-10.78-16.27c-7.2-5.08-9-8.14-17.99-5.08-9,3.05-34.17,11.19-47.65,18.31-13.5,7.12-13.5,12.2-30.59,21.35-17.08,9.15-28.77,9.15-35.96,19.3-7.2,10.18-10.78,10.18-15.28,20.35-4.5,10.15-5.39,20.32-15.28,25.41s-10.78,9.15-21.58,13.22c-10.78,4.06-19.78,7.12-24.27,19.32-4.5,12.2,2.7,20.33-4.5,22.37-7.2,2.04-7.2,1.02-14.38,10.17-7.19,9.15-12.59,17.29-9.89,26.44,2.7,9.14,6.3,22.37,6.3,22.37,0,0,48.55-2.04,53.05-3.05,4.5-1.03,8.09-1.03,13.49-6.1,5.39-5.08,10.78-10.17,18.88-18.31s6.3-10.17,12.59-9.15c6.3,1.02,18.89-7.12,31.48-6.1,12.58,1.02,18.88,6.1,33.27,3.05,14.38-3.05,14.38-8.14,28.77-8.14s22.47-7.12,41.36-11.19c18.88-4.06,21.58-5.08,27.88-11.19,6.29-6.1,8.99-4.06,6.29-25.42-2.68-21.35,5.39-34.56-5.38-53.88-10.79-19.34-13.5-29.49-15.29-36.6s-6.3-11.19-4.5-11.19" style="fill-rule:evenodd; stroke:#fff; stroke-miterlimit:10; stroke-width:3px;"/><path id="hf" d="m312.44,681.67s-3.59-11.19-10.78-16.27c-7.2-5.08-9-8.14-17.99-5.08-9,3.05-34.17,11.19-47.65,18.31-13.5,7.12-13.5,12.2-30.59,21.35-17.08,9.15-28.77,9.15-35.96,19.3-7.2,10.18-10.78,10.18-15.28,20.35-4.5,10.15-5.39,20.32-15.28,25.41s-10.78,9.15-21.58,13.22c-10.78,4.06-19.78,7.12-24.27,19.32-4.5,12.2,2.7,20.33-4.5,22.37-7.2,2.04-7.2,1.02-14.38,10.17-7.19,9.15-12.59,17.29-9.89,26.44,2.7,9.14,6.3,22.37,6.3,22.37,0,0,48.55-2.04,53.05-3.05,4.5-1.03,8.09-1.03,13.49-6.1,5.39-5.08,10.78-10.17,18.88-18.31s6.3-10.17,12.59-9.15c6.3,1.02,18.89-7.12,31.48-6.1,12.58,1.02,18.88,6.1,33.27,3.05,14.38-3.05,14.38-8.14,28.77-8.14s22.47-7.12,41.36-11.19c18.88-4.06,21.58-5.08,27.88-11.19,6.29-6.1,8.99-4.06,6.29-25.42-2.68-21.35,5.39-34.56-5.38-53.88-10.79-19.34-13.5-29.49-15.29-36.6s-6.3-11.19-4.5-11.19h-.01Z" style="fill:none; stroke:#000; stroke-miterlimit:11.5; stroke-width:1.88px;"/><path id="hg" d="m166.76,844.35s5.4-1.02,9-9.15,17.09-17.29,22.48-19.32c5.38-2.04,20.68-11.19,19.77-2.04s3.59,19.32-5.39,16.27c-9-3.05-16.18,0-16.18,0" style="fill:#aaa; fill-rule:evenodd;"/><path id="hh" d="m166.76,844.35s5.4-1.02,9-9.15,17.09-17.29,22.48-19.32c5.38-2.04,20.68-11.19,19.77-2.04s3.59,19.32-5.39,16.27c-9-3.05-16.18,0-16.18,0" style="fill:none; stroke:#000; stroke-miterlimit:14.3; stroke-width:.94px;"/><path id="hi" d="m114.62,827.07l-6.3-8.14s-6.3,1.02-12.59,7.12c-6.3,6.1-7.2,3.05-13.49,12.2-6.3,9.14-11.69,13.22-9.89,19.32,1.8,6.1,4.5,15.25,4.5,15.25l-4.5,6.1s2.7,8.12,7.19,14.22c4.5,6.1,11.69,7.12,15.28,0,3.59-7.11,6.3-10.15,1.8-15.25-4.5-5.07-6.3-16.26-6.3-16.26,0,0,5.39-6.1,9.89-7.12,4.5-1.03,4.5,1.02,4.5,1.02,0,0-9,10.15-4.5,20.33,4.5,10.17,2.97,9.26,8.09,11.17,10.78,4.08,23.38-14.22,20.69-15.25-9.72-3.67-19.78-7.11-20.69-12.2-.9-5.07,6.3-32.53,6.3-32.53" style="fill:#aaa; fill-rule:evenodd;"/><path id="hj" d="m114.62,827.07l-6.3-8.14s-6.3,1.02-12.59,7.12c-6.3,6.1-7.2,3.05-13.49,12.2-6.3,9.14-11.69,13.22-9.89,19.32,1.8,6.1,4.5,15.25,4.5,15.25l-4.5,6.1s2.7,8.12,7.19,14.22c4.5,6.1,11.69,7.12,15.28,0,3.59-7.11,6.3-10.15,1.8-15.25-4.5-5.07-6.3-16.26-6.3-16.26,0,0,5.39-6.1,9.89-7.12,4.5-1.03,4.5,1.02,4.5,1.02,0,0-9,10.15-4.5,20.33,4.5,10.17,2.97,9.26,8.09,11.17,10.78,4.08,23.38-14.22,20.69-15.25-9.72-3.67-19.78-7.11-20.69-12.2-.9-5.07,6.3-32.53,6.3-32.53h.01Zm-35.97,44.73l12.59-1.01m-16.19-15.25l15.29,4.05m-1.81-27.44l9.9,21.34" style="fill:none; stroke:#000; stroke-miterlimit:11.5; stroke-width:1.25px;"/><path id="hk" d="m134.4,766.05s9.89,14.23,20.69,27.46c10.79,13.22,14.39,15.25,20.69,24.41,6.29,9.15,8.09,16.27,8.09,16.27,0,0,3.59-2.04-.9,5.08s-9.89,7.12-9.89,7.12c0,0,5.39,3.05,16.19-2.04s11.7-9.15,10.79-20.33c-.9-11.18-9.89-21.35-14.39-30.5-4.5-9.15-11.69-18.31-19.78-25.42-14.29-12.57-17.08-17.29-17.08-17.29,0,0-3.61,1.02-9,4.06s-2.7,11.19-5.39,11.19" style="fill-rule:evenodd; stroke:#fff; stroke-miterlimit:10;"/><path id="hl" d="m134.4,766.05s9.89,14.23,20.69,27.46c10.79,13.22,14.39,15.25,20.69,24.41,6.29,9.15,8.09,16.27,8.09,16.27,0,0,3.59-2.04-.9,5.08s-9.89,7.12-9.89,7.12c0,0,5.39,3.05,16.19-2.04s11.7-9.15,10.79-20.33c-.9-11.18-9.89-21.35-14.39-30.5-4.5-9.15-11.69-18.31-19.78-25.42-14.29-12.57-17.08-17.29-17.08-17.29,0,0-3.61,1.02-9,4.06s-2.7,11.19-5.39,11.19h-.01Zm-28.77,90.48s.89-2.02,5.39-10.15,4.5-5.08,8.09-17.29c3.61-12.2.89-26.44.89-26.44m249.96-173.87s12.59,12.73,17.09,25.47c4.5,12.73,9.89,26.51,12.59,45.61,2.7,19.09,6.3,47.73,6.3,47.73l-1.8,19.09-13.5,6.36s3.59-21.21.9-41.36c-2.7-20.16-1.8-19.09-7.2-43.48-5.39-24.41-6.3-21.23-10.79-31.82-4.5-10.61-11.68-22.28-11.68-22.28" style="fill:none; stroke:#000; stroke-miterlimit:14.3; stroke-width:.94px;"/><path id="hm" d="m588.46,444.89c0,5.66-9.01,10.23-20.1,10.23s-20.11-4.57-20.11-10.23,9.02-10.22,20.11-10.22,20.1,4.57,20.1,10.22" style="fill-rule:evenodd;"/><path id="hn" d="m588.46,444.89c0,5.66-9.01,10.23-20.1,10.23s-20.11-4.57-20.11-10.23,9.02-10.22,20.11-10.22,20.1,4.57,20.1,10.22Z" style="fill:none; stroke:#000; stroke-miterlimit:11.5; stroke-width:1.25px;"/><path id="ho" d="m567.68,442.24s6.7,3.02,25.48-6.82c18.76-9.86,43.55-34.1,43.55-34.1l.66,10.61s-26.81,28.04-39.52,31.07c-12.74,3.02-30.17-1.52-30.17-.76" style="fill-rule:evenodd;"/><path id="hp" d="m567.68,442.24s6.7,3.02,25.48-6.82c18.76-9.86,43.55-34.1,43.55-34.1l.66,10.61s-26.81,28.04-39.52,31.07c-12.74,3.02-30.17-1.52-30.17-.76h0Z" style="fill:none; stroke:#000; stroke-miterlimit:11.5; stroke-width:1.25px;"/><path id="hq" d="m538.18,239.93s-1.33-15.16,4.7-23.49c6.04-8.34,8.05-10.61,8.05-10.61l-10.73,2.26s-8.04,9.1-10.05,16.68c-2.02,7.58-1.34,18.18-1.34,18.18,0,0,11.4-3.78,9.37-3.02" style="fill-rule:evenodd;"/><path id="hr" d="m538.18,239.93s-1.33-15.16,4.7-23.49c6.04-8.34,8.05-10.61,8.05-10.61l-10.73,2.26s-8.04,9.1-10.05,16.68c-2.02,7.58-1.34,18.18-1.34,18.18,0,0,11.4-3.78,9.37-3.02h0Z" style="fill:none; stroke:#000; stroke-linejoin:round; stroke-width:1.25px;"/><path id="hs" d="m552.91,574.4l43.3,2.08c5.46.27,9.77,5.39,9.54,11.38l-4.01,106.45c-.22,5.98-4.89,10.69-10.35,10.42,0,0-18.76,16.83-33.52,25.75-6.71,4.04-11.19,4.42-15.16,4.42-4.77,0-8.86-1.7-15.16-7.74-10.49-10.05-22.78-26.58-22.78-26.58-5.44-.26-9.76-5.39-9.53-11.37l4-106.47c.24-5.98,4.9-10.69,10.35-10.42l43.32,2.09" style="fill:#aaa; fill-rule:evenodd;"/><path id="ht" d="m552.91,574.4l43.3,2.08c5.46.27,9.77,5.39,9.54,11.38l-4.01,106.45c-.22,5.98-4.89,10.69-10.35,10.42,0,0-18.76,16.83-33.52,25.75-6.71,4.04-11.19,4.42-15.16,4.42-4.77,0-8.86-1.7-15.16-7.74-10.49-10.05-22.78-26.58-22.78-26.58-5.44-.26-9.76-5.39-9.53-11.37l4-106.47c.24-5.98,4.9-10.69,10.35-10.42l43.32,2.09h-.01Z" style="fill:none; stroke:#000; stroke-miterlimit:11.5; stroke-width:1.25px;"/><path id="hu" d="m553.94,715.26c0,6.87-4.71,12.45-10.5,12.45s-10.52-5.58-10.52-12.45,4.72-12.44,10.52-12.44,10.5,5.57,10.5,12.44" style="fill-rule:evenodd; stroke:#fff; stroke-miterlimit:10;"/><path id="hv" d="m553.94,715.26c0,6.87-4.71,12.45-10.5,12.45s-10.52-5.58-10.52-12.45,4.72-12.44,10.52-12.44,10.5,5.57,10.5,12.44Z" style="fill:none; stroke:#000; stroke-miterlimit:14.3; stroke-width:.94px;"/><path id="hw" d="m551.66,589.43l31.58,1.53c3.98.19,7.11,4.11,6.94,8.7l-3.08,81.62c-.17,4.59-3.58,8.2-7.56,8l-63.16-3.03c-3.98-.19-7.11-4.11-6.94-8.7l3.08-81.63c.17-4.57,3.58-8.19,7.56-7.99l31.57,1.52" style="fill-rule:evenodd; stroke:#fff; stroke-miterlimit:10;"/><path id="hx" d="m551.66,589.43l31.58,1.53c3.98.19,7.11,4.11,6.94,8.7l-3.08,81.62c-.17,4.59-3.58,8.2-7.56,8l-63.16-3.03c-3.98-.19-7.11-4.11-6.94-8.7l3.08-81.63c.17-4.57,3.58-8.19,7.56-7.99l31.57,1.52h0Z" style="fill:none; stroke:#000; stroke-miterlimit:14.3; stroke-width:.94px;"/><path id="hy" d="m536.17,515.92s-13.72,9.32-18.12,12.08c-4.19,2.62-5.57,21.54-.92,25.22s14.41,15.24,14.41,15.24l76.21,4.97,2.45-57.51h-74.03" style="fill-rule:evenodd; stroke:#fff; stroke-miterlimit:10;"/><path id="hz" d="m536.17,515.92s-13.72,9.32-18.12,12.08c-4.19,2.62-5.57,21.54-.92,25.22s14.41,15.24,14.41,15.24l76.21,4.97,2.45-57.51h-74.03,0Z" style="fill:none; stroke:#000; stroke-miterlimit:11.5; stroke-width:1.25px;"/><path id="ia" d="m609.69,517.59s-13.47,6.49-18.1,9.4c-4.41,2.76-5.87,22.67-.98,26.55s17.11,18.25,17.11,18.25l1.95-54.19" style="fill-rule:evenodd; stroke:#fff; stroke-miterlimit:10; stroke-width:3px;"/><path id="ib" d="m609.69,517.59s-13.47,6.49-18.1,9.4c-4.41,2.76-5.87,22.67-.98,26.55s17.11,18.25,17.11,18.25l1.95-54.19h.01Z" style="fill:none; stroke:#000; stroke-miterlimit:14.3; stroke-width:.94px;"/><path id="ic" d="m636.86,601.71l24.31,2.88-3.21,34.65-24.32-2.88" style="fill-rule:evenodd; stroke:#fff; stroke-miterlimit:10;"/><path id="id" d="m636.86,601.71l24.31,2.88-3.21,34.65-24.32-2.88,3.22-34.65Z" style="fill:none; stroke:#000; stroke-miterlimit:11.5; stroke-width:1.25px;"/><path id="ie" d="m587.64,512.02l28.87,2.21,1.96-22.25s-.65-10.39-11.16-11.14c-10.49-.75-17.06,2.97-18.38,7.42-1.3,4.46-1.3,23.75-1.3,23.75" style="fill-rule:evenodd; stroke:#fff; stroke-miterlimit:10;"/><path id="if" d="m587.64,512.02l28.87,2.21,1.96-22.25s-.65-10.39-11.16-11.14c-10.49-.75-17.06,2.97-18.38,7.42-1.3,4.46-1.3,23.75-1.3,23.75h0Z" style="fill:none; stroke:#000; stroke-miterlimit:11.5; stroke-width:1.25px;"/><path id="ig" d="m710.33,750.93s1.32-19.29,0-28.95c-1.3-9.65-3.27-26.71-15.09-35.62-11.81-8.9-28.87-13.36-38.07-6.67-9.19,6.67-13.78,17.81-13.78,31.9s3.28,44.52,3.28,44.52c0,0,0,2.97,5.9,5.93,5.9,2.97,17.71,11.14,22.31,10.39,4.6-.75,14.44-6.67,20.35-9.65,5.9-2.96,15.75-8.16,15.09-11.86" style="fill-rule:evenodd; stroke:#fff; stroke-miterlimit:10;"/><path id="ih" d="m710.33,750.93s1.32-19.29,0-28.95c-1.3-9.65-3.27-26.71-15.09-35.62-11.81-8.9-28.87-13.36-38.07-6.67-9.19,6.67-13.78,17.81-13.78,31.9s3.28,44.52,3.28,44.52c0,0,0,2.97,5.9,5.93,5.9,2.97,17.71,11.14,22.31,10.39,4.6-.75,14.44-6.67,20.35-9.65,5.9-2.96,15.75-8.16,15.09-11.86h0Z" style="fill:none; stroke:#000; stroke-miterlimit:11.5; stroke-width:1.25px;"/><path id="ii" d="m702.52,746.41s1.02-15.98,0-23.98c-1.02-7.99-2.55-22.14-11.71-29.52-9.15-7.37-22.38-11.05-29.51-5.53-7.12,5.53-10.68,14.74-10.68,26.42s2.55,36.89,2.55,36.89c0,0,0,2.45,4.57,4.91s13.72,9.22,17.3,8.6c3.56-.61,11.19-5.53,15.76-7.99,4.59-2.45,12.22-6.76,11.71-9.83" style="fill-rule:evenodd; stroke:#fff; stroke-miterlimit:10; stroke-width:3px;"/><path id="ij" d="m702.52,746.41s1.02-15.98,0-23.98c-1.02-7.99-2.55-22.14-11.71-29.52-9.15-7.37-22.38-11.05-29.51-5.53-7.12,5.53-10.68,14.74-10.68,26.42s2.55,36.89,2.55,36.89c0,0,0,2.45,4.57,4.91s13.72,9.22,17.3,8.6c3.56-.61,11.19-5.53,15.76-7.99,4.59-2.45,12.22-6.76,11.71-9.83h.01Z" style="fill:none; stroke:#000; stroke-miterlimit:14.3; stroke-width:.94px;"/><path id="ik" d="m417.99,668.69s4.47-40.38,7.44-69c2.98-28.61,13.4-47.13,19.36-62.29,5.95-15.15,20.84-26.92,20.84-40.38s14.88-33.67,14.88-33.67c0,0-23.81,10.1-25.3,25.25s-20.84,38.72-25.3,55.55c-4.47,16.83-11.92,40.39-13.4,63.96-1.49,23.57,2.97,58.91,1.49,60.59" style="fill-rule:evenodd; stroke:#fff; stroke-miterlimit:10;"/><path id="il" d="m417.99,668.7s4.47-40.39,7.44-69.02c2.98-28.61,13.4-47.13,19.36-62.29,5.95-15.15,20.84-26.92,20.84-40.38s14.88-33.67,14.88-33.67c0,0-23.81,10.1-25.3,25.25s-20.84,38.72-25.3,55.55c-4.47,16.83-11.92,40.39-13.4,63.96-1.49,23.57,2.97,58.91,1.49,60.6Zm381.07,33.65s0,35.36-2.97,62.29c-2.98,26.93-10.42,30.3-8.94,50.49,1.49,20.21,4.46,31.98,0,55.55-4.47,23.57-8.95,50.5-8.95,50.5l-4.56,6.36c4.26-1.78,16.89,0,16.89,0,0,0-1.9-18.15,4.05-31.62,5.95-13.47,10.42-28.61,7.44-50.5-2.98-21.87-5.95-23.55-1.49-45.44,4.46-21.87,7.43-28.61,7.43-48.81v-31.98l4.47-16.84m69.95-3.37l13.4,228.93" style="fill:none; stroke:#000; stroke-miterlimit:14.3; stroke-width:.94px;"/><path id="im" d="m522.65,807.83c0,9.86-6.46,17.86-14.43,17.86s-14.43-8-14.43-17.86,6.46-17.86,14.43-17.86,14.43,8,14.43,17.86" style="fill-rule:evenodd; stroke:#fff; stroke-miterlimit:10;"/><path id="in" d="m522.65,807.83c0,9.86-6.46,17.86-14.43,17.86s-14.43-8-14.43-17.86,6.46-17.86,14.43-17.86,14.43,8,14.43,17.86Z" style="fill:none; stroke:#000; stroke-miterlimit:14.3; stroke-width:.94px;"/><path id="io" d="m556.19,810.52c0,6.1-4.59,11.05-10.23,11.05s-10.24-4.96-10.24-11.05,4.59-11.07,10.24-11.07,10.23,4.96,10.23,11.07" style="fill-rule:evenodd; stroke:#fff; stroke-miterlimit:10;"/><path id="ip" d="m556.19,810.52c0,6.1-4.59,11.05-10.23,11.05s-10.24-4.96-10.24-11.05,4.59-11.07,10.24-11.07,10.23,4.96,10.23,11.07Z" style="fill:none; stroke:#000; stroke-miterlimit:14.3; stroke-width:.94px;"/><path id="iq" d="m598.11,810.99c0,9.84-6.45,17.85-14.43,17.85s-14.43-8-14.43-17.85,6.46-17.86,14.43-17.86,14.43,8,14.43,17.86" style="fill-rule:evenodd; stroke:#fff; stroke-miterlimit:10;"/><path id="ir" d="m598.11,810.99c0,9.84-6.45,17.85-14.43,17.85s-14.43-8-14.43-17.85,6.46-17.86,14.43-17.86,14.43,8,14.43,17.86Z" style="fill:none; stroke:#000; stroke-miterlimit:14.3; stroke-width:.94px;"/><path id="is" d="m829.66,908.98s-23.22,15.31-48.37,15.31-73.55,10.95-94.84,10.95-81.28,4.38-100.64,4.38-65.81-8.76-81.3-8.76-67.74-15.34-67.74-15.34c0,0-13.55,13.14-13.55,28.46s5.8,50.35,5.8,50.35l-7.74,32.81h443.22s.98-37.05-11.62-48.14c-4.35-3.83-8.23-10.25-11.52-17.72-3.09-6.99,1.91-16.36-.09-23.87-4.41-16.49-13.61-29.58-11.62-28.45" style="fill-rule:evenodd; stroke:#fff; stroke-miterlimit:10;"/><path id="it" d="m829.66,908.98s-23.22,15.31-48.37,15.31-73.55,10.95-94.84,10.95-81.28,4.38-100.64,4.38-65.81-8.76-81.3-8.76-67.74-15.34-67.74-15.34c0,0-13.55,13.14-13.55,28.46s5.8,50.35,5.8,50.35l-7.74,32.81h443.22s.98-37.05-11.62-48.14c-4.35-3.83-8.23-10.25-11.52-17.72-3.09-6.99,1.91-16.36-.09-23.87-4.41-16.49-13.61-29.58-11.62-28.45h.01Z" style="fill:none; stroke:#000; stroke-miterlimit:11.5; stroke-width:1.25px;"/><path id="iu" d="m432.9,928.68s35.19,13.13,62.54,19.7c27.37,6.56,62.54,8.76,91.85,8.76s56.67,0,85.98-2.2c29.31-2.18,68.38-15.3,85.97-15.3s39.09,2.18,48.86,0c9.77-2.2,27.37-8.76,27.37-8.76" style="fill:none; stroke:#fff; stroke-miterlimit:14.3; stroke-width:.94px;"/><path id="iv" d="m425.16,961.51s36.53,8.76,64.95,15.34c28.41,6.56,63.31,2.19,93.76,2.19s62.46,2.18,92.91,0c30.44-2.19,69.03-10.95,87.29-10.95s40.59,6.57,50.74,4.38c10.14-2.19,28.42-8.76,28.42-8.76m-48.41,65.65s1.94-19.69,0-35c-1.93-15.31-5.8-24.08-5.8-24.08l13.55,2.19s7.74,6.57,7.74,19.7,1.94,37.19,1.94,37.19" style="fill:none; stroke:#fff; stroke-miterlimit:11.5; stroke-width:1.25px;"/><path id="iw" d="m760.46,306.74s3.99,7.9,13.98,15.8c9.97,7.92,0,9.05,12.99,18.08,12.99,9.04,10.98,12.43,10.98,12.43,0,0,1.01,9.04-3.99,16.94s-11.99,5.64-9,16.94c3,11.3,11.99,29.37,32.97,37.27,20.97,7.92,59.93,22.59,78.9,20.33,18.98-2.26,34.96-3.39,46.94-13.56,11.99-10.17,16.99-9.04,13.98-29.36-3-20.32,0-21.45-5-31.63-5-10.15-17.97-21.45-17.97-21.45h-9.99l-3.99-16.94s3.99,1.12,5.99-12.43c1.99-13.56.99-38.41.99-38.41,0,0-9.98-29.36-14.98-37.26-5-7.92-29.97-37.27-29.97-37.27,0,0-53.93-2.26-56.94,7.9-2.98,10.17,7,82.44-6.99,86.95-13.97,4.52-47.95-15.8-47.95-15.8,0,0-11.98,20.32-10.98,21.45" style="fill-rule:evenodd; stroke:#fff; stroke-miterlimit:10; stroke-width:3px;"/><path id="ix" d="m760.46,306.74s3.99,7.9,13.98,15.8c9.97,7.92,0,9.05,12.99,18.08,12.99,9.04,10.98,12.43,10.98,12.43,0,0,1.01,9.04-3.99,16.94s-11.99,5.64-9,16.94c3,11.3,11.99,29.37,32.97,37.27,20.97,7.92,59.93,22.59,78.9,20.33,18.98-2.26,34.96-3.39,46.94-13.56,11.99-10.17,16.99-9.04,13.98-29.36-3-20.32,0-21.45-5-31.63-5-10.15-17.97-21.45-17.97-21.45h-9.99l-3.99-16.94s3.99,1.12,5.99-12.43c1.99-13.56.99-38.41.99-38.41,0,0-9.98-29.36-14.98-37.26-5-7.92-29.97-37.27-29.97-37.27,0,0-53.93-2.26-56.94,7.9-2.98,10.17,7,82.44-6.99,86.95-13.97,4.52-47.95-15.8-47.95-15.8,0,0-11.98,20.32-10.98,21.45l.03.02Z" style="fill:none; stroke:#000; stroke-miterlimit:11.5; stroke-width:1.88px;"/><path id="iy" d="m812.4,350.79s-10.99-12.43-14.98-18.08c-4-5.64-14.99-13.55-18.98-18.06-3.99-4.52-6.99-9.05-6.99-9.05l-9,4.52s-13.97-14.68-13.97-22.59,7.98-12.43,16.98-10.17c9,2.26,13.98,4.52,13.98,4.52,0,0,6.99-2.25,15.97,4.52,9,4.51,9,7.9,9,7.9,0,0,1.99-7.9,6.99-10.17,5-2.25,3-3.39,3-3.39,0,0-3.99-7.9-3.99-15.8s5-12.43,2.98-19.2c-1.99-6.77-5-3.39-5-11.3s1.01-11.29,1.01-11.29c0,0-6.99-12.43-7.99-20.32-.99-7.92-3.99-30.49,3-32.75,6.99-2.26,12.99,1.12,12.99,1.12l5.99,6.77s3.99-10.17,11.98-10.17c5,2.26,7.99,2.26,11.98,7.92,4,5.64,5,13.55,5,13.55,0,0,5.01-3.39,14.99-2.25s17.97,20.33,17.97,20.33l-3,7.9,5,10.15s1.99-14.68,11.99-14.68,14.98-1.12,17.97,6.77c2.98,7.9,1.99,13.56,1.99,21.45s3,10.17,3,18.07.99,16.95.99,16.95c0,0,7,1.12,5,9.04-1.99,7.9-5,11.29-5,11.29,0,0,1.01,1.13,0,9.04-.99,7.9-1.99,16.94-1.99,16.94,0,0-1.99,27.12-18.98,35.01-16.98,7.9-26.96,14.68-46.94,14.68s-42.94-19.19-42.94-19.19" style="fill:#919191; fill-rule:evenodd;"/><path id="iz" d="m812.4,350.79s-10.99-12.43-14.98-18.08c-4-5.64-14.99-13.55-18.98-18.06-3.99-4.52-6.99-9.05-6.99-9.05l-9,4.52s-13.97-14.68-13.97-22.59,7.98-12.43,16.98-10.17c9,2.26,13.98,4.52,13.98,4.52,0,0,6.99-2.25,15.97,4.52,9,4.51,9,7.9,9,7.9,0,0,1.99-7.9,6.99-10.17,5-2.25,3-3.39,3-3.39,0,0-3.99-7.9-3.99-15.8s5-12.43,2.98-19.2c-1.99-6.77-5-3.39-5-11.3s1.01-11.29,1.01-11.29c0,0-6.99-12.43-7.99-20.32-.99-7.92-3.99-30.49,3-32.75,6.99-2.26,12.99,1.12,12.99,1.12l5.99,6.77s3.99-10.17,11.98-10.17c5,2.26,7.99,2.26,11.98,7.92,4,5.64,5,13.55,5,13.55,0,0,5.01-3.39,14.99-2.25s17.97,20.33,17.97,20.33l-3,7.9,5,10.15s1.99-14.68,11.99-14.68,14.98-1.12,17.97,6.77c2.98,7.9,1.99,13.56,1.99,21.45s3,10.17,3,18.07.99,16.95.99,16.95c0,0,7,1.12,5,9.04-1.99,7.9-5,11.29-5,11.29,0,0,1.01,1.13,0,9.04-.99,7.9-1.99,16.94-1.99,16.94,0,0-1.99,27.12-18.98,35.01-16.98,7.9-26.96,14.68-46.94,14.68s-42.94-19.19-42.94-19.19v.03Zm-9.98-149.08s5,5.66,11.98,5.66,10.99-2.26,10.99-2.26m-16.99,18.07s5,3.39,11.99,3.39,10.99-1.35,10.99-1.35m-16.99,21.68s3.26,3.4,7.82,3.4,7.17-1.35,7.17-1.35m-2.01-43.82s5.42,5.64,13.03,5.64,11.96-2.25,11.96-2.25m-21.98,18.07s6.08,7.9,14.59,7.9,13.37-3.16,13.37-3.16m-26.97,22.36s3.85,1.13,13.29,1.13,17.69,3.62,17.69,3.62m-2.01,3.17s11.47,4.51,19.99,4.51,7.99.24,7.99.24m-28.97-29.59s6.08,5.64,14.59,5.64,13.37-2.25,13.37-2.25m-31.97-24.85s2.47,5.64,10.99,5.64,16.99-2.25,16.99-2.25m6.99,21.45s6.08,5.64,14.59,5.64,13.37-2.25,13.37-2.25m-27.96,14.68s6.08,4.52,14.59,4.52,15.37-5.66,15.37-5.66m-29.95,16.95s7.06,5.64,15.57,5.64,15.39-5.64,15.39-5.64m-158.81,35s3.58.7,9.99-5.64c7.99-7.9,5.98-21.45,5.98-21.45m13.97,45.17s2.88.81,8.02-6.59c6.4-9.23,4.8-25.03,4.8-25.03" style="fill:none; stroke:#000; stroke-miterlimit:11.5; stroke-width:1.25px;"/><path id="ja" d="m875.33,401.61l-52.95-13.56-9-45.17s7.99-3.39,18.98-5.64c10.99-2.26,27.98-2.26,27.98-2.26l14.98,66.64" style="fill-rule:evenodd;"/><path id="jb" d="m875.33,401.61l-52.95-13.56-9-45.17s7.99-3.39,18.98-5.64c10.99-2.26,27.98-2.26,27.98-2.26l14.98,66.64h0Zm-43.96-90.36s35.62,10.17,62.07,10.17,24.81-2.04,24.81-2.04" style="fill:none; stroke:#000; stroke-miterlimit:11.5; stroke-width:1.25px;"/><path id="jc" d="m920.79,322.54s-5.46,17.08-24.04,24.39c-18.58,7.31-40.42,9.74-40.42,9.74l6.56,25.6s10.91,1.23,30.59-3.67c19.66-4.87,32.77-17.05,32.77-17.05,0,0-5.46-40.23-5.46-39.01" style="fill-rule:evenodd; stroke:#fff; stroke-miterlimit:10;"/><path id="jd" d="m920.79,322.54s-5.46,17.08-24.04,24.39c-18.58,7.31-40.42,9.74-40.42,9.74l6.56,25.6s10.91,1.23,30.59-3.67c19.66-4.87,32.77-17.05,32.77-17.05,0,0-5.46-40.23-5.46-39.01h.01Z" style="fill:none; stroke:#000; stroke-miterlimit:11.5; stroke-width:1.25px;"/><path id="je" d="m820.39,363.21s-1.99,2.25-7.99,0-9.98-5.64-9.98-5.64c0,0,1.99,11.3,5,18.07,3,6.77,15.98,10.17,15.98,10.17,0,0-1.99-24.85-3-22.59" style="fill-rule:evenodd; stroke:#fff; stroke-miterlimit:10;"/><path id="jf" d="m820.39,363.21s-1.99,2.25-7.99,0-9.98-5.64-9.98-5.64c0,0,1.99,11.3,5,18.07,3,6.77,15.98,10.17,15.98,10.17,0,0-1.99-24.85-3-22.59h0Zm1.99-185.21s.99,10.17,1.99,18.07c1.01,7.9,1.99,9.04,1.99,9.04,0,0-1.99,2.26-.99,9.04.99,6.77,3,11.29,3,11.29v6.77c0,12.43,3.99,20.33,3.99,20.33m19.97-63.25s-5,12.43-1.99,18.08c3,5.63,5.99,9.02,5.99,9.02,0,0-1.01,3.4,1.01,10.17,1.99,6.77,3.99,9.04,3.99,9.04,0,0-3.99,10.17-.99,15.81,2.98,5.64,1.99,9.04,1.99,9.04" style="fill:none; stroke:#000; stroke-miterlimit:11.5; stroke-width:1.25px;"/><path id="jg" d="m886.3,227.69l2.01,10.15s-4,6.77-2.01,12.44c2.01,5.63,3,7.9,3,7.9,0,0-3-1.13-3,5.64s4,10.17,4,10.17" style="fill-rule:evenodd; stroke:#fff; stroke-miterlimit:10;"/><path id="jh" d="m886.3,227.69l2.01,10.15s-4,6.77-2.01,12.44c2.01,5.63,3,7.9,3,7.9,0,0-3-1.13-3,5.64s4,10.17,4,10.17m-126.7,38.27s-21.71-18.89-18.38-28.34c3.34-9.43,15.04-11.32,21.71-9.43,6.69,1.89,11.71,5.66,11.71,5.66,0,0,3.34-1.89,13.36,1.89s13.36,3.78,13.36,3.78l6.69-1.89s-6.69-5.67-5.01-17.01c1.67-11.32,0-20.78,0-20.78" style="fill:none; stroke:#000; stroke-miterlimit:11.5; stroke-width:1.25px;"/></svg>