<?xml version="1.0" encoding="UTF-8"?><svg id="a" xmlns="http://www.w3.org/2000/svg" width="1024" height="1024" viewBox="0 0 1024 1024"><path id="b" d="m576.37,798.72c50.44-64.65,101.54-128.42,149.65-194.86,23.61-32.6,44.37-66.81,64.94-101.35,18.03-30.27,37.89-67.01,44.86-101.88,19.85-99.18-8.44-214.2-111.18-253.98-52.09,179.35-104.18,358.69-156.26,538.03-12.13,41.75-24.25,83.52-36.38,125.27,14.76-3.75,29.54-7.49,44.33-11.24"/><path id="c" d="m543.78,806.58c12.98-64.26,26.37-126.43,44.57-189.26,32.04-110.66,64.08-221.33,96.13-331.99,13.39-46.23,26.77-92.46,40.16-138.69,36.15,11.18,60.66,35.07,73.33,70.52,13.36,37.4,20.38,76.74,18.39,116.56-4.07,81.37-53.34,156.24-93.01,224.9-25.98,44.96-54.56,88.51-82.26,132.42-14.43,22.88-28.81,45.79-42.81,68.94-7.54,12.46-14.88,25.03-22.32,37.55-3.01,5.02-27.44,9.27-32.19,9.07"/><path id="d" d="m532.54,809.39c26.14-35.14,52.27-70.28,78.4-105.42,14.74-19.82,29.48-39.64,44.22-59.46,8.33-11.2,16.3-15.42,30.15-5.86,15,10.36.69,20.26-7.48,31.5-11.76,16.16-24.49,31.74-36.91,47.41-12.05,15.18-24.01,30.47-36.42,45.36-8.71,10.45-19.73,33.64-33.16,37.09-11.74,2.98-27.77,9.54-38.81,9.37"/><path id="e" d="m843.14,351.64c-9.74-12.28-21.77-23.86-40.1-25.69-7.36-.73-6.42.08-9.16-6.75-4.14-10.32-8.28-20.63-12.42-30.94-18.94-47.2-37.88-94.41-56.82-141.62,42.53,17.61,69.21,44,92.87,83.09,21.78,36.06,24.29,81.09,25.6,121.92"/><path id="f" d="m676.31,634.7c-19.15,31.59-39.32,62.52-58.8,93.9-9.84,15.85-20.01,31.61-29.33,47.77-2.3,3.98-9.63,21.44-13.43,22.45l-31,8.3c3.41-17.62,8.29-24.03,19.02-38.44,17.76-23.88,35.51-47.75,53.27-71.63,14.46-19.45,28.93-38.89,43.39-58.34,4.95-6.66,10.94-5.82,16.86-4.02"/><path id="g" d="m776.86,176.96c29.98,46.13,39.32,97.94,39.32,152.21-3.74-1.86-19.21-2.25-20.21-4.73-7.29-18.17-14.58-36.34-21.88-54.52l-49.47-123.29c18.44,5.7,40.35,18.67,52.23,30.33"/><path id="h" d="m563.99,798.72c40.37-71.41,84-140.92,126.2-211.26,21.37-35.63,40.9-72.24,60.15-109.05,17.39-33.25,34.57-70.63,41.05-107.77,14.24-81.56-7.36-165.94-65.18-225.78-9.17-9.48-67.36-48.24-71.8-23.27-5.3,29.78-10.59,59.55-15.89,89.33-35.1,197.26-70.2,394.52-105.26,591.8-.43,2.41-.86,4.81-1.28,7.22,10.64-3.75,21.31-7.49,31.99-11.24"/><path id="i" d="m535.92,803.2c24.64-181.81,61.93-362.3,93.93-542.92l21.5-121.37c1.36-7.67,2.72-15.35,4.08-23.02,1.45-8.19,36.28,5.58,41.13,8,35.14,17.55,47.47,62.75,55.6,98.33,8.35,36.51,10.1,78.97,3.94,115.87-13.45,80.66-55.2,157.81-89.23,231.4-34.1,73.75-69.02,147.03-101.51,221.53-5.02,11.41-17.1,13.08-29.44,12.15"/><path id="j" d="m660.59,534.19c12.6-7.62,31.32-6.18,43.81,1.12,13.07,7.64,10.65,12.52,4.76,23.88-16.16,31.21-33.37,61.69-51.94,91.54-17.88,28.74-37.09,56.66-55.36,85.16-9.31,14.52-18.87,28.97-27.32,44.01-3.79,6.76-6.73,17.48-14.34,20.15-9.41,3.3-18.82,6.61-28.23,9.91,5.07-28.38,10.12-56.77,15.19-85.15,3.4-19.05,21.16-43.21,30.55-60.19,13.04-23.58,26.35-46.98,39.85-70.3,11.18-19.24,25.26-46.44,43.06-60.13"/><path id="k" d="m681.94,529.13c-21.39,49.61-44.61,98.39-66.54,147.75-10.27,23.1-20.34,46.29-30.73,69.33-6.12,13.58-12.09,27.17-17.83,40.91-1.62,3.88-2.76,11.75-7.28,12.55-7.69,1.37-15.38,2.73-23.07,4.1,2.05-16.58,4.11-33.15,6.16-49.72,1.3-10.52,1.1-24.62,5.92-33.89,14.13-27.2,28.45-54.25,43.28-81.07,14.08-25.47,28.83-50.56,45.18-74.66,12.28-18.14,21.41-35.2,44.94-35.33"/><path id="l" d="m795.4,325.24c-11.44-16.08-36.58-18.43-54.25-14.88-9.54,1.91-20.25-37.88-23.6-45.93-20.67-49.75-41.34-99.5-62.01-149.25,24.47.63,41.96,6.53,61.4,21.81,19.66,15.46,34.64,33.46,47.83,54.57,11.08,17.71,21.4,42.07,24.52,62.84,2.91,19.64,11.58,52.18,6.06,70.84"/><path id="m" d="m676.88,115.74c39.62,9.23,57.54,45.23,68.65,81.02,6.13,19.77,9.25,39.52,11.87,60,1.22,9.56,5.75,47.87-.77,52.19-4.28,2.84-19.61,2.37-21.22-1.52-8.12-19.55-16.25-39.11-24.37-58.66-18.4-44.29-36.8-88.58-55.21-132.88-.1-.24-.2-.48-.3-.72,6.46.17,16.9.39,21.31.56"/><path id="n" d="m548.26,798.72c31.08-74.91,65.01-148.38,97.71-222.57,16.8-38.11,34.05-76.08,49.43-114.79,14.52-36.52,31.85-74.75,37.53-113.88,10.58-72.82,1.9-175.92-58.31-227.23-13.73-11.7-31.23-21.69-49.42-23.59-5.98-.63-29.65.08-30.5,8.4-2.57,24.99-5.14,49.98-7.7,74.98-20.85,202.95-41.7,405.9-62.55,608.83-.49,4.78-.98,9.56-1.47,14.34,8.47-1.51,16.9-2.98,25.3-4.48"/><path id="o" d="m546.59,798.72c-6.97.91-15.64-.94-23.02-1.67l57.19-556.13c3.95-38.45,7.9-76.89,11.86-115.34.74-7.18,1.48-14.35,2.21-21.53.92-8.97,31.3-7.86,36.86-6.27,31.36,8.96,46.26,50.56,54.84,79.42,11.52,38.71,11.71,79.63,11.71,119.66,0,35.71-12.65,73.96-22.43,107.98-11.93,41.49-24.79,82.65-37.93,123.77-24.12,75.46-49.87,150.5-75.68,225.4-4.82,14.05-9.94,33.09-15.59,44.74"/><path id="p" d="m523,803.2c2.33-22.55,4.65-45.09,6.98-67.64,1.86-18.02,7.06-30.63,13.96-47.52,15.01-36.72,30.02-73.71,46.79-109.67,6.61-14.16,12.87-40.47,29.42-44.77,5.16-1.34,44.46.44,40.22,10.64-15.19,36.48-31.26,72.59-47.67,108.54-13.04,28.56-25.8,57.24-38.8,85.82-6,13.2-11.88,26.47-17.37,39.9-1.24,3.02-5.82,19.76-8.85,20.3-8.16,1.51-16.4,2.94-24.63,4.42"/><path id="q" d="m546.59,798.72c-6.97.91-15.64-.94-23.02-1.67,1.47-14.09,2.93-28.19,4.4-42.28,1.18-11.39-.3-28.54,4.25-39.15,10.84-25.29,20.88-50.92,31.94-76.11,11.21-25.52,21.98-51.25,33.77-76.51,8.4-18,15.24-35.21,38.53-29.92-14.28,43.85-29.51,87.39-44.09,131.14-8.17,24.52-16.69,48.92-24.71,73.49-6.32,19.44-13.02,44.27-21.05,61.06"/><path id="r" d="m633.65,98.33c90.11,28.67,102.78,131.87,102.78,212.87-8.07-9.99-22.67-12.9-34.76-13.9-3.7-.31-24.85,4.16-25.29,3.1-11.12-26.89-22.24-53.78-33.37-80.67-14.1-34.1-28.21-68.19-42.31-102.29-2.12-5.12-8.99-13.57-2.16-16.3,11.38-4.53,23.29-6.45,35.13-2.81"/><path id="s" d="m633.65,98.33c11.82,1.12,22.24,15.63,28.93,24.99,12.03,16.84,18.92,35.85,24.77,55.51,5.2,17.46,8.3,36.93,9.31,55.1.53,9.59,1.58,19.3,1.58,28.9,0,6.21,3.83,30.09,0,34.32-1.82,2.01-21.64,3.77-22.14,2.55-7.39-17.87-14.78-35.74-22.17-53.61-19.3-46.65-38.59-93.3-57.89-139.95-4.42-10.73,31.65-9.65,37.64-7.82"/><path id="t" d="m532.54,798.72c50.75-154.84,108.24-309.78,141.3-469.61,7.97-38.55,2.27-80.5-1.97-119.14-4.03-36.76-20.12-79.9-48.34-104.59-13.94-12.2-30.78-19.79-49.43-20.5-8.29-.32-16.72,1.06-24.15,4.78-10.47,5.24-8.68,16.59-10.01,27.05-5.46,42.53-6.02,86.47-8.75,129.23-10.19,159.44-19.43,319.16-26.22,478.77-.74,17.46-1.21,34.94-2.24,52.38-.4,6.83-4.8,17.88,3.18,18.73,8.22.84,20.5,1.97,26.66,2.88"/><path id="u" d="m510.64,796.48c5.96-160.77,6.88-321.49,16.22-482.15,2.26-38.85,5-77.66,7.39-116.5,1.23-19.96,2.67-39.88,4.09-59.83.94-13.25-2.7-44.56,13.58-49.22,8.18-2.34,14.6-3.93,23.31-3.93s16.93,13.03,21.58,19.11c11.65,15.22,17.85,34.83,21.57,53.44,7.93,39.68,9.53,80.12,8.34,120.53-2.27,76.86-14.43,155.82-29.63,231.13-16.39,81.25-34.18,162.17-55.81,242.2-3.64,13.47-7.28,26.94-10.92,40.4-2.81,10.37-9.5,5.72-19.72,4.78"/><path id="v" d="m532.54,798.72c-7.68-.75-15.35-1.49-23.02-2.24,5.4-35.2,12.92-70.42,23.16-104.56,5.3-17.65,10.16-35.42,16.16-52.85,1.78-5.16,4.42-17.91,9.83-20.08,7.18-2.87,14.65-2.66,22.18-1.4,16.93,2.82,3.11,23.62-.09,34.26-4.87,16.21-10.44,32.19-15.64,48.3-5.11,15.84-10.52,31.57-15.48,47.46-4.85,15.59-8.7,37.84-17.1,51.13"/><path id="w" d="m528.05,798.15c-5.81-.56-11.61-1.12-17.42-1.68,2.97-14.42,3.88-30.31,7.3-45.26,4.64-20.26,10.11-40.32,15.4-60.41,5.06-19.22,10.52-38.48,17.18-57.21,5.16-14.52,9.85-16.85,24.15-16.85-6.97,29.86-14.27,59.6-21.48,89.39-4.08,16.84-8.68,33.53-13.11,50.28-3.15,11.95-5.86,31.82-12.01,41.76"/><path id="x" d="m581.96,85.41c91.91,19.35,94.69,142.09,94.92,216.23-16.84-14.07-52.81-20.33-71.88-7.29-14.93-39.78-27.57-80.57-39.47-121.35-6.17-21.16-12.42-42.33-18.84-63.41-3.76-12.34-5.02-17.9,8.88-22.49,8.23-2.7,20.38-2.36,26.4-1.68"/><path id="y" d="m576.91,84.85c40.55,26.08,46.51,86.14,48.86,130.01,1.14,21.18,1.13,42.27,1.13,63.48,0,7.72.27,7.65-5.62,10.39-5.29,2.47-11.15,2.42-16.28,5.62-14.54-38.75-26.97-78.47-38.55-118.2-6.15-21.1-12.51-42.14-18.74-63.22-3-10.15-8.49-17.54,2.24-23.59,8.06-4.53,18.03-4.49,26.97-4.49"/><path id="z" d="m416.85,789.72c-47.57-67.38-93.78-135.4-137.92-205.08-40.64-64.14-86.1-141.1-95.79-217.48-12.24-96.48,31.87-202.58,129.24-234,41.92,182.17,83.85,364.34,125.77,546.53,9.56,41.55,19.12,83.1,28.68,124.65-15.59-4.35-36.46-6.93-49.98-14.59"/><path id="aa" d="m345.52,622.92c20.11,31.05,40.21,62.09,60.32,93.14,13.21,20.4,26.43,40.8,39.64,61.21,5.86,9.04,11.1,22.13,21.36,27.06-13.36-3.75-26.71-7.5-40.07-11.26-11.8-3.32-14.38-9.19-21.14-19.35-13.83-20.76-28.66-40.98-43.18-61.28-13.34-18.66-25.77-37.93-38.62-56.92-5.53-8.17-16.64-16.59-9.19-25.86,6.58-8.23,21.71-8.23,30.89-6.76"/><path id="ab" d="m311.82,133.16c-15.45,42.12-35.5,82.79-55.55,122.89-4.71,9.44-20.37,52.91-30.05,51.93-21.72-2.18-36.54,12.75-45.26,30.74,3.85-91.3,40.94-172.58,130.86-205.57"/><path id="ac" d="m430.33,794.23c-35.43-74.01-74.94-145.84-111.95-219.06-18.68-36.96-36.39-74.1-52.65-112.18-14.9-34.9-29.78-72.58-33.92-110.52-8.89-81.29,16.9-164.57,78.21-219.92,14.37-12.97,32.78-20.8,50.93-26.63,8.84-2.84,22.27-3.41,23.46,6.55,3.51,29.46,7.02,58.92,10.53,88.39,23.68,198.72,47.36,397.43,71.04,596.18.29,2.44.58,4.87.87,7.3-12.1-3.41-24.24-7.49-36.51-10.1"/><path id="ad" d="m458.41,795.34c-35.04-74.21-74.95-145.82-111.95-219.05-18.75-37.1-36.33-74.51-52.65-112.74-14.81-34.68-29.8-72.26-33.92-109.97-8.89-81.27,16.86-165.09,78.21-220.48,14.37-12.98,32.61-20.87,50.93-26.1,9.04-2.58,22.24-4.15,23.46,6.03,3.51,29.46,7.02,58.92,10.53,88.39,23.68,198.72,47.36,397.43,71.04,596.18.29,2.44.58,4.87.87,7.3-12.11-3.25-24.25-7.09-36.51-9.57"/><path id="ae" d="m301.71,542.58c-1.41-15.71,46.55-20.44,51.81-8.52,12.7,28.82,25.4,57.64,38.11,86.46,26.65,60.48,57.7,119.97,75.21,183.79-6.44-1.81-33.67-5.29-36.27-10.8-6.43-13.61-13.13-26.95-20.14-40.27-12.5-23.73-24.89-47.51-37.5-71.18-11.86-22.24-23.84-44.39-35.29-66.85-11.59-22.69-20.79-52.83-35.91-72.61"/><path id="af" d="m464.59,796.48c-11.27.63-29.91-50.62-35.58-61.48-11.2-21.43-21.85-43.16-33.35-64.45-25.19-46.63-49.28-93.83-72.61-141.43,8.12-2.19,17.8-1.41,25.55,1.69,6.16,2.45,6.71,7.34,9.38,13.41,13.68,31.04,27.37,62.09,41.05,93.13,15.4,34.94,30.8,69.89,46.2,104.83,6.88,15.56,19.54,39.18,19.35,54.27"/><path id="ag" d="m361.8,105.63c7.05.36,14.1.72,21.15,1.08,1.98.1,2.57,16.82,2.8,18.99,1.65,15.29,2.43,26.35-1.12,41.41-6.66,28.32-13.34,56.51-21.97,84.32-3.99,12.87-8.55,25.93-11.82,38.99-1.11,4.42-40.43,4.88-45.85,5.38-26.29,2.46-51.16-4.73-74.62,12.59-4.04-16.76,4.05-44.4,7.59-62.07,4.49-22.45,14.42-42.39,25.11-62.43,20.35-38.16,58.15-65.77,98.72-78.26"/><path id="ah" d="m383.71,107.88c1.44,12.97,2.88,25.93,4.32,38.89,1.18,10.6-4.56,25.31-6.99,35.63-5.72,24.31-11.96,48.35-19.36,72.21-3.4,10.96-6.34,22.03-9.97,32.93-2.88,8.64-24.64,6.19-32.99,6.97-20.09,1.88-40.08-1.21-59.7,2.07,6.71-40.25,15.3-78.01,36.51-113.45,10.79-18.04,23.83-33.43,39.73-47.05,14.95-12.82,32.76-18.51,48.45-28.21"/><path id="ai" d="m446.06,795.34c-25.53-76.6-55.13-151.5-82.52-227.4-14.2-39.36-29.09-78.53-42.18-118.27-12.36-37.54-26.17-77.13-29.83-116.68-6.82-73.63,10.36-175.19,73.08-222.87,12.97-9.86,35.74-22.63,52.8-20.5,6.55.82,27.29,2.37,27.62,11.29.99,26.45,1.99,52.91,2.98,79.36,7.62,203.02,15.24,406.03,22.86,609.07.15,4.06.3,8.11.46,12.17-8.43-2.07-16.85-4.12-25.27-6.19"/><path id="aj" d="m469.64,795.91c-25.58-76.74-55-151.86-82.7-227.83-27.68-75.93-64.6-156.45-72.12-237.68-3.73-40.35,2.36-82.81,13.56-121.7,10.23-35.49,28.31-77.41,60.63-98.54,15.68-10.25,34.71-21.21,54.23-19.69,6.76.53,25.07,2.91,25.4,11.55,1.02,27.12,2.03,54.23,3.05,81.35,7.6,202.53,15.2,405.06,22.81,607.59.14,3.71.28,7.41.42,11.12-8.43-2.04-16.85-4.08-25.28-6.16"/><path id="ak" d="m343.27,512.27c25.21-16.03,49.92-4.81,70.2,11.8,7.52,6.16,12.52,8.51,14.25,17.78,2.94,15.78,5.89,31.56,8.84,47.34,13.06,70,32.29,141.03,34.77,212.33l-20.66-5.05c-7.16-1.75-6.74-7.38-9.09-14.29-4.84-14.26-9.89-28.43-14.99-42.6-9.26-25.73-18.97-51.21-28.94-76.68-9.86-25.2-19.79-50.34-29.29-75.68-8.93-23.82-14.71-52.93-25.09-74.95"/><path id="al" d="m470.76,796.48c-6.34-7.52-8.5-22.38-11.79-32.01-3.98-11.63-7.9-23.29-12.12-34.83-9.55-26.13-19.25-52.19-29.13-78.19-18.46-48.55-37.52-96.68-54.23-145.89,24.03-4.56,38.36,8.94,55.6,23.31,16.19,13.49,14.96,46.91,18.66,66.76,8.18,43.86,16.37,87.72,24.55,131.57,3.91,20.95,12.41,48.55,8.46,69.29"/><path id="am" d="m406.18,91.03c10.07-3.07,24.89-1.24,33.98,4.21,7.29,4.37-6.59,28.73-9.83,36.55-10.99,26.51-24.29,51.92-36.67,77.79-11.48,24-24.07,48.08-37.39,71.11-1.7,2.93-3.51,5.77-4.84,8.88-1.68,3.91-2.65.08-5.9.28-6.05.38-12.79-1.91-19.1-1.68-11.81.43-26.4,2.77-36.51,8.99,7.18-77.91,25.12-185.43,116.26-206.13"/><path id="an" d="m429.76,91.59c3.84,1.03,7.64,2.42,11.23,4.21,5.95,2.97-3.11,17.72-5.48,23.46-10.32,24.88-22.01,48.82-33.62,73.1-11.48,23.99-24.13,47.23-36.35,70.84-3.03,5.87-5.97,11.78-9.28,17.5-3.48,6.01-3.48,10.72-9.9,9.44-10.94-2.18-21.24-2.08-32.3-.84,5.14-41.67,10.9-81.93,29.17-120.19,8.68-18.17,19.89-35.47,34.81-49.2,16-14.72,33.68-21.24,51.73-28.31"/><path id="ao" d="m461.22,796.48c-39.2-158.13-87.64-316.29-109.55-478-5.32-39.22,3.16-80.02,9.51-118.64,6.2-37.69,26.54-78.62,56.54-102.36,13.66-10.81,34.2-18.48,51.93-16.27,8.36,1.04,18.22,2.78,24.43,8.99,6.35,6.35,4.69,17.85,4.78,26.44.45,43.8.56,87.59.56,131.39,0,160.91-1.75,322.03-5.21,482.89-.36,16.99-.96,33.98-.96,50.98,0,10.02,3.04,13.33-7.1,13.69-8.31.33-16.61.67-24.92.9"/><path id="ap" d="m476.94,795.91c-19.96-80.5-39.9-161-58.95-241.72-18.47-78.32-36.61-157.34-44.91-237.45-3.81-36.83.08-80.29,9.63-116.1,10.4-39,22.53-82.31,57.72-106.79,12.63-8.79,30.95-15.06,45.5-8.43,15.52,7.08,12.81,19.89,12.97,35.64.44,42.98.63,85.95.51,128.93-.46,163.44-1.9,327.02-5.42,490.45-.26,12.03-.76,24.08-.76,36.11,0,3.19,2.04,16.74,0,18.81-1.87,1.91-13.28.47-16.29.57"/><path id="aq" d="m487.06,779.04c.52,2.09,4.17,13.09,3.37,14.61-1.82,3.43-10.26,2.07-14.88,2.25-8.27.31-14.03,3.64-16.34-4.68-7.5-27.01-14.06-54.34-20.72-81.57-12.97-52.95-26.21-105.92-40.17-158.63,5.55-2.02,10.58-5.93,17.41-6.18,3.91-.14,11.8.71,15.17,2.81,5.35,3.32,4.97,7.54,6.6,13.83,6.19,23.84,12.14,47.82,17.71,71.81,6.01,25.88,12.3,51.7,18.41,77.56,4.64,19.67,15.62,49.15,13.45,68.22"/><path id="ar" d="m490.42,795.34c-2.16.09-12.62,1.67-13.11-.17-1.74-6.62-3.49-13.25-5.23-19.87-2.54-9.66-4.56-19.46-7.04-29.15-6.23-24.39-12.07-48.87-17.94-73.35-10.24-42.69-20.45-85.43-31.38-127.95,5.42.53,11.26.85,16.29,3.37,6.6,3.3,7.98,22.95,9.84,30.77,6.5,27.3,13.21,54.56,19.8,81.84,10.77,44.57,20.18,89.77,28.77,134.47"/><path id="as" d="m458.41,81.48c7.33.29,43.99.98,38.21,15.74-7.84,20.04-15.68,40.07-23.52,60.11-17.06,43.61-34.13,87.22-51.2,130.83-19.11-10.48-54.95-11.69-71.89,3.37.87-74.6,19.21-195.18,108.4-210.06"/><path id="at" d="m371.92,281.99c4.13-38.11,5.18-82.85,21-118.44,15.46-34.78,35.35-76.33,78.23-81.11,7.71-.86,21.48,3.44,24.34,9.15,3.33,6.65-3.37,17.15-6.71,25.69-10.1,25.82-20.21,51.64-30.31,77.47-12.19,31.14-24.37,62.29-36.56,93.43-13.67-8.35-34.5-8.05-49.98-6.18"/><path id="au" d="m479.75,797.58c-29.88-161.13-52.63-321.41-57.83-485.37-1.19-37.58,1.35-77.1,8.24-114.02,7.49-40.1,16.05-82.28,48.26-110.1,9.36-8.08,40.31-20.5,46.13-3.04,6,17.99,5.18,37.59,5.18,56.35,0,40.56-1.95,81.01-3.93,121.5-8.04,164.34-17.39,328.64-26.33,492.93-.88,16.16-1.61,32.33-2.32,48.49-5.71-2.28-11.51-4.99-17.38-6.73"/><path id="av" d="m442.13,265.71c3.34-41.16,7.12-81.48,20.26-120.88,6.53-19.59,15.79-35.56,29.06-51.32,4.99-5.93,13.81-10.6,21.08-13.02,10.04-3.35,13.12,2.2,14.59,12.96,5.19,38.01,3.75,78.52,1.36,116.76-2.66,42.52-4.29,85.12-6.34,127.68-7.27,150.83-16.19,301.62-24.41,452.41-29.1-159.54-56.17-320.78-56.17-483.46,0-13.72.16-27.39.57-41.12"/><path id="aw" d="m496.04,529.13c14.25,19.01,13.78,33.38,12.75,56.86-1.12,25.55-2.89,51.08-4.12,76.63-2.27,47-7.71,94.68-7.5,141.71-2.82-1.13-16.42-4.61-16.95-7.25-1.89-9.3-3.79-18.59-5.68-27.89-2.85-14-5.47-28.05-7.91-42.12-5.47-31.6-10.44-63.24-15.82-94.84-5.09-29.92-8.65-60.34-12.33-90.47-1.97-16.15,2.94-15.41,18.48-18.53,11.71-2.24,30.18,1.47,39.09,5.99"/><path id="ax" d="m510.08,556.64c-2.82,77.94-8.81,155.75-12.35,233.65-10.94-59.02-21.36-118.03-30.39-177.38-1.48-9.71-14.22-89.05-9.77-89.69,10.18-1.46,30.49-.72,39.03,5.9,7.22,5.59,10.75,19.31,13.48,27.5"/><path id="ay" d="m422.47,264.58c3.88-40.1,8.32-78.66,19.68-117.44,9.13-31.16,35.18-78.48,74.96-69.31,22.66,5.22,12.14,82.28,9.27,98.32-6.71,37.51-13.29,75.6-22.47,112.58-21.79-9.6-60.75-13.53-82.01-.57-.19-7.72.76-16.32.56-23.59"/><path id="az" d="m520.19,78.11c11.77,13.23,9.55,38.25,9.55,54.79,0,18.54-.26,37.04-.68,55.57-.76,33.23-5.7,67.17-4.38,100.26-16.7-2.79-33.47-5.04-50.4-5.82-15.8-.72-38.03-2.22-52.38,5.25-.23-37.5,5.38-75.75,12.78-112.78,8.51-42.71,34-107.07,85.48-97.28"/><path id="ba" d="m442.13,265.71c2.99-36.93,5.04-75.26,16.86-110.69,6.12-18.35,12.13-37.35,24.81-52.42,7.84-9.32,30.09-33.1,40.34-18.87,9.08,12.61,5.62,40.39,5.62,55.04,0,18.92-.41,37.81-.84,56.72-.7,30.92-5.45,62.45-4.22,93.24-26.08-7.07-56.39-7.21-83.12-5.06-.02-6.08.42-11.97.54-17.97"/><path id="bb" d="m514.01,798.72c41.55-157.65,76.93-317.46,89.83-480.31,3.02-38.1,3.09-76.75-.91-114.77-4.29-40.8-11.37-82.33-40.63-113.06-6.2-6.5-15.24-9.46-23.59-12.1-3.71-1.17-8.71-1.21-12.55-.62-7.42,1.14-6,4.94-7.13,11.69-2.97,17.79-5.89,35.52-7.93,53.45-4.52,39.6-6.65,79.51-7.76,119.34-4.6,164.69-3.84,329.73-5.61,494.47-.17,15.84-.57,31.68-.57,47.52,5-1.64,13.88-4.22,16.84-5.62"/><path id="bc" d="m512.89,798.72c3.73-164.18,4.25-328.49,6.09-492.69.85-75.83,2.6-153.03,15.82-227.89,38.2,6,56.88,50.35,62.47,84.49,6.9,42.19,9.55,84.22,8.32,126.97-2.19,76.86-14.44,154.81-28.35,230.31-8.59,46.63-17.54,93.19-28.25,139.38-5.21,22.48-10.16,45.03-15.9,67.38-4.24,16.49-8.47,32.97-12.7,49.46-1.44,5.45-3.08,21.05-7.54,22.62"/><path id="bd" d="m580.85,524.08c-7.47,49.16-18.67,97.43-31.45,145.47-6.31,23.74-12.94,47.38-19.27,71.12-3.49,13.09-6.99,26.17-10.51,39.24-1.15,4.29-1.95,15.54-5.06,18.81-2.95,3.12-13.2,4.26-17.41,5.62.49-64.39-1.68-128.93-1.68-193.36,0-14.86-.18-29.73,0-44.58.1-7.99-4.17-43.61,2.57-46.98,28.1-14.05,57.64-6.86,82.81,4.65"/><path id="be" d="m580.85,524.08c-7.16,47.08-16.76,93.54-28.53,139.68-5.81,22.75-11.66,45.54-18.08,68.13-3.08,10.86-6.53,21.62-9.68,32.46-2.97,10.21-4.59,27.03-11.11,34.94v-176.42c0-32.16.53-64.31.96-96.46.13-9.67-2-10.72,6.9-13.56,6.64-2.12,16.92-1.51,23.8-.98,12.55.94,27,5.25,35.73,12.21"/><path id="bf" d="m450.55,955.98c-3.4,14.22,23.77,8.71,32.39,9.05,7.15.28,47.02,8.64,44.55-5.12-13.45-.59-26.89-1.18-40.34-1.76-11-.5-26.84,1.07-36.6-2.17" style="fill:#84442f;"/><path id="bg" d="m520.76,915.53c.54-11.83,1.07-23.67,1.61-35.5.75-16.63.13-13.96-16.78-15.04-.34,10.11-.68,20.21-1.02,30.32-.2,6.04,3.42,22.42-6.28,19.67.68-16.07,1.37-32.13,2.05-48.2.42-9.84,3.86-7.36,14.24-6.85,7.83.39,14.27-1.81,13.93,6.05-.71,16.71-1.42,33.42-2.13,50.12-1.71-.17-3.98.07-5.59-.57" style="fill:#c1d8f1;"/><path id="bh" d="m520.76,915.53c.54-11.83,1.07-23.67,1.61-35.5.75-16.63.13-13.96-16.78-15.04-.34,10.11-.68,20.21-1.02,30.32-.2,6.04,3.42,22.42-6.28,19.67.68-16.07,1.37-32.13,2.05-48.2.42-9.84,3.86-7.36,14.24-6.85,7.83.39,14.27-1.81,13.93,6.05-.71,16.71-1.42,33.42-2.13,50.12-1.71-.17-3.98.07-5.59-.57" style="fill:none; stroke:#000; stroke-linecap:square; stroke-miterlimit:10; stroke-width:1.1px;"/><path id="bi" d="m477.51,881.83c.87,6.65,2.4,10.19,4.49,14.04,1.47,2.7,3.34,4.11,4.49,8.43.54,2.03,2.38,10.35,1.12,12.35-2.52,4.02-23.56,6.01-28.64,7.31,1.72-8.41,9.35-22.08,8.93-29.69-.34-6.22-.67-18.4,9.61-12.45"/><path id="bj" d="m477.51,881.83c.87,6.65,2.4,10.19,4.49,14.04,1.47,2.7,3.34,4.11,4.49,8.43.54,2.03,2.38,10.35,1.12,12.35-2.52,4.02-23.56,6.01-28.64,7.31,1.72-8.41,9.35-22.08,8.93-29.69-.34-6.22-.67-18.4,9.61-12.45" style="fill:none; stroke:#000; stroke-linecap:square; stroke-miterlimit:10; stroke-width:.9px;"/><path id="bk" d="m465.71,910.47c-.75,5.49.81,13.92-6.74,13.48,1.17-7.84,3.1-16.23,6.18-23.59.18,3.38.37,6.76.56,10.1"/><path id="bl" d="m467.96,885.21c6.09,2.05,8.37,10.03,1.13,11.79-.37-3.91-.75-7.86-1.13-11.78"/><path id="bm" d="m472.45,889.13c-1.91-.39-2.08.82-3.36-.57-.48,2.48-.04,3.43.56,6.18,3.55-2.1,2.14-1.79,2.25-3.37,1.23-1,1.05-1.34.56-2.24" style="fill:#ffb8bd;"/><path id="bn" d="m479.75,896.42c-1.41,4.8-1.41,9.63-1.68,14.61,1.5-.56,2.99-1.12,4.49-1.68-2.95,4.82-4.85,11.18-11.24,11.79,1.12-3.74,2.25-7.48,3.38-11.23-2.9.17-5.21-1.57-6.18-1.69,8.16,2.51,8.81-7.7,11.23-11.78"/><path id="bo" d="m482,913.85c.54-11.83,1.08-23.66,1.62-35.49.76-16.63.13-13.96-16.78-15.05-.34,10.11-.68,20.21-1.02,30.32-.2,6.04,3.42,22.41-6.28,19.67.71-16.71,1.42-33.41,2.13-50.12.42-9.97,15.11-4.87,23.05-4.47,7.95.4,4.94,7.74,4.61,15.56-.31,7.33,2.74,44.37-7.33,39.62" style="fill:#c1d8f1;"/><path id="bp" d="m482,913.85c.54-11.83,1.08-23.66,1.62-35.49.76-16.63.13-13.96-16.78-15.05-.34,10.11-.68,20.21-1.02,30.32-.2,6.04,3.42,22.41-6.28,19.67.69-16.07,1.37-32.13,2.05-48.2.5-11.62,9.88-7.06,20.62-6.52,9.54.48,7.67,2.86,7.25,12.69-.43,10.17-.87,20.35-1.3,30.52-.24,5.69,2.37,15.08-6.16,12.63" style="fill:none; stroke:#000; stroke-linecap:square; stroke-miterlimit:10; stroke-width:1.1px;"/><path id="bq" d="m507.83,880.73c6.24,3.67,2.41,6.84,3.37,11.8.55,2.86,2.57,3.28,3.31,6.97,2.04,10.23,7.23,16.11-3.58,19.15-9.23,2.58-11.74-1.18-19.76-6.52-1.85-1.23,1.27-8.92,1.75-10.9,1.27-5.32,6.32-2.61,7.62-5.88,2.04-5.15-4.5-17.33,7.31-14.59" style="fill:#ff7f00;"/><path id="br" d="m507.83,880.73c5.86,3.45,2.32,6.26,3.37,10.67.35,1.48-1.26,1.62-1.12,2.81.3,2.55,3.62,1.22,4.07,3.48,1.23,6.13,7.11,18.05.16,20.01-11.06,3.11-11.6,2.12-21.21-4.29-6.19-4.12-.13-15.55,5.69-17.49,4.05-1.35-3.64-19.31,9.05-14.63" style="fill:none; stroke:#000; stroke-linecap:square; stroke-miterlimit:10; stroke-width:.9px;"/><path id="bs" d="m511.77,886.31c-13.55.03-3.01,18.03,0,0"/><path id="bt" d="m508.96,891.4c.35-1.02,1.75-.84.56-2.81-3.54.45-4.25,2.22-1.69,5.62,2.33-.67,1.14-1.71,1.12-2.81" style="fill:#ffb8bd;"/><path id="bu" d="m477.51,907.66c-.48,14.44-.96,28.88-1.44,43.31-.4,12.18-2.31,9.47-15.03,9.15-11.28-.28-10.64.38-10.17-10.19.64-14.28,1.28-28.56,1.92-42.84,7.42.37,18.45,2.44,24.72.57"/><path id="bv" d="m476.38,932.39c.19-3.37.37-6.75.56-10.11-6.46-.29-12.92-.59-19.37-.88-7.81-.35-5.51,3.01-5.9,10.43,7.42.3,18.45,2.38,24.72.54" style="fill:#84442f;"/><path id="bw" d="m476.94,912.18c.19-1.31.38-2.62.57-3.94-6.07-.27-26.15-5.15-25.28,3.38,7.15.3,20.12,2.04,24.71.57" style="fill:#84442f;"/><path id="bx" d="m529.19,909.94c-.56,16.74-1.12,33.48-1.68,50.22-.19,5.67-21.49,1.95-26.03,1.8-4.34-.15-29.85,2.29-29.57-4.05.74-16.74,1.49-33.48,2.23-50.21,14.42.7,44.03,7.09,55.04,2.24"/><path id="by" d="m528.05,934.63c.19-3.56.37-7.12.56-10.67-12.12-.49-24.24-.99-36.35-1.48-14.27-.59-18.47-4.95-19.25,9.91,18.34.74,36.69,1.51,55.03,2.24" style="fill:#e3622d;"/><path id="bz" d="m528.62,914.42c.19-1.5.37-3,.56-4.49l-55.05-2.25c-1.48,8.57,19.62,5.5,25.73,5.81,7.37.33,23.93,3.11,28.75.9" style="fill:#e3622d;"/><path id="ca" d="m449.98,961.03c1.97-13.1,1.58-26.77,2.17-39.99.1-2.17-.95-12.29.63-13.93,2.03-2.1,17.32.46,20.61.54,12.49.33,24.98,1.24,37.46,1.87,14,.71,19.08-3.43,18.44,10.86-.54,11.95,1.86,28.69-1.8,40.08-2.47,7.67-2.33,6.22-11.27,5.87-9.66-.38-63.68,2.79-65.67-5.31" style="fill:none; stroke:#000; stroke-linecap:square; stroke-miterlimit:10; stroke-width:1.3px;"/><path id="cb" d="m465.15,864.43c-13.59-21.5-27.18-42.99-40.77-64.49-1.62-2.57-21.07-30.81-10.34-24.82,5.4,3.01,11.06,17.49,14.27,22.57,8.83,13.97,17.67,27.95,26.5,41.92,2.93,4.64,14.25,16.9,14.27,22.57.01,3.95-1.77,3.78-3.93,2.21"/><path id="cc" d="m482.56,862.76l30.79-69.89c1.18-2.68,13.37-33.94,15.27-23.34.78,4.34-8.16,18.14-9.91,22.21-6.56,15.2-13.13,30.39-19.69,45.6-3.96,9.17-7.92,18.34-11.88,27.51-1.99,4.55-4.54-1.41-4.58-2.07"/><path id="cd" d="m520.19,78.11c51.65-5.65,75.46,56.31,79.91,98.63,2.87,27.3,4.74,53.95,5.62,81.38.35,11.09,2.07,26.24-.72,36.23-25.41-17.03-73.15-17.83-101.1-5.62-4.21-28.03.3-60.46,2.28-88.82,1.48-21.22,3.09-42.35,5.73-63.46,2.18-17.44,10.78-41.52,8.27-58.34"/><path id="ce" d="m519.62,262.33c1.35-61.26,4.49-123.79,15.16-184.22,49.08,7.7,59.94,69.02,66.51,109.24,3.86,23.63,3.93,48.03,4.53,71.9.27,10.76,1.86,25.45-.83,35.1-20.62-17.11-60.67-14.18-85.38-10.11.03-7.3.03-14.61.03-21.91"/><path id="cf" d="m416.85,789.72c8.06,8.01,21.9,10.2,32.56,12.66,8.02,1.86,33.11,10.89,28.66-1.99-5.15-14.9-60.45-31.45-61.22-10.11" style="fill:none; stroke:#000; stroke-linecap:square; stroke-miterlimit:10; stroke-width:2.7px;"/><path id="cg" d="m416.85,789.72c8.06,8.01,21.9,10.2,32.56,12.66,8.02,1.86,33.11,10.89,28.66-1.99-5.85-16.9-63.53-27.7-61.22-10.67"/><path id="ch" d="m416.85,789.72c-47.57-67.38-93.78-135.4-137.92-205.08-40.64-64.14-86.1-141.1-95.79-217.48-10.14-79.99,17.61-165.69,84.85-213.39,15.48-10.98,33.67-16.8,49.53-26.9,13.71-8.73,27.91-18.37,44.28-21.24,5.62-.99,7.15-.03,12.36-2.25,3.92-1.67,7.31-4.42,11.23-6.18,7.11-3.18,14.43-4.59,21.91-6.46,4.26-1.06,8.17-.84,12.35-.84,7.59,0,10.51-1.15,17.97-3.93,11.36-4.23,22.51-4.49,34.26-4.49,7.25,0,8.87,1.77,15.73,0,8.58-2.22,17-6.04,26.12-4.21,14.25,2.85,27.18-1.29,40.76,7.19,6.67,4.17,22.8.02,31.69,1.8,6.64,1.33,12.21,3.17,18.25,6.18,7.36,3.67,9.4,3.09,16.85,3.65,12.4.93,23.73,5.41,34.82,10.95,4.07,2.03,7.29,4.68,10.95,7.3,3.74,2.67,8.37.65,12.63,2.25,8.24,3.1,15.49,6.37,23.03,10.95,7.79,4.74,14.81,9.99,21.91,15.73,7.69,6.21,16.19,8.74,24.54,14.02,74.63,47.27,94.65,125.42,93.42,209.09-.57,38.28-21.61,78.66-38.76,111.79-19.04,36.78-41.06,71.51-64.19,105.83-39.01,57.87-82.03,113.33-125.93,167.55-11.85,14.63-23.5,29.39-35.08,44.24-5.63,7.22-27.81,1.57-36.11,1.13-41.89-2.21-83.79-4.42-125.68-6.63" style="fill:none; stroke:#000; stroke-linecap:square; stroke-miterlimit:10;"/><path id="ci" d="m576.91,797.04c-13.97,17.89-27.93,35.78-41.89,53.67-2.01,2.58-9.45,15.57-12.99,15.34-14.7-.94-15.63,0-21.96-12.64-17.03-34.06-43.94-61.7-83.22-63.11,12.88-29.63,164.28-21.46,160.63,6.75" style="fill:none; stroke:#000; stroke-linecap:square; stroke-miterlimit:10;"/><path id="cj" d="m576.91,797.04c-24.31-17.83-69.6-15.17-98.29-15.17-16.6,0-33.71-.57-49.92,3.5-8.29,2.08-10.28,7.18-15.5-.29-5.71-8.18-11.43-16.36-17.14-24.54,12.9-8.68,32.4-9.03,47.4-9.75,18.3-.87,36.52-1.3,54.82-.36,30.15,1.55,75.87-.11,101.1,19.1-7.3,9.17-14.6,18.35-21.91,27.53" style="fill:none; stroke:#000; stroke-linecap:square; stroke-miterlimit:10;"/></svg>