<?xml version="1.0" encoding="UTF-8"?>
<svg id="a" data-name="svg2" xmlns="http://www.w3.org/2000/svg" width="1024" height="1024" viewBox="0 0 1024 1024">
  <g id="b" data-name="layer1">
    <g id="c" data-name="g4311">
      <path id="d" data-name="path4183" d="m154.02,113.94l749.96,27.27c-17.13,265.18-41.87,413.67-47.21,796.52-262.23-27.13-518.97-41.47-763.96-28.37L154.02,113.94Z" style="fill: none; stroke: #000; stroke-width: 3.6px;"/>
      <path id="e" data-name="path4277" d="m254.21,120.05l-78.4,788.21" style="fill: none; stroke: #000; stroke-width: 4.5px;"/>
      <path id="f" data-name="path4279" d="m366.1,121.91l-78.4,788.21" style="fill: none; stroke: #000; stroke-width: 4.5px;"/>
      <path id="g" data-name="path4281" d="m473.72,125.46l-78.4,788.21" style="fill: none; stroke: #000; stroke-width: 4.5px;"/>
      <path id="h" data-name="path4283" d="m581.77,125.89l-78.4,788.21" style="fill: none; stroke: #000; stroke-width: 4.5px;"/>
      <path id="i" data-name="path4285" d="m686.02,131.87l-78.4,788.21" style="fill: none; stroke: #000; stroke-width: 4.5px;"/>
      <path id="j" data-name="path4287" d="m796.58,136.1l-78.4,788.21" style="fill: none; stroke: #000; stroke-width: 4.5px;"/>
      <path id="k" data-name="path4289" d="m145.43,191.45c254.21-16.35,505.65-12.59,754.19,12.15" style="fill: none; stroke: #000; stroke-width: 2.9px;"/>
      <path id="l" data-name="path4291" d="m139.8,253c254.21-16.35,505.65-12.59,754.19,12.15" style="fill: none; stroke: #000; stroke-width: 2.9px;"/>
      <path id="m" data-name="path4293" d="m135.76,313.4c254.21-16.35,505.65-12.59,754.19,12.15" style="fill: none; stroke: #000; stroke-width: 2.9px;"/>
      <path id="n" data-name="path4295" d="m131.41,376c254.21-16.35,505.65-12.59,754.19,12.15" style="fill: none; stroke: #000; stroke-width: 2.9px;"/>
      <path id="o" data-name="path4297" d="m124.5,436.49c254.21-16.35,505.65-12.59,754.19,12.15" style="fill: none; stroke: #000; stroke-width: 2.9px;"/>
      <path id="p" data-name="path4299" d="m123.4,506.66c254.21-16.35,505.65-12.59,754.19,12.15" style="fill: none; stroke: #000; stroke-width: 2.9px;"/>
      <path id="q" data-name="path4301" d="m116.74,580.84c254.21-16.35,505.65-12.59,754.19,12.15" style="fill: none; stroke: #000; stroke-width: 2.9px;"/>
      <path id="r" data-name="path4303" d="m114.23,655.98c254.21-16.35,505.65-12.59,754.19,12.15" style="fill: none; stroke: #000; stroke-width: 2.9px;"/>
      <path id="s" data-name="path4305" d="m101.83,730.34c254.21-16.35,511.08-10.57,759.63,14.17" style="fill: none; stroke: #000; stroke-width: 2.9px;"/>
      <path id="t" data-name="path4307" d="m97.25,805.01c254.21-16.35,512.82-12.82,761.37,11.92" style="fill: none; stroke: #000; stroke-width: 2.9px;"/>
      <path id="u" data-name="path4309" d="m96.53,862.01c254.21-16.35,512.33-14.44,760.88,10.3" style="fill: none; stroke: #000; stroke-width: 2.9px;"/>
    </g>
    <path id="v" data-name="path4155" d="m382.71,614.41s17.07-8.75,26.36-10.54c5.37-1.03,11.15,1.52,16.4,0,8.43-2.44,22.26-14.06,22.26-14.06l24.6-21.67,23.43-22.26s15.56-12.59,17.57-21.67c1.39-6.29-4.74-12.3-4.69-18.74.07-9.09,6.96-17.27,7.03-26.36.05-6.44-3.49-12.42-4.69-18.74-.84-4.45-2.12-8.96-1.76-13.47,1.32-16.26,7.5-31.93,14.06-46.86,3.84-8.74,14.64-24.6,14.64-24.6,0,0,9.58-17.25,16.99-23.43,8.31-6.94,17.17-11.53,27.97-12.3,3.88-.28,52.57-5.86,52.57-5.86,0,0-51.41,11.18-56.53,14.06-6.74,3.79-13.03,8.55-18.45,14.06-6.98,7.09-12.88,15.33-17.72,24.02-5.43,9.74-12.16,19.9-12.45,31.05-.39,15.06,14.64,40.42,14.64,42.76s4.1,31.05,4.1,31.05l-5.86,26.95-3.37,26.36-10.69,14.06-9.96,39.25-31.05,38.66-49.21-7.03-39.25,1.76-18.74-15.82,1.76-.59Z" style="fill-rule: evenodd; stroke: #000; stroke-miterlimit: 3.2; stroke-width: .8px;"/>
    <path id="w" data-name="path4149" d="m581.29,684.7l-202.09-56.23,17.87-6c-8.4-1.56-.29-1.61-15.13-7.54,0,0-39.73,3.39-54.29,1.83-7.77-.83-15.03-5.02-22.85-5.27-8.5-.28-16.71,3.41-25.19,4.1-9.34.76-14.19-1.24-22.85,2.34-3.83,1.59-9.18,5.46-10.54,9.37-2.27,6.49-4.42,11.51-1.17,17.57,3.14,5.86,11.45,7.42,15.23,12.89,26.93,38.92,106.33,45.59,156.39,70.54,57.11,28.47,165.21-30.17,164.61-43.6h0Z" style="fill-rule: evenodd; stroke: #000; stroke-miterlimit: 3.2; stroke-width: .8px;"/>
    <path id="x" data-name="path4151" d="m286.06,670.06s20.94,18.28,33.39,24.02c17.89,8.25,38.33,9.14,57.41,14.06,11.56,2.98,23.2,5.7,34.56,9.37,10.52,3.4,20.2,9.54,31.05,11.72,5.36,1.08,10.94.32,16.4.59,7.45.36,15.22,2.48,22.33,1.37,12.28-1.91,32.73-11.92,32.73-11.92,0,0,9.2-5.35,14.64-6.44,7.85-1.58,16.2-1.84,23.43-5.27,5.15-2.44,15.96-8.89,15.96-8.89l19.19-23.33-2.34-18.16,15.82-36.32,3.26-16.77s-17.48-10.83-25.52-17.21c-8.98-7.13-15.49-17.31-25.19-23.43-6.75-4.25-22.26-8.79-22.26-8.79,0,0-20.22,16.46-24.6,28.12-3.37,8.96-2.42,16.84-5.86,25.77-2.93,7.61-2.87,18.31-10.54,21.09-6.49,2.35-13.76-1.43-20.5-2.93-9.77-2.18-18.79-10.15-28.7-8.79-6.44.89-10.85,7.23-17.28,8.2-7.21,1.09-20.21-3.51-20.21-3.51l-9.37-.59c-3.47-.55-83.06,6.53-89.62,15.82-5.17,7.32-21.18-2.04-26.36,5.27-3.99,5.64,2.93,20.5,2.93,20.5l5.27,6.44Z" style="fill-rule: evenodd;"/>
    <path id="y" data-name="path4153" d="m291.33,648.97l34.56,11.13s9.16-3.83,13.47-2.34c5.23,1.8,11.13,12.3,11.13,12.3,0,0,17.49-7.42,26.36-5.86,5.01.88,12.89,8.2,12.89,8.2,0,0,4.06,6.16,7.03,8.2,6.66,4.59,14.78,7.61,22.85,8.2,4.96.37,14.64-2.93,14.64-2.93,0,0,5.2,10.03,9.96,12.3,10.93,5.21,24.29,1.4,36.32,0,6.77-.79,13.27-3.15,19.92-4.69,8.58-1.99,17.01-6.79,25.77-5.86,3.21.34,5.56,3.94,8.79,4.1,8.26.41,16.37-3.89,23.43-8.2,9.43-5.76,24.02-22.85,24.02-22.85l3.51,13.47s-27.73,20.46-43.05,28.18c-16.08,8.1-31.89,15.6-50.68,18.69-9.87,1.62-19.9,3.67-29.87,2.93-28.71-2.14-55.84-14.08-83.77-21.09-20.3-5.09-41.71-6.92-60.92-15.23-11.93-5.16-32.69-14.85-32.8-21.09-.12-6.76-.27-19.73,6.44-17.57h0Z" style="fill-rule: evenodd; stroke: #000; stroke-linejoin: round; stroke-width: .16px;"/>
    <path id="z" data-name="path4179" d="m971.62,416.2l-303.94-22.64-18.14-17.93h-2.33l337.2,13.91-12.79,26.66Z" style="fill: #fffacd; fill-rule: evenodd; stroke: #000; stroke-linejoin: round; stroke-width: 1.12px;"/>
    <path id="aa" data-name="path4157" d="m564.64,689.26l7.93,3.72s19.54-12,26.88-20.57c7.96-9.29,17.57-32.22,17.57-32.22l1.17-15.82s3.56-13.62,8.79-17.57c3.33-2.52,9.43.69,12.3-2.34,4.06-4.29,1.04-11.81,2.34-17.57,2.67-11.81,5.77-23.71,11.13-34.56,4.1-8.31,12.78-14.1,15.82-22.85,2.05-5.91,1.17-15.82,1.17-18.74s3.51-25.77,3.51-25.77l8.2-35.73s4.1-16.99,4.69-19.33,2.93-31.05,2.93-31.05l-16.69-17.72s-4.15-7.1-4.39-11.57c-.25-4.65,1.24-6.48,3.51-10.54,2-3.58,1.21,2.92,5.27,2.34,4.38-.62,5.15-6.04,8.79-3.51,2.23,1.55,5.17,4.12,7.62,2.93,4.78-2.32,3.9-9.98,4.69-15.23.7-4.63,2.95-10.42,0-14.06-4.15-5.12-15.34-.6-19.33-4.1-4.05-3.55.66-16.3-4.69-16.99-11.39-1.47-19.11,12.84-29.29,18.16-5.68,2.97-17.29,7-17.29,7,4.83,19.66,16.99,38.68,25.49,58.02,0,0,5.6,32.59-1.25,47.03-4.09,8.62-10.65,7.38-16.32,15.06-16.23,21.98-19.33,79.67-19.33,79.67,0,0-9.06,29.76-11.13,45.1-1.02,7.55-.59,22.85-.59,22.85l-20.5,51.55s-7.17,21.78-14.13,30.59c-1.28,1.62-4.87,3.83-4.87,3.83h0Z" style="fill-rule: evenodd; stroke: #000; stroke-linejoin: round; stroke-width: .8px;"/>
    <path id="ab" data-name="path4161" d="m386.49,636.29l6.44,25.77s-8.78-.62-12.3-2.93c-4.08-2.68-7.37-7.05-8.79-11.72-1.08-3.55.59-11.13.59-11.13,2.19-4.42,11.09-11.89,14.06,0h0Z" style="fill: #efcfcb; fill-rule: evenodd; stroke: #000; stroke-linejoin: round; stroke-width: .8px;"/>
    <path id="ac" data-name="path4163" d="m496.94,666.55l-14.06-2.34-1.76-5.86,7.62,1.17,4.69-1.76,3.51,8.79Z" style="fill: #fee192; fill-rule: evenodd; stroke: #000; stroke-linejoin: round; stroke-width: .8px;"/>
    <path id="ad" data-name="path4165" d="m454.17,681.19l2.93-8.79h-8.2l-7.62,5.27,4.1,4.1,8.79-.59Z" style="fill: #fee192; fill-rule: evenodd; stroke: #000; stroke-linejoin: round; stroke-width: .8px;"/>
    <path id="ae" data-name="path4167" d="m529.09,683.67l-1.76-4.69,4.1-1.76,9.96,5.86-2.34,4.1-9.96-3.51Z" style="fill: #fee192; fill-rule: evenodd; stroke: #000; stroke-linejoin: round; stroke-width: .8px;"/>
    <path id="af" data-name="path4169" d="m266.14,609.73c9.42-1.27,26.95-9.37,26.95-9.37,0,0,7.74.93,11.13-.59,6.05-2.7,8.36-10.68,14.06-14.06,7.18-4.25,16.53-3.36,24.02-7.03,6.28-3.08,10.6-9.47,16.99-12.3,6.93-3.07,15.25-1.8,22.26-4.69,6.66-2.74,11.41-9.2,18.16-11.72,7.76-2.9,16.37-2.63,24.6-3.51,7.98-.86,19.92-2.34,24.02-1.76,4.1.59,25.69-1.31,37.49-5.86,6.97-2.69,16.32-5.23,18.74-12.3,2.34-6.84-3.2-14.37-7.03-20.5-5.12-8.2-12.08-15.77-20.5-20.5-6.48-3.64-14.29-4.39-21.67-5.27-9.89-1.19-19.94-.7-29.87,0-13.97.98-28.62.59-41.59,5.86-9.19,3.73-15.51,12.46-24.02,17.57-5.76,3.46-11.49,7.89-18.16,8.79-5.31.72-10.46-3.09-15.82-2.93-13.87.41-27.28,5.48-40.42,9.96-6.87,2.34-13.19,6.07-19.92,8.79-11.57,4.67-24.63,6.17-35.15,12.89-8.15,5.2-15.24,12.4-20.5,20.5-1.48,2.28-1.56,5.26-2.93,7.62-2.79,4.8-9.13,7.52-10.54,12.89-1.16,4.41-.82,10.19,2.34,13.47,2.63,2.73,7.39,2.94,11.13,2.34,4.23-.68,11.13-6.44,11.13-6.44,0,0,4.6,6.7,7.62,9.37,3.28,2.91,6.96,5.67,11.13,7.03,8.37,2.73,17.63,2.93,26.36,1.76h0Z" style="fill-rule: evenodd; stroke: #000; stroke-miterlimit: 3.2; stroke-width: .8px;"/>
    <path id="ag" data-name="path4171" d="m451.25,461.52c-14.93,6.45-32.45,2.36-48.62,4.1-14.88,1.61-29.91,2.62-44.52,5.86-18.39,4.08-36.36,10.09-53.89,16.99-16.5,6.49-30.74,18.94-48.03,22.85-11.43,2.58-35.15,0-35.15,0h0s-23.4,2.69-35.15,3.51c-9.55.67-21.91,7.93-28.7,1.17-7.76-7.72-1.03-22.08,1.17-32.8,1.85-9.02,9.96-25.77,9.96-25.77,0,0-.7-7.96,1.76-10.54,4.41-4.63,18.74-4.1,18.74-4.1l5.27-2.34s19.03-14.21,29.87-18.74c13.33-5.57,27.84-8.18,42.18-9.96,13.18-1.63,26.57-1.27,39.83-.59,11.59.6,22.98,3.34,34.56,4.1,15.2,1,30.47.02,45.69.59,15.84.59,31.62,3.78,47.45,2.93,8.11-.44,16.88-7.98,24.02-4.1,3.92,2.13,3.8,8.09,5.27,12.3,2.2,6.31,7.16,12.92,5.27,19.33-2.15,7.29-10.01,12.22-16.99,15.23Z" style="fill-rule: evenodd; stroke: #000; stroke-miterlimit: 3.2; stroke-width: .8px;"/>
    <path id="ah" data-name="path4173" d="m361.04,371.9c6.25,4.68-4.97,17.4,0,23.43,4.55,5.53,14.11,5.72,21.09,4.1,13.85-3.22,28.94-12.48,33.97-25.77,2.47-6.52-7.76-14.57-4.1-20.5,4.25-6.9,19.46.62,23.43-6.44,3.48-6.2-1.98-14.55-5.86-20.5-4.16-6.39-10.11-13.07-17.57-14.64-8.34-1.76-16.55,9.84-24.6,7.03-7.93-2.77-7.07-16.88-14.64-20.5-8.83-4.21-19.98-1.26-29.29,1.76-4.84,1.57-7.8,8.2-12.89,8.2-6.93,0-10.64-11.16-17.57-11.13-3.95.02-9.96,4.1-9.96,6.44s14.83,13.27,11.13,19.92c-2.09,3.76-12.89.59-12.89.59l-16.4-1.76-11.13-11.72s-13.55-4.52-18.16-.59c-4.79,4.09-.45,12.74-2.34,18.74-2.39,7.58-12.71,13.3-11.13,21.09,1.1,5.44,8,7.92,12.89,10.54,4.68,2.51,10.76,1.82,15.23,4.69,8.15,5.23,10.28,18.25,19.33,21.67,4.6,1.74,10.41.75,14.64-1.76,5.78-3.43,5.6-13.61,11.72-16.4,5.71-2.61,13.18-1.15,18.74,1.76,2.95,1.54,3.26,6.66,6.44,7.62,6.63,1.99,14.38-10,19.92-5.86h0Z" style="fill-rule: evenodd; stroke: #000; stroke-miterlimit: 3.2; stroke-width: .8px;"/>
    <path id="ai" data-name="path4185" d="m533.39,617.67l-14.06-2.34-1.76-5.86,7.62,1.17,4.69-1.76,3.51,8.79Z" style="fill: #fee192; fill-rule: evenodd; stroke: #000; stroke-linejoin: round; stroke-width: .8px;"/>
    <path id="aj" data-name="path4187" d="m530.9,648.32l-14.06-2.34-1.76-5.86,7.62,1.17,4.69-1.76,3.51,8.79Z" style="fill: #fee192; fill-rule: evenodd; stroke: #000; stroke-linejoin: round; stroke-width: .8px;"/>
    <path id="ak" data-name="path4189" d="m228.76,565.37l53.85-30.24,45.56-7.46s48.46-16.57,50.12-16.98,20.71-14.91,20.71-14.91l31.89,3.73-2.07,11.18-60.47,13.67-64.2,19.88-46.39,17.81-25.68,13.25-3.31-9.94Z" style="fill: #ffe4e1; fill-rule: evenodd;"/>
    <path id="al" data-name="path4215" d="m167.95,470.67l49.61-19.47,41.98-4.8s44.65-10.67,46.18-10.93,19.08-9.6,19.08-9.6l29.39,2.4-1.91,7.2-55.72,8.8-59.15,12.8-42.74,11.47-23.66,8.53-3.05-6.4Z" style="fill: #ffe4e1; fill-rule: evenodd;"/>
    <path id="am" data-name="path4217" d="m257.34,335.07l29.41-2.07s14.5-.83,16.57.41,11.18,17.4,11.18,17.4c0,0-10.36,9.53-12.84,8.28-2.49-1.24-14.08-3.73-20.71-5.8s-23.61-18.23-23.61-18.23Z" style="fill: #dcdcdc; fill-rule: evenodd;"/>
    <path id="an" data-name="path4251" d="m338.65,309.82l17.14-1.24s8.45-.5,9.65.25,6.52,10.43,6.52,10.43c0,0-6.03,5.71-7.48,4.97s-8.21-2.24-12.07-3.48-13.76-10.93-13.76-10.93h0Z" style="fill: #dcdcdc; fill-rule: evenodd;"/>
    <path id="ao" data-name="path4253" d="m377.03,384.49l10.48-13.62s5.25-6.64,6.61-7.04,12.12,2.08,12.12,2.08c0,0,.25,8.31-1.27,8.89s-7.13,4.64-10.63,6.69c-3.5,2.06-17.32,2.99-17.32,2.99h0Z" style="fill: #dcdcdc; fill-rule: evenodd;"/>
    <path id="ap" data-name="path4159" d="m532.08,510.73c-2.57,14.32-1.17,43.64-1.17,43.64,6.79,30.42,45.94,37.2,72.93,52.87,0,0,14.01-76.31,27.82-112.32,7.14-18.59,23.29-33.4,28.12-52.72,3.88-15.53,3.3-32.37,0-48.03-4.49-21.3-8.72-40.12-26.36-59.75l-42.18,6.44s-22.62,8.66-31.63,16.4c-10.81,9.29-18.97,21.74-25.19,34.56-5.05,10.4-9.49,21.83-9.37,33.39.19,19.58,17.32,36.66,16.99,56.23-.18,10.31-8.14,19.14-9.96,29.29Z" style="fill-rule: evenodd;"/>
    <path id="aq" data-name="path4255" d="m577.11,356.2l7.04,9.53-19.05,17.4s-12.84,17.81-9.11,47.22c3.73,29.41,11.6,72.49,11.6,72.49,0,0-7.04,23.61-9.11,32.31-2.07,8.7-9.53,8.28-9.53,8.28,0,0,11.18-34.38,9.11-50.12-2.07-15.74-9.11-39.35-12.43-52.6s-2.07-32.31-1.24-34.38,11.18-23.61,12.43-25.68,10.77-12.01,10.77-12.01l9.53-12.43Z" style="fill-rule: evenodd;"/>
    <path id="ar" data-name="path4177" d="m580.7,407.63l-.5,6.24,8.51,5.77,391.87,39.06,3.41-5.57-395.68-39.05-7.62-6.44Z" style="fill: #bab469; fill-rule: evenodd; stroke: #000; stroke-linejoin: round; stroke-width: .8px;"/>
    <path id="as" data-name="path4181" d="m689.07,402.07l285.56,16.99-2.2-4.69-283.95-17.87.59,5.56Z" style="fill: #bdb76b; fill-rule: evenodd; stroke: #000; stroke-linejoin: round; stroke-width: .8px;"/>
    <path id="at" data-name="path4175" d="m589.32,399.65l-8.35,8.21,8.27,6.07,394.95,39.76,11.61-26.15-406.47-27.89Z" style="fill: #fffacd; fill-rule: evenodd; stroke: #000; stroke-linejoin: round; stroke-width: 1.07px;"/>
  </g>
</svg>