<?xml version="1.0" encoding="UTF-8"?><svg id="a" xmlns="http://www.w3.org/2000/svg" width="1024" height="1024" viewBox="0 0 1024 1024"><g id="b"><path id="c" d="m551.03,439.41l2.84,12.11,19.16,5.87,16.75.93,15.2-17.05-3.4-3.09-13.35,6.49-12.42,2.78-24.78-8.04h0Z" style="fill:#fff5ce; fill-rule:evenodd;"/><path id="d" d="m532.47,390.45l7.11,26.65,8.96-3.09,21.38-6.18,25.71,5.56,9.95,7.42,11.44-8.65-.31-15.51-17.05-7.42-33.45-.62-33.76,1.85.04-.02h-.02Z" style="fill:#fff5ce; fill-rule:evenodd;"/><path id="e" d="m545.76,421.12l24.16,24.78,25.4-6.18,8.09-8.65-3.15-14.89-38.4-9.27-16.13,14.22h.03Z" style="fill:red; fill-rule:evenodd;"/><path id="f" d="m514.38,820.33l1.65-3.35-.25-6.07-8.4-22.36-6.65-13.29-19.95-4.53-38.45-4.89-19.58,2.42-8.4,15.73-15.73,23.45-10.82,6.29-28.71,7.67-26.91-3.15-10.82-9.8-12.27-17.84-22.42,12.93-.47.78-15.25,17-22.78,26.8-32.22,1.6-22.53-9.64,9.27,9.64,39.95,4.07-3.09,36.85-5.56,25.4-36.24,6.85-29.16-18.29-4.33-57.98,4.22-30.71-1.65-43.65,2.42-60.15,4.02-42.22-.67-35.62-4.07-30.56,4.38-24.84,4.38-25.31,4.89-20.98,4.22-20.56,4.69-23.09,13.15-34.95,20.67-46.24,42.05-68.65,37.22-54.07,35.76-34.78,57.62-33.85.51-.11,19.33-17.89,12.62-9.33,13.76-3.25,6.91,1.24,15.42-36.13,20.73-34.53,19.89-15.82,17.84-10.51,7.73.78,14.58-5.67,27.22-2.02,32.05,1.6,31.64,11.8,26.8,20.25,17.89,28.82,6.49,15.82,11.75,10.56,17.84,21.13,5.31,7.27,28.82,2.47,8.91,19.89-5.25,34.07,5.67,15,11.75,22.31,23.15,37.78,10.15,34.47,6.91,26.38,5.67,19.07-2.16-.11,1.4,28.15,12.98,34.07,16.65,20.73,7.27,10.51,5.31,17.89,13.82,47.47,4.44,32.47-5.25,27.16-16.65,21.55-19.47,15.05-7.33,3.65-2.02,25.15-19.89,15-27.58,8.91-9.38-8.91-17.84-5.25-17.47-5.67-1.18,14.58-6.91.42-13.82-12.58-4.07,1.6-6.85-9.75-4.07-17.84,4.84-17.47,1.24-6.49,14.18-20.67-.78-4.49-17.67-7.95.62,1.04-9.13,1.35-1.04,1.91-27.58-5.67-23.55-4.49-19.89,10.56-14.22,22.73-10.51,27.22-13.4,18.65-1.4-.56,9.33,26.44,15.73,40.56,17.47,30.05,16.07,35,5.25,27.62-3.51,31.8-2.11,3.87-7.67-.73-.36-22.36-6.96-6.65-10.51,3.87,4.18,10.45v22.36l-4.18,8.04-3.15-2.05-2.42-13.65-5.25-6.65-10.15,17.16h-8.4l-13.6-9.8-18.91-12.27-12.22-6.96-7.02-9.8-10.82-9.8-7.67-27.98.04.04h-.07Zm-91.94-559.65l1.44,1.09-2.27-3.82.82,2.73h.02-.01Zm127.34,185.33l5.67,9.75,16.24,2.42,17.47,2.84,14.58-15.42,6.49-22.73,6.91-5.25,5.05-16.18-1.8-.11-17.05-10.15-16.65-5.25-36.55,2.84-19.07,4.07,1.65,14.58,6.07,14.22,10.98,17.84-2.42,8.09,2.42-1.55h.01Z" style="fill-rule:evenodd; stroke:#fff; stroke-miterlimit:10;"/><path id="g" d="m202.27,927.33c-2.78-1.04-8.71-2.22-13.2-2.73-9.18-1.04-16.35-4.07-17.53-7.42-.47-1.24-1.65-3.25-2.67-4.44-1.04-1.24-3.15-5.82-4.69-10.25s-3.45-8.82-4.22-9.75c-.87-1.04-1.09-6.29-.62-13.6.42-6.6,1.4-22.47,2.16-35.31.98-15.62,2.16-24.64,3.51-27.27,1.13-2.16,2.05-5.93,2.05-8.35,0-1.09-.11-3.6-.2-6.44l-1.71-9.13c-3.15-9.75-3.15-67.56,0-73.6,1.29-2.53,1.96-7.16,1.8-12.47-.47-17.53.42-31.29,2.27-35.76,2.47-5.93,2.47-12.67,0-18.6-2.53-6.04-3.04-53.6-.67-56.49.93-1.09,1.85-8.91,2.16-18.45.42-11.49,1.18-17.47,2.58-19.44,1.09-1.55,1.96-3.91,1.96-5.31,0-2.58,6.24-25.45,9.18-32.56.36-3.4,1.8-10.98,1.75-17.05,0-5.42.56-10.2,1.35-10.67.78-.47,1.35-2.33,1.35-4.07s.62-3.65,1.4-4.13c.73-.47,1.35-1.91,1.35-3.2s1.24-4.75,2.73-7.67,2.73-6.44,2.73-7.78c0-2.05,3.2-10.2,7.02-17.78.67-1.29,1.18-4.53,1.18-7.22,0-3.71,1.13-6.04,4.8-9.84,2.67-2.67,5.2-6.49,5.67-8.45,1.24-4.75,5.51-12.31,9.33-16.44,1.75-1.85,5.15-8.4,7.53-14.49,2.84-7.22,6.44-13.4,10.31-17.73,3.29-3.65,5.98-7.33,5.98-8.2,0-.82.93-2.27,2.05-3.25,1.18-.93,2.05-3.91,2.05-6.8s.87-5.87,1.96-6.75c1.09-.93,3.25-4.07,4.8-7.05,3.25-6.24,9.38-15,16.65-23.71,2.78-3.29,5.45-7.42,5.98-9.07.56-1.71,2.36-4.18,4.13-5.51,3.29-2.64,13.56-17.22,14.84-21.24.42-1.29,3.87-4.49,7.67-7.11,3.76-2.64,7.89-5.82,9.13-7.16,1.75-1.85,13.2-12.27,19.89-17.47,1.65-2.11,3.87-3.82,6.75-5.2,3.25-1.6,7.27-4.27,8.87-5.93,1.6-1.71,4.02-4.07,5.36-5.31,3.35-3.04,20.45-12.11,22.89-12.11,1.09,0,5-1.8,8.65-4.07s7.36-4.07,8.35-4.07c2.47,0,10.87-6.65,10.87-8.6,0-2.58,10.36-13.25,12.84-13.25,1.18,0,2.16-.47,2.16-1.09,0-1.35,13.45-7.05,16.49-7.05,1.91,0,8.04-6.85,8.04-8.96,0-.51,1.6-2.73,3.45-4.95,1.91-2.22,3.4-5.56,3.4-7.36s.47-3.29,1.04-3.29c1.24,0,2.47-2.11,7.47-12.98,2.11-4.49,4.38-9.07,5.15-10.15.73-1.13,1.75-2.98,2.27-4.13,3.96-8.96,23.35-28.45,32.89-33.09,2.73-1.35,5.56-2.98,6.29-3.76.73-.73,2.42-1.35,3.71-1.35s3.29-.93,4.49-2.11c.98-.98,7.58-1.65,10.2-1.6,1.75-.98,4.18-1.85,6.24-2.33.31-1.85,2.27-3.51,4.89-3.51,1.35,0,2.84-.62,3.29-1.35,1.35-2.11,6.6-1.75,9.18.16,3.2-.93,7.27-1.44,9.18-1.09,2.27.47,4.38.25,4.8-.36.42-.67,5.73-1.18,11.75-1.18,5.82.05,11.49.42,15.2,1.29.51-.31,1.13-.62,1.85-.78,3.2-.82,10.05,1.18,13.35,3.82,1.18-.11,2.64-.05,4.33.25,3.65.73,10.11,2.89,13.35,5.11,4.44.56,12.89,3.51,17,6.13,1.49.98,5.93,4.13,8.96,7.11,3.96,1.49,9.33,4.49,14.02,9.13,8.51,8.25,9.84,10.31,12.58,19.13,2.27,7.36,4.07,10.56,7.05,12.67,2.47,1.8,4.02,4.07,4.02,6.07,0,1.75.73,3.45,1.71,3.82,1.35.51,1.35,1.18,0,3.51-.98,1.6-1.71,3.2-1.71,3.56s3.4.42,7.53.11c6.29-.51,7.73-.2,8.29,1.71.42,1.29,1.29,3.4,1.96,4.69.73,1.35,1.29,3.29,1.29,4.44s3.4,6.04,7.53,10.87c4.18,4.84,7.47,9.84,7.47,11.04,0,1.85.98,2.05,5.45,1.29,1.44-.2,3.25.05,4.89.56,4.84-.47,11.96.73,16.24,2.89,2.95,1.49,5.93,2.73,6.75,2.73,3.45.05,5.36,3.04,6.24,9.75.51,4.02,1.75,9.22,2.78,11.65,1.6,3.96,1.49,4.95-1.24,9.75-1.65,2.98-2.64,6.38-2.16,7.58s-.11,3.65-1.24,5.42c-1.18,1.75-2.53,5.36-2.98,7.98-.82,4.38-.51,5.11,3.15,7.27,2.89,1.71,4.27,3.76,4.84,7.16.42,2.64,2.27,6.35,4.13,8.29s3.56,5.05,3.82,6.85c.31,2.47,1.6,3.65,4.8,4.49,3.6.93,4.53,1.96,5.31,5.93.62,3.51,2.02,5.36,5.11,6.96l4.27,2.22-3.04,2.02c-4.13,2.73-3.87,4.33,1.85,11.8,1.65,2.16,2.98,6.91,3.65,10.51,3.04,3.65,6.38,9.95,6.91,12.78.25,1.4.62,3.25.98,4.95,3.76,5.76,6.91,16.75,6.13,19.75-.42,1.8.62,6.8,2.47,11.75,1.8,4.69,4.07,10.73,5.05,13.35s1.85,7.53,1.96,10.93c.05,3.4.56,6.91,1.13,7.78s-.2,5.98-1.29,10.62c.62,3.29.82,7.02.87,8.76,0,1.18.93,3.29,2.02,4.8,1.13,1.44,2.02,3.76,2.02,5.2s.93,3.45,2.05,4.58,2.05,3.56,2.05,5.42,1.24,5.87,2.84,8.91c1.65,3.25,2.47,6.85,2.05,8.6-.51,2.05.11,3.91,1.91,5.51,1.49,1.35,2.73,3.96,2.73,5.76,0,2.11.93,3.6,2.53,4.02,3.76.98,8.82,8.45,8.65,12.93-.05,2.42.56,3.87,1.8,3.87,2.05,0,6.96,9.13,5.62,10.51-.51.47.56,2.73,2.27,5.05,4.02,5.36,5.51,8.91,5.15,12.53-.16,1.6,1.29,6.38,3.2,10.73,1.91,4.27,4.13,11.75,5,16.55.82,4.8,2.05,9.07,2.73,9.49s1.24,2.78,1.24,5.31.87,5.2,2.02,6.18c1.13.93,2.05,3.56,2.05,5.82s.73,6.55,1.6,9.49c1.29,4.27,1.29,5.98-.11,8.2-1.4,2.27-1.29,4.33.67,11.55,2.16,7.98,2.22,9.18.31,12.47-1.18,2.02-2.89,6.8-3.76,10.73-1.09,4.53-3.82,9.8-7.58,14.69-8.25,10.56-22.42,23.85-26.55,24.84-1.91.47-4.22,1.4-5.15,2.16-1.13.87-2.42.78-3.87-.47-3.25-2.67-4.49.42-3.91,10.2,1.09,19.02-6.75,29.27-26.96,35.4-17.27,5.25-28.15,4.44-30.45-2.36-.93-2.89-.98-2.89-1.55.2-.56,2.78-5.05,5.73-8.71,5.73-.67,0-1.24-2.78-1.24-6.24,0-4.38-.51-6.07-1.71-5.67-2.33.73-2.98,10.25-.98,12.67,2.98,3.6-.93,2.02-6.13-2.53-2.89-2.42-5.87-6.55-6.71-9.18-.87-2.58-2.64-4.89-3.91-5.15-3.56-.67-3.29,8.04.31,11.35,1.49,1.35,2.73,3.56,2.73,4.89s.62,2.84,1.4,3.29c2.27,1.4,1.49,4.75-1.13,4.75s-10.2-7.36-11.75-11.6c-1.04-2.67-1.09-2.67-3.09.31-1.91,2.84-2.22,2.89-5.42.82-1.8-1.24-4.53-4.53-5.98-7.36-3.09-6.13-4.89-7.47-7.27-5.51-1.29,1.09-3.15.11-7.42-4.02-5-4.8-5.67-6.18-5.67-11.44,0-3.29-.67-6.38-1.4-6.91-2.47-1.49-1.35-21.35,1.4-25.2,1.8-2.58,2.11-4.13,1.09-5.93-1.44-2.58,1.75-8.2,9.89-17.31,2.16-2.47,3.96-5.15,3.96-5.98,0-.78-2.02-2.84-4.49-4.53-5.93-4.02-15.2-4.18-17.62-.31-1.4,2.27-3.2,2.73-10.67,2.73s-9.75-.62-13.35-3.29c-2.67-1.96-5.51-2.95-7.16-2.53-1.55.42-4.13.05-5.73-.78-5.82-2.89-13.6-5.67-15.76-5.67-1.24,0-2.98,1.13-3.87,2.58-.87,1.4-5.05,4.53-9.27,6.96-9.8,5.62-17.58,15.36-19.8,24.78-.93,4.02-2.47,8.76-3.4,10.67-.93,1.85-2.05,5.56-2.58,8.2-.87,4.58-3.45,8.35-12.73,18.65-4.8,5.25-5.67,10.31-2.42,13.56,1.13,1.13,2.05,3.51,2.05,5.25s1.6,6.35,3.51,10.15c3.29,6.6,5.56,13.4,9.22,27.62.87,3.56,2.36,7.22,3.29,8.15s1.71,2.67,1.71,3.96.98,3.04,2.05,3.96c1.13.93,2.02,2.67,2.02,3.96s.73,2.95,1.55,3.76c.82.87,2.22,2.78,3.04,4.22.87,1.49,4.18,6.49,7.36,11.13,3.2,4.69,5.76,9.27,5.76,10.31s.62,2.22,1.4,2.67c1.24.78,5.73,9.84,10.42,21.13,1.09,2.64,2.95,6.55,4.13,8.71,1.65,2.98,2.16,8.35,2.27,23.2.11,21.6-1.04,31.91-4.33,39.27-2.27,5.11-7.42,8.71-10.05,7.05-.78-.47-2.58.56-4.02,2.36-2.47,3.2-2.58,3.2-4.58.62-1.8-2.36-1.75-2.95.56-5.45,7.78-8.56,5.11-33.45-3.65-33.45-2.67,0-3.04.47-2.27,3.04.56,1.71,1.8,4.75,2.84,6.75,2.11,4.13,2.53,11.44.67,12.58-.62.42-1.44,3.87-1.85,7.73-.36,3.87-1.29,7.36-2.11,7.89s-2.11,2.58-2.89,4.64c-1.85,4.84-3.6,4.69-6.35-.51-1.18-2.33-2.53-7.58-2.95-11.6-.51-4.89-1.4-7.36-2.64-7.36-1.91,0-2.67,5.51-2.11,15.25.36,6.29-2.05,8.04-5.42,3.91-1.8-2.22-5.11-2.98-6.96-3.56-.67,5.36-2.78,5.73-6.65,1.13-5.45-6.38-15.62-14.02-18.71-14.02-5.11,0-13.82-6.38-13.82-10.15v-.31c-3.91-.42-9.38-1.18-10.42-2.22-1.65-1.65-3.35-4.38-3.87-6.07-.51-1.65-1.55-3.04-2.27-3.04-.93,0-3.4-2.78-5.42-5.62-2.89-2.42-5.93-5.2-7.11-7.05h-.05c-5.2-7.95-9.07-23.65-9.07-37.22,0-5.45-.67-7.89-2.67-9.8-1.71-1.55-3.56-6.75-5.11-14.02l-2.47-11.55-12.93-.36c-7.11-.2-14.89-.36-17.27-.36-3.25,0-5.2-1.04-7.53-3.96-2.98-3.87-3.4-3.96-8.6-2.58-9.07,2.42-16.96,2.89-19.02,1.18-3.29-2.73-7.22.51-20.2,16.6-2.78,3.45-5.11,6.8-5.11,7.33,0,2.73-18.96,21.04-21.85,21.04-1.35,0-2.64.51-2.89,1.09-1.35,3.25-10.76,7.11-17.36,7.11-3.87,0-8.71.82-10.73,1.85-6.35,3.2-13.15,3.82-17.42,1.6-2.16-1.09-6.55-2.42-9.8-2.89-6.35-.98-8.35-2.67-5.98-5.05s1.8-3.71-1.6-3.71c-1.75,0-4.38-.87-5.82-1.91-.11-.11-.16-.16-.25-.2l-.11-.11c-.93-.73-1.44-1.13-1.35-1.49l-6.24-7.05c-1.91-1.75-3.82-4.89-4.22-6.96l-.87-3.76-7.67,4.64c-4.22,2.53-8.91,6.6-10.42,9.02-2.84,4.64-13.4,16.96-25.25,29.47-3.82,4.02-6.96,7.95-6.96,8.65,0,.78-1.8,3.71-4.07,6.55-2.67,3.35-4.07,6.75-4.13,9.75,0,2.53-.67,7.02-1.44,10-2.84,10.73-3.6,17.53-2.47,22.36,1.65,7.33-2.47,19.64-8.15,24.38-1.13.93-3.6,1.71-5.56,1.71-1.91.05-4.69.98-6.18,2.11-1.6,1.24-4.07,1.75-6.24,1.24-2.33-.51-4.18-.05-5.31,1.35-1.37,1.65-4.21,1.72-8.51.2l.07-.02.02-.06Zm-31.07-121.27c0,1.29.73,4.33,1.6,6.85,1.44,3.91,1.29,5.15-.98,8.96-3.65,6.18-4.84,33.24-1.49,34.53,1.24.47,2.22,2.42,2.27,4.44.05,3.87,2.78,15.31,5.67,23.71,1.29,3.71,2.53,5.15,4.58,5.15,3.4,0,6.07,2.42,6.07,5.56,0,1.29.93,2.67,2.11,3.15,1.71.62,1.96,2.05,1.24,6.8-.56,3.76-.31,7.11.78,9.13,1.6,2.98,1.75,3.04,3.56.56.98-1.4,1.85-3.6,1.85-4.89,0-2.27,2.58-3.96,6.13-3.96.98,0,2.95,2.33,4.33,5.11,3.09,6.38,5,6.55,5.87.36.93-6.35,4.69-7.05,7.84-1.49,3.25,5.67,4.22,5.31,4.69-1.55.42-5.2.82-5.87,4.18-6.24,4.49-.51,4.89-1.96,5.67-17.98.31-6.38.98-14.53,1.55-18.15.69-4.36-.13-6.25-2.47-5.67-2.53.62-4.22.11-6.29-2.02-3.51-3.45-3.65-3.45-7.95-.11-4.64,3.65-6.13,3.45-11.44-1.49-3.71-3.45-5-3.96-6.96-2.73-4.02,2.53-6.38,1.75-9.58-3.25-1.71-2.64-4.18-5.15-5.45-5.56-1.35-.42-3.25-2.42-4.33-4.44-1.04-2.02-3.15-4.84-4.75-6.24-3.2-2.95-4.07-11.75-1.18-11.69,5.2.05,8.15,2.22,11.49,8.29,2.95,5.42,4.33,6.65,7.27,6.65,2.22,0,5.11,1.6,7.53,4.13,4.33,4.49,8.09,5.11,12.47,2.05,4.22-2.98,21.13-4.27,26.49-2.02,4.13,1.71,4.49,1.6,7.22-2.22,1.55-2.22,5.62-7.05,9.07-10.82,10.42-11.35,14.27-19.64,8.25-17.73-3.35,1.04-4.8-1.18-2.11-3.4,1.09-.93,2.02-3.4,2.02-5.45s.82-4.07,1.85-4.49c1.04-.36,2.27-3.25,2.78-6.38,1.09-6.85,2.73-6.65,8.29,1.04,2.27,3.09,4.58,5.67,5.15,5.67,1.29.11,12.73-11.44,15.56-15.73,1.44-2.22,3.4-3.25,6.07-3.25,4.13,0,6.35-1.91,18.55-15.93,3.15-3.56,7.98-9.58,10.76-13.35,2.73-3.76,6.38-7.84,7.98-9.13,1.6-1.24,4.69-5,6.91-8.2,2.16-3.25,4.27-6.18,4.69-6.55,1.44-1.44,4.07-6.85,4.07-8.4,0-.87-1.55-3.6-3.4-6.04-1.85-2.47-3.4-5.51-3.4-6.71,0-3.2-2.58-7.58-7.16-12.16-4.58-4.58-6.71-9.22-6.96-15.11-.16-3.4-.73-4.07-3.25-3.82-2.27.25-3.09-.36-3.09-2.27,0-1.44-1.04-3.65-2.33-4.95-2.84-2.84-6.38-13.4-8.45-25.15-2.36-13.76-4.22-37.16-3.29-42.67.51-3.45.11-6.04-1.44-8.35-2.36-3.6-3.04-13.76-.98-15,1.44-.87,2.84,3.76,2.84,9.53,0,2.27.78,4.89,1.65,5.76.93.93,1.85,7.05,2.22,14.22.47,9.95,1.24,13.82,3.71,18.09,1.71,2.98,3.82,9.13,4.69,13.65.93,4.49,2.16,9.22,2.89,10.51.67,1.35,1.24,6.24,1.24,10.93.05,8.91,1.55,13.6,3.4,10.62,1.6-2.58,2.02-47.62.51-56.38-1.24-7.27-.11-25.51,2.36-38.09.56-2.78.2-3.71-1.4-3.71-1.18,0-2.16-.67-2.16-1.49s1.13-1.09,2.73-.56c2.22.73,2.73.25,2.73-2.64,0-3.2.51-3.51,5.45-3.51,2.98,0,5.42-.67,5.42-1.4,0-.78.56-1.35,1.35-1.35.73,0,.11,2.22-1.44,4.95-1.49,2.73-2.42,5.87-1.96,7.02.42,1.09.11,2.84-.73,3.76-1.04,1.29-.98,2.58.25,4.53,1.35,2.16,1.35,3.15-.05,4.8-2.42,2.95-2.89,15.82-.73,20.11,1.4,2.73,1.44,3.91.16,5.2-1.24,1.29-1.09,1.91.78,2.98,3.82,2.11,3.04,10.11-1.71,17.78-4.13,6.65-5.82,14.33-2.47,10.98,2.22-2.22,5.2-2.05,5.2.25,0,1.04-.93,3.6-2.05,5.76-2.27,4.44-2.67,8.65-.78,8.65.73,0,2.27,1.04,3.51,2.22,2.11,2.11,2.05,5.15-.16,13.04-.42,1.44,1.13,3.91,4.07,6.6,4.58,4.18,5.2,5.76,7.58,19.8.62,3.76,2.98,9.8,5.31,13.4,3.4,5.36,4.27,8.51,5.05,18.04.56,6.29,1.44,11.49,2.02,11.49s2.02-1.4,3.2-3.09c1.71-2.47,2.11-2.64,2.22-.73.05,3.04,8.25,10.62,11.49,10.62,2.27,0,2.42.82,1.8,9.02-.87,10.82-3.45,14.64-7.58,10.93-1.4-1.29-3.71-4.38-5.05-6.96-1.4-2.58-3.76-4.84-5.25-5.11-1.55-.2-3.09-1.71-3.51-3.35-.82-3.35-8.65-12.73-10.62-12.73-.67,0-2.67,1.55-4.44,3.45-1.8,1.85-5.76,4.89-8.87,6.71-3.04,1.8-6.75,5.45-8.2,8.09-2.36,4.44-2.42,4.95-.36,7.22s1.96,2.73-1.75,6.44c-2.95,2.89-3.6,4.38-2.53,5.67.98,1.24.87,2.64-.36,4.75-1.44,2.36-1.44,3.15-.11,3.6,2.02.73,2.33,5.87.36,5.87-.78,0-1.4,1.4-1.4,3.15,0,3.65,3.56,10.56,3.29,13.65-.18,2.06-.15,2.08.11.05,1.96.73,2.05,1.29.73,2.95-.93,1.09-2.89,2.02-4.27,2.02s-2.58.62-2.58,1.35c0,.78,3.82,1.4,8.6,1.4s9.33.73,10.2,1.6c3.29,3.29,19.53.56,30.45-5.11,2.22-1.13,4.53-1.75,5.15-1.35,1.71,1.04,17.84-14.64,17.84-17.36,0-1.29.51-2.33,1.13-2.33,1.75,0,4.58-10.73,3.35-12.84-.62-1.04-3.09-3.51-5.51-5.56-5.31-4.44-5.62-7.95-.98-12.16,4.8-4.44,20.05-6.18,23.85-2.73,1.85,1.65,3.96,2.11,7.33,1.55,3.35-.51,4.89-.2,5.42,1.18.56,1.49,1.6,1.55,4.33.56,6.49-2.47,15.82-1.65,19.38,1.71,2.73,2.53,4.64,2.98,11.24,2.73,5.87-.2,8.15.2,8.71,1.71s2.58,1.8,8.82,1.35c7.22-.56,8.15-.31,8.82,2.05.47,1.8,1.85,2.73,4.13,2.73,4.18,0,5.2,2.47,6.24,15.67.98,11.35,3.45,12.98,9.18,6.13,2.73-3.25,3.91-3.87,4.8-2.47,1.75,2.78,1.35,8.2-.87,12.53-2.36,4.49-2.64,8.51-.67,9.75,2.53,1.55,1.49,6.13-1.35,6.13-3.6,0-4.95,5.56-2.98,12.05.87,2.73,2.16,7.58,2.95,10.73.82,3.2,2.05,6.07,2.78,6.55.47.31,1.44,1.4,2.53,2.84,3.2,1.6,7.22,4.07,7.53,5.25.47,1.91,1.75,3.45,2.89,3.45,1.24,0,2.02,1.35,2.02,3.35,0,1.18,3.65,3.25,6.44,4.69l-.31-.31c-1.13-1.13-2.05-3.56-2.05-5.45s-.51-3.76-1.18-4.18c-.62-.42-1.55-2.58-2.02-4.84-.42-2.27-1.65-4.13-2.73-4.13s-4.07-2.53-6.75-5.56c-3.82-4.33-5.05-7.11-5.76-12.98-.51-4.13-.51-7.89-.05-8.4,1.65-1.65,5.51,1.91,6.8,6.29.93,3.25,2.02,4.27,4.44,4.27,2.73,0,3.2.67,3.2,4.69,0,10.11,4.49,14.8,8.56,8.96,1.91-2.73,1.96-2.73,4.8.31,1.6,1.71,5.15,5.42,7.84,8.2,2.73,2.84,4.75,5.2,4.49,5.31-.25.05-3.4.31-6.96.51-3.6.16-6.91.67-7.33,1.09-1.55,1.6,1.29,6.6,4.44,7.84,1.8.67,3.91,2.78,4.58,4.64.78,1.91,2.84,3.76,4.8,4.27,1.85.47,3.45,1.4,3.45,2.05s.78,1.24,1.71,1.24,3.71,1.91,6.18,4.22c2.53,2.33,4.95,3.76,5.45,3.2.51-.51.2-1.24-.78-1.6-.93-.31-1.71-1.24-1.71-2.02s-2.47-4.38-5.51-8.04c-4.89-5.82-6.04-6.49-9.53-5.76-3.65.73-4.02.42-4.02-2.78,0-2.02.47-3.6,1.04-3.65s4.22-.36,8.2-.67c5.98-.56,7.36-.25,8.09,1.75.51,1.29,4.27,5.45,7.47,10,5.36,7.67,2.67,9.8,2.64,12.47.93,1.71,1.29,2.67,1.35,3.25,3.56-4.18,8.15-11.8,6.18-12.53-1.18-.47-2.47-1.96-2.95-3.45-.42-1.44-2.11-3.82-3.65-5.25-3.4-3.2-2.47-6.29,2.64-8.56,2.05-.93,4.33-2.42,4.89-3.4.62-.93,3.4-1.71,6.29-1.71s7.42-.93,10.11-2.05c2.73-1.13,7.98-2.05,11.75-2.05,5.2,0,6.91-.47,6.91-2.02,0-1.13.62-2.05,1.35-2.05,1.96,0,1.71,3.76-.31,4.44-1.24.42-1.04,1.49.67,4.13,1.29,2.02,2.36,5.93,2.36,8.76.05,2.84.42,7.64.93,10.62l.93,5.45,1.49-6.8c1.04-4.89,1.09-12.78.11-27.53-1.35-20-3.45-29.69-3.45-16.04,0,5.82-.67,7.47-4.89,12-3.56,3.91-5.25,4.89-6.35,3.76-2.22-2.22,2.16-15.2,6.44-19.27,1.91-1.75,3.45-4.69,3.45-6.55s-2.78-9.02-6.18-16.04c-3.35-6.96-6.13-13.29-6.13-14.07,0-2.16-5.56-11.07-6.91-11.07-.73,0-1.24-.62-1.24-1.4,0-.73-2.16-4.44-4.8-8.15-2.64-3.76-4.8-7.67-4.8-8.76s-.62-2.36-1.35-2.78c-.78-.47-2.27-2.89-3.29-5.42-1.04-2.47-4.02-6.91-6.6-9.8-3.91-4.38-5-6.96-6.35-15.45-3.2-19.84-4.89-28.45-5.93-29.47-.56-.56-2.64-4.13-4.53-7.95-4.95-9.8-6.24-11.85-10.45-16.35-4.07-4.27-4.75-7.02-2.05-8.09,1.24-.51.93-1.35-.98-2.84-5.51-4.18-6.18-5.05-6.18-8.2,0-1.75.98-3.6,2.16-4.02,3.09-1.18,2.02-8.2-1.35-8.82-1.4-.25-3.15.47-3.82,1.71-1.49,2.73-4.33,2.78-6.49.16-.93-1.09-3.91-2.42-6.65-2.95s-7.36-2.05-10.42-3.4c-2.98-1.4-6.85-2.53-8.56-2.53-3.51-.05-4.18-3.4-.93-4.64,1.18-.47,5.42-.47,9.38,0,4.75.56,7.53.31,8.15-.67,1.18-1.91,8.51-2.02,9.64-.16,1.04,1.6,4.8,1.8,4.8.25,0-5.82-15.45-9.64-43.65-10.73-15-.62-19.13-.36-22.36,1.35-3.51,1.85-4.44,1.91-7.78.16-2.05-1.09-4.75-1.96-5.87-1.96s-2.11-.62-2.11-1.35c0-.78,2.98-1.4,6.65-1.4,5.51,0,6.75-.47,7.36-2.73.67-2.58,1.85-2.73,23.65-2.67,34.38,0,40.45,1.71,54.69,15.15,5.67,5.42,5.82,5.45,5.82,2.05,0-1.91-.73-5.05-1.6-7.02-1.24-2.67-1.24-3.87,0-5.11.87-.87,1.49-3.15,1.44-5.05l-.16-3.51-1.49,3.82c-2.02,5.11-5.62,4.27-6.13-1.4-.56-5.93-11.13-18.45-17.62-20.93-4.69-1.8-3.87-4.38.98-3.29,5.73,1.24,5.42-1.85-.67-6.91-2.64-2.22-4.75-4.49-4.75-5.05,0-1.91,5.15-1.04,5.93,1.04.42,1.13,1.65,2.05,2.73,2.05,3.25,0,11.85,13.45,15.05,23.6,1.35,4.22,3.65,1.04,2.78-3.82-.47-2.47-.25-5.67.51-7.05,1.04-1.91.73-3.29-1.13-5.62-1.35-1.65-2.89-5.67-3.45-8.82-1.29-7.98-3.87-12.62-12.42-22.36-4.69-5.45-7.02-9.18-6.49-10.56.47-1.18,0-3.04-1.04-4.18-4.13-4.53-5.2-6.13-5.2-7.53,0-.78-.93-1.4-2.02-1.4s-2.42-.82-3.04-1.8c-.56-.98-2.95-2.42-5.2-3.25-2.22-.82-5.31-2.02-6.8-2.58-1.49-.62-6.04-1.13-10-1.13-6.07-.11-7.73-.67-10.05-3.51-1.96-2.47-4.89-3.82-10.45-4.8-4.22-.73-7.58-1.96-7.47-2.73.25-1.4,9.8-3.71,14.8-3.6,9.84.2,15.51,4.22,8.87,6.35-4.07,1.29-1.75,3.65,3.2,3.29,5.73-.42,12.73,1.35,14.69,3.71.82,1.04,2.78,1.85,4.27,1.85s3.56,1.09,4.53,2.36c1.44,2.02,2.05,2.11,3.56.62s1.4-2.11-.56-3.56c-1.35-.98-2.42-2.53-2.42-3.35,0-.87-.87-1.55-2.02-1.55s-2.05-.62-2.05-1.35c0-2.64,2.64-1.35,7.53,3.71,4.27,4.38,4.64,5.25,2.78,6.6-1.18.87-2.11,2.27-2.11,3.15,0,2.11,3.65,1.96,4.49-.16.47-1.18,1.29-.87,2.84,1.04,1.85,2.33,2.33,2.42,3.51.67.98-1.49.82-2.47-.62-3.56-1.13-.82-2.05-2.42-2.05-3.45,0-1.09-3.96-6.13-8.87-11.24-4.84-5.15-8.87-9.89-8.87-10.56,0-2.02,2.78-1.35,3.6.82.47,1.13,1.49,2.05,2.36,2.05,3.56,0,20.05,22.27,26.49,35.76,2.78,5.82,5.67,10.36,6.38,10.11,2.73-.82,2.36-11.75-.56-16.69-1.55-2.64-2.84-5.62-2.84-6.65s-.82-2.67-1.8-3.65c-.98-1.04-2.67-3.51-3.76-5.51-3.56-6.71-12.27-18.82-13.6-18.82-.67,0-1.29-.93-1.29-2.02,0-6.13,9.8,1.96,15.25,12.62,1.91,3.71,4.38,3.29,5-.82.51-3.82,2.47-3.82,3.71,0,.62,2.02.2,3.51-1.29,4.58-2.36,1.75-3.04,6.07-.93,6.07.73,0,1.91-.98,2.58-2.22,1.75-3.15,4.33-1.09,4.33,3.45,0,2.11,1.35,5.25,2.89,7.05,1.6,1.8,3.4,4.75,4.07,6.44,1.71,4.38,1.55,17.67-.25,23.45-.82,2.64-1.75,12.11-2.05,21.13-.31,9.02-.67,17.58-.73,19.07-.31,4.53,1.65,16.18,3.25,19.44,1.09,2.22,1.04,4.49-.11,8.35-2.22,7.27-2.02,13.2.56,18.2,1.8,3.51,1.91,4.75.42,7.47-1.35,2.58-1.4,4.22-.11,7.73,2.16,6.07,2.02,11.18-.42,13.65-2.78,2.73-2.58,5.42.56,8.25,2.05,1.91,3.15,2.05,5.42.87,1.6-.87,2.89-2.78,2.89-4.38s1.55-4.64,3.4-6.85c1.91-2.22,3.4-5.25,3.4-6.71s1.13-5,2.53-7.78,2.89-8.35,3.35-12.36c.47-4.07,1.71-8.35,2.78-9.53,1.09-1.24,2.36-4.22,2.89-6.65s1.49-4.75,2.16-5.2c.73-.42,1.29-2.27,1.29-4.07,0-4.8,6.85-18.04,9.8-18.82,1.35-.36,2.67-1.44,2.98-2.47s1.24-4.44,2.11-7.58c.82-3.15,3.04-7.53,4.89-9.75s3.4-5.25,3.4-6.8.67-3.2,1.49-3.71c3.15-1.96,3.56,2.78,1.09,11.55-1.44,4.95-2.58,10.51-2.58,12.42,0,4.69-5.25,18.15-7.64,19.47-2.53,1.44-2.47,3.71.11,3.71,1.13,0,2.05-.56,2.05-1.18,0-.67,2.42-2.89,5.42-4.95,3.71-2.58,6.38-3.51,8.6-2.95,1.91.47,4.49-.11,6.35-1.44,2.98-2.05,3.29-2.02,5.51.93,1.65,2.16,4.53,3.45,9.53,4.22,3.91.62,7.84,2.02,8.71,3.09,2.02,2.58,7.22,4.07,8.29,2.42.47-.78,4.02-1.04,8.25-.56,4.89.51,8.15.2,9.44-.87,1.55-1.29,2.67-1.29,4.95-.05,1.65.87,4.95,1.18,7.36.73,3.29-.62,5.36-.11,7.95,1.96,1.91,1.49,3.76,2.73,4.07,2.73.36,0,2.89-4.75,5.76-10.56s6.38-12.22,7.73-14.18c1.4-2.02,2.53-4.49,2.53-5.45.05-2.64,10.2-10.73,15.36-12.16,2.42-.73,6.71-1.29,9.53-1.29s5.11-.62,5.11-1.35c0-1.71,14.53-1.85,15.56-.2.42.67-1.75,1.55-4.84,1.96-3.71.51-7.05,2.16-9.95,4.95-2.36,2.33-5.56,4.22-7.05,4.22s-4.49,1.75-6.55,3.96c-2.11,2.16-5.36,4.38-7.27,4.84-3.91.98-7.67,5-10.11,10.93-.87,2.27-3.4,6.35-5.51,9.07s-3.82,5.93-3.82,7.16c0,3.4,6.13,2.67,10.36-1.24,3.87-3.6,13.29-6.85,15.62-5.42.78.51,5.82,1.44,11.24,2.11,18.96,2.33,24.84,3.56,29.22,6.13,2.47,1.44,4.44,3.09,4.44,3.65.05,1.4-7.98,1.24-20.42-.42-15.31-1.96-26.8-2.02-29.13-.11-1.4,1.13-2.33,1.18-2.89.25-1.35-2.16-8.35-1.75-10.31.56-.93,1.13-2.58,2.05-3.71,2.05s-4.22,1.75-6.96,3.87-6.91,4.58-9.22,5.51-5.56,3.51-7.16,5.67c-5.42,7.33-2.67,9.44,3.76,2.84,3.56-3.65,9.69-6.8,9.69-5,0,.47-.56,1.85-1.29,3.15-5.42,9.84-5.93,12.42-3.56,17.42,1.71,3.56,2.11,7.11,1.6,13.76-.36,4.95-.36,9.84.05,10.87,1.09,2.84,4.22,2.33,5.25-.87.62-1.96,1.65-2.53,3.4-1.96,1.85.56,3.09-.2,4.44-2.84l1.91-3.6,3.6,4.58c3.35,4.22,3.87,4.44,6.65,2.67,2.67-1.65,3.25-1.55,5.45,1.18,1.35,1.71,2.47,4.49,2.47,6.24,0,4.53,2.16,5.25,7.67,2.64,3.4-1.6,6.55-2.02,10.51-1.44,3.15.47,8.29,1.24,11.49,1.65,3.56.47,6.35,1.71,7.11,3.2.73,1.35,2.47,2.73,3.96,3.09,2.84.78,10.62-3.29,13.35-7.02,1.49-2.02,1.8-1.96,3.56.42,1.85,2.47,1.96,2.47,3.96-.42,1.55-2.22,2.98-2.78,5.42-2.16,4.64,1.13,9.18-3.71,6.44-6.96-.98-1.24-1.91-5.73-2.02-10.05-.11-4.8-1.13-9.38-2.64-11.96-4.75-8.04,1.44-15.82,6.71-8.35,2.27,3.29,2.95,2.98,10.82-4.69,2.98-2.95,4.33-3.45,5.76-2.27,2.05,1.75,4.64.62,4.64-2.02,0-.93,1.24-2.84,2.73-4.18,1.49-1.4,2.73-3.51,2.73-4.8s1.24-3.45,2.78-4.84c1.55-1.35,3.87-5,5.25-8.04,1.35-3.04,3.4-6.35,4.64-7.33,1.71-1.4,2.02-3.35,1.4-8.51-.67-5.45-.36-6.85,1.49-7.58,1.91-.73,2.16-2.64,1.65-13.45-.31-6.91-1.18-13.71-1.96-15.15s-2.73-7.22-4.33-12.84-3.51-11.29-4.22-12.62c-.67-1.29-1.24-4.02-1.24-6.13s-.67-6.13-1.44-9.02c-1.18-4.18-2.02-5.11-4.13-4.53-3.15.82-3.15.98-.47-5.76,2.84-7.02.62-19.95-3.6-21.29-1.44-.47-2.98-2.33-3.45-4.13-.47-1.85-3.91-6.13-7.73-9.53-11.85-10.67-19.69-24.78-21.04-38.04-.47-4.53-1.75-9.64-2.84-11.35-1.13-1.75-1.65-4.44-1.13-6.29.62-2.53.16-3.45-1.91-3.96-2.98-.78-2.42-9.33,0-14.27-1.75-2.16-1.75-6.18.2-8.2,1.24-1.18,1.24-2.05,0-3.51-.87-1.09-1.18-3.65-.73-5.98.82-4.13-3.4-16.49-7.22-20.98-.98-1.18-1.8-3.91-1.85-6.13,0-2.16-.93-5.15-2.02-6.6-2.53-3.35-4.27-14.8-3.04-20.25-.73-.42-1.6-1.04-2.27-1.75-1.75-1.71-3.51-9.22-3.71-14.07-1.4-1.91-2.89-4.18-4.13-5.93-1.71-2.47-4.33-5.76-5.87-7.36-4.27-4.53-5.25-6.04-8.91-13.96-1.91-4.18-5.62-9.18-8.56-11.49-3.65-2.95-4.89-4.84-4.33-6.65.93-2.98-5.56-12.62-9.89-14.58-4.27-2.02-11.85,3.29-12.47,8.76-.25,2.22-1.13,4.44-1.96,4.95-1.09.67-1.04,1.91.11,4.49,2.22,4.89,2.05,10.45-.42,14.02-1.44,2.02-2.02,5.67-1.8,11.55.42,12.62-1.44,22.93-5.05,28.35-2.22,3.35-3.65,8.2-4.58,15.98-1.85,14.58-6.29,24.16-15.82,34.02-2.98,3.09-7.33,7.84-9.53,10.62-5.76,7.11-7.27,8.6-10.62,10.98-2.58,1.8-2.73,2.42-1.24,4.84,1.55,2.53.98,3.6-6.04,10.87-4.27,4.49-9.38,10.42-11.35,13.25-1.91,2.84-4.33,5.76-5.36,6.55-1.49,1.18-1.44,1.75.36,3.25,1.18.98,2.16,2.67,2.16,3.71,0,2.64-3.6,2.33-4.69-.42-.62-1.71-1.24-1.85-2.36-.78-1.13,1.13-.87,2.53.93,5.25,2.22,3.4,2.27,3.82.16,5.36-2.11,1.49-2.11,1.91.11,5.76,2.05,3.56,2.11,4.64.56,7.53-1.09,2.05-1.44,4.95-.87,7.64.93,4.07-1.09,6.18-2.36,2.53-.36-.93-1.09-1.24-1.75-.62-.62.56-.42,2.27.47,3.71,2.22,3.56,2.11,7.05-.31,10.25-1.13,1.49-2.05,3.76-2.05,5.05-.05,1.35-1.29,4.69-2.78,7.47-1.49,2.84-2.73,5.87-2.73,6.85s-1.44,1.71-3.25,1.71c-2.36,0-3.51.98-4.13,3.4-.87,3.4-2.73,4.44-4.13,2.22-1.71-2.73,5.11-31.85,8.35-35.71.98-1.18,1.8-3.15,1.8-4.38s.93-2.73,2.11-3.4c1.65-.93,1.8-1.91.67-4.89-1.85-4.89-1.85-4.95,1.18-4.95,1.44,0,2.89.78,3.2,1.71.36.93,1.13,1.24,1.75.67,1.35-1.29-2.89-10.56-4.84-10.56-2.11,0-1.6-4.89.67-6.8,1.13-.93,2.05-2.73,2.05-3.96,0-2.36,7.16-11.85,11.24-14.84,2.78-2.05,3.25-5.76.67-5.73-.93.05-3.45,1.91-5.67,4.13-2.16,2.22-4.8,4.02-5.82,4.02-1.96,0-10.31,5.42-11.07,7.16-.25.56-1.24,1.04-2.22,1.04s-3.4,1.35-5.45,2.95c-4.07,3.2-18.24,10.73-20.2,10.73-1.24,0-5.05,2.42-19.38,12.36-11.04,7.64-19.64,10.25-21.85,6.71-.47-.73-2.22-1.35-3.96-1.35s-4.49-1.24-6.24-2.73c-1.71-1.49-3.71-2.73-4.44-2.73-2.11,0-16.85-11.91-19.27-15.62-1.71-2.58-3.45-3.45-6.8-3.45-2.67,0-5.45-1.09-6.8-2.53-1.24-1.4-4.89-3.29-8.04-4.22-3.2-.93-8.6-4.07-12.05-6.96-3.51-2.89-8.91-6.6-12.11-8.29-3.45-1.8-6.29-4.44-7.02-6.6-.73-1.96-3.51-4.75-6.18-6.24-2.95-1.55-5.73-4.49-6.85-7.11-1.13-2.78-2.78-4.44-4.44-4.44-3.04,0-10.2-6.75-13.09-12.31-1.09-2.11-3.09-4.22-4.49-4.64-1.4-.47-3.25-2.36-4.13-4.22-.82-1.85-2.11-3.35-2.89-3.35-.73,0-1.4-1.49-1.4-3.25s-.93-4.02-2.05-4.95-2.05-2.84-2.05-4.18-1.55-4.8-3.45-7.58c-1.85-2.84-3.76-6.71-4.13-8.6s-1.85-5.73-3.29-8.4c-1.8-3.4-2.16-5.36-1.18-6.35s.93-2.33-.16-4.38c-1.13-2.05-1.18-4.18-.31-6.75.87-2.42.82-4.58-.05-6.18-1.91-3.4.05-22.11,2.58-24.64s4.07-2.58,5.36-.47c.51.87,0,2.27-1.24,3.2-1.71,1.24-2.22,4.38-2.42,14.64-.2,14.8.51,17.31,4.22,14.02,3.87-3.51,4.33-.25.87,6.24l-3.15,5.98,4.07,5.76c4.33,6.07,6.38,6.44,6.38,1.04,0-1.85,1.13-3.87,2.67-4.75,1.55-.78,2.73-2.64,2.73-4.02,0-3.09,2.16-4.8,3.45-2.73.47.78-.11,2.95-1.29,4.75-2.95,4.49-3.2,33.4-.25,33.4s6.04-5.76,6.55-11.65c.62-7.67,3.82-7.84,3.82-.2,0,3.87.73,6.38,1.85,6.8,1.18.47,2.16,4.27,2.78,10.73.73,8.09,1.55,10.67,4.27,13.4,1.85,1.85,3.4,2.64,3.4,1.71s.82-1.71,1.85-1.71c1.85,0,3.56,5.62,3.56,11.69,0,3.82,2.22,5.45,4.64,3.45,1.29-1.09,2.64-.51,5.25,2.27,1.91,2.05,3.71,4.89,3.96,6.35s1.35,2.89,2.36,3.25c1.55.51,1.75-.56,1.09-5.67-.51-3.51-1.75-8.04-2.78-10.11-1.29-2.47-1.55-4.75-.73-6.85,1.24-3.25,3.91-2.95,3.91.42,0,1.04,1.29,2.27,2.84,2.73,2.53.82,2.73,1.65,1.91,8.09-.67,5.36-.42,7.64,1.13,9.13,1.09,1.13,2.42,4.13,2.98,6.71,1.4,6.44,2.02,7.16,4.33,5.2,1.71-1.44,2.78-.82,6.38,3.45l4.33,5.15,4.22-4.69c2.36-2.58,5.05-5.98,5.87-7.58.87-1.65,2.02-2.95,2.53-2.95,1.8.05,6.13,11.13,6.85,17.53.67,6.29,3.96,12.42,9.13,16.85,4.44,3.82,5.2,4.38,10.93,7.84,2.98,1.85,5.62,3.82,5.87,4.38.25.62,1.18,1.13,2.05,1.13s3.4.93,5.56,2.05c3.6,1.85,4.49,1.85,8.87-.05,16.29-7.27,25.05-16.44,26.85-28.2.51-3.25,1.4-6.55,2.02-7.33,1.65-2.11,2.11-14.84.56-15.62-.82-.42-1.55,2.36-1.8,6.71-.2,4.07-1.29,8.65-2.36,10.2s-1.96,4.22-1.96,5.98c0,3.4-11.18,15.31-14.33,15.31-.93,0-2.47.93-3.4,2.02-1.8,2.16-13.04,2.89-15.82,1.04-.87-.56-1.44-2.53-1.4-4.44.16-2.73-.56-3.45-3.51-3.82-2.58-.31-4.07.42-5.15,2.36-1.96,3.65-3.04,3.56-8.15-.73-4.95-4.18-9.64-13.09-9.64-18.35,0-7.42-4.38-17.78-9.07-21.35-2.53-1.91-4.53-4.58-4.53-5.98,0-5-4.49-25.15-6.04-27.16-.87-1.13-2.98-5-4.75-8.6-2.67-5.51-2.98-7.78-2.22-14.18.51-4.22,1.29-8.51,1.71-9.58,1.44-3.82,3.04,1.44,3.09,10.15,0,6.8.67,9.49,3.45,13.56,6.44,9.49,13.76,11.91,24.47,8.04,3.04-1.09,9.33-2.02,14.02-2.05,6.35,0,8.51-.51,8.51-1.96,0-2.05-7.84-7.36-14.33-9.58-5.15-1.8-12.93-13.15-12.93-18.85,0-2.33,1.49-6.13,3.4-8.6,1.85-2.47,3.4-5.93,3.4-7.73,0-2.47,2.33-4.84,9.89-10.11,5.45-3.87,12-7.22,14.64-7.58,5.45-.78,16.38,2.47,16.38,4.95,0,.87,2.36,2.67,5.31,3.96,8.87,3.91,15.15,15.36,15.15,27.58,0,7.11-.62,9.22-4.02,13.91-3.35,4.64-5.45,5.98-13.6,8.51-9.22,2.84-13.56,5.45-9.07,5.45,1.18,0,5.67,1.13,9.95,2.53,9.18,2.98,20.05,5.67,22.78,5.67,1.09,0,3.71-1.55,5.93-3.4,3.35-2.78,4.18-4.75,4.95-11.44.51-4.44,1.75-8.82,2.78-9.69,1.29-1.04,1.65-3.09,1.13-6.24-.78-5,.82-6.13,3.71-2.64,1.04,1.24,1.35,3.51.78,5.76-.51,2.05-1.55,8.04-2.27,13.25-1.18,8.4-1.91,10-6.65,14.49-7.84,7.47-10.62,14.02-11.69,27.47-.93,11.04-.82,11.75,1.96,13.25,2.64,1.44,2.89,1.18,2.89-2.58,0-2.27.62-4.18,1.35-4.18.78,0,1.4,1.24,1.4,2.73,0,3.91,3.91,3.4,5.45-.67,1.65-4.44,6.04-4.75,4.69-.31-.51,1.65-1.8,4.02-2.84,5.2-1.96,2.27-2.64,9.44-.82,9.44,1.8-.05,14.75-7.89,16.6-10.11.98-1.18,2.58-2.16,3.51-2.16.98,0,5.36-3.56,9.8-7.84,9.64-9.38,19.13-17.27,21.49-17.78.98-.25,2.42-1.8,3.29-3.45s2.78-4.84,4.27-7.05c1.49-2.27,3.09-5.05,3.6-6.13.56-1.13,2.73-4.27,4.89-7.02,2.16-2.67,4.95-6.8,6.24-9.07,1.24-2.33,4.07-7.05,6.24-10.56,2.22-3.51,4.53-9.53,5.25-13.4s1.96-7.89,2.84-8.91c1.71-2.02,3.15-11.96,4.8-32.89.56-7.11,1.75-14.27,2.67-15.93,1.18-2.16,1.24-4.02.2-6.65-1.09-2.95-.93-4.22.82-6.13,2.02-2.27,1.85-2.95-2.67-9.69-5.2-7.73-5.93-10.51-3.25-13.2,1.35-1.35,1.09-1.85-1.4-2.47-3.91-1.04-3.4-5.11.73-5.67,1.6-.25,4.18.2,5.67,1.04,2.22,1.18,2.58,2.36,1.96,6.29-.62,3.71-.2,5.25,1.75,6.75,1.44,1.09,3.29,1.96,4.13,2.02,2.64.05,15.51-12.31,15.51-14.89,0-1.35,1.18-3.96,2.64-5.82,2.64-3.25,3.25-8.04,2.89-21.44-.16-6.85-5.36-15.11-9.53-15.11-1.35,0-3.2-.82-4.07-1.91-.82-1.04-2.67-1.6-4.07-1.24-.82.2-3.76-.62-6.44-1.71-3.56.42-8.51,1.04-14.38,2.95-12.36,3.96-14.84,6.18-11.35,10.05,2.02,2.22,1.6,4.13-.93,4.13-.67,0-5.2-4.07-10.11-9.02-4.84-5-10.31-10.98-12.11-13.35-3.45-4.49-15.36-11.69-19.44-11.69-1.29,0-4.07-.87-6.07-1.96-2.02-1.04-4.89-1.6-6.35-1.24-1.44.42-3.04.05-3.51-.78-.51-.82-2.36-1.49-4.13-1.49s-3.91-.93-4.84-2.05c-1.18-1.44-4.38-2.02-10.76-2.02-9.22,0-12.78-1.55-11.49-4.95,1.04-2.64,5.36-2.36,14.49.87,4.49,1.55,12.62,2.95,19.07,3.25,9.33.47,12.58,1.29,19.38,4.84,12.22,6.38,16.96,9.95,17.89,13.29.47,1.65,2.02,3.4,3.51,3.87,1.49.51,3.35,2.67,4.13,4.84,1.09,3.09,2.22,3.96,5.15,3.96,2.05,0,4.58-.93,5.51-2.05.98-1.13,2.47-2.05,3.45-2.05,1.04,0,2.22-.56,2.67-1.35,1.13-1.85-2.05-10.93-5.05-14.38-1.4-1.6-2.47-3.56-2.47-4.38,0-2.33-7.11-8.51-9.69-8.51-1.24,0-3.71-2.16-5.45-4.8-1.8-2.58-4.02-4.75-4.95-4.75s-1.71-1.44-1.71-3.15-.62-3.76-1.4-4.53-3.4-5.11-5.82-9.58c-9.13-17.05-13.45-23.4-20.82-30.4-2.05-2.02-4.13-3.82-5.87-5.42-4.18-.25-9.69-2.47-10.56-4.8-.47-1.18-1.75-2.11-2.89-2.11s-4.49-2.16-7.36-4.8c-1.8-1.65-3.65-3.09-5-3.96-4.89.67-13.25-.98-16.29-3.09-.78-.51-1.4-1.04-1.85-1.55-4.44.73-11.38-.05-13.2-1.85-.2-.2-.47-.47-.62-.73-3.4.42-7.95.36-9.89-.42-2.98-1.13-4.27-1.04-6.13.67-2.33,2.11-9.53,2.89-9.58,1.04,0-.56-.62-1.96-1.29-3.04-3.76,3.6-1.75,1.55-3.2.51-1.24,1.71-5.51,2.64-9.18,2.47-.98.67-2.89,1.09-5.76,1.49-3.25.47-6.85,1.18-7.98,1.65-1.09.42-2.67-.11-3.65-1.09-2.64,1.55-6.18,3.09-7.22,3.09-.87,0-1.6-.2-1.96-.51-3.4.78-7.47,1.91-7.47,2.58,0,1.13-.51,2.05-1.13,2.05s-2.58,1.24-4.33,2.73c-1.71,1.49-3.96,2.73-4.95,2.73-1.04,0-1.85.51-1.85,1.13,0,.67-3.91,3.71-8.71,6.8-7.33,4.75-8.87,6.44-9.64,10.51-.47,2.67-1.75,5.2-2.84,5.62s-2.02,1.65-2.02,2.78c0,2.58-3.87,9.38-7.73,13.65-1.65,1.8-4.64,8.6-6.71,15.15-4.18,13.2-4.38,13.6-8.51,21.6l-2.95,5.73,6.8,4.44c3.76,2.42,6.8,5.11,6.8,5.98,0,2.42,5.05,6.55,6.75,5.51.78-.51,1.44-1.55,1.44-2.33s1.91-3.82,4.22-6.75c3.4-4.33,5.05-5.31,8.87-5.31,2.53,0,4.64-.67,4.64-1.4,0-.78,1.85-1.35,4.07-1.35s4.13.56,4.13,1.24-1.85,1.85-4.13,2.64c-2.22.82-4.07,2.02-4.07,2.73s-1.71,2.02-3.76,2.89c-2.05.93-7.33,5.93-11.69,11.07-4.38,5.2-8.76,9.44-9.8,9.44-2.36,0-10.2,6.6-10.2,8.6,0,2.67-5.87,15.93-7.05,15.93-.62,0-1.13.78-1.13,1.75s-1.24,2.47-2.73,3.4c-2.11,1.35-2.73,3.2-2.73,8.45,0,8.2-2.27,13.65-5.67,13.65-3.76,0-4.44-3.29-1.6-7.64,1.35-2.05,2.58-5.82,2.78-8.35.16-2.53,2.16-7.47,4.44-10.93s4.18-7.95,4.18-10.05c0-2.73,1.8-5.45,6.65-10.05,5.67-5.36,8.09-9.75,8.91-15.93.05-.47-1.75-3.09-3.96-5.76-2.84-3.45-5.2-4.89-7.78-4.89-2.05,0-5.82-1.04-8.35-2.22-4.33-2.05-5.15-2.05-11.8.16-8.51,2.84-16.04,7.36-17.05,10.31-.42,1.18-2.53,3.96-4.69,6.18-3.4,3.51-3.96,5.2-4.27,12.89-.2,4.84.36,10.51,1.24,12.62s1.6,4.75,1.6,5.82c0,2.84,5.31,13.76,7.58,15.67,1.09.87,1.96,2.47,1.96,3.51s.56,1.85,1.24,1.85c.73,0,4.38,2.98,8.04,6.71,3.71,3.65,8.04,7.05,9.64,7.58,3.4,1.09,3.65,2.89.82,5.73-1.09,1.09-2.02,4.02-2.02,6.44,0,2.89-1.13,5.51-3.2,7.42-3.76,3.56-4.8,3.65-5.93.73-.51-1.24-.2-3.96.56-6.13.82-2.11,1.18-5.05.78-6.49-.47-1.8.2-2.89,2.16-3.51,6.13-1.91.56-7.53-7.47-7.53-1.85,0-3.6-.78-3.87-1.71-2.02-6.65-1.96-6.65-4.95-4.8-1.55.93-4.33,4.8-6.18,8.56-7.11,14.38-12.22,21.8-14.95,21.8s-2.78.25-2.22-14.44c.2-5.73.73-7.11,2.98-7.67,1.96-.51,2.73-1.85,2.73-5,0-2.33,1.24-5.82,2.67-7.67,1.49-1.91,2.67-5.36,2.73-7.73,0-2.42.62-4.75,1.4-5.2.82-.51.62-2.27-.67-4.69-1.13-2.22-1.85-6.8-1.71-10.76.42-9.38-1.04-10.56-10.15-8.35-7.73,1.85-15.05,5.45-19.53,9.58-1.55,1.44-4.75,2.98-7.05,3.45s-5.98,2.64-8.04,4.8c-2.11,2.16-4.49,3.91-5.42,3.91-.87,0-2.36.93-3.29,2.05s-2.73,2.02-4.07,2.02-3.51,1.35-4.95,2.95c-2.05,2.33-7.84,6.44-11.29,8.35-5.67,6.55-11.85,13.6-13.71,15.76-3.65,4.27-6.91,8.91-7.16,10.31-.62,3.65,2.98,4.49,3.91.93.67-2.53,1.4-2.84,5-2.02,3.76.82,4.02.67,2.42-1.24-.98-1.18-1.4-2.84-.93-3.6.98-1.49,6.55-1.96,7.95-.62,1.8,1.85-5.05,11.55-11.18,15.76-3.6,2.47-7.89,6.55-9.49,8.96-1.6,2.47-3.76,4.49-4.8,4.49s-2.22,1.18-2.58,2.73c-.42,1.49-1.4,2.67-2.22,2.67-2.16,0-1.85-3.45.47-5.36,2.73-2.27,4.13-9.53,2.22-11.44s-9.27,5.98-15.56,16.6c-2.36,4.02-5.31,8.91-6.6,10.93-4.38,6.85-5.87,9.22-8.6,13.76-1.49,2.47-4.69,7.53-7.16,11.13-2.42,3.65-4.44,8.09-4.44,9.89s-1.75,5.25-3.96,7.78c-2.16,2.47-4.69,7.02-5.56,10.05-2.33,7.78-4.49,12.16-6.6,13.51-.98.62-2.95,3.87-4.38,7.16-1.4,3.29-3.2,6.04-3.96,6.04s-1.4,1.75-1.4,3.91c0,2.47-1.29,5.15-3.51,7.16-1.91,1.75-4.64,5.36-6.04,7.98-1.44,2.64-4.18,6.6-6.13,8.76-1.96,2.22-3.87,5.62-4.27,7.53-1.18,5.42-4.58,12.36-6.04,12.36-.73,0-1.35,2.02-1.35,4.49,0,6.44-5.15,20.25-12.11,32.31-1.96,3.4-4.22,11.55-4.22,15.15,0,1.44-2.42,9.89-4.07,14.53.82,4.07-1.71,24.16-3.76,26.55-1.6,1.8-1.71,2.78-.47,4.27,1.24,1.55.87,3.2-1.71,7.89-3.04,5.42-3.35,7.84-3.91,28.15-.42,14.18-1.24,22.78-2.22,23.82-2.42,2.36-2.05,18.04.47,20.11,1.13.93,2.05,2.53,2.05,3.56,0,1.09.73,1.91,1.71,1.91,1.13,0,1.71-2.53,1.75-7.84.16-11.49,2.05-22.16,4.02-22.16,2.27,0,3.51,11.65,1.75,16.69-1.04,2.89-.93,4.84.31,7.22,1.44,2.67,1.35,3.96-.51,7.95-1.24,2.58-2.22,7.11-2.22,10.11,0,4.22-.62,5.62-2.64,6.13-3.04.78-4.13,7.02-2.58,14.64,1.18,5.87-1.13,23.76-3.82,29.33-1.55,3.2-4.22,18.71-4.69,27.27-.2,3.56,1.35,18.51,2.02,19.58.42.67.2,3.91-.36,7.22-.62,3.25-.67,12.62-.16,20.87.62,10,.42,16.07-.62,18.29-.51,1.18-.78,4.02-.93,7.42.82,3.87,1.49,7.98,1.49,8.6l.09.29v.07Zm10.87,101.33c0-.73-1.24-2.42-2.73-3.71s-2.73-3.04-2.73-3.91-1.49-1.85-3.4-2.22c-2.58-.51-3.4-.11-3.4,1.8,0,1.35,1.24,2.84,2.73,3.29,1.49.45,3.35,2.05,4.13,3.51,1.49,2.73,5.42,3.65,5.42,1.24h-.02Zm97.14-103.29c.73-2.95-.16-5.76-1.8-5.76-.67,0-1.24,1.85-1.24,4.07,0,4.44,2.02,5.62,3.04,1.71v-.02h0Zm44.69-11.29c0-.73-1.24-1.29-2.73-1.29-2.98,0-3.71,2.11-1.04,3.09,2.05.73,3.76-.05,3.76-1.8h.01Zm4.07-4.02c0-.73-.56-1.4-1.29-1.4-.67,0-1.65.67-2.11,1.4-.47.78.11,1.35,1.29,1.35s2.11-.56,2.11-1.35Zm287.69,98.74c0-6.18-.82-10.25-2.73-13.87-1.49-2.78-2.73-5.76-2.73-6.65,0-2.22-3.56-3.35-6.8-2.16-2.67.98-2.67,1.09.31,5.76,5.2,8.35,7.84,15.11,7.84,20.36,0,2.78.42,5.45.87,5.93,2.11,2.11,3.25-1.18,3.25-9.38l-.02.02h0Zm163.64-176.42c0-.78-.62-1.4-1.4-1.4-.73,0-1.35.62-1.35,1.4,0,.73.62,1.35,1.35,1.35.78,0,1.4-.62,1.4-1.35Zm-49.02-7.27c-1.75-1.75-2.02,1.55-.47,5.42.93,2.22,1.09,2.11,1.49-.73.25-1.75-.2-3.87-1.04-4.69h.02,0Zm-17.84-6.49c0-1.55-.67-4.07-1.49-5.62-1.24-2.27-1.75-2.47-2.73-.93-.62,1.04-1.18,3.56-1.18,5.62-.05,2.89.62,3.76,2.67,3.76,1.85,0,2.73-.93,2.73-2.84h0Zm-7.36-27.16c-2.58,0-4.02,6.6-2.02,9.07,1.44,1.71,2.02,1.6,4.27-.67,2.16-2.22,2.36-3.15,1.13-5.51-.87-1.6-2.42-2.89-3.4-2.89h.02Zm8.76,5.45c0-.78-.62-1.4-1.4-1.4-.73,0-1.35.62-1.35,1.4,0,.73.62,1.35,1.35,1.35.78,0,1.4-.62,1.4-1.35Zm-160.65-33.65c-.98-.42-2.16-.36-2.64.11s.36.78,1.8.73c1.55-.11,1.91-.42.82-.82l.02-.02h0Zm-6.75-4.07c-.93-.36-2.47-.36-3.4,0s-.16.67,1.71.67,2.64-.31,1.71-.67h-.02Zm-362.94,180c-1.6-2.73-2.64-5.62-2.33-6.49.31-.82-.78-3.65-2.33-6.29-2.64-4.27-2.95-6.8-2.95-23.85,0-27.31,1.49-35.62,5.36-30.31,2.33,3.15,3.82,32.93,1.85,37.22-1.85,4.13-.36,9.64,2.84,10.51,2.58.67,3.15,2.53,5.15,17.67.78,5.93.56,6.49-1.91,6.49-1.75,0-3.87-1.85-5.73-4.95h.05Zm45.87-2.73c-1.49-1.44-1.09-5.93.47-5.93,2.02,0,3.29,4.02,1.75,5.56-.73.67-1.75.93-2.22.36h0Zm24.64-14.8c1.96-.87,3.4-2.98,3.91-5.82.47-2.47,2.02-5.15,3.51-5.93,1.55-.82,2.53-2.67,2.42-4.38-.42-4.8-.05-6.38,1.4-6.38,1.71,0,1.85,9.13.16,10.15-.67.42-1.65,3.6-2.16,7.16s-1.85,7.67-2.89,9.18c-1.09,1.49-1.91,4.13-1.91,5.76,0,4.75-2.27,4.95-5.45.47-3.51-4.89-3.15-8.35,1.04-10.2l-.02-.02h0Zm-16.49,12c-1.13-1.13-1.18-9.02-.05-11.91,1.09-2.95,4.64-2.78,4.58.2,0,4.64-1.71,12.62-2.64,12.62-.56,0-1.4-.42-1.91-.93l.02.02h0Zm-18.6-2.36c0-3.51,1.6-6.24,3.71-6.24,1.44,0,1.8.87,1.24,3.04-.47,1.71-.82,3.56-.87,4.13,0,1.91-4.07.98-4.07-.93h-.01Zm65.45-22.47c0-2.27-.87-4.27-2.05-4.75-2.22-.82-2.84-7.02-.82-8.25,1.4-.87,2.89,2.27,2.89,6.24s3.04,2.36,4.27-2.16c.56-2.05,1.91-4.8,2.98-6.04s2.22-3.45,2.47-4.95c.31-1.65,1.6-2.73,3.2-2.73,3.56,0,4.89-2.02,3.29-4.89-1.85-3.51-1.55-4.18,1.18-2.73,3.2,1.71,7.11-.51,7.11-4.02,0-1.49.82-3.04,1.85-3.45.98-.36,4.8-5.25,8.35-10.82,3.6-5.62,7.36-10.15,8.4-10.15,2.53,0,2.36,7.36-.2,9.53-1.13.93-2.05,2.73-2.05,4.07s-.87,3.09-2.02,4.07c-1.13.93-2.05,2.47-2.05,3.4s-1.24,2.78-2.73,4.13-2.73,2.98-2.73,3.65c0,2.11-5.76,9.18-15.82,19.58-5.36,5.45-10.11,10.93-10.56,12.11-1.44,3.76-4.95,2.42-4.95-1.85h-.02,0Zm287.63-1.49c-1.29-2.42-1.29-12.31-.05-27.58,0-.56.67-1.04,1.4-1.04,2.36,0,4.33,10.05,3.87,20.31-.47,10.51-2.36,13.6-5.2,8.29l-.02.02Zm-16.35-6.85c0-5.73,1.96-7.33,3.4-2.67.98,3.15-.31,8.15-2.16,8.15-.67,0-1.24-2.42-1.24-5.45v-.02h0Zm35-2.22c-.51-.51-.93-2.22-.93-3.82s-.87-4.13-1.96-5.67c-2.42-3.51-4.07-18.24-2.27-20.87,1.75-2.64,5,0,6.24,5.11.51,2.02,2.02,4.89,3.35,6.38,3.71,4.13,4.27,8.91,1.71,14.18-2.33,4.75-4.44,6.38-6.13,4.69h0Zm-304.96-10.73c0-1.85.56-3.4,1.35-3.4.73,0,1.4,1.55,1.4,3.4s-.67,3.4-1.4,3.4c-.78,0-1.35-1.55-1.35-3.4Zm232.07-12.47c-3.56-2.47-4.02-5.87-.82-5.87s11.6,5.45,10.67,6.91c-1.18,1.91-6.38,1.4-9.84-1.04h-.02.01Zm-42.25-7.02c-1.65-1.04-.73-2.22,7.53-9.69,1.65-1.55,3.91-2.84,4.95-2.84s2.64-.87,3.56-2.02,3.15-2.05,4.95-2.05,3.25-.62,3.25-1.35c0-.78,1.24-1.4,2.73-1.4s2.73.62,2.73,1.4c0,.73-1.24,1.35-2.73,1.35s-2.73.93-2.73,2.05.82,2.02,1.85,2.02,2.67-.87,3.6-2.02,3.09-2.05,4.84-2.05,3.56-.62,4.02-1.35c1.44-2.36,6.13-1.6,6.07.98-.11,5.11-3.65,7.98-18.82,15.2-6.29,2.98-13.96,3.25-14.89.47-.31-.93.11-1.65.93-1.65s1.44-.93,1.44-2.05-.56-2.05-1.35-2.05c-.73,0-1.4.93-1.4,2.05s-1.04,2.05-2.27,2.05-3.25.87-4.49,1.96c-1.18,1.09-2.89,1.49-3.82.98h.05,0Zm-30.87-7.36c3.6-4.22,5.62-5.87,13.87-11.29,7.22-4.8,11.69-5.93,13.25-3.4.47.78,1.44,1.4,2.16,1.4,1.71,0,1.65-5.11-.05-5.73-.78-.2,1.91-.51,5.87-.62l7.27-.16-2.98,3.25c-1.65,1.75-4.02,3.25-5.25,3.25s-2.22.82-2.22,1.85-1.24,2.22-2.73,2.64c-1.49.36-2.73,1.4-2.73,2.16,0,1.96,5.11,1.96,5.73,0,.31-.82,1.75-1.24,3.2-.82,2.53.62,2.47.73-.36,1.65-1.71.56-3.09,1.85-3.09,2.89s-1.24,1.91-2.73,1.91-2.73-.67-2.73-1.4c0-.78-.87-1.35-2.02-1.35s-2.05.56-2.05,1.35c0,.73-2.05,1.4-4.58,1.4s-7.53.87-11.24,2.02c-8.91,2.73-9.58,2.64-6.55-.98l-.05-.04v.02Zm23.71,1.75c0-.78.67-1.44,1.4-1.44.78,0,1.35.25,1.35.62,0,.31-.62.98-1.35,1.44-.78.47-1.4.2-1.4-.62Zm-291.03-2.78c-.47-.78-.2-1.4.56-1.4.82,0,1.44.62,1.44,1.4,0,.73-.25,1.35-.56,1.35-.36,0-.98-.62-1.44-1.35Zm240.22-12.05c-3.35-3.82-4.07-7.98-1.55-8.96,1.4-.51,1.96-1.8,1.55-3.51-.62-2.27-.16-2.53,3.25-1.85,2.36.51,3.96.2,3.96-.67,0-1.4,5-4.69,9.84-6.49,1.29-.47,2.67-2.02,3.15-3.4.98-3.09,2.42-3.29,4.69-.62,1.35,1.65,1.04,2.16-1.91,2.89-1.91.47-3.51,1.55-3.51,2.33s-1.6,3.51-3.56,6.04c-2.53,3.35-3.29,5.62-2.67,7.98.62,2.53-.31,4.89-3.6,9.38-2.47,3.29-5.62,6.35-6.96,6.71-2.11.56-2.33.11-1.6-3.4.62-2.73.25-4.84-1.09-6.38l.02-.04h0Zm-212.03-4.07c1.96-.36,2.22.42,1.55,4.8-.47,2.84-1.29,6.13-1.91,7.22-.93,1.8-1.18,1.75-1.96-.2-1.55-4.07-.16-11.29,2.33-11.8v-.02h0Zm206.98,5.87c0-1.13.87-2.02,1.96-2.02,1.24,0,1.71.78,1.24,2.02-.42,1.13-1.35,2.05-2.02,2.05s-1.18-.93-1.18-2.05Zm72.93.73c-.47-.78.11-1.4,1.29-1.4s2.11.62,2.11,1.4c0,.73-.56,1.35-1.29,1.35-.67,0-1.65-.62-2.11-1.35Zm-91.07-.93c-2.42-2.42.2-17.73,2.89-17.16,2.36.51,1.96-4.69-.47-5.62-2.33-.87-2.67-4.38-.56-5.67.78-.51,1.8.36,2.22,1.96.82,3.15,4.49,3.96,4.49.98,0-1.04-.87-2.64-2.02-3.6-3.29-2.73-2.42-6.35,2.95-11.49,2.73-2.67,5.45-4.84,5.98-4.84.56,0,1.96,1.49,3.15,3.35,2.42,3.65.73,6.13-2.47,3.51-1.18-.98-2.16-1.04-2.67-.2-.47.78.2,1.96,1.55,2.67,2.27,1.29,2.27,1.49-.05,4.07-2.11,2.33-2.22,3.15-.73,5.51,1.4,2.22,1.44,3.2.11,4.49-.93.93-1.65,2.84-1.65,4.18s-.93,2.89-2.05,3.29-2.05,1.55-2.05,2.47c0,.98-1.18,3.29-2.73,5.2-1.49,1.91-2.67,4.44-2.67,5.62,0,2.27-1.6,2.89-3.15,1.29l-.04-.02h-.03Zm11.29-33.2c0-.78-.56-1.35-1.35-1.35-.73,0-1.4.56-1.4,1.35,0,.73.67,1.4,1.4,1.4.78,0,1.35-.67,1.35-1.4Zm45,27.31c0-2.78,6.13-6.85,10.25-6.85,1.96,0,1.96.31.2,2.89-1.71,2.36-8.04,6.65-9.89,6.65-.31,0-.56-1.18-.56-2.67v-.02h0Zm-265.69-8.71c-2.11-2.58-.73-13.71,2.05-15.98,1.04-.87,1.85-2.42,1.85-3.45s1.04-1.91,2.22-1.91c1.71,0,2.02.82,1.35,3.76-.51,2.05-1.49,6.38-2.22,9.64-.67,3.2-1.8,6.75-2.42,7.89-1.04,1.85-1.35,1.85-2.84.05h0Zm279.34-.93c0-.73.98-1.29,2.05-1.29s2.02.2,2.02.51-.93.87-2.02,1.35c-1.13.42-2.05.16-2.05-.56h0Zm-21.8-1.29c0-.78.62-1.4,1.35-1.4.78,0,1.4.62,1.4,1.4,0,.73-.62,1.35-1.4,1.35-.73,0-1.35-.62-1.35-1.35Zm-100.34-9.07c-.42-1.6-2.11-3.51-3.71-4.22-4.02-1.8-16.07-19.13-22.53-32.42-7.42-15.31-8.91-22.53-12.16-58.96-1.04-11.85-.87-13.96,1.18-13.96.67,0,1.24,4.64,1.24,10.31,0,6.29.78,11.75,1.96,14.07,1.09,2.11,2.42,7.16,2.95,11.18.51,4.07,1.75,9.02,2.78,11.07,1.04,2.02,1.85,5.15,1.85,6.96s1.75,5.67,3.91,8.65c2.16,2.98,4.33,6.75,4.89,8.4.51,1.65,1.44,2.98,2.05,2.98.67,0,1.6,1.75,2.05,3.96.47,2.16,1.75,4.27,2.84,4.69s1.96,2.27,1.96,4.07.93,3.96,2.05,4.95c1.13.93,2.02,2.47,2.02,3.45s.93,2.47,2.05,3.4,2.05,2.84,2.05,4.22.51,2.58,1.18,2.58c2.02,0,3.09,4.44,1.55,5.98-1.04,1.04-1.71.62-2.22-1.4l.04.02.02.02Zm-21.75-6.75c-2.95-3.45-5.56-7.16-5.82-8.2-.2-1.04-1.04-1.91-1.71-1.91-.73,0-1.91-1.4-2.64-3.09-.73-1.65-1.91-3.96-2.53-5.11-3.82-6.49-7.02-13.6-7.02-15.62,0-1.24-.62-1.91-1.35-1.44-2.33,1.44-1.55,7.05,1.65,12.58,1.65,2.84,3.51,5.36,4.07,5.62.62.25,1.09,1.49,1.09,2.78s.98,3.71,2.16,5.42c3.04,4.33,1.44,5.2-2.42,1.4-9.33-9.33-16.44-18.82-21.07-28.2-2.89-5.76-6.04-11.29-6.96-12.27-.98-.98-1.75-3.76-1.75-6.13s-.93-5.51-2.02-6.91c-1.04-1.44-2.36-5.31-2.84-8.56-.51-3.29-1.44-5.93-2.05-5.93-1.6,0-1.6-9.18,0-10.15,1.49-.93,2.84,2.42,2.84,6.96,0,5.15,3.35,3.15,3.87-2.36.62-6.35,2.58-8.04,3.76-3.15.56,2.16,1.8,5.15,2.84,6.65,1.04,1.44,1.85,5.25,1.85,8.4s.56,6.13,1.24,6.55c.73.42,1.96,3.09,2.84,5.87s2.36,6.91,3.4,9.18c.98,2.22,2.27,5.36,2.78,6.85.87,2.64.93,2.64,2.33-.25.98-2.16.78-4.07-.82-7.36-1.24-2.42-2.22-6.38-2.22-8.87s-.93-5.42-2.02-6.49c-1.09-1.13-2.58-5.25-3.29-9.27s-2.02-10.05-2.89-13.45c-.87-3.56-1.13-8.96-.56-12.93,1.13-8.25,1.8-6.96,5.93,12.27,1.65,7.53,3.87,16.75,4.95,20.56s1.96,8.82,1.96,11.13.87,4.49,2.05,4.95c1.13.42,2.05,2.47,2.05,4.58s1.44,5.98,3.2,8.56c1.8,2.64,5.15,8.87,7.47,13.87,2.36,5,4.89,9.49,5.67,10,.73.47,1.35,1.75,1.35,2.84,0,2.05,5.36,10.42,7.16,11.24,1.4.62,1.35,5.67-.05,5.67-.62,0-3.51-2.78-6.49-6.24l-.02-.05h.03Zm-121.94,2.16c0-1.49.56-2.73,1.35-2.73.73,0,1.4,1.24,1.4,2.73s-.67,2.73-1.4,2.73c-.78,0-1.35-1.24-1.35-2.73Zm114.05.47c-1.4-1.44-1.04-5.93.47-5.93.78,0,1.4,1.55,1.4,3.4,0,3.6-.31,4.02-1.85,2.53h-.02Zm-131.78-8.29c0-2.89,9.13-14.69,11.35-14.69,3.6,0,2.05,5.73-2.95,11.29-5.62,6.13-8.4,7.33-8.4,3.4h0Zm26.55-6.13c-.42-1.04.2-3.71,1.35-5.87,1.13-2.22,2.11-4.69,2.11-5.51,0-1.65,9.44-11.44,11.04-11.44,2.36,0,2.73,3.04.67,5.31-1.18,1.29-2.16,2.89-2.16,3.56,0,.62-.87,2.11-1.96,3.29-6.6,7.11-7.58,8.4-7.58,9.53,0,2.22-2.73,3.09-3.45,1.13h-.02Zm12.98-5.11c0-1.49.62-2.73,1.4-2.73.73,0,1.35,1.24,1.35,2.73s-.62,2.73-1.35,2.73c-.78,0-1.4-1.24-1.4-2.73Zm11.6-4.13c1.09,1.8-.47,6.85-2.16,6.85-.67,0-1.24-1.55-1.24-3.35,0-3.65,2.02-5.73,3.4-3.51h0Zm46.75-1.49c-3.56-3.87-6.55-7.58-6.55-8.29,0-.78-1.18-2.95-2.67-4.84-1.55-1.91-2.73-4.53-2.73-5.82s-.93-3.15-2.05-4.07-2.05-3.45-2.05-5.62c0-5.42,3.91-5.25,5,.16.47,2.27,1.29,4.13,1.91,4.13,1.09,0,19.02,28.82,19.02,30.51,0,2.53-4.07,0-9.84-6.13l-.04-.04h0Zm104.62-5.31c1.6,0,.47,5.67-1.71,8.15-3.04,3.6-4.44,3.51-4.44-.36,0-2.64,4.07-7.78,6.13-7.78h.02Zm2.02-3.35c0-.31.62-.98,1.4-1.44.73-.47,1.35-.16,1.35.62s-.62,1.44-1.35,1.44c-.78,0-1.4-.25-1.4-.62Zm3.04-6.49c-2.42-2.36-2.02-3.82,1.09-3.82,1.8,0,2.73.93,2.73,2.73,0,3.09-1.44,3.51-3.82,1.09Zm-14.75-7.16c3.35-3.45,5.87-4.8,8.87-4.8,2.33,0,4.22.25,4.22.56,0,4.18-7.67,9.58-11.55,8.09-1.18-.42-3.04-.05-4.18.87-1.09.93-2.02,1.35-2.02.87s2.11-2.98,4.64-5.62l.02.02h0Zm19.89.62c0-.78.98-1.35,2.05-1.35,1.18,0,1.75.56,1.29,1.35-.47.73-1.4,1.4-2.05,1.4-.73,0-1.29-.67-1.29-1.4Zm-174.45-12.89c1.96,1.18-.31,5.76-3.6,7.27-2.84,1.29-3.29,1.13-3.29-1.13,0-2.67,5.15-7.22,6.91-6.13l-.02-.02h0Zm158.13-.05c0-1.13.87-2.05,2.02-2.05s2.05.93,2.05,2.05-.98,2.05-2.05,2.05-2.02-.93-2.02-2.05Zm7.47-3.4c-.47-.78.16-1.75,1.35-2.22,2.64-1.04,4.07.11,2.84,2.11-1.13,1.85-3.04,1.85-4.18.11h-.01Zm73.24-18.65c1.35-.36,3.51-.36,4.8,0,1.35.31.25.62-2.36.62s-3.71-.31-2.42-.62h-.02Zm88.65-7.11c-5.42-2.73-9.84-5.2-9.84-5.62,0-.36,1.6-1.4,3.6-2.33,3.25-1.55,4.18-1.29,8.45,1.96,6.44,4.89,9.75,8.25,9.75,9.95,0,1.85-.62,1.65-11.96-3.96h0Zm-71.74,2.36c2.05-1.04,3.71-.98,5.45.05,2.11,1.18,1.6,1.44-2.95,1.4-4.75-.05-5.05-.2-2.53-1.44l.02-.02h.01Zm-292.33-9.64c-1.4-1.71-1.09-3.15,1.71-8.04,3.35-5.87,3.4-5.93,3.35-1.85,0,2.22-.78,5.82-1.71,7.98-1.44,3.35-1.91,3.65-3.35,1.91Zm90.29.16c-1.49-2.36-1.44-58.71,0-61.13,2.47-3.91,3.25,2.64,3.35,27.98.11,14.44.47,27.11.87,28.09.36,1.04-.16,3.04-1.18,4.44-1.55,2.11-2.05,2.22-3.04.62h0Zm258.42-2.58c0-.78.93-1.35,2.05-1.35s2.05.56,2.05,1.35c0,.73-.93,1.4-2.05,1.4s-2.05-.67-2.05-1.4Zm124-7.78c-1.29-3.09-2.64-4.27-4.64-4.07-2.53.25-2.78-.56-3.2-9.18-.31-7.64.05-9.69,1.85-10.73,1.75-.98,2.02-2.53,1.29-7.89-.78-5.56-.47-7.27,1.91-10.31,1.6-1.96,2.89-4.69,2.89-5.98s.82-3.09,1.85-3.91c1.04-.87,2.33-3.56,2.84-5.98l.93-4.38,2.11,3.04c2.78,4.02,4.53,3.91,4.53-.36,0-2.11.78-3.4,2.05-3.4,2.58,0,2.58,2.73,0,7.67-1.13,2.16-2.05,4.95-2.05,6.13s-.93,2.98-2.05,3.91c-1.13.93-2.02,3.82-2.02,6.35,0,2.89-.82,4.95-2.05,5.45-2.27.87-2.78,5.31-.78,6.55.67.47,1.65-.51,2.16-2.05.51-1.6,2.05-4.07,3.45-5.45s4.49-6.71,6.85-11.75c7.33-15.67,25.09-37.53,36.02-44.27,9.38-5.76,8.15-2.27-3.4,9.89-8.29,8.76-20.45,24.53-20.45,26.55,0,.36-1.55,3.04-3.4,6.04-5.31,8.4-14.33,31.55-14.33,36.85-.05,7.58-2.11,9.38-4.02,3.56-.93-2.73-2.11-4.95-2.73-4.95-.56,0-1.65,3.87-2.36,8.56l-1.4,8.51-1.8-4.38h-.05v-.02Zm2.84-18.82c0-1.13-.62-2.05-1.4-2.05-.73,0-1.35.93-1.35,2.05s.62,2.05,1.35,2.05c.78,0,1.4-.93,1.4-2.05Zm57.25,18.45c0-6.04,11.65-25.93,15.15-25.93,1.8,0,1.44,5.11-.42,5.73-1.85.67-.51,5.15,1.6,5.15.78,0,1.4-1.24,1.4-2.73s.93-2.73,2.05-2.73,2.02-.51,2.02-1.18c0-1.6,12.42-13.56,16.55-15.93,1.75-.98,4.8-2.58,6.65-3.4,1.85-.87,4.49-2.11,5.76-2.78s3.4-1.24,4.58-1.24,6.44-1.29,11.69-2.89c14.8-4.49,36.6-2.64,36.6,3.09,0,.73-1.13.67-2.58-.11-3.04-1.6-21.38.16-25.71,2.47-1.6.82-4.13,1.55-5.62,1.55-3.65,0-5.11,2.53-1.96,3.51,1.35.47,3.35,1.13,4.44,1.44,3.76,1.18-1.49,3.25-7.53,2.98-3.35-.16-6.85.67-8.87,2.02-3.56,2.53-14.22,3.15-15.62.93-1.29-2.11-2.58-1.65-7.58,2.84-14.33,12.84-16.96,14.89-19.02,14.89-2.58,0-7.67,6.49-8.91,11.38-1.29,5.15-4.69,5.82-4.69.93l.02.02h0Zm-202.18-5c.93-.42,2.78-.42,4.07-.05,1.35.31.62.62-1.65.67-2.27,0-3.35-.25-2.42-.62Zm-326.71-3.76c-.11-1.44.2-2.27.67-1.8.42.47.51,1.6.16,2.64-.47,1.09-.78.73-.82-.82l-.02-.02h.01Zm292.22.42c-.36-.62.73-1.49,2.42-1.96,4.89-1.24,21.96-.11,22.47,1.44.56,1.75-23.82,2.27-24.89.51v.02h0Zm41.69-5.31c0-.78,1.18-1.4,2.64-1.4s3.04.62,3.51,1.4-.67,1.35-2.67,1.35-3.45-.62-3.45-1.35h-.03Zm159-4.89c-.47-1.18-.82-3.82-.82-5.76v-3.65l2.73,4.07c1.49,2.27,2.67,4.89,2.67,5.82.05,2.42-3.6,2.11-4.58-.47h0Zm-135.49-1.49c-1.71-.36-3.04-1.18-3.04-1.91,0-.67-.87-1.24-1.85-1.24-1.04,0-5.25-1.8-9.33-4.02-4.13-2.16-9.89-4.44-12.84-4.95-5.82-1.04-12.93-4.44-18.24-8.65-3.2-2.53-3.25-2.73-.82-3.65,1.4-.56,5.25-.31,8.51.56,3.29.87,9.49,1.6,13.76,1.65,4.33,0,9.38.87,11.24,1.96,1.91,1.09,4.95,2.67,6.85,3.56l3.4,1.55-3.09,1.44c-3.65,1.71-3.91,3.51-.67,4.58,7.95,2.53,14.64,6.04,14.64,7.58,0,1.91-3.45,2.53-8.51,1.55l-.02-.02h.01Zm-13.35-15.93c-2.78,1.09-2.47,1.85.82,1.85,1.55,0,2.42-.56,2.02-1.29-.47-.73-1.71-.98-2.84-.56Zm330.62,12.05c1.6.47,2.53,1.44,2.11,2.16-1.09,1.71-4.38,1.6-5.45-.2-1.35-2.11.16-2.98,3.35-1.96h0Zm-175.8-1.09c0-1.09-.93-2.73-2.05-3.65-2.36-1.96-2.67-6.29-.56-7.58.78-.47,1.8.42,2.22,1.96.42,1.6,1.6,2.89,2.64,2.89,2.64,0,2.36-5.51-.42-7.53-1.35-.98-1.91-2.53-1.4-3.87,1.35-3.45,3.65-2.67,3.65,1.13,0,2.16.78,3.45,2.05,3.45,1.13,0,2.05-1.24,2.05-2.78s.93-3.15,2.02-3.56c1.13-.47,2.05-1.65,2.05-2.73s1.24-2.95,2.73-4.22,2.73-2.98,2.73-3.82c0-2.02,14.02-17,15.93-17,.82,0,1.91-.98,2.36-2.22s1.24-1.91,1.65-1.44c.67.67-6.18,10.62-9.07,13.2-3.29,2.98-12.89,16.75-14.95,21.55-1.4,3.15-3.04,5.42-7.05,9.53-1.18,1.29-2.42,3.51-2.67,4.95-.62,3.15-3.91,4.64-3.91,1.75h0Zm-42.98-2.33c-.98-3.25.42-10.87,2.02-10.87,1.29,0,2.42,7.58,1.71,11.24-.62,3.2-2.64,2.98-3.71-.36h-.02Zm98.91-8.35c0,1.18-5.98,5.62-7.53,5.62-.47,0,.31-1.49,1.65-3.35,2.42-3.29,5.87-4.64,5.87-2.27h.01Zm-395.09-6.65c.78-4.13,1.35-9.27,1.24-11.49-.11-4.13,7.22-18.51,9.49-18.51,1.91,0,1.49-7.84-.47-8.56-1.13-.42-.2-2.22,2.64-5.25,2.36-2.53,4.53-6.13,4.75-7.98.25-1.91,1.4-3.4,2.53-3.4,2.95,0,3.45,9.53.78,13.65-1.18,1.8-2.16,5.11-2.16,7.36,0,2.78-.93,4.58-2.95,5.67-2.73,1.44-2.78,1.75-.67,3.25,3.35,2.53,3.15,3.56-4.64,20.51-1.35,2.98-3.29,7.42-4.27,9.84-1.6,4.13-5.45,5.98-7.02,3.45-.36-.56,0-4.44.78-8.56l-.02.02h0Zm396.43,2.73c0-.78.67-1.35,1.4-1.35.78,0,1.35.56,1.35,1.35,0,.73-.56,1.4-1.35,1.4-.73,0-1.4-.67-1.4-1.4Zm-4.07-4.07c0-.78.62-1.4,1.35-1.4.78,0,1.4.62,1.4,1.4,0,.73-.62,1.35-1.4,1.35-.73,0-1.35-.62-1.35-1.35Zm8.2-.73c0-1.24.78-2.02,1.71-1.71,1.91.67,1.71,2.84-.36,3.56-.73.25-1.35-.56-1.35-1.85h0Zm-55.93-4.75c0-1.49.62-2.73,1.35-2.73.78,0,1.4,1.24,1.4,2.73s-.62,2.73-1.4,2.73c-.73,0-1.35-1.24-1.35-2.73Zm51.8,2.11c0-.31.62-.98,1.4-1.44.73-.47,1.35-.2,1.35.62s-.56,1.44-1.35,1.44c-.73,0-1.4-.25-1.4-.62Zm8.82-.82c-1.29-2.11.51-3.45,2.27-1.71.98.98.98,1.75.05,2.33-.78.47-1.8.2-2.33-.62h.01Zm94.84-2.67c-1.8-1.18-1.8-1.49,0-2.67,1.13-.73,2.78-1.35,3.65-1.4,2.58,0,3.71,2.89,1.65,4.22-2.36,1.49-2.78,1.49-5.31-.16v.02h0Zm-99.53-.56c0-1.35,6.49-7.58,7.89-7.58.78,0,1.6-.51,1.85-1.09.82-1.96,10.82-7.47,11.8-6.49.51.51-.16,1.55-1.44,2.27-1.35.73-2.36,2.16-2.36,3.25s-1.24,2.27-2.73,2.73c-3.2,1.04-3.65,3.4-.73,3.4,1.13,0,2.05.93,2.05,2.05,0,2.33-2.11,2.73-3.4.67-.47-.78-2.27-1.4-4.07-1.4s-3.65.62-4.13,1.4c-.82,1.35-4.75,1.96-4.75.78h.02Zm-417.2-3.51c0-1.49.56-2.73,1.35-2.73.73,0,1.4,1.24,1.4,2.73s-.67,2.73-1.4,2.73c-.78,0-1.35-1.24-1.35-2.73Zm365.36-1.29c0-.78.67-1.44,1.4-1.44.78,0,1.35.25,1.35.62,0,.31-.62.98-1.35,1.44-.78.47-1.4.2-1.4-.62Zm72.67-.87c.42-.47,1.6-.51,2.58-.11,1.09.42.78.73-.82.78-1.4.11-2.22-.25-1.75-.67h-.02.01Zm-108.33-72.36c-.67-3.45-3.87-3.91-3.87-.56,0,1.65.87,2.84,2.16,2.84s1.96-.93,1.71-2.27h0Zm-66.58-10.25c3.96-2.89,5.25-5.2,2.98-5.2-.62,0-2.33.87-3.76,2.02-2.78,2.11-25.87,3.04-26.75,1.04-.2-.56-2.42-2.05-4.84-3.35-4.27-2.22-4.44-2.22-4.44.25,0,1.49,1.29,2.98,3.04,3.51,1.71.51,3.96,1.75,5.11,2.73,4.8,4.18,22.58,3.56,28.65-.98v-.02h.01Zm9.22-9.07c.82-2.42-2.02-1.91-2.95.56-.51,1.35-.2,1.96.78,1.6.87-.25,1.85-1.24,2.16-2.16h.01Zm-13.56-3.65c3.6-1.91,8.35-5.25,10.45-7.53,3.4-3.51,3.76-4.58,2.64-7.78-.73-2.05-3.04-4.58-5.11-5.56-3.29-1.6-4.27-1.44-8.45,1.13l-4.75,2.95-4.58-4.89c-4.22-4.49-5.25-4.89-12.36-4.89-8.96,0-15.05,2.67-16.29,7.11-.73,2.58.73,4.69,8.56,12.27,9.27,8.91,10.42,9.49,20.93,10.42,1.35.16,5.36-1.29,8.96-3.2v-.02h0Zm83.38-7.58c0-.78-.56-1.04-1.35-.56s-1.35,1.09-1.35,1.44c0,.31.56.56,1.35.56s1.35-.62,1.35-1.44Zm4.13-4.02c0-.78-.67-1.35-1.44-1.35-.82,0-1.09.56-.62,1.35.47.73,1.13,1.4,1.44,1.4.36,0,.62-.67.62-1.4Zm4.07-4.07c0-.78-.56-1.35-1.35-1.35-.73,0-1.4.56-1.4,1.35,0,.73.67,1.4,1.4,1.4.78,0,1.35-.67,1.35-1.4Zm5.45-4.8c0-1.09-.56-2.02-1.29-2.02-1.71,0-2.95,2.11-1.85,3.2,1.55,1.55,3.15.93,3.15-1.18h-.01Zm-72.51-6.18c3.6-3.35,4.22-12.22.87-12.22-2.05,0-4.27,4.38-5.67,11.29-.87,4.44.67,4.75,4.8.93Zm-66.8-11.65c-.36-3.2-1.18-4.07-4.22-4.38-3.56-.42-3.71-.16-3.71,5.45s2.89,12,5.45,12c.67,0,1.6-2.05,2.05-4.58.47-2.47.67-6.35.42-8.51v.02h.01Zm53.4-4.64c-3.04-2.02-4.07-1.71-4.07,1.35s1.04,3.35,4.07,1.35c1.8-1.18,1.8-1.49,0-2.67v-.02h0Zm-36.95.82c2.27-1.29,4.8-1.49,8.35-.67,9.22,2.05,23.15.16,23.15-3.15,0-3.65-30.15-3.09-35.87.67-6.13,4.02-2.22,6.8,4.38,3.15h-.01Zm-101.27-22.27c-.47-.47-.82.36-.73,1.75.05,1.6.36,1.96.82.82.36-.98.31-2.11-.11-2.58l.02.02h0Zm135.85-4.8c3.56-1.65,6.49-3.51,6.49-4.07,0-1.96-7.47-.98-12.98,1.65-7.02,3.4-10.56,3.4-13.6,0-1.4-1.49-3.87-2.73-5.51-2.73s-3.82-.87-4.75-2.02c-1.91-2.33-7.58-2.78-8.82-.73-.47.73.93,1.71,2.98,2.22,2.11.51,4.64,1.6,5.67,2.42,2.33,1.85,15.93,5.93,20.62,6.13,1.85.11,6.35-1.18,9.89-2.89v.02h.01Zm-11.24-37.31c0-1.4-1.91-1.91-6.71-1.91-5.51,0-6.75.47-7.36,2.73-.56,2.33-.05,2.73,3.6,2.67,2.36,0,5.67-.36,7.36-.82s3.09-1.65,3.09-2.67h.02Zm-391.36,192.54c0-1.09.62-2.36,1.4-2.84.73-.47,1.35.42,1.35,1.96s-.62,2.84-1.35,2.84c-.78,0-1.4-.87-1.4-1.96Zm465.23-1.04c-2.22-2.22-2.05-5.87.42-10.67,1.4-2.67,2.73-3.71,4.18-3.15,1.8.67,1.96,0,1.18-4.18-.93-4.95,1.04-7.05,2.64-2.78,1.09,2.73,3.56,1.18,3.56-2.22,0-1.49.93-2.67,2.05-2.67s2.05-1.18,2.05-2.73-.67-2.73-1.44-2.73c-.82,0-.98-.73-.47-1.6.82-1.29,1.13-1.29,1.6,0,.73,2.11,4.38,2.11,4.38-.05,0-1.65,3.96-5.45,9.64-9.22,1.71-1.13,4.22-3.15,5.62-4.44,1.35-1.35,3.29-2.42,4.33-2.42s3.4-1.35,5.25-3.04c4.07-3.65,9.33-6.85,10.05-6.13.82.82-7.73,10.56-9.33,10.56-.82,0-10.25,8.82-20.87,19.58-15.56,15.82-19.47,20.56-20.25,24.53-.98,5.25-1.96,5.98-4.58,3.35h-.02.01Zm-325.22-16.13c2.42,0,2.27,4.75-.25,6.85-1.13.93-2.05,3.15-2.05,4.95,0,3.87-2.16,4.27-3.35.62-.98-3.15,3.2-12.42,5.67-12.42h-.02Zm441.49,13.65c.47.73-.11,1.35-1.24,1.35s-2.16-.25-2.16-.56c0-1.44,2.64-2.05,3.4-.78h0Zm-577.4-3.4c0-1.13.56-2.05,1.35-2.05.73,0,1.4.93,1.4,2.05s-.67,2.05-1.4,2.05c-.78,0-1.35-.93-1.35-2.05Zm34.64-2.58c-.73-1.85-.05-3.25,2.33-5.05,6.07-4.69,7.11-2.84,2.02,3.51-3.04,3.76-3.4,3.87-4.33,1.55h-.02Zm289.74-4.95c-1.4,0-8.09-6.07-8.09-7.33,0-1.75,4.18-.78,4.95,1.18.42,1.13,1.65,2.05,2.67,2.05s1.91.93,1.91,2.05.93,2.47,2.05,2.89c2.33.87,2.78,3.25.62,3.25-.78,0-1.75-.93-2.16-2.05-.47-1.13-1.35-2.05-1.96-2.05h.02,0Zm-310.78-1.35c0-.78.62-1.4,1.4-1.4.73,0,1.35.62,1.35,1.4,0,.73-.62,1.35-1.35,1.35-.78,0-1.4-.62-1.4-1.35Zm20.36-11.91c7.02-3.87,7.05-.98.05,6.07-7.36,7.53-11.44,8.96-12.58,4.49-.73-2.58,1.6-4.53,12.53-10.56Zm328.31,8.35c-.51-.56-.98-1.96-.98-3.09,0-1.55.42-1.71,1.49-.56.87.82,1.29,2.22,1.04,3.09-.31.87-.98,1.13-1.55.56h0Zm-346.43-9.53c1.91-1.44,5.76-4.58,8.51-7.02s5.93-4.38,7.11-4.44c1.13,0,2.84-.78,3.71-1.65,1.29-1.29,1.65-1.13,1.65.67,0,1.29-1.13,3.4-2.53,4.69-5.31,5-11.07,9.58-13.09,10.36-1.18.47-2.11,1.44-2.11,2.22s-1.55,1.44-3.4,1.44c-1.96,0-3.4-.82-3.4-1.85s1.6-3.04,3.56-4.44l-.02.02h0Zm115.09,2.16c0-2.27.56-4.07,1.35-4.07s1.4,1.8,1.4,4.07-.62,4.13-1.4,4.13-1.35-1.91-1.35-4.13Zm115.24-.2c2.22-.51,6.91-2.05,10.42-3.4,4.84-1.85,6.85-2.05,8.04-.93,2.36,2.42.2,4.53-4.64,4.58-2.42.05-5.56.93-7.02,2.05-3.25,2.47-12.16,2.73-11.35.31.31-.93,2.36-2.11,4.53-2.64l.02.02h0Zm59.27,2.98c-1.71-1.09-1.71-1.4.36-2.16,2.78-1.09,6.38.11,6.38,2.05,0,1.75-4.07,1.8-6.75.11h.01Zm-29.02-.93c.93-.42,2.47-.42,3.4,0,.93.36.16.67-1.71.67s-2.64-.31-1.71-.67h.02Zm18.76-4.58c.47-.73,1.71-1.35,2.73-1.35s2.27.62,2.73,1.35c.47.78-.67,1.4-2.73,1.4s-3.25-.62-2.73-1.4Zm-247.43-2.58c0-1.71.87-2.89,2.11-2.89s1.96.93,1.71,2.33c-.62,3.4-3.82,3.87-3.82.56h0Zm85.91-6.49c0-6.75,2.95-18.71,6.44-25.98,1.44-3.04,1.71-4.95.73-6.13-.73-.98-1.75-4.38-2.27-7.64-.78-4.95-.16-7.36,4.18-16.35,7.22-15.11,12.73-21.96,12.73-15.87,0,3.09-8.09,26.65-10.36,30.2-2.67,4.22-2.42,7.05,1.04,9.84l2.98,2.42-2.98,5.67c-1.6,3.15-2.95,7.89-2.95,10.56s-.87,6.49-1.96,8.51c-1.09,1.96-2.33,5.31-2.78,7.36-.42,2.05-1.71,3.71-2.78,3.71-1.49,0-2.02-1.65-2.02-6.35l.02.04h-.02Zm371.49,5c.47-.78,1.44-1.4,2.11-1.4.73,0,1.29.62,1.29,1.4,0,.73-.93,1.35-2.11,1.35s-1.75-.62-1.29-1.35Zm14.02-10.87c.98,0,2.11-.98,2.53-2.05.47-1.13,1.91-2.05,3.2-2.05s3.2-.93,4.13-2.05c2.11-2.47,8.65-2.78,7.84-.31-.31.93-1.71,1.91-3.15,2.16-1.44.31-3.09,1.35-3.71,2.42-.56,1.04-2.05,1.85-3.2,1.85s-3.65,1.24-5.56,2.73-4.33,2.73-5.36,2.73-1.85.62-1.85,1.4c0,.73-1.35,1.35-2.98,1.35-2.73,0-2.58-.36,1.71-4.02,2.58-2.22,5.51-4.07,6.44-4.13l-.02-.02h-.02Zm-206.98-2.22c0-1.18.78-1.91,1.65-1.6,2.53.82,2.95,3.76.51,3.76-1.18,0-2.16-.98-2.16-2.16h0Zm-272.63-4.27c0-2.64.62-3.2,3.04-2.84,4.13.56,5.36,7.95,1.4,7.95-1.44,0-3.04-.47-3.51-.93-.51-.56-.93-2.36-.93-4.18h0Zm126.02-1.6c1.18-1.29,2.16-4.07,2.16-6.13,0-2.84.56-3.6,2.36-3.29,1.8.36,2.53,2.05,2.78,6.75.42,5.56.11,6.38-2.67,7.11-4.33,1.18-4.89,1.13-5.93-.56-.51-.78.05-2.53,1.29-3.87h.01Zm137.04.62c2.11-1.35,5.93.25,4.84,1.96-1.04,1.71-2.16,1.71-4.58.16-1.35-.82-1.44-1.4-.25-2.11v-.02h-.01Zm-278.56-7.02c3.6-1.24,4.44-1.09,5.76,1.04,1.41,2.27.5,3.97-2.73,5.11-5.42,1.91-5.56,1.85-8.6-.36-2.89-2.05-1.85-3.15,5.56-5.76v-.02h.01Zm468.74-2.64c5.15-4.84,10.2-8.82,11.18-8.82s2.22-.78,2.84-1.71c1.44-2.33,9.58-6.49,12.53-6.49,1.29,0,3.56-.93,5-2.02,2.89-2.16,6.07-2.73,6.04-1.09-.11,1.4-9.27,7.16-11.44,7.16-.93,0-2.78,1.24-4.18,2.73-1.35,1.49-3.29,2.73-4.33,2.73s-1.85.42-1.85,1.04c0,.56-2.73,2.58-6.07,4.44-3.35,1.8-6.38,4.13-6.75,5.05-.42.98-1.71,1.75-2.89,1.75s-3.09.93-4.22,2.05-2.78,2.02-3.65,2.02,2.64-3.96,7.84-8.87l-.04.04h-.01Zm-201.42,6.04c1.09-1.09,2.22-1.09,4.02-.05,2.22,1.29,2.02,1.49-1.49,1.49-2.95.05-3.6-.36-2.53-1.44h0Zm-13.25-3.96c0-.78,1.49-1.35,3.35-1.35s3.71.62,4.18,1.35c.47.82-.93,1.4-3.35,1.4-2.27,0-4.18-.67-4.18-1.4Zm-12.73-2.27c-1.91-1.96-.73-3.2,3.09-3.2,5,0,6.6,2.16,2.47,3.25-3.91,1.09-4.44,1.04-5.56-.05Zm-232.65-1.8c0-.78.87-1.4,2.02-1.4s2.05.62,2.05,1.4c0,.73-.98,1.35-2.05,1.35s-2.02-.62-2.02-1.35Zm.87-6.38c-1.44-1.44-1.04-7.02.67-8.04,1.91-1.18,5.25,3.04,5.25,6.49,0,2.42-3.96,3.51-5.93,1.55h0Zm132.04-1.8c-.47-.78-.47-2.58,0-4.02.82-2.64.87-2.64,3.56.05,2.84,2.84,2.42,5.36-.82,5.36-1.04,0-2.27-.62-2.73-1.4h-.02.01Zm304.74-4.75c0-1.13.62-2.05,1.35-2.05.78,0,1.4.93,1.4,2.05s-.62,2.02-1.4,2.02c-.73,0-1.35-.93-1.35-2.02Zm-442.67-6.07c1.85-.73,3.76-1.91,4.27-2.73,1.09-1.75,11.65-1.96,11.65-.2,0,1.44-3.35,2.84-6.8,2.84-1.35,0-3.2.93-4.13,2.05-1.96,2.33-6.24,2.73-7.53.67-.47-.73.67-1.91,2.53-2.64h.01Zm580.74,1.8c.47-.42,1.65-.47,2.64-.11,1.09.47.78.78-.82.82-1.44.05-2.27-.25-1.8-.73l-.02.02Zm-442.56-1.44c-.51-.51-.93-2.64-.93-4.69s-.73-5.42-1.6-7.36c-1.35-2.95-1.18-4.22.93-7.89,1.4-2.36,2.98-4.75,3.6-5.11.56-.42,1.18-7.64,1.35-16.04.2-13.6,1.24-18.4,3.4-16.24,1.29,1.29.78,27.98-.56,30.4-.93,1.65-.87,3.2.2,4.89,1.18,1.91.98,3.45-.98,7.11-1.71,3.09-2.22,5.93-1.65,8.65.87,3.91-1.75,8.25-3.76,6.24l.02.04h-.02Zm-134.56-14.27c0-1.65.2-2.73.42-2.42s1.18,1.65,2.22,2.98c1.55,2.02,1.49,2.36-.42,2.36-1.35,0-2.22-1.13-2.22-2.95v.02h0Zm287.63-5.25c3.15,0,4.13.62,4.13,2.58,0,3.65-4.38,5.31-8.04,2.98-3.15-2.02-.62-5.56,3.91-5.56Zm274.54,1.49c6.18.2,11.75,2.02,9.13,2.98-4.38,1.65-11.65,2.22-13.45,1.09-2.98-1.85-.47-4.22,4.33-4.07h-.01Zm-141.67-10.45c5.67-5.56,9.02-10.25,9.02-12.58,0-1.35.98-1.71,3.29-1.09,2.84.67,3.76,0,6.38-4.64,1.71-2.98,3.56-5.45,4.18-5.45,1.4,0,7.95-12.89,7.95-15.62,0-1.13,1.49-3.04,3.29-4.22,2.27-1.44,3.6-3.96,4.22-7.84.51-3.15,2.11-6.8,3.56-8.15,1.4-1.35,2.58-3.71,2.58-5.15s.67-2.67,1.49-2.67c.93,0,1.24,1.65.73,4.44-.42,2.47-1.35,7.84-2.05,11.96s-3.2,11.18-5.51,15.67c-2.27,4.53-4.18,8.82-4.18,9.58-.05.78-4.8,5.73-10.56,10.93-5.82,5.2-13.91,12.93-18.09,17.16-6.6,6.71-13.65,11.18-13.65,8.71,0-2.02,3.4-7.11,7.36-11.04v-.02.02Zm-417.78,8.45c0-1.13.62-2.42,1.4-2.89.73-.47,1.35.05,1.35,1.18s-.62,2.42-1.35,2.89c-.78.47-1.4-.05-1.4-1.18Zm13.65.51c0-.78.98-1.35,2.11-1.35s1.75.56,1.29,1.35c-.47.73-1.4,1.4-2.11,1.4s-1.29-.67-1.29-1.4Zm261-2.84c-.47-.82-.2-2.22.67-3.04,1.18-1.24,1.85-1.13,2.78.36,1.29,2.11.67,4.18-1.35,4.18-.62,0-1.6-.67-2.11-1.49v-.02h0Zm-252.23-10.93c-.51-.82-2.36-1.24-4.18-.87-4.53.87-4.38-3.96.2-6.07,1.85-.82,3.4-2.67,3.4-4.02s.62-2.53,1.4-2.53c2.27,0,3.15,3.96,1.35,6.13-2.05,2.42-.87,6.13,1.91,6.13,1.09,0,2.36.62,2.84,1.4.47.73-.62,1.35-2.58,1.35-1.85,0-3.87-.67-4.33-1.49v-.02h-.01Zm531.16.31c0-1.55,6.29-2.78,9.69-1.91,4.8,1.24,2.67,3.09-3.56,3.09-3.35,0-6.13-.56-6.13-1.18Zm-165.69-31.18c2.58-6.6,4.49-20.2,3.82-27.62-.78-8.35.82-10.87,3.6-5.67,1.91,3.56.2,27.05-2.11,29.02-1.04.82-1.85,2.67-1.85,4.07s-.98,2.58-2.22,2.58c-1.55,0-1.91-.73-1.24-2.36v-.02h0Zm-245.94-18.09c2.27,0,1.44,9.18-.87,10.11-3.45,1.29-3.6,1.09-2.58-3.6,1.13-5.36,1.75-6.49,3.45-6.49v-.02h0Zm156.78-2.73c.67,0,1.24,2.78,1.24,6.13,0,6.96-1.96,8.25-3.2,2.05-.87-4.38.05-8.2,1.96-8.2v.02h0Zm-156.11-9.53c2.42,0,2.47,1.49.16,4.69-1.75,2.36-1.91,2.36-2.73.16-1.13-2.89-.05-4.84,2.58-4.84l-.02-.02h.01Zm149.2.36c.05-6.13,2.22-8.29,3.35-3.29.93,4.38.16,7.02-2.11,7.02-.67,0-1.24-1.65-1.24-3.71v-.02Zm113.13.98c0-1.75.73-2.67,1.75-2.36.93.31,1.71,1.4,1.71,2.36,0,1.04-.78,2.11-1.71,2.42-1.04.31-1.75-.67-1.75-2.42Zm-261.2-8.76c-.42-1.04-.11-3.09.67-4.53s1.04-4.02.56-5.73c-.56-2.05-.11-3.51,1.29-4.33,1.65-.93,1.85-2.22.98-6.24-1.29-5.56.05-7.47,4.75-6.91,1.75.25,3.04,1.96,3.82,4.95,1.49,5.76.56,8.4-2.98,8.4-3.04,0-3.4.98-1.49,3.96.82,1.35.31,3.71-1.44,7.16-2.73,5.42-4.89,6.55-6.13,3.25h-.04v.02Zm161.67-.78c0-1.49.62-2.73,1.35-2.73.78,0,1.4-1.6,1.4-3.51,0-2.42.87-3.76,2.73-4.27,1.49-.36,2.73-1.24,2.73-1.91s.93-1.18,2.02-1.18c3.09,0,2.53,1.6-2.33,6.85-2.42,2.58-4.49,5.15-4.58,5.73-.16.56-.31,1.65-.42,2.42-.31,2.58-2.89,1.35-2.89-1.4h0Zm-34.07-11.96c.05-5.42,3.82-11.24,7.22-11.24,1.09,0,3.82-.87,5.93-2.02,2.16-1.13,5.82-2.05,8.15-2.05s5-.87,5.87-1.96c.93-1.09,3.35-2.33,5.45-2.78,2.16-.51,4.44-2.27,5.31-4.18.82-1.85,2.05-3.35,2.78-3.35,2.05,0,2.64-6.71.73-8.29-1.44-1.18-2.22-.73-3.45,2.02-1.96,4.27-2.73,4.38-5.98.82-1.35-1.49-3.25-2.73-4.22-2.73-2.22,0-5.31,5.36-4.84,8.35.51,3.29-9.07,4.58-12.31,1.65s-3.15-5.87.25-5.87c3.15,0,3.29-.51,1.35-4.18-1.18-2.16-2.36-2.47-7.47-1.75-3.4.47-6.13.47-6.13,0s2.64-3.51,5.87-6.71c7.47-7.53,15-10.2,22-7.89,4.49,1.49,5.25,1.4,6.91-.87,1.75-2.42,1.96-2.42,5.67.36,2.11,1.55,4.95,5.05,6.29,7.84,2.67,5.67,3.25,5.82,7.64,2.78,2.42-1.71,2.98-3.09,2.42-5.93-.82-4.07.2-9.58,1.8-9.58.51,0,1.65,1.49,2.53,3.4,2.05,4.58,3.82,4.27,4.84-.78.47-2.33,1.44-3.82,2.22-3.35,1.96,1.24,1.71,7.11-.36,7.89-.93.36-3.15,3.51-4.84,6.96-1.75,3.51-3.71,6.35-4.44,6.35-.67,0-3.65,2.11-6.55,4.75s-5.93,4.8-6.8,4.8c-.82,0-1.44,1.71-1.29,3.76.47,7.16-.36,10.56-3.6,14.53-2.84,3.45-3.6,3.76-5.51,2.16s-2.78-1.18-6.65,3.29c-4.27,4.95-4.64,5.05-10.82,4.18-5.15-.78-7.27-.42-11.13,1.85l-4.8,2.84v-5.05l-.04-.02h0Zm142.09-2.22c-6.24-1.6-13.56-9.02-11.75-11.91.67-1.13,1.55-.82,2.84.98,1.55,2.11,2.33,2.27,4.53.87,1.44-.87,3.51-1.29,4.53-.87,1.09.42,5.2-.82,9.18-2.78,7.36-3.56,12.22-4.44,12.22-2.27,0,.67-1.04,1.6-2.22,2.05-1.49.56-2.02,1.96-1.55,4.27.47,2.58-.2,4.07-2.95,5.93-6.8,4.8-8.71,5.25-14.84,3.71v.02h0Zm-21.24-1.49c-.47-1.13-.42-2.98,0-4.13,1.09-2.78,4.58,0,4.58,3.6,0,3.04-3.45,3.45-4.58.51v.02Zm-15.31-7.02c.42-1.13-.16-3.82-1.29-5.98-1.09-2.16-2.02-6.04-2.02-8.56s-.67-6.6-1.55-9.02c-.82-2.36-1.18-4.64-.82-5.05,1.09-1.09,7.84,5.67,7.84,7.84,0,1.09.93,3.29,2.11,4.95,1.49,2.22,1.96,5.67,1.71,12.78-.42,10.25-2.36,13.25-5.2,7.98-.87-1.6-1.18-3.87-.78-4.95v.02h0Zm100.71-3.4c-1.24-3.25-.93-4.49,2.67-9.38,2.64-3.56,4.84-5.31,6.07-4.84,1.09.42,2.58.78,3.25.78,2.64,0,1.13,2.84-2.11,4.07-1.85.73-3.15,2.05-2.84,3.04,1.29,4.18,2.05,13.29,1.09,13.2-.56-.11-2.27-.82-3.87-1.6-1.55-.82-3.51-3.15-4.27-5.25v-.02h.01Zm-414.83,4.27c0-.78.25-1.4.56-1.4.36,0,.98.62,1.44,1.4.47.73.2,1.35-.56,1.35-.82,0-1.44-.62-1.44-1.35Zm204.4-11.55c1.13-.73,5.51,5.76,5.51,8.04,0,1.09-4.8.93-5.87-.16-1.4-1.35-1.09-7.02.36-7.89v.02h0Zm-112.93.67c-1.96-7.67-1.35-9.58,3.25-9.58,5.36,0,7.47,3.2,5.62,8.45-3.51,10.2-6.44,10.56-8.87,1.13h0Zm192.09,4.22c0-.78.62-1.75,1.35-2.22.78-.47,1.4-.25,1.4.51s-.62,1.75-1.4,2.22c-.73.47-1.35.2-1.35-.51Zm.47-10.45c-1.6-2.47-3.35-6.38-3.82-8.65-.87-3.76-.51-4.27,4.13-6.24,6.44-2.67,8.4-2.64,9.33.31.62,1.96-4.33,16.96-6.13,18.6-.31.25-1.91-1.55-3.51-4.02h0Zm89.53,1.49c0-2.36.82-2.73,2.02-.82.42.67.16,1.65-.62,2.11s-1.4-.11-1.4-1.29h0Zm-22.47-.78c-.47-.73-2.53-1.35-4.64-1.35s-4.95-1.24-6.29-2.73c-1.91-2.11-3.51-2.53-7.58-1.85-4.02.62-5.98.16-9.33-2.33-5.05-3.76-5.25-5.05-1.18-6.6,1.71-.67,5.11-3.71,7.58-6.8,4.49-5.56,7.47-6.96,9.22-4.18.47.82-.42,1.8-2.02,2.22-3.25.87-3.91,4.53-.78,4.53,1.13,0,3.09-1.24,4.38-2.73,1.4-1.6,4.02-2.73,6.49-2.73,5.73,0,22.73,6.18,24.16,8.76,1.04,1.8.2,2.16-5.42,2.16-6.55,0-9.89,1.65-9.89,4.95,0,.93,1.71,1.85,3.76,2.11,2.22.25,3.76,1.24,3.76,2.47s-1.55,2.22-3.76,2.47c-2.05.25-3.76,1.04-3.76,1.71,0,1.71-3.71,1.65-4.75-.11l.04.02h.01Zm-190.69-.87c-1.44-1.49-1.04-8.4.56-9.38,2.47-1.55,3.71-6.6,2.33-9.33-1.09-2.02-.31-3.56,3.87-7.84,2.84-2.89,5.93-5.31,6.85-5.31,2.78,0,3.4,2.36,1.18,4.58-1.13,1.13-2.05,2.64-2.05,3.35s-.82,2.02-1.85,2.84-1.6,2.95-1.35,4.58c.31,1.71-.82,5.15-2.58,7.73-1.71,2.58-3.76,5.76-4.58,7.16-.82,1.35-1.91,2.05-2.36,1.6l-.02.02h0Zm28.4-5.93c5.51,0,7.27,2.02,3.56,4.02-3.25,1.75-5.67,1.8-8.15.2-2.98-1.91-.47-4.22,4.58-4.22h.01Zm14.33-1.35c0-.78.62-1.4,1.35-1.4.78,0,1.4.62,1.4,1.4,0,.73-.62,1.35-1.4,1.35-.73,0-1.35-.62-1.35-1.35Zm215.74-6.38c-2.42-.98-5.76-7.84-5.76-11.8,0-2.64.93-3.51,4.27-4.18,2.36-.47,4.8-.82,5.45-.82,1.85,0,1.4,3.76-.51,4.49-1.13.47-.67,1.44,1.35,2.95,6.29,4.64,2.36,12.27-4.8,9.38v-.02h0Zm-205.33-9.58c-1.55-1.55-.93-3.15,1.18-3.15,1.13,0,2.05.56,2.05,1.29,0,1.71-2.16,2.95-3.25,1.85h.02Zm6.91-4.02c-1.09-1.09.16-3.2,1.85-3.2.73,0,1.29.93,1.29,2.05,0,2.05-1.6,2.67-3.15,1.13v.02h.01Zm65.87-3.29c0-5.25,3.2-4.8,3.82.51.31,2.64-.16,3.65-1.71,3.65-1.44,0-2.11-1.29-2.11-4.18v.02Zm7.33,2.22c-.47-1.24.2-4.95,1.44-8.25,2.22-5.76,2.22-6.07-.36-8.65-2.33-2.33-2.58-4.27-2.27-15.62.2-7.16.73-13.56,1.13-14.27,1.09-1.71-2.89-18.09-5.31-21.75-2.78-4.33-2.58-9.95.42-9.89,5.93.11,11.18,9.38,11.24,19.8,0,2.33.73,4.84,1.55,5.67,1.75,1.75.93,17.58-1.44,28.35-1.24,5.73-1.13,7.05.56,8.35,2.64,1.91,2.64,3.82.11,5.93-1.09.87-2.16,3.82-2.36,6.55-.47,5.2-3.25,7.47-4.69,3.82v-.02l-.02-.02Zm49.95-.78c0-.78,1.85-1.35,4.07-1.35s4.13.56,4.13,1.35c0,.73-1.85,1.4-4.13,1.4s-4.07-.67-4.07-1.4Zm-115.91-4.07c0-.78.93-1.4,2.05-1.4s2.05.62,2.05,1.4c0,.73-.93,1.35-2.05,1.35s-2.05-.62-2.05-1.35Zm-53.6-1.71c-2.78-.93-3.71-2.05-3.4-4.13.67-4.53,4.53-6.07,7.84-3.09,5.25,4.69,2.27,9.53-4.44,7.22Zm12.67-7.84c0-1.71,1.49-1.71,4.13,0,1.65,1.04,1.44,1.29-1.04,1.35-1.71,0-3.09-.62-3.09-1.35Zm216.56-8.96c-6.24-7.53-5.73-10.62,1.44-9.33,6.18,1.13,7.02,1.6,7.02,3.96,0,1.04,1.4,2.84,3.04,4.02,2.47,1.71,2.78,2.64,1.6,4.53-2.89,4.53-7.67,3.4-13.09-3.2v.02h0Zm-222.6-.2c-1.09-2.84,2.78-6.13,6.6-5.56,4.33.67,3.96,3.4-.67,5.73-5.36,2.67-4.84,2.67-5.93-.16h0Zm152.25-3.09c2.84,0,3.15,1.44.82,3.82-1.85,1.8-6.55,2.22-6.55.51,0-1.91,3.2-4.33,5.73-4.33Zm-70.2-.67c-4.38-3.87-4.64-4.8-1.18-4.8,3.87,0,11.07,4.07,11.07,6.24,0,3.04-5.73,2.22-9.89-1.44Zm156.98-9.22c-5.15-4.44-5.56-7.05-1.71-10.73,2.78-2.64,3.82-2.89,5.93-1.55,2.02,1.24,3.45,1.13,6.8-.51,8.2-4.13,11.38,1.18,4.02,6.6-2.33,1.71-4.8,4.49-5.42,6.18-1.55,3.87-5.05,3.87-9.64,0h.02Zm-229.91-.67c-6.44-.78-5.93-4.44.67-4.49,2.84,0,7.42-.36,10.25-.82,4.13-.73,5.11-.47,5.11,1.29,0,1.24-1.18,2.84-2.64,3.6-2.64,1.4-4.95,1.49-13.4.42h.01Zm79.02-6.07c-2.22-2.22-2.05-3.82.42-3.82,1.13,0,2.05,1.18,2.05,2.73,0,3.15-.25,3.29-2.47,1.09h0Zm56.44.42c-1.35-2.11,5.67-3.45,9.18-1.75,2.84,1.35,2.84,1.44.25,1.55-1.49.05-4.02.47-5.62.87s-3.35.16-3.82-.67h.01Zm61.49.31c-2.02-2.02-.67-6.71,2.58-9.07,3.51-2.58,6.04-2.11,6.04,1.13,0,1.09,1.91,2.95,4.18,4.07,2.27,1.18,3.76,2.73,3.29,3.45-.87,1.49-14.69,1.8-16.07.42h-.02,0Zm-176.67-6.24c-.67-1.71-.93-3.56-.56-4.13.82-1.44,14.07-1.24,14.07.2,0,1.09-9.89,6.96-11.69,6.96-.36,0-1.18-1.4-1.8-3.04h-.02Zm-60.15-5c-6.85-1.4-12.27-5.31-12.27-9.02,0-4.49,3.4-5.11,10.51-1.91,7.89,3.6,11.91,7.33,10.82,10.05-.82,2.27-1.6,2.33-9.07.87h.02-.01Zm77.73-6.96c0-.78,1.24-1.35,2.73-1.35s2.73.56,2.73,1.35c0,.73-1.24,1.4-2.73,1.4s-2.73-.67-2.73-1.4Zm-15-29.89c0-.73,1.4-1.71,3.09-2.16,1.65-.47,5-1.75,7.42-2.84,2.73-1.24,6.29-1.65,9.53-1.13,4.22.67,5.73.25,7.78-2.02,3.04-3.35,8.71-3.71,12.47-.87,2.47,1.85,2.11,2.02-4.33,2.05-3.87,0-8.76.98-10.93,2.05-2.16,1.13-6.13,2.05-8.87,2.05s-5.67.93-6.65,2.05c-1.8,2.22-9.53,2.84-9.53.78l.02.02v.02Zm60.35-3.15c-5.62-1.8-5.67-3.29-.05-4.13,5.98-.87,9.49.25,8.96,2.89-.51,2.73-3.2,3.09-8.91,1.24h0Zm15.87-3.04c3.35-1.09,9.89.51,8.91,2.16-.98,1.6-9.75,1.55-10.76-.05-.42-.73.42-1.65,1.85-2.11h0Zm15.62-.67c1.85-.67,3.76-1.91,4.22-2.67.51-.82,3.4-1.49,6.38-1.49,7.27,0,6.38,2.98-1.29,4.53-3.15.62-5.73,1.71-5.73,2.36,0,1.75-5.05,1.65-6.13-.05-.47-.78.67-1.96,2.53-2.67h.02,0Zm-37.87-2.64c1.24,2.02-1.91,3.87-6.6,3.91-3.4,0-3.65-.31-2.36-2.73,1.6-2.95,7.42-3.71,8.96-1.18h0Zm-72.36-19.27c1.35,2.22-.25,5.45-2.67,5.45-1.13,0-2.11-.82-2.11-1.85,0-2.78,3.6-5.45,4.8-3.6h-.02Zm2.98-1.24c-1.13-2.22-1.71-4.33-1.35-4.69.82-.82,5.87,4.18,5.87,5.87,0,3.15-2.73,2.47-4.53-1.18h.01Zm22.93-9.64c-1.49-2.42.87-4.33,4.33-3.51,2.58.67,4.22-.05,7.16-3.25,3.87-4.13,5.51-4.18,5.51-.2,0,2.33-10,8.29-13.87,8.29-1.29,0-2.67-.62-3.15-1.35l.02.02Zm126.94-4.89c-1.18-3.09.2-4.64,4.02-4.64,2.64,0,3.35.67,3.35,3.4s-.73,3.4-3.29,3.4c-1.75,0-3.6-.98-4.07-2.16h-.01Zm-99-3.29c0-.78.67-1.35,1.4-1.35.78,0,1.35.56,1.35,1.35,0,.73-.56,1.4-1.35,1.4-.73,0-1.4-.67-1.4-1.4Zm7.73.47c-1.35-1.35-1.09-9.02.36-11.29,1.04-1.6,1.65-1.65,3.4-.2,1.18,1.04,3.51,1.44,5.36.98,4.18-1.04,11.35,1.4,12.42,4.22,1.13,3.04-1.8,4.49-5.51,2.78-2.47-1.09-4.07-.78-7.78,1.49-4.95,3.04-6.75,3.51-8.25,2.02h0Zm39.11-3.91c-.42-1.13.67-4.18,2.42-6.75l3.25-4.75,1.18,3.51c2.16,6.49-4.49,14.22-6.85,7.98h0Zm34.53,1.18c-1.85-1.85-.82-4.18,2.53-5.67,4.53-2.05,4.75-2.05,4.75.82,0,4.22-4.8,7.36-7.27,4.84v.02h-.01Zm-46.13-10c2.36,0,4.53,3.96,3.65,6.75-.93,2.84-5.36,3.82-6.8,1.55-.98-1.6,1.55-8.29,3.15-8.29h0Zm38.4,3.09c0-3.4.16-3.51,2.22-1.49,1.18,1.24,1.75,2.89,1.29,3.71-1.71,2.73-3.51,1.55-3.51-2.22h0Z" style="fill-rule:evenodd; stroke:#000; stroke-miterlimit:10; stroke-width:2px;"/></g></svg>