<?xml version="1.0" encoding="UTF-8"?><svg id="a" xmlns="http://www.w3.org/2000/svg" width="1024" height="1024" xmlns:xlink="http://www.w3.org/1999/xlink" viewBox="0 0 1024 1024"><defs><radialGradient id="d" cx="1956.46" cy="914.22" fx="2189.56" fy="1102.21" r="383.58" gradientTransform="translate(-70.91 -123.4) rotate(37.08) scale(.4)" gradientUnits="userSpaceOnUse"><stop offset="0" stop-color="#c3cdd8" stop-opacity=".76"/><stop offset="1" stop-color="#e8e8e8" stop-opacity="0"/></radialGradient><radialGradient id="g" cx="-896.96" cy="-2439.4" fx="-618.79" fy="-2596.75" r="473.27" gradientTransform="translate(-502.77 109.98) rotate(177.03) scale(.89 .18) skewX(.06)" gradientUnits="userSpaceOnUse"><stop offset="0" stop-color="#fc0"/><stop offset=".07" stop-color="#ffffd3"/><stop offset=".23" stop-color="#ffc800"/><stop offset=".32" stop-color="#ff0"/><stop offset=".61" stop-color="#ffe500"/><stop offset=".64" stop-color="#fffda8" stop-opacity=".99"/><stop offset=".72" stop-color="#ffe454" stop-opacity=".99"/><stop offset=".86" stop-color="#ffbe00" stop-opacity=".99"/><stop offset=".9" stop-color="#ffffe2" stop-opacity=".99"/><stop offset="1" stop-color="#ffb000" stop-opacity=".99"/></radialGradient><linearGradient id="j" x1="631.46" y1="2820.25" x2="1505.98" y2="2820.25" gradientTransform="translate(-185.76 -204.51) scale(.53 .28)" gradientUnits="userSpaceOnUse"><stop offset="0" stop-color="#fc0"/><stop offset=".07" stop-color="#ffffd3"/><stop offset=".23" stop-color="#ffc800"/><stop offset=".32" stop-color="#ff0"/><stop offset=".61" stop-color="#ffe500"/><stop offset=".64" stop-color="#fffda8" stop-opacity=".99"/><stop offset=".72" stop-color="#ffe454" stop-opacity=".99"/><stop offset=".86" stop-color="#ffbe00" stop-opacity=".99"/><stop offset=".9" stop-color="#ffffe2" stop-opacity=".99"/><stop offset="1" stop-color="#ffb000" stop-opacity=".99"/></linearGradient></defs><g id="b"><g id="c"><path id="e" d="m311.79,923.04c-60.85-3.1-112.95-11.04-134.94-20.56-10.92-4.73-23.72-17.06-27.15-26.16-1.22-3.21-1.59-40.27-.97-95.96,1.78-158.74,3.16-331.22,3.3-412.67.13-79.24,2.94-202.77,5.15-226.8,1.03-11.2,2.24-14.07,9.35-22.2,16.73-19.13,35.99-20.77,227.77-19.3,136.2,1.05,179.02,2.73,197.66,7.78,4.36,1.18,10.55,2.49,13.79,2.9,19.19,2.45,26.87,15.35,26.87,45.14,0,10.84,2.09,16.33,9.09,24.08,9.21,10.17,17.81,12.73,50.1,14.88,34.53,2.31,45.94,4.92,68.26,15.59,40.93,19.56,76.8,57.86,93.49,99.82,26.96,67.83,29.74,271.59,4.99,367.5-11.7,45.28-34.64,77.89-73.62,104.62-5.31,3.64-10.64,6.62-11.84,6.62s-2.21.83-2.21,1.84c0,1.43-20.02,10.96-24.78,11.79-.54.09-6.14,1.72-12.36,3.61-7.06,2.15-24.41,4.13-45.66,5.22-32.06,1.66-34.93,2.15-43.97,7.46-5.31,3.13-10.7,7.97-11.93,10.75-1.26,2.75-2.84,5.02-3.5,5.05-.69,0-1.52,9.98-1.89,22.17-1.61,53-16.29,59.19-159.23,67.22-40.07,2.27-106.95,2.06-155.79-.4h.02Zm125.85-12.19c24.29-2.21,43.56-6.51,47.26-10.55,1.72-1.89,1.29-2.12-1.86-.98-7.57,2.81-12.25,3.64-36.11,6.54-28.16,3.44-46.37,2.55-70.15-3.36-9.64-2.41-20.62-4.88-24.41-5.51-6.08-1.03-11.64-7.43-9.61-11.04.32-.57,1.15-39.38,1.86-86.21.69-46.83,2.18-147.33,3.3-223.3,1.15-75.97,3.04-200.9,4.24-277.65,1.18-76.71,1.55-142.75.8-146.72-1.26-6.9-1-7.34,6.25-9.75,19.7-6.54,40.52-10.34,56.76-10.34,31.63,0,72.76,6.58,76.23,12.23,2.24,3.63-1.81,380.89-4.19,391.73-2.64,11.96-2.67,13.31-1.03,42.59,1.63,29.31,2.15,180.45.6,182-.66.66-12.42,1.09-26.1.92-13.68-.17-24.89.54-24.89,1.55s2.55,1.86,5.68,1.84,15.66.2,27.88.54c20.59.54,26.56,2.09,19.1,4.99-2.24.86-2.61,2.5-1.38,5.94.92,2.61,1.86,9.41,2.09,15.11.34,8.14-.06,9.72-1.89,7.28-1.92-2.55-2.09-2.38-.92,1.03.8,2.29,1.61,5.1,1.81,6.22.2,1.15,1.18,3.41,2.18,5.02,1.2,1.92,1.06,2.44-.46,1.49-1.55-.98-1.86.98-1,6.25.98,6.19.69,7.31-1.69,5.88-2.35-1.43-2.41-1.18-.4,1.32,1.35,1.72,2.38,8.2,2.24,14.43s.06,17.01.43,23.95.14,13.51-.54,14.63-1.09,6.17-.89,11.27c.34,8.78.69,9.26,6.57,9.49,3.41.11,11.79,1.86,18.58,3.84,14.05,4.13,48.76,3.67,55.81-.72,3.44-2.12,2.95-2.29-3.18-1-13.22,2.75-31.55,1.95-46.29-2.06-8.03-2.18-16.75-3.93-19.42-3.9-3.93.06-4.62-.75-3.64-4.39.66-2.47,1.2-31.81,1.23-65.22l.03-60.77h7.57c8.4,0,7.97-2.58-.49-2.9l-5.33-.23v-23.32c0-12.82.6-24.26,1.32-25.44s.75-3.01.09-4.07c-.66-1.09-1.2-18.61-1.18-38.95,0-45.89,3.79-378.22,5.25-462.83.6-34.26,1.06-63.76,1.06-65.54-.06-5.72,49.01-16.08,58.65-12.39,2.55.98,9.66,2.02,15.8,2.31,14.4.69,23.57,3.69,20.59,6.71-1.23,1.23-2.09,5.56-1.95,9.61l.32,7.37,1.23-8.29c.8-5.16,2.47-8.52,4.5-8.9,2.87-.55,3.15,6.48,2.72,65.41-.43,60.31-.98,96.39-3.93,265.43-.52,30.86-1.49,128.54-2.12,217.07-1.38,193.13-1.66,203.51-5.31,205.77-1.49.95-2.24,2.24-1.61,2.87.63.6,3.1-.98,5.51-3.56,4.27-4.59,4.39-6.51,5.51-105.4.66-55.41,1.66-126.45,2.27-157.85.6-31.43,1.95-121.14,2.98-199.38,1.09-80.88,2.72-142.54,3.76-142.88,1.06-.34,1.18-4.42.29-9.35-.86-4.82-1.06-9.61-.43-10.64.63-1.03,1.35-12.73,1.55-25.98.2-13.24.95-29.69,1.66-36.55.83-8.03.69-10.24-.4-6.23-1.15,4.12-1.81-4.18-1.92-24.41-.11-16.85.32-32.04.98-33.75,2.9-7.6,4.88-1.76,4.88,14.42,0,9.64.92,18.11,2.04,18.82,2.58,1.6,2.81-34.06.23-38.13-1.23-1.96-3.76-2.38-8.29-1.38-4.33.96-8.09.44-11.1-1.53-5.65-3.71-22.48-9.15-33.44-10.83-4.53-.7-18.47.28-30.95,2.17-23.83,3.6-27.36,3.68-80.47,1.74-44.02-1.61-64.56-1.15-73.16,1.61-8.26,2.65-64.13.78-65.99-2.21-.66-1.05-19.16-1.46-42.42-.94-52.7,1.18-49.57,1.35-63.47-3.49-12.86-4.48-23.46-5.25-28.36-2.06-2.34,1.53-1.35,2.08,4.13,2.29,3.97.15,7.92.16,8.78.03.86-.14,5.73,1.72,10.84,4.14,9.11,4.31,9.27,4.57,9.27,14.42,0,5.52-.78,10.52-1.73,11.11s-1.56,34.07-1.35,74.38c.31,60.37.15,65.25-.91,27.59l-1.29-45.69-.31,50.88c-.18,29.94.42,49.19,1.46,46.75.98-2.29,1.84-2.98,1.92-1.52.08,1.43-1.02,4.5-2.43,6.8-2.13,3.47-2.04,4.56.52,6.19,2.62,1.66,2.52,1.98-.64,2.01-2.05,0-3.19.89-2.54,1.98,1.54,2.5,1.74,29.83.3,40.64-.93,7-.83,7.31.64,2.06,2.6-9.29,3.2-2.21,2.05,24.41l-.56,12.99-1.32-15.57-1.32-15.6-.37,21.42c-.24,13.82.36,20.96,1.69,20.13,1.14-.72,2.06.23,2.06,2.06,0,2.04-.95,2.78-2.41,1.86-1.53-.95-2.01-.43-1.32,1.43,3.48,9.32,4.05,12.73,1.89,11.39-1.26-.77-2.28-.43-2.28.77s.85,2.21,1.88,2.21,1.55,2.58,1.14,5.71c-.41,3.15-1.24,51.82-1.85,108.15-.61,56.36-1.53,103.13-2.03,103.96s-.97,12.22-1.02,25.3-.31,42.5-.57,65.33c-.57,49.79-.49,81.45.28,112.17.31,12.59-.15,24.64-1.04,26.82-1.8,4.45,5.2,11.67,11.18,11.56,3.11-.06,3.1-.23-.05-2.06-2.1-1.23-3.2-4.1-2.84-7.4.35-3.18-.62-5.82-2.42-6.51-1.65-.63-2.13-1.72-1.07-2.44,2.34-1.52,4.9-27.65,2.56-26.18-.91.54-.98-2.01-.18-5.74.81-3.7,1.2-10.9.86-16-.4-5.99.59-11.1,2.8-14.54,3.18-4.9,3.18-5.08-.05-2.41-3.03,2.5-3.48,2.29-3.71-1.55-.24-4.07-.55-5.94-1.72-10.12-.24-.86-.32-6.25-.19-11.96,1.18-49.93,4.57-228.72,6.22-328.18,1.12-67.4,3.21-161.35,4.65-208.76,1.44-47.41,2.63-91.48,2.63-97.93v-11.72l13.82-2.29c28.82-4.79,57.69-2.72,91.42,6.56l10.32,2.84v41.41c-.03,69.49-1.43,160.35-2.98,189.92-.8,15.43-.92,28.51-.29,29.08.66.57.92,9.69.54,20.28-.6,17.35-1.06,19.19-4.65,19.19-2.18,0-3.99.95-3.99,2.09s1.86,2.06,4.13,2.06,4.13.95,4.13,2.09-1.86,2.06-4.13,2.06-4.13.95-4.13,2.09,1.86,2.06,4.13,2.06c3.5,0,4.1,1.35,3.99,8.83-.09,4.85-1,10.7-2.04,12.99-1.49,3.27-1.84,2.38-1.63-4.16.14-4.59.11-10.18-.09-12.48-.34-3.93-.46-3.96-2.55-.37-1.2,2.09-1.61,6.05-.92,8.83s.43,5.05-.57,5.05-2.44,3.73-3.15,8.32c-.75,4.56-2.29,8.29-3.44,8.29-2.58,0-1.78,31.6.86,33.53.98.72.77,3.04-.46,5.19-2.15,3.73-2.27,3.73-2.72-.29-.26-2.27-1,7.06-1.66,20.76-2.38,49.96.06-222.67,2.98-333.57l1.55-59.42-6.25-4.5c-3.47-2.48-6.68-3.78-7.17-2.9-2.84,5.08-3.36,23.86-3.76,140.76-.26,70.84-1.09,130.58-1.84,132.79-.98,2.81-1.84,3.24-2.93,1.46-.86-1.41-.43-3.9.92-5.56,1.98-2.35,1.95-3.67-.03-6.11-1.84-2.21-2.5-13.51-2.35-39.98.14-24.06-.46-35.76-1.72-33.61-1.98,3.33-3.9,106-4.36,234.77-.2,48.76.4,69.46,2.01,69.98,1.52.52,2.41-5.59,2.7-18.61.23-10.67.63-26.87.92-35.99.26-9.15.57-46.75.66-83.54.14-43.54.95-67.37,2.32-68.23,1.46-.92,1.72,31.09.77,101.7-1,74.34-.75,103.02.89,103.02,1.23,0,2.27,1.32,2.27,2.9s1.38,3.44,3.1,4.1c1.69.66,3.1,3.18,3.1,5.59,0,2.61,1.03,4.02,2.58,3.47,1.41-.49,2.29-2.38,2.01-4.16-.32-1.81.37-3.87,1.55-4.59,1.15-.72,2.21-3.36,2.35-5.85.17-3.56.43-3.76,1.18-.92.52,2.04,1.81,3.13,2.87,2.5,1.03-.66,1.89-.06,1.89,1.35s.69,1.86,1.55,1,2.09-10.58,2.78-21.65c.69-11.04,1,28.54.69,87.93-.32,59.42-.63,108.29-.72,108.64s-6.4.2-14.02-.29c-12.22-.8-13.39-.57-9.92,1.98,2.15,1.58,5.85,2.93,8.17,3.01,2.35.06-.29,1.63-5.82,3.5-5.88,1.98-8.86,3.87-7.17,4.56,3.13,1.26,3.76,5.05,1.26,7.57-.86.86-1.55,4.19-1.55,7.43,0,5.22-.75,5.88-6.45,5.88-4.88,0-5.94-.63-4.39-2.58,2.67-3.36,4.45-16.09,2.27-16.09-3.64,0-7.34,14.43-8.69,33.76l-1.41,20.25,6.77.03c9.95.03,16.03,2.12,16.03,5.54,0,2.41-3.27,2.93-16.35,2.55-8.98-.23-20.54-1.06-25.7-1.86-5.15-.77-8.89-.63-8.31.32,1.45,2.35,1.6,2.41-14.48-3.47-20.31-7.43-19.3-4.85,1.23,3.18,26.16,10.21,66.92,12.1,92.3,4.27,6.71-2.06,15.31-1.26,19.76,1.84,6.02,4.13,23.6,7.4,54.69,10.15,1.69.14,13.31-.66,25.78-1.81h0Zm-102.87-17.64c-.66-1.69-.29-3.1.8-3.1s2.01,1.41,2.01,3.1-.37,3.13-.8,3.13c-.46,0-1.35-1.41-2.01-3.13Zm156.47-7.37c-1.98-3.18.72-5.25,3.36-2.58,1.49,1.49,1.52,2.64.11,3.53-1.15.72-2.72.29-3.47-.95h0Zm-157.65-37.8c.11-5.65.43-6.08,1.92-2.58,2.44,5.74,2.44,9.32,0,9.32-1.15,0-2.01-3.01-1.92-6.74Zm158.91-100.06c-.11-2.18.37-3.41,1.06-2.72.69.72.77,2.5.17,3.99-.66,1.66-1.15,1.18-1.23-1.26h0Zm-152.69-12.45c-.11-2.18.37-3.41,1.06-2.72s.77,2.47.17,3.99c-.66,1.63-1.15,1.15-1.23-1.26h0Zm-23.6-93.64c-.66-1.72-.32-3.13.8-3.13s1.98,1.41,1.98,3.13-.34,3.1-.8,3.1c-.43,0-1.35-1.41-1.98-3.1Zm4.85-28.05c0-1.15.95-2.09,2.06-2.09s2.06.95,2.06,2.09-.92,2.06-2.06,2.06-2.06-.92-2.06-2.06Zm167.32-54.86c-.09-2.21.4-3.41,1.09-2.72.66.69.75,2.47.14,3.96-.66,1.66-1.15,1.18-1.23-1.23h0Zm-165.25-23.14c0-1.78.95-2.67,2.06-1.98,1.15.72,2.06,2.18,2.06,3.24s-.92,1.98-2.06,1.98-2.06-1.46-2.06-3.24Zm6.19-30.92c0-.52.95-1.49,2.06-2.21,1.15-.72,2.06-.29,2.06.92s-.92,2.21-2.06,2.21-2.06-.43-2.06-.92Zm4.3-18.64c-.09-2.21.4-3.41,1.09-2.72.66.69.75,2.47.14,3.96-.66,1.66-1.15,1.18-1.23-1.23h0Zm161.58-88.45c0-14.28.32-20.13.72-12.99s.4,18.81,0,25.95-.72,1.29-.72-12.96h0Zm-.63-88.13c-.11-2.18.37-3.41,1.06-2.72s.77,2.5.17,3.99c-.66,1.66-1.15,1.18-1.23-1.26h0Zm2.06-66.45c-.11-2.21.37-3.41,1.06-2.72s.77,2.47.17,3.99c-.66,1.63-1.15,1.15-1.23-1.26h0Zm88.53,656.3c9.66-3.04,7.37-4.19-3.84-1.92-3.56.72-6.45,2.12-6.45,3.13,0,2.24-.8,2.32,10.3-1.2h0Zm-133.73-4.62c-1.46-.6-3.24-.54-3.93.14s.52,1.18,2.7,1.09c2.41-.09,2.9-.57,1.23-1.23h0Zm21.62-5.33c-.57-1.43-1.03-.26-1.03,2.58s.46,4.02,1.03,2.61c.57-1.43.57-3.79,0-5.19Zm-293.33,2.58c-.7-1.15-2.84-2.06-4.76-2.04-3.01.03-3.06.32-.4,2.04,4.04,2.64,6.77,2.64,5.16,0h0Zm9.17-25.78c.18-18.44-1.22-13.22-2.46,9.18-.72,13.11-.51,16.92.63,11.41.94-4.56,1.77-13.82,1.83-20.59h0Zm7.34,25.78c.7-1.15.35-2.06-.79-2.06s-2.64.92-3.34,2.06c-.7,1.15-.35,2.09.79,2.09s2.64-.95,3.34-2.09Zm386.71-5.94c-.09-3.01-1.35-13.42-2.81-23.14l-2.67-17.64-.29,24.32c-.23,20.85.17,24.18,2.84,23.14,1.72-.66,3.01-3.58,2.93-6.68h0Zm-378.45,3.87c.7-1.15.34-2.09-.79-2.09s-2.64.95-3.34,2.09c-.7,1.15-.35,2.06.79,2.06s2.64-.92,3.34-2.06Zm151.64-8.32c0-7.86-.75-10.38-3.07-10.38s-3.04,2.38-2.87,9.87c.23,8.8.43,9.21,1.84,3.64l1.58-6.25.23,6.77c.4,10.78,2.29,7.77,2.29-3.64h0Zm171.27,7.06c0-.46-1.41-.83-3.1-.83s-3.1.92-3.1,2.01,1.41,1.49,3.1.83,3.1-1.58,3.1-2.01Zm-77.21-6.54c-2.24-2.27-3.79,1.35-2.18,5.1,1.55,3.56,1.66,3.56,2.52-.06.49-2.09.34-4.36-.34-5.05h0Zm165.85-3.64c0-1.12-.83-.75-1.84.89-1.41,2.21-2.06,1.43-2.64-3.13-.6-4.65-1-3.76-1.75,3.81-.95,9.72-.89,9.81,2.64,5.19,1.95-2.58,3.58-5.62,3.58-6.77h.01Zm-352.24-1.55c.65-6.14.24-9.87-1.1-9.87-1.18,0-1.59.57-.91,1.26s.35,3.61-.74,6.51c-1.09,2.87-1.41,7.06-.71,9.26,1.72,5.45,2.23,4.39,3.46-7.17h0Zm-88.48,5.71c.65-1.72.29-3.1-.81-3.1s-2,1.38-2,3.1.36,3.13.81,3.13,1.35-1.41,2-3.13Zm25.97-17.64l-1.23-19.73-.36,16.95c-.29,13.79,1.04,26.07,2.52,23.12.17-.34-.25-9.49-.92-20.33h-.01Zm387.2,13.02c-.69-.69-1.18.52-1.09,2.72.11,2.41.6,2.9,1.26,1.26.57-1.52.52-3.3-.17-3.99h0Zm-21.83-9.92c-1.29-10.27-1.63-11.01-1.84-4.16-.2,7.74,1.58,18.58,2.87,17.24.32-.34-.14-6.22-1.03-13.08h0Zm-79.18.49c-.54-1.41-.98.26-.95,3.67.06,3.44.52,4.59,1.03,2.55.52-2.01.49-4.82-.09-6.22h.01Zm-311.49-3.07c-.52-2.01-.94-.37-.94,3.61s.42,5.65.94,3.64.52-5.28,0-7.26h0Zm48.1,4.67c0-1.72-.36-3.13-.81-3.13s-1.35,1.41-2,3.13c-.65,1.69-.29,3.1.81,3.1s2-1.41,2-3.1Zm362.51-6.77c-.52-1.98-.95-.34-.95,3.64s.43,5.62.95,3.64c.52-2.01.52-5.28,0-7.28h0Zm-364.17.77c1.35.83,1.57-.37.63-3.36-.81-2.58-.68-4.19.3-3.58.97.57,1.92-5.13,2.1-12.73l.33-13.79-2.79,14.08c-1.53,7.74-3.3,16.15-3.92,18.7-.62,2.52-.6,3.41.06,1.98s2.14-2.01,3.3-1.29h-.01Zm42.93-3.36c0-2.29-.93-4.16-2.06-4.16s-2.06,1.86-2.06,4.16.93,4.16,2.06,4.16,2.06-1.89,2.06-4.16Zm-87.37-8.86c-.56-1.41-1,.23-.95,3.67.04,3.41.5,4.56,1.03,2.55.52-2.04.49-4.82-.07-6.22h0Zm178.58-14.51c-.75-15.92-.8-16.09-6.25-15.97-3.65.09-3.89.78-.72,2.06,3.56,1.43,4.7,3.41,4.42,7.66-.83,12.79.37,30.54,1.81,26.5.8-2.29,1.15-11.39.75-20.25h-.01Zm227.6,4.67c-.83-7-1.89-12.3-2.41-11.79-.52.54-.32,6.71.49,13.71.77,7.03,1.86,12.3,2.41,11.79.52-.54.32-6.71-.49-13.71Zm-316.39,2.15c.43-4.56.15-7.6-.62-6.77-2.03,2.18-3.7,17.24-1.78,16.03.89-.54,1.97-4.73,2.4-9.26Zm296.2-5.79c-.49-3.13-.86-.57-.86,5.71s.37,8.86.86,5.71c.46-3.13.46-8.26,0-11.41h0Zm53.37-3.76c-1.75-1.29-4.59-5.05-6.31-8.37s-3.1-4.65-3.07-2.93,1.35,4.85,2.93,6.94c1.61,2.12,2.64,4.93,2.35,6.25-.32,1.32-.17,1.69.32.8,2.01-3.61,4.67,1.41,4.99,9.49l.37,8.72.8-9.29c.57-6.68-.09-9.92-2.38-11.62h0Zm-81.11,11.04c-1.53-13.5-4.88-20.26-10.07-20.28-4.02,0-6.74-.83-6.08-1.89,1.26-2.06-12.27-1.92-14.34.14-1.03,1.06,15.83,4.02,22.69,4.02,3.01-.03,4.85,5.85,5.02,15.92.09,4.88.92,8.83,1.84,8.83s1.38-3.04.95-6.74h-.01Zm-345.82-5.19c-.52-2.01-.94-.37-.94,3.61s.42,5.65.94,3.64.52-5.28,0-7.26h0Zm369.16-4.13c-.69-.69-1.18.54-1.09,2.72.09,2.44.57,2.93,1.23,1.26.6-1.49.54-3.3-.14-3.99h0Zm-340.45-2.06c-.69-.69-1.17.54-1.08,2.72.1,2.41.59,2.9,1.25,1.26.59-1.52.52-3.3-.16-3.99h0Zm-26.82-6.22c-.69-.72-1.17.52-1.08,2.72.1,2.41.59,2.9,1.25,1.23.59-1.49.52-3.27-.16-3.96h0Zm76.72-.86c-.52-1.55-1.45-.6-2.18,2.21-.9,3.44-.63,4.24.9,2.72,1.2-1.23,1.78-3.44,1.28-4.93Zm90.41.86c-.69-.72-1.18.52-1.09,2.72.11,2.41.6,2.9,1.26,1.23.57-1.49.52-3.27-.17-3.96h0Zm-137.75-7.86c-.19-5.13-1.16-9.35-2.14-9.35s-1.36,3.53-.85,7.8c.52,4.27,1.01,8.49,1.09,9.35s.62,1.55,1.2,1.55.89-4.19.7-9.35h0Zm340.08,2.61c-.57-1.43-1.03-.26-1.03,2.58s.46,4.04,1.03,2.61.57-3.76,0-5.19Zm-259.72,1.63c1.95-1.98-21.11-1.12-24.29.89-2,1.26,1.43,1.66,10.07,1.09,7.2-.46,13.62-1.35,14.22-1.98h0Zm278.28-5.82c-.57-1.41-1,.23-.95,3.67.03,3.41.49,4.56,1.03,2.55.52-2.01.49-4.82-.09-6.22h.01Zm38.06-5.65c-1.26-5.85-2.29-14.08-2.29-18.3-.03-4.24-.95-9.09-2.04-10.81-2.75-4.27-2.72.8.09,18.53,3.13,19.65,4.1,23.66,5.36,22.37.63-.63.11-5.94-1.12-11.79h0Zm-385.85,4.42c1.4,2.21,1.79,2.04,1.82-.8.02-2.01-1.36-3.64-3.06-3.64s-3.02,1.63-2.93,3.64c.11,2.52.5,2.78,1.28.8.94-2.41,1.4-2.41,2.9,0h-.01Zm346.68-11.27c-1.69-1.69-2.29-1.46-2.29.86,0,4.13,2.75,6.94,3.79,3.84.43-1.32-.23-3.44-1.49-4.7h-.01Zm54.23,3.93c-2.09-5.54,15.34-9.41,57.44-12.7,42.65-3.36,62.75-7.71,71.7-15.54,2.64-2.29,5.56-4.16,6.54-4.16s1.75-.92,1.75-2.04-1.55-1.41-3.44-.66c-2.55.98-3.01.57-1.72-1.63,1-1.75.92-2.24-.2-1.2-1.03.95-1.86,2.72-1.86,3.99,0,3.38-17.64,12.16-25.27,12.59-3.7.2-6.71,1.18-6.71,2.15s-1.41,1.23-3.13.57-5.36-.34-8.12.72c-2.9,1.12-7.6,1.18-11.21.11-4.3-1.23-6.48-1.03-7.08.63-.66,1.81-1.89,1.84-4.79.11-2.98-1.78-4.53-1.66-6.54.52-1.75,1.86-7.63,2.84-17.52,2.84-8.17,0-18.47,1-22.89,2.24-6.25,1.75-8.4,1.66-9.66-.43-.92-1.46-1.09-3.56-.43-4.65.69-1.12.11-1.29-1.32-.4-1.38.86-2.04,2.81-1.46,4.33s-.4,3.96-2.18,5.45c-2.87,2.41-3.1,1.78-1.95-5.56,1.26-8,2.06-32.41,1.55-46.17-.14-3.7-1.12-6.74-2.15-6.74-2.06,0-3.13,63.3-1.12,66.56,1.81,2.98,3.04,2.35,1.78-.92h0Zm-116.38-1.26c3.79-2.47.52-2.47-5.16,0-2.7,1.18-3.07,1.84-1.03,1.89,1.72.06,4.5-.77,6.19-1.89Zm-70.15-4.16c-1.69-1.09-4.96-2.01-7.23-2.01-3.41,0-3.58.34-1.03,2.01,1.72,1.12,4.96,2.01,7.23,2.01,3.41,0,3.58-.34,1.03-2.01Zm-146.12-1.41c-1.46-.6-3.27-.54-3.93.14-.69.72.52,1.2,2.7,1.09,2.41-.09,2.9-.57,1.23-1.23h0Zm132.44-1.12c-.54-.89-12.33-1.43-26.16-1.2l-25.15.4,22.69,1.15c30.23,1.52,29.77,1.52,28.62-.34h0Zm-58.16-.98c-1.46-.6-3.24-.52-3.93.17s.52,1.18,2.7,1.09c2.41-.09,2.9-.6,1.23-1.26h0Zm281-9.41c-1.78-2.9,4.53-3.96,10.35-1.72,3.1,1.18,5.13,1.35,4.53.34-.63-1,2.35-.6,6.57.86,7.06,2.44,7.83,2.32,9.21-1.29.8-2.18,2.01-3.99,2.7-3.99s.69.89.03,1.95c-1.43,2.32,18.5.8,23.4-1.78,1.84-.98,8.12-2.41,13.97-3.21,8.98-1.2,10.87-2.24,11.93-6.45,1.41-5.68,4.24-6.6,6.02-1.92,1.46,3.79,5.45,4.16,5.45.49,0-1.43,1.81-3.53,4.02-4.67,18.41-9.35,22.8-12.02,22.8-13.65,0-1.03,1.41-1.89,3.1-1.89,6.77,0,.83-11.79-7.57-15.03-1.75-.69-6.91.92-11.53,3.56-19.33,11.04-41.53,15.8-81.48,17.47-27.7,1.15-30.43.95-30.43-2.24,0-1.92-.95-4.1-2.09-4.82-1.18-.72-1.58-2.18-.92-3.24s.23-1.92-.92-1.92c-3.53,0-6.85,15.14-6.08,27.65.4,6.51-.14,11.82-1.18,11.82s-1.41.49-.8,1.09,3.58.14,6.65-1.03,5.05-1.26,4.42-.23c-.66,1.03,0,2.44,1.41,3.1,1.43.66.29.66-2.55.03-3.99-.89-4.45-.66-2.06.98,3.53,2.47,12.59,2.27,11.07-.23h0l-.02-.03Zm22.51-2.9c.66-.69,2.47-.75,3.93-.14,1.66.66,1.18,1.15-1.23,1.23-2.18.11-3.38-.37-2.7-1.09h0Zm-29.45-13.11c0-4.02.54-4.59,2.47-2.67,1.38,1.38,5.59,2.5,9.41,2.5,9.46,0,6.62,3.53-3.61,4.5-7.63.75-8.26.4-8.26-4.33h0Zm22.69,2.52c0-1.15,6.28-2.64,13.94-3.3,19.24-1.66,64.01-13.48,68.6-18.1,1.63-1.63,19.44-10.38,21.17-10.38,3.04,0,1.46,4.33-2.06,5.68-2.01.77-5.05,3.18-6.83,5.36-1.75,2.18-5.91,4.13-9.26,4.39-3.36.23-9.69,2.01-14.08,3.93-4.42,1.92-8.83,3.5-9.87,3.5s-7.57,1.92-14.51,4.27c-14.02,4.76-47.09,8.03-47.09,4.65h0Zm-308.96,8.32c-2.52-.49-7.17-.52-10.3-.03-3.15.46-1.06.89,4.59.89,5.68.03,8.26-.37,5.71-.86Zm431.65-21.25c.66-1.06.34-2.47-.69-3.1-1.03-.66-2.41.23-3.07,1.92-1.29,3.38,1.81,4.33,3.76,1.18h0Zm-612.85-6.57c-.67-1.06-.3-4.99.81-8.66,1.12-3.7,2.58-15.72,3.27-26.73,1.18-19.13,1.05-20.05-3.12-21.14-2.4-.63-3.75-2.15-3-3.38.75-1.2.26-2.21-1.08-2.21-1.85,0-1.86-.69-.06-2.9,1.8-2.18,1.78-4.19-.08-8.29-1.35-2.98-3.27-5.42-4.26-5.42s-.93,1.63.14,3.64c1.07,2.04,1.92,5.99,1.89,8.83-.21,18.56,3.46,70.24,4.92,69.35.98-.6,1.23-2.01.57-3.1h0Zm-.75-37.71c-.09-5.42.58-9.87,1.49-9.87s1.3,3.5.88,7.8c-1.19,12.05-2.19,12.93-2.37,2.06h0Zm-2.23-12.85c0-.52.93-1.49,2.06-2.21s2.06-.29,2.06.92-.93,2.21-2.06,2.21-2.06-.43-2.06-.92Zm212.51,52.31c0-.86-9.78-1.55-21.77-1.55-14.86,0-21.37.69-20.45,2.21,1.55,2.5,42.22,1.86,42.22-.66h0Zm419.92-7.77c5.56-5.74,9.21-10.41,8.06-10.41s-5.68,3.73-10.1,8.26c-5.85,6.05-8.69,7.69-10.55,6.14-2.24-1.89-2.64.46-1,5.88.66,2.09,4.85-.95,13.59-9.87h0Zm-653.89,2.64c-.69-.69-1.17.52-1.08,2.72.1,2.41.59,2.9,1.25,1.23.6-1.49.52-3.27-.16-3.96h0Zm173.3,3.9c-.57-.95-7.37-1.89-15.09-2.12-9.95-.26-13.11.23-10.9,1.72,3.73,2.52,27.5,2.9,25.98.4h0Zm-173.3-12.22c-.69-.69-1.17.54-1.08,2.72.1,2.41.59,2.9,1.25,1.26.6-1.52.52-3.3-.16-3.99h0Zm522.37.09c-1.98-.52-5.68-.54-8.26-.06-2.55.52-.95.95,3.58.95,4.53.03,6.65-.37,4.67-.89h.01Zm18.56-2.09c-1.95-.52-5.68-.52-8.23-.03-2.58.49-.98.92,3.58.95,4.53.03,6.62-.37,4.65-.92h0Zm88.42-4.22c-2.09-2.12-3.84,1.06-2.12,3.87,1.32,2.09,1.81,2.09,2.5,0,.49-1.43.32-3.18-.37-3.87h-.01Zm-135.37,2.78c0-.43-1.63-2.06-3.61-3.61-3.27-2.58-3.36-2.52-.77.77,2.7,3.47,4.39,4.56,4.39,2.84h-.01Zm61.89-1.38c2.27-1.55,1.43-1.72-3.1-.72-7.57,1.72-9.23,2.9-3.96,2.87,2.18-.03,5.36-.98,7.06-2.15Zm-555.86-5.56c-.69-.69-1.17.52-1.08,2.72.1,2.41.59,2.9,1.25,1.26.6-1.52.52-3.3-.16-3.99h0Zm566.19,1.52c1.69-1.12,2.15-2.04,1.03-2.04s-3.47.92-5.16,2.04c-1.69,1.09-2.18,2.01-1.03,2.01s3.47-.92,5.16-2.01Zm-101.96-20.25c-1.43-1.43-7.43,11.27-7.26,15.46.09,2.06,1.95-.37,4.16-5.39,2.21-5.02,3.61-9.55,3.1-10.07h0Zm90.57,14.97c6.68-1.75,15.92-4.9,20.53-6.97,9.72-4.39,29.25-20.28,28.51-23.17-.29-1.09.52-1.75,1.75-1.46,3.96.92,15.77-18.61,20.08-33.18,15.17-51.39,22.63-152.75,16.86-229.06-3.53-46.66-9.52-88.48-14.43-100.75-7.6-18.96-11.99-25.52-27.36-41.15-14.4-14.6-19.59-18.38-33.53-24.41-15.63-6.77-17.75-7.14-40.38-7.14s-24.35.32-32.49,5.74c-4.73,3.15-10.93,9.26-13.77,13.59l-5.16,7.83-1.35,206.72c-.77,113.71-.8,209.07-.09,211.97,1.69,6.8,12.42,18.01,20.68,21.62,9.06,3.96,44.74,3.87,60.14-.17h0Zm97.02-10.5c0-6.77-4.39-8.2-7.92-2.58-1.58,2.52-1.41,4.36.6,6.83,3.93,4.79,7.31,2.84,7.31-4.24h.01Zm-450.47-8.52c-1.49-.6-3.27-.52-3.96.17s.54,1.18,2.7,1.09c2.41-.09,2.9-.6,1.26-1.26h0Zm93.04-.09c-4.79-.43-13.14-.43-18.56,0-5.45.4-1.52.77,8.69.77s14.66-.34,9.87-.77Zm72.04-1.98c-1.49-.6-3.27-.52-3.96.17s.52,1.18,2.7,1.09c2.41-.11,2.9-.6,1.26-1.26Zm25.87-.03c-2.01-.52-4.79-.49-6.19.09-1.38.57.26,1,3.64.95,3.41-.03,4.56-.49,2.55-1.03h0Zm270.85-3.76c0-1.69-1.38-3.1-3.1-3.1-3.21,0-4.07,2.44-1.72,4.85,2.38,2.38,4.82,1.49,4.82-1.75h0Zm-568.45-1.03c-2.27-.98-7.08-1.84-10.7-1.92s-9.19-1.15-12.38-2.35c-3.85-1.46-5.1-1.49-3.71-.09,2.56,2.64,16.3,5.99,24.72,6.08,5.25.06,5.57-.2,2.06-1.72h.01Zm149.07.66c-1.98-.54-5.22-.54-7.2,0-2.01.52-.37.95,3.58.95s5.62-.43,3.61-.95h.01Zm29.94-.09c-4.85-.46-12.73-.46-17.55,0-4.82.43-.89.77,8.78.77s13.59-.34,8.78-.77h-.01Zm112.97-2.87c0-2.98-3.58-2.12-4.85,1.15-.77,2.01-.14,2.64,1.84,1.86,1.66-.63,3.01-1.98,3.01-3.01h0Zm-32.52.92c-1.41-.57-3.73-.57-5.13,0-1.43.57-.26,1.06,2.55,1.06s4.02-.49,2.58-1.06h0Zm-248.11-1.52c0-.43-1.44-1.38-3.2-2.04-1.84-.72-2.66-.37-1.94.8,1.21,1.98,5.14,2.93,5.14,1.23h0Zm-106.05-9.01c-.69-.69-1.17.54-1.08,2.72.1,2.44.59,2.93,1.25,1.26.6-1.49.52-3.3-.16-3.99h0Zm170.41,2.18c-1.49-.6-3.27-.52-3.96.17s.52,1.18,2.7,1.09c2.41-.11,2.9-.6,1.26-1.26h0Zm-125.55-5.74c.76-2.01.15-2.64-1.83-1.86-1.64.63-2.46,1.98-1.84,3.01,1.58,2.58,2.34,2.32,3.67-1.15Zm421.59-3.76c-.57-1.43-1.03-.26-1.03,2.61s.46,4.02,1.03,2.58c.57-1.43.57-3.76,0-5.19Zm-215.41-5.1c-2.52-.49-7.17-.49-10.32-.03-3.13.49-1.06.89,4.62.92,5.68,0,8.26-.37,5.71-.89h0Zm17.55.06c-1.98-.52-5.71-.54-8.26-.06-2.58.52-.95.92,3.58.95s6.62-.37,4.67-.89h.01Zm-201.73-5.85c-1.41-1.72-3.56-3.13-4.77-3.13s-.4,1.38,1.8,3.07c5.17,3.93,6.19,3.96,2.97.06h0Zm284.73-.11c0-.52-.92-.92-2.04-.92s-2.06.98-2.06,2.18.92,1.63,2.06.92c1.12-.69,2.04-1.69,2.04-2.18Zm319.63-79.84c4.79-37.43,4.33-29.22,5.28-92.43.72-49.44-1.98-93.81-7.28-119.82-1.35-6.51-2.52-15.97-2.7-21.08-.14-5.1-.83-8.92-1.55-8.49-.69.43-1.86-2.93-2.58-7.49-.75-4.56-2.18-8.26-3.21-8.26s-2.38-1.63-3.01-3.64c-.6-2.01-.66-.83-.11,2.58,14.86,94.47,14.48,194.27-1.18,312.18-1.12,8.35-1.95,18.61-1.86,22.86.32,14.31,13.85-42.53,18.21-76.4h-.01Zm-379.06,79.59c-1.49-.6-3.27-.54-3.96.14s.52,1.2,2.7,1.09c2.41-.09,2.9-.57,1.26-1.23h0Zm-258.86-6.37c-5.63-5.94-12.55-27.42-10.54-32.69.62-1.63.36-4.16-.58-5.65-2.35-3.73-2.67-9.98-3.51-68.63-.4-28.28.05-51.42,1.02-51.42s1.57-45.11,1.33-100.23c-.24-57.47-.94-88.25-1.64-72.16-1,23.12-1.23,19.3-1.28-21.83-.04-28.45.53-44.05,1.31-36.34.76,7.43,1.47-25.21,1.58-72.51.16-68.45.75-86.39,2.91-87.89,1.78-1.25,1.03-1.42-2.19-.5-3.78,1.08-4.53.75-3.28-1.42.89-1.55.94-2.21.12-1.47-.83.75-1.82,11.03-2.21,22.85-.42,12.82,0,19.82,1.03,17.34,1.24-2.97,1.77-.85,1.88,7.37.08,6.34-.91,12.59-2.19,13.88-2.95,2.97-2.93,441,.02,462,1.07,7.6,3.06,16,4.42,18.7,2.96,5.85,12.59,16.03,15.31,16.2,1.06.06-.51-2.47-3.5-5.59h-.01Zm-15.57-188.51c-.04-3.44.38-5.08.95-3.67s.6,4.22.08,6.22-.99.86-1.03-2.55Zm-.24-14.37c-.09-2.18.4-3.41,1.08-2.72s.76,2.47.16,3.99c-.66,1.63-1.15,1.15-1.25-1.26h0Zm.16-11.62c0-2.84.47-4.02,1.04-2.58s.57,3.76,0,5.19-1.04.26-1.04-2.61h0Zm-.16-13.31c-.09-2.21.4-3.41,1.08-2.72s.76,2.47.16,3.96c-.66,1.66-1.15,1.18-1.25-1.23h0Zm.16-32.38c0-2.87.47-4.02,1.04-2.58.57,1.41.57,3.76,0,5.19-.57,1.41-1.04.26-1.04-2.61h0Zm347.34,263.79c-.69-1.15-2.38-2.06-3.73-2.04-1.46.03-1.23.83.63,2.04,3.96,2.58,4.67,2.58,3.1,0Zm73.96-16.12c1.89-4.9,3.41-12.76,3.41-17.49,0-10.35-1.78-9.49-3.18,1.55-1.52,11.87-5.45,23.78-7.43,22.54-2.09-1.32-2.38,1.98-.34,4.02,1.95,1.98,3.61-.34,7.54-10.61h0Zm26.18-11.64c-1.46-1.46-2.09.11-2.01,5.02.11,6.74.26,6.88,2.12,2.15,1.32-3.33,1.29-5.76-.11-7.17h0Zm-452.59-2.9c-.52-1.98-.92.14-.9,4.7s.45,6.19.94,3.61.47-6.34-.04-8.32h0Zm285.39,5.33c0-1.95.54-1.95,2.47,0,3.79,3.79,5.33,3.04,6.65-3.24,2.58-12.42,1.72-484.88-.89-491.85-2.64-6.93-12.19-7.25-12.76-.42-.2,2.57-.46,38.56-.52,79.97-.11,73.86-.03,75.29,4.02,75.58,3.9.26,3.87.34-.23,1.15s-4.33,2.15-4.45,26.18c-.06,13.94-.89,53.86-1.84,88.71-.95,34.85-1.72,94.67-1.75,132.93,0,60.26.46,70.47,3.36,76.17,1.86,3.58,2.9,8.98,2.35,11.93-.6,3.18-.09,5.39,1.29,5.39,1.26,0,2.29-1.15,2.29-2.5h.01Zm.17-222.72c-.11-2.18.37-3.41,1.06-2.72s.77,2.5.17,3.99c-.66,1.66-1.15,1.18-1.23-1.26h0Zm162.24,207.01c-.46-3.13-.83-.09-.83,6.77s.4,9.41.86,5.68.46-9.35-.03-12.45h0Zm-37.03-19.19c0-30.51-1.12-25.55-2.09,9.35-.43,14.86-.11,24.21.66,20.76.77-3.41,1.43-16.98,1.43-30.11h0Zm-385.97,12.93c-.47-3.13-.85-.06-.83,6.8,0,6.85.4,9.41.85,5.68s.45-9.35-.02-12.48h0Zm429.24-46.69c-.37-11.7-.66-2.12-.66,21.28s.29,33.01.66,21.31c.37-11.73.37-30.89,0-42.59h0Zm175.09,53c-.69-.69-1.18.54-1.06,2.72.09,2.44.57,2.93,1.23,1.26.6-1.49.52-3.3-.17-3.99h0Zm32.58,2.38c1.86-4.82,1.52-9.58-.54-8.29-2.35,1.46-4.3,11.59-2.27,11.59.86,0,2.12-1.49,2.81-3.3h0Zm-325.28-51.22c-.4-7.14-.75-1.29-.75,12.99s.34,20.1.75,12.96.4-18.81,0-25.95Zm296.83,21.85c-.69-.69-1.18.54-1.06,2.72.09,2.41.57,2.9,1.23,1.26.6-1.52.52-3.3-.17-3.99h0Zm32.55-2.38c-.72-3.64-1.75-6.19-2.27-5.68-.54.52-.32,3.9.46,7.49,1.86,8.52,3.53,6.85,1.81-1.81Zm-641.01-16.4c-.47-3.13-.85-.06-.83,6.8,0,6.85.4,9.41.85,5.68.46-3.73.45-9.35-.02-12.48h0Zm429.27-184.55c1.15-88.13.95-116.35-.86-115.66-1.78.69-2.41,27.07-2.47,101.01-.06,55.04-.52,124.35-1.06,154.07-.95,53.37-.95,53.57.95,15.57,1.06-21.14,2.61-90.89,3.44-154.98h0Zm181.25,186.7c-.69-.69-1.18.54-1.09,2.72.11,2.44.6,2.93,1.26,1.26.6-1.49.52-3.3-.17-3.99h0Zm-222.55-29.05c-.43-5.45-.8-1.52-.8,8.78s.34,14.74.77,9.92.43-13.22.03-18.7h0Zm-387.77,2.52c.07-2.75-.49-2.75-1.67,0-.98,2.29-1.73,6.97-1.67,10.41l.1,6.22,1.58-6.22c.87-3.44,1.62-8.12,1.67-10.41h-.01Zm612.51,6.77c-.57-1.43-1.03-.26-1.03,2.58s.46,4.04,1.03,2.61.57-3.76,0-5.19Zm2.18-30.08c-.46-3.15-.86-1.09-.89,4.65,0,5.71.37,8.29.86,5.74s.52-7.23.03-10.38h0Zm-220.26-105.45c3.3-79.96,4.99-160.17,3.36-158.65-.77.72-1.86,18.96-2.41,40.52-.57,21.57-1.92,67.25-3.01,101.53s-2.38,77.72-2.9,96.56l-.89,34.27,1.78-29.08c.98-15.97,2.81-54.29,4.07-85.15h0Zm-101.75,77.35c-.54-1.43-.98.23-.95,3.67.06,3.41.52,4.56,1.03,2.55.52-2.04.49-4.82-.09-6.22h.01Zm-292.85-49.82c-.43-4.88-.79-.89-.79,8.8s.36,13.71.79,8.83c.44-4.85.44-12.79,0-17.64h0Zm662.9,19.33c0-1.09-.92-2.52-2.06-3.24-1.12-.72-2.06.17-2.06,1.95s.95,3.24,2.06,3.24,2.06-.89,2.06-1.95Zm-48.04-30.74c-.46-3.15-.86-1.06-.89,4.65,0,5.71.37,8.32.86,5.74.49-2.55.52-7.23.03-10.38h0Zm-617.01-8.32c-.52-2.01-.94-.37-.94,3.61s.42,5.65.94,3.64.52-5.28,0-7.26h0Zm643.85-14.51c-.49-3.15-.89-1.09-.89,4.65-.03,5.71.37,8.29.86,5.74s.49-7.23.03-10.38h0Zm-502.43-1.09c-1.98-4.1-2.24-3.53-2.24,4.67s.26,8.78,2.24,4.67c1.61-3.36,1.61-5.97,0-9.35h0Zm-141.46,2.09c-.57-1.43-1.04-.26-1.04,2.58s.47,4.04,1.04,2.61c.57-1.43.57-3.76,0-5.19h0Zm614.94-9.35c-.52-2.01-.95-.37-.95,3.64s.43,5.62.95,3.61c.52-1.98.52-5.25,0-7.26h0Zm-614.83-9.35c-.49-2.58-.89-.46-.89,4.67s.4,7.26.89,4.67c.49-2.58.49-6.77,0-9.35h0Zm643.82-6.11c-.09-8.06.77-13.19,2.27-13.68,3.5-1.18,3.13-17.09-.4-17.09-1.95,0-3.24,4.16-4.19,13.39-1.15,11.3.03,30.23,1.89,30.23.29,0,.49-5.79.43-12.85h0Zm-31.12-4.27c-.57-1.43-1.03-.26-1.03,2.58s.46,4.04,1.03,2.61.57-3.76,0-5.19h0Zm-612.19-82.57l-1.12-63.35-.22,69.58c-.12,38.29.38,66.79,1.12,63.35.74-3.41.83-34.73.22-69.58h0Zm610.13,65.93c-.54-1.41-1.03-.26-1.03,2.61s.49,4.02,1.03,2.58c.57-1.41.57-3.76,0-5.19h0Zm-470.54-15.52c-.69-.69-1.18.52-1.09,2.72.09,2.41.57,2.9,1.23,1.26.6-1.52.54-3.3-.14-3.99h0Zm503.01-11.36c-.2-10.75-5.08-31.63-9.23-39.55-1.03-1.98-1.89-5.02-1.89-6.77s-.92-3.13-2.06-3.13-2.06-1.09-2.06-2.41-2.32-5.45-5.16-9.21c-2.81-3.76-5.13-7.8-5.13-9.03s-1.41-2.21-3.1-2.21-3.13-.69-3.18-1.55c-.03-.86-3.3-5.31-7.23-9.87-5.74-6.68-7.51-7.71-9.06-5.31-1.49,2.32-2.24,1.63-3.41-3.13-1.49-6.08-3.61-8.49-14.34-16.49-7.83-5.85-22.48-13.72-32.92-17.67-2.29-.86-6.83-2.64-10.1-3.97-8.6-3.5-44.4-6.48-68.74-5.72-19.9.62-21.11.42-21.97-3.65-.52-2.37-.8,7.05-.66,20.92l.32,25.24,5.79-4.16c3.21-2.29,5.33-4.67,4.73-5.28-.6-.63-2.44,0-4.07,1.35-2.41,2.04-3.13,1.43-3.99-3.33-.54-3.21-1.15-9.78-1.29-14.66-.32-9.7,2.15-11.16,8.72-5.18,3.47,3.15,8.69,3.65,39.35,3.76,36.02.13,55.64,3.03,53.77,7.93-.6,1.61,1.92,2.41,7.57,2.41,6.74,0,9.55,1.2,13.36,5.68,2.67,3.13,6.28,5.65,8.03,5.65s3.21.98,3.21,2.18c0,4.1,9.03,14.45,12.62,14.45,1.98,0,6.8,3.96,10.7,8.83,7.26,9.01,28.25,51.14,28.25,56.67,0,1.69,1.86,6.54,4.13,10.81,2.27,4.24,4.13,10.41,4.13,13.65,0,3.84.92,5.62,2.58,5.02,1.69-.57,2.5-4.88,2.35-12.3h0l-.02.03Zm-529.62-45.83c-.52-2.55-.92-.46-.92,4.67s.4,7.26.92,4.67c.49-2.55.49-6.77,0-9.35h0Zm474.5-12.79c-1.29-2.75-3.07-4.56-3.93-4.04-.89.54-1.58,0-1.58-1.2s-1-2.21-2.24-2.21c-2.27,0,6.31,12.16,8.75,12.36.75.06.29-2.15-1-4.9h0Zm15.11-5.05c0-.98-1.86-3.93-4.13-6.57-5.08-5.88-5.54-2.61-.52,3.73,3.99,5.02,4.65,5.42,4.65,2.84Zm-26.82-4.16c0-2.55-11.16-13.94-15.17-15.49-5.16-2.01-4.22-.46,5.36,8.75,9.49,9.15,9.81,9.35,9.81,6.74Zm-21.68-19.01c-.69-1.15-2.38-2.06-3.73-2.04-1.46,0-1.23.83.63,2.04,3.99,2.58,4.67,2.58,3.1,0Zm-12.36-8.32c-.72-1.12-2.38-2.06-3.76-2.04-1.46.03-1.2.83.66,2.04,3.96,2.58,4.67,2.58,3.1,0h0Zm18.58-9.84c-2.98-1.58-6.54-2.47-7.89-1.98s.06,2.09,3.15,3.56c3.15,1.49,5.02,3.64,4.24,4.93-.75,1.26.29.95,2.29-.69,3.41-2.78,3.3-3.15-1.81-5.82h.02Zm-561.06-4.13c-.69-.69-1.17.54-1.08,2.72.1,2.41.59,2.93,1.25,1.26.59-1.49.52-3.3-.16-3.99h0Zm474.36,2.58c11.56-2.21,12.82-2.75,6.19-2.78-4.53-.03-11.96,1.18-16.49,2.7-10.58,3.5-7.74,3.53,10.3.09h0Zm52.57-7.37c-4.85-3.1-7.31-2.29-2.93.95,2.21,1.61,4.45,2.5,4.99,1.95.52-.54-.4-1.84-2.06-2.9Zm14.51.09c0-1.15-1.32-2.09-2.93-2.09s-4.62-.63-6.65-1.43c-3.33-1.29-3.38-1.06-.69,2.01,3.33,3.76,10.27,4.79,10.27,1.52h0Zm-81.51-2.09c-.72-1.15-2.21-2.06-3.36-2.06s-1.49.92-.77,2.06c.69,1.15,2.21,2.09,3.33,2.09s1.49-.95.8-2.09Zm8.26,0c.69-1.15-.17-2.06-1.95-2.06s-3.21.92-3.21,2.06.86,2.09,1.92,2.09,2.52-.95,3.24-2.09h0Zm28.88,0c-.72-1.15-2.38-2.06-3.73-2.04-1.49,0-1.23.83.63,2.04,3.96,2.58,4.67,2.58,3.1,0Zm19.99-3.5c-1.49-.6-3.27-.52-3.96.17s.52,1.18,2.7,1.09c2.41-.11,2.9-.6,1.26-1.26Zm-116.5-34.41c-.4-6-.75-1.09-.75,10.9s.34,16.9.75,10.91c.43-6,.43-15.81,0-21.81Zm56.79,13.68c-1.43-.58-3.76-.58-5.16,0-1.43.58-.26,1.05,2.58,1.05s3.99-.47,2.58-1.05h0Zm-17.61-16.8c-.49-3.14-.86-.57-.86,5.71s.37,8.85.86,5.71c.46-3.14.46-8.28,0-11.43h0Zm5.97,6.28c-.69-.69-1.18.54-1.09,2.73.09,2.42.57,2.91,1.23,1.26.6-1.5.54-3.29-.14-3.98h0Zm-391.79-55.09c-.42-6-.76-1.09-.76,10.91s.34,16.9.76,10.9.42-15.81,0-21.81Zm348.68-5.19c-.49-3.14-.86-.57-.86,5.71s.37,8.85.86,5.71c.46-3.14.46-8.28,0-11.43h0Zm-18.7-3.15c-.57-1.41-1,.25-.95,3.68.03,3.43.49,4.58,1.03,2.56.52-2.02.49-4.82-.09-6.23h.01Zm-236.58-28.51c0-3.29-57.01-5.71-67.55-2.87-2.54.69-4.21,1.92-3.71,2.74,1.2,1.95,71.26,2.08,71.26.13h0Zm118.65-.01c-1.41-2.27,3.64-2.9,5.82-.72,1.78,1.8,41.21,1.86,44.11.07,1.23-.77,7.11-.47,13.05.67,14.17,2.7,15.8,2.64,12.7-.45-3.33-3.35-93.24-5.29-93.24-2.01,0,1.21,3.96,2.57,8.78,3,4.82.44,9.06.96,9.41,1.16s.06-.57-.63-1.72h0Z" style="fill:url(#d); isolation:isolate; opacity:.95;"/><path id="f" d="m339.58,923.41c-49.5-1.63-73.03-3.38-99.04-7.28-11.35-1.69-22.96-3.44-25.79-3.87-24.25-3.61-40.19-10.04-51.24-20.56-11.77-11.24-15.37-18.44-13.98-27.93.61-4.19,1.64-110.87,2.29-237.12,1.24-239.62,4.26-467.96,6.4-483.99,1.64-12.22,9.4-25.61,17.81-30.72,8.02-4.87,22.45-8.29,40.77-9.66,35.29-2.64,214.23-3.51,272.36-1.32,81.25,3.05,86.76,3.45,105.2,7.59,8.55,1.91,16.55,3.63,17.78,3.81,5.51.81,13.79,8.38,16.61,15.13,1.69,4.04,3.38,14.02,3.76,22.17.4,8.15.8,15.98.92,17.41.32,4.57,15.43,19.76,22.69,22.82,3.96,1.66,19.79,3.76,36.11,4.78,17.32,1.08,34.5,3.42,42.5,5.78,25.87,7.62,51.68,23.28,73.99,44.89,50.1,48.53,63.15,96.62,65.7,242.14,1,58.45.03,77.12-7.63,144.37-5.88,51.62-20.65,90.4-44.91,117.99-14.02,15.95-35.25,32.61-52.74,41.41-26.3,13.28-38.06,16.09-75.83,18.18-35.82,1.98-42.16,3.36-52.74,11.5-3.53,2.72-7.03,4.53-7.74,3.99-.69-.52-.83-.34-.32.37s-.4,3.27-2.06,5.65c-2.04,2.93-3.01,9.66-3.01,20.39,0,40.21-9.09,52.14-46.43,61.06-13.19,3.15-75.91,9.78-83.94,8.89-2.64-.32-10.81.14-18.21,1-18.33,2.12-91.72,2.72-139.27,1.15h0v-.02Zm130-16.35c7.94-2.12,17.41-4.93,21.02-6.25,5.54-2.01,8.52-1.66,19.01,2.18,17.55,6.45,53.29,5.1,77.84-2.95,19.44-6.34,19.07-5.71,19.7-33.5l.4-18.7,1.15,17.67c.66,9.69.46,19.3-.43,21.28-1.12,2.5-.75,3.64,1.2,3.64,4.82,0,9.46-12.7,10.98-30.11,1.78-20.1,1.43-23.14-3.01-27.91-9.61-10.24-13.14-16.75-9.12-16.75.86,0,1.35-22,1.12-48.9-.23-26.87.34-48.38,1.32-47.78s3.27-1.23,5.13-4.1c1.84-2.84,4.7-5.16,6.37-5.16,2.61,0,3.01-27.25,3.07-208.64.03-114.75.66-210.25,1.41-212.2,1.09-2.87.49-3.33-3.04-2.41-3.7.98-4.59.09-5.48-5.36-1.49-9.18-.4-44.77,1.35-43.68.77.49,1.43-10.39,1.43-24.15s-.66-24.62-1.49-24.11c-.8.5-1.12-2.74-.69-7.22,1.03-10.92,4.45-10.39,4.5.69,0,4.86.95,10.23,2.06,11.94,1.38,2.1,1.86-8.23,1.52-31.61-.46-29.85-1.03-35.23-4.13-38.35-3.24-3.26-3.61-3.28-3.61-.24,0,1.86,1.15,3.81,2.58,4.32,1.41.51,1.89,1.65,1.06,2.54-1.89,2.06-7.26-2.35-8.4-6.91-.46-1.92-.49-.45-.03,3.27.95,7.49-.72,8.35-6.68,3.48-2.21-1.8-2.84-2.68-1.43-1.96,1.43.72,2.58.33,2.58-.88s-2.72-2.2-6.08-2.2-11.44-1.4-17.98-3.12c-6.54-1.71-15.4-3.11-19.7-3.11s-7.83-.93-7.83-2.08,2.95-2.08,6.54-2.08,6.17-.36,5.68-.79c-1.86-1.73-89.68-7.65-111.76-7.53-1.98,0-5.48-.1-7.74-.24-10.55-.67-128-.13-153.72.71-31.35,1.03-42.97,2.65-49.79,6.94-4.98,3.13-8.02,1.61-4.74-2.37,1.65-2.01,1.18-2.37-2.01-1.53-6.77,1.78-9.44,6.28-6.12,10.31,2.54,3.08,2.21,3.31-3.36,2.27-3.4-.63-10.36-2.72-15.47-4.63-9.11-3.42-20.19-3.4-30.78.05-4.16,1.36-4.77,1.04-3.66-1.87,1.09-2.86.65-3.13-2.43-1.47-3.52,1.9-3.81,7.38-4.59,86.77-1.1,111.88-.1,412.87,1.44,432.66,1.45,18.64,7.11,33.1,15.39,39.23,7.71,5.76,7.62,4.67-.65-7.14l-6.71-9.55-1.24-51.25c-1.65-68.06-2.11-460.68-.55-469.28.91-5.03,2.34-6.8,5.63-6.95,4.22-.2,4.2-.27-.35-1.56-8.41-2.38-5.87-5.49,5.01-6.12,9.19-.54,10.71-.06,11.67,3.63.61,2.34.26,4.78-.76,5.41-1.03.64-1.88-.99-1.9-3.63-.03-3.88-.42-4.2-2.06-1.68-1.64,2.52-2.37,2.59-3.78.39-3.13-4.88-4.18,25.62-3.31,96.2.69,55.65,2.44,292.13,3,405.04.11,22.37.43,24.52,3.15,20.91,2.87-3.84,3.03-3.7,3.03,2.58,0,7.31,3.89,9.03,5.58,2.5.59-2.27,1.9-3.61,2.9-2.98,1.03.63,1.3,27.39.61,61.78-.67,33.33-1.06,69.63-.87,80.68.4,23.57-1.94,43.33-4.15,34.99-2.23-8.37-4.7,19.96-3.71,42.62l.86,19.7h-13.3l.97-11.93c3.03-37.4,5.54-52.68,9.43-57.67,2.22-2.84,3.25-5.16,2.27-5.16-5.79,0-11.49,21.94-14.02,54-1.42,17.95-2.68,23.35-5.12,21.82-3.4-2.12-4.39-17.38-2.18-33.64,1.34-9.84,1.54-19.82.51-24.69-1.45-6.83-1.95-4.3-3.07,15.72-.73,13.16-1.95,27.39-2.7,31.63-1.19,6.71-1.86,7.46-5.19,5.65-2.99-1.61-3.57-1.41-2.69.92,1.27,3.33,9.54,7.11,17.35,7.92,9.63.98,23.14-2.72,24.16-6.62,1.08-4.13,4.08-3.41,42.3,10.3,23.38,8.4,57.32,10.81,77.62,5.54,16.78-4.33,19.87-4.27,34.59.89,6.71,2.32,19.16,5.08,27.68,6.08,21.94,2.58,62.21.52,79.44-4.1h0v-.05Zm73.25-6.37c0-1.43,1.75-1.98,4.22-1.32,2.32.6,7.03.29,10.44-.72,4.59-1.32,6.02-1.12,5.42.69-1.09,3.36-20.08,4.62-20.08,1.35h0Zm-78.32-4.56c-3.53-5.54-3.47-5.19-6.31-31.66-2.35-22.03-1.95-30.49,1.49-31.66,2.58-.86,4.65,6.22,4.7,16.06.03,7.06,4.39,34.62,7.28,46.23,1.81,7.2-2.84,7.86-7.17,1.03h.01Zm102.7,2.09c-1.49-1.43-7.37-2.61-13.05-2.61h-10.3l-1.46-13.51c-.8-7.43-2.67-22.83-4.13-34.27l-2.7-20.76-6.74-.66c-3.7-.34-6.19-1.52-5.54-2.58.69-1.15-4.13-1.95-11.44-1.95-11.96,0-12.62-.26-11.93-4.67.37-2.58,1.84-4.45,3.24-4.16,1.38.29,2.52-.4,2.52-1.55s-1.2-2.09-2.67-2.09c-2.01,0-2.61-5.13-2.5-21.08l.17-21.08,16.58.43c9.12.23,22.28,1.61,29.22,3.07,6.94,1.43,12.19,1.92,11.67,1.06-1.41-2.29-20.48-6.02-30.8-6.02-4.99,0-9.72-1.06-10.53-2.38-1.09-1.78,2.7-2.01,14.66-.92,8.89.8,17.15,1.66,18.38,1.86,1.49.29,2.15-7.74,2.04-24.52-.17-19.42.46-25.41,2.75-27.1,2.12-1.58-3.24-2.04-18.99-1.58-12.07.32-24.15,1-26.84,1.49-3.1.57-5.36-.26-6.11-2.24-2.15-5.62-1.29-56.01.89-52.63,1.78,2.78,2.01,2.78,2.18,0,.11-1.72.6-2.12,1.12-.89.6,1.43,4.99,1.69,12.73.72,13.74-1.72,19.44-3.64,21.68-7.37,2.06-3.47,8.26-1.09,6.83,2.61-2.15,5.65,4.93,2.75,8.03-3.27,3.41-6.65,4.27-11.36,1.15-6.4-1.06,1.69-2.24,2.61-2.64,2.09-.4-.54-.03-15,.77-32.15.83-17.15,2.06-48.93,2.75-70.64.69-21.68,1.75-51.14,2.35-65.42.6-14.28,1.03-27.36.95-29.08-2.21-42.02-2.27-62.84-.23-65.3,1.29-1.55,1.55-3.15.63-3.56-1.98-.83.14-68.46,2.27-71.9.77-1.26.43-2.87-.75-3.61-1.18-.72-1.66-2.04-1.12-2.93.54-.92,1.55-29.05,2.21-62.55.69-33.49,2.18-65.18,3.3-70.41,1.15-5.23,2.58-14.9,3.21-21.48,1.43-14.78,3.99-17.18,4.47-4.18.49,12.53,2.38,14.44,2.38,2.39v-9.27l8.55-.05,8.55-.05-1.12,22.99c-.69,14.87-.49,19.69.6,13.65.92-5.14,1.78-14.02,1.86-19.73.11-5.71.95-11.58,1.86-13.04,1.78-2.82,1.89-1.45,2.44,28.62.26,14.67.6,16.43,2.12,10.38,1-4,1.41-13.48.89-21.07-.69-10.62-.2-14.4,2.21-16.41,2.78-2.32,3.01,8.7,2.01,101.05-1.72,163.56-4.56,269.36-8.23,307.21-.54,5.71-1.52,22.05-2.15,36.34-1.75,39.86-5.02,70.98-8.09,77.21-2.38,4.79-2.35,5.79.17,6.77,4.45,1.72,10.87-14.28,11.21-27.88.26-9.49.54-10.38,1.84-5.19.83,3.41,1.2,23.98.8,45.69s-1.2,77.75-1.81,124.53c-1.06,84.37-1.41,88.22-7.74,88.36-.83,0-1.63-1.61-1.78-3.61-.23-3.47-.29-3.47-1.18,0-.77,2.93-4.36,5.22-4.9,3.13-.09-.29-1.84-11.73-3.9-25.44l-3.79-24.95-.2,23.23c-.29,29.91-3.3,38.55-10.93,31.32h.05Zm-.46-10.81c2.64-2.64,2.61-6.85-.17-33.5-1.75-16.75-3.7-31.29-4.3-32.29-1.52-2.47-7.08-2.32-7.08.2,0,1.09,1.41,1.46,3.1.8,2.18-.83,3.1.17,3.1,3.3,0,2.55-.92,3.93-2.09,3.18-1.38-.83-1.75,1.52-1.09,6.62.54,4.39,1.58,14.28,2.27,22,.69,7.71,2.12,13.51,3.15,12.85,1.03-.63,1.89.34,1.89,2.18s-.92,2.78-2.06,2.09c-1.23-.77-2.06,2.04-2.06,7.14,0,9.18.8,9.98,5.36,5.42h-.02Zm22.83-7.89c-.57-1.43-1.03-.26-1.03,2.58s.46,4.04,1.03,2.61.57-3.76,0-5.19Zm-2.01-18.7c-2.81-33.73-6.05-54.58-9.87-63.64-3.04-7.17-3.79-8.03-2.98-3.36,5.28,30.72,11.41,71.7,11.41,76.34.03,3.13.63,5.71,1.35,5.71s.77-6.77.09-15.06h0Zm-10.38-27.04c-.57-1.41-1,.26-.95,3.67.03,3.44.52,4.59,1.03,2.55.52-2.01.49-4.82-.09-6.22h.01Zm-2.18-11.33c-.66-.72-1.15.52-1.06,2.72.09,2.41.57,2.9,1.23,1.23.6-1.49.52-3.27-.17-3.96h0Zm-55.87-13.14c.89-1.41-.69-1.66-4.5-.75-7.92,1.92-8.66,2.93-2.21,2.93,2.98,0,5.99-.98,6.71-2.18h0Zm46.37-1.98c-1.2-2.29-2.67-4.16-3.24-4.16s-.03,1.86,1.18,4.16c1.23,2.29,2.67,4.16,3.24,4.16s.06-1.86-1.18-4.16Zm-57.36-2.5c-1.92-1.95-3.01-1.95-4.96,0-1.92,1.95-1.38,2.5,2.5,2.5s4.39-.54,2.47-2.5h-.01Zm43.31-17.61c-1.49-.6-3.27-.54-3.96.14s.54,1.18,2.72,1.09c2.38-.09,2.87-.57,1.23-1.23h.01Zm-10.93-6.08c-2.72-1.52-8.66-2.67-13.19-2.55-8.06.2-8,.23,1.95,1.63,5.59.77,10.55,2.52,11.01,3.87.43,1.38,1.78,1.86,2.98,1.15,1.26-.8.11-2.5-2.75-4.1h0Zm-22.48-74.8c0-.43-3.3-.8-7.34-.8s-6.85.77-6.28,1.72c1,1.63,13.62.77,13.62-.92Zm26.93.17c3.36-1.72,6.11-4.07,6.11-5.19s1.61-2.09,3.58-2.15c3.07-.14,3.01-.4-.52-1.84-5.13-2.06-7.37-.89-5.88,3.07.86,2.21-.34,3.07-4.33,3.07-3.01,0-4.96.83-4.33,1.89.63,1.03,0,2.38-1.43,2.95-1.41.57-1.84,1.12-.92,1.2.89.09,4.39-1.26,7.71-3.01h.01Zm26.73.03c5.08-2.95,5.08-2.98-2.06-1.72-8.2,1.43-13.36,4.9-7.11,4.79,2.21-.03,6.34-1.41,9.18-3.07h-.01Zm-30.57-8.66c-1.49-.6-3.27-.52-3.96.17-.66.69.54,1.18,2.72,1.09,2.41-.09,2.9-.6,1.23-1.26h.01Zm45.03-5.99c0-.57-1.86-.03-4.13,1.18-2.27,1.23-4.13,2.7-4.13,3.27s1.86.03,4.13-1.18c2.27-1.23,4.13-2.7,4.13-3.27Zm-45.4-2.15c0-.46-3.73-.8-8.26-.8s-8.26.72-8.26,1.61,3.73,1.26,8.26.8c4.53-.43,8.26-1.15,8.26-1.61Zm51.85-2.38c2.55-3.3,2.5-3.36-.77-.77-2.01,1.58-3.61,3.21-3.61,3.64,0,1.69,1.69.6,4.39-2.87h-.01Zm-81.13-10.1c-1.84-1.86-4.36-2.72-5.59-1.95-4.1,2.52-2.38,5.31,3.33,5.31,5.16,0,5.33-.26,2.27-3.36h0Zm17.84-2.7c-1.09-1.06-7.54-2.44-14.34-3.1l-12.39-1.2,9.29,2.81c11.16,3.41,20.22,4.19,17.44,1.49h0Zm55.32-17.55c-.57-.98-1.86-.52-2.84,1.06-2.75,4.36-2.15,6.37,1.03,3.41,1.58-1.49,2.41-3.5,1.81-4.47Zm-1.81-53.95c.72-21.28,1.78-43.62,2.32-49.64,1.38-14.97,9.01-220.86,9.78-263.68.52-29.48.26-33.18-1.75-24.92-1.46,5.91-2.93,41.36-3.76,90.71-.75,44.57-1.72,83.8-2.18,87.24-.43,3.41-1.41,26.93-2.09,52.23-.72,25.3-1.63,49.59-2.01,54-.4,4.42-1.29,22.03-2.01,39.18-.69,17.12-1.69,38.63-2.21,47.78-.6,10.73-.32,14.71.8,11.21.98-2.98,2.35-22.83,3.1-44.11h.01Zm12.99-164.99c-.52-1.98-.92.14-.89,4.7,0,4.56.43,6.19.92,3.61.52-2.58.49-6.34-.03-8.32h0Zm-28.68-2.84c-.52-1.58-1.46-.63-2.18,2.18-.89,3.47-.63,4.27.89,2.72,1.2-1.2,1.78-3.41,1.29-4.9h0Zm-.37-11.62c-.69-.72-1.18.52-1.09,2.72.09,2.41.57,2.9,1.23,1.23.6-1.49.54-3.27-.14-3.96h0Zm.8-16.15c0-10.64-3.18-10.41-3.64.23-.23,5.65.4,8.8,1.63,8.06,1.09-.72,2.01-4.45,2.01-8.29Zm1.63-23.14c-.6-2.87-1.12-2.35-1.98,2.01-.77,3.79-.49,5.16.8,3.84,1.09-1.09,1.63-3.73,1.18-5.85Zm.43-11.13c0-1.15-.98-2.09-2.18-2.09s-1.61.95-.92,2.09c.72,1.15,1.69,2.06,2.18,2.06.52,0,.92-.92.92-2.06Zm-.46-18.7c-.03-4.67-.2-4.56-1.61,1.03-.86,3.44-1.58,8.12-1.61,10.38-.03,3.27.32,3.04,1.61-1.03.92-2.87,1.63-7.54,1.61-10.38Zm-.34-11.9c-.69-.69-1.18.54-1.09,2.72.09,2.41.57,2.9,1.23,1.26.6-1.52.54-3.3-.14-3.99h0Zm.11-9.41c-.57-1.41-1.03-.26-1.03,2.61s.46,4.02,1.03,2.61c.57-1.43.57-3.79,0-5.22h0Zm2.04-18.73c-.54-1.41-.98.26-.95,3.67.06,3.44.52,4.59,1.03,2.58.52-2.04.49-4.85-.09-6.25h.01Zm2.18-16.58c-.49-2.55-.89-.46-.89,4.67s.4,7.26.89,4.67.49-6.77,0-9.35h0Zm.06-41.53c-.43-4.88-.8-.89-.8,8.8s.37,13.71.8,8.83c.43-4.85.43-12.79,0-17.64h0Zm10.04-5.16c-.69-.69-1.18.54-1.09,2.72.11,2.44.6,2.93,1.26,1.26.6-1.49.52-3.3-.17-3.99h0Zm11.56-32.75c.52-10.28.29-21.97-.52-25.97-.89-4.61-1.52,1.6-1.69,16.97-.14,13.33-.86,25.95-1.61,28.05-.92,2.58-.66,3.13.77,1.72,1.15-1.15,2.52-10.49,3.04-20.77h.01Zm7.11-18.21c-.54-1.41-.98.25-.95,3.67.06,3.43.52,4.58,1.03,2.56.52-2.02.49-4.82-.09-6.23h.01Zm-240.65,696.16c-2.9-1.18-4.19-2.67-2.98-3.5,1.15-.8,2.29-3.33,2.5-5.62,1.58-16.58,4.07-32.06,4.3-26.59.34,8.49,3.84,10.78,4.96,3.27.49-3.15.86,3.36.83,14.51,0,21.22-.26,21.68-9.61,17.92h0Zm126.39-2.32c-1.78-2.24-4.47-17.92-4.9-28.59-.09-1.72-.66-4.53-1.29-6.22-1.98-5.28-2.9-11.04-3.3-20.62l-.37-9.21-14.43-.34c-7.94-.17-23.55-.49-34.67-.66-11.16-.2-19.79-1.12-19.22-2.04.57-.95-1.58-1.32-4.82-.83-5.68.83-57.96-5.16-59.62-6.85-2.15-2.15,2.12-7.26,6.34-7.51l4.7-.29-4.65-.89c-2.55-.52-4.65-2.35-4.65-4.1,0-2.15,1.2-2.78,3.61-1.92,3.44,1.2,3.44,1.12,0-1.58-2.95-2.29-3.61-6.14-3.61-20.79v-17.95l12.91,1.06c7.08.57,20.31,1.41,29.4,1.86,9.06.46,17.44,1.09,18.56,1.38,1.15.29,3.7-.17,5.68-1.06,1.98-.86,5.25-.95,7.23-.14,1.98.77,18.33,1.29,36.28,1.15,23.52-.17,32.29.4,31.26,2.06-.77,1.26-2.72,1.81-4.3,1.2-1.58-.63-2.9-.29-2.9.75s1.46,2.15,3.24,2.52c2.84.57,3.21,7.49,3.04,57.5-.14,40.67.49,57.67,2.21,59.77,1.35,1.61,1.95,3.41,1.41,3.99-.57.54-1.98-.17-3.13-1.63h0v-.02Zm-33.58-69.23c0-.49-4.88-.77-10.84-.6l-10.81.32,9.26,1.32c8.89,1.26,12.39.98,12.39-1.03h0Zm18.58-.09c0-.46-1.92-.83-4.27-.83s-3.7.89-3.01,2.01c1.09,1.78,7.28.77,7.28-1.18h0Zm-102.79-12.62c-1.49-.6-3.27-.54-3.96.14s.54,1.2,2.7,1.09c2.41-.09,2.9-.57,1.26-1.23h0Zm88.85.03c-1.41-.57-3.73-.57-5.16,0-1.41.57-.26,1.06,2.58,1.06s3.99-.49,2.58-1.06h0Zm-2.58-4.99c1.69-.11-2.01-1.58-8.26-3.21-7.92-2.12-21.28-2.93-44.37-2.72-18.15.17-35.68.23-38.95.14-3.3-.11-5.42.37-4.73,1.06s11.24,1.55,23.49,1.92c28.88.86,59.14,3.01,60.37,4.27.54.54,2.87.49,5.16-.14,2.32-.6,5.59-1.2,7.28-1.32h.01Zm-2.06-9.12c0-1.35-16.55-6.02-22.31-6.28-2.64-.14-5.22.49-5.76,1.38-.54.86,2.09,1.55,5.82,1.49,3.73-.03,9.58.83,12.96,1.98,7.37,2.41,9.29,2.72,9.29,1.43h0Zm-38.23-5.19c.69-1.09,2.5-1.49,4.04-.89s3.33.29,3.93-.72c.6-.98-8.6-1.75-20.42-1.69-11.84.06-21.54-.6-21.54-1.46s-5.02-1.55-11.18-1.55-11.47-.77-11.84-1.69c-.4-.92-3.01-.46-5.85,1.03-4.67,2.41-3.73,2.67,9.66,2.7,8.17.03,15.34.83,15.92,1.78.6.98,6.4,1.95,12.91,2.15s12.27.83,12.82,1.35c1.75,1.78,10.32,1.03,11.56-1h-.01Zm50.99-11.9c-1.49-.6-3.27-.52-3.96.17s.54,1.18,2.72,1.09c2.41-.09,2.9-.6,1.23-1.26h0Zm-82.54-12.45c-1.46-.6-3.27-.54-3.93.14-.69.72.52,1.2,2.7,1.12,2.41-.11,2.9-.6,1.23-1.26h0Zm-147.14,121.34l-13.68-4.45.96-8.4c.53-4.62,3.2-19.93,5.94-34.01,5.82-29.91,5.93-31.52,2.02-31.52-3.67,0-4.28,1.95-9.4,29.94-2.27,12.45-4.6,23.12-5.18,23.69-2.25,2.29-.87-13.19,2.27-25.3,1.93-7.46,2.9-17.09,2.33-23.14-1.09-11.67.06-17.67,2.6-13.51.86,1.38,2.04,1.72,2.63.75s-.28-3.04-1.94-4.59c-2.57-2.38-3.19-2.15-4.15,1.55-2.46,9.46-4.79,3.53-5.02-12.76-.39-28.02.56-110.56,1.28-111.3.36-.37,2.83.49,5.48,1.89,4.39,2.35,4.57,2.29,1.99-.86-1.56-1.89-4.26-3.44-6-3.44-2.79,0-3.01-5.13-1.81-43.11.75-23.72,2.29-101.07,3.42-171.9,2.19-137.12,5.37-263.99,7.55-300.65,1.16-19.59,1.78-22.34,5.02-22.34,2.03,0,4.28-.95,4.99-2.11,4.01-6.53,5.1,4.86,4.92,51.56-.13,36.25-.89,51.73-2.57,52.82-1.3.83-1.45,1.55-.31,1.55,1.34.03,2.06,31.03,2.06,88.85,0,48.84.46,104.88,1.03,124.55.57,19.7.49,37.91-.18,40.52-.66,2.58-.54,6.6.26,8.86,1.2,3.38,5.12,119.68,4.85,143.74-.04,3.67.69,6.17,1.62,5.59s1.73.17,1.77,1.66,1.2.69,2.58-1.78c2.45-4.39,2.62-4.42,7.15-.72,2.55,2.09,4.64,4.82,4.64,6.08s2.38,2.27,5.28,2.27c3.68,0,4.81-.8,3.73-2.61-1.17-1.95-.74-1.95,1.74.09,2.01,1.66,5.42,2.15,8.8,1.29,3.04-.75,7.54-.43,10.01.75s7.71,3.04,11.7,4.13l7.23,1.98-5.82,2.38c-3.18,1.29-10.15,2.5-15.46,2.61-5.33.14-12.48,1.03-15.86,2.01-4.34,1.2-1.56,1.52,9.26,1,8.52-.37,13.85-.29,11.87.26-5.02,1.32-4.5,4.27,1.03,5.85,9.69,2.72,16,5.76,16,7.63,0,1.09-1.63,1.81-3.61,1.61-6.77-.69-6.94.11-1.15,5.22,3.18,2.84,4.56,5.16,3.1,5.19-1.49.06-2.15,1-1.43,2.15.77,1.26-2.44,2.09-8.26,2.09s-9.03.8-8.26,2.06c.72,1.15,4.88,2.06,9.29,2.06s8.66,1.06,9.44,2.32c1.72,2.84-39.31.4-45.07-2.64-2.01-1.06-4.55-1.38-5.66-.69-2.03,1.26-29.73-2.01-35.36-4.19-2.64-1.03-3.13,4.33-3.47,38.6-.22,21.88-.87,40.55-1.44,41.47-.57.95-.12,2.27,1,2.95,1.12.72,2.64-1.15,3.38-4.13.88-3.53,2.36-5.02,4.29-4.24,1.62.6,2.48.37,1.92-.54-1.82-2.98,7.8-10.07,17.39-12.85,7.71-2.21,8.27,1.38.68,4.3-8.1,3.1-5,4.1,3.94,1.29,4.69-1.49,7.36-3.47,6.76-5.02-.55-1.46,1.15-3.13,3.88-3.81,5.25-1.32,28.92-.09,45.49,2.38,8.23,1.23,9.46,1.89,6.19,3.33-2.75,1.2-.92,1.52,5.74.95,6.85-.54,9.78-.03,9.78,1.78,0,1.69-3.76,2.72-10.81,2.98-5.97.2-14.57,1.15-19.1,2.12-7.51,1.58-6.88,1.75,7.23,2.24,8.52.29,13.39.92,10.84,1.43-4.88.95-6.08,3.61-2.58,5.79,3.18,2.01,2.44,4.27-1.55,4.59-4.9.4-27.53,6.31-28.71,7.51-1.29,1.32,21.42-.11,29.77-1.86,5.71-1.2,6.54-.89,5.45,1.95-.72,1.86-2.81,3.44-4.67,3.53-7.46.32-16.4,1.95-21.14,3.84-4.88,1.95-4.85,2.01,1.23,2.35,3.41.23,7.34.23,8.78.06,1.41-.2,2.58.57,2.58,1.69s2.09,2.44,4.65,2.93,1.69.75-1.92.57-6.11.4-5.56,1.32c.57.89,2.78,1.63,4.96,1.63,2.52,0,3.53,1.06,2.84,2.9-1.09,2.87-6.11,4.13-26.64,6.71-5.65.72-11.39,2.15-12.68,3.21-1.3,1.03-3.03,9.09-3.82,17.9-.8,8.8-2.72,22.57-4.28,30.57l-2.82,14.54.93-16.63c.51-9.12,1.34-18.58,1.83-20.99.86-4.19,1.84-20.79,1.44-24.26-.11-.89-1.49-.43-3.07,1.03-1.58,1.49-2.54,3.27-2.12,3.96.42.72-1.07,12.39-3.3,25.98-2.24,13.57-4.07,27.25-4.08,30.4,0,6.97-2.26,7.08-20.9,1h0l.03.02Zm15.74-1.52c-2.27-1-5.99-1.81-8.25-1.81-2.75,0-2.75.6,0,1.81,2.27.98,5.98,1.78,8.25,1.78,2.75,0,2.75-.59,0-1.78Zm-7.22-88.42c0-.49-.93-.92-2.06-.92s-2.06,1-2.06,2.21.93,1.61,2.06.92c1.14-.72,2.06-1.69,2.06-2.21Zm20.63-17.52c0-1.15-1.62-2.06-3.61-2.06-3.09.03-3.16.34-.52,2.06,3.89,2.52,4.13,2.52,4.13,0h0Zm10.32-18.41c0-.98-2.32-1.35-5.16-.8s-5.16,1.35-5.16,1.81c0,.43,2.32.77,5.16.77s5.16-.8,5.16-1.78Zm13.92.34c-1.98-.52-5.22-.52-7.2,0-2.01.54-.37.98,3.58.98s5.62-.43,3.61-.98h.01Zm-27.33-60.86c-.7-1.15-2.84-2.06-4.76-2.06-3.01.03-3.06.32-.4,2.06,4.04,2.61,6.77,2.61,5.16,0Zm-30.95-8.32c-.7-1.15-2.38-2.06-3.73-2.04-1.48,0-1.22.83.64,2.04,3.96,2.58,4.68,2.58,3.09,0Zm15.48-21.57c0-.43-1.62-2.06-3.61-3.64-3.27-2.58-3.34-2.5-.78.8,2.7,3.44,4.39,4.56,4.39,2.84Zm-9.07-63.04c-.69-.69-1.18.54-1.08,2.72.1,2.41.59,2.93,1.24,1.26.6-1.49.52-3.3-.16-3.99h0Zm.12-11.47c-.57-1.43-1.04-.26-1.04,2.61s.47,4.02,1.04,2.58c.57-1.43.57-3.76,0-5.19Zm-2.01-21.8c-.52-2.01-.94-.37-.94,3.61s.42,5.65.94,3.64.52-5.28,0-7.26h0Zm-2.06-400.91c-.52-2-.94-.36-.94,3.64s.42,5.63.94,3.63.52-5.27,0-7.27Zm.53-13.72c-1.99-1.84-2.26-1.52-1.22,1.43.73,2.09,1.44,4.9,1.57,6.23s.68.69,1.22-1.43c.54-2.12-.17-4.92-1.57-6.23Zm4.24-16.12c0-1.14-.93-1.5-2.06-.79-1.14.71-2.06,2.22-2.06,3.36s.93,1.5,2.06.79,2.06-2.22,2.06-3.36Zm127.26,700.78c-1.2-1.95-1.92-9.98-1.63-18.1.37-9.46,4.73-3.33,5.68,7.92.69,8.46-1.61,14.22-4.04,10.18h0Zm240.33-4.7c0-2.84.49-4.02,1.06-2.58.57,1.41.57,3.76,0,5.19-.57,1.41-1.06.26-1.06-2.61Zm4.13,0c0-2.84.49-4.02,1.06-2.58.57,1.41.57,3.76,0,5.19-.57,1.41-1.06.26-1.06-2.61Zm-392.19-13.34c-.09-2.18.4-3.41,1.08-2.72s.76,2.5.16,3.99c-.66,1.66-1.15,1.18-1.24-1.26h0Zm113.8-46.89c0-4.02.43-5.65.95-3.64s.52,5.28,0,7.28c-.52,1.98-.95.34-.95-3.64h0Zm276.18-87.76c-.03-11.73.89-27.85,2.06-35.85,1.18-7.97,3.41-72.47,4.99-143.31l2.81-128.8-.98,99.72c-1,102.24-2.27,159.31-3.79,170.33-.49,3.41-.92,18.15-1,32.72-.09,14.94-.98,26.47-2.06,26.47s-1.98-9.52-2.04-21.28h0Zm-262.22,16c0-1.66,1.63-3.13,3.61-3.27,3.44-.23,3.44-.29,0-1.2-2.87-.75-3.61-3.21-3.61-12.07,0-6.14.95-11.76,2.09-12.45,1.15-.72,9.26-.2,18.04,1.15,20.31,3.13,70.04,2.87,84.66-.43,9.72-2.18,10.73-2.87,7.69-5.1-1.95-1.43-4.82-2.09-6.42-1.46-1.84.69-2.9-.32-2.93-2.75-.03-3.24-.34-3.36-2.01-.75-1.61,2.55-2.7,2.67-6.05.57-2.78-1.75-4.53-1.86-5.42-.37-.75,1.18-2.87,1.52-4.76.77-5.94-2.47-17.72-2.09-20.59.63-2.61,2.47-9.23,2.52-61.72.57-3.13-.11-3.64-18.79-.52-18.79,1.12,0,2.06,1.41,2.06,3.1s.92,3.13,2.06,3.13,2.06-.86,2.06-1.89,1.61-1.63,3.61-1.35c1.98.32,5.68-.4,8.23-1.55,3.61-1.63,5.54-1.29,8.78,1.66,2.35,2.15,4.13,2.72,4.13,1.38s1.63-2.38,3.61-2.38c3.1.03,3.15.34.52,2.06-2.21,1.43.03,2.01,7.86,2.04,6.8.03,10.47-.77,9.66-2.04-.69-1.15-.34-2.09.75-2.09s2.5,1.18,3.07,2.61c.83,2.06,1.06,2.06,1.2,0,.09-1.43,1.15-2.61,2.35-2.61s1.63.89.98,1.95c-1.55,2.52,7.34,2.09,10.75-.49,1.66-1.29,2.58-1.18,2.58.29,0,2.75,12.82,2.15,14.91-.72.98-1.32,1.55-1.23,1.55.29.03,1.55,7.14,2.47,21.19,2.7,27.68.52,28.36.6,28.36,3.64,0,1.46-1.35,2.06-3.1,1.41-2.81-1.09-4.1,1.38-3.27,6.17.14.92-.66,1.12-1.84.37-1.15-.72-2.12-2.7-2.12-4.42s-.92-2.52-2.09-1.81c-1.15.72-1.55,2.18-.89,3.24.63,1.06.09,1.92-1.26,1.92-1.84,0-1.81.77.11,3.1,1.41,1.69,3.38,2.58,4.39,1.95,1-.63,1.81.8,1.81,3.15,0,2.52-1.32,4.27-3.3,4.27-2.18,0-2.9,1.12-2.06,3.27.66,1.78.2,5.28-1.06,7.77-1.84,3.58-1.81,4.02.26,2.09,1.41-1.35,4.07-1.89,5.91-1.26,2.72.98,2.9.66.77-1.61-3.79-4.13-3.13-6.97.75-3.1,2.15,2.18,2.84,5.1,2.01,8.46-.77,3.1-.37,5.13.98,5.13,1.46,0,2.01-4.7,1.52-13.51-.37-7.43.03-13.51.89-13.51s1.61,7.11,1.61,15.8c0,12.59-.57,15.6-2.84,14.71-1.55-.6-3.93,0-5.25,1.35-1.75,1.72-21.22,2.55-68.34,2.87-56.73.37-65.93.03-65.93-2.61h0v.02Zm99.03-2.12c-1.69-.37-22.11-.98-45.37-1.38-23.29-.37-39.06-.09-35.1.66,7.17,1.32,86.44,2.04,80.47.72h0Zm-49.5-8.95c0-1.75-16.75-4.9-18.21-3.41-.4.4,3.3,1.66,8.2,2.75,4.93,1.12,9.21,2.12,9.49,2.24.29.14.52-.57.52-1.58h0Zm-21.68-2.32c.72-1.18-.11-1.52-1.95-.8-3.58,1.38-4.22,2.87-1.26,2.87,1.06,0,2.52-.95,3.21-2.06h0Zm95.96-22.86c0-1.15-2.55-2.01-5.68-1.89l-5.68.23,5.16,1.66c2.84.89,5.39,1.75,5.68,1.86s.52-.75.52-1.86h0Zm-75.57,5.97c-2.55-1-.54-1.58,5.94-1.66,5.36-.09,9.78.2,9.78.63,0,1.72-12.05,2.5-15.72,1.03h0Zm92.23-6.85c-.09-2.18.4-3.41,1.09-2.72s.75,2.5.14,3.99c-.66,1.66-1.15,1.18-1.23-1.26h0Zm-289.75-105.83c-.85-3.27-1.06-6.45-.47-7.06,1.66-1.66,3.69,5.02,2.81,9.26-.58,2.75-1.19,2.18-2.34-2.21h0Zm-.78-213.17l.22-32.21,1.15,27.02c.63,14.86.54,29.34-.22,32.18-.75,2.87-1.27-9.29-1.15-26.99Zm-2.64-47.67c0-3.36.93-6.68,2.06-7.37,1.23-.77,2.06,1.69,2.06,6.11,0,4.04-.93,7.37-2.06,7.37s-2.06-2.75-2.06-6.11Zm1.03-14.66c-.7-1.15-.29-2.06.91-2.06s2.19.92,2.19,2.06-.41,2.06-.91,2.06-1.49-.92-2.19-2.06Zm-.87-52.8c-.09-2.18.4-3.41,1.08-2.72s.76,2.5.16,3.99c-.66,1.66-1.15,1.18-1.25-1.26h0Zm-.16-46.91c0-17.28.77-27,2.14-27s1.94,9.34,1.55,27c-.33,14.85-1.29,27-2.14,27s-1.55-12.15-1.55-27Zm0-45c0-8.76.63-15.29,1.39-14.52,2.34,2.35,2.97,30.45.69,30.45-1.22,0-2.08-6.62-2.08-15.93h0Zm51.59-27.7c0-1.14.93-2.08,2.06-2.08s2.06.93,2.06,2.08-.93,2.08-2.06,2.08-2.06-.93-2.06-2.08Zm-83.18,737.86c-.52-1.98-.92.14-.9,4.7.02,4.59.45,6.19.94,3.61s.47-6.31-.04-8.32h0Zm-.07-84.09c-.09-56.99-.24-60.83-.76-19.39-.37,29.48-1.52,52.83-2.66,54.2-1.1,1.35-1.35,3.1-.54,3.93.81.8,1.18,8.43.83,16.92-.36,8.75.2,15.49,1.3,15.49,1.17,0,1.9-28.08,1.83-71.15h0Zm456.75,38.55c-1.38-7.77-2.52-25.35-2.61-39.06l-.09-24.92-1.89,16.61c-2.18,19.53-.8,47.06,2.84,56.53,3.87,10.07,4.53,6.6,1.75-9.15h0Zm-438.02-18.81c-.42-5.42-.77-.98-.77,9.87s.35,15.29.77,9.87.42-14.31,0-19.73h0Zm457.47,20.42c.66-1.03,0-2.29-1.41-2.81-10.41-3.76,23.26-10.18,71.84-13.71,47.38-3.44,77.84-17.21,107.4-48.55,15.29-16.2,30.51-42.7,36.71-63.84,8.6-29.45,16.72-97.25,18.9-157.91,2.18-59.91-5.65-162.9-14.8-195.25-7.97-28.08-26.93-59.91-47.95-80.5-10.93-10.7-39.55-32.81-39.55-30.56,0,.63-2.06-.79-4.56-3.14-2.52-2.36-5.82-3.81-7.34-3.22s-2.18.14-1.49-.99c1.15-1.87-2.15-2.86-8.78-2.62-1.41.05-2.15-.58-1.63-1.4.89-1.47-14.54-6.85-26.84-9.36-3.44-.7-19.24-2.13-35.07-3.16-15.83-1.04-31.58-2.4-34.99-3.04-11.64-2.17-12.3-.34-13.05,35.03-.43,20.83.14,33.51,1.61,35.92,2.12,3.5,2.24,3.47,1.69-.23-.46-3.13,2.18-4.9,12.85-8.75,34.64-12.42,76.77-.6,113.26,31.83,13.14,11.7,23.52,27.76,21.45,33.21-.72,1.84-.43,2.84.6,2.18,1.06-.66,2.04.83,2.24,3.3.17,2.47,2.64,12.02,5.48,21.22,6.22,20.13,10.84,56.53,14,110.3,2.58,44.42.32,102.53-5.71,145.61-1.89,13.39-3.44,28.85-3.44,34.3-.03,6.48-.69,9.01-1.92,7.26-1.18-1.66-1.46.23-.77,5.19.6,4.36.26,7.34-.75,6.71-1.58-.98-4.24,7.74-4.45,14.54-.03,1.15-.89,2.58-1.86,3.18-2.04,1.26-8.69,16.55-7.23,16.55.54,0,2.52-3.3,4.42-7.34,1.92-4.04,3.81-7,4.22-6.6,1.32,1.32-7.49,18.1-9.52,18.1-1.06,0-3.04,2.09-4.42,4.67-2.32,4.39-2.24,4.5,1.49,1.63,2.18-1.69-.34,1.12-5.59,6.22-16.29,15.86-24.75,23.17-27.27,23.57-1.32.23-4.99,2.12-8.14,4.24-3.15,2.09-6.37,3.18-7.11,2.44s.66-1.95,3.15-2.61,4.56-2.12,4.56-3.27-1.18-1.52-2.58-.92c-20.13,8.95-31.15,12.27-45.97,13.97-20.25,2.32-32.01,1.29-39.18-3.44-3.27-2.15-7.03-2.87-10.44-2.01-3.47.89-4.88.6-4.02-.8.72-1.2.83-2.18.23-2.18-5.28,0-10.01,61.83-5.59,73.22,2.24,5.76,5.22,7.31,7.34,3.81h-.02Zm-477.51-119.59c1.19.75,1.96-1.58,1.86-5.59l-.17-6.88-2.7,6.22c-3.48,8.03-4.17,25.5-3.08,76.86l.89,41.56.58-56.7c.38-36.51,1.31-56.27,2.61-55.47h0Zm25.47,34.27c1.01-33.35.74-39.69-1.64-38.77-1.76.69-3.77-1.18-5.29-4.85-1.35-3.27-3.77-6.45-5.4-7.08-2.46-.95-2.54-.37-.43,3.5,2.97,5.45,2.99,5.59,4.95,57.01,1.28,33.53,1.93,39.15,4.07,34.99,1.61-3.1,2.98-19.56,3.74-44.8h0Zm431.83,12.3c-.8-3.99-.09-8.69,1.92-12.59,1.75-3.44,2.81-7.8,2.35-9.72-.54-2.32-2.41-.06-5.48,6.6-3.36,7.28-4.02,10.7-2.38,12.36,1.23,1.23,2.27,3.93,2.27,5.99s.57,3.76,1.29,3.76.72-2.9.03-6.4h0Zm9.78-9.98c-.75-3.64-1.75-6.19-2.29-5.68-.52.54-.32,3.9.49,7.51,1.84,8.52,3.53,6.83,1.81-1.84h-.01Zm88.96,2.61c29.71-7.63,55.47-31.83,67.37-63.38,13.31-35.3,22.63-144.52,18.33-215.33-4.22-69.92-10.53-107.52-21.6-128.68-7.71-14.77-25.67-34.96-39.81-44.8-21.91-15.26-60.23-21.48-81.51-13.22-14.45,5.62-25.44,19.04-26.99,33.07-.69,5.99-1.26,60.94-1.29,122.06-.06,61.12-.72,150.54-1.46,198.69l-1.38,87.56,5.99,9.49c5.68,9.03,14.34,14.66,28.71,18.61,6.77,1.89,40.35-.66,53.63-4.07h0Zm29.08-7.34l3.93-4.47-5.65,3.67c-5.85,3.79-6.97,5.28-3.96,5.28.98,0,3.53-2.01,5.68-4.47h0Zm-539.75-26.67c0-1.15-.93-2.09-2.06-2.09s-2.06.95-2.06,2.09.93,2.06,2.06,2.06,2.06-.92,2.06-2.06Zm-3.32-7.46c.77-2.01.31-2.95-1.2-2.47-3.09,1.03-4.78,5.76-2.07,5.76,1.11,0,2.58-1.49,3.27-3.3h0Zm-33.41-52.83c-1.37-8.03-2.66-23.69-2.87-34.79-.26-13.71-.65-16.55-1.2-8.8-1.4,19.47,1.69,63.04,4.29,60.43,1.64-1.63,1.58-6.28-.22-16.83h0Zm-3.07-323.45c-.47-3.15-.87-1.06-.89,4.65s.37,8.29.86,5.74.5-7.23.03-10.38h0Zm614.57-6.6c-2.93-4.67-5.91-8.49-6.57-8.49s.09,2.09,1.75,4.67c1.66,2.55,4.16,6.85,5.56,9.52s3.01,4.39,3.56,3.81c.57-.54-1.38-4.85-4.3-9.52h0Zm-614.8-22.48c-.69-.69-1.17.54-1.08,2.72.1,2.44.59,2.93,1.24,1.26.6-1.49.52-3.3-.16-3.99h0Zm.12-11.44c-.57-1.43-1.04-.29-1.04,2.58s.47,4.02,1.04,2.61c.57-1.43.57-3.79,0-5.19h0Zm456.06-5.22c-.52-2.01-.92.11-.89,4.67.03,4.59.43,6.19.95,3.61.49-2.58.46-6.31-.06-8.29h0Zm8.2-5.19c-.57-1.41-1.03-.26-1.03,2.61s.46,4.02,1.03,2.58c.57-1.41.57-3.76,0-5.19h0Zm2.47-39.45c-.17-18.57-.72-31.02-1.2-27.68-.69,4.57-1.38,5.34-2.75,3.12-1.43-2.26-1.86-1.82-1.89,1.84-.03,3.08.8,4.27,2.32,3.33,1.69-1.04,1.95.22.92,4.34-1.38,5.48.54,48.8,2.15,48.8.43,0,.63-15.17.46-33.75h-.01Zm57.53,30.25c-2.01-.54-4.82-.52-6.19.06-1.41.57.23,1,3.64.98,3.41-.06,4.56-.52,2.55-1.03h0Zm-64.07-18.84c-.52-1.99-.92.11-.89,4.7.03,4.56.43,6.19.95,3.58.49-2.58.46-6.31-.06-8.29h0Zm-464.32-3.1c-.57-1.43-1.04-.26-1.04,2.61s.47,4.02,1.04,2.58c.57-1.43.57-3.76,0-5.19Zm4.13-6.23c-.57-1.43-1.04-.26-1.04,2.6s.47,4.03,1.04,2.6c.57-1.43.57-3.77,0-5.19h0Zm458.15-10.38c-.49-2.57-.89-.47-.89,4.67s.4,7.24.89,4.67c.52-2.57.52-6.78,0-9.35h0Zm-462.23-3.12c-.52-2-.94-.36-.94,3.64s.42,5.63.94,3.63.52-5.27,0-7.27Zm6.01,4.2c-.69-.69-1.17.54-1.08,2.72.1,2.42.59,2.91,1.25,1.26.6-1.5.52-3.29-.16-3.98h0Zm.25-21.85c-.46-3.71-.83-.68-.83,6.75s.37,10.46.83,6.75.46-9.79,0-13.5Zm-1.48-53.64l-2.19-5.04,1.06,5.19c.59,2.86,1.27,14.54,1.53,25.96l.46,20.77.66-20.92c.38-11.8-.29-23.12-1.52-25.96h0Zm54.49-28.11c1.79-.69,2.76-2.05,2.17-3.02-1.32-2.15-7.14-.17-7.14,2.43,0,2.19.65,2.27,4.98.6h0Zm28.04-8.21c0-.5-.93-.91-2.06-.91s-2.06.99-2.06,2.2.93,1.62,2.06.91c1.14-.71,2.06-1.69,2.06-2.2Zm-7.87-.26c-1.49-.6-3.27-.53-3.95.16-.69.69.53,1.18,2.71,1.09,2.4-.1,2.89-.59,1.25-1.25h-.01Z" style="fill:#c7c7c7;"/><path id="h" d="m607.75,468.64c.03,11.78-97.4,21.33-217.63,21.33s-217.72-9.54-217.75-21.32h0c-.02-11.79,97.43-21.34,217.65-21.34s217.7,9.54,217.72,21.32h.01Z" style="fill:url(#g); isolation:isolate; opacity:.48;"/><path id="i" d="m308.86,921.06c-38.48-2.21-86.82-7.83-89.94-10.44-1.24-1.03-2.72-1.41-3.3-.8-1.5,1.49-29.08-4.59-38.29-8.46-4.26-1.78-10.84-6.22-14.62-9.89-13.99-13.51-13.43-7.74-11.99-123.92.72-57.73,1.78-183.95,2.36-280.48,1.65-274.92,3.69-348.54,10-360.82,5.43-10.57,14.07-16.2,31.49-20.49,15.41-3.8,24.96-4.01,179.27-3.9,166.4.11,194.22,1.15,225.79,8.41,11.33,2.6,17.18,5.24,22.46,10.1,6.94,6.38,7.17,7.16,8.4,26.18,1.52,23.23,5.97,32.29,19.9,40.5,7.83,4.62,12.53,5.52,37.46,7.11,15.69,1,32.92,2.82,38.32,4.05,10.32,2.34,37.28,12.63,36.14,13.78-.37.37-10.32-2.63-22.14-6.66-18.96-6.47-24.66-7.46-48.44-8.41-14.8-.59-31.38-2.35-36.8-3.89-11.53-3.29-15.52-2.25-18.15,4.69-2.52,6.69-2.38,63.1.17,67.08,1.72,2.7,1.98,2.67,2.01-.29.03-1.89,1.49-3.99,3.24-4.65,2.01-.77,2.7-.4,1.81,1-.98,1.63-.2,1.63,2.75.06,2.27-1.23,12.82-2.84,23.46-3.58,23.69-1.69,38.92,1.18,58.1,10.9,7.71,3.9,15.06,6.45,16.32,5.65,1.49-.92,1.69-.46.6,1.32-1.23,2.04-.75,2.41,1.86,1.41,1.98-.77,3.01-.52,2.32.57-1.43,2.35,10.87,11.79,14.14,10.81,1.29-.37,1.66-.03.86.8-.83.8,1.66,5.16,5.51,9.69,10.15,11.96,21.28,34.44,25.75,52.05,13.57,53.34,17.15,174.26,7.4,248.97-9.89,75.83-20.39,99.55-53.83,121.49-27.7,18.18-38.92,22.05-67.11,23.17-17.04.66-25.35.17-28.85-1.69-2.7-1.46-7.97-3.36-11.7-4.22-5.74-1.29-7.17-.83-9.18,2.93-3.73,7.03-4.82,65.88-1.29,70.52,2.84,3.79,9.92,3.07,9.92-.98,0-1.09-.92-1.41-2.04-.69-1.2.75-1.46-.2-.63-2.38.86-2.27,1.69-2.7,2.21-1.12.46,1.38,1.81,1.86,3.04,1.12,1.29-.8,1.61-.4.72,1.03-.8,1.32-.49,2.38.72,2.38s2.18-.92,2.18-2.04,3.5-3.53,7.74-5.31c8.69-3.67,46.92-5.22,57.27-2.35,4.82,1.35,5.51,1.2,3.1-.63-2.47-1.89-1.84-2.12,3.1-1.15,7.03,1.38,35.05-7.63,54.49-17.52,15.89-8.06,38.63-26.56,51.51-41.93,12.19-14.48,13.94-14.22,3.21.49-10.3,14.11-31.58,33.24-48.41,43.48-28.88,17.55-56.9,24.89-95.22,24.89-21.85,0-35.71,3.33-43.88,10.55-3.7,3.27-7.43,5.28-8.26,4.45s-1.23-.57-.89.57-.4,3.96-1.61,6.22c-1.23,2.29-2.72,14.02-3.3,26.1-1.63,33.55-7.54,41.99-36.31,51.68-12.33,4.13-39.58,7.63-83.89,10.7-40.24,2.81-160.69,3.9-197.06,1.78h.03Zm162.44-3.64c5.02-.29,6.34-1.18,5.42-3.56-.89-2.35-1.89-2.61-3.9-.92-1.49,1.23-3.93,2.09-5.45,1.89-1.49-.23-9.23-.17-17.18.06-10.12.32-12.88.92-9.26,2.01,4.73,1.43,12.62,1.55,30.37.52h0Zm-132.01-1.69c2.55-.69,4.65-2.15,4.65-3.21s-.86-1.43-1.92-.77-2.5.26-3.21-.92c-1.95-3.15-5.16-2.52-5.16,1s-1,3.84-6.48.89c-3.01-1.61-4.93-1.55-7.11.29-3.44,2.87-25.24,1.32-31.92-2.27-2.64-1.43-4.02-1.46-4.02-.09,0,1.15,3.01,2.98,6.71,4.04,7.6,2.21,41.44,2.93,48.47,1.03h0Zm28.85-.14c-2.01-.52-4.79-.49-6.19.09-1.38.57.26,1,3.67.95,3.38-.03,4.53-.52,2.52-1.03h0Zm126.39-2.21c0-.83-.89-2.9-1.92-4.59-1.66-2.64-2.81-2.58-8.75.43l-6.83,3.44,6.71-1.2c4.27-.75,6.68-.34,6.68,1.15,0,1.29.95,2.35,2.06,2.35s2.06-.72,2.04-1.58h.01Zm-146.47-4.67c0-2.61-1.32-4.07-3.61-3.99-2.15.11-2.55.6-1.03,1.23,1.43.57,2.58,2.35,2.58,3.99s.46,2.93,1.03,2.93,1.03-1.86,1.03-4.16h0Zm117.1-.26c5.39-1.26,14.51-3.99,20.31-5.99,10.12-3.58,10.87-3.58,21.65.17,17.64,6.14,52.17,5.54,74.39-1.29,9.49-2.9,18.41-5.39,19.85-5.54,1.41-.11,2.55-1.46,2.55-2.95s1.23-2.21,2.72-1.63c5.74,2.21,10.04-6.85,12.53-26.5,2.81-22.17,2.58-35.85-.98-55.84-3.3-18.67-1.41-72.27,3.01-84.49,3.76-10.47.89-11.67-4.93-2.09-4.42,7.31-5.45,16.09-1.86,16.09,1.35,0,1.75,2.27,1,5.74-.69,3.13-1.43,10.15-1.66,15.57s-1.03,9.87-1.81,9.87c-2.15,0-1.75,26.61.57,39.03,1.12,6.02,3.36,13.51,4.96,16.61,3.76,7.2,3.7,8.92-.14,7.43-1.69-.66-3.1-2.09-3.1-3.21s-1.23-3.24-2.78-4.79c-2.15-2.18-2.81-13.39-2.9-50.13-.17-51.02.49-54.78,10.84-62.38l5.28-3.87.63-212.46c.34-116.87-.06-212.89-.86-213.4-2.15-1.35-.34-21.8,2.21-24.87,1.18-1.46,1.69-6.25,1.15-10.64-1.81-14.23-3.44-43.2-2.41-42.15.57.56,2.06,11.62,3.36,24.57,1.84,18.44,1.78,26.44-.29,36.82-1.86,9.55-1.98,13.91-.37,15.54,1.63,1.61,2.27.89,2.32-2.64.09-5.08,1.98-51.94,3.15-78.06.63-13.65.43-14.53-2.09-9.65-1.52,2.96-2.15,6.36-1.43,7.56.8,1.28.34,1.57-1.03.7-1.63-1.02-2.38-11.52-2.38-33.42,0-33.74-1.61-42.32-8.29-44.08-2.24-.59-4.19-2.14-4.3-3.43s-.86-.02-1.63,2.84c-.8,2.86-2.09,4.96-2.9,4.67-.8-.28-3.21-.52-5.36-.52-2.35,0-4.36-1.9-5.1-4.84-.66-2.66-3.58-5.93-6.51-7.27-8.37-3.84-11.04-2.82-3.15,1.2,10.53,5.4,11.04,9.82.89,7.79-4.39-.88-13.57-2.35-20.39-3.27l-12.36-1.67,14.43.68c7.94.38,16.32,1.28,18.58,2.02,4.1,1.32-2.44-1.92-10.32-5.13-7.37-2.99-35.13-6.03-43.16-4.72-4.62.75-8.35.38-9.15-.91-1.92-3.14-55.9-5.14-135.45-5.03-85.61.12-129.7,1-131.02,2.62-2,2.45-12.38,4.08-12.38,1.94,0-1.16,2.55-2.21,5.67-2.33,5.19-.2,5.05-.37-1.55-2-7.56-1.87-15.72-1.17-30.51,2.61-9.31,2.38-10.83,6.87-2.33,6.87,5.25,0,9.13,3.89,7.12,7.15-.67,1.09-5.19.14-10.38-2.17-10.64-4.74-25.08-5.59-31.95-1.89-4.37,2.35-4.67,2.2-3.63-1.82,1.61-6.21-.75-5.47-8.6,2.69-5.41,5.62-6.03,7.01-2.99,6.75,3.2-.27,3.77,1.04,3.45,7.98-1.4,30.76-2.01,412.04-.73,459.36,1.44,53.72,1.93,59.22,6,67.68,4.64,9.66,13.81,19.82,15.94,17.67.69-.69-1.05-4.36-3.86-8.14-10.55-14.2-10.22-5.71-10.51-279.14-.28-259.64-.09-266.78,6.71-259.4,1.78,1.93,4.09,199.95,4.71,403.92.17,56.53.97,107.49,1.78,113.2s1.59,8.75,1.74,6.74c.34-4.5,4.41-4.85,4.41-.37,0,2.32,1.2,2.87,4.12,1.95,3.95-1.26,4.14-.34,4.3,21.14.34,44.65-.52,93.04-1.71,94.96-.67,1.09-.99,13.02-.72,26.53.41,20.42-.02,24.58-2.53,24.58-3.79,0-6.71,34.85-4.51,53.89l1.45,12.59h-11.36l1.42-24.41c1.81-31.17,3.8-41.13,9.43-47.15,4.11-4.42,4.47-6.6,3.79-23.26-.41-10.12-1.56-20.19-2.57-22.37-1.22-2.67-1.11-3.53.33-2.64,1.41.89,2.5-4.93,3.16-16.81,1.01-18.3.35-23.86-1.84-15.43-.65,2.5-2.06,4.56-3.13,4.56s-1.5.75-.96,1.61c.54.89.24,4.88-.67,8.83l-1.65,7.23-1.7-7.28-1.7-7.26-1.39,6.22c-2.24,10.07-2.11,18.07.27,16.58,1.18-.75,1.55-3.24.81-5.59-.95-2.98-.61-3.79,1.14-2.7,1.36.86,2.05,3.81,1.53,6.54-.52,2.75-.15,5.51.84,6.14,3.85,2.38,1.68,5.1-2.34,2.93-3.71-1.98-4.13-1.58-4.13,4.07,0,3.47-.76,6.31-1.69,6.31s-1.25-16.58-.71-36.85c.54-20.28,1.03-40.38,1.08-44.63.09-7.57.2-7.69,4.76-4.67,5.19,3.41,7.04,3.84,6.55,1.52-.51-2.44,2.89-9.72,5.34-11.39,1.25-.86.19-1.55-2.43-1.58-2.79,0-4.64,1.23-4.64,3.13,0,2.64-1.42,2.44-8.49-1.2-4.67-2.38-8.93-6.05-9.48-8.14s-2.73-4.27-4.87-4.82c-3.56-.95-3.65-.57-1.12,4.47,5.67,11.3,5.77,160.98.13,195.05-1.42,8.58-3.52,10.93-6.05,6.83-.68-1.12-1.71-45.28-2.28-98.14-.58-52.88-1.52-98.4-2.1-101.12-1-4.76-1.17-4.79-3.79-1.03-4.33,6.22-4.68,19.47-2.85,106.74,1.73,82.17,2.18,91.32,4.72,95.47,3.06,4.96,16.75,9.98,25.85,9.46,14.21-.8,14.16-.8,18.8-5.45,3.38-3.41,5.35-3.96,8.77-2.44,9.85,4.3,44.22,15.6,52.9,17.35,19.29,3.9,41.63,3.64,60.28-.72l17.98-4.22,13.82,4.7c7.6,2.61,20.42,5.48,28.45,6.42,18.18,2.09,63.93.66,77.03-2.47h-.02Zm1.89-11.5c-.75-.75-1.38-2.35-1.38-3.53,0-1.29.98-1.18,2.44.32,1.35,1.35,1.98,2.93,1.38,3.53-.57.6-1.69.46-2.44-.32Zm76.2-9.69c-1.95-16.43-5.99-48.12-6.54-51.22-.32-1.72-.63-4.76-.72-6.77-.11-2.75-1.95-3.64-7.51-3.64-4.36,0-6.83-.83-6.05-2.06.77-1.29-3.1-2.06-10.21-2.06-9.87,0-11.47-.57-11.47-3.93,0-3.04,2.06-4.24,9.29-5.33,6.17-.92,9.29-2.41,9.29-4.45,0-2.38-.89-2.58-3.99-.92-2.21,1.18-5.22,2.09-6.71,2.01-1.49-.06-.63-.98,1.92-2.01,2.55-1.03,4.65-2.84,4.65-4.02s1.89-2.15,4.24-2.15c2.7,0,3.7.89,2.78,2.41-.95,1.55-.57,1.84,1.09.8,2.67-1.66,12.5,2.5,12.5,5.28,0,.83-3.93,2.21-8.78,2.98-12.3,2.06-17.47,5.62-6.14,4.24,10.35-1.23,16.98-4.42,16.98-8.12s-13.42-9.75-25.12-11.13c-10.55-1.26-13.02.34-5.31,3.47,4.47,1.81,4.42,1.89-1.03,2.01l-5.68.14v-34.42l21.05.6c44.63,1.32,50.42,7.08,57.22,56.64,1.35,9.72,3.36,23.63,4.47,30.89,1.78,11.44,1.41,17.61-.86,14.66-.37-.49-2.29-12.05-4.27-25.7-3.21-22.14-4.36-25.9-10.67-34.56-7.77-10.64-13.82-15.31-25.35-19.59l-7.54-2.78,8.89.2c6.45.14,9.72,1.35,11.82,4.39,4.59,6.6,5.39,2.95.98-4.36-4.59-7.63-11.5-9.87-36.11-11.79l-16.52-1.29,8.98,5.22c4.93,2.9,10.38,5.25,12.07,5.25s5.54,1.35,8.55,3.01,8.92,4.53,13.14,6.42c10.7,4.79,23.57,19.53,26.53,30.37,3.27,12.1,3.79,64.41.6,65.53-2.55.86-5.88-15.77-7.92-39.89-2.52-29.97-3.04-32.21-7.6-32.21-3.18,0-3.9.89-2.84,3.64,1.66,4.3,6.14,68.83,4.88,70.12-.49.49-4.27,1.29-8.4,1.81-7.49.95-7.54.89-8.58-7.71h0v.02Zm12.62-14.37c-.52-2.58-.92-.46-.92,4.67s.4,7.26.92,4.67c.49-2.58.49-6.77,0-9.35h0Zm-2.12-19.76c-.52-1.98-.92.14-.89,4.7s.43,6.19.95,3.61c.49-2.58.46-6.34-.06-8.32h0Zm-2.12-15.6c-.57-1.41-1,.26-.95,3.7.03,3.41.49,4.56,1.03,2.55.52-2.04.49-4.82-.09-6.25h.01Zm-.98-18.58c-1.49-1.49-2.44-1.61-2.44-.29,0,2.75,2.44,5.22,3.81,3.84.57-.6-.03-2.18-1.38-3.56h.01Zm18.64-18.61c-1.29-1.29-1.58.06-.8,3.87.86,4.33,1.41,4.85,2.01,2.01.43-2.12-.11-4.76-1.2-5.88h-.01Zm-4.59,90.74c0-1.72.95-3.13,2.06-3.13s2.06,1.41,2.06,3.13-.92,3.13-2.06,3.13-2.06-1.41-2.06-3.13Zm30.97-1.03c0-1.29-.86-1.81-1.92-1.15-3.04,1.89-3.84-.95-5.28-18.64-.75-9.12-2.75-26.84-4.47-39.43-1.69-12.56-3.53-45.74-4.1-73.73-.54-27.99-1.72-51.62-2.61-52.51-.89-.92-5.71-.63-10.7.63-17.18,4.36-24.46,5.62-25.64,4.45-.63-.66-4.82-1.26-9.32-1.38-4.7-.14-7.06.49-5.59,1.43,1.41.89-3.18,1.63-10.21,1.66-7.03,0-13.31-.83-13.94-1.86s.49-1.49,2.47-1,6.4,0,9.81-1.06c5.79-1.81,5.59-1.92-3.61-2.09l-9.81-.17v-22.97c0-14.8.75-22.51,2.06-21.71,1.15.72,2.06,2.52,2.06,4.02,0,3.27,17.12,2.44,18.21-.86.4-1.15,3.36-2.09,6.6-2.09,3.58,0,7.06-1.66,8.83-4.22,2.52-3.64,3.24-3.79,5.45-1.12,1.41,1.69,1.92,4.04,1.2,5.25-1.69,2.75-.46,2.72,5.97-.23,2.87-1.32,4.67-3.24,4.02-4.3s1.18-7.23,4.04-13.71c7.74-17.52,8.58-34.7,10.04-203.39.54-62.12,1.09-73.36,3.67-74.37,2.5-.98,2.55-1.49.26-2.9-2.29-1.43-2.41-8.95-.66-42.99,1.15-22.71,2.18-64.18,2.32-92.16.11-27.99,1.23-57.24,2.47-65,1.26-7.76,1.72-16.3,1.06-18.99-1.09-4.35-.4-4.97,6.28-5.76l7.51-.88-1.43,56.22c-1.06,41.22-.83,55.62.83,53.93,1.46-1.46,2.58-16,3.07-39.48,1.32-64.99,1.06-60.65,3.38-54.82,4.67,11.64-.57,96.65-6.48,104.91-.8,1.12-2.06,37.6-2.81,80.99-2.01,119.85-10.27,308.76-13.91,318.48-1.15,3.07-1.23,4.62-.17,3.47,5.08-5.51,7-19.24,7.94-57.1,1.12-44.45,2.95-55.84,4.88-30.11.66,9.12.69,17.55.09,18.67-.63,1.15-1.26,12.36-1.43,24.95-.26,20.16-2.04,32.49-6.4,44.25-1.15,3.1-.89,3.15,2.24.6,1.95-1.61,3.18-3.93,2.75-5.19s.43-5.76,1.89-10.04c1.46-4.24,2.44-11.96,2.12-17.12-.34-5.74.34-9.41,1.69-9.41,3.18,0,.49,35.19-3.15,41.04-2.09,3.41-2.24,5.16-.49,6.91,5.02,5.05,10.1-3.5,13.11-22,1-6.11,1.35,12.25.83,44.68-.49,30.26-1,87.53-1.15,127.25-.17,39.75-1.12,72.73-2.09,73.36-.98.6-1.78.06-1.78-1.2h0Zm-48.5-184.87c.69-1.15,2.93-2.09,4.93-2.09,5.28,0,4.53-6.11-.92-7.49-2.5-.63-10.93.32-18.73,2.09l-14.17,3.24,13.91-.92c8.72-.57,13.94-.11,13.94,1.2,0,1.15-.92,1.55-2.06.83-2.72-1.69-6.6.8-5.08,3.27,1.58,2.55,6.57,2.47,8.17-.14h.01Zm21.65-7.28c6.74-3.87,4.39-3.93-4.39-.09-3.81,1.69-5.56,3.04-3.84,3.04,1.69.03,5.39-1.32,8.23-2.95h0Zm13.85-3.53c6.88-3.01,11.53-7.4,14.97-14.25,1.66-3.3.32-2.41-3.84,2.55-3.58,4.24-9.18,8.26-12.62,9.01-3.38.75-6.17,2.24-6.17,3.27,0,2.47.72,2.41,7.66-.57h0Zm-43.99-3.93c4.39-1.23,9.95-4.16,12.36-6.51,4.19-4.13,4.22-4.24.26-2.81-8.6,3.13-26.84,7.43-31.38,7.43-2.61,0-4.73.95-4.73,2.09,0,2.72,13.39,2.61,23.49-.2h0Zm-23.55-11.62c.52-.49-.4-1.84-2.06-3.04-2.29-1.61-1.78-1.81,2.12-.83,9.38,2.41,14.51,2.67,15.63.86,1.69-2.72-8.55-5.97-18.87-5.97-8.2,0-9.15.52-9.15,4.85,0,2.67.63,5.48,1.41,6.25,1.29,1.32,8.75-.11,10.93-2.12h-.01Zm26.87-.66c1.69-1.12,2.18-2.01,1.03-2.01s-3.44.89-5.16,2.01c-1.69,1.12-2.15,2.01-1.03,2.01s3.47-.89,5.16-2.01Zm25.93-5.36c3.64-3.01,3.67-3.18.23-2.06-2.09.66-4.65,1.2-5.68,1.2s-1.89.92-1.89,2.06c0,3.01,2.75,2.55,7.34-1.2Zm-2.12-8.89c-.66-2.15-.34-6.19.75-9.03,1.06-2.84,2.44-13.02,3.04-22.63l1.09-17.44-1.98,14.54c-1.09,8-3.33,18.58-4.99,23.55-2.35,7.08-2.47,9.58-.49,11.84,3.41,3.93,4.04,3.73,2.58-.83h0Zm-27.42.43c-1.41-.6-3.73-.6-5.16,0-1.41.57-.26,1.03,2.58,1.03s4.02-.46,2.58-1.03h0Zm34.01-81.28c-.43-5.39-.77-.46-.75,10.98,0,11.41.34,15.83.75,9.78.43-6.02.43-15.37,0-20.76Zm4.73-123.67c.17-23.8-.23-43.82-.89-44.51-.69-.66-1.23,10.87-1.26,25.61,0,14.77-.4,50.68-.86,79.81-.77,49.5-.69,50.65.95,17.64.98-19.42,1.89-54.78,2.06-78.55Zm1.49-92.2c-.4-8.89-.72-2.15-.72,14.97s.32,24.43.72,16.2c.37-8.23.37-22.26,0-31.17Zm1.29-24.55c.54-3.38,1.63-25.81,2.41-49.79.77-24,2.27-44.68,3.3-46,1.15-1.43,1.09-5.91-.17-11.41-1.15-4.98-2.27-21.21-2.52-36.06-.23-15.05-1.18,2.87-2.15,40.5-.95,37.14-2.06,77.15-2.5,88.93-.77,21.28-.26,25.64,1.63,13.82h0Zm4.59-176.97c-.66-.69-1.15.54-1.06,2.72.09,2.42.57,2.91,1.23,1.26.6-1.5.52-3.29-.17-3.98Zm.26-16.63c-.49-3.16-.89-1.07-.89,4.65-.03,5.71.37,8.3.86,5.74s.49-7.23.03-10.39ZM180.95,889.52c-1.56-6.83,1.04-33.73,4.06-41.99,2-5.45.12,29.43-2.01,37.31-.93,3.41-1.85,5.51-2.05,4.67h0Zm403.89-.69c-.86-.86-1.55-4.42-1.55-7.89,0-4.5.63-5.65,2.24-4.04,1.2,1.23,1.92,4.76,1.55,7.89-.37,3.1-1.38,4.93-2.24,4.04Zm-352.18-2.93c-.87-.6-2.12-2.47-2.77-4.19-.94-2.5-1.21-2.38-1.34.52-.09,2.01-.86,3.64-1.71,3.64-3.47-.03-2.36-17.72,2.54-40.52,2.86-13.31,5.2-26.47,5.2-29.22,0-6.71-5.72-6.6-7.4.14-1.98,7.97-5.52,3.7-4.06-4.9,1-5.82.77-6.83-1-4.42-2.04,2.75-2.2,2.75-1.41,0,.49-1.72,2.41-2.84,4.28-2.52,2.27.4,3.4-.83,3.4-3.76,0-2.41-.93-3.79-2.06-3.07-4.7,2.93-1.54-3.7,5.54-11.59,14.3-15.92,32.77-21.71,62.31-19.47,20.36,1.55,22,4.76,3.1,6.02-5.16.34-10.44,1.75-11.79,3.15-1.86,1.92-1.26,2.41,2.75,2.09,2.84-.23,7.37-.32,10.12-.17,4.82.2,4.85.32,1.2,4.39-2.06,2.29-3.13,4.79-2.38,5.54s1.35.09,1.35-1.46c0-2.21.57-2.29,2.5-.34,3.1,3.13.37,6.08-6.6,7.23-7.92,1.29-12.39,3.73-12.39,6.74,0,1.49-.86,3.04-1.92,3.41-3.73,1.35,3.84,8.49,9.01,8.49,2.87,0,6.19,1.18,7.4,2.61,3.3,4.02-3.18,9.32-11.41,9.32-3.81,0-7.54.95-8.23,2.09-.71,1.15-3.68,1.46-6.62.72-3.74-.95-4.9-.63-3.88,1.03.8,1.32.48,2.38-.72,2.38s-2.24,3.04-2.3,6.77c-.06,3.7-1.69,16.43-3.61,28.28l-3.5,21.51-11,.32c-6.05.17-11.71-.17-12.59-.75h0Zm8.78-18.04c.84-4.56.24-7.37-1.96-9.21-2.8-2.35-3.01-1.69-1.82,5.54,1.07,6.45.85,7.51-1.06,5.05-2.05-2.64-2.23-2.52-1.19.69.67,2.09,1.23,4.88,1.23,6.14,0,4.5,3.58-1.61,4.8-8.2h0Zm3.15-13.68c-.71-5.54,1.86-10.41,4.57-8.72,1.06.63,1.92.09,1.92-1.23s-1.39-1.89-3.09-1.23c-2.13.83-3.09-.11-3.09-3.01,0-2.32.76-3.76,1.69-3.15.93.57,1.33-1.95.89-5.59-.65-5.36-.34-6.05,1.6-3.53,2.04,2.64,2.22,2.52,1.18-.69-.67-2.09-1.22-5.13-1.22-6.77s-.93-2.93-2.06-2.93-2.08,2.09-2.09,4.67c-.02,2.55-.64,6.94-1.38,9.75-1.26,4.73-1.46,4.82-3.11,1.03-1.22-2.81-1.42-1.84-.65,3.13.61,3.93,2.12,7.8,3.36,8.58,1.55.95,1.58,1.81.09,2.72-1.18.75-3.18-.32-4.44-2.32-1.81-2.93-2-2.18-.9,3.58,1.16,6.14,3.81,10.21,6.68,10.35.37.03.39-2.06.06-4.65h-.01Zm-2.58-34.21c-.69-.69-1.17.52-1.08,2.72.1,2.41.59,2.9,1.24,1.26.6-1.52.52-3.3-.16-3.99h0Zm11.99-7.31c.89-4.93.61-7.8-.76-7.8-1.19,0-2.16,3.9-2.16,8.66,0,10.21.98,9.92,2.91-.86h0Zm24.17-.03c-2.04-2.04-2.28-1.81-1.16,1.15.78,2.06,1.93,3.21,2.56,2.55.63-.63,0-2.29-1.41-3.7h.01Zm-14.7-.49c0-1.72-.77-3.13-1.72-3.13s-1.72,1.41-1.72,3.13.77,3.1,1.72,3.1,1.72-1.41,1.72-3.1Zm6.6.6c-1.36-1.35-2.48-4.59-2.48-7.2,0-3.33-.91-4.36-3.08-3.53-4.47,1.75-6.18-4.76-2.28-8.69,4.76-4.76,4.06-6.42-.83-1.98-2.27,2.06-4.13,5.59-4.13,7.8s1.79,4.5,4.13,5.1c2.67.72,4.13,2.84,4.13,6.05s1.19,4.93,3.51,4.93c2.73,0,2.96-.54,1.03-2.5h0v.02Zm-25.61-11.87c.33-.09-.59-1.46-2.05-3.01-1.46-1.58-3.81-2.41-5.24-1.86-1.42.54-2.59-.14-2.59-1.55,0-1.58,1.94-2.15,5.23-1.52,3.61.69,5.84-.14,7.18-2.67,2.24-4.19,13.17-8.6,17.36-6.97,1.55.6,3.38.17,4.06-.92.68-1.12,5.65-1.63,11.05-1.12l9.81.89-8.89-4.19c-7.61-3.56-10.29-3.84-18.58-1.98-14.02,3.13-22.84,8.2-27.59,15.89-3.59,5.82-3.71,6.77-.87,6.77,1.81,0,3.3.86,3.3,1.89,0,1.52,2.87,1.66,7.82.34h0Zm239.8,60.43c0-2.09-.72-4.5-1.55-5.36-.86-.86-1.69-4.07-1.86-7.11-.14-3.04-.49-5.76-.77-6.05-.92-1-1.49-4.73-1.75-11.13-.2-4.82-1.03-6.17-3.36-5.25-1.72.66-3.1.29-3.1-.83s-6.28-2.09-13.94-2.21c-10.1-.14-12.5-.66-8.75-1.86,4.22-1.38,3.47-1.69-4.13-1.75-7.34-.03-8.43.37-5.16,1.89,2.93,1.41,1.75,1.58-4.13.6-4.53-.75-22.2-1.58-39.2-1.84-17.04-.26-35.36-.54-40.75-.63-8.46-.14-9.81-.75-9.81-4.42,0-3.36,1.43-4.33,6.71-4.59l6.71-.34-6.71-.83c-4.33-.54-6.71-1.98-6.71-4.07,0-2.55.63-2.72,2.9-.83,1.58,1.32,5.99,2.29,9.81,2.12,3.79-.14,12.93.46,20.31,1.38,11.73,1.46,12.65,1.86,7.23,3.27-4.56,1.15-3.61,1.35,3.53.66,5.88-.54,10.27,0,11.13,1.41,1.98,3.18,58.31.86,61.46-2.55,1.75-1.89,1.03-2.18-3.1-1.2-7.23,1.69-40.95,2.12-42.53.52-.69-.69,7.03-1.26,17.15-1.29s19.79-.95,21.48-2.04c1.72-1.12,2.18-2.12,1.03-2.21-2.32-.23-3.58-.46-20.51-4.02-8.75-1.84-23.4-2.15-51.08-1.18l-38.8,1.41v-6.37c0-6.31.09-6.34,11.24-6.34,6.17,0,11.79.95,12.5,2.09.72,1.18,2.32,1.49,3.58.72,1.46-.92,1.81-.2.95,2.04-1.03,2.72-.11,3.41,4.3,3.3,4.99-.11,5.13-.34,1.46-1.92-5.42-2.35,43.59-.49,59.85,2.29,6.8,1.18,15.34,3.15,18.96,4.45,5.1,1.78,7.28,1.69,9.84-.43,1.81-1.52,2.81-3.21,2.24-3.79-.54-.57-2.29.03-3.87,1.35-2.21,1.84-4.07,1.41-8.32-1.92-2.98-2.38-5.45-3.84-5.45-3.24s-3.67-.2-8.17-1.81c-7.97-2.81-19.04-3.9-63.84-6.28-11.79-.63-22.17-1.61-23.06-2.15s-2.18-.06-2.9,1.12c-.72,1.15-3.1,2.09-5.31,2.09-2.87,0-4.02-1.43-4.02-5.08,0-4.36.86-4.99,5.68-4.42,3.13.37,7.54-.14,9.81-1.12,3.47-1.49,3.13-1.75-2.06-1.58-11.33.32-13.42-.23-13.42-3.64,0-2.61.63-2.84,2.84-1,1.95,1.63,18.13,2.32,52.08,2.24,27.1-.09,54.55-.11,61-.03l11.73.09-1.78,6.25c-1.38,4.85-1.12,6.22,1.18,6.22,1.63,0,2.95.98,2.95,2.21s-.95,1.61-2.06.92c-1.15-.72-2.06-.4-2.06.69s1.15,2.41,2.58,2.95c2.75,1.06,3.24,11.64.75,15.72-2.41,3.93,1.69,2.81,6.6-1.81l4.53-4.22v32.26c0,17.75-.49,32.29-1.03,32.29-.57,0-1.03-1.72-1.03-3.81h-.02Zm-1.52-45.54c.6-4.85.29-8.8-.75-8.8s-1.86,1.35-1.86,3.01-1.63,3.96-3.61,5.1c-3.38,2.01-3.38,2.12.23,2.21,2.41.03,3.41,1.12,2.7,2.95-.6,1.61-.54,3.47.14,4.16,1.72,1.75,1.89,1.29,3.15-8.63h0Zm-104.97,1.23c-.57-.98-2.47-1.75-4.16-1.75s-2.61.77-2.04,1.75c.6.95,2.47,1.72,4.16,1.72s2.61-.77,2.04-1.72Zm28.59,1.03c-1.43-.57-3.76-.57-5.16,0-1.43.57-.26,1.06,2.58,1.06s3.99-.49,2.58-1.06h0Zm-37.25-7.34c-1.92-1.95-3.04-1.95-4.96,0s-1.38,2.5,2.5,2.5,4.39-.54,2.47-2.5h-.01Zm1.66-16.2c0-2.64-6.28-2.64-10.32,0-2.35,1.52-1.49,2.01,3.61,2.04,3.67.03,6.71-.89,6.71-2.04h0Zm98.54-15c-.57-1.66-6.74-2.72-18.01-3.07-19.44-.6-21.19,1.03-2.93,2.72,6.65.63,12.5,1.52,12.99,2.01,2.04,2.06,8.69.66,7.94-1.66h.01Zm-253.08,78.98c-.24-5.94,5.02-28.42,7.14-30.54,1.41-1.41-.45,9.52-4.32,25.47-1.8,7.4-2.66,8.95-2.82,5.08h0Zm53.82-13.11c-.04-3.41.39-5.08.95-3.67s.6,4.22.08,6.25c-.52,2.01-.99.86-1.03-2.58Zm-84.85-11.82c.08-2.64.94-6.65,1.92-8.95,1.43-3.36,1.8-2.67,1.92,3.53.08,4.22-.79,8.23-1.92,8.95-1.16.72-2-.83-1.92-3.53Zm373.46-8.78c-.09-2.18.4-3.41,1.09-2.72s.77,2.5.17,3.99c-.66,1.66-1.15,1.18-1.26-1.26h0Zm-366.78-8.43c-1.35-1.49-1.89-3.27-1.2-3.99.69-.69.07-1.26-1.38-1.26s-2.11-1.35-1.44-3.1c.65-1.72.29-3.13-.81-3.13s-2-3.33-2-7.4c0-4.39.84-6.85,2.06-6.11,1.13.72,2.06.14,2.06-1.26s.6-1.92,1.32-1.2c.73.75.25,2.64-1.07,4.24-3.23,3.9-.75,9.66,4.16,9.66,3.23,0,3.6.72,1.94,3.81-1.41,2.67-1.3,4.59.34,6.25,1.5,1.49,1.65,3.1.42,4.3-1.2,1.15-2.92.83-4.41-.83h0v.02Zm213.96-5.25c4.04-2.61,6.77-2.61,5.16,0-.72,1.15-2.87,2.06-4.79,2.06-2.98-.03-3.04-.32-.37-2.06Zm-189.84-70.15v-64.76l5.16,1.98c3.27,1.26,5.16,1.26,5.16,0,0-1.09-2.46-2.61-5.47-3.38l-5.47-1.38,1.34-40.72c.74-22.4,2.27-99.14,3.4-170.53,3.48-219,7.17-326.11,11.25-326.11,1.7,0,2.1,9.89,1.44,35.82-.5,19.71-.79,38.17-.65,41.03.68,13.94.33,34.06-.88,51.64-1.06,15.37-.75,19.82,1.5,21.25,1.67,1.09,1.88,1.84.5,1.86-2.44.03-2.26,47.92.97,265.03,1.31,88.02,1.89,100.52,4.92,105.17,3.43,5.25,15.09,9.64,13.37,5.02-.48-1.29-.13-4.22.77-6.48,1.39-3.53,1.66-3.61,1.78-.52.08,1.98,1.77,3.73,3.76,3.87,1.98.11,4.54.46,5.68.72,1.13.26,3.33.63,4.88.8,1.76.2,2.41,1.86,1.74,4.47-.59,2.27-.27,4.13.73,4.13s1.3,1.35.68,2.98c-.78,2.04.65,3.15,4.7,3.61,4.24.49,5.68,1.69,5.25,4.33-.34,1.98.34,3.61,1.55,3.61s2.04-.69,1.89-1.55c-.75-4.82.63-8.14,3.41-8.14,2.18,0,2.5.69,1.03,2.15-3.41,3.44-2.5,5.48,2.52,5.51,3.18.03,3.81.57,1.98,1.72-1.46.95-2.09,3.13-1.43,4.9.72,1.86-.11,3.73-1.98,4.45-1.78.66-3.21.32-3.21-.77s-1.18-1.98-2.58-1.95c-1.43.06.17,2.35,3.53,5.1,4.93,4.07,6.68,4.53,9.26,2.52,2.81-2.18,2.84-2.06.37,1.12-1.55,1.98-3.56,3.13-4.5,2.55-.92-.57-2.24-.14-2.93.98s1.81,2.95,5.54,4.07c5.45,1.61,3.41,1.89-10.32,1.43-22.2-.75-29.21-6.45-11.51-9.35,8.04-1.32,9.04-5.45,1.27-5.31-2.55.06-4.64-.54-4.64-1.32s-3.34-2.04-7.43-2.81c-5.61-1.06-8.41-.52-11.44,2.24-3.66,3.33-3.89,3.36-2.67.14.74-1.95,2.17-3.53,3.18-3.53s1.84-.92,1.84-2.06c0-3.47-4.17-2.32-5.59,1.55-.73,2.01-2.15,4.19-3.15,4.88s.51,2.78,3.36,4.65c4.84,3.21,5.32,3.18,7.19-.17,1.1-1.98,2.76-2.84,3.69-1.89.93.92-.08,2.7-2.25,3.9-3.84,2.15-3.84,2.29-.08,5.05,3.38,2.5,2.61,2.7-6.36,1.55-5.62-.69-13.88-2.04-18.36-2.98-4.48-.95-8.89-1.26-9.8-.69s-1.66.03-1.66-1.18-.98-2.21-2.19-2.21-1.74.75-1.19,1.63c.54.89,1.26,23.78,1.59,50.88.44,36.45-.06,49.9-1.9,51.74-1.95,1.98-2.5-11.56-2.5-62.23h-.04Zm66.03-37.05c0-2.78-.57-2.93-3.1-.8-1.69,1.43-3.09,2.95-3.09,3.38s1.4.77,3.09.77,3.1-1.52,3.1-3.36h0Zm5.79-3.96c-.63-.66-1.81.52-2.58,2.55-1.12,2.95-.86,3.21,1.18,1.18,1.41-1.43,2.04-3.1,1.41-3.73h-.01Zm-55.32-5.13c-1.7-1.12-4.02-2.04-5.16-2.04s-.67.92,1.03,2.04c1.7,1.09,4.02,2.01,5.16,2.01s.67-.92-1.03-2.01Zm11.26-10.27c.65-1.06.4-2.41-.56-3.01s-1.75.26-1.75,1.92c0,3.5.65,3.81,2.32,1.09h-.01Zm-10.87-1.55c-1.49-.6-3.27-.52-3.95.17s.53,1.18,2.71,1.09c2.4-.11,2.89-.6,1.25-1.26h-.01Zm5.8-4.93c0-1.2-.82-1.69-1.83-1.06s-2.98-.26-4.38-1.95c-1.4-1.72-3.47-3.1-4.59-3.1-2.29,0,6.84,8.12,9.25,8.23.85.03,1.55-.92,1.55-2.12Zm10.98-4.88c.72-1.86-.68-3.24-3.98-3.87-4.85-.92-4.92-.8-1.6,2.9,2.79,3.1,4.65,3.43,5.58.98h0Zm15.84.03c0-.46-1.44-1.38-3.2-2.06-1.84-.72-2.66-.34-1.94.83,1.21,1.95,5.14,2.9,5.14,1.23h0Zm-37.96-272.8c-.69-.72-1.17.52-1.08,2.72.1,2.41.59,2.9,1.25,1.23.6-1.49.52-3.27-.16-3.96h0Zm0-8.32c-.69-.69-1.17.54-1.08,2.72.1,2.41.59,2.9,1.25,1.26.6-1.52.52-3.3-.16-3.99h0Zm0-20.76c-.69-.72-1.17.52-1.08,2.72.1,2.41.59,2.9,1.25,1.23.6-1.49.52-3.27-.16-3.96h0Zm0-12.48c-.69-.69-1.17.54-1.08,2.72.1,2.41.59,2.93,1.25,1.26.6-1.49.52-3.3-.16-3.99h0Zm0-14.54c-.69-.69-1.17.54-1.08,2.72.1,2.41.59,2.93,1.25,1.26.6-1.49.52-3.3-.16-3.99h0Zm-36.32,453.42c0-.52.93-1.49,2.06-2.21,1.14-.69,2.06-.29,2.06.92s-.93,2.21-2.06,2.21-2.06-.43-2.06-.92Zm290.06-2.72c1.03-.86,2.55-2.5,3.41-3.64.86-1.18,1.55-.52,1.55,1.58.03,2.01-1.49,3.61-3.38,3.61s-2.61-.69-1.58-1.55Zm-286.46-5.19c-.53-1.43-.3-4.47.5-6.74,1.23-3.47,1.63-3.04,2.45,2.58.96,6.6-1.02,9.35-2.95,4.16Zm359.7-41.9c-.09-2.18.4-3.41,1.09-2.72s.77,2.5.17,3.99c-.66,1.66-1.15,1.18-1.26-1.26h0Zm11.44-29.31c-1.98-5.25-1.41-6.57,1.03-2.38,1.2,2.09,1.75,4.24,1.23,4.76s-1.55-.54-2.27-2.38h.01Zm-198.83-6.74c-11.64-.34-21.17-1.26-21.17-2.09s27.45-1.26,61-.95c40.32.34,60.57-.2,59.71-1.58-.69-1.15-.29-2.06.92-2.06,3.04,0,2.72,4.07-.4,5.28-3.21,1.23-71.7,2.18-100.06,1.41h0Zm-3.87-6.11l-16.75-.75-.26-11.62-.29-11.64,13.94,1.32c34.16,3.24,60.48,3.76,78.5,1.52,12.25-1.52,20.42-1.66,22.66-.4,3.01,1.69,2.7,2.18-2.12,3.38-3.1.77-5.16,2.18-4.59,3.13.57.92-.6,2.12-2.61,2.64-2.84.75-2.64,1.03.89,1.2,2.5.14,5.1-.72,5.82-1.86,2.21-3.58,5.16-.03,4.85,5.88-.23,4.88-.37,4.99-1.18.89-1.03-5.45-1.92-5.71-5.91-1.69-3.96,3.99-3.7,5.48.66,3.93,3.01-1.06,3.15-.77.98,1.61-2.06,2.21-11.1,2.9-40.24,3.01-20.68.09-45.14-.14-54.35-.54h0Zm68.57-4.22c-3.15-.75-3.36-1.32-1.03-2.78,1.86-1.18,2.01-1.84.4-1.86-1.35-.03-3.01.92-3.73,2.04-.69,1.15-2.21,2.09-3.33,2.09s-1.49-.95-.8-2.09c.72-1.12.29-2.06-.92-2.06s-2.18,1.12-2.18,2.5c0,1.84-.6,1.89-2.29.17-1.29-1.29-3.61-1.84-5.16-1.23-1.58.6-2.87.29-2.87-.69s-13.62-2.01-30.26-2.24c-21.57-.34-29.65.17-28.08,1.75,1.23,1.23,8.8,2.35,16.86,2.47,8.06.14,14.66.75,14.68,1.35,0,.63,11.84,1.2,26.3,1.32s24.55-.2,22.4-.72h0v-.02Zm11.13-3.76c0-.52-.95-.92-2.06-.92s-2.06.98-2.06,2.21.92,1.61,2.06.92c1.12-.72,2.06-1.72,2.06-2.21Zm-48.01-8.6c-2.01-.52-4.82-.49-6.19.09-1.41.57.23,1,3.64.98,3.41-.06,4.56-.52,2.55-1.06h0Zm-24.78-2.06c-2.01-.52-4.79-.49-6.19.09-1.38.57.26,1,3.67.95,3.38-.03,4.53-.52,2.52-1.03h0Zm97.71,10.96c-.09-2.18.4-3.41,1.09-2.72.66.69.75,2.5.14,3.99-.66,1.66-1.15,1.18-1.23-1.26h0Zm-71.84-19.07c.69-.69,2.47-.77,3.96-.17,1.66.66,1.18,1.15-1.23,1.26-2.18.09-3.38-.4-2.72-1.09h0Zm-22.69-6.25c.69-.69,2.47-.75,3.96-.14,1.63.66,1.15,1.15-1.26,1.26-2.15.09-3.38-.4-2.7-1.12h0Zm-98.34-4.59c-.57-.95,1.69-1.29,5.04-.8,3.33.49,6.08,1.26,6.08,1.69,0,1.61-10.1.77-11.12-.89Zm70.95-2.47c0-3.33,1.32-4.1,6.71-3.93,6.37.2,6.42.29,1.55,1.86-4.45,1.43-4.59,1.72-1.03,2.12,15.2,1.66,27.85,1.72,27.85.17,0-1.03,3.73-2.21,8.26-2.64s8.26-.32,8.26.29,5.79,1.03,12.91.95c7.08-.06,16.61.54,21.14,1.38,5.51,1.03,8.75.72,9.75-.89,1.03-1.61,1.55-1.66,1.58-.14,0,1.23,2.81,2.09,6.22,1.89,3.38-.2,6.17.37,6.17,1.29s-24.61,1.72-54.66,1.75c-53.26.03-54.69-.06-54.69-4.1h-.02Zm27.85-2.06c-.69-1.15-.34-2.06.8-2.06s2.64.92,3.33,2.06c.72,1.15.34,2.09-.77,2.09s-2.64-.95-3.36-2.09Zm-95.39-1.26c.69-.69,2.47-.75,3.96-.14,1.66.66,1.18,1.15-1.23,1.23-2.18.11-3.38-.4-2.72-1.09h0Zm-35.46-16.2c-.09-2.21.4-3.44,1.08-2.75.69.72.76,2.5.16,3.99-.66,1.66-1.15,1.18-1.25-1.23h0Zm-.16-16.92c0-1.78.93-2.67,2.06-1.95,1.13.69,2.06,2.15,2.06,3.24s-.93,1.95-2.06,1.95-2.06-1.46-2.06-3.24Zm348.11-25.3c1.52-15.72,2.67-16.58,2.67-2.06,0,6.42-.86,12.19-1.92,12.85-1.15.72-1.46-3.61-.75-10.78h0Zm.6-23.4c0-4.56.92-8.32,2.06-8.32s2.06,3.76,2.06,8.32-.95,8.32-2.06,8.32-2.06-3.76-2.06-8.32Zm2.64-21.8c.03-5.74.43-7.83.89-4.65.49,3.15.46,7.83-.03,10.38s-.86-.03-.86-5.74h0Zm-8.8-14.94c0-6.65,1.84-54.61,4.07-106.57,2.27-52,4.19-108.55,4.33-125.67.14-18.9.89-29.11,1.89-25.98,2.32,7.37,2.38,49.79.09,100.75-1.06,24-3.07,71.47-4.45,105.51-1.41,34.04-3.3,62.38-4.24,62.95-.95.6-1.72-4.36-1.69-10.98h0Zm10.87-14.14c.03-5.74.43-7.8.89-4.65.49,3.15.46,7.83-.03,10.38-.49,2.55-.86-.03-.86-5.74h0Zm1-19.22c-.4-.86-.17-9.52.54-19.22l1.29-17.67.34,19.22c.34,17.58-.2,21.88-2.18,17.67h.01Zm3.27-62.84c0-9.72.34-13.68.77-8.83s.43,12.79,0,17.67c-.43,4.85-.77.86-.77-8.83h0Zm.72-27.36c-.63-4.76-.66-14.83-.09-22.34.6-7.51,1.84-48.24,2.78-90.51l1.72-76.86-1.26,86.21c-.69,47.41-1.06,92.03-.8,99.17.52,14.88-.66,17.04-2.35,4.33h0Zm16.38-138.32c-.89-2.58-.49-15.63.89-28.97,1.38-13.45,2.01-36.62,1.43-51.91-.57-15.2-.23-27.63.75-27.63,1.61,0,3.21,61.49,1.95,74.78-.26,2.84-1.15,12.68-1.95,21.8-1.03,11.99-1.89,15.31-3.07,11.93h0Zm-21.94-8.69c0-1.2.92-2.21,2.06-2.21s2.06.43,2.06.92c0,.52-.95,1.49-2.06,2.21-1.15.72-2.06.29-2.06-.92Zm2.61-14.66c0-5.13.4-7.26.89-4.67.52,2.58.52,6.77,0,9.35-.49,2.55-.89.46-.89-4.67h0Zm8.35-69.59c-.03-6.85.34-9.91.83-6.79.46,3.12.49,8.73.03,12.46-.46,3.73-.86,1.18-.86-5.67h0Zm-2.24-30.12c0-4,.43-5.64.95-3.64s.52,5.27,0,7.27-.95.36-.95-3.63Zm-.14-12.46c0-2.86.46-4.02,1.03-2.6s.57,3.76,0,5.19-1.03.26-1.03-2.6h0Zm-33.33-1.56c0-2.57.92-4.67,2.04-4.67,2.58,0,2.58,2.21,0,6.23-1.61,2.52-2.01,2.22-2.04-1.56Zm-334.29-6.75c0-1.14.41-2.08.91-2.08s1.48.93,2.19,2.08.29,2.08-.91,2.08-2.19-.93-2.19-2.08Zm-53.65-14.54c1.7-1.11,4.02-2.01,5.16-2.01s.67.91-1.03,2.01c-1.7,1.11-4.02,2.01-5.16,2.01s-.67-.91,1.03-2.01Zm57.77-9.35c0-1.72,1.51-3.11,3.35-3.11,2.74,0,2.88.56.78,3.11-1.41,1.71-2.92,3.11-3.35,3.11s-.78-1.4-.78-3.11Zm-85.31,752.4c-.56-1.41-.99.26-.95,3.7.04,3.41.5,4.56,1.03,2.55.52-2.04.49-4.82-.08-6.25h0Zm550.5-63.41c-1.06-.92-9.38-1.06-18.47-.34l-16.49,1.32,18.47.34c10.15.2,17.58-.4,16.49-1.32Zm-512.64-61.8c0-.52-.93-.92-2.06-.92s-2.06.98-2.06,2.21.93,1.61,2.06.92c1.13-.72,2.06-1.72,2.06-2.21Zm435.81-7.06c.49-3.36.11-5.65-.8-5.05-.95.57-1.69-.57-1.69-2.55s-.57-2.98-1.29-2.29c-1.23,1.26.77,16.03,2.18,16.03.37,0,1.09-2.75,1.61-6.14h-.01Zm-433.75-1.15c0-2.84,1.03-5.19,2.28-5.19s1.79,1.32,1.19,2.9c-.77,2.01.09,2.55,2.87,1.84,3.52-.95,3.97-3.01,3.97-18.47,0-10.96-.82-17.41-2.2-17.41-1.26,0-1.64,1.78-.89,4.16.93,2.95.37,4.16-1.92,4.16-1.78,0-3.24.98-3.24,2.18s.93,1.63,2.06.92c1.22-.75,2.06,1.66,2.06,5.94,0,6.17-.59,7.03-4.13,6.11-2.27-.6-4.13-1.89-4.13-2.87s1.39-1.23,3.09-.57,3.1.17,3.1-1.09-1.75-2.32-3.89-2.32c-4.5,0-6.13,5.85-4.81,17.24,1,8.63,4.57,10.58,4.57,2.5h0l.02-.03Zm523.37.23c23.46-7.46,49.59-30.11,60.4-52.43,25.5-52.54,32.18-224.9,12.53-322.61-6.71-33.41-21.45-56.61-48.15-75.74-19.27-13.85-34.99-18.67-61.37-18.79-20.96-.09-22.2.17-30.8,6.14-4.9,3.44-11.41,10.15-14.43,14.94l-5.48,8.69-1.38,209.22-1.38,209.19,5.16,6.83c2.84,3.73,5.16,7.57,5.16,8.49s4.88,3.81,10.81,6.4c9.66,4.19,13.42,4.62,34.56,3.87,13.94-.46,28.13-2.21,34.36-4.19h.01Zm-561.11-74.48c-.49-2.55-.89-.46-.89,4.67s.4,7.26.89,4.67c.49-2.58.49-6.77,0-9.35h0Zm13.88,3.64c-1.66-4.02-2.19-7.28-1.19-7.28s1.03-4.16-.04-9.87c-4.84-25.61-5.58-127.05-2.75-378.54,1.08-96.44.82-122.81-1.27-127.76-2.43-5.75-2.75-4.47-4.16,16.62-1.92,28.83-2.93,354.36-1.14,365.58.73,4.56,2.17,37.28,3.2,72.7,1.28,43.94,2.7,66.19,4.49,70.09,3.84,8.37,6.4,7,2.85-1.55h0Zm-11.77-44.11c-.44-4.3-.82-1.29-.83,6.71,0,8,.36,11.53.81,7.83.46-3.67.46-10.21,0-14.54h.01Zm-1.28-26.99c-.68-16.83-2.29-16.49-2.29.46,0,7.83.62,13.57,1.39,12.82.76-.77,1.17-6.74.91-13.28h-.01Zm48.26-482.47c2.72-1.18,3.07-1.82,1.03-1.9-1.7-.06-4.49.79-6.19,1.9-3.77,2.45-.51,2.45,5.16,0Zm651.31,554.6c0-2.84.49-4.02,1.03-2.58.57,1.41.57,3.76,0,5.19-.54,1.41-1.03.26-1.03-2.61Zm2.06-10.38c0-2.87.46-4.02,1.03-2.61.57,1.43.57,3.79,0,5.22-.57,1.41-1.03.26-1.03-2.61Zm2.21-12.48c0-3.99.43-5.62.95-3.61.52,1.98.52,5.25,0,7.26s-.95.37-.95-3.64h0Zm2.12-15.57c-.03-4.56.37-6.68.89-4.7.52,2.01.54,5.74.06,8.32-.52,2.58-.92.98-.95-3.61h0Zm2.06-16.61c-.03-4.59.37-6.68.89-4.7s.54,5.74.03,8.32c-.49,2.58-.89.95-.92-3.61h0Zm2.09-19.73c0-5.16.4-7.26.89-4.67.49,2.55.49,6.77,0,9.35-.49,2.55-.89.46-.89-4.67h0Zm2.18-25.98c0-7.97.37-11.01.83-6.68.46,4.3.43,10.84-.03,14.54-.43,3.67-.8.14-.8-7.86Zm2.27-60.23c0-24,.29-33.53.66-21.17.37,12.33.37,31.95,0,43.62-.37,11.64-.66,1.55-.66-22.46h0Zm-2.38-67.51c0-5.13.4-7.23.89-4.67.49,2.58.49,6.77,0,9.35s-.89.46-.89-4.67h0Zm-2.06-26.99c0-5.16.4-7.26.89-4.67.49,2.55.49,6.77,0,9.35-.49,2.55-.89.46-.89-4.67h0Zm-2.15-20.79c0-3.99.43-5.62.95-3.61.52,1.98.52,5.25,0,7.26s-.95.37-.95-3.64h0Zm-2.12-17.64c-.06-3.44.37-5.08.95-3.67s.6,4.19.09,6.22c-.54,2.01-1,.86-1.03-2.55h-.01Zm-2.01-13.51c0-3.99.43-5.65.95-3.64s.52,5.28,0,7.28c-.52,1.98-.95.34-.95-3.64h0Zm-2.38-13.34c-.09-2.18.4-3.41,1.09-2.72s.77,2.5.17,3.99c-.66,1.66-1.15,1.18-1.26-1.26h0Zm-49.67-92.61c-4.53-4.56-8.26-8.95-8.26-9.72s1.72.37,3.81,2.58,6.4,6.6,9.58,9.75c3.15,3.13,5.16,5.71,4.45,5.71s-5.05-3.76-9.58-8.32h0Zm-129.43,2.9c.69-.69,2.47-.75,3.96-.14,1.63.66,1.15,1.15-1.26,1.23-2.15.09-3.38-.4-2.7-1.09Zm9.23-.11c1.43-.57,3.76-.57,5.16,0,1.43.57.26,1.06-2.58,1.06s-3.99-.49-2.58-1.06h0Z"/><path id="k" d="m183.08,669.4l94.87,17.58,144.94,10.24,158.13-11.7,26.35-19.04,2.63-191.92c-150.27,16.03-304.47,7.03-442.73-1.46l-5.28,180.19,21.08,16.12h.01Z" style="fill:url(#i); fill-rule:evenodd; isolation:isolate; opacity:.55;"/></g></g><path id="l" d="m183.08,669.4l94.87,17.58,144.94,10.24,158.13-11.7,26.35-19.04,2.63-191.92c-150.27,16.03-304.47,7.03-442.73-1.46l-5.28,180.19,21.08,16.12h.01Z" style="fill-rule:evenodd; isolation:isolate; opacity:.55;"/><path id="m" d="m607.75,468.64c.03,11.78-97.4,21.33-217.63,21.33s-217.72-9.54-217.75-21.32h0c-.02-11.79,97.43-21.34,217.65-21.34s217.7,9.54,217.72,21.32h.01Z" style="isolation:isolate; opacity:.48;"/><path id="n" d="m390.02,447.31c120.23,0,217.7,9.54,217.72,21.32" style="isolation:isolate; opacity:.48;"/></svg>