<?xml version="1.0" encoding="UTF-8"?><svg id="a" xmlns="http://www.w3.org/2000/svg" width="1024" height="1024" xmlns:xlink="http://www.w3.org/1999/xlink" viewBox="0 0 1024 1024"><defs><linearGradient id="ah" x1="-13.45" y1="217.47" x2="-7.43" y2="207.6" gradientTransform="translate(428.09 -250.85) scale(2.83)" gradientUnits="userSpaceOnUse"><stop offset="0" stop-color="#000"/><stop offset="1" stop-color="#000" stop-opacity="0"/></linearGradient><linearGradient id="aj" x1="21.37" y1="216.29" x2="15.57" y2="208.96" gradientTransform="translate(428.09 -250.85) scale(2.83)" gradientUnits="userSpaceOnUse"><stop offset="0" stop-color="#000"/><stop offset="1" stop-color="#000" stop-opacity="0"/></linearGradient><linearGradient id="aw" x1="-287.73" y1="276.15" x2="-286.81" y2="277.88" gradientTransform="translate(909.3 197.48) rotate(14.41) scale(1.34)" gradientUnits="userSpaceOnUse"><stop offset="0" stop-color="#000"/><stop offset="1" stop-color="#000" stop-opacity="0"/></linearGradient><linearGradient id="ay" x1="-290.74" y1="277.65" x2="-289.84" y2="278.64" gradientTransform="translate(909.3 197.48) rotate(14.41) scale(1.34)" gradientUnits="userSpaceOnUse"><stop offset="0" stop-color="#a00"/><stop offset="1" stop-color="#a00" stop-opacity="0"/></linearGradient></defs><rect id="b" x="445.72" y="462.25" width="3.82" height="7.48" rx=".55" ry=".55"/><path id="c" d="m384.21,489.61c-.56-.08-1.36.58-.78,1.09,3.16,2.69,7.03,4.36,10.38,6.78,3.28,2.53,6.41,5.26,9.91,7.5,3.76,2.35,7.18,5.2,10.35,8.3,3.92,3.79,7.9,7.6,10.91,12.18,1.89,3.11,4.11,6,5.83,9.21,2.83,4.97,5.58,9.99,8.47,14.93,1.33,2.47,2.12,5.19,3.33,7.72.49.11.39-.76.59-1.07,1.41-5.07,3.01-10.1,5.07-14.94,2.77-6.21,5.93-12.44,10.83-17.28,1.77-1.89,3.83-3.46,5.71-5.24,4.04-3.29,8.49-6.04,12.82-8.94,4.66-3.06,9.95-4.91,15.02-7.12,3.32-1.41,6.72-2.63,10.21-3.54.72-.09,1.47-.74,1.17-1.52-.2-.55-.66-1.07-1.31-.82-3.67.15-7.2,1.31-10.76,2.12-5.97,1.54-11.64,4.05-17.22,6.63-4.38,2-8.5,4.55-13.01,6.28-4.89,1.66-9.91,3.13-14.98,4.05-2.53.27-5.12.42-7.66.06-3.76-.71-7.65-.87-11.31-2.09-3.35-1.28-5.96-3.86-8.96-5.76-1.64-1.06-3.3-2.07-4.83-3.29-4.63-3.01-9.57-5.5-14.33-8.3-4.45-2.47-8.9-5.04-13.75-6.66-.56-.16-1.13-.31-1.72-.31h0l.02.03Z"/><path id="d" d="m368.44,480.16c-.41.02-.93.06-1.16.46-.18.41.17.81.45,1.07.9.8,2.04,1.22,3.04,1.87,1.49.89,2.86,1.95,4.23,3,1.26.91,2.6,1.77,4.11,2.2.73.19,1.61.27,2.23-.25.32-.27.57-.75.39-1.16-.25-.32-.67-.42-.99-.63-3.58-1.98-7-4.24-10.68-6.04-.52-.22-1.04-.55-1.63-.52h0Z" style="fill:#2b0022;"/><path id="e" d="m516.51,494.93c-1.59.05-3.18.2-4.76.38-1.38.18-2.77.4-4.07.89-.57.25-1.23.53-1.49,1.13-.14.3-.08.72.24.87.55.25,1.17.2,1.76.23,2.17-.03,4.34-.22,6.51-.37,1.27-.1,2.54-.17,3.8-.34.28-.07.19-.42.17-.63-.1-.55-.18-1.12-.45-1.62-.29-.49-.92-.54-1.43-.55h-.28,0Z" style="fill:#2b0022;"/><path id="f" d="m455.11,151.2c-2.35,1.53-4.23,3.86-6.77,5.05-2.16,0-4.01-2.24-6.21-1.72-1.12.89-2.57.85-3.64-.13-1.1-.47-1.96-2.47-3.26-1.27-1.29.61-2.74,1.85-4.18.9-2.91-.87-4.81,2.14-7.29,2.91-2.62-.07-4.1-2.53-6.12-3.76-1.74.15-2.43,2.31-3.25,3.59-1.37,3.44-2.99,6.8-4.14,10.32-1.4,6.12,1.92,11.89,3.28,17.69.44,1.36.9,2.95-.25,4.08-1.4,3.81-1.15,8.01-1.43,12.01-.09,7.29,1.64,14.48,3.55,21.47,3.21,7.48,8.76,14.13,15.97,18.03,3.11,1.9,5.87,4.64,9.66,5.08,5.29,1.03,11.05,1.37,16.17-.59,2.18-1.3,4.42-2.9,5.68-5.11,3.3-2.19,4.95-5.98,7.3-9.03,4.37-7.04,7.12-14.97,9.45-22.88,1.81-6.66,3.54-13.44,3.34-20.41-.06-7.24.63-14.54-.34-21.74-.66-2.68-1.67-5.41-3.34-7.63-1.91-1.44-4.88-.46-6.48-2.51-1.93-1.19-4.38,1.08-6.28-.47-2.09-1.37-5.05-3-7.36-1.12-1.94.69-2.79-1.99-4.04-2.76h-.02Zm-24.17,7.96c2.67.14,5.3.99,7.88,1.66.89.19,1.41,1.42.26,1.7-2.87.77-5.5-1.62-8.42-1.33-2.46-.09-3.94,2.19-6.11,2.93-3.1,1.43-6.13,3.51-9.54,3.98-1.33-.44.24-2.04.82-2.53,4.18-3.38,9.37-5.64,14.66-6.4.28-.02.17,0,.45,0h0Zm32.66,1.57c3.02-.36,5.86.86,8.25,2.61,1.76,1.16,3.38,2.88,5.64,2.79,1.66.21,2.47,3.16.47,3.48-2.13.25-4.61.87-6.55-.31-2.47-1.93-3.18-6.05-6.55-6.78-2.16-.39-4.45.38-6.54-.08-.05-1.62,2.25-1.5,3.37-1.66.63-.04,1.27-.05,1.91-.05h0Zm-15.96,17.1c1.19,3.48,3.01,6.83,3.59,10.48.11,1.8-1.54,4.18-3.54,3.19-1.43-.53-2.73-2.13-4.37-1.21-.7.41-1.77.06-1.28-.87,1.15-1.62,3.73-1.6,5.12-.25.93.92,2.11.12,2.36-.96.7-1.63-1.09-3.08-1.27-4.68-.8-2.49-1.32-5.09-1.38-7.69.26.66.51,1.33.77,1.99h0Zm-10.57,26.66c3.56,0,6.17,2.85,9.03,4.51,2.93-.94,5.82-3.67,9.04-2.33,3.39,1.07,5.81,5.1,4.7,8.53-1.47,2.04-3.94,2.74-5.97,4-2.5,1.75-4.11,5.16-7.36,5.51-4.93-.28-9.52-2.7-12.89-6.22-1.33-1.43-4.37-1.09-4.61-3.46-.71-4.32,2.3-8.74,6.29-10.28.57-.18,1.18-.27,1.77-.26h0Z" style="fill:#deaa87;"/><path id="g" d="m437.37,354.28c-3.48,4.13-4.89,9.82-8.72,13.82-7.66,8.95-18.76,15.5-30.55,16.73-2.73.61-5.84-1.08-8.33.19-1.02,4.49.9,9.25.94,13.82,1.92,14.47-2.77,28.62-5.29,42.69,2.75.24,5.63-2.1,8.46-2.59,12.25-2.95,25.31-1.95,37.25,1.87,14.84,3.98,29.46,8.61,44.14,13.13,8.82,2.26,18.99,4.94,27.54.44,4.11-1.37,1.17-4.48-.14-7.03-4.45-6.91-4.98-15.23-4.53-23.22.33-12.78.76-25.69,3.84-38.13-6.08.78-12.17,3.38-18.53,2.74-6.5-.25-13.62.66-19.26-3.32-7-4.2-11.85-11.21-15.82-18.16-2.04-3.2-1.97-7.76-4.75-10.42-2.49.12-4.1-1.8-6.27-2.57h.02Zm6.07,70.85c2.84-.36,6.6.41,7.52,3.34-3.82-2.63-8.85-1.35-12.99-2.79,1.69-.69,3.68-.46,5.47-.55Z" style="fill:#deaa87;"/><path id="h" d="m477.82,259.24c-2.55.23-1.7,2.78-.75,3.93-1.45.21-5.3-1.01-4.51,1.86.66.58,2.55,2.29.92,2.59-1.67-2.32-6.82-.18-4.58,2.62.92.46,1.56,2.83.02,1.4-1.04-2.2-5.2-1.42-4.93,1,.31,1.44,2.89,2.76,2.51,4.02-1.93-1.08-3.97-4.88-6.56-2.83-3.15,1.74.31,5.06.04,7.18-2.06-.93-1.94-4.93-4.92-4.72-4.06-1.57-.97,4.51-2.71,5.85-.17-2.24-1.36-5.92-4.29-5.15-1.87,1.28-.31,5.03-1.88,6.01-.01-2.31-.48-5.94-3.65-5.61-2.61-.45-2.95,2.27-3.15,4.09-1.17.21-.33-2.5-1.23-3.09-.56-1.78-4.47-3.48-4.6-.73.21,1.06-2.62,3.25-1.69,1.12,2.24-2.1-1.31-4.59-3.34-4.06-1.17.74-.91,3.65-2.18,3.64-.66-1.97.24-4.23-.19-6.12-1.72-.12-4.52.59-5.83.06.67-1.07,3.58-1.07,1.74-2.63-1.6-3.04-3.48-2.52-5.26,0-1.98,1.72-.53-1.12-.19-1.89.77-1.46-.64-5.14-2.38-3.02-1,.81-1.56,2.84-2.55,3.23-.01-2.02,2.65-4.66.96-6.4-1.33-.33-2.41,2.13-3.36,1.55-.04-1.15,2.54-3.17.84-3.73-6.63,2.79-13.6,5.39-19.31,9.92.79,7.3,3.88,14.29,4.93,21.61,1.86,9.05,2.52,18.34,1.31,27.5-.04,2.64,4.03,1.88,5.67,2.9,10.71,2.09,21.1,6.37,29.25,13.79,3.69,2.49,6.71,7.6,11.64,7.34,4.76-1.64,7.53-6.55,11.29-9.66,5-5.42,11.89-9.04,18.92-10.94,3.31-.41,1.9-5.04,2.07-7.23-1.29-15.4,1.24-30.84,4.11-45.92.09-2.59,2.11-4.86,2.1-7.34-.97-1.27-2.65-2.22-4.28-2.15h0Z" style="fill:#deaa87;"/><path id="i" d="m691.88,158.67c-5.58,3.28-9.36,9.02-13.55,13.86-6.21,7.27-10.98,15.92-18.29,22.16-2.74.99-4.24,4.02-6.7,5.16-.3-3.18,1.94-6.27,2.11-9.51,1.09-6.2,2.96-12.48,3.11-18.73-1.56-2-2.93,1.07-2.94,2.47-2.77,7.84-6.88,15.34-7.49,23.81-1.23,11.77-9.54,21.05-17.72,28.9-14.3,13.71-28.59,27.55-44.41,39.53-8.96,6.97-19.27,12.49-30.08,15.92-5.43,1.37-11.34.66-16.59,2.22-1.38-.51-3.52.57-2.2,2.11.48,1.16,2.57,2.69,2.6,3.49-1.33.08-4.48-2.29-5.08-.21-.44,3.26,3.93,3.95,4.78,6.22-.93-1.2-4.37-1.82-4.46.14.61,1.91,3.77,3.19,3.73,4.97-1.11-.38-4.1-2.13-3.99.23.97,1.88,3.94,3.79,4.04,5.46-.69-1.29-4.15-2.6-3.33.01,1.6,4.42,6.96,3.52,10.67,3.47,11.01-.93,22.42-1.51,32.77-5.7,10.72-6.32,19.04-15.92,28.22-24.18,7.26-6.99,14.66-13.89,20.69-22.01,8.73-9.7,17.24-19.67,26.59-28.77,9.42-7.02,20.87-11.68,28.24-21.23,3.37-4.32,7.66-8.41,9.55-13.62-1.07-.72-2.37,1.74-3.35,2.26-4.43,4.08-8.68,9.35-13.17,12.81,6.67-9.96,15.03-18.96,20.37-29.77-.47-1.62-2.34,1.17-2.89,1.62-6,7.37-12,14.76-17.73,22.34-.91,1.31-3.18,2.88-3.75.41-.37-3.6,3.52-6.11,5.22-8.9,7.17-8.9,14.43-17.84,20.58-27.48,1.15-1.95-1.48-1.54-2.06-.31-9.6,10.05-17.09,21.99-26.9,31.83-1.99.93-1.32-2.63-.87-3.52,3.78-8.09,10.97-14,15.59-21.6,3.12-5.08,7.18-9.92,9.15-15.55-.05-.22-.28-.34-.49-.31h.03Z" style="fill:#deaa87;"/><path id="j" d="m486.93,262.08c-4.57-.68-5.31,4.77-6.17,8.01-2.35,12.5-4.24,25.24-4.02,37.99.47,3.99.17,8.36,1.53,12.12,2.84.48,5.99-.77,8.97-.56,2.14-.65,5.56.67,7.14-1.3.43-3.87,5.3-4.64,8.31-5.66,10.27-2.07,21.08-.98,31.37-2.51.1-8.99-.37-18.14.81-27.01-10.57-4.38-19.8-11.15-28.78-18.12-5.42-4.12-12.86-2.41-19.18-2.95h.02Z" style="fill:#deaa87;"/><path id="k" d="m387.11,269.88c-6.2,2.06-12.19,5.15-17.59,8.84-12.56,10.58-17.62,26.83-24.77,41.04-8.31,16.59-15.86,34.05-18.18,52.61-1.28,10.9,5.35,20.44,10.44,29.46,6.17,10.11,14.09,19.25,23.24,26.74,7.52,5.34,14.87,11.1,22.02,16.84,2.01-3.34,1.85-7.89,3.16-11.62,1.2-5.07,2.26-10.21,3.07-15.34-11.12-12.63-20.45-26.7-29.41-40.88-1.34-1.85-5.35.09-5.65-2.57,2.03-1.01,5.55.46,6.56-2.52,1.56-2.08,3.92-4.19,2.49-7.07-1.72-8.37-3.49-18.13,1.41-25.78,5.77-7.59,13.56-13.75,17.55-22.58,1.46-1.17-.31,3.2,1.4,2.43,4.05-.08,8.22.15,12.21-.11,2.53-8.88.66-18.32-.51-27.29-1.67-7.38-3.07-15.06-6.48-21.86-.24-.26-.61-.36-.95-.33h0Z" style="fill:#deaa87;"/><path id="l" d="m405.11,438.37c-1.45.19-4.18.06-3.66,2.31.11.7-.24,2.65-.97,1.22-.7-.91.04-3.26-1.8-2.86-1.95.32-4.55.87-4.63,3.32-.24.68-.74,2.75-1.68,2.24-.32-1.07,1.9-3.06-.04-3.44-2.05-.1-3.73,1.54-3.64,3.57.08,1.03-.91,1.56-1.15.38-.21-1.18-1.47-1.59-2-.35-1.96,3.77-3.19,7.91-5.35,11.61-3.27,6.86-7.81,13.07-10.82,20.04-.8,2.48,2.76,2.83,4.12,3.93,2.26.98,4.31,3.02,6.67,3.51-.11-2.64-1.81-5.46-.96-8.12,1.27-2.06,3.93-.73,4.71,1.03.56,1.51,1.66,3.03,3.49,2.29,2.15-.76,5.28,1.54,3.71,3.79-.8,1.84-2.94,3.23-3.27,5.19,2.91,2.39,6.84,3.28,10,5.37,9.66,5.58,19.37,11.12,28.45,17.63,5.35,2.74,11.63,3.43,17.58,3.2,9.72-.84,18.99-4.41,27.5-9.05,8.06-4.05,16.5-7.21,25.32-9.12,1.73-.77,4.28-.38,5.61-1.77-.75-1.72-3.33-2.2-3.78-4.26-.8-1.75-.38-5.31,2.27-4.59,1.89.6,2.52,3.9,4.7,3.54,1.06-.73.26-3.45,1.89-3.12,2.18,1.25,3.44,3.65,2.66,6.13-.26.87,0,2.31,1.21,1.63,2.22-.71,6.03.24,7.05-2.5.22-4.91-1.92-9.63-2.84-14.4-1.72-7.31-5.43-13.95-8.23-20.87-.18-1.5-3.05-1.68-2.46.09.62,2.35,2.81,4.5,2.84,6.81-2.1-1.81-3.16-4.66-5.23-6.45-1.27.74-4.99,1.31-3.85,3.58.69.9,2.13,3,1.02,3.9-1.78-2.26-3.37-5.31-6.62-5.62-1.2-.05-4.07-.7-3.66,1.35,0,1.68,1.83,2.62,2.05,4.08-3.26-.75-3.54-6.12-7.42-5.95-1.27-.43-1.78.73-1.24,1.73.25.61-.29,3.06-.92,1.53-.83-1.94-1.48-4.55-4.05-4.71-.98-.38-3.02-.59-2.48,1.08-.07.73.66,2.54-.05,2.84-1.64-1.95-2.28-6.03-5.52-5.83-1.85.06-1.7,2.88-2.73,3.53-.81-1.75-.01-4.38-2.32-5.28-.91-.34-2.96-2.22-3.52-.59-.24.65.2,2.51-.47,2.56-1.5-2.06-2.47-5.07-5.49-5.29-1.99-.77-1.61,2.28-2.24,3.36-.04.87-.91,1.57-.89.33-.43-1.75.78-4.95-1.84-5.3-1.52-.63-3.58-.32-3.67,1.67-.3.57-.47,2.29-1.18,2.14-.88-1.78.87-5.09-1.72-5.73-1.19-.3-4.11-1.34-3.98.83-.09,1,.17,2.85-.7,3.34-.65-1.94.43-5.44-2.39-6.04-1.67-.25-4.27-1.2-3.99,1.49-.05.49-.59,2.34-.97,1.06-.46-1.73-.33-4.96-2.99-4.58-2.33-.03-1.15,3.48-2.24,4.58-1.24-1.77.5-5.39-2.1-6.23-2.09-.52-2.13,1.94-2.87,3.14-1.33-.59-.32-3.49-2.14-3.92-1.49-.31-3.99-.53-4,1.64,0,.72-1.02,1.66-.99.46.38-1.8-1.13-3.42-2.96-3.04-1.35-.13-3.18.19-2.97,1.97.16,1.27-1.74,1.35-1.36-.09.21-1.27-.39-2.25-1.79-1.93h-.02Zm41.33,22.3c2.05,3.73-.68,10.07-5.34,9.72-.68-.19-2.18-.86-1.96-1.61,1.79.22,4.02.32,4.97-1.62,1.54-1.79,1.64-4.14,2.14-6.3.05-.06.11-.21.2-.19h-.01Z" style="fill:#deaa87;"/><path id="m" d="m506.95,313.81c-1.68,0-3.36.15-4.97.66-1.66.51-3.38,1.06-4.74,2.16-.41.27-.57.83-.25,1.23.97,1.28,2.21,2.31,3.35,3.43.98.84,1.88,1.86,3.09,2.38.37.19.78-.11.79-.5.19-1.14-.14-2.35.34-3.45.6-1.81,1.33-3.64,2.69-5.02.14-.26.63-.51.46-.83-.23-.11-.52-.05-.77-.07h0Z" style="fill:#deaa87;"/><path id="n" d="m691.21,158.93c-.25.05-.48.19-.69.34-.32.22-.61.48-.9.74-.08.08-.05.24.07.26.11.03.19-.08.28-.14.43-.32.88-.62,1.33-.92.1-.06.08-.23-.03-.27-.02,0-.04,0-.07,0h.01Z" style="fill:#deaa87;"/><path id="o" d="m657.35,170.8c-.17,0-.32.09-.44.2-.05.05-.05.13-.01.19s.13.08.19.05c.1-.06.2-.1.31-.12.03,0,.06,0,.08,0,.07,0,.13-.09.12-.16,0-.07-.07-.13-.14-.14h-.11Z" style="fill:#deaa87;"/><path id="p" d="m537.9,284.21c-.2,0-.39.08-.53.21-.04.04-.09.09-.12.14-.04.07-.01.16.05.2.05.04.12.03.17,0,.2-.11.41-.19.63-.24.07-.02.12-.11.1-.18-.01-.06-.07-.11-.13-.11-.06-.01-.12-.01-.18-.01h.01Zm.19.31h0Z" style="fill:#deaa87;"/><path id="q" d="m440.87,277.38c-.15,0-.3.06-.39.18-.1.12-.16.28-.19.43,0,.09.08.18.17.16.09,0,.14-.1.21-.15.13-.13.28-.23.43-.31.08-.04.11-.17.04-.24-.06-.06-.15-.06-.24-.07h-.03Z" style="fill:#deaa87;"/><path id="r" d="m410.55,259.27c-.12.02-.27.04-.36.13-.08.09,0,.22.09.27.11.06.18.16.23.28.06.11.24.09.28-.02.07-.15.12-.34.06-.5-.06-.09-.15-.18-.27-.15h-.03Z" style="fill:#deaa87;"/><path id="s" d="m479.86,457.09c-.07,0-.13.06-.14.12-.01.05.01.11.05.14.08.09.15.18.22.27.05.05.15.06.2,0,.04-.03.06-.09.06-.14,0-.1-.06-.2-.14-.26-.06-.05-.12-.09-.18-.13-.02,0-.05-.01-.07-.01h0Z" style="fill:#deaa87;"/><path id="t" d="m507.44,487.53c-.34-.01-.55.33-.63.62-.19.64-.07,1.33-.28,1.97-.14.51-.38,1-.71,1.42-.34.41-.64.93-.63,1.48.03.42.46.7.86.66.65-.05,1.22-.44,1.69-.86.62-.58,1.15-1.31,1.32-2.16.12-.67-.08-1.36-.39-1.95-.22-.41-.46-.84-.87-1.09-.11-.06-.23-.08-.36-.08h0Z" style="fill:#deaa87;"/><path id="u" d="m500.04,486.73c-.41.02-.8.26-1.06.57-.19.25-.13.59-.05.87.23.61.54,1.18.85,1.74.34.58.73,1.22,1.39,1.48.41.15.87.18,1.3.09.28-.09.44-.39.42-.67.01-.61-.18-1.2-.4-1.77-.34-.83-.87-1.63-1.65-2.09-.25-.13-.53-.23-.81-.23h0Z" style="fill:#deaa87;"/><path id="v" d="m381.16,476.24c-.29.01-.56.19-.7.43-.13.27-.08.58-.08.87.03.62.18,1.23.33,1.83.32,1.18.72,2.33,1.13,3.48.24.62.46,1.25.8,1.83.1.16.24.36.46.32.22-.07.26-.33.29-.53.03-.6.02-1.2,0-1.8-.11-1.58-.24-3.17-.76-4.68-.2-.53-.42-1.08-.84-1.48-.17-.16-.39-.28-.63-.27h0Z" style="fill:#deaa87;"/><path id="w" d="m388.42,480.21c-.44,0-.81.28-1.14.53-.42.34-.81.71-1.17,1.12-.52.66-.88,1.45-1.08,2.27-.11.49-.19,1.01-.04,1.5.08.26.33.49.62.46.29-.05.52-.24.76-.39.94-.66,1.8-1.43,2.62-2.23.38-.39.81-.77,1.02-1.29.14-.31.07-.67-.13-.93-.28-.39-.62-.77-1.06-.97-.13-.06-.27-.07-.41-.07h.01Z" style="fill:#deaa87;"/><path id="x" d="m504.68,501.25c-2.08.15-4.21.25-6.18,1.04-4.7,1.74-9.32,3.69-13.87,5.8-3.78,1.76-7.37,3.91-10.75,6.36-2.86,2-5.89,3.78-8.45,6.19-3.29,2.97-6.56,6.02-9.28,9.54-2.94,3.94-4.99,8.45-6.92,12.94-1.78,4.61-3.16,9.38-4.03,14.25-.23,1.82-.48,3.65-.55,5.48.29.61,1.07.77,1.56,1.19,1.35.87,2.69,1.76,3.85,2.85,1.28.83,2.84,1.03,4.18,1.73,2.72,1.28,5.25,2.94,8.01,4.15,3.65,1.67,7.33,3.3,11.19,4.42.8.26,1.75-.01,2.17-.77,1.07-1.76,1.61-3.76,2.48-5.61,1.91-4.44,3.97-8.82,6.5-12.95,2.55-4.47,5.04-8.97,7.99-13.2,5.02-7.48,11.38-14.01,18.41-19.63,1.77-1.51,3.75-2.78,5.43-4.39.25-.29.74-.78.28-1.12-2.66-1.94-5.53-3.57-8.31-5.32-.4-.27-.87-.49-1.22-.79-.84-3.99-1.51-8.01-2.18-12.02-.05-.14-.2-.11-.32-.11h0v-.03Z" style="fill:#deaa87;"/><path id="y" d="m381.45,492.79c-.71-.01-1.08.72-1.08,1.34-.17.93-1.1,1.43-1.47,2.28-1.66,3.2-2.75,6.65-3.79,10.09-2.55,8.64-3.38,17.68-3.59,26.65-.05,6.61-.02,13.22.51,19.81.4,4.37,1.76,8.57,2.77,12.82.43.26,1.04-.06,1.52-.13,4.53-1.32,9.18-2.25,13.89-2.7,9.99-.99,20.08-.6,30.07.24,4.86.54,9.72,1.3,14.56,2.02,2.05.3,4.07.75,6.06,1.28.57.08,1.51.31,1.74-.43.43-1.46-.3-2.93-.75-4.29-.91-2.19-1.68-4.43-2.51-6.66-3.04-7.34-7.16-14.16-11.11-21.03-1.9-3.28-4.17-6.32-6.29-9.46-3.08-4.28-6.89-7.97-10.72-11.57-2.54-2.33-5.22-4.58-8.33-6.12-2.34-1.44-4.31-3.37-6.49-5.03-2.17-1.68-4.29-3.48-6.66-4.88-2.6-1.18-4.79-3.18-7.51-4.12-.27-.08-.55-.13-.83-.12h0Z" style="fill:#deaa87;"/><path id="z" d="m514.19,500.22c-2.29.04-4.58.17-6.86.38-.24.42-.01.98-.07,1.45.08,3.18.7,6.34,1.7,9.35.56,1.27,1.93,1.88,2.98,2.67,2.24,1.43,4.47,2.9,6.89,3.99.79.4,1.59-.19,2.34-.44,1.67-.85,3.41-1.52,5.2-2.06.47-.15,1.19-.65.79-1.21-.67-.75-1.76-.86-2.58-1.39-1.91-.99-3.7-2.2-5.52-3.34.13-2.55.43-5.1.3-7.65-.21-1.18-1.53-1.54-2.55-1.64-.87-.1-1.74-.11-2.61-.11h-.01Z" style="fill:#deaa87;"/><path id="aa" d="m366.66,484.26c-1.19.1-1.69,1.39-2.13,2.32-1.43,3.55-2.78,7.13-4.33,10.63-1.27,2.93-2.57,5.85-3.51,8.9-1.63,5-3.39,9.98-4.35,15.17-1.34,6.92-2.15,13.95-2.46,20.99-.11,4-.07,8.02.36,12.01.54,5.76,1.12,11.54,2.52,17.16.31,1.22.54,2.47.96,3.66.41.22.85-.26,1.25-.35,3.79-1.72,7.49-3.65,11.36-5.18,1.89-.76,3.74-1.63,5.47-2.69.55-.42,1.18-1.08.87-1.83-1.11-4.93-2.15-9.9-2.52-14.95-.58-7.69-.29-15.41,0-23.11.14-3.94.41-7.86,1.14-11.74,1.05-5.76,2.5-11.49,4.7-16.92.85-2.09,2.08-4.03,2.74-6.2.23-.67.03-1.63-.78-1.77-1.91-.3-3.44-1.61-4.95-2.71-1.77-1.41-3.66-2.91-5.94-3.35-.14-.02-.28-.03-.42-.02h0l.02-.02Z" style="fill:#deaa87;"/><path id="ab" d="m423.53,238.39c-.41.13-.26.76-.43,1.09-.34,1.79-.8,3.51-1.61,5.15-1.81,3.98-4.01,7.81-6.82,11.17-.64.63-1.51,1.29-1.41,2.31-.14,1.25.58,2.4,1.35,3.32,2.18,2.2,4.53,4.23,6.93,6.19,3.46,2.76,7.36,5.01,11.5,6.58,2.56.98,5.28,1.36,7.98,1.7.57.07,1.13.2,1.64.4.96,0,1.87-.4,2.82-.47,3.93-.58,8-.69,11.72-2.23,3.67-1.44,6.92-3.78,9.7-6.54,2.34-2.33,4.73-4.66,6.64-7.38.76-.96.7-2.35-.01-3.32-1.03-1.58-2.87-2.27-4.18-3.56-1.93-1.77-3.71-3.74-5.15-5.94-.5-.72-.57-1.6-.72-2.43-.12-.68-.96-.68-1.43-.38-1.77,1.03-3.27,2.55-5.21,3.27-3.06.68-6.2.99-9.32,1.19-.96.08-1.93.08-2.86-.22-2.52-.61-5.11-.93-7.57-1.68-2.13-.7-3.75-2.36-5.66-3.49-2.55-1.64-5.08-3.32-7.78-4.69-.04,0-.09-.02-.13-.02h0v-.02Z" style="fill:#deaa87;"/><path id="ac" d="m396.91,321.81c-.83-.05-1.56.54-1.8,1.32-.24.7-.64,1.7.04,2.28.99.72,2.3.73,3.44,1.04,3.47.77,6.64,2.5,9.87,3.92,1.74.81,3.49,1.64,5.34,2.15,3.1,1.21,6.05,2.79,8.99,4.36,4.05,2.21,7.42,5.43,10.8,8.53,2,1.94,4.09,3.84,5.76,6.08.3.58.41,1.27.86,1.78.56.72,1.39,1.49,2.37,1.39.85-.3,1.32-1.16,1.81-1.86,1.45-2.67,2.9-5.43,5.07-7.58,3.37-3.36,7.42-5.91,11.34-8.57,2.85-1.85,5.67-3.79,8.59-5.53,2.1-1.2,4.37-2.06,6.54-3.13.91-.47,2.02-1.25,1.84-2.42-.15-.84-.66-1.61-1.25-2.21-1.22-.51-2.53.12-3.73.39-4.84,1.35-9.15,4.05-13.21,6.93-2.94,2.21-5.64,4.75-8.05,7.52-.6.69-1.09,1.47-1.41,2.32-1.12,1.37-2.73,2.24-4.22,3.14-1.6.92-3.52,1.51-5.32.91-1.82-.57-3.28-1.93-4.65-3.21-1.21-1.14-2.01-2.64-3.3-3.7-2.98-2.63-6.25-4.92-9.54-7.14-3.62-2.38-7.51-4.52-11.81-5.34-4.21-.82-8.31-2.06-12.46-3.1-.63-.14-1.27-.28-1.91-.27h0Z" style="fill:#2b0022;"/><path id="ad" d="m390.77,321.19c-2.8.07-5.63.02-8.39.5-1.32.2-2.39,1.2-3.02,2.34-.22.38.24.6.56.61,2.59.49,5.25.44,7.87.61,1.61.02,3.24.23,4.84.02.72-.33.51-1.31.66-1.93,0-.56.44-1.13.24-1.68-.41-.59-1.26-.37-1.87-.46h-.89,0Z" style="fill:#2b0022;"/><path id="ae" d="m490.42,321.28c-3.58.07-7.2.09-10.73.79-.41.14-1.2.2-1.19.77.4,1.3,1.04,2.53,1.77,3.67.6.83,1.75.43,2.59.36,5.03-.55,10.11-.79,15.18-.67,1.95.2,3.86.86,5.57,1.81.71.32,1.13,1.04,1.81,1.37.48.02.21-.63.07-.86-.85-1.53-2.38-2.51-3.74-3.54-1.38-.95-2.73-1.96-3.99-3.06-1.27-.74-2.83-.56-4.24-.65-1.03-.01-2.07-.01-3.1-.01h0v.02Z" style="fill:#2b0022;"/><path id="af" d="m493.88,328.41c-6.5.18-13.17.26-19.4,2.36-5.61,2.27-10.38,6.13-15.5,9.29-4.53,2.61-8.29,6.44-11.19,10.77-.93,1.58-2,3.56-1.19,5.39.32,1.39.14,2.98,1.14,4.12,1.18,2.78,1.9,5.78,3.56,8.35,1.98,3.43,4.68,6.37,6.81,9.68,2.93,3.12,6.67,5.46,10.62,7.08,4.42,1.55,9.19,1.45,13.8,1.65,4.07.1,8.18-.2,12.09-1.42,4.47-1.37,9.23-2.45,13.05-5.28,3.52-2.98,6.83-6.4,8.96-10.54,2.68-5.29,2.35-11.36,2.49-17.12-.09-3.11.42-6.46-1.24-9.27-3.05-5.7-7.92-10.53-13.83-13.23-2.18-.89-4.41-1.8-6.8-1.76-1.12-.06-2.24-.06-3.35-.05h0l-.02-.02Zm17.02,25.65c.91.59.64,2,.4,2.9-.82,2.14-3.09,3.23-5.17,3.76-1.49-.19-2.7-1.65-2.95-3.08-.18-.7.69-1.04,1.03-.4.63.66,1.35,1.9,2.44,1.26,1.54-.38,2.95-1.53,3.24-3.15.25-.4.44-1.24,1.01-1.29h0Z" style="fill:#483737;"/><path id="ag" d="m383.01,326.83c-2.46-.12-5.02.45-6.88,2.17-4.8,4.13-9.46,8.69-12.49,14.31-1.27,2.26-1.69,4.86-1.52,7.42.06,5.81.23,12.1,3.75,17.01,3.72,5.05,9.52,7.91,14.94,10.77,4.79,2.54,10.04,4.55,15.54,4.43,5.12.02,10.22-1.18,14.78-3.5,9-4.17,16.5-11.37,21.4-19.96,1.51-2.78,2.71-5.78,3.35-8.88-2.14-2.69-4.79-4.98-7.26-7.37-2.47-2.37-5.4-4.17-8.37-5.83-5.26-2.47-10.6-4.8-15.96-7.04-4.73-1.94-9.79-2.97-14.89-3.24-2.13-.16-4.26-.29-6.39-.29h0Zm-11.54,23.06c.53.24.21,1.11.14,1.59-.57.69-1.15,2,.01,2.47,1.47.64,3.18.63,4.6,1.34.2.71-.15,1.82-1.09,1.56-2.05-.28-4.51-.77-5.7-2.66-.84-1.58.42-3.83,2.04-4.3h0Z" style="fill:#483737;"/><path id="ai" d="m383.01,326.83c-2.46-.12-5.02.45-6.88,2.17-4.8,4.13-9.46,8.69-12.49,14.31-1.27,2.26-1.69,4.86-1.52,7.42.06,5.81.23,12.1,3.75,17.01,3.72,5.05,9.52,7.91,14.94,10.77,4.79,2.54,10.04,4.55,15.54,4.43,5.12.02,10.22-1.18,14.78-3.5,9-4.17,16.5-11.37,21.4-19.96,1.51-2.78,2.71-5.78,3.35-8.88-2.14-2.69-4.79-4.98-7.26-7.37-2.47-2.37-5.4-4.17-8.37-5.83-5.26-2.47-10.6-4.8-15.96-7.04-4.73-1.94-9.79-2.97-14.89-3.24-2.13-.16-4.26-.29-6.39-.29h0Zm-11.54,23.06c.53.24.21,1.11.14,1.59-.57.69-1.15,2,.01,2.47,1.47.64,3.18.63,4.6,1.34.2.71-.15,1.82-1.09,1.56-2.05-.28-4.51-.77-5.7-2.66-.84-1.58.42-3.83,2.04-4.3h0Z" style="fill:url(#af);"/><path id="ak" d="m493.88,328.41c-6.5.18-13.17.26-19.4,2.36-5.61,2.27-10.38,6.13-15.5,9.29-4.53,2.61-8.29,6.44-11.19,10.77-.93,1.58-2,3.56-1.19,5.39.32,1.39.14,2.98,1.14,4.12,1.18,2.78,1.9,5.78,3.56,8.35,1.98,3.43,4.68,6.37,6.81,9.68,2.93,3.12,6.67,5.46,10.62,7.08,4.42,1.55,9.19,1.45,13.8,1.65,4.07.1,8.18-.2,12.09-1.42,4.47-1.37,9.23-2.45,13.05-5.28,3.52-2.98,6.83-6.4,8.96-10.54,2.68-5.29,2.35-11.36,2.49-17.12-.09-3.11.42-6.46-1.24-9.27-3.05-5.7-7.92-10.53-13.83-13.23-2.18-.89-4.41-1.8-6.8-1.76-1.12-.06-2.24-.06-3.35-.05h0l-.02-.02Zm17.02,25.65c.91.59.64,2,.4,2.9-.82,2.14-3.09,3.23-5.17,3.76-1.49-.19-2.7-1.65-2.95-3.08-.18-.7.69-1.04,1.03-.4.63.66,1.35,1.9,2.44,1.26,1.54-.38,2.95-1.53,3.24-3.15.25-.4.44-1.24,1.01-1.29h0Z" style="fill:url(#aj);"/><path id="al" d="m551.58,528.25c-4.42.81-9.08.85-13.18,2.94-9.83,4.39-18.2,11.53-25.36,19.47-6.8,8.09-11.95,17.46-16.33,27.04-.74,2.13-2.17,4.19-2.2,6.5.67,1.35,2.57,1.41,3.8,2,4.52,1.26,9.21,1.82,13.76,3.01,5.53,1.27,11.2,2.64,16.91,1.8,4.03-.46,8-1.3,12.08-.99,4.6.07,9.22.03,13.7,1.2,3,.36,6.66,1,9.05-1.36.46-.58,1.59-.58,1.1.36-.56,2.04-2.62,3.22-4.68,3.11-6.85.04-13.59-2.04-20.48-1.46-11.29,0-22.12,3.7-33.3,4.79-10.82,1.36-21.39,4.17-31.69,7.67-4.95,1.5-10.5,2.97-15.39.51-3.1-1.23-5.24-3.99-8.34-5.26-2.12-.96-4.88-2.64-7.05-.87-3.12,2.73-5,6.58-6.96,10.17-2.66,6.73-6.48,12.92-10.85,18.67-3.77,4.38-9.1,6.98-13.68,10.4-9,6.28-17.71,12.95-26.39,19.66-2.35,1.98-5.3,3.61-6.78,6.39-.14,1.08.85,2.39,1.93,2.56,1.03-.25,1-1.9,2.27-1.8,5.31-.48,10.04-3.16,15.08-4.63,7.53-2.5,14.68-5.96,21.66-9.7,5.43-2.7,10.46-6.11,15.72-9.1,4.67-2.14,9.84-2.87,14.69-4.56,5.88-2.08,12.12-.65,18.1.22,8.99,1.57,17.96,3.65,27.14,3.76,17.17.47,34.4-.48,51.39-3,9.71-1.74,19.24-4.39,28.75-7.03,3.9-1.44,7.99-2.44,11.75-4.24,3.87-.82,8.26-.32,11.61-2.85,2.51-1.84,4.23-4.63,5.47-7.44.81-4.61.74-9.38.17-14.02-1.5-8.28-3.92-16.45-7.45-24.1-1.78-3.41-4.44-6.24-6.14-9.7-2.92-4.25-6.6-7.94-9.29-12.37-6.01-9.3-14.37-16.76-23.26-23.24-2.36-1.51-4.41-3.83-7.2-4.5h-.14.01Z"/><path d="m504.7,867.96c.13,3.74-2.52,6.72-5.31,8.84-.64.31-1.62,1.64-2.35.94-.26-2.98,1.11-5.91.92-8.91.38-.82-.7-1.35-.92-.44.05,1.69-1.1,3.02-1.31,4.66-2.14,10.25-2.25,20.82-4.26,31.11-.89,4.21-1.31,8.65-3.22,12.55-1.49,2.08-3.47,4.26-6.08,4.76-1.14.76-2.49.99-3.83,1.18-4.85,1.72-10.13,1.62-15.14,2.67-4.72.73-9.09,2.97-13.76,3.82-1.61-.39-3.83-1.08-4.26-2.89.62-2.54,2.78-4.41,4.67-6.08,5.94-4.38,13.45-5.61,20.13-8.46.65-.26,2.37-1.06,1.2-1.8-2.38-.06-4.61,1.35-6.99,1.64-1.02.31-.91-1.05-.55-1.59,1.22-2.74,2.09-5.62,3.34-8.34,4.61-11.72,6.55-24.36,6.64-36.91-.07-9.78-.61-19.7-3.27-29.16-1.22-4.92-3.68-9.39-5.33-14.16-5.33-12.27-10.86-24.48-16.56-36.59-3.69-8.52-8.29-16.59-12.35-24.93-1.73-3.89-3.53-7.76-5.05-11.74-1.03-3.37-3.68-5.75-5.8-8.42-2.36-3.82-3.96-8.13-4.91-12.51-.41-3.55-.98-7.1-2.63-10.32-6.29-12.37-12.32-24.88-19.13-36.97-2.5-3.92-3.99-8.34-5.1-12.82-.11-1.03-1.26-2.77.24-3.3,6.92-2.45,13.74-5.23,20.5-8.11,3.62-2.36,7.64-4.07,11.36-6.29,3.5-1.79,6.76-3.92,10.09-6,2.63-1.86,6.01-1.69,8.79-3.1,3.02-.43,5.84-1.79,8.85-2.28h0c.28-.02.59,0,.82.19.71,1.29.2,3,.47,4.43.64,20.58,1.27,41.18,2.98,61.71.65,6.28.3,12.74,1.72,18.89,1.63,3.84,3.58,7.58,5.74,11.16,3.96,5.87,8.59,11.31,12.23,17.42,4.11,5.72,5.9,12.6,7.87,19.25.49,11.09.62,22.24,1.16,33.35.04,8.24,1.94,16.37,5.2,23.91,2.11,4.12,3.28,8.68,5.57,12.71,5.18,7.93,8.21,17.4,7.61,26.93Zm-91.17-232.45c2.38-1.55,4.59-3.33,7-4.84,2.65-1.96,4.5-4.77,6.45-7.38,2.02-2.83,3.99-5.69,6.03-8.5,1.01-1.61,1.13-3.56,1.91-5.27,1.51-3.61,3.31-7.17,5.86-10.17,1.34-1.54,2.98-3.09,5.14-3.23.72-.15,1.58.08,2.21-.38.41-.57-.02-1.33-.08-1.95-.38-1.69-.47-3.43-.77-5.13-.54-.91-1.68-1.21-2.58-1.65-3.57-1.38-7.27-2.42-11.01-3.24-7.15-1.44-14.47-1.62-21.73-1.71h-.79c-7.29.08-14.58.35-21.83,1.06-5.4.65-10.76,1.74-15.96,3.33-1.29.41-2.59.86-3.71,1.65-.87.28-1.8.32-2.64.72-2.3.92-4.55,2.05-6.57,3.49-1.03.7-1.33,2.06-1.01,3.22.69,2.61,2.01,5,2.97,7.52,1.49,3.62,2.97,7.24,4.22,10.94,2.24,4.95,4.74,9.77,7.26,14.58,1.41,2.72,3.17,5.23,4.49,8,1.66,3.21,3.18,6.52,5.22,9.51.51.71,1.32,1.34,1.32,2.29.14.6.88.67,1.09,1.24.64,1.03.8,2.38,1.73,3.22.57.38,1.17-.27,1.67-.49,4.91-3.24,9.49-6.96,14.33-10.3,3.23-2.23,6.35-4.64,9.78-6.53Z"/><path id="am" d="m531.26,516.37c-3.03.9-6.13,1.79-8.99,3.1-.36,1.32,1.08,2.41,1.84,3.33,1.83,2.13,5.11,2.06,6.81,4.35,1.17,2.54-1.94,4.88-4.33,4.54-1.68-.04-3.55-1.82-2.6-3.54.55-1.25.26-2.61-.76-3.52-1.1-1.16-1.99-2.82-3.46-3.48-3.44,1.76-6.27,4.56-9.28,6.97-7.34,6.08-13.8,13.24-18.66,21.46-2.83,4.8-5.81,9.51-8.6,14.32-2.18,4.44-4.52,8.94-5.58,13.8-.13,1.49,1.95,1.58,2.89,2.13,3.79,1.31,7.52,2.88,11.3,4.16,1.48-.03,1.4-2.11,2-3.05,3.58-8.76,7.68-17.37,12.96-25.24,5.13-6.6,10.87-12.77,17.33-18.09,5.05-4.01,10.72-7.21,16.9-9.11,2.47-.95,5.12-1.33,7.65-2,.02-.76-1.36-.97-1.84-1.48-3.92-2.12-7.53-4.84-11.66-6.55-1.33-.61-2.46-1.83-3.91-2.1h-.01Z"/><path id="an" d="m404.31,564.64c-6.77.07-13.58.18-20.29,1.2-2.96.61-5.93,1.29-8.76,2.34-.78.32-.21,1.26-.01,1.8.93,2.1,2.33,3.93,3.77,5.69,1.23,1.54,1.06,4.04-.61,5.21-1.24.91-3.03.75-4.32.03-1.34-.95-2.05-2.64-2.22-4.23.29-1.44,2.08-2.07,2.32-3.54-.02-1.23-.41-2.5-1.11-3.51-.82-.84-2.04-.06-2.92.27-4.4,2.14-8.97,3.97-13.25,6.35-.82.5-1.97,1.09-1.82,2.23.26,3.2,1.1,6.33,2,9.39.4,1.03.61,2.24,1.39,3.05.8.16,1.48-.6,2.19-.85,5.6-3.1,11.71-5.2,17.87-6.9,6.33-1.59,12.87-2.07,19.36-2.58,6.69-.46,13.41-.68,20.1-.18,7.99.51,16.05,1.19,23.79,3.28,1.48.33,2.79,1.12,4.24,1.5.85.25.51-.66.46-1.14-.73-4.53-1.6-9.04-2.59-13.52-.13-1.14-1.49-1.23-2.33-1.57-6.85-1.85-13.91-2.75-20.94-3.6-5.42-.63-10.88-.73-16.33-.73h.01Z"/><path id="ao" d="m494.21,318.36c-.07.01-.11.08-.17.12-.06.06-.13.12-.19.17-.06.05-.12.08-.17.13-.06.06-.05.17.02.22.05.04.11.03.17.02.16-.03.32-.09.41-.23.06-.08.09-.18.1-.28,0-.08-.07-.16-.15-.15h-.02Z" style="fill:#deaa87;"/><path id="ap" d="m375.91,575.47c-.8.01-1.68.36-2.01,1.14-.4.89-.06,1.94.61,2.6.51.52,1.21,1.09,2,.93.76-.21,1.2-.95,1.53-1.61.24-.57.34-1.23.14-1.82-.29-.78-1.12-1.2-1.91-1.22-.12,0-.23-.01-.35,0h0v-.02Z" style="fill:#660080;"/><path id="aq" d="m527.79,526.41c-.61.08-1.15.43-1.65.77-.77.63-1.12,1.83-.65,2.73.36.65,1.17.79,1.84.68.89-.13,1.85-.71,2.01-1.67.07-.71-.35-1.34-.68-1.93-.19-.3-.48-.61-.87-.58h0Z" style="fill:#660080;"/><path id="ar" d="m436.33,205.78c-.94-.03-1.66.65-2.28,1.27-1.47,1.53-2.94,3.28-3.28,5.44-.15.86.08,1.84.84,2.35,1.35,1.02,3.12,1.06,4.72,1.37,3.53.54,7.06,1.09,10.62,1.4,1.84.1,3.71.12,5.51-.36,1.69-.43,3.41-.81,5.02-1.49.46-.21,1.07-.62.87-1.21-.27-.98-.29-1.98-.47-2.98-.41-1.27-1.43-2.26-2.51-2.99-.82-.54-1.83-.87-2.81-.58-1.75.41-3.22,1.53-4.83,2.26-.87.36-1.89.37-2.72-.09-1.76-.91-3.22-2.28-4.97-3.2-1.14-.61-2.37-1.22-3.7-1.21h0v.02Z"/><path id="as" d="m437.46,218.92c-.24.5.34.86.64,1.17,1.66,1.37,3.68,2.31,5.8,2.71,1.23.18,2.56.14,3.71-.38.96-.51,1.67-1.37,2.38-2.17.19-.32-.32-.33-.52-.35-3.06-.35-6.13-.74-9.2-.97-.91-.04-1.84-.09-2.75-.03l-.05.02h-.01Z"/><path id="at" d="m434.26,95.18c-5.25.3-10.3,2.18-14.97,4.53-1.48.87-3.32,1.74-4.01,3.4-.67,1.63-2.25,2.72-3.37,4.05-1.71,1.93-3.85,3.74-4.66,6.27-.1.62.07,1.6-.72,1.78-1.53,1.15-2.07,3.03-2.79,4.71-1.28,2.1-2.6,4.21-3.28,6.6-2.65,7.54-3.36,15.56-5.59,23.2-2.18,8.8-1.86,17.94-2.08,26.94-.12,4.94.37,9.89,1.54,14.7.98,4.71,2.39,9.42,5.09,13.46,3.28,5.72,4.93,12.33,5.11,18.87.07,8.76-2.9,17.15-5.04,25.55-.1,1.27-1.92,1.89-1.59,3.22.52.67,1.63.23,2.36.43,4.04.21,8.13-.03,12.07.96.96.32,1.71-.42,2.11-1.21,1.84-2.19,3.45-4.57,4.65-7.18,1.6-2.93,2.17-6.45,1.6-9.73-.63-1.52-1.93-2.64-2.6-4.17-1-2.12-2.48-3.99-3.67-5.97-1.34-3.37-1.9-7.01-2.78-10.51-1.63-6.74-1.85-13.73-1.41-20.62.24-3.64,1.9-7.17,1.35-10.85-.78-3.04-2.42-5.77-3.27-8.79-.91-2.15-.85-4.54-.26-6.76.64-3.5,2.74-6.47,3.74-9.84.37-2.2,1.84-4.09,3.28-5.76.72-.64,1.54-1.68,2.58-1.56,2.04,1.1,3.23,3.28,5.24,4.38,1.53-.38,2.57-1.84,3.87-2.65.86-.76,2.07-1.16,3.14-.58,2.04.57,4.13.04,5.97-.9.57-.32,1.35-.41,1.66.31.69.75,1.36,2.1,2.54,2.02,1.16-.43,2.3-1.77,3.61-.96,1.46.44,2.8,1.45,4.31,1.61,2.6-1.07,4.48-3.5,7.22-4.27,1.45-.35,2.09,1.57,3.53,1.34,1.54.18,3.22-.26,4.67.31,1.9.76,3.68,2.39,5.84,2.21,1.36-.12,2.64-1.33,4.02-.92.99,1.31,2.55,2.01,4.13,2.33,1.39.3,3,.74,3.58,2.19,2.25,4.51,3.87,9.45,4.05,14.53.49,9.77-.25,19.62-2.08,29.22-.96,4.5-2.07,9-3.84,13.26-.15,2.35-1.45,4.38-2.3,6.52-1.15,3.71-3.19,7.09-5.03,10.49-1.71,3.39-4.66,5.9-6.49,9.19-1.1,1.82-.29,3.98.79,5.6,1.5,2.35,3.27,4.69,5.72,6.08,1.29.78,2.19,2.35,3.74,2.62,1.26-.33,1.7-1.86,2.04-2.98.99-5.19.97-10.52,1.42-15.77,4.21-6.18,8.37-12.48,11.15-19.46,1.45-3.22,2.84-6.49,3.41-10,1.61-8.51,2.41-17.17,2.64-25.82-.01-4.07.23-8.17-.29-12.21-1.6-7.45-3.61-14.8-5.16-22.25-1.2-4.74-2.38-9.53-4.63-13.9-2.4-5.24-5.27-10.27-8.22-15.2-1.21-2.16-2.02-4.67-4.12-6.18-3.65-3.63-7.73-6.82-12.16-9.45-2.94-1.9-6.22-3.33-9.74-3.68-5.87-.89-11.64-2.8-17.63-2.73v-.02Z"/><path id="au" d="m448.38,149.88c-.29-.39-.84-2.94-1.22-5.68-.38-2.74-1.02-5.91-1.43-7.05-.77-2.15-1.87-5.89-3.43-11.65-.5-1.86-1.41-4.47-2.01-5.79-1.36-3-1.37-3.51-.05-3.51,1.1,0,2.7,3.37,3.49,7.33.22,1.09,1.28,5.4,2.35,9.58,2.19,8.51,3.83,15.7,3.82,16.77,0,.39-.23.7-.5.7s-.73-.32-1.03-.7h0Zm7.38.05c-.22-.36-.47-2.12-.56-3.91-.09-1.79-.57-4.48-1.08-5.97-.51-1.49-1.68-5.73-2.61-9.42s-2.3-7.93-3.06-9.42c-1.64-3.24-1.65-3.32-.39-3.3,1.31.01,3.22,4.17,4.39,9.57.51,2.33,1.28,5.5,1.72,7.05,1.45,5.13,2.91,11.24,3.27,13.67.28,1.88.18,2.4-.46,2.4-.45,0-1-.29-1.22-.65v-.02Zm19.61-.59c-.37-.37-.68-1.02-.68-1.44s-.55-1.83-1.22-3.13c-1.99-3.86-2.12-4.19-2.5-6.58-.2-1.26-.59-2.43-.86-2.59-.27-.17-.49-.68-.49-1.15,0-1.79-4.04-9.49-6.22-11.86-1.25-1.36-2.13-2.73-1.94-3.03.38-.62.82-.42,3.47,1.57,2.04,1.53,4.6,6.49,6.34,12.26,2.54,8.45,3.01,9.68,4.88,12.77,1.06,1.75,1.93,3.34,1.93,3.52,0,.61-2.01.35-2.71-.34h0Zm-37.76-.56c-.95-.95-.84-3.56.18-4.4.56-.47.67-.93.31-1.36-.3-.36-.52-1.53-.5-2.6s-.34-4.49-.8-7.59c-1.03-6.94-1.27-15.26-.45-15.77,1.05-.65,1.55,2.06,1.92,10.41.2,4.5.53,11.28.73,15.08.36,6.79.15,7.76-1.38,6.23h-.01Zm-20.01-.33c-.11-.22,0-3.68.26-7.69.5-7.8,1.78-13.4,4.3-18.77,1.34-2.85,1.54-3.07,1.7-1.75.1.84-.51,2.8-1.36,4.44-1.39,2.65-1.58,3.75-1.96,11.23-.49,9.65-.89,12.23-1.96,12.64-.42.16-.86.12-.98-.1h0Zm49.36-.26c-1.08-1.38-6.35-13.49-6.35-14.58,0-.28-1-2.6-2.22-5.15-2.48-5.19-3.98-8.76-3.98-9.5,0-1.21,1.03-.3,2.16,1.9.68,1.32,1.6,3.03,2.05,3.8,1.34,2.3,3.53,7.51,4.45,10.6.47,1.59,1.89,5.03,3.15,7.64,1.26,2.62,2.29,5.03,2.29,5.37,0,.83-.86.78-1.54-.09h0Zm-43.67-1.17c-.55-2.89.67-15.35,1.89-19.27.68-2.17,1.41-4.2,1.63-4.51.22-.31.56-1.26.77-2.11.2-.85.75-1.55,1.21-1.55,1.3,0,1.02,2.84-.64,6.47-1.57,3.42-2.85,10.68-3.14,17.72-.17,4.12-1.17,6.03-1.7,3.25h-.02Zm7.26.88c-.46-.76-.33-9.89.21-14.8.49-4.48.68-5.91,1.6-12.35.2-1.37.67-2.6,1.06-2.72.88-.29.92,3.03.11,8.6-.32,2.17-.68,4.71-.81,5.64s-.41,4.92-.63,8.88c-.35,6.43-.73,8.09-1.54,6.76h0Z"/><g id="av"><path d="m443.98,463.72c.5.28,1.02.57,1.59.65.19.04.49,0,.51-.24-.02-.33-.25-.6-.4-.89-.55-.87-1.17-1.71-1.89-2.44-.11-.1-.22-.22-.37-.26-.19-.04-.24.2-.27.34-.15.62-.15,1.28.03,1.89.14.4.42.75.8.95Z"/><path d="m446.86,465.78c-.82-.28-1.64-.54-2.44-.85-.3-.1-.6-.2-.91-.27h0c-.14-.03-.36-.08-.43.1-.17.41-.15.86-.19,1.29-.02.67-.03,1.34.05,2,.02.24.29.3.48.28.55-.06,1.02-.4,1.49-.67.71-.46,1.33-1.06,1.95-1.64.08-.05.13-.2,0-.24Z"/><path d="m441.25,463.93h0c-.28-.04-.51.16-.75.28-.44.26-.89.62-.95,1.16.04.32.27.58.43.85.42.6.85,1.2,1.41,1.68.08.08.28.18.33.02.13-.57.2-1.16.21-1.74-.02-.73-.08-1.5-.48-2.12-.05-.06-.12-.12-.2-.13Z"/><path d="m441.9,461.41c-.03-.27-.11-.58-.34-.73-.01,0-.03-.01-.04-.01h0c-.28,0-.51.2-.74.34-.8.57-1.56,1.21-2.22,1.94-.13.15-.3.35-.17.55.15.28.54.26.79.14.71-.31,1.38-.73,2-1.2.32-.27.68-.59.72-1.03Z"/><path id="ax" d="m443.42,460.54c-.19-.04-.24.2-.27.34-.15.62-.15,1.28.03,1.89.14.4.42.75.8.95.5.28,1.02.57,1.59.65.19.04.49,0,.51-.24-.02-.33-.25-.6-.4-.89-.55-.87-1.17-1.71-1.89-2.44-.11-.1-.22-.22-.37-.26h0Z" style="fill:url(#as);"/><path id="az" d="m441.52,460.68c-.28-.02-.51.19-.74.33-.8.57-1.56,1.21-2.22,1.94-.13.15-.3.35-.17.55.15.28.54.26.79.14.71-.31,1.38-.73,2-1.2.32-.27.68-.59.72-1.03-.03-.27-.11-.58-.34-.73-.01,0-.03,0-.04-.01h0Z" style="fill:url(#au);"/><path id="ba" d="m441.16,469.89c-.22-.41-1.21-1.86-2.2-3.22-.99-1.36-1.79-2.83-1.79-3.27,0-.59.64-1.28,2.47-2.66,3.85-2.9,3.61-2.9,5.37-.16.83,1.3,1.97,2.94,2.53,3.64.64.8.94,1.57.82,2.04-.2.76-5.81,4.62-6.47,4.45-.19-.05-.52-.42-.74-.83h.01Zm.67-3.24c.06-.68-.03-1.59-.2-2.03-.31-.78-.33-.79-1.19-.28-.48.28-.84.76-.81,1.06.06.48,1.76,2.64,2,2.53.05-.02.14-.6.2-1.28h0Zm4.07.15l1-.91-.88-.29c-.48-.16-1.25-.43-1.71-.61s-.95-.3-1.09-.27c-.22.04-.33,1.68-.22,3.28.05.65,1.53.03,2.89-1.2h0Zm-5.45-3.93c.9-.55,1.42-1.11,1.38-1.48-.04-.32-.19-.61-.34-.64-.42-.07-3.24,2.35-3.07,2.63.27.45.57.38,2.03-.52h0Zm5.55,1.26c.11-.44-2.34-3.7-2.65-3.51-.14.08-.24.69-.22,1.34.02.8.29,1.34.82,1.64,1.15.66,1.96.87,2.05.53h0Z"/></g><rect id="bb" x="445.88" y="461.47" width="6.3" height="9.65" rx=".3" ry=".3" style="fill:#deaa87;"/><path id="bc" d="m446.28,930.48c-1.94-.61-2.29-.98-2.67-2.83-.57-2.72.79-5.53,4.11-8.53,2.35-2.12,9.74-5.94,11.49-5.94.5,0,1.04-.44,1.22-.99.36-1.12.7-1.94,2.72-6.5.79-1.79,1.44-3.4,1.44-3.58s.35-1.12.78-2.1c4.72-10.79,6.97-27.2,6.03-44.05-.69-12.37-2.14-19.6-5.46-27.14-.43-.98-.79-1.99-.8-2.25-.01-.26-.51-1.49-1.11-2.73-.6-1.24-1.1-2.48-1.11-2.77-.01-.28-1.05-2.82-2.32-5.64-1.26-2.82-3.2-7.15-4.3-9.63-2.23-5.01-8.81-18.87-10.1-21.27-.46-.85-1.3-2.9-1.87-4.56s-2.18-4.89-3.57-7.19c-4.78-7.9-8.72-16.29-10.88-23.16-.45-1.45-1.52-3.24-2.37-3.97-3.21-2.79-5.56-6.66-7.71-12.7-1.96-5.5-2.66-8.46-2.66-11.21,0-1.97-1.12-4.65-5.83-14-3.21-6.36-6.1-12.39-6.43-13.39-.33-1.01-1.23-2.55-1.99-3.44-.76-.89-1.69-2.53-2.06-3.66-.37-1.13-1.91-4.03-3.42-6.44s-3.63-6.85-4.7-9.86-1.96-5.53-1.96-5.59-.88.26-1.95.7c-1.08.45-2.57.82-3.32.82s-1.51.38-1.69.85c-.48,1.26-3.85,1.07-5.33-.3-2.68-2.5-1.07-5.75,5.11-10.31,1.16-.86,2.11-1.86,2.1-2.24-.03-1.02-1.95-4.75-7.94-15.4-.89-1.59-1.62-3.27-1.62-3.73s-.76-1.8-1.69-2.97c-1.52-1.91-6.2-10.93-6.2-11.94,0-.22-.64-1.32-1.41-2.44-.78-1.12-1.77-3.29-2.21-4.82-1.09-3.84-3.91-11.29-5.4-14.29-1.55-3.1-5.63-15.45-5.63-17.02,0-1.19-1.56-7.18-3.44-13.18-.59-1.87-1.21-6.03-1.39-9.3-.18-3.26-.52-7.09-.76-8.53-.5-3.05.16-17.71,1.08-24.02,1.28-8.72,5.69-23.5,9.47-31.7.93-2.02,2.11-4.92,2.62-6.45,1.37-4.1,8.36-18.04,12.49-24.92,3.63-6.05,8.11-14.97,8.11-16.17,0-.8-4.5-4.71-7.85-6.83-1.37-.86-4.09-2.87-6.03-4.46-4.93-4.03-6.44-5.13-8.38-6.14-2.19-1.13-14.02-13.15-17.61-17.89-5.47-7.21-8.87-12.82-15.49-25.48-1.83-3.51-2.4-9.39-1.6-16.49.71-6.22,3.47-18.21,4.35-18.85.66-.49,3.04-7.91,3.17-9.92.06-.93.56-2.02,1.1-2.43s.98-1.17.98-1.69,1.29-3.62,2.86-6.87c3.99-8.24,4.1-8.46,5.46-10.99,1.17-2.18,3.88-8.05,5.6-12.12,1.99-4.71,4.47-9.97,5.31-11.27.5-.78,2.4-3.95,4.2-7.05,1.81-3.1,4.55-6.98,6.09-8.61,2.71-2.88,8.79-7.45,9.9-7.45.3,0,3.67-1.49,7.47-3.32,3.81-1.82,7.94-3.63,9.18-4.02,2.64-.82,6.4-2.63,7.61-3.65.47-.39,2.24-1.42,3.95-2.28,1.71-.86,3.66-2.06,4.34-2.67s1.63-.95,2.11-.77c1,.38,2.57-.09,2.57-.77,0-.87-7.5-1.3-10.78-.62-1.75.36-3.58.5-4.09.3-1.2-.46-1.15-2.36.11-4.46,1.25-2.07,2.44-5.73,4.02-12.4.66-2.79,1.48-6.09,1.81-7.32.33-1.24.58-4.58.55-7.44-.08-7.42-1.83-13.28-6.12-20.45-1.44-2.41-4.03-10.94-5.3-17.47-.36-1.87-.51-8.37-.36-16.63.2-11.43.43-14.35,1.46-18.63,1.89-7.85,2.85-12.2,3.22-14.66.92-6.1,3.43-13.72,4.87-14.8.52-.39,1.25-1.66,1.62-2.82.37-1.16.99-2.49,1.38-2.96s1.15-1.8,1.69-2.98c.98-2.11,1.89-3.15,6.42-7.32,1.27-1.17,2.31-2.48,2.31-2.91,0-.73.57-1.26,5.1-4.75,1.89-1.46,10.79-4.53,13.33-4.6,3.7-.1,13.19,1.12,17.33,2.21,2.46.65,5.05,1.19,5.75,1.19,1.34,0,8.8,3.72,11.66,5.81,3.39,2.49,10.58,10.12,11.41,12.12.47,1.13,1.32,2.57,1.89,3.2,1.17,1.29,6.81,11.94,6.81,12.85,0,.33.34,1,.75,1.49.95,1.13,2.71,5.84,3.28,8.78.56,2.87,1.87,8.2,2.3,9.3.46,1.19,1.41,5.32,2.15,9.3.35,1.86,1.01,4.52,1.47,5.92,1,3.01,1.17,23.11.24,28.18-.31,1.71-1.11,6.78-1.78,11.27-1.1,7.46-1.46,8.69-4.07,14.09-1.57,3.26-3.54,6.93-4.38,8.17-5.87,8.69-6.62,10.73-7.21,19.76-.28,4.32-.69,8.37-.9,9-.32.96.02,1.31,2.05,2.15,1.34.55,3.32,1.43,4.4,1.95,1.54.74,3.7.95,9.86.98,4.34.02,8.4.26,9.02.53s2.3,1.46,3.74,2.65,2.88,2.16,3.21,2.16,2.45,1.59,4.71,3.52c5.32,4.55,6.48,5.32,12.57,8.28l5.07,2.47,8.85.52c7.55.44,9.33.39,12.12-.39,3.13-.87,3.98-1.18,9.75-3.51,3.88-1.57,9.69-4.69,11.41-6.14.85-.72,2.12-1.48,2.82-1.7,1.55-.49,4.45-2.57,7.47-5.34,1.24-1.14,4.15-3.39,6.46-4.99s8.04-6.52,12.73-10.92c4.69-4.41,10.79-10.08,13.55-12.61,12.16-11.13,22.78-22.58,22.78-24.56,0-.19.86-1.83,1.92-3.63,1.76-3.02,2.05-4.12,2.87-10.89.77-6.39,1.2-8.09,2.93-11.55,1.08-2.17,2.21-4.24,2.51-4.6.71-.86,1.55-3.73,2.19-7.45.53-3.08,1.66-4.53,3.55-4.57,3.03-.05,3.31,3.38,1.19,14.36-2.22,11.45-2.23,11.55-1.14,11.55,1.57,0,6.4-4.99,10.9-11.26,5.18-7.21,17.01-21.61,19.77-24.06,2.14-1.9,4.41-2.17,5.37-.65.56.89-2.18,7.79-3.09,7.79-.27,0-.49.3-.49.67,0,1.18-8.6,13.95-9.73,14.46-.24.11-2.19,2.64-4.33,5.64-2.15,2.99-4.8,6.38-5.91,7.52-1.1,1.14-2,2.54-1.99,3.1.01.79.43.56,1.83-1,3.44-3.83,14.73-17.84,16.76-20.81.74-1.09,1.49-2.1,1.67-2.25.17-.15,1.33-1.64,2.56-3.29,2.73-3.65,6.63-6.2,7.89-5.15.98.81,1.11,3.44.21,4.34-.35.35-.92,1.13-1.27,1.74-1.21,2.09-5.46,7.99-6.48,8.99-.56.55-1.87,2.26-2.91,3.81s-4.06,5.51-6.71,8.81c-6.39,7.94-8.74,11.26-7.69,10.86.47-.18,1.8-1.76,2.96-3.52s2.82-3.91,3.68-4.78c.87-.88,1.59-1.76,1.59-1.97s1.04-1.52,2.3-2.92c1.25-1.4,3.18-3.87,4.27-5.5,2.06-3.08,6.71-7.45,7.92-7.46.38,0,.85.61,1.03,1.35.39,1.56-.93,4.15-6.05,11.89-2.77,4.18-3.02,4.75-1.46,3.24,2.05-1.98,2.68-2.18,3.67-1.19.78.78-2.11,6.84-4.94,10.35-1,1.24-2.42,3.2-3.16,4.35-1.44,2.26-10.33,11.71-11.01,11.71-.23,0-2.02,1.21-3.98,2.69-1.96,1.48-5.81,3.78-8.57,5.11-4.12,1.98-5.88,3.28-9.92,7.31-2.7,2.69-5.39,5.66-5.97,6.59-.58.93-2.32,2.83-3.86,4.23-4.85,4.39-9.93,9.74-12.61,13.25-1.42,1.86-3.14,3.92-3.82,4.57s-1.89,2.21-2.68,3.47c-.79,1.25-2.48,3-3.76,3.89-1.28.88-3.63,2.98-5.24,4.65-5.55,5.79-23.41,23.45-26.41,26.12-7.27,6.48-9.69,7.51-22.6,9.69-4.96.84-16.79,1.7-20.29,1.49-1.17-.07-2.88.04-3.8.24-1.43.31-1.6.53-1.12,1.42.79,1.47.71,1.68-.58,1.68-.67,0-1.41-.59-1.8-1.44l-.66-1.44-8.49.29c-12.88.43-18.36.96-18.36,1.76,0,.38-.4,1.02-.88,1.43-1.47,1.22-2.35,3.46-2.76,7.04l-.39,3.41,2.35,2.42c10.84,11.17,12.28,13.58,12.77,21.41.64,10.13-1.55,20.45-5.23,24.69-.59.67-1.93,2.33-2.99,3.67-1.78,2.26-7.74,6.66-9.03,6.66-.31,0-.43.33-.28.73.15.4-.08,1.61-.52,2.68-1.24,3-1.95,8.56-3.18,24.77-1.25,16.47-1.06,20.9,1.14,26.77.7,1.86,1.46,3.64,1.7,3.95.9,1.17,5.13,9.72,6.54,13.25.81,2.01,2.6,6,3.99,8.86s2.72,6.03,2.97,7.05,1.11,4.01,1.92,6.64c.89,2.9,1.71,7.47,2.07,11.55.33,3.74.98,7.45,1.43,8.3.63,1.17.68,1.82.22,2.69-.34.63-.56,2.28-.48,3.67.16,3.12,1.56,4.53,6.68,6.73,2.02.86,4.81,2.26,6.2,3.11,5.3,3.21,11.09,6.53,13.53,7.77,2.47,1.25,3.68,1.97,9.24,5.51,3.04,1.93,9.32,7.09,15.71,12.92,4.39,4,9.05,9.67,11.86,14.42.82,1.4,2.93,4.06,4.68,5.92s3.66,4.44,4.25,5.74c.58,1.3,2.07,3.63,3.3,5.2,1.24,1.56,2.25,3.04,2.25,3.29s.53,1.43,1.17,2.64c1.69,3.15,3.7,9.18,5.66,16.96,1.32,5.22,1.72,8.11,1.77,12.68.06,5.65-.03,6.11-1.92,10.15-2.95,6.3-6.35,8.57-14.74,9.83-5.95.89-11.44,2.23-14.1,3.43-.99.45-4.47,1.47-7.72,2.27-3.26.8-7.48,1.93-9.38,2.51-5.18,1.58-18.82,3.8-25.84,4.21-3.41.2-7.72.49-9.58.65-18.13,1.55-36.98.7-52.14-2.35-8.18-1.65-16.72-2.45-16.15-1.53.2.33.49,6.9.64,14.6.29,15.33,1.05,31.77,2.01,43.59.34,4.19.73,10.78.86,14.65.31,8.94.45,9.95,1.57,11.19.51.56.92,1.45.92,1.98,0,2.57,3.87,9.13,10.28,17.4,2.1,2.71,3.81,5.06,3.81,5.23s1.27,2.22,2.82,4.57c3.17,4.78,4.3,7.33,6.43,14.4,1.78,5.92,2.05,9.2,2.27,26.96.21,17.29,1.22,25.41,3.73,30.01.29.54.53,1.3.54,1.69,0,.39.89,2.47,1.97,4.63,1.08,2.15,1.97,4.41,1.97,5.02s1.11,3.03,2.46,5.39c4.56,7.93,5.87,11.04,7.1,16.89,2.62,12.46,1.24,18.51-5.11,22.37-1.82,1.1-3.5,2.31-3.74,2.68s-.6,2.57-.8,4.9c-.55,6.5-2.23,16.62-4.34,26.25-.97,4.42-2.51,7.38-4.87,9.38-2.49,2.1-10.1,4.17-18.18,4.93-3.68.35-7.62,1.16-10.87,2.25-6.33,2.12-8.67,2.44-11.52,1.55h0l.03-.08Zm9.61-3.5c4.17-1.51,7.28-2.18,13.11-2.83,4.21-.47,7.9-1.1,8.21-1.4s1.25-.56,2.1-.56,1.7-.25,1.89-.56.83-.56,1.42-.56c1.5,0,4.96-3.17,5.89-5.4,1.55-3.71,4.06-17.94,4.8-27.19.63-7.97,2.09-17.04,2.86-17.82.29-.29.53-1.12.53-1.83,0-.82.34-1.3.92-1.3.77,0,.87.48.6,2.96-.17,1.63-.56,3.91-.86,5.07-.3,1.16-.36,2.11-.13,2.11,1.17,0,5.21-3.64,6.21-5.61,3.03-5.94,0-20.98-5.98-29.74-1.1-1.61-2.48-4.48-3.07-6.37s-1.68-4.5-2.43-5.8c-1.9-3.29-4.97-13.41-5.51-18.15-.25-2.17-.69-12.19-.97-22.26l-.52-18.32-1.99-6.66c-1.41-4.73-2.71-7.75-4.47-10.43-1.36-2.07-2.8-4.38-3.19-5.12-.63-1.19-7.44-10.48-9.03-12.31-1.12-1.29-4.59-7.49-5.21-9.32-.34-1-.85-1.97-1.12-2.15-.96-.64-1.99-6.02-2.04-10.71-.03-2.61-.31-7.53-.62-10.94-1.18-12.98-2.27-34.6-2.65-52.42-.27-12.89-.31-13.25-1.19-13.25-.38,0-2.03.51-3.66,1.13s-3.52,1.13-4.2,1.13-1.38.23-1.55.51c-.17.28-1.65.68-3.27.89-2.26.29-3.91,1.03-7,3.15-2.22,1.53-4.21,2.78-4.41,2.78s-2.51,1.27-5.13,2.82-5.06,2.82-5.41,2.82-1.47.63-2.48,1.41c-1.02.78-2.02,1.41-2.22,1.41s-1.17.36-2.15.81c-.98.44-3.81,1.61-6.29,2.59-2.48.98-5.27,2.12-6.2,2.53s-2.78,1.03-4.12,1.38c-1.87.5-2.36.86-2.15,1.6.15.53.81,2.86,1.47,5.18.66,2.33,1.48,4.73,1.83,5.35,7.01,12.34,9.02,16.13,14.3,27.06,1.35,2.79,2.96,5.96,3.59,7.05,3.91,6.79,5.82,11.62,5.9,14.94.05,2.21.62,4.75,1.64,7.33,2.59,6.55,3.09,7.44,5.69,10.04,1.78,1.78,2.86,3.54,3.73,6.09.67,1.97,1.44,3.87,1.71,4.2.26.34.88,1.73,1.36,3.1.98,2.79,4.05,8.97,7.38,14.89,1.22,2.17,2.94,5.59,3.82,7.61,1.48,3.4,2.46,5.51,8.27,17.75,1.17,2.48,3.33,7.3,4.79,10.71s3.47,7.85,4.47,9.86c1,2.02,2.27,5.06,2.82,6.76s1.18,3.35,1.4,3.66c.56.79,2.32,5.3,2.87,7.33.25.93.85,3.09,1.33,4.79.97,3.44,1.9,12.02,2.35,21.79.34,7.34-.44,17.11-2.01,25.27-1.12,5.85-4.18,15.95-5.12,16.88-.29.29-.53.88-.53,1.3s-.66,2.16-1.47,3.87-1.32,3.25-1.14,3.43,1.86-.23,3.72-.91c3.41-1.24,4.52-1.19,4.52.2,0,.74-2.37,1.9-6.2,3.01-3.89,1.14-10.36,3.59-12.91,4.89-3.35,1.71-7.38,6.1-7.38,8.03,0,.68,2.91,2.27,4.34,2.37.37.03,3.13-.84,6.14-1.93h0Zm-73.81-261.67c.19-.74.86-.99,2.62-1.01,1.3-.01,3.58-.6,5.07-1.29,1.49-.7,4.66-1.86,7.05-2.58,5.3-1.61,16.22-6.16,18.16-7.58.78-.57,1.98-1.22,2.67-1.43,1.66-.53,10.94-5.8,15.28-8.69,1.91-1.27,4.43-2.56,5.58-2.87,1.16-.31,3.62-.94,5.49-1.41,1.86-.47,4.88-1.38,6.71-2.03,5.23-1.86,10.79-1.36,31.61,2.81,6.3,1.26,21.75,1.81,33.26,1.18,23.25-1.28,31.12-2.27,43.4-5.45,5.27-1.37,11.15-2.84,13.06-3.28s4.19-1.16,5.07-1.6,3.31-1.26,5.4-1.81c2.09-.56,4.09-1.35,4.44-1.77.38-.46,1.79-.76,3.56-.76,6.56,0,10.33-2.27,13.41-8.05,1.1-2.07,1.27-3.21,1.26-8.86,0-5.49-.29-7.56-1.85-13.53-2.75-10.54-5.94-18.31-8.8-21.42-.71-.78-1.9-2.65-2.64-4.17-.74-1.52-2.68-4.18-4.32-5.92-1.63-1.74-3.88-4.68-4.99-6.54-4.27-7.15-11.54-14.94-19.86-21.25-9.41-7.14-10.63-7.94-11.38-7.48-.35.22-1.69.47-2.98.57-4.74.35-6.43.81-11.51,3.13-8.58,3.92-19.87,13.39-26.54,22.27-4.33,5.76-9.94,15.5-13.05,22.65-3.02,6.93-3.06,7.15-1.55,7.84,2.04.94,5.21,1.87,6.35,1.87.58,0,2.72.39,4.75.87,15,3.55,17.07,3.83,22.27,3.11,2.41-.33,4.55-.71,4.75-.84.48-.3,12.04-.37,15.02-.1,1.25.11,3.28.49,4.51.83,3.78,1.05,8.39.81,9.57-.5,2.27-2.51,3.47-.7,1.25,1.89-1.16,1.35-1.66,1.5-5.21,1.5-2.16,0-6.21-.41-9-.91-8.52-1.52-17.07-.8-33.54,2.83-2.02.44-6.45,1.09-9.86,1.43-3.41.34-7.72,1.01-9.58,1.49s-4.02,1-4.79,1.16c-5.06,1.04-9.18,2.18-12.12,3.33-5.15,2.02-11.78,3.64-14.91,3.64s-8.15-1.96-9.89-3.93c-1.37-1.55-7.33-4.52-9.06-4.52-.69,0-1.76.44-2.39.99-1.75,1.51-6.16,8.44-7.22,11.36-1.58,4.35-3.56,8.06-6.18,11.61-1.38,1.86-2.73,3.89-3,4.51-.85,1.9-3.96,4.46-11.32,9.29-3.88,2.54-7.69,5.24-8.49,5.98-.79.75-1.61,1.36-1.82,1.36-.38,0-5.03,3.47-13.94,10.41-2.64,2.05-6.24,4.8-8,6.1-3.81,2.82-4.91,4.46-3.85,5.74.95,1.14,1.75,1.09,2.07-.12h0v-.05Zm12.55-16.91c3.2-2.4,6.36-4.73,7.02-5.17s3.27-2.28,5.8-4.09,4.79-3.28,5.02-3.28,1.71-.97,3.29-2.16c1.58-1.19,3.38-2.44,4-2.79,2.25-1.24,4.53-3.99,10.43-12.56,1.09-1.58,2.26-3.18,2.61-3.56s.82-1.57,1.04-2.64c.61-2.89,3.57-8.87,5.87-11.86,2.44-3.17,4.41-4.45,6.83-4.45,1.69,0,1.79-.1,1.42-1.55-.35-1.37-.56-2.78-.79-5.43-.09-.97-4.31-2.6-11.63-4.48-8.95-2.3-26.18-2.77-44.81-1.22-7.02.58-18.98,3.41-20.54,4.86-.29.27-.93.49-1.41.49-1.36,0-7.53,3.1-8.63,4.34-1,1.13-.83,2.6.74,6.09,1.88,4.18,5.6,13.53,5.6,14.07,0,.83,7.97,16.63,9.46,18.74.6.86,1.71,2.83,2.47,4.38,2.71,5.59,5.08,9.8,5.87,10.46.44.37.81,1.02.81,1.45s.23.78.52.78.81.89,1.17,1.97c.36,1.09.96,1.97,1.33,1.97s3.3-1.97,6.51-4.37h0Zm78.96-45.52c1.71-.53,4.35-1.47,5.87-2.08,6.31-2.55,17.92-5.05,27.95-6.03,2.95-.29,6.75-.84,8.45-1.22l3.1-.7-3.1-.72c-1.71-.39-5.64-1.26-8.74-1.92-3.1-.66-7.41-1.72-9.58-2.35-3.78-1.1-16.24-5.58-18.6-6.69-.62-.29-3.28-1.2-5.92-2.01s-5.17-1.79-5.64-2.17-1.86-.98-3.1-1.34c-1.24-.36-5.8-2.56-10.14-4.89-4.34-2.33-8.04-4.23-8.22-4.23-.44,0,.35,5.53,1.04,7.33.3.78.71,2.68.92,4.23.21,1.55.74,4.72,1.19,7.05s.96,5.89,1.14,7.92c.32,3.57.4,3.73,2.41,4.76,1.14.59,3,1.92,4.12,2.97s3.02,2.27,4.23,2.72c2.7,1,8.28.73,12.62-.62h0Zm-112.3-13.42c3.65-2.27,14.24-6.07,20.05-7.19,5.2-1,16.31-2.11,21.7-2.15,2.89-.03,5.43-.15,5.64-.27s5.45.1,11.65.49c10.96.69,21.21,2.47,24.54,4.25.66.36,1.32.53,1.46.39.14-.14-.39-3.43-1.18-7.3-.79-3.88-1.43-7.19-1.43-7.36,0-1.32-13.49-3.88-26.99-5.12-8.18-.75-26.04-.32-32.37.79-2.92.51-8.75,2.09-9.28,2.52-.43.35,2.14,4.96,3.44,6.17,2.84,2.64,1.51,7.1-2.11,7.07-2.13-.02-3.48-.98-4.26-3.02-.82-2.16-.76-2.47.78-4.01,1.22-1.22,1.3-1.56.75-3.36-.68-2.2-1.26-2.39-3.62-1.17-.88.45-4.02,1.91-6.97,3.24-2.96,1.33-5.98,2.85-6.73,3.39-1.29.93-1.32,1.11-.74,4.23.91,4.86,2.42,9.74,3.03,9.74.29,0,1.48-.59,2.64-1.31h0v-.02Zm132.27-8.7c1.77-5.53,9.88-21.24,13.35-25.88,4.68-6.25,14.32-15.92,19.04-19.1,1.36-.92,3.27-2.2,4.23-2.84,2.88-1.93,11.38-5.34,14.98-6.01l3.37-.63-4.22-2.41c-2.32-1.32-4.96-2.93-5.85-3.57s-1.98-1.16-2.42-1.16-1.61-.6-2.61-1.34l-1.82-1.34-4.35,1.38c-2.39.76-4.58,1.6-4.85,1.87-.52.51,3.17,4.51,4.16,4.51,1.51,0,4.59,2.05,4.89,3.26.88,3.52-4.78,6.22-7.2,3.43-.61-.7-1-1.54-.88-1.87,1.05-2.8.98-3.09-1.26-5.4l-2.26-2.33-1.75,1.03c-.96.57-2.25,1.5-2.86,2.06-.61.57-2.69,2.34-4.61,3.94-6.99,5.81-11.39,10.63-16.63,18.21-.89,1.29-2.75,4.39-5.54,9.23-1.16,2.02-2.67,4.42-3.34,5.35-2.46,3.4-7.98,16.46-7.25,17.16.28.27,3.13,1.4,6.34,2.51,3.2,1.11,6.24,2.26,6.76,2.57,1.45.84,1.49.8,2.6-2.66h0l-.02.03Zm-115.8-2.09c.97-1.81-.09-3.25-2.2-3.01-1.76.2-2.25,2.12-.88,3.48,1.28,1.28,2.21,1.14,3.08-.47h0Zm98.51-3.96c1.65-4.35,5.26-12.21,6.55-14.27.72-1.14,2.15-3.6,3.18-5.46,8.11-14.64,15.5-23.18,28.79-33.2,1.19-.9,2.06-1.81,1.93-2.02s-2.37-1.69-4.97-3.29l-4.74-2.9-.65-3.25c-.36-1.78-.85-4.51-1.09-6.06l-.44-2.82-2.23.16c-2.61.19-3.8.61-14.63,5.17-4.64,1.96-9.04,4.35-12.4,6.75-2.17,1.55-4.98,3.46-6.25,4.24-1.27.79-4.71,3.77-7.64,6.64-5.81,5.67-7.73,8.57-11.93,18-1.8,4.04-4.21,12.78-4.57,16.54l-.37,3.96,2.56,1.62c1.41.89,2.56,1.79,2.56,2.01s1.08.71,2.4,1.1c1.32.39,3.79,1.57,5.5,2.61,3.88,2.38,15.14,7.05,16.55,6.86.65-.09,1.38-1.01,1.91-2.4h-.02Zm-116.36-2.54c3.25-1.55,6.11-2.82,6.34-2.82s1.8-.7,3.48-1.55c2.45-1.24,3-1.77,2.79-2.68-3.05-12.8-3.42-19.38-2.39-41.71.41-8.86,3.81-22.29,7.18-28.38,1.71-3.08,1.77-4.59.18-4.59-.9,0-3.34-1.53-5.91-3.7-.78-.65-2.27-1.53-3.32-1.94-2.25-.89-2.8-.39-4.37,3.91-.95,2.61-3.43,8.58-5.29,12.73-.56,1.24-1.56,4.03-2.23,6.2s-1.55,4.96-1.97,6.2c-2.54,7.61-4.6,23.35-4.4,33.54.12,6.07,1.49,18.11,2.54,22.4.7,2.86,1.32,5.21,1.37,5.21s2.75-1.26,6-2.81h0Zm82.68-7.05c0-.78-.49-2.49-1.08-3.8s-1.38-3.4-1.75-4.64c-.71-2.38-4.6-10.34-7.29-14.9-.88-1.5-2.43-4.21-3.44-6.03s-2.57-4.33-3.46-5.57-2.31-3.31-3.15-4.61c-3.69-5.69-14.58-16.16-18.71-17.99-.78-.34-2.04-1.15-2.82-1.8-4.56-3.83-10.73-8.57-11.14-8.57-.26,0-2.07-1.03-4.01-2.3-3.43-2.23-5.14-2.52-5.14-.89,0,.44-.35,1.09-.78,1.44-1.29,1.07-4.24,9.16-5.72,15.65-1.95,8.59-2.73,19.33-2.36,32.31.27,9.34.53,11.82,1.77,16.49.8,3.03,1.45,5.61,1.45,5.74s1.08-.09,2.4-.5c7.7-2.38,18.97-3.41,31.69-2.89,5.28.22,11.37.65,13.54.96s6.48.92,9.58,1.35c3.1.43,6.4,1.03,7.33,1.32,2.66.84,3.1.73,3.1-.78h0Zm3.38-18.59c2.8-8.03,7.17-16.21,10.92-20.45,1.84-2.08,3.71-4,4.16-4.27s1.62-1.31,2.59-2.32c.98-1.01,3.93-3.26,6.56-5,2.64-1.74,5.81-3.86,7.05-4.71,2.55-1.75,4.4-2.65,12.4-6.04,6.67-2.83,10.03-4.05,12.57-4.56,1.33-.27,1.81-.64,1.68-1.31-.28-1.4-1.77-1.22-12.84,1.56-4.54,1.14-14.03,5.09-20.85,8.67-1.71.9-3.99,2.09-5.07,2.65-3.3,1.72-14.68,5.01-19.09,5.52-2.28.27-5.2.29-6.48.04-1.28-.24-4.3-.7-6.72-1.03-4.93-.66-6.63-1.4-11.19-4.85-1.75-1.32-3.77-2.71-4.51-3.09-.73-.38-1.84-1.14-2.46-1.7s-3.1-2.11-5.52-3.45c-4.61-2.56-7.08-3.96-10.82-6.11-8.79-5.06-14.98-7.43-14.92-5.71.01.39,5.36,3.87,8.16,5.32.93.48,2.98,1.97,4.57,3.31,3.3,2.8,6.08,4.83,10.09,7.36,4.77,3.01,17.12,15.34,18.91,18.89.43.86,1.45,2.44,2.27,3.53,1.33,1.76,3.38,5.24,7.98,13.57,2.39,4.33,2.94,5.28,3.56,6.16.59.84,1.89,3.78,3.11,7.05l.63,1.69.75-2.82c.41-1.55,1.54-5.1,2.52-7.89h0Zm82.83-16.87c.5-.6.51-1.11.05-1.97-.72-1.34-.84-1.37-2.31-.58-1.07.57-1.46,2.24-.71,2.99.65.65,2.28.41,2.98-.43h0Zm-6.85-12.64c1.15-.58,2.79-1.21,3.64-1.42,1.88-.45,2-1.26.28-1.8-.7-.22-2.56-1.22-4.15-2.23l-2.88-1.84.27-4.17c.25-3.96.2-4.2-1.07-4.77-.78-.35-3.27-.49-5.98-.33l-4.65.27.02,2.04c.02,2.14,1.27,7.98,1.94,9.06.62,1,8.94,6.14,10.04,6.2.24.01,1.39-.45,2.54-1.02h0Zm-71.75-3.96c7.29-1.94,13.28-3.95,14.82-4.99,1.64-1.11,4.44-2.49,13.32-6.59,5.06-2.33,11.03-4.18,20.25-6.25,1.81-.41,3.4-.85,3.53-.97.13-.13-.65-.71-1.74-1.3-2.09-1.12-2.82-2.98-2.45-6.22.16-1.37.47-1.67,1.92-1.81,1.49-.15,1.96.16,3.26,2.13,1.6,2.42,2.61,2.54,2.61.29,0-2.68,2.5-2.49,4.16.32.74,1.25.92,2.29.65,3.72l-.37,1.99,3-.38c5.3-.67,5.16-.55,4.77-4.29-.19-1.82-1.11-5.88-2.05-9.03s-1.7-6.07-1.7-6.48-.87-2.54-1.93-4.73c-1.06-2.18-2.21-4.81-2.55-5.84s-1.12-2.85-1.73-4.05c-.61-1.2-1.11-2.51-1.11-2.91,0-.83-1.46-.99-1.94-.22-.17.28.56,1.81,1.63,3.4s1.8,3.26,1.63,3.72c-.35.9-1.32,1.14-1.32.32,0-.28-.87-1.55-1.92-2.81-1.06-1.27-2.02-2.59-2.14-2.95-.16-.47-.52-.48-1.32-.05-.61.33-1.55.74-2.09.9-1.28.4-1.24,1,.17,2.62,1.22,1.41,1.29,3.39.12,3.78-.39.13-.96-.44-1.27-1.25-.31-.82-1.38-2.23-2.38-3.15-1.44-1.31-2.34-1.66-4.29-1.66-2.41,0-2.46.04-2.08,1.55.21.85.75,1.75,1.19,2,.84.47,1.12,2.09.36,2.09-1.07,0-3.13-2-3.86-3.74-.44-1.04-1.11-1.9-1.49-1.91-.38,0-1.3-.17-2.03-.36-1.16-.31-1.28-.2-.95.85.43,1.35-.07,3.46-.81,3.46-.45,0-1.9-3.55-1.95-4.78-.02-.52-4.3-1.52-4.74-1.11-.11.11.06.95.38,1.87.32.92.43,1.82.25,2-.89.89-1.81.07-2.71-2.44-.83-2.31-1.28-2.82-2.7-3.11-1.87-.37-2.6.28-2.61,2.35-.01,1.5-1.67,1.76-1.76.28-.03-.54-.09-1.62-.14-2.39-.06-1-.65-1.68-2.06-2.37-2.72-1.34-2.93-1.28-2.72.81.27,2.71-1.21,2.35-2.27-.56-.69-1.88-1.27-2.52-2.77-3.02-1.04-.34-2.03-.49-2.19-.33s-.43,1.33-.6,2.59c-.19,1.42-.6,2.3-1.08,2.3-.83,0-1-.82-.8-4.05.12-1.98.02-2.1-1.92-2.46-2.37-.44-2.4-.43-2.76,1.59-.36,2-.81,2.67-1.77,2.67-.61,0-.71-.62-.46-2.74.32-2.69.29-2.75-1.52-3.38-3.06-1.07-3.37-.89-3.37,1.89,0,1.88-.22,2.54-.85,2.54-.87,0-1.03-.69-.86-3.8.08-1.5-.17-1.93-1.39-2.4-2.35-.89-3.67-.71-3.67.52,0,1.68-.61,2.86-1.47,2.86-.55,0-.79-.73-.79-2.47,0-2.09-.2-2.52-1.27-2.81-1.99-.53-2.04-.49-2.22,2.04-.12,1.68-.43,2.4-1.02,2.4-.65,0-.83-.66-.78-2.82.07-2.84-.4-3.64-2.14-3.66-.66,0-1,.55-1.13,1.82-.26,2.67-1.82,2.45-2.04-.28-.18-2.14-.26-2.2-3.34-2.35-.66-.03-1.08.49-1.27,1.6-.37,2.09-1.7,2.64-1.7.7,0-2.59-.55-3.19-2.88-3.19-2.06,0-2.19.1-2.19,1.69,0,1.32-.25,1.69-1.13,1.69s-1.13-.38-1.13-1.76c0-1.67-.09-1.74-1.76-1.41-.97.19-2.11.35-2.55.35-.55,0-.68.41-.44,1.38.42,1.69-.08,2.63-1.19,2.2-.47-.18-.83-1.04-.83-1.99,0-1.32-.21-1.61-.99-1.4-.54.15-1.63.41-2.42.58-1.15.25-1.55.8-1.97,2.73-.35,1.58-.87,2.47-1.52,2.6-1.15.21-1.37-1.55-.32-2.6,1.01-1.01.07-1.53-1.66-.92-1.25.44-1.57.93-1.71,2.64-.19,2.33-1.46,2.89-1.99.88-.26-.99-.47-1.09-1.14-.54-.45.37-.99,1.37-1.2,2.21-.69,2.78-4.38,10.46-7.91,16.46-7.19,12.2-8.38,14.65-7.09,14.65.53,0,5.96,2.98,8.66,4.76l1.56,1.03-.51-1.34c-.28-.74-.69-2.65-.91-4.26-.35-2.57-.27-2.99.74-3.52.63-.33,1.57-.61,2.09-.61,1.17,0,2.98,1.99,3.42,3.78.26,1.05.58,1.24,1.53.93,2.03-.67,3.97-.25,4.99,1.07,1.24,1.62.83,2.98-1.71,5.63-1.26,1.31-1.82,2.31-1.49,2.63.29.28,2.18,1.2,4.2,2.03,2.02.83,4.04,1.85,4.51,2.25s2.62,1.67,4.79,2.81c2.17,1.14,4.33,2.41,4.79,2.81.47.4,2.11,1.37,3.66,2.15,3.74,1.88,11.16,6.7,14.56,9.46,2.12,1.72,4.08,2.51,8.26,3.3,1.71.33,3.61.69,4.23.81,2.99.59,9.39.24,12.96-.71h0l.03.04Zm-10.77-42.77c-.93-.62-1.3-3.33-.46-3.33.39,0,.55.38.37.84-.2.52-.09.7.3.46.34-.21.77-.14.96.17.53.85,3.04-.52,3.47-1.89.2-.65.62-1.35.93-1.55.31-.2.56-1.4.56-2.68,0-2.96,1.33-3.14,1.87-.25.45,2.39-.48,5.5-2.19,7.38-1.16,1.28-4.44,1.75-5.81.84h0Zm79.09,27.26c.07-.06-.03-.67-.21-1.37-.32-1.21-.51-1.25-4.63-.91-4.78.39-7.4,1.25-7.4,2.42,0,.64,1.1.7,6.06.37,3.33-.22,6.11-.46,6.18-.51h0Zm-9.94-6.06c.46-.86.47-1.55.02-2.52-.81-1.79-1.76-1.7-1.76.17,0,.83-.41,1.95-.9,2.5-.5.55-.73,1.27-.53,1.6.5.81,2.34-.19,3.17-1.74h0Zm-5.96-1.56c-.5-2.06-2.05-3.52-3.08-2.88-.72.44-.72.71,0,2.1.96,1.86,1.4,2.24,2.57,2.24.64,0,.77-.37.51-1.46h0Zm-121.12-1.85c.23-.37.18-.75-.11-.85s-3.06-1.69-6.16-3.54-6.07-3.37-6.59-3.38c-1.94-.03-1.55,1.11.79,2.29,1.33.67,3.47,2.07,4.77,3.12,3.49,2.83,6.42,3.78,7.3,2.36h0Zm6.71-4.1c1.8-1.65,2.02-2.09,1.41-2.82-.98-1.19-1.53-1.1-3.14.52-1.32,1.32-1.93,4.25-.89,4.25.27,0,1.45-.88,2.62-1.95h0Zm-5.1-2.7c-.32-3.52-1.47-5.68-2.46-4.63-.31.32-.09,1.84.54,3.8,1.79,5.57,2.37,5.81,1.92.82h0Zm118.24-26.66c1.78-.89,3.24-1.91,3.24-2.26,0-.75-3.18-6.89-4.21-8.13-.39-.47-1.25-2.94-1.91-5.51-1.46-5.65-1.53-10.49-.36-27.51.94-13.69,1.64-19.16,2.88-22.42.46-1.2.72-2.29.59-2.43s-2.49.46-5.24,1.32c-4.36,1.36-6.1,1.59-13.73,1.75-9.45.21-12.91-.37-17.79-2.96-3.38-1.79-7.84-5.35-8.87-7.05-.47-.78-1.41-2.04-2.09-2.82s-1.89-2.42-2.67-3.66-1.59-2.38-1.79-2.54c-.86-.66-3.63-7.29-4.21-10.07-.62-2.97-.66-3.03-2.75-3.15-1.25-.08-2.65-.63-3.41-1.34-.71-.67-1.46-1.21-1.68-1.21-.38,0-1.77,2.81-3.42,6.9-1.36,3.38-11.08,14.52-12.67,14.52-.27,0-.83.4-1.24.9-.41.49-3.5,2.28-6.87,3.97-7.58,3.8-14.36,5.25-19.83,4.24-1.84-.34-3.46-.51-3.59-.38s.17,3.11.66,6.61c.5,3.5,1.07,9.41,1.27,13.13.32,5.94.18,7.72-1.14,14.65-1.71,8.96-4.08,19.95-4.61,21.33-.48,1.25-.11,1.19,3.91-.68,8.59-4,26.29-4.2,38.07-.44,2.36.75,6.31,1.92,8.79,2.6,2.48.67,5.65,1.56,7.05,1.97s3.8,1.05,5.35,1.43c4.14.99,11.24,3.23,16.06,5.05,4.78,1.81,10.69,3.47,16.91,4.75,6.6,1.36,6.78,1.38,11.55,1.22,3.64-.12,5.13-.46,7.75-1.76h0v-.02Zm-51.89-26.32c-1.15-1.15-1.81-1.27-6.89-1.27-4.19,0-5.62-.18-5.62-.72,0-1.24,2.93-1.92,7.43-1.72,3.65.16,4.55.4,5.78,1.55,1.36,1.28,1.99,3.42,1.01,3.42-.24,0-1.01-.57-1.71-1.27h0Zm-66.35,13.81c.22-1.47.98-4.96,1.69-7.75s1.73-7.53,2.27-10.54l.98-5.46-2.92-3.03c-1.61-1.67-3.22-3.55-3.59-4.18-1.18-2.04-3.7-5.46-6.57-8.92-3.43-4.14-11.62-16.35-13.8-20.57-2.37-4.58-2.88-5.04-5.23-4.66-1.55.25-2.18.09-2.77-.71-1.21-1.66-.93-1.95,1.92-1.96,3.24-.01,3.53-.19,5.22-3.23.73-1.32,1.56-2.4,1.85-2.4.62,0,.26-2.49-.97-6.75-1.02-3.54-1.19-13.55-.29-17.44.81-3.53,3.35-7.03,10.12-13.97,3.25-3.33,6.22-6.57,6.59-7.2.73-1.23.9-1.57,2.51-5.23,1.27-2.88,3.06-3.38,2.52-.7l-.34,1.69h12.33l.69-2.4c1.99-6.88-.32-25.23-5.01-39.85-2.42-7.54-2.51-7.65-5.13-6.01-1.14.71-3.07,1.63-4.3,2.03-1.23.4-2.58,1.08-3,1.49-.42.42-1.44.93-2.27,1.13-2.62.64-7.6,4.45-10.69,8.16-3.39,4.09-7.78,10.67-8.34,12.5-.21.68-.7,1.61-1.1,2.08-.86,1-4.76,9.37-4.82,10.33-.02.36-.97,2.5-2.11,4.73-10.05,19.7-13.22,26.84-16.33,36.79-5.04,16.09-6.2,23.28-4.89,30.17.86,4.51,1.67,6.38,6.85,15.77,4.16,7.53,5.34,9.55,5.76,9.86.21.16,1.74,2.18,3.41,4.51,4.61,6.44,14.49,16.55,17.41,17.82.83.36,2.26,1.41,3.19,2.33s2.45,2.08,3.38,2.56c.93.49,2.54,1.67,3.58,2.63,1.04.96,3.19,2.6,4.79,3.63,1.6,1.04,3.65,2.68,4.56,3.65s1.83,1.76,2.05,1.76.57-1.2.79-2.68h0v.02Zm6.13-28.89c.5-2.49-.16-16.31-1.09-22.78-.44-3.08-.8-5.81-.8-6.08s-1.59-1.25-3.52-2.18c-4.29-2.06-10.04-5.26-10.97-6.1-.37-.34-.89-.61-1.16-.61s-2.08-1.29-4.03-2.87c-1.97-1.59-3.77-2.65-4.04-2.38-1.15,1.15-3.22,6.03-2.91,6.87.37,1.01,3.32,6.22,4.65,8.2.47.69,1.81,2.71,2.99,4.49,2.19,3.29,9.92,13.39,11.59,15.13.51.53,1.68,2.01,2.61,3.28,2.46,3.37,5.42,6.75,5.91,6.75.24,0,.58-.76.77-1.7h0v-.02Zm104.92-27.7c10.03-2.8,12.18-3.85,16.14-7.84,7.07-7.13,8.6-11.3,8.63-23.64.02-7.91-.03-8.26-1.54-11-2.35-4.23-5.77-7.96-9.6-10.45-1.88-1.22-3.69-2.23-4.02-2.23s-1.32-.39-2.22-.85c-2.07-1.08-8.14-1.23-17.25-.41-8.32.74-11.88,2.12-19.84,7.66-2.74,1.91-5.73,3.85-6.64,4.32-3,1.53-8.86,7.63-10.37,10.78-.93,1.93-1.24,3.2-.89,3.55.3.3.54,1.36.54,2.36s.27,1.9.59,2.01c.33.11.85,1.33,1.16,2.71.69,3.08,3.14,7.44,6.46,11.52,1.37,1.69,2.5,3.25,2.5,3.49,0,.79,4,4.09,6.94,5.73,4.71,2.64,6.49,3.09,13.64,3.45,8.33.43,10.76.25,15.78-1.16h-.01Zm10.18-25.36c-1.44-1.13-1.91-2.95-.91-3.56.29-.18.91.22,1.38.89.77,1.1,1.02,1.15,2.58.5,1.19-.49,1.87-1.26,2.18-2.48.55-2.11,2.02-2.34,2.22-.35.23,2.21-1.07,4.04-3.64,5.13-2.3.97-2.4.97-3.8-.13h0Zm-100.47,21.71c5.7-1.29,13.94-5.8,18.52-10.14,6.42-6.08,10.72-12.43,12.56-18.54l.78-2.61-4.73-4.73c-2.6-2.6-5.56-5.15-6.58-5.67-1.01-.51-2.23-1.26-2.69-1.66-.47-.4-2.75-1.53-5.07-2.52-2.33-.99-5.24-2.26-6.48-2.83-9.69-4.42-13.18-5.34-22.35-5.94-8.93-.58-9.29-.45-15.52,5.57-6.18,5.97-9.46,11.01-9.98,15.32-.19,1.55-.11,5.32.18,8.37,1.06,11.14,4.91,15.32,21.46,23.32,6.22,3.01,12.71,3.68,19.9,2.05h0Zm-31.16-25.24c-3.34-.89-4.66-2.95-3.37-5.27,1.04-1.86,2.8-2.41,2.8-.86,0,.58-.3,1.36-.68,1.73-1,1,.1,1.83,2.89,2.21,1.96.26,2.32.5,2.18,1.46-.22,1.46-.72,1.55-3.83.73h0Zm71.89-4.57c3.76-7.27,5.41-8.71,23.42-20.35,1.43-.92,4.16-2.3,6.06-3.05,3.64-1.45,4.31-2.58,2.76-4.66-.63-.85-.99-.87-3.52-.18-3.89,1.05-6.57,2.36-11.94,5.84-4.19,2.71-10.89,9.28-10.89,10.67,0,.63-2.37,2.45-4.9,3.76-2.97,1.53-5.37,1.21-8.15-1.1-1.35-1.12-2.68-2.45-2.96-2.96-.69-1.24-2.33-2.73-6-5.47-8.12-6.06-12.54-8.36-17.84-9.32-1.8-.33-5.41-1.21-8.04-1.96-6.03-1.73-6.68-1.72-7.39.14-.68,1.79-.2,2.21,3.12,2.76,2.12.35,4.35,1.24,11.34,4.53,1.58.74,3.08,1.35,3.34,1.35,1,0,8.64,3.76,12.11,5.95,3.86,2.45,14.65,12.64,14.65,13.83,0,1.1,1.81,2.82,2.78,2.64.48-.09,1.4-1.18,2.04-2.42h.01Zm1.15-10.94c.96-.59,2.61-2.15,3.66-3.48,2.63-3.32,6.6-7.33,8.96-9.06,3.55-2.61,11.5-6.62,13.87-6.99,3.94-.63,3.87-.44,3.04-8.08-.74-6.83-.58-12.55.59-20.91.32-2.33.8-6.61,1.07-9.51.26-2.91.69-5.44.96-5.64.27-.19.53-1.62.58-3.17.12-3.32,1.7-9.6,2.89-11.44.75-1.17.73-1.36-.23-2.08-1.61-1.2-3.61-1.55-4.52-.8-.69.57-.63.83.39,1.78,1.05.98,1.09,1.21.37,1.94-.67.67-1.03.7-1.95.12-1.19-.74-2.96-.39-2.96.59,0,.32.35.58.78.58.95,0,1.64,2.31.91,3.05-.33.33-.92.18-1.58-.41-1.36-1.23-1.97-1.19-3.25.23-1.04,1.15-1.04,1.19.28,2.18.86.65,1.22,1.34.99,1.93-.48,1.25-1.66,1.15-2.51-.21-.86-1.37-1.99-1.44-3.24-.19-.87.87-.8,1.06,1.12,2.82,1.93,1.77,2.21,3.01.68,3.01-.83,0-3.77-2.66-3.77-3.4,0-.94-1.85-.58-3.12.61l-1.22,1.15,1.11,2.23c1.12,2.25.99,4.2-.25,3.79-.37-.12-.91-.97-1.2-1.88-.83-2.57-1.86-3.46-3.72-3.19-1.5.22-1.6.37-1.15,1.73.6,1.79.46,3.59-.31,4.16-1.05.77-1.41.44-1.41-1.3,0-2.57-.93-3.91-2.71-3.91-1.51,0-1.54.08-1.53,3.24.01,2.51-.18,3.24-.83,3.24-.51,0-.8-.45-.73-1.13.07-.62-.14-1.95-.47-2.96-.44-1.38-.91-1.83-1.91-1.83-.73,0-1.72-.15-2.21-.34-.72-.28-.89.09-.89,1.97s-.18,2.31-1.13,2.31c-.85,0-1.13-.38-1.14-1.55-.01-2.02-.52-2.76-2.4-3.47-1.4-.53-1.54-.47-1.54.7,0,1.54-.98,2.64-2.37,2.64-1.1,0-1.13-.96-.05-2.12.96-1.04.41-2.05-1.52-2.78-1.59-.6-1.68-.55-2.31,1.43-.84,2.63-1.32,3.13-2.09,2.2-.45-.54-.45-1.41-.01-3.16.82-3.23.15-3.92-2.85-2.93-3.29,1.08-5.06-.52-1.91-1.72l1.55-.6-1.69-1.38-1.69-1.38-1.55,1.82c-1.19,1.4-1.7,1.67-2.21,1.16-.51-.51-.42-1.12.38-2.61.87-1.62.93-2.09.31-2.83-1.09-1.31-1.45-1.12-2.57,1.37-.94,2.08-1.86,2.74-2.68,1.93-.18-.18.27-1.62,1-3.2,1.52-3.28,1.29-4.43-.54-2.71-2.4,2.26-3.97.99-1.74-1.42,1.73-1.87,1.36-2.6-.46-.89-.72.67-2.02,1.22-2.91,1.22s-3.53,1.12-5.88,2.49-5.49,3.07-6.97,3.78c-3.11,1.49-3.1,1.1-.35,9.58.9,2.76,1.78,6.09,1.96,7.41.19,1.31.56,3.15.84,4.08.62,2.1,1.54,8.51,2.2,15.36.44,4.61.14,9.92-.8,13.98-.23,1.01.2,1.28,3.38,2.13,2,.53,6.12,1.48,9.14,2.1,5.8,1.19,9.51,2.85,15.34,6.84,1.96,1.34,4.36,2.98,5.34,3.64s3.58,3.01,5.78,5.21c4.45,4.46,6.17,4.99,9.54,2.94h.02Zm59.27-13.04c-.39-.63-2.1-2.09-3.81-3.24s-3.3-2.4-3.54-2.77c-.8-1.25-19.01-.58-19.01.7,0,.12.44,1.14.97,2.26.87,1.81,1.15,2,2.62,1.71.9-.18,4.86-.49,8.78-.69,5.9-.3,7.64-.2,10.02.6,1.59.53,3.19,1.32,3.56,1.77.99,1.19,1.22.99.4-.34h.01Zm-112.03-3.88c0-.59.16-1.51.36-2.03.33-.85-.21-.93-5.58-.75-4.87.16-6.15.39-7.13,1.27-.65.59-1.18,1.28-1.18,1.53s2.09.54,4.65.64,5.6.24,6.76.3c1.75.09,2.11-.07,2.11-.97h.01Zm111.11-1.31c.04-.39.02-.96-.05-1.26-.22-1.08,1.32-5.09,2.43-6.35l1.13-1.27h-1.97c-2.23,0-6.42,1.33-8.05,2.56-1.04.78-.94.96,2.19,3.92,3.35,3.17,4.2,3.64,4.32,2.4h0Zm-18.48-3.78c2.74-.24,5.85-.36,6.9-.27,1.77.14,1.9.05,1.59-1.19-.42-1.67.41-2.53,3.72-3.88,6.07-2.47,7.45-2.67,21.86-3.11,7.84-.24,14.35-.54,14.47-.66s-.12-1.71-.55-3.54c-.94-4.03-.58-16.17.59-20.23.71-2.46.7-2.73-.18-3.01-3.78-1.21-17.03-8.37-17.03-9.19,0-.38-4.87-3.97-5.4-3.97-.16,0-1.23-.87-2.38-1.93-5.52-5.1-7.04-5.66-14.1-5.23-3.26.2-6.46.08-7.93-.29-2.3-.58-2.54-.53-3.52.74-1.82,2.33-3.84,11.03-4.71,20.24-.19,2.02-.74,6.96-1.23,10.99-.61,5.07-.77,9.32-.52,13.81.59,10.6.93,12.17,2.46,11.56.54-.22,3.22-.59,5.96-.82h0v-.02Zm67.17-9.59c2.48-.31,6.67-.84,9.3-1.17,11.72-1.48,18.35-3.86,22.59-8.1,1.09-1.09,3.09-2.72,4.44-3.63s8.19-7.26,15.19-14.13c7-6.86,14.07-13.75,15.7-15.3s2.96-3.14,2.96-3.53.9-1.58,2.01-2.65,2.55-2.81,3.21-3.87c.66-1.06,4.31-5.04,8.11-8.85s7.54-7.88,8.3-9.06,3.38-4.22,5.8-6.77c3.78-3.96,5.3-5.09,10.61-7.84,5.94-3.08,16.34-10.26,17.43-12.05.29-.47,1.48-1.87,2.64-3.11,5.07-5.39,9.72-11.65,10.81-14.55.43-1.15-10.8,10.41-13.4,13.79-1.08,1.4-2.13,2.17-2.96,2.17-1.76,0-1.64-.43,1-3.67,1.26-1.54,2.59-3.19,2.96-3.66s1.83-2.24,3.24-3.95c2.89-3.49,8.42-11.49,8.44-12.21,0-.26,1.15-1.97,2.53-3.81,1.39-1.84,2.37-3.48,2.19-3.66-.37-.36-3.5,3.09-5.58,6.15-.74,1.09-2.05,2.77-2.92,3.75s-1.97,2.26-2.43,2.84c-.47.58-2.01,2.44-3.44,4.14s-3.15,4.17-3.83,5.5c-2.37,4.67-7.35,5.3-6.63.85.29-1.78,1.78-3.84,6.97-9.63,1.3-1.46,3.46-4.11,4.79-5.91,1.33-1.79,4.47-5.98,6.97-9.3,5.99-7.95,7.82-10.76,7.33-11.25-.44-.44-4.06,3.37-6.8,7.16-.93,1.28-3.85,4.95-6.48,8.16-2.64,3.2-6.31,7.82-8.17,10.27-4.13,5.42-6.27,7.54-7.64,7.54-1.56,0-1.83-.91-1.12-3.86.41-1.72,1.44-3.58,2.88-5.19,1.23-1.38,2.93-3.52,3.77-4.76s3.15-4.16,5.12-6.48c1.97-2.33,4.07-5.12,4.68-6.2.61-1.09,1.66-2.8,2.34-3.81,3.53-5.23,6.03-9.41,6.03-10.09,0-1.3-.93-.85-3.18,1.52-1.19,1.26-3.12,3.27-4.28,4.46s-2.11,2.58-2.11,3.07-.23.89-.51.89c-.56,0-7.94,9.34-13.3,16.84-3.3,4.61-7.7,9.08-8.95,9.09-.75,0-4.31,3.29-5.22,4.82-.62,1.04-.68,1.02-1.23-.39-.46-1.18-.35-1.95.54-3.76,1.1-2.22,2.11-6.98,3.26-15.4.31-2.28.88-5.23,1.27-6.54.55-1.91.55-2.54,0-3.1-.95-.95-1.54.05-2,3.39-.19,1.41-1.32,4.36-2.5,6.56-3.06,5.69-3.94,8.7-4.84,16.57-.63,5.54-1.07,7.36-2.16,9.02-2.55,3.87-3.24,5.13-3.24,5.95,0,.45-.98,2.04-2.17,3.54-3,3.77-17.95,18.76-23.76,23.82-2.64,2.29-7.96,7.16-11.84,10.81-7.05,6.64-10.38,9.39-14.1,11.64-1.09.66-2.61,1.88-3.38,2.71-1.6,1.73-7.05,5.88-7.72,5.89-.25,0-1.93,1.01-3.74,2.24-4.5,3.06-13.13,7.1-19.25,9.02-3.08.97-5.28,1.23-10,1.21-5.14-.02-6.06.11-6.06.86,0,.87-.68.85-2.89-.06-.63-.26-1-.03-1.2.74-.2.78.3,1.64,1.7,2.88,1.45,1.28,1.82,1.93,1.37,2.38s-1.01.37-2.04-.31c-2.24-1.47-3.35-1.23-2.88.62.21.85.43,1.57.48,1.59,1.88.87,4.32,2.79,4.32,3.39,0,.92-.89,1.07-1.41.24-.19-.31-1.09-.56-1.99-.56-1.46,0-1.59.14-1.17,1.26.26.69,1.07,1.4,1.81,1.57.79.19,1.56.94,1.88,1.83.68,1.92.07,2.56-1.27,1.35-1.12-1.01-2.92-1.26-2.92-.41,0,.59,1.22,1.9,2.81,3.01,1.15.81,2.17,3.79,1.29,3.79-.3,0-1-.51-1.56-1.13s-1.23-1.13-1.5-1.13c-.92,0-.46,1.36.93,2.82,1.29,1.34,1.84,1.48,6.34,1.59,2.71.07,6.96-.14,9.44-.45h-.01Zm-102.97-34.44c7.61-.73,13.01-3.7,19.53-10.75,4.71-5.09,5.14-5.87,4.21-7.61-.42-.79-1.43-1.78-2.25-2.2-2.34-1.21-7.86-7.49-7.86-8.94,0-2.04-.58-2.12-2.82-.35-1.15.91-2.73,1.9-3.5,2.19-1.43.54-10.43,1.54-11.41,1.26-.76-.21-5.28-1.14-7.63-1.57-1.09-.2-2.86-1.05-3.95-1.9-1.86-1.45-5.74-3.95-9.11-5.87l-1.51-.86-.61,2.86c-.81,3.78-6.09,12.99-8.72,15.2-1.39,1.17-.86,3.51,1.24,5.42,5.89,5.37,7.58,6.71,10.9,8.7,4.72,2.83,8.94,4.39,12.87,4.76,1.69.16,3.2.42,3.35.57s.67.12,1.15-.07c.48-.19,3.24-.57,6.13-.85h0Zm26.86-21.55c.94-1.43,1.17-2.99,1.73-11.67l.38-5.92,3.96-5.88c2.18-3.23,4.95-8.26,6.15-11.16,1.21-2.91,2.42-5.71,2.69-6.24,3.32-6.41,5.88-38.45,3.7-46.35-1.43-5.21-3.74-14.78-4.2-17.46-.24-1.4-.7-3.3-1.01-4.23s-.87-3.09-1.25-4.79c-.74-3.34-6.22-14.69-9.54-19.73-1.12-1.71-2.42-4.09-2.89-5.29-.46-1.21-1.32-2.48-1.91-2.82s-2.09-1.72-3.34-3.05c-2.34-2.5-9.71-7.58-13.56-9.37-1.2-.56-3.1-1.09-4.23-1.19-1.12-.1-4.96-.82-8.53-1.61-7.09-1.56-10.23-1.78-14.09-.98-7.1,1.47-15.22,5.43-15.22,7.41,0,.41-.82,1.53-1.83,2.49-4.12,3.92-6.23,6.68-6.28,8.22-.03.87-.15,1.49-.26,1.38-.47-.47-2.28,1.85-2.64,3.4-.22.93-.95,2.33-1.63,3.1-1.61,1.85-4.1,10.04-5.4,17.75-.37,2.17-.88,4.71-1.15,5.64-2.46,8.53-2.91,12.05-3.2,24.52-.23,10.19-.11,13.62.61,17.47,1.52,8.07,2.98,12.8,4.81,15.62,2.63,4.05,3.97,7.26,5.22,12.51,1.99,8.38,1.33,15.12-2.97,29.94-.59,2.02-1.07,3.96-1.07,4.3s-.38.94-.85,1.32c-1.86,1.54-.93,1.98,3.77,1.77,2.65-.12,5.94.11,7.71.53,2.28.55,3.15.57,3.31.1.12-.35.96-1.48,1.86-2.51.91-1.03,1.65-2.06,1.66-2.3,0-.24.69-1.51,1.51-2.82,2.06-3.27,2.72-9.56,1.15-10.99-.58-.53-1.42-1.72-1.87-2.66-1.19-2.49-2.18-4.1-3.2-5.23-.5-.55-1.17-2.14-1.5-3.53s-1.11-4.71-1.74-7.38c-2.2-9.36-2.49-18.91-.79-26.15,1.06-4.53,1.01-6.13-.28-8.66-.6-1.17-1.62-3.71-2.27-5.65-1.04-3.07-1.11-3.94-.58-6.85.33-1.83,1.35-4.76,2.27-6.5.92-1.74,1.67-3.55,1.67-4.01,0-2.23,4.08-7.5,5.81-7.5.6,0,1.98,1.01,3.06,2.25s2.23,2.25,2.54,2.25,1.57-.91,2.8-2.01c1.53-1.38,2.53-1.89,3.17-1.62,2.17.92,3.66.9,5.8-.06l2.26-1.02,1.3,1.63c1.28,1.61,1.31,1.61,2.81.63,1.46-.96,1.6-.95,3.92.17,1.32.64,2.61,1.16,2.88,1.16s1.82-1.01,3.46-2.25c3.22-2.43,4.72-2.77,5.9-1.35.55.67,1.34.82,3.03.59,1.83-.25,2.85,0,5.18,1.33,2.88,1.62,2.93,1.63,5.27.71,2.3-.9,2.39-.89,3.29.27.52.67,1.91,1.37,3.18,1.59,1.24.22,2.59.66,3.01.99.96.77,2.45,4.14,3.97,8.99,2.01,6.43,1.56,23.33-.97,36.2-.91,4.64-2.94,11.8-3.51,12.37-.29.29-.53,1.18-.53,1.97s-.51,2.27-1.13,3.28c-.62,1.02-1.13,2.2-1.13,2.63,0,1.26-5.46,11.7-7.17,13.71-5.19,6.1-5.53,6.92-4.16,9.86,1.07,2.3,4.7,6.62,5.57,6.62.23,0,1.18.73,2.11,1.63,2.09,2.03,2.3,2.06,3.35.46h0l.05.03Zm-20.23-8.62c2.08-.87,5.88-4.11,5.88-5.02,0-.32.57-.83,1.26-1.13.69-.31,1.54-1.14,1.89-1.85s1.13-1.85,1.74-2.54c1.79-2.02,4.92-7.22,6.26-10.41,4.27-10.15,5.55-14.12,7.87-24.38,1.35-5.96,1.47-7.57,1.51-20.01.04-14.24.11-13.8-2.77-19.68-1.04-2.13-1.32-2.31-3.66-2.47-1.66-.11-2.83-.54-3.38-1.24-.75-.94-1.12-.99-3.16-.44-2.13.58-2.46.51-4.28-.88-1.99-1.52-5.14-2.03-5.81-.94-.65,1.05-2.44.57-3.56-.97l-1.11-1.53-2.46,2.12c-4.2,3.63-4.17,3.62-5.99,2.69-3.53-1.8-4.11-1.95-4.77-1.29-1.03,1.03-2.48.79-4.21-.7l-1.58-1.36-1.82,1.12c-1.09.67-2.11.94-2.54.66-1.52-.97-3.56-.55-5.32,1.1-1.54,1.44-2.07,1.63-3.81,1.3-1.3-.24-2.45-.97-3.25-2.04-.68-.92-1.52-1.66-1.86-1.66-.93,0-2.82,2.78-3.64,5.35-.39,1.24-1.35,3.59-2.13,5.22-2.35,4.92-2.31,7.03.34,14.99,2.26,6.81,2.78,9.38,1.89,9.38-1.59,0-2.54,15.4-1.3,21.03.29,1.3.94,4.39,1.46,6.87,1.36,6.56,1.62,7.18,5.02,12.35,3.46,5.25,6.85,8.52,11.21,10.8,1.61.84,3.9,2.36,5.08,3.37,1.25,1.07,3.02,1.96,4.23,2.14,1.14.16,3.09.55,4.33.86,2.81.7,9.92.23,12.44-.82h0Zm-15.66-21.08c-2.69-1.02-7.2-4.21-7.2-5.09,0-.26-.57-.64-1.27-.83-3.3-.93-3.8-1.48-3.8-4.24,0-1.96.41-3.25,1.6-5.02,3.68-5.49,8.2-6.03,13.74-1.64l2.21,1.75,2.97-1.51c2.4-1.21,3.42-1.43,5.28-1.14,3.21.51,5.6,2.96,6.09,6.23.34,2.26.21,2.71-1.15,4.13-.84.88-2.31,1.75-3.28,1.94-1.16.23-2.68,1.4-4.51,3.44-2.62,2.94-2.88,3.09-5.39,3.04-1.45-.03-3.83-.51-5.29-1.07h0Zm7.91-2.43l1.22-1.3-6.01-.67c-3.31-.37-6.14-.54-6.3-.38-.16.16.32.73,1.07,1.26,3.81,2.72,8.05,3.18,10.02,1.09h0Zm4.73-4.57c4.4-1.17,5.06-1.51,4.71-2.43-.17-.45-.31-1.42-.31-2.16,0-1.72-2.67-4.21-4.5-4.19-.78,0-2.43.64-3.67,1.41-3.03,1.87-3.91,1.77-7.34-.82-1.61-1.22-3.81-2.38-4.88-2.58-1.76-.33-2.14-.15-3.96,1.87-2.54,2.81-3.28,5.61-1.78,6.71,1.21.88,1.38.92,8.94,2.01,7.54,1.08,9.28,1.11,12.8.17h0Zm-7.04-25.7c-1.16-.91-1.73-1.02-2.91-.57-1.19.45-1.55.38-1.83-.36-.8-2.09,3.61-3.28,5.57-1.51.97.88,1.09.87,1.83-.14.44-.6.58-1.33.32-1.65-1.11-1.35-2.82-7.53-2.8-10.13l.02-2.84,1.33,3.66c.73,2.02,1.86,4.89,2.52,6.39,1.41,3.24,1.51,5.31.31,7.01-1.09,1.55-2.48,1.59-4.35.12h0v.02Zm23.72-22.68c-.76-1.01-1.84-2.63-2.41-3.6-1.17-2.02-2.98-2.52-7.27-2.04-2.41.27-2.69.19-2.52-.72.27-1.4,2.89-2.04,7.07-1.74,2.84.21,4.08.64,6.62,2.33,1.72,1.14,3.27,2.31,3.44,2.59s1.07.51,1.98.51c1.22,0,1.84.37,2.3,1.37.98,2.16-.42,3.13-4.49,3.13-3.13,0-3.45-.12-4.73-1.83h0Zm-55.97-.43c-.57-.92,1.83-3.5,4.75-5.09,6.71-3.67,11.78-4.87,15.32-3.62,1.29.45,2.92.83,3.61.83s1.61.41,2.02.91c.64.77.6,1.02-.24,1.63-1.08.79-2.47.62-5.34-.66-1.96-.87-6.31-.57-6.31.44,0,.67-11.09,6.14-12.44,6.14-.56,0-1.18-.26-1.37-.57h0Z"/><path d="m497.09,841.03c-2.29-4.03-3.46-8.59-5.57-12.71-3.26-7.54-5.16-15.67-5.2-23.91-.54-11.11-.67-22.26-1.16-33.35-1.97-6.65-3.76-13.53-7.87-19.25-3.64-6.11-8.27-11.55-12.23-17.42-2.16-3.58-4.11-7.32-5.74-11.16-1.42-6.15-1.07-12.61-1.72-18.89-1.71-20.53-2.34-41.13-2.98-61.71-.27-1.43.24-3.14-.47-4.43-.23-.19-.54-.21-.82-.2h0c-3.01.5-5.83,1.86-8.85,2.29-2.78,1.41-6.16,1.24-8.79,3.1-3.33,2.08-6.59,4.21-10.09,6-3.72,2.22-7.74,3.93-11.36,6.29-6.76,2.88-13.58,5.66-20.5,8.11-1.5.53-.35,2.27-.24,3.3,1.11,4.48,2.6,8.9,5.1,12.82,6.81,12.09,12.84,24.6,19.13,36.97,1.65,3.22,2.22,6.77,2.63,10.32.95,4.38,2.55,8.69,4.91,12.51,2.12,2.67,4.77,5.05,5.8,8.42,1.52,3.98,3.32,7.85,5.05,11.74,4.06,8.34,8.66,16.41,12.35,24.93,5.7,12.11,11.23,24.32,16.56,36.59,1.65,4.77,4.11,9.24,5.33,14.16,2.66,9.46,3.2,19.38,3.27,29.16-.09,12.55-2.03,25.19-6.64,36.91-1.25,2.72-2.12,5.6-3.34,8.34-.36.54-.47,1.9.55,1.59,2.38-.29,4.61-1.7,6.99-1.64,1.17.74-.55,1.54-1.2,1.8-6.68,2.85-14.19,4.08-20.13,8.46-1.89,1.67-4.05,3.54-4.67,6.08.43,1.81,2.65,2.5,4.26,2.89,4.67-.85,9.04-3.09,13.76-3.82,5.01-1.05,10.29-.95,15.14-2.67,1.34-.19,2.69-.42,3.83-1.18,2.61-.5,4.59-2.68,6.08-4.76,1.91-3.9,2.33-8.34,3.22-12.55,2.01-10.29,2.12-20.86,4.26-31.11.21-1.64,1.36-2.97,1.31-4.66.22-.91,1.3-.38.92.44.19,3-1.18,5.93-.92,8.91.73.7,1.71-.63,2.35-.94,2.79-2.12,5.44-5.1,5.31-8.84.6-9.53-2.43-19-7.61-26.93Z"/><path d="m413.53,635.51c2.38-1.55,4.59-3.33,7-4.84,2.65-1.96,4.5-4.77,6.45-7.38,2.02-2.83,3.99-5.69,6.03-8.5,1.01-1.61,1.13-3.56,1.91-5.27,1.51-3.61,3.31-7.17,5.86-10.17,1.34-1.54,2.98-3.09,5.14-3.23.72-.15,1.58.08,2.21-.38.41-.57-.02-1.33-.08-1.95-.38-1.69-.47-3.43-.77-5.13-.54-.91-1.68-1.21-2.58-1.65-3.57-1.38-7.27-2.42-11.01-3.24-7.15-1.44-14.47-1.62-21.73-1.71h-.79c-7.29.08-14.58.35-21.83,1.06-5.4.65-10.76,1.74-15.96,3.33-1.29.41-2.59.86-3.71,1.65-.87.28-1.8.32-2.64.72-2.3.92-4.55,2.05-6.57,3.49-1.03.7-1.33,2.06-1.01,3.22.69,2.61,2.01,5,2.97,7.52,1.49,3.62,2.97,7.24,4.22,10.94,2.24,4.95,4.74,9.77,7.26,14.58,1.41,2.72,3.17,5.23,4.49,8,1.66,3.21,3.18,6.52,5.22,9.51.51.71,1.32,1.34,1.32,2.29.14.6.88.67,1.09,1.24.64,1.03.8,2.38,1.73,3.22.57.38,1.17-.27,1.67-.49,4.91-3.24,9.49-6.96,14.33-10.3,3.23-2.23,6.35-4.64,9.78-6.53Z"/></svg>