<?xml version="1.0" encoding="UTF-8"?><svg id="a" xmlns="http://www.w3.org/2000/svg" width="1024" height="1024" viewBox="0 0 1024 1024"><path id="b" d="m113.05,871.25c-1.78-2.71-2.08-2.78-9.45-2.14-4.19.36-12.06.97-17.48,1.36l-9.87.7v-3.67c0-12.12,8.35-28.82,22.12-44.25,10.98-12.29,12.01-13.71,13.68-18.74,1.31-3.94,3.29-6.5,8.68-11.24,21.75-19.12,23.12-21,32.62-45.07,4.48-11.33,4.88-13.16,5.33-24,.6-14.59,3.48-24.03,12.91-42.4,6.36-12.39,6.8-13.71,7.49-22.7,3.07-39.95,11.8-71.68,26.96-98.01l4.88-8.47-.67-12.32c-1.29-23.66,2.14-53.47,8.41-73.11,1.5-4.69,5.3-14.05,8.45-20.8s7.84-17.8,10.41-24.57c5.18-13.62,12.23-26.19,20.78-37.06,6.11-7.78,18.6-26.32,28.3-42.03,3.37-5.45,7.89-12.24,10.05-15.09l3.93-5.18-5.16.38c-6.34.47-7.49-1.42-2.35-3.86,3.63-1.72,7.8-7.23,12.42-16.4l2.34-4.65-4.77.38c-5.48.44-5.46.18.89-8.78,1.91-2.69,3.8-5.93,4.2-7.2.4-1.27,1.2-2.31,1.76-2.31s2.45-1.45,4.18-3.22c1.73-1.77,4.83-4.36,6.88-5.75l3.73-2.53-2.65-.67c-4.14-1.04-3.15-3.22,2.95-6.47,3.08-1.64,6.69-4.33,8.03-5.98,1.34-1.64,5.19-4.66,8.56-6.71l6.13-3.72,7.97,1.11c10.33,1.44,9.93,1.48,18.64-1.68,5.44-1.98,9.62-2.72,15.41-2.74,15.61-.05,31.19,6.58,76.12,32.41,35.88,20.62,42.11,23.58,54.1,25.64,31.78,5.48,67.33,19.56,92.19,36.5l10.66,7.27h16.53c9.09,0,19.47-.34,23.06-.76l6.53-.77,9.47,6.28c11.99,7.95,26.1,20.69,39.99,36.11,10.59,11.76,11.16,12.21,22.7,17.81,15.97,7.75,22.83,9.4,36.91,8.83,9.19-.37,12.29-.95,17.27-3.23,28.86-13.21,22.98-45.88-11.41-63.43-13.33-6.8-26.61-11.44-54.23-18.92-26.61-7.21-40.62-11.99-54.74-18.69-27.11-12.87-42.89-27.83-49.52-46.95-3.2-9.21-3.44-26.46-.5-35.19,5.7-16.93,16.01-27.42,32.61-33.16,5.65-1.95,9.31-2.41,19.73-2.45,15.11-.05,23.57,1.97,39.67,9.5,13.6,6.35,22.62,9.05,30.33,9.05,10.74,0,17.43-4.33,17.23-11.17-.15-5.13-2.79-8.22-13.19-15.42-14.94-10.34-20.89-17.98-22.06-28.31-1.03-9.16,4.99-19.92,12.8-22.86,1.61-.61,2.93-.98,2.93-.82s-.96,2.16-2.13,4.47c-1.17,2.3-2.12,5.88-2.11,7.96.03,4.52,3.07,11.53,6.22,14.34l2.28,2.03v-3.75c0-3.96,3.37-9.37,5.84-9.37.78,0,2.63,2.04,4.1,4.53,3.86,6.53,8.6,10.57,18.65,15.86,17.85,9.41,24.47,16.94,26.92,30.63,1.08,6.04,1.01,8.17-.46,13.91-.96,3.73-3.16,8.88-4.89,11.45-1.73,2.57-2.67,4.67-2.07,4.67,1.95,0,11.34-10.21,14.8-16.1l3.39-5.77-.4,9.6c-.46,11-3.38,18.28-10.21,25.45-3.6,3.78-3.71,4.05-1.26,3.31,1.47-.44,4.35-1.85,6.4-3.13s4.45-2.75,5.33-3.27c2.9-1.72-5.37,7.89-11.43,13.3-19.72,17.57-47.69,19.77-67.85,5.34l-5.98-4.28-.68,2.69c-.37,1.48-.49,4.61-.27,6.96l.41,4.26-4.41-4.33c-2.43-2.38-5.54-6.82-6.92-9.85-1.38-3.04-2.65-5.72-2.82-5.97-.18-.25-1.63.76-3.24,2.25-2.37,2.2-8.46,5.13-10.64,5.13-.26,0,.77-1.48,2.29-3.28,4.92-5.84,3.46-19.46-2.91-27.19-7.18-8.71-21.36-11.53-32.33-6.41-12.65,5.89-19.05,15.75-18.34,28.3.58,10.22,4.63,17.87,14.82,27.98,6.83,6.78,10.16,9.12,19.29,13.56,11.01,5.35,19.7,8.02,61.16,18.82,21.96,5.72,35.35,10.42,49.06,17.24,27.1,13.48,44.93,30.53,52.43,50.14,3.76,9.83,4.6,24.88,2,35.76-7.17,29.98-29.01,45.32-65.35,45.91-12.59.2-14.7.81-12.07,3.46,1.13,1.14,3.26,16.65,3.26,23.76,0,3.67,1.24,6.87,5.76,14.96,13.37,23.89,24.93,55.5,30.55,83.55,1.8,8.98,4.64,20.65,6.32,25.92,6.24,19.65,10.68,41.07,12.72,61.32.65,6.51,1.94,12.23,3.6,16,4.05,9.21,5.13,15.23,6.14,34.12,1.34,25.29,6.54,52.83,13.53,71.69,2.97,8.02,13.77,23.62,19.65,28.38,8.06,6.53,15.78,27.46,14.15,38.34-1.24,8.26-4.93,11.94-17.05,17-2.94,1.23-19.08,3.47-25.07,3.49-1.92,0-3.13-.81-3.98-2.66-1.53-3.37-3.31-3.37-7.23,0-2.85,2.45-3.95,2.67-13.48,2.67-10.01,0-10.58-.13-16.12-3.68-3.28-2.1-6.03-4.73-6.41-6.13-2.41-9,3.01-32.75,9.48-41.55,9.87-13.41,10.38-31.37,1.59-55.22-6.71-18.2-18.26-36.92-27.38-44.4-3.89-3.19-4.91-4.9-6.8-11.44-5.1-17.6-4.74-16.96-16.86-29.2-6.3-6.35-14.46-15.75-18.15-20.88-3.68-5.13-6.92-9.33-7.2-9.33s-2.52,1.01-4.99,2.25c-6.45,3.23-10.98,7.89-15.96,16.42-2.4,4.11-7.55,10.67-11.44,14.58-5.83,5.85-8.16,7.42-13.16,8.88-10.86,3.16-17.08.31-31.48-14.4-11.91-12.17-14.49-13.37-19.65-9.14-8.65,7.1-20.52,15.73-25.35,18.44-5.78,3.25-6.13,4.13-3.59,9.05l1.71,3.3-3.31-.66c-4.35-.87-4.26.09.94,10.44,2.33,4.65,4.13,8.55,4,8.68s-2.04-.38-4.24-1.14-4-1.23-4-1.06c0,2.1,5.58,12.17,9.88,17.83,4.36,5.74,6.05,7.2,8.33,7.2,3.92,0,5.29,2.04,6,8.95l.61,5.9-5.41,5.92c-5.69,6.23-12.47,18.48-13.62,24.61-.64,3.39-1.48,4.02-12.57,9.48-6.54,3.22-15.54,6.77-20.02,7.88-7.33,1.83-8.86,1.89-15.46.61-11.1-2.15-11.55-2.06-13.69,2.68-1.84,4.09-1.83,4.26.51,8.42,1.31,2.34,3.55,4.78,4.98,5.43,3.25,1.48,8.07,11.54,10.98,22.94,2.7,10.56,2.8,17.73.28,20.84-2.86,3.54-15.05,6.72-27.65,7.22-9.84.39-11.07.23-13.04-1.74-2.28-2.28-4.85-2.05-5.84.52-.45,1.18-3.08,1.52-11.8,1.52-11.75,0-18.35-1.13-25.91-4.43-5.16-2.25-5.24-2.63-3.4-15.09,2.06-13.95,6.74-25.47,12.62-31.05,4.03-3.83,5.02-8.48,3.25-15.37-1.2-4.67-1.08-6.36,1.07-15.24,1.33-5.5,2.65-15.03,2.94-21.19l.53-11.2-2.84,3.73c-7.36,9.66-11.47,21.93-12.86,38.39-.97,11.51-2.24,15.47-5.94,18.59-1.79,1.51-3.67,2.74-4.16,2.74s-1.88-1.59-3.08-3.53c-2.85-4.61-6.92-6.89-9.08-5.09-2.6,2.16-3.13,7.08-1.1,10.18,6.39,9.75-8.42,39.89-21.28,43.33-2.41.65-5.07,1.73-5.89,2.4-1.62,1.33-84.65,1.82-85.95.51-.96-.96,5.15-15.82,9.72-23.65,5.44-9.31,14.56-20.15,22.49-26.73,4.82-4,11.33-7.76,19.52-11.28,10.04-4.32,12.8-7.15,12.8-13.18,0-7.9,3.65-13.16,13.08-18.8,9.76-5.84,14.82-10.51,23.14-21.36,8.41-10.97,13.53-19.16,17.71-28.34l3.54-7.78-2.13-2.7c-1.17-1.49-6.26-5.42-11.31-8.75l-9.18-6.05-8.32,1.79c-11.61,2.49-20.62,5.56-28.41,9.67-3.67,1.93-6.67,3.15-6.67,2.71s.73-2.86,1.61-5.38c.89-2.51,1.49-4.68,1.33-4.81-1.1-.98-13.9,2.59-15.93,4.46-3.1,2.84-7.86,5.25-12.26,6.2-2.93.63-3.48,1.29-4.1,4.97-.93,5.51-7.33,14.95-12.93,19.06-4.91,3.6-12.02,6.43-16.17,6.43h-2.72l2.34-2.5c2.13-2.27,4.9-9.12,4.03-9.99-.2-.2-2.95.85-6.11,2.32-7.35,3.42-14.95,3.59-20.12.44l-3.7-2.25,3.83-1.97c4.5-2.31,9.15-7.5,10.09-11.27.37-1.46.44-6.11.17-10.32-.82-12.56-5.71-20.23-26.94-42.31-6.49-6.75-14.46-15.3-17.72-19.01l-5.93-6.74-14.68,11.38c-16.7,12.94-32.17,27.74-39.41,37.68-4.18,5.74-4.94,7.55-4.95,11.73-.04,13.75-5.98,27.72-15.93,37.48-6,5.88-7.92,8.76-12.64,18.93-8.46,18.23-9.19,21.92-6.98,35.06,1.94,11.5,1.31,17.69-1.87,18.3-.9.17-3.47-1.14-5.71-2.93-7.7-6.12-8.71-3.67-4.2,10.12,2.53,7.75,2.74,9.68,2.35,21.83-.28,8.68-.97,14.43-1.98,16.49-2.02,4.13-7.4,7.68-13.04,8.59-2.48.4-6,1.64-7.83,2.76-2.89,1.75-5.51,2.02-19.87,2.02h-16.55l-1.84-2.8v-.05Z" style="stroke:#000; stroke-miterlimit:10; stroke-width:4px;"/><path id="c" d="m592.94,547.72c2.55-1.75,4.79-3.55,4.99-4s3.16-2.7,6.57-5c7.52-5.06,21.51-18.7,29.62-28.88,27.35-34.29,31.68-73.21,11.81-106.08-4.16-6.88-13.55-17.1-15.71-17.1-.79,0-1.44,4.16-1.86,12-1.72,31.4-15.82,59.46-40.72,81.06-7.57,6.57-30.78,22.97-34.77,24.56-1.11.44-.57,1.48,2.07,3.96,3.54,3.33,10.77,17.26,10.89,20.99.03,1.1,2.84,3.96,6.49,6.62,3.54,2.58,8.17,7.02,10.3,9.87s4.28,5.18,4.78,5.18,3-1.43,5.54-3.19h0Z"/><path id="d" d="m406.85,607.56l8-.66-.28-3.2c-.15-1.76.38-5.96,1.19-9.33s1.35-6.13,1.21-6.13-2.11.77-4.36,1.71c-9.98,4.17-22.19-.26-27.96-10.14l-2.74-4.7,3.14.7c1.73.39,5.6,1,8.6,1.37,5.17.63,5.69.46,9.54-3.07l4.07-3.73-1.28-6.92c-.7-3.81-1.28-8.31-1.28-10v-3.08h-25.33c-23.16,0-26.19-.22-35.43-2.54-22.87-5.76-38.46-14.71-55.24-31.71-8.95-9.07-11.09-10.76-11.69-9.22-.4,1.04-.75,8.36-.76,16.28-.03,16.21,1.32,22.32,7.54,34.2,10.01,19.12,29.31,34.53,53.2,42.46,21.2,7.04,45.52,9.73,69.85,7.72h0Z"/><path id="e" d="m598.18,626.63c-1.49,0-11.19,10.6-14.54,15.89-1.76,2.78-1.83,3.3-.45,3.3,3.17,0,9.23,4.4,9.23,6.7,0,2.06.24,2,3.29-.9,1.81-1.72,3.97-4.43,4.8-6.01,2.91-5.56,1.25-18.98-2.34-18.98h.01Zm-138.09,49.06c-10.27,0-10.58.07-10.54,2.4.1,6.67,7.88,12.55,16.49,12.48,2.93-.02,6.77-.7,8.53-1.51,2.05-.94,2.54-1.49,1.35-1.55-2.09-.1-3.45-4.14-2.7-8.05.66-3.44-.49-3.77-13.14-3.77h.01Z"/><path id="f" d="m386.72,816.54c-1.42.16-9.97,7.15-16.82,13.81-4.54,4.41-9.59,10.77-12.47,15.7-4.88,8.33-10.3,19.71-10.3,21.64,0,1.17,16.09,1.28,23.29.16,4.32-.67,4.79-1.08,6.94-6.05,1.27-2.93,3.62-7.53,5.24-10.22,2.19-3.66,2.93-6.29,2.93-10.44,0-5.21-.13-5.47-2.13-4.4-1.62.87-2.18,2.35-2.31,6.17-.17,4.64-.21,4.72-.6,1.03-.23-2.2-.71-4-1.07-4-1.91,0-4.55,3.95-4.57,6.83,0,1.82-.48,4.02-1.05,4.9-.79,1.22-1.04.8-1.05-1.78,0-1.86-.23-4.02-.49-4.8-.53-1.59,7.44-8.21,18.02-14.96l6.97-4.45-3.89-2.2c-2.14-1.21-4.42-3.17-5.06-4.34-.64-1.17-1.27-2.31-1.39-2.53-.03-.05-.09-.07-.19-.06h0Zm487.2,4.33c-.56-.1-1,.43-1.42,1.51-.9,2.35-6.61,4.47-14.4,5.35-6.04.68-7.35.46-13.01-2.25l-6.29-3.01-4.94,2.47c-9.6,4.79-17.2,5.11-21.71.91-2.22-2.07-2.34-2.07-3.76-.16-2.81,3.8-7.15,19.09-7.72,27.19-.79,11.36-.19,13.08,5.12,14.67,5.56,1.67,18.07,2.74,21.61,1.85,2.57-.65,2.71-1.05,2.73-8.13.01-4.1.32-9.26.68-11.46,1.08-6.59,6.11-22.68,7.09-22.68.5,0,.18,1.76-.72,3.9-.9,2.15-1.38,4.79-1.08,5.87s.81,3.04,1.13,4.36c.56,2.31.52,2.3-.94-.18-1.46-2.5-1.54-2.52-2.2-.41-.38,1.2-.2,3.47.41,5.05,1.52,3.99,1.37,4.56-.55,2.14-1.53-1.93-1.62-1.75-1.25,2.73.22,2.64.78,5.76,1.25,6.93l.86,2.13-1.81-2.13c-1.73-2.04-1.78-1.88-1.14,3.71.37,3.22.84,6.02,1.04,6.22s1.31-.13,2.45-.74c2.16-1.16,3.42-6.82,3.45-15.47,0-2.41.53-5.1,1.15-5.98.82-1.15.95,1.6.49,9.79-.64,11.34.12,14.46,2.87,11.71,1.97-1.97,1.5-25.37-.65-32.54-1.03-3.44-1.64-6.48-1.35-6.77s1.34,2.04,2.33,5.18c1.21,3.85,1.97,11,2.33,21.97l.53,16.26h5c2.75,0,8.81-1,13.47-2.22s10.2-3.19,12.32-4.38c9.43-5.3,9.74-19.69.81-37.39-1.99-3.94-3.25-5.83-4.18-5.99h0Zm-772,1.95l-4.47,5.62c-7.06,8.87-13.24,18.95-15.72,25.66-2.22,6-3.09,14.63-1.48,14.62.44,0,7.41-.7,15.49-1.55s15.16-1.84,15.73-2.19,1.04-1.78,1.04-3.16,1-4.83,2.23-7.67c5.16-11.9,5.07-12.45-.73-4.35-2.2,3.08-4.48,6.08-5.06,6.67-1.5,1.52,3.33-6.59,7.22-12.12,6.57-9.36,8.08-11.87,7.13-11.87-1.29,0-16.41,16.12-21.75,23.19-2.33,3.08-4.45,5.6-4.71,5.6-1.31,0,16.07-22.58,20.88-27.13,1.82-1.72,3.31-3.46,3.31-3.87s-2.6-.95-5.79-1.22c-4.13-.34-6.87-1.3-9.56-3.35l-3.77-2.88h.01Zm302.31,2.4s-.03.01-.05.02c-.59.3-2.93,1.4-5.2,2.46-2.73,1.27-4.62,3.12-5.6,5.44-2.64,6.31-2.4,6.23,5.5-1.9,3.39-3.49,5.74-6.14,5.35-6.03h0Zm148,.84c-.31,0-1.98,1.18-3.7,2.63-3.9,3.28-17.07,7.31-22.02,6.73l-3.69-.43.66,7c.36,3.85.67,11.89.67,17.86,0,10.41.11,10.88,2.41,11.31,2.99.56,12.26-.13,19.99-1.5,3.23-.57,7.85-1.75,10.28-2.63,5.47-1.97,6.11-4.34,4.17-15.39-1.31-7.48-7.51-25.58-8.77-25.58h0Zm-63.68.14l-2.49,3.38c-3.55,4.81-7.75,18.95-8.49,28.59l-.63,8.23,4.15,1.18c15.86,4.5,22.26,4.68,34.32.96h0l6.85-2.11-.51-7.65c-.28-4.21-.79-11.74-1.11-16.73s-1.14-10.51-1.81-12.26l-1.22-3.19-1.5,2.84c-1.3,2.46-1.28,3.45.1,7.37,2.09,5.93,1.29,6.63-1.01.88-1.76-4.4-1.82-4.44-3.41-2.16-1.46,2.09-1.41,2.84.5,7.89,3.47,9.17,3.56,10.21.32,3.51-2.82-5.82-3.16-6.15-4.26-4.11-.93,1.75-.73,3.56.92,8.37,2.75,7.98,2.58,8.72-.46,2.07l-2.44-5.33-1.15,4.04c-.9,3.17-.81,4.9.41,8,1.27,3.22,1.28,3.61.07,2.09-2.18-2.74-2.85-2.31-2.85,1.87,0,2.05-.51,3.73-1.14,3.73s-.9-.84-.61-1.87c.29-1.03.86-4.03,1.26-6.67.41-2.64,2.32-9.24,4.25-14.66l3.51-9.87h-5.5c-8.63-.02-13.55-1.78-14.9-5.35l-1.15-3.04h-.02Zm-33.7,2.19l-3.28,3.06c-3.96,3.7-8.25,4.68-20.19,4.6-9.26-.06-18.42-2.15-23.24-5.31-2.57-1.68-2.74-1.59-9.49,5.06-8.96,8.83-18.44,23.07-21.12,31.72l-.79,2.55,23.85-.61c15.42-.39,26.06-1.16,30.11-2.17,3.45-.86,7.53-2.5,9.07-3.65,7.18-5.35,17.3-26.37,15.72-32.66l-.65-2.6h0Zm-282.28,3.58l-3.36,2.83c-2.36,1.99-5.18,3.06-9.46,3.59-7.35.92-20.92-.98-27.65-3.86l-4.81-2.06-3.65,7.9c-2.01,4.34-5.14,12.33-6.95,17.74-2.67,7.96-3.03,10.03-1.88,10.83,2.03,1.41,31.96.12,40.63-1.75,13.96-3.02,15.31-4.99,16.46-24.04l.67-11.17h0Zm218.56.15c-.45,0-1.17.46-2.16,1.39-1.72,1.6-2.39,3.44-2.39,6.58,0,3.74.23,4.17,1.59,3.03.88-.73,2.1-3.22,2.73-5.54.99-3.67,1.09-5.44.23-5.46h0Z" style="stroke:#fff; stroke-miterlimit:10; stroke-width:3px;"/><path id="g" d="m113.05,871.25c-1.78-2.71-2.08-2.78-9.45-2.14-4.19.36-12.06.97-17.48,1.36l-9.87.7v-3.67c0-12.12,8.35-28.82,22.12-44.25,10.98-12.29,12.01-13.71,13.68-18.74,1.31-3.94,3.29-6.5,8.68-11.24,21.75-19.12,23.12-21,32.62-45.07,4.48-11.33,4.88-13.16,5.33-24,.6-14.59,3.48-24.03,12.91-42.4,6.36-12.39,6.8-13.71,7.49-22.7,3.07-39.95,11.8-71.68,26.96-98.01l4.88-8.47-.67-12.32c-1.29-23.66,2.14-53.47,8.41-73.11,1.5-4.69,5.3-14.05,8.45-20.8s7.84-17.8,10.41-24.57c5.18-13.62,12.23-26.19,20.78-37.06,6.11-7.78,18.6-26.32,28.3-42.03,3.37-5.45,7.89-12.24,10.05-15.09l3.93-5.18-5.16.38c-6.34.47-7.49-1.42-2.35-3.86,3.63-1.72,7.8-7.23,12.42-16.4l2.34-4.65-4.77.38c-5.48.44-5.46.18.89-8.78,1.91-2.69,3.8-5.93,4.2-7.2.4-1.27,1.2-2.31,1.76-2.31s2.45-1.45,4.18-3.22c1.73-1.77,4.83-4.36,6.88-5.75l3.73-2.53-2.65-.67c-4.14-1.04-3.15-3.22,2.95-6.47,3.08-1.64,6.69-4.33,8.03-5.98,1.34-1.64,5.19-4.66,8.56-6.71l6.13-3.72,7.97,1.11c10.33,1.44,9.93,1.48,18.64-1.68,5.44-1.98,9.62-2.72,15.41-2.74,15.61-.05,31.19,6.58,76.12,32.41,35.88,20.62,42.11,23.58,54.1,25.64,31.78,5.48,67.33,19.56,92.19,36.5l10.66,7.27h16.53c9.09,0,19.47-.34,23.06-.76l6.53-.77,9.47,6.28c11.99,7.95,26.1,20.69,39.99,36.11,10.59,11.76,11.16,12.21,22.7,17.81,15.97,7.75,22.83,9.4,36.91,8.83,9.19-.37,12.29-.95,17.27-3.23,28.86-13.21,22.98-45.88-11.41-63.43-13.33-6.8-26.61-11.44-54.23-18.92-26.61-7.21-40.62-11.99-54.74-18.69-27.11-12.87-42.89-27.83-49.52-46.95-3.2-9.21-3.44-26.46-.5-35.19,5.7-16.93,16.01-27.42,32.61-33.16,5.65-1.95,9.31-2.41,19.73-2.45,15.11-.05,23.57,1.97,39.67,9.5,13.6,6.35,22.62,9.05,30.33,9.05,10.74,0,17.43-4.33,17.23-11.17-.15-5.13-2.79-8.22-13.19-15.42-14.94-10.34-20.89-17.98-22.06-28.31-1.03-9.16,4.99-19.92,12.8-22.86,1.61-.61,2.93-.98,2.93-.82s-.96,2.16-2.13,4.47c-1.17,2.3-2.12,5.88-2.11,7.96.03,4.52,3.07,11.53,6.22,14.34l2.28,2.03v-3.75c0-3.96,3.37-9.37,5.84-9.37.78,0,2.63,2.04,4.1,4.53,3.86,6.53,8.6,10.57,18.65,15.86,17.85,9.41,24.47,16.94,26.92,30.63,1.08,6.04,1.01,8.17-.46,13.91-.96,3.73-3.16,8.88-4.89,11.45-1.73,2.57-2.67,4.67-2.07,4.67,1.95,0,11.34-10.21,14.8-16.1l3.39-5.77-.4,9.6c-.46,11-3.38,18.28-10.21,25.45-3.6,3.78-3.71,4.05-1.26,3.31,1.47-.44,4.35-1.85,6.4-3.13s4.45-2.75,5.33-3.27c2.9-1.72-5.37,7.89-11.43,13.3-19.72,17.57-47.69,19.77-67.85,5.34l-5.98-4.28-.68,2.69c-.37,1.48-.49,4.61-.27,6.96l.41,4.26-4.41-4.33c-2.43-2.38-5.54-6.82-6.92-9.85-1.38-3.04-2.65-5.72-2.82-5.97-.18-.25-1.63.76-3.24,2.25-2.37,2.2-8.46,5.13-10.64,5.13-.26,0,.77-1.48,2.29-3.28,4.92-5.84,3.46-19.46-2.91-27.19-7.18-8.71-21.36-11.53-32.33-6.41-12.65,5.89-19.05,15.75-18.34,28.3.58,10.22,4.63,17.87,14.82,27.98,6.83,6.78,10.16,9.12,19.29,13.56,11.01,5.35,19.7,8.02,61.16,18.82,21.96,5.72,35.35,10.42,49.06,17.24,27.1,13.48,44.93,30.53,52.43,50.14,3.76,9.83,4.6,24.88,2,35.76-7.17,29.98-29.01,45.32-65.35,45.91-12.59.2-14.7.81-12.07,3.46,1.13,1.14,3.26,16.65,3.26,23.76,0,3.67,1.24,6.87,5.76,14.96,13.37,23.89,24.93,55.5,30.55,83.55,1.8,8.98,4.64,20.65,6.32,25.92,6.24,19.65,10.68,41.07,12.72,61.32.65,6.51,1.94,12.23,3.6,16,4.05,9.21,5.13,15.23,6.14,34.12,1.34,25.29,6.54,52.83,13.53,71.69,2.97,8.02,13.77,23.62,19.65,28.38,8.06,6.53,15.78,27.46,14.15,38.34-1.24,8.26-4.93,11.94-17.05,17-2.94,1.23-19.08,3.47-25.07,3.49-1.92,0-3.13-.81-3.98-2.66-1.53-3.37-3.31-3.37-7.23,0-2.85,2.45-3.95,2.67-13.48,2.67-10.01,0-10.58-.13-16.12-3.68-3.28-2.1-6.03-4.73-6.41-6.13-2.41-9,3.01-32.75,9.48-41.55,9.87-13.41,10.38-31.37,1.59-55.22-6.71-18.2-18.26-36.92-27.38-44.4-3.89-3.19-4.91-4.9-6.8-11.44-5.1-17.6-4.74-16.96-16.86-29.2-6.3-6.35-14.46-15.75-18.15-20.88-3.68-5.13-6.92-9.33-7.2-9.33s-2.52,1.01-4.99,2.25c-6.45,3.23-10.98,7.89-15.96,16.42-2.4,4.11-7.55,10.67-11.44,14.58-5.83,5.85-8.16,7.42-13.16,8.88-10.86,3.16-17.08.31-31.48-14.4-11.91-12.17-14.49-13.37-19.65-9.14-8.65,7.1-20.52,15.73-25.35,18.44-5.78,3.25-6.13,4.13-3.59,9.05l1.71,3.3-3.31-.66c-4.35-.87-4.26.09.94,10.44,2.33,4.65,4.13,8.55,4,8.68s-2.04-.38-4.24-1.14-4-1.23-4-1.06c0,2.1,5.58,12.17,9.88,17.83,4.36,5.74,6.05,7.2,8.33,7.2,3.92,0,5.29,2.04,6,8.95l.61,5.9-5.41,5.92c-5.69,6.23-12.47,18.48-13.62,24.61-.64,3.39-1.48,4.02-12.57,9.48-6.54,3.22-15.54,6.77-20.02,7.88-7.33,1.83-8.86,1.89-15.46.61-11.1-2.15-11.55-2.06-13.69,2.68-1.84,4.09-1.83,4.26.51,8.42,1.31,2.34,3.55,4.78,4.98,5.43,3.25,1.48,8.07,11.54,10.98,22.94,2.7,10.56,2.8,17.73.28,20.84-2.86,3.54-15.05,6.72-27.65,7.22-9.84.39-11.07.23-13.04-1.74-2.28-2.28-4.85-2.05-5.84.52-.45,1.18-3.08,1.52-11.8,1.52-11.75,0-18.35-1.13-25.91-4.43-5.16-2.25-5.24-2.63-3.4-15.09,2.06-13.95,6.74-25.47,12.62-31.05,4.03-3.83,5.02-8.48,3.25-15.37-1.2-4.67-1.08-6.36,1.07-15.24,1.33-5.5,2.65-15.03,2.94-21.19l.53-11.2-2.84,3.73c-7.36,9.66-11.47,21.93-12.86,38.39-.97,11.51-2.24,15.47-5.94,18.59-1.79,1.51-3.67,2.74-4.16,2.74s-1.88-1.59-3.08-3.53c-2.85-4.61-6.92-6.89-9.08-5.09-2.6,2.16-3.13,7.08-1.1,10.18,6.39,9.75-8.42,39.89-21.28,43.33-2.41.65-5.07,1.73-5.89,2.4-1.62,1.33-84.65,1.82-85.95.51-.96-.96,5.15-15.82,9.72-23.65,5.44-9.31,14.56-20.15,22.49-26.73,4.82-4,11.33-7.76,19.52-11.28,10.04-4.32,12.8-7.15,12.8-13.18,0-7.9,3.65-13.16,13.08-18.8,9.76-5.84,14.82-10.51,23.14-21.36,8.41-10.97,13.53-19.16,17.71-28.34l3.54-7.78-2.13-2.7c-1.17-1.49-6.26-5.42-11.31-8.75l-9.18-6.05-8.32,1.79c-11.61,2.49-20.62,5.56-28.41,9.67-3.67,1.93-6.67,3.15-6.67,2.71s.73-2.86,1.61-5.38c.89-2.51,1.49-4.68,1.33-4.81-1.1-.98-13.9,2.59-15.93,4.46-3.1,2.84-7.86,5.25-12.26,6.2-2.93.63-3.48,1.29-4.1,4.97-.93,5.51-7.33,14.95-12.93,19.06-4.91,3.6-12.02,6.43-16.17,6.43h-2.72l2.34-2.5c2.13-2.27,4.9-9.12,4.03-9.99-.2-.2-2.95.85-6.11,2.32-7.35,3.42-14.95,3.59-20.12.44l-3.7-2.25,3.83-1.97c4.5-2.31,9.15-7.5,10.09-11.27.37-1.46.44-6.11.17-10.32-.82-12.56-5.71-20.23-26.94-42.31-6.49-6.75-14.46-15.3-17.72-19.01l-5.93-6.74-14.68,11.38c-16.7,12.94-32.17,27.74-39.41,37.68-4.18,5.74-4.94,7.55-4.95,11.73-.04,13.75-5.98,27.72-15.93,37.48-6,5.88-7.92,8.76-12.64,18.93-8.46,18.23-9.19,21.92-6.98,35.06,1.94,11.5,1.31,17.69-1.87,18.3-.9.17-3.47-1.14-5.71-2.93-7.7-6.12-8.71-3.67-4.2,10.12,2.53,7.75,2.74,9.68,2.35,21.83-.28,8.68-.97,14.43-1.98,16.49-2.02,4.13-7.4,7.68-13.04,8.59-2.48.4-6,1.64-7.83,2.76-2.89,1.75-5.51,2.02-19.87,2.02h-16.55l-1.84-2.8v-.05Zm402.36-2.7l6.85-2.12-.52-7.65c-.28-4.21-.78-11.74-1.11-16.73-.32-4.99-1.14-10.51-1.82-12.26l-1.22-3.19-1.5,2.84c-1.3,2.46-1.28,3.45.1,7.37,2.09,5.93,1.29,6.63-1.01.88-1.76-4.4-1.81-4.43-3.4-2.16-1.46,2.09-1.41,2.84.5,7.89,3.47,9.17,3.56,10.22.32,3.52-2.82-5.82-3.16-6.15-4.26-4.11-.93,1.75-.73,3.55.92,8.37,2.75,7.98,2.58,8.72-.46,2.07l-2.44-5.33-1.15,4.04c-.9,3.17-.81,4.9.41,8,1.27,3.22,1.28,3.61.08,2.09-2.18-2.74-2.85-2.31-2.85,1.87,0,2.05-.51,3.73-1.14,3.73s-.9-.84-.61-1.87c.29-1.03.86-4.03,1.26-6.67.41-2.64,2.32-9.24,4.25-14.66l3.51-9.87h-5.5c-8.63-.02-13.55-1.78-14.9-5.35l-1.15-3.04-2.49,3.38c-3.55,4.81-7.75,18.95-8.49,28.59l-.63,8.23,4.15,1.18c15.86,4.5,22.26,4.68,34.32.96h-.02Zm3.03-22.8c-1.03-2.68-.73-3.37.53-1.21.62,1.07.91,2.17.63,2.45-.27.27-.8-.28-1.16-1.23h0Zm28.13,23.91c3.23-.57,7.85-1.75,10.27-2.63,5.47-1.97,6.11-4.33,4.17-15.39-1.31-7.48-7.51-25.58-8.77-25.58-.31,0-1.98,1.19-3.7,2.63-3.9,3.28-17.07,7.3-22.01,6.73l-3.7-.43.66,7c.36,3.85.66,11.89.67,17.86,0,10.41.11,10.88,2.41,11.31,2.99.56,12.26-.13,20-1.5h0Zm318.41-1.02c4.66-1.22,10.2-3.19,12.32-4.38,9.43-5.3,9.74-19.69.81-37.39-3.18-6.3-4.5-7.36-5.6-4.48-.9,2.35-6.61,4.47-14.4,5.36-6.04.68-7.35.46-13.01-2.25l-6.29-3.01-4.94,2.47c-9.6,4.79-17.2,5.11-21.71.91-2.22-2.07-2.34-2.08-3.76-.17-2.81,3.8-7.15,19.09-7.72,27.19-.79,11.36-.19,13.08,5.12,14.67,5.56,1.67,18.07,2.74,21.61,1.85,2.57-.65,2.71-1.05,2.73-8.13.01-4.1.32-9.26.68-11.46,1.08-6.59,6.11-22.68,7.09-22.68.5,0,.18,1.76-.72,3.9-.9,2.15-1.38,4.79-1.08,5.87s.81,3.04,1.13,4.36c.56,2.31.52,2.3-.94-.18-1.46-2.5-1.54-2.51-2.2-.41-.38,1.2-.2,3.47.4,5.05,1.52,3.99,1.37,4.56-.55,2.14-1.53-1.93-1.62-1.75-1.25,2.73.22,2.64.78,5.76,1.25,6.93l.86,2.13-1.81-2.13c-1.73-2.04-1.78-1.88-1.14,3.71.37,3.22.84,6.01,1.04,6.22.2.2,1.31-.13,2.45-.74,2.16-1.16,3.43-6.82,3.46-15.48,0-2.41.53-5.1,1.15-5.98.82-1.15.95,1.6.49,9.78-.64,11.34.12,14.46,2.87,11.71,1.97-1.97,1.5-25.37-.65-32.54-1.03-3.44-1.64-6.48-1.35-6.77s1.33,2.04,2.32,5.18c1.21,3.85,1.97,11,2.34,21.97l.53,16.26h5c2.75,0,8.81-1,13.47-2.22h0Zm-709.53-1.45c13.96-3.02,15.31-4.99,16.46-24.04l.67-11.17-3.36,2.83c-2.36,1.99-5.18,3.06-9.46,3.59-7.35.92-20.92-.98-27.65-3.86l-4.81-2.06-3.65,7.9c-2.01,4.34-5.13,12.33-6.95,17.74-2.67,7.96-3.03,10.03-1.88,10.83,2.03,1.41,31.96.12,40.63-1.76h0Zm275.27.11c3.45-.86,7.53-2.5,9.07-3.65,7.18-5.35,17.3-26.37,15.73-32.66l-.65-2.6-3.28,3.06c-3.96,3.7-8.25,4.68-20.19,4.6-9.26-.06-18.42-2.15-23.24-5.31-2.57-1.68-2.73-1.59-9.49,5.06-8.96,8.83-18.44,23.07-21.12,31.72l-.79,2.55,23.85-.61c15.42-.39,26.06-1.16,30.11-2.17h0Zm-334.99-.13c8.08-.85,15.16-1.84,15.73-2.19.57-.35,1.04-1.78,1.04-3.16s1.01-4.83,2.24-7.67c5.16-11.9,5.07-12.45-.73-4.35-2.2,3.08-4.48,6.08-5.06,6.67-1.5,1.52,3.33-6.59,7.22-12.12,6.57-9.36,8.08-11.87,7.13-11.87-1.29,0-16.41,16.12-21.75,23.19-2.33,3.08-4.45,5.6-4.71,5.6-1.31,0,16.07-22.58,20.88-27.13,1.82-1.72,3.31-3.46,3.31-3.87s-2.6-.95-5.79-1.21c-4.13-.34-6.87-1.3-9.56-3.35l-3.77-2.87-4.47,5.62c-7.06,8.87-13.24,18.95-15.72,25.66-2.22,6-3.1,14.63-1.48,14.62.44,0,7.41-.7,15.49-1.55h0v-.02Zm274.69.67c4.32-.67,4.79-1.08,6.94-6.05,1.27-2.93,3.62-7.53,5.24-10.23,2.19-3.66,2.93-6.29,2.93-10.44,0-5.21-.13-5.47-2.13-4.4-1.62.87-2.18,2.35-2.31,6.17-.17,4.64-.21,4.72-.6,1.03-.23-2.2-.71-4-1.07-4-1.91,0-4.55,3.95-4.57,6.83,0,1.82-.48,4.02-1.05,4.9-.79,1.22-1.04.79-1.05-1.78,0-1.86-.23-4.02-.49-4.8-.53-1.59,7.44-8.21,18.02-14.96l6.97-4.45-3.89-2.21c-2.14-1.21-4.42-3.17-5.06-4.34-.64-1.17-1.27-2.31-1.39-2.53-.46-.83-9.7,6.64-17,13.75-4.54,4.41-9.59,10.77-12.47,15.7-4.88,8.33-10.3,19.71-10.3,21.64,0,1.17,16.09,1.28,23.29.16h0Zm-5.74-16.5c5.21-6.04,9.16-8.66,4.92-3.27-1.22,1.55-2.22,3.59-2.23,4.53-.01,1.37-.2,1.43-.93.28-.73-1.15-1.21-1.04-2.38.6-.81,1.12-2.18,2.47-3.05,2.99s.78-1.79,3.67-5.13h0Zm26.23-13.75c1.51-5.6.95-6.76-1.94-4.07-1.72,1.6-2.38,3.44-2.38,6.58,0,3.74.22,4.17,1.59,3.03.88-.73,2.1-3.22,2.73-5.54h0Zm7.98-6.34c3.5-3.6,5.89-6.3,5.3-6.01-.59.3-2.93,1.41-5.2,2.47-2.73,1.27-4.63,3.11-5.6,5.44-2.64,6.31-2.4,6.23,5.5-1.9h0Zm-238.11,2.38c.29-1.12.13-4.12-.36-6.67-1.5-7.75-.94-8.22,1.19-1,1.11,3.76,1.76,7.24,1.46,7.73-.31.5.45.9,1.69.9,1.56,0,2.73-1.14,3.81-3.73,1.41-3.38,1.36-4.51-.56-11.84-2.08-7.93-2.08-8.21-.15-12.53,1.08-2.43,2.24-5.14,2.56-6.02.32-.88.62-.14.67,1.64.06,2.49,1.11,4.03,4.54,6.67,2.45,1.89,4.9,3.43,5.45,3.43.95,0,.65-7.21-.92-21.98-.86-8.09.86-14.43,8.12-29.94,2.91-6.21,5.29-11.47,5.29-11.68s-.84-.41-1.87-.43c-1.03-.03.31-1.19,2.98-2.57,12.33-6.43,20.03-20.32,21.89-39.5.63-6.5,1.31-8.3,5.28-13.86,8.18-11.49,25.23-27.56,43.97-41.46,5.43-4.02,9.86-7.62,9.86-7.99s-1.14-2.1-2.53-3.84l-2.53-3.16-4.49,2.97c-2.47,1.63-8.17,6.09-12.66,9.89-6.97,5.9-6.47,5.28,3.36-4.22l11.53-11.14-3.31-5.38c-3.51-5.71-8.58-17.38-8.53-19.65.02-.74,2.06,2.49,4.54,7.18s6.02,10.69,7.86,13.33c4.83,6.91,19.13,23.22,32.25,36.79,19.8,20.48,26.18,29.17,29.34,39.92,3.33,11.36,1.67,20.61-4.87,27.15-4.48,4.48-4.15,5.93,1.34,5.97,7.69.05,16.21-5.49,19.34-12.56,3.07-6.94,2.35-21.14-1.47-28.85-1.49-3.01-2.12-4.99-1.4-4.39,5.33,4.43,8.68,24.61,5.52,33.3-2.27,6.24-3.14,17.85-1.35,17.85,2.52,0,6.52-4.05,9.63-9.77,3.93-7.21,4.98-20.69,2.31-29.77-.92-3.14-1.49-5.89-1.26-6.12.74-.74,3.64,10.39,4.36,16.74.63,5.56-.21,12.65-2.23,18.79-1.57,4.77,3.79-3.33,6-9.07,1.87-4.87,2.16-7.32,1.68-14.42-1.04-15.46-4.49-22.14-19.7-38.22-8.42-8.9-15.14-17.91-15.14-20.3,0-.59,1.38,1.07,3.07,3.67,1.69,2.61,7.12,8.61,12.08,13.34,13.38,12.76,21.12,24.28,21.12,31.42,0,1.16.44,2.11.98,2.11,1.87,0,3.52-7.69,3.09-14.4-.48-7.48-2.83-11.54-17.93-30.91-7.95-10.2-10.37-14.9-3.21-6.24,2.35,2.84,7.56,8.93,11.59,13.53,10.15,11.59,12.33,16.25,12.35,26.39.02,7.06-.36,8.66-2.9,12.51-1.84,2.78-2.92,5.85-2.92,8.31,0,3.86.04,3.89,3.74,3.29,5.29-.86,9.73-4.38,11.38-9.02.83-2.34,1.39-8.37,1.35-14.65-.05-9.3-.43-11.49-2.99-17.06-1.61-3.52-5.11-9.28-7.77-12.8l-4.84-6.4,6.12,6.35c8.57,8.89,13.27,20.29,13.27,32.18,0,1.97.36,3.58.8,3.57.44,0,2.84-1.18,5.33-2.6,5.83-3.33,5.96-1.86.14,1.6-6.05,3.6-8.41,5.98-8.41,8.45,0,1.79.52,2.02,3.47,1.5,6.54-1.14,15.2-3.8,16.8-5.17.88-.75,2.8-1.97,4.27-2.7,1.95-.97,1.35.06-2.28,3.86-4.17,4.38-8.16,10-7.09,9.99.17,0,3.72-1.4,7.9-3.1,4.18-1.7,11.96-4.15,17.3-5.45l9.7-2.35-4.11-4.95c-2.26-2.72-4.87-6.45-5.79-8.29-3.56-7.06-6.15-19.17-6.78-31.59-.35-6.89-.74-12.53-.88-12.53s-3.13,1.92-6.65,4.27c-7.49,5-13.89,7.46-19.42,7.46-5.08,0-8.05-2.97-7.04-7.02.62-2.45.45-2.73-1.21-2.02-4.23,1.81-21.2,1.86-27.33.08-5.72-1.66-5.94-1.86-4.98-4.39.96-2.52.82-2.65-2.97-2.66-6.96-.02-20.43-5.11-23.58-8.91-1.02-1.23-1.05-2.14-.11-3.9.67-1.26,1.07-2.43.87-2.6-.19-.17-3.04-1.08-6.32-2.02s-7.29-2.76-8.92-4.03c-2.59-2.04-2.89-2.88-2.45-6.79.48-4.27.35-4.52-3.08-5.76-5.46-1.97-9.81-6.19-11.21-10.87-1.73-5.78-.32-7.13,5.16-4.95,4.68,1.87,12.07,3.99,12.07,3.47,0-.19-3.01-2.5-6.69-5.13-14.31-10.21-26.24-25.93-30.94-40.74-2.09-6.58-2.35-9.61-2.24-25.6.07-9.97.55-19.42,1.07-20.99.93-2.83,1.02-2.77,7.88,5.63,18.29,22.39,40.38,35.32,69.32,40.57,9,1.63,44.36,1.74,49.56.16,2.51-.76,3.34-1.78,3.98-4.9,2.18-10.48,9.99-20.03,20.21-24.7,3.51-1.6,7.2-4.29,8.83-6.43,1.54-2.02,5.07-5.01,7.83-6.63,4.21-2.48,6.24-2.95,12.5-2.94,4.81,0,8.79.66,11.2,1.82,3.56,1.72,3.58,1.77.53,1.05-5.98-1.41-16.87-.74-20.8,1.29-7.57,3.91-13.81,11.77-16.15,20.35-.67,2.47-.76,2.04-.38-1.87.59-6.09-.09-6.26-7.15-1.73-9.99,6.41-14.76,16.6-14.64,31.22.12,13.95,1.08,14.49,6.2,3.47,2.41-5.18,5.41-10.88,6.68-12.66,2.68-3.77,9.56-7.19,14.51-7.22,2.51-.02,3.47-.51,3.47-1.8,0-3.19,6.49-11.98,11.65-15.76,6.3-4.62,13.09-6.56,18.79-5.36l4.22.89-6.54.7c-14.79,1.57-26.47,13.96-28.15,29.84l-.73,6.93-.15-7.2c-.14-6.5-.36-7.2-2.34-7.2-6.63,0-12.29,6.15-19.16,20.86-8.06,17.24-14.28,22.65-24.33,21.17l-4.98-.73,2.13,2.43c2.94,3.35,12.02,7.44,16.53,7.44,6.88,0,11.73-2,13.96-5.77,1.14-1.93,7.21-8.26,13.48-14.06,12.28-11.35,10.71-7.86-1.91,4.25-10,9.59-13.18,16.18-13.21,27.33-.02,8.51,2.13,14.45,7.01,19.33l2.34,2.34-.64-2.46c-.99-3.78,1.04-12.64,4.52-19.74,1.8-3.68,6.83-10.42,11.83-15.86,5.67-6.17,9.99-12.11,12.43-17.06,2.06-4.2,3.43-6.17,3.06-4.4-1.37,6.45-7.14,16.2-14.47,24.46-4.13,4.65-9.06,11.6-10.95,15.44-3.01,6.11-3.44,8.06-3.44,15.54s.37,9.09,2.6,12.29l2.6,3.73-2.48-2.13c-1.36-1.17-3.23-3.81-4.15-5.87l-1.66-3.73-.76,5.33c-.42,2.93-.8,12.45-.85,21.15-.08,12.7.34,17.52,2.1,24.42,4.11,16.1,8.32,21.61,24.47,32.01,10.8,6.96,12.69,8.58,16.38,14.02l2.81,4.15v-3.35c0-1.84.48-3.35,1.06-3.35,1.24,0,9.1,7.75,12.48,12.31l2.34,3.16.06-4.23.06-4.23,5.96,5.83c7.24,7.08,13.95,16.3,18.55,25.48,3.38,6.75,8.55,24.61,8.55,29.55,0,4.49.62,3.99,15.45-12.5,2.1-2.34,3.7-2.87,10.32-3.43,13.88-1.18,27.68-6.96,40.66-17.04,5.39-4.19,6.88-4.79,13.28-5.4,3.97-.38,9.01-1.19,11.2-1.8l3.99-1.12-4.34-5.49c-4.82-6.1-8.83-13.51-11.67-21.59-1.04-2.95-2.24-6.32-2.68-7.49-.54-1.43.71-.72,3.76,2.13,2.51,2.35,4.29,3.55,3.96,2.67-6.29-16.93-10.9-36.07-5.58-23.17,1.14,2.77,2.38,5.03,2.75,5.03s.63-4.22.58-9.38c-.1-10.31-.61-8.94,12.73-33.77,4.44-8.26,5.2-10.59,5.62-17.23.97-15.16-5.84-30.03-25.29-55.17l-4.82-6.24-1.34,5.17c-2.54,9.8-2.89,17.93-.94,21.85l1.78,3.58-2.35-2.34c-3.2-3.19-3.77-11.46-1.53-22.45,3.56-17.47.59-28.26-10.62-38.5-9.37-8.56-13.96-10.3-27.18-10.3-6.16,0-13.6.33-16.53.73l-5.33.73,5.65-2.02c7.93-2.83,16.66-3.59,24.59-2.14,3.73.68,6.93,1.08,7.13.88,1.05-1.05-6.28-15.3-9.54-18.56-2.1-2.1-3.83-4.19-3.83-4.64,0-1.44-12.09-7.21-18-8.58-10.72-2.49-24.36.63-35.51,8.13-3.02,2.03-5.95,3.98-6.53,4.34-.57.35.07-.86,1.42-2.69,2.97-4.02,8.86-8.04,15.68-10.72l5.03-1.98-3.71-2.26c-6.6-4.03-14.78-6.06-22.6-5.63-3.48.19-10.17,5.81-12.24,10.27l-1.5,3.22.63-3.2c.83-4.17,3.59-7.93,8.1-11.04,6.49-4.47,19.43-1.93,28.35,5.57,2.78,2.34,4.31,2.68,13.48,2.98,11.87.4,11.42.93,8.35-9.79-3.67-12.83-10.71-25.05-20.86-36.26l-4.35-4.8,5.16,4.8c10.55,9.8,20.12,26.2,23.61,40.45,1.6,6.55,2.18,7.53,4.96,8.5,1.73.6,4.58,2.12,6.34,3.37,4.35,3.1,6.71,2.08,5.74-2.46-1.67-7.81-9.3-29.39-13.8-39.03-5.23-11.18-3.94-10.47,2.59,1.43,4.4,8.02,10.8,24.4,12.92,33.06.72,2.93,1.43,5.49,1.58,5.68.21.26,8.16-4.32,9.82-5.65.15-.12-.89-4.74-2.33-10.25-4.53-17.44-14.07-38.38-24.83-54.5-6.98-10.47-14.65-18.98-32.62-36.19-9.57-9.17-19.97-19.73-23.12-23.46-5.52-6.55-5.42-6.49,2.74,1.74,4.65,4.69,14.69,14.1,22.3,20.91,16.11,14.4,21.33,19.85,29.51,30.81,12.13,16.25,24.19,41.44,28.84,60.28l2.21,8.95,4.18-2.89,4.18-2.89-.55-6.4c-1.27-14.73-9.32-35.15-20.3-51.52-3.27-4.87-5.54-8.61-5.04-8.3,2.06,1.27,12.14,16.99,16.55,25.81,5.01,10.02,9.94,24.42,11,32.11.35,2.54.96,4.82,1.37,5.07,1.39.86,19.12-16.59,25.58-25.16,14.27-18.93,22.44-44.51,22.44-70.23,0-2.96.26-5.37.58-5.37s2.38.92,4.58,2.04c8.93,4.56,19.09,19.43,24.83,36.35,2.96,8.72,3.5,11.99,3.9,23.46.38,11.05.07,14.97-1.82,22.92-2.53,10.61-10.2,27.48-16.98,37.33-2.42,3.52-3.93,6.56-3.35,6.75,1.82.61,13.11-6.46,17.78-11.14,2.46-2.46,5.48-6.44,6.71-8.84,3-5.88,6.46-6.02,9.26-.37,1.55,3.12,1.97,6.24,1.89,14.13-.09,9-.52,11.15-3.83,19.25-2.05,5.01-5.52,11.92-7.71,15.35-2.96,4.63-3.64,6.45-2.64,7.06,1.08.67,1.08,1.74-.02,5.45-1.73,5.86-5.36,10.68-10.37,13.77-3.43,2.12-3.67,2.52-1.89,3.15,1.86.66,1.73,1.01-1.47,4-4.62,4.33-9.73,5.9-17.41,5.34-4.32-.31-6.29-.07-6.29.78,0,3.12-4.47,5.21-12.37,5.78l-7.99.58,4.93,6.93c12.47,17.52,17.79,33.85,15.39,47.19-1.13,6.25-2.6,9.46-13.26,28.89l-4,7.29,3.05-1.61c5.32-2.81,19.84-15.06,27.88-23.53,6.51-6.85,15.41-18.08,21.32-26.88,1.14-1.7,1.16-1.6.1.65-6.13,13.04-27.08,36.11-43.12,47.48-8.42,5.97-10.11,7.65-10.67,10.65-.37,1.96-.25,4.3.26,5.22.8,1.42,1.87,1.09,7.5-2.31,20.11-12.17,40.12-31.77,55.35-54.24,22.95-33.85,33.34-71.46,32.21-116.6-.33-13.32-.18-17.17.52-13.37.54,2.93,1.04,14.69,1.1,26.13.14,24.39-1.93,37.99-8.98,59.15-7.26,21.77-19.4,44.22-32.18,59.54-2.34,2.81-4.02,5.35-3.73,5.64,1.06,1.06,17.41-3,23.69-5.88,28.78-13.2,51.01-51.13,56.5-96.38,1.73-14.23,2.15-8.88.55,6.88-2.57,25.3-11.46,47.9-26.6,67.64l-6.37,8.3,7.32,2.85c4.03,1.57,9.6,4.12,12.38,5.68,2.78,1.55,5.27,2.83,5.54,2.83s.21-1.56-.12-3.47l-.6-3.47,1.52,3.29c.84,1.81,4.97,8.53,9.19,14.93,9.42,14.3,31.55,36.86,40.54,41.34,6.56,3.27,4.86,3.81-2.07.66-4.3-1.95-4.61-1.97-4.07-.24.32,1.03,1.72,5.85,3.1,10.71,2.28,8.01,3.09,9.4,8.71,14.93,11.5,11.32,21.19,28.13,28.41,49.29,2.88,8.44,3.54,12.2,3.97,22.53.45,10.78.19,13.47-1.94,20.67-2.39,8.05-2.4,8.31-.46,9.73,3.41,2.49,10.27,1.75,17.56-1.89l6.71-3.35,5.57,2.82c6.17,3.12,14.28,3.68,20.72,1.43,6.8-2.39,6.64-3.82-1.69-14.79-8.01-10.56-11.79-17.29-14.55-25.94-6.82-21.35-11.45-47.46-12.48-70.39-.85-18.79-1.2-20.73-5.64-31.1-1.84-4.3-3.05-10.02-3.92-18.49-1.95-18.94-8.55-50.73-11.72-56.43-.46-.83-.67,5.17-.48,13.33.22,9.2.02,13.62-.54,11.64-.49-1.76-.95-6.32-1.02-10.13-.19-10.02-2.89-34.33-4.93-44.26-3.4-16.56-9.69-36.71-16.99-54.39-4.99-12.08-15.65-32.53-16.96-32.53-.59,0-.8,9.14-.52,22.66.28,13.4.1,20.92-.42,18.4-.49-2.35-1.26-19.38-1.72-37.86-.62-25.01-1.21-34.28-2.29-36.26-4.74-8.71-29.66-42.61-44.29-60.26-18.58-22.4-36.57-39.42-50.94-48.16l-6.16-3.75-12.69,1.16c-6.98.64-15.85,1.16-19.71,1.16h-7.02l8.79,7.73c28.94,25.46,50.52,52.13,64.32,79.52,6.1,12.1,13.61,30.09,12.87,30.83-.24.24-1.44-2.22-2.65-5.46-1.22-3.25-4.42-10.31-7.12-15.69-27.81-55.38-81-105.81-133.78-126.84-16.11-6.42-46.04-15.14-50.91-14.83-.45.03,2.3,1.73,6.11,3.79,7.69,4.14,6.99,4.01-6.93-1.33-12.08-4.64-26.61-12.05-46.39-23.69-36.68-21.57-61.68-34.28-67.41-34.28-.52,0,.21,1.56,1.64,3.47,1.43,1.91,2.95,4.67,3.37,6.13.48,1.65-.92.33-3.66-3.46-5.24-7.23-6.19-7.83-14.12-8.81-7.18-.89-10.07.22-5.55,2.12,4.37,1.84,9.8,6.66,11.75,10.43,1.64,3.16,1.59,3.15-2.44-.81-7.31-7.18-19.32-11-25.03-7.94-1.98,1.06-1.86,1.31,1.92,3.87,3.77,2.56,6.93,5.82,6.27,6.48-.16.16-5.02-2.17-10.8-5.17-10.16-5.28-10.75-5.45-17.84-5.05-5.71.32-7.73.89-9.11,2.55-.98,1.18-3.1,2.8-4.71,3.61s-2.93,1.75-2.93,2.09,3.48.64,7.73.67c9.91.07,17.75,3.96,21.32,10.59,1.1,2.04,1.06,2.05-1.43.27-5.73-4.11-15.3-8.4-20.01-8.95-4-.47-6.31,0-11.64,2.37-3.66,1.63-6.65,3.31-6.65,3.73,0,1.16,4.39,2.29,8.13,2.1,5.94-.3,14.02,4.06,16.66,8.99,1.12,2.09,1.1,2.09-1.97.05-9.53-6.33-14.93-7.26-22.29-3.84-5.91,2.75-13.11,9.24-14.85,13.39-.8,1.91-2.51,4.46-3.81,5.67-2.59,2.41-2.09,4.5,1.06,4.5,1.21,0,3.56-2.22,5.92-5.6,2.15-3.08,5.12-6.5,6.59-7.61,5.38-4.05,16.83-3.23,21.12,1.52,2.27,2.51,1.91,2.57-3.07.49-8.23-3.44-15.46-1.62-21.18,5.33-2.5,3.03-10.45,16.08-10.45,17.14s-6.01,9.64-8,11.35c-2.08,1.79-2.05,1.83,1.6,1.84,4.67,0,9.53-4.17,13.18-11.34,4.35-8.53,11.93-14.1,17-12.49,1.83.58,1.51.91-2.01,2.1-5.38,1.82-11.42,8.59-14.53,16.28-2.16,5.34-2.43,7.72-2.31,20.44l.13,14.4-1.55-11.73c-1.1-8.3-1.26-13.22-.55-16.83.97-4.93.94-5.04-.98-3.3-1.09.99-1.99,2.44-1.99,3.23s-.38,1.43-.85,1.43c-1.37,0-13.25,16.68-20.5,28.8-3.69,6.16-8.61,14.01-10.93,17.45-10.22,15.13-18.88,42.04-23.88,74.27-1.44,9.26-1.9,18.4-1.87,37.33.03,23.48.38,28.07,4.13,54.43.29,2.03-.15,1.08-.98-2.12-3.88-14.96-5.34-30.24-5.36-56.05,0-15.87.51-29.04,1.38-34.66,2.19-14.23,6.41-32.19,10.33-44.03,1.98-5.97,3.41-11.04,3.19-11.26s-3.02,3.6-6.2,8.51c-15.71,24.2-22.47,46.55-24.14,79.84l-.78,15.46-.08-16c-.04-8.8.27-18.76.69-22.13.94-7.55.1-6.83-4.01,3.47-12.78,31.99-15.43,62.9-10.24,119.45.24,2.64-.57-.21-1.8-6.32-2.65-13.18-2.42-13.28-11.04,4.73-11.7,24.44-20.65,62.14-20.83,87.77-.03,3.93-.69,10.26-1.47,14.08-1.31,6.37-1.44,6.59-1.6,2.67l-.18-4.27-4.9,9.6c-10.55,20.65-14,34.96-11.56,47.95.84,4.48.93,6.68.23,5.99-1.12-1.12-3.63,4.04-10.41,21.4-5.78,14.8-11.74,22.26-27.29,34.14-5.28,4.04-7.15,6.34-9.95,12.26-1.9,4.01-4.86,8.9-6.58,10.86-3.57,4.07-3.5,5.04.58,8.09,3.13,2.34,10.41,2.92,15.84,1.27,2.53-.77,3.05-.53,3.95,1.83,1.85,4.86,10.84,7.93,23.67,8.08,7.16.08,8.21-.15,8.67-1.94h0l.04.05Zm11.6-97.72c-4.13-3.47-5.9-8.95-5.18-15.97.51-4.93,4.76-17.14,5.66-16.24.19.19-.4,3.2-1.32,6.7-1,3.84-1.5,9.17-1.26,13.47.44,7.83,2.17,10.76,7.81,13.25l3.2,1.41-2.85.04c-1.57.02-4.3-1.17-6.06-2.66h0Zm411.84.06l-2.99-2.65,5.07,1.68c5.16,1.71,6.74,3.61,2.99,3.61-1.14,0-3.42-1.19-5.07-2.65h0Zm-61.8-4.29c.36-2.35.67-6.88.67-10.08,0-4.28.33-5.5,1.2-4.62,1.65,1.65.76,15.86-1.1,17.61-1.2,1.13-1.33.64-.78-2.91h.01Zm62.01-3.43c-2.53-.62-9.42-5.63-8.71-6.34.55-.55,13.51,5.77,13.51,6.59,0,.59-1.71.5-4.8-.25h0Zm-70.22-13.1c-.42-6.75-.99-14.9-1.28-18.13l-.52-5.87,1.69,4.27c2.05,5.18,3.16,21.86,1.83,27.73-.84,3.72-1.06,2.71-1.72-8h0Zm63.48-.73c-3.25-1.6-8.72-7.46-8.72-9.33,0-.43,1.86.69,4.14,2.49s6.24,4.48,8.8,5.94c4.03,2.3,4.3,2.66,1.99,2.65-1.47,0-4.26-.8-6.21-1.76h0Zm-84.11-3.15c4.22-5.02,6.37-13.26,6.93-26.52.6-14.21,2.29-13.08,2.43,1.62.12,12.11-2.29,19.27-8.24,24.51-2.24,1.97-2.53,2.07-1.11.39h-.01Zm81.43-11.16c-6.61-4.38-11.95-10.77-13.98-16.74-2.64-7.75-1.93-8.57,1.5-1.72,1.92,3.85,6.18,9.33,10.89,14.03,4.26,4.25,7.48,7.72,7.16,7.72s-2.82-1.49-5.57-3.3h0Zm-85.58-3.46c2.15-6.75,2.1-6.93-2.16-7.72-2.52-.47-5.26-.25-7.3.59-1.79.74-5.3,2.07-7.78,2.95-11.21,3.97-24.06-3.28-25.55-14.41-.5-3.74-1.03-4.48-3.6-5.05-4.22-.93-11.47-7.86-12.25-11.71l-.64-3.2,2.24,3.34c2.93,4.37,9.42,8.59,15.18,9.89,2.53.57,10.13,1.3,16.87,1.61,14.64.69,19.62,1.94,23.65,5.97l3.02,3.02v-2.85c-.02-6.3-2-10.29-6.59-13.27-4.9-3.18-4.77-3.88.25-1.29,3.74,1.93,3.72,2.03,1-4.86-2.95-7.47-1.07-5.84,3.16,2.75,4.63,9.4,6.2,18.64,4.47,26.35-.72,3.21-2.05,6.75-2.95,7.85-1.56,1.91-1.61,1.91-1.02.04h0Zm-14.85-7.59c2.05-.94,2.54-1.5,1.35-1.55-2.09-.1-3.45-4.14-2.7-8.05.66-3.44-.49-3.77-13.14-3.77-10.27,0-10.58.07-10.54,2.4.1,6.67,7.88,12.55,16.49,12.48,2.93-.02,6.77-.7,8.53-1.51h.01Zm-135.05-.31c-1.33-1.69-1.29-1.73.4-.4,1.03.81,1.87,1.64,1.87,1.87,0,.88-.88.31-2.27-1.46h0Zm443.7-5.48c-12.67-4.96-27.6-20.13-38.21-38.84-4.47-7.88-3.66-9.03,1.11-1.59,4.5,7.03,14.09,19.05,20.25,25.4,6.6,6.8,12.59,11.27,19.22,14.36,6.57,3.06,4.92,3.52-2.37.67h0Zm-214.17-11.55c-6.3-2.22-13.18-9.27-15.39-15.76-2.52-7.4-2.18-8.19.88-2.05,3.71,7.45,9.59,12.75,18.21,16.43,5.91,2.52,6.76,3.15,4.21,3.1-1.76-.03-5.32-.8-7.91-1.72h0Zm7.84-6.58c-4.85-2.2-11.69-7.84-13.41-11.06-1.39-2.6-.43-2.09,6.91,3.68,2.84,2.23,5.48,4.06,5.87,4.06s.54-2.43.33-5.41c-.51-7.41,3.76-15.7,14.78-28.68,8.31-9.79,11.65-16.3,11.75-22.89.03-2.1.09-2.11,1.19-.22,1.5,2.57.57,8.07-2.35,13.91l-2.32,4.65,2.41,3.26c3.27,4.43,4,12.67,1.65,18.81-2.04,5.35-8.7,11.92-13.11,12.95-4.14.96-7.76,3.4-7.76,5.23,0,.85,1.56,2,3.47,2.55l3.47,1-4.27.07c-2.35.04-6.22-.81-8.6-1.9h-.01Zm23.63-19.53c2.91-5.56,1.25-18.98-2.34-18.98-1.49,0-11.19,10.6-14.54,15.89-1.76,2.78-1.83,3.3-.45,3.3,3.17,0,9.23,4.4,9.23,6.7,0,2.06.24,2,3.29-.91,1.81-1.72,3.97-4.43,4.8-6.01h.01Zm-80.04,16.98c-2.48-1.41-5.56-4.55-7.47-7.63-2.89-4.67-3.23-6.12-3.17-13.32.08-9.1,2.04-14.64,9.72-27.37,6.64-11.01,10.89-20.58,12.56-28.31.81-3.74,1.51-5.57,1.56-4.08.18,5.89-3.55,16.19-11.8,32.52-7.85,15.56-8.68,17.8-9.18,24.8-.85,11.85,2.92,19.44,12,24.15,1.76.91,2.48,1.66,1.6,1.65-.88,0-3.5-1.09-5.83-2.41h.01Zm8.04.15c-3.87-3.61-5.42-8.66-5.42-17.75,0-10.85,1.9-16.16,9.05-25.31,14.48-18.52,16.62-21.62,18.26-26.51,1.23-3.66,1.6-7.46,1.25-12.8-.56-8.56-2.98-14.21-9.09-21.24l-3.9-4.48,4.95,4.69c6.96,6.59,9.73,13.41,9.81,24.1.06,7.47-.36,9.4-3.3,15.46-1.85,3.81-6.81,11.23-11.02,16.49-9.11,11.36-11.13,15.08-12.93,23.77-1.63,7.87-.12,18.25,3.33,22.91,2.62,3.54,2.31,3.75-1,.67h.01Zm-33.7-13.88c-9.77-8.58-11.11-20.68-4.49-40.53,4.57-13.7,6.51-22.53,5.58-25.45-.62-1.95-1.15-1.66-5.29,2.93-2.53,2.8-6.22,6.03-8.19,7.17-2.97,1.73-2.58,1.1,2.31-3.73,3.41-3.36,7.68-9.19,10.13-13.81,4.18-7.89,4.23-8.15,4.17-19.2-.07-12.18-2.05-19.08-7.67-26.66l-2.77-3.73,2.96,2.67c6.79,6.12,12.19,22.52,10.93,33.17-.35,2.96-1.75,7.87-3.12,10.9-2.13,4.73-2.31,6.03-1.28,9.1l1.2,3.59,2.4-3.05c3.57-4.54,10.34-19.31,11.83-25.83,2.35-10.27,0-20.72-6.61-29.31l-3.41-4.44,3.44,3.17c8.14,7.5,11.54,21.82,8.25,34.67-2.09,8.16-5.74,14.72-11.86,21.34-3.27,3.53-4.65,6.06-5.18,9.5-.4,2.58-2.72,10.74-5.16,18.13-6.93,20.99-5.88,32.46,3.69,39.99,1.92,1.52,3.15,2.76,2.73,2.77-.42,0-2.49-1.5-4.6-3.35h0Zm-43.84-1.88c-2.83-1.29-5.69-3.85-8-7.17-3.25-4.68-3.59-5.89-3.58-12.64.01-9.88,2.45-14.53,14.61-27.91,6.32-6.95,10.75-13,13.17-17.95,2-4.11,3.65-6.8,3.65-5.98.05,3.82-8.02,17.49-15.48,26.24-4.5,5.28-9.33,12-10.73,14.93-4.95,10.37-2.45,22.04,6.05,28.2,2.48,1.8,5.38,3.27,6.45,3.27,1.73,0,1.65-.42-.8-4-2.44-3.56-2.69-4.78-2.25-11.13.57-8.23,3.21-13.53,9.15-18.39,2.14-1.75,6.97-6.26,10.73-10.01,4.85-4.85,6.17-5.79,4.55-3.25-3.96,6.21-6.73,12.95-8.27,20.11l-1.49,6.93.46-7.73c.25-4.25.07-7.73-.41-7.73s-2.83,2.12-5.22,4.72c-7.52,8.16-9.71,21.46-4.66,28.29l2.08,2.82-2.8.19c-1.54.11-4.79-.71-7.21-1.81h0Zm362.48-1.68c.01-2.35.23-3.18.49-1.85.25,1.33.25,3.25-.02,4.27s-.48-.07-.46-2.41h0Zm-281.17-4.23c-.98-1.5-1.67-4.59-1.6-7.2l.12-4.57.78,4.01c.73,3.75,1.83,5.99,2.44,4.97.15-.24,1.44-2.78,2.88-5.64,1.45-2.87,4.78-6.92,7.47-9.07,2.67-2.13,7.63-6.63,11.02-10,9.6-9.54,4.75-2.51-5.84,8.47-6.45,6.69-10.29,11.68-12.08,15.73-1.44,3.26-2.81,5.93-3.05,5.93s-1.2-1.18-2.15-2.63h.01Zm23.85-.11c-1.47-3.86-1.23-9.07.56-12.2,1.42-2.48,1.53-2.04,1.56,6.13.02,4.84-.21,8.8-.52,8.8s-1.03-1.23-1.6-2.74h0Zm-56.96-4.04c-2.17-10.15.02-17.33,12.29-40.15,6.61-12.3,5.89-9.19-1.83,7.89-6.74,14.91-7.96,18.89-8.89,28.9-.66,7.17-.73,7.3-1.57,3.36h0Zm-29.03-5.54c-.35-.91-.39-1.88-.1-2.18.29-.29.79.45,1.1,1.65.66,2.54-.07,2.93-1,.53h0Zm110.19-23.71c-6.14-3.73-7.55-8.57-7.69-26.37-.08-9.99-.62-17.2-1.44-19.19-2.14-5.17-6.44-10.14-11.65-13.45-2.68-1.7-4.38-3.09-3.78-3.09,1.97,0,11.01,6.53,13.04,9.43,5.2,7.4,5.83,9.9,6.5,25.76.71,16.84,2.13,21.79,7.19,25.11,1.48.97,4.39,1.77,6.46,1.77,2.59,0,3.3.29,2.27.94-2.39,1.51-7.64,1.07-10.92-.92h.02Zm-107.33-28.6c-.01-.64.99-2.08,2.22-3.2,4.24-3.84,6.29-9.47,6.29-17.31,0-6.74-.45-8.25-5.33-17.78-2.93-5.73-5.31-11.19-5.29-12.14s.74-.11,1.6,1.86c.86,1.98,3.29,5.95,5.4,8.83,9.15,12.46,9.08,26.3-.19,36-2.57,2.7-4.69,4.38-4.7,3.74h0Zm58.72-3.19c.05-1.24.3-1.5.64-.64.31.77.27,1.69-.08,2.04-.35.35-.61-.28-.56-1.4h0Zm-60.79-4.27c.05-1.24.3-1.5.64-.64.31.77.27,1.69-.08,2.04-.35.35-.61-.28-.56-1.4h0Zm1.15-6.84c0-1.47.24-2.07.54-1.33.3.73.3,1.93,0,2.67-.3.73-.54.13-.54-1.33h0Zm-12.88-7.02c.05-1.24.3-1.5.64-.64.31.77.27,1.69-.08,2.04-.35.35-.61-.28-.56-1.4h0Zm316.83-13.24c0-1.47.24-2.07.54-1.33.3.73.3,1.93,0,2.67s-.54.13-.54-1.33h0Zm-523.73-2.76c.05-1.24.3-1.5.64-.64.31.77.27,1.69-.08,2.04s-.61-.28-.56-1.4h0Zm522.7-3.11c.02-1.76.26-2.35.53-1.31s.25,2.48-.04,3.2c-.29.72-.51-.13-.49-1.89h0Zm-415.7-7.57c.3-4.85,1.51-11.23,2.75-14.55,2.63-7.02,9.32-15,15.03-17.91,5.98-3.05,6.39-2.55.82.98-8.01,5.08-11.24,10.8-15.9,28.09l-3.24,12.03.54-8.64h0Zm19.27,3.23c1.48-2.17,3.67-7.37,4.87-11.54,1.2-4.17,3.6-11.23,5.33-15.67,1.73-4.45,3.15-8.41,3.15-8.81,0-1.26,7.58-11.75,11.33-15.67,1.98-2.08,3.64-4.72,3.69-5.87s.32-1.51.6-.81c.35.86,2.75.05,7.43-2.53,7.45-4.1,17.61-5.78,22.81-3.78,2.13.82,1.26,1.01-4.27.97-11.37-.1-22.48,6.27-32.16,18.43-4.65,5.85-12.1,21.15-15.84,32.56-2.4,7.34-6.27,14.61-8.49,15.98-.62.38.08-1.08,1.56-3.26h0Zm-36.16-6.16c-1.24-7.2-.09-15.03,3.18-21.73,2.95-6.02,13.37-17.26,25-26.95,6.79-5.66,6.73-5.57-2.72,4.3-18.71,19.54-22.9,26.71-23.95,41.01l-.62,8.53-.89-5.17h0Zm55.41.9c.97-6.31,5.53-19.38,8.58-24.57,7.59-12.95,17.44-19.74,29.71-20.49,4.15-.25,8.65-.03,10,.49,1.81.69.5.94-4.92.94-6.15,0-8.54.57-14.31,3.41-12.02,5.92-19.87,16.2-26.17,34.31-2.1,6.02-3.28,8.44-2.89,5.91h0Zm150.62-7.95c-8.68-5.9-16.95-8.76-25.88-8.95-4.11-.09-8.91.2-10.66.64l-3.2.8,3.2-1.86c2.34-1.36,5.49-1.85,11.73-1.81,11.06.06,18.83,3.03,26.41,10.11,3.07,2.87,5.34,5.21,5.05,5.22-.29,0-3.29-1.86-6.65-4.14h0Zm148.66-27.78c0-1.47.24-2.07.54-1.33.3.73.3,1.93,0,2.67-.3.73-.54.13-.54-1.33h0Zm-318.8-7.47c0-2.05.22-2.89.49-1.87.27,1.03.27,2.71,0,3.73-.27,1.03-.49.19-.49-1.87h0Zm136.81-2.71c-6-8.71-14.84-17.08-21.46-20.32-7.32-3.58-18.08-4.57-24.68-2.26-2.49.87-4.53,1.37-4.53,1.12s2.04-1.39,4.53-2.52c10.09-4.58,24.86-1.7,34.53,6.73,4.95,4.32,5.07,4.36,3.04,1.12-9.7-15.52-21.87-24.22-37.06-26.5-10.05-1.51-21.09,3.77-24.25,11.6-.8,1.97-.93,2.02-.99.32-.12-3.53,3.05-8.63,7.06-11.36,3.55-2.42,4.94-2.67,14.89-2.67h10.97l-5.03-5.13c-7.39-7.53-15-11.55-23.1-12.2-8.07-.65-13.27.89-18.46,5.44-2.67,2.34-3.47,2.71-2.67,1.21,4.71-8.81,20.43-12.39,31.3-7.13,5.05,2.44,14.8,11.43,17.74,16.36.95,1.59,4.31,4.03,7.71,5.6,11.75,5.42,22.01,16.31,25.12,26.66.83,2.76,2.42,6.31,3.54,7.9,2.27,3.22,6.83,11.95,6.24,11.95-.21,0-2.21-2.66-4.45-5.91h.01Zm180.84,4.22c.05-1.24.3-1.5.64-.64.31.77.27,1.69-.08,2.04-.35.35-.61-.28-.56-1.4h0Zm-230.4-.85c-.08-3.42,4.24-9.16,8.55-11.36,6.99-3.56,20.24-2.44,25.71,2.19l2.48,2.1-4.27-1.78c-2.61-1.09-7.37-1.81-12.26-1.86-9.47-.09-14.76,2.48-18.11,8.82-1.39,2.63-2.07,3.24-2.1,1.89h0Zm-73.15-5.48c.81-10.51,4.2-19.42,11.32-29.86,7.74-11.34,10.56-16.61,10.66-19.94.07-2.31.12-2.33.97-.31,1.81,4.34-.57,9.86-9.72,22.49-6.25,8.63-9.34,15.62-12.2,27.64l-1.53,6.4.5-6.42Zm-12.7-4.21c.36-2.33,2.59-9.77,4.95-16.53,10.6-30.4,11.76-34.54,12.34-44.15.57-9.5,1.54-10.25,2.86-2.22,1.09,6.63-1.79,18.02-9.11,36-3.63,8.91-7.75,19.56-9.15,23.67-1.81,5.3-2.36,6.24-1.89,3.23h0Zm-33.51-4.59c-.19-7.74,2.84-15.65,10.52-27.51,9.22-14.23,9.74-16.13,8.91-32.46-.77-15.29.2-21.14,4.6-27.8,2.42-3.66,8.31-8.46,10.38-8.46.39,0-1.07,1.56-3.24,3.47-10.45,9.17-11.52,21.81-5.02,59.23,1.46,8.38,2.41,15.82,2.12,16.53s-.56,0-.61-1.57c-.12-4.01-1.66-4.54-3.2-1.1-1.55,3.47-9.73,16.23-10.4,16.23-.26,0-.26-.36,0-.8s2.37-3.93,4.7-7.75c7.09-11.66,7.57-14.41,4.45-25.99l-1.15-4.25-3.4,6.33c-1.87,3.48-5.36,9.21-7.75,12.73-6.62,9.72-8.99,15.04-9.93,22.24l-.86,6.56-.14-5.63h.02Zm62.28-2.37c2.68-13.07,14.34-22.08,24.91-19.23,2.28.61,4.76,1.86,5.52,2.77,1.21,1.46,1,1.56-1.74.82-11.38-3.07-20.04,1.09-25.88,12.44-2.86,5.55-3.41,6.19-2.8,3.2h-.01Zm-36.33-3.73c1.45-6.55,1.96-8,2.82-8,.52,0,.9,1.8.83,4-.07,2.27-.35,3.1-.65,1.91-.46-1.83-.72-1.69-2,1.07-.81,1.74-1.26,2.2-1,1.02h0Zm130.55-23.73c-1.33-1.69-1.29-1.73.4-.4,1.03.81,1.87,1.64,1.87,1.87,0,.88-.88.31-2.27-1.46h0Zm-158.56-4.27c6.54-6.99,8.32-14.99,8.32-37.45,0-18.66,1.05-24.07,6.31-32.35,4.97-7.84,16.33-12.04,21.76-8.05,1.53,1.12.83,1.33-4.41,1.33s-6.89.5-10.16,3c-8.46,6.46-11.45,17.48-11.17,41.26.21,18.8-1.5,26.22-7.3,31.69-4.49,4.23-7.21,4.69-3.35.57h0Zm39.02-10.66c-5.09-11.5-6.64-25.14-3.55-31.13,3.58-6.92,11.87-10.67,16.57-7.49,1.18.8.83.9-1.35.4-6.36-1.48-12.49,3.96-13.99,12.42-.75,4.2,1.59,19.35,4.06,26.36,2.14,6.07,1.03,5.71-1.74-.56h0Zm119.61-1.94c-4.88-5.05-12.84-10.25-14.62-9.57-.79.3-1.16.12-.84-.41.33-.53,0-1.18-.74-1.44s-.98-.86-.54-1.34c1.07-1.15,10.85,5.69,16.75,11.71,2.62,2.67,4.51,4.85,4.21,4.85s-2.2-1.71-4.22-3.8h0Zm-194.3-9.47c3.78-3.18,9.08-12.93,11.34-20.85,2.82-9.9,4.76-25.17,6-47.1,1.02-18.19,3.33-34.71,5.85-41.96.47-1.34-.84-.5-3.54,2.27-6.57,6.75-8.62,14.75-9.87,38.53-.56,10.71-1.7,23.02-2.53,27.36-1.42,7.44-5.73,17.86-7.95,19.24-.56.34.36-2.14,2.02-5.52,3.71-7.53,5.34-17.69,5.36-33.55.05-29.66,3.53-42.87,12.72-48.32,1.98-1.17,5.96-4.62,8.84-7.65,2.89-3.03,6.84-6.27,8.79-7.2,3.97-1.88,9.86-2.18,12.29-.61,1.17.76.37,1.04-2.99,1.05-2.52,0-5.88.7-7.47,1.53-3.71,1.94-10.18,8.77-12.27,12.93-2.85,5.67-4.99,19.1-6.14,38.6-1.91,32.18-5.03,50.99-10.16,61.22-2.3,4.58-10.23,12.65-12.44,12.65-.53,0,.44-1.18,2.15-2.61h0Zm160.42-1.08c-11.36-7.06-29.49-10.81-39.31-8.14-2.64.72-5.57,2.54-7.2,4.47-1.51,1.79-2.74,2.78-2.74,2.19,0-2.28,5.6-7.55,9.37-8.82,5.96-2,17.28-1.48,25.19,1.15,6.6,2.2,18.77,9.19,20.3,11.66.96,1.56.94,1.54-5.61-2.52h0Zm-136.63-3.24c0-.59.69-2.27,1.52-3.73.84-1.47,1.52-2.19,1.52-1.6s-.69,2.27-1.52,3.73c-.84,1.47-1.52,2.19-1.52,1.6Zm148.38-8.27c-5.47-9.96-15.05-23.39-21.37-29.96-20.57-21.38-52.51-33.85-62.11-24.25-3.38,3.38-4.13,2.61-1.45-1.48,2.06-3.14,6.69-4.84,13.15-4.84,18.37.02,46.39,18.96,61.61,41.64,5.55,8.27,15.84,26.61,14.93,26.61-.29,0-2.43-3.48-4.77-7.73h0Zm-67.4-.18c0-4.1,7.17-7.22,12.18-5.3,2.44.94,2.08,2.45-.43,1.8-3.02-.79-6.61.32-9.37,2.89-1.84,1.71-2.38,1.85-2.38.62h0Zm-111.12-4.86c1.94-1.9,3.75-3.22,4.03-2.95.27.27-1.31,1.83-3.53,3.45l-4.03,2.95,3.53-3.45Zm34.91,1.05c.49-1.47.95-16.1,1.02-32.53.13-32.7,1.04-40.53,5.67-49.06,3.12-5.75,8.62-10.13,12.72-10.13,4.31,0,9.86,3.27,11.57,6.81,1.03,2.14,1.11,2.74.22,1.67-4.69-5.58-12.34-6.93-17.27-3.05-7.48,5.88-10.25,19.57-10.25,50.63,0,15.33-.48,23.92-1.63,29.4-.9,4.26-1.93,8.01-2.29,8.34-.36.33-.26-.61.24-2.07h0Zm104.74-13.6c-4.57-6.83-10.08-11.7-17.26-15.24-6.3-3.1-7.58-3.36-14.69-2.92-4.28.27-8.75.87-9.92,1.33-1.97.79-1.95.66.26-1.66,1.95-2.04,3.74-2.59,9.6-2.92,5.97-.34,8.25.06,13.36,2.31,6.94,3.07,15.95,11.52,19.78,18.55,3.05,5.6,2.45,5.89-1.12.53h0v.02Zm-93.09-26.4c.41-14.32,2.17-20.94,6.85-25.84,3.9-4.08,8.89-6.08,12.63-5.05l2.95.81-3.2.73c-11.21,2.54-16.46,11.72-18.61,32.56l-.99,9.6.37-12.8h0Zm111.98-.31c-16.78-16.19-33.54-25.42-51.11-28.15-9.04-1.41-13.66-.51-20.16,3.9l-3.89,2.64,1.72-2.62c1.95-2.98,7.85-6.92,10.36-6.92,6.89,0-1.37-8.88-10.99-11.8-2.15-.66-2.26-.83-.54-.88,3.53-.11,11.24,3.93,14.79,7.76,2.82,3.03,4.67,3.86,11.87,5.31,5.43,1.09,12.3,3.6,18.91,6.89,10.31,5.14,10.37,5.16,9.77,2.41-.95-4.32-3.39-14.27-4.08-16.62-.34-1.17.37-.07,1.58,2.44,1.21,2.52,3.05,7.88,4.07,11.93,1.8,7.09,2.16,7.61,10.23,14.62,7.03,6.11,18.86,18.56,17.52,18.43-.22-.02-4.74-4.22-10.04-9.33h0Zm13.23,1.11c-1.33-1.69-1.29-1.73.4-.4,1.03.81,1.87,1.64,1.87,1.87,0,.88-.88.31-2.27-1.46h0Zm-110.77-9.14c0-3.35,2.17-6.19,5.95-7.77,3.17-1.33,4.13-1.32,7.38.04,4.57,1.91,4.88,3.16.53,2.2-5.19-1.14-9.53.37-11.8,4.1-1.46,2.4-2.05,2.81-2.06,1.43h0Zm56.07-33.47c-1.17-4.92-9.73-16.58-15.21-20.72-2.82-2.13-8.66-5.64-12.97-7.8-8.57-4.29-9.37-5.69-2.13-3.74,6.29,1.69,10.14,3.77,15.95,8.61,2.7,2.25,5.22,3.78,5.6,3.41.38-.38.69,0,.69.83s1.44,3.67,3.2,6.31c3.22,4.84,7.05,14.63,6.1,15.58-.28.28-.83-.83-1.22-2.47h-.01Zm-12.55-3.56c-9.25-13.13-27.95-19.81-37.45-13.36-3.78,2.56-3.81,2.57-2.99.27,3.19-8.96,23.65-6.78,34.09,3.64,3.79,3.78,10.21,12.62,9.59,13.19-.2.19-1.66-1.49-3.24-3.73h0Zm-1.72-25.39c-11.89-18.35-29.66-23.49-42.67-12.35-5.06,4.33-5.9,3.39-1.57-1.75,11.58-13.77,34.23-6.92,45.44,13.74,3.77,6.95,3.19,7.12-1.19.36h0Zm43.18,542.02c2.23-1.67,3.25-3.7,4.19-8.36,1.58-7.88,5.12-11.84,9.19-10.29,1.52.58,4.09,2.71,5.71,4.74,5.4,6.76,8.4,2.14,10.05-15.45.62-6.66,1.64-14.01,2.27-16.34,1.53-5.73,7.82-18.1,12.38-24.35l3.73-5.11-1.74-9.52c-.96-5.24-2.27-10.85-2.9-12.48l-1.16-2.96-1.68,3.47c-2.05,4.23-2.81,4.32-4.39.51-.67-1.63-3.02-5.05-5.22-7.6l-4-4.64-2.02,6.27-2.02,6.27-.9-4.27c-1.66-7.86-1.93-7.79-6.77,1.92-5.6,11.24-16.49,27.11-24.6,35.86-3.56,3.84-9.2,8.27-14.27,11.19-10.24,5.9-12.83,9.2-12.83,16.31,0,4.38.5,5.72,3.08,8.18,1.69,1.62,4.93,3.61,7.2,4.42,2.27.81,3.26,1.49,2.22,1.52-2.47.06-9.26-2.79-11.51-4.83-1.58-1.43-2.11-1.26-5.2,1.63-1.89,1.77-5.31,3.78-7.58,4.46-4.68,1.4-8.46,4.48-8.46,6.88,0,1.92,6.17,4.7,10.43,4.7,1.67,0,3.96-.7,5.1-1.57,2.88-2.18,3.95-2.01,2.64.43-2.35,4.39-1.38,6.21,4.5,8.4,8.59,3.2,9.12,3.28,20.75,3.04,9.12-.19,11.37-.58,13.84-2.43h-.03Zm62.99-.17c1.03-1.04,2.62-3.04,3.54-4.45,2.19-3.35,4.85-2.35,6.92,2.59,1.51,3.62,1.75,3.75,7.15,3.69,6.63-.07,18.23-4.2,18.72-6.67.19-.94-.9-3.53-2.4-5.74-3.11-4.57-3.51-9.42-1.08-12.89l1.66-2.37h-11.89c-10.16,0-12.33-.31-14.87-2.12-3.89-2.77-4.85-6.72-2.57-10.57,1.67-2.82,1.64-3.64-.38-13.55-1.19-5.8-3.21-13.33-4.5-16.74-2.4-6.34-11.34-20.6-14.57-23.26-1.65-1.36-1.74-1.17-1.05,2.25,3.39,16.88,3.37,34.8-.07,47.99-1.09,4.17-1.91,12.03-2.08,19.73-.15,7.04-.42,14.71-.59,17.05-.3,4.01-.11,4.33,3.41,5.54,5.68,1.95,12.48,1.73,14.66-.49h0Zm66.6-28.62c4.87-1.53,13-4.91,18.08-7.52,8.32-4.27,9.29-5.09,9.9-8.35,1.1-5.86,7.62-17.76,12.83-23.4,4.32-4.68,4.84-5.8,4.84-10.27,0-6.96-1.67-8.15-8.24-5.85-2.8.98-8.68,2.06-13.08,2.42-7.6.61-8.34.91-15.42,6.31-12.91,9.84-26.24,15.22-41.9,16.93-6.62.72-6.67.75-11.91,7.43-2.9,3.69-7.23,8.08-9.63,9.76-5.35,3.76-6.54,7.2-3.52,10.22,1.97,1.97,3.74,2.19,19.6,2.48,9.59.17,19.12.79,21.17,1.36,5.82,1.63,7.8,1.46,17.28-1.51h0Zm-15.43-6.89c.57-2.18.36-2.2-15.3-1.61-11.69.44-15.03.31-12.67-.51,4.07-1.41,22.85-2.6,26.53-1.67,2.77.7,3.92,4.1,1.83,5.4-.53.33-.71-.39-.39-1.61h0Zm33.9-12.7c-.96-1.55,1.4-9.54,4.28-14.51,2.64-4.57,9.24-11.08,13.48-13.31,1.55-.81.46.87-2.88,4.44-6.18,6.62-9.43,11.61-11.64,17.87-1.58,4.47-.88,5.74,1.55,2.82.73-.88,1.83-1.6,2.45-1.6s0,1.2-1.38,2.67c-2.62,2.79-4.76,3.39-5.85,1.62h-.01Zm92.77-91.7c7.47-3.58,14.47-11.19,22.26-24.25,4.5-7.53,8.73-11.48,15.54-14.5l4.75-2.11-3.15-2.54c-6.17-4.99-7.61-4.67-15.25,3.4-7.36,7.77-6.41,4.37,1.21-4.36,3.9-4.47,3.97-4.66,1.85-5.79-1.8-.97-2.87-.65-6.12,1.81-3.75,2.84-3.97,1.94-.52-2.08,1.46-1.7,1.26-1.99-2.26-3.47-5.17-2.16-6.44-2.05-9.97.91-10.36,8.66-23.48,14.45-37.68,16.62-7.22,1.1-8.44,1.65-12.53,5.66-2.49,2.44-4.53,4.71-4.53,5.04s1.71,1.52,3.81,2.65c2.09,1.13,7.62,6.23,12.29,11.34,12.27,13.44,20.2,16.5,30.3,11.67h0Zm-286.59-39.39c6.35-2.19,19.13-10.48,19.91-12.92.28-.88.6-5.09.71-9.36.15-5.81-.2-8.09-1.4-9.07-.88-.72-2.35-2.42-3.25-3.78l-1.64-2.48-4.11,4.59c-6.76,7.54-11.41,11.61-14.02,12.27-1.35.34-2.61.44-2.79.22-.18-.22,4.34-4.71,10.06-9.99,5.72-5.28,10.16-10,9.87-10.48-.71-1.19-10.82.25-14.16,2.01-1.47.77-5.42,3.49-8.79,6.04-7.75,5.86-14.29,8.31-23.73,8.89l-7.47.46,6.93-1.5c9.34-2.02,13.86-4.07,22.71-10.29l7.48-5.26h-8.51c-6.34,0-10.54.69-16.43,2.72-8.93,3.06-22.49,4.44-30.41,3.08-4.88-.84-4.44-.95,6.5-1.64,6.45-.41,14.37-1.59,17.6-2.61l5.87-1.87-9.6-1.4c-12.81-1.87-21.43-4.07-33.18-8.47-5.38-2.01-10.73-3.66-11.91-3.66s-6.02-1.13-10.78-2.51c-9.32-2.7-9.99-2.37-6.6,3.2,1.45,2.38,3.79,4.01,8.03,5.6,3.29,1.23,6.76,2.24,7.7,2.24,1.28,0,.99.67-1.11,2.62-3.45,3.2-3.54,4.87-.41,7.81,2.26,2.13,12.78,5.57,17.01,5.57,2.44,0,2.4.64-.22,3.97-1.17,1.49-2.13,3.05-2.13,3.46s2.55,2,5.66,3.52c7.61,3.72,18,5.48,24.18,4.1,2.62-.59,4.92-.91,5.12-.72.19.19-1.35,1.41-3.44,2.69-5.25,3.25-4.82,4.97,1.6,6.35,7.23,1.55,13.06,1.43,20.74-.42,8.64-2.09,8.36-2.19,7.56,2.82-1.07,6.68,1.18,7.55,10.87,4.21h-.02Zm4.5-43.72l8-.66-.28-3.2c-.15-1.76.38-5.96,1.19-9.33s1.35-6.13,1.21-6.13-2.11.77-4.36,1.71c-9.98,4.17-22.19-.26-27.96-10.14l-2.74-4.7,3.14.7c1.73.39,5.6,1,8.6,1.37,5.17.63,5.69.46,9.54-3.07l4.07-3.73-1.28-6.92c-.7-3.81-1.28-8.31-1.28-10v-3.08h-25.33c-23.16,0-26.19-.22-35.43-2.54-22.87-5.76-38.46-14.71-55.24-31.71-8.95-9.07-11.09-10.76-11.69-9.22-.4,1.04-.75,8.36-.76,16.28-.03,16.21,1.32,22.32,7.54,34.2,10.01,19.12,29.31,34.53,53.2,42.46,21.2,7.04,45.52,9.73,69.85,7.72h0Zm210.36-26.28c2.04-.8,2.48-3.73.81-5.4-.7-.7,2.92-1.04,10.62-1.01,9.54.03,12-.29,13.47-1.75,1.67-1.66,1.67-1.92.05-3.54-2.49-2.49-2.19-3.38,1.36-4.09,4.04-.81,10.68-6.67,12.51-11.06,1.92-4.6,1.93-4.58-1.88-4.58h-3.32l3.72-4.12c7.5-8.31,14.86-24.17,16.89-36.38,1.06-6.38-.22-15.39-2.66-18.72-1.29-1.76-1.64-1.52-4.25,2.95-4.16,7.09-12.35,14.25-21.15,18.46-4.24,2.03-8.21,3.69-8.82,3.69s-5.91,4.85-11.76,10.77c-6.96,7.04-9.78,10.51-8.14,10.03,1.38-.41,6.65-1.86,11.73-3.22,14.33-3.84,20.89-6.64,25.09-10.73,4.32-4.2,4.97-3.94,1.7.67-4.77,6.7-12.47,10.09-31.48,13.86-12.11,2.4-14.95,3.49-20,7.62l-3,2.46,16.86-.66c15.8-.62,22.18-1.74,25.86-4.56,1.17-.9,1.35-.86.73.17-1.21,2.01-7.95,5.13-14,6.49-2.93.66-11.09,1.08-18.13.95-11.58-.23-13.23-.02-17.39,2.2-3.86,2.06-4.47,2.82-3.87,4.8.4,1.29.79,2.44.87,2.54.08.11,7.92.35,17.41.53,14.55.29,17.03.57,15.83,1.79-2.28,2.31-10,2.62-19.63.78-13.21-2.52-12.95-2.59-12.94,3.37,0,4.42.64,5.86,5,11.34l4.99,6.27,7.54-.59c4.14-.32,8.38-.92,9.4-1.32h-.02Zm-24.28-33.55c2.55-1.75,4.79-3.55,4.99-4s3.16-2.7,6.57-5c7.52-5.06,21.51-18.7,29.62-28.88,27.35-34.29,31.68-73.21,11.81-106.08-4.16-6.88-13.55-17.1-15.71-17.1-.79,0-1.44,4.16-1.86,12-1.72,31.4-15.82,59.46-40.72,81.06-7.57,6.57-30.78,22.97-34.77,24.56-1.11.44-.57,1.48,2.07,3.96,3.54,3.33,10.77,17.26,10.89,20.99.03,1.1,2.84,3.96,6.49,6.62,3.54,2.58,8.17,7.02,10.3,9.87s4.28,5.18,4.78,5.18,3-1.43,5.54-3.19h0Zm212.25-100.72c27.45-7.53,42.51-27.15,42.6-55.53.03-8.43-.48-12.17-2.44-17.86-6.84-19.92-25.8-38.32-53.06-51.5-14.94-7.22-25.26-10.69-55.89-18.74-38.62-10.15-41.83-11.16-52.73-16.56-14.53-7.19-22.46-13.76-29.31-24.27-12.91-19.82-7.66-41.3,12.32-50.45,7.66-3.51,14.7-4.18,21.88-2.09,13.3,3.87,20.41,13.23,20.56,27.08.05,4.61.51,7.6,1.15,7.42.59-.17,2.39-2.9,4-6.05,3.08-6.03,3.79-12.58,1.89-17.56-1.4-3.69-.29-3.51,1.21.2.65,1.61,1.25,7.97,1.34,14.13.11,8.35.61,12.01,1.97,14.4,2.68,4.72,4.95,7.39,5.67,6.67.35-.35.71-5.36.79-11.12.2-14.29-3.29-24.36-12.25-35.32-1.78-2.18-1.09-1.64,1.54,1.2,7.2,7.78,13.57,22.68,13.57,31.77,0,3.5,7.16,10.21,14.63,13.73,7.13,3.35,18.98,5.59,25.34,4.79,8.32-1.04,17.95-4.53,24.89-9.02,5.97-3.86,8.77-6.44,6.99-6.44-.44,0-4.4,1.01-8.8,2.25-11.67,3.27-26.82,2.59-36.11-1.63-3.66-1.66-7.18-3.66-7.83-4.45-.65-.78,1.62-.04,5.05,1.66s9.28,3.63,13,4.3c17.56,3.13,34.84-5.22,42.03-20.29,3.03-6.36,4.69-12.78,3.29-12.73-.49.02-2.08,1.71-3.55,3.76-6.1,8.54-20.24,15.6-33.8,16.89l-6.19.59,6.65-1.54c8.99-2.08,11.96-3.78,17.68-10.15,6.78-7.54,9.61-15.42,9-25.06-.91-14.46-6.95-21.89-26.4-32.48-8.49-4.62-12.26-7.4-15.6-11.49-2.42-2.96-4.67-6.04-4.98-6.84-.47-1.19-.79-1.16-1.74.15-4.73,6.54-1.45,12.38,12.14,21.6,5.84,3.96,12.2,8.74,14.15,10.62,12.48,12.09,11.74,33.25-1.43,40.97-3.92,2.3-6.7,3-13.35,3.39-7.76.45-8.93.23-15.13-2.82-3.7-1.82-7.65-4.33-8.77-5.57-1.24-1.37.15-.79,3.54,1.5,15.75,10.6,36.67,5.35,40.87-10.26,3.34-12.4-3.11-23.57-19.86-34.4-12.63-8.17-22.32-16.78-24.91-22.13-1.39-2.88-2.24-6.72-2.24-10.16,0-3.04-.47-5.53-1.04-5.53-2.22,0-5.35,8.44-5.35,14.4,0,10.58,5.83,18.73,19.88,27.8,10.33,6.66,18.01,13.93,20.16,19.08.85,2.04,1.48,6.01,1.4,8.81l-.15,5.1-.66-5.4c-.36-2.97-1.59-6.81-2.73-8.53l-2.07-3.14-.91,4.53c-1.76,8.76-12.7,13.34-26.42,11.08-6.92-1.14-12.18-3.08-30.55-11.27-15.42-6.87-33.38-8.86-48.25-5.36-18.29,4.31-31.5,17.99-35.37,36.62-1.77,8.52-.74,23.9,2.09,31.22,8.22,21.25,32.28,39.46,68.73,52,6.94,2.39,22.44,7,34.45,10.25,50.64,13.72,70.45,24.34,80.28,43.03,8.08,15.38,4.61,31.08-8.82,39.98-16.14,10.69-37.83,10.55-61.18-.39-6.71-3.14-8.68-3.73-7.6-2.25.8,1.09,7.21,9.65,14.25,19.02s14.39,19.33,16.34,22.13l3.54,5.09,15.13-.55c9.03-.33,17.7-1.26,21.53-2.31h0l-.05.03Zm-60.39-208.3c-1.33-1.69-1.29-1.73.4-.4,1.03.81,1.87,1.64,1.87,1.87,0,.88-.88.31-2.27-1.46h0Zm25.84-24.48c.78-1.29,1.64-2.12,1.92-1.84.28.28-.35,1.34-1.41,2.35-1.84,1.76-1.86,1.74-.51-.51h0Z" style="stroke:#000; stroke-miterlimit:10; stroke-width:2px;"/><path id="h" d="m113.05,871.25c-1.78-2.71-2.08-2.78-9.45-2.14-4.19.36-12.06.97-17.48,1.36l-9.87.7v-3.67c0-12.12,8.35-28.82,22.12-44.25,10.98-12.29,12.01-13.71,13.68-18.74,1.31-3.94,3.29-6.5,8.68-11.24,21.75-19.12,23.12-21,32.62-45.07,4.48-11.33,4.88-13.16,5.33-24,.6-14.59,3.48-24.03,12.91-42.4,6.36-12.39,6.8-13.71,7.49-22.7,3.07-39.95,11.8-71.68,26.96-98.01l4.88-8.47-.67-12.32c-1.29-23.66,2.14-53.47,8.41-73.11,1.5-4.69,5.3-14.05,8.45-20.8s7.84-17.8,10.41-24.57c5.18-13.62,12.23-26.19,20.78-37.06,6.11-7.78,18.6-26.32,28.3-42.03,3.37-5.45,7.89-12.24,10.05-15.09l3.93-5.18-5.16.38c-6.34.47-7.49-1.42-2.35-3.86,3.63-1.72,7.8-7.23,12.42-16.4l2.34-4.65-4.77.38c-5.48.44-5.46.18.89-8.78,1.91-2.69,3.8-5.93,4.2-7.2.4-1.27,1.2-2.31,1.76-2.31s2.45-1.45,4.18-3.22c1.73-1.77,4.83-4.36,6.88-5.75l3.73-2.53-2.65-.67c-4.14-1.04-3.15-3.22,2.95-6.47,3.08-1.64,6.69-4.33,8.03-5.98,1.34-1.64,5.19-4.66,8.56-6.71l6.13-3.72,7.97,1.11c10.33,1.44,9.93,1.48,18.64-1.68,5.44-1.98,9.62-2.72,15.41-2.74,15.61-.05,31.19,6.58,76.12,32.41,35.88,20.62,42.11,23.58,54.1,25.64,31.78,5.48,67.33,19.56,92.19,36.5l10.66,7.27h16.53c9.09,0,19.47-.34,23.06-.76l6.53-.77,9.47,6.28c11.99,7.95,26.1,20.69,39.99,36.11,10.59,11.76,11.16,12.21,22.7,17.81,15.97,7.75,22.83,9.4,36.91,8.83,9.19-.37,12.29-.95,17.27-3.23,28.86-13.21,22.98-45.88-11.41-63.43-13.33-6.8-26.61-11.44-54.23-18.92-26.61-7.21-40.62-11.99-54.74-18.69-27.11-12.87-42.89-27.83-49.52-46.95-3.2-9.21-3.44-26.46-.5-35.19,5.7-16.93,16.01-27.42,32.61-33.16,5.65-1.95,9.31-2.41,19.73-2.45,15.11-.05,23.57,1.97,39.67,9.5,13.6,6.35,22.62,9.05,30.33,9.05,10.74,0,17.43-4.33,17.23-11.17-.15-5.13-2.79-8.22-13.19-15.42-14.94-10.34-20.89-17.98-22.06-28.31-1.03-9.16,4.99-19.92,12.8-22.86,1.61-.61,2.93-.98,2.93-.82s-.96,2.16-2.13,4.47c-1.17,2.3-2.12,5.88-2.11,7.96.03,4.52,3.07,11.53,6.22,14.34l2.28,2.03v-3.75c0-3.96,3.37-9.37,5.84-9.37.78,0,2.63,2.04,4.1,4.53,3.86,6.53,8.6,10.57,18.65,15.86,17.85,9.41,24.47,16.94,26.92,30.63,1.08,6.04,1.01,8.17-.46,13.91-.96,3.73-3.16,8.88-4.89,11.45-1.73,2.57-2.67,4.67-2.07,4.67,1.95,0,11.34-10.21,14.8-16.1l3.39-5.77-.4,9.6c-.46,11-3.38,18.28-10.21,25.45-3.6,3.78-3.71,4.05-1.26,3.31,1.47-.44,4.35-1.85,6.4-3.13s4.45-2.75,5.33-3.27c2.9-1.72-5.37,7.89-11.43,13.3-19.72,17.57-47.69,19.77-67.85,5.34l-5.98-4.28-.68,2.69c-.37,1.48-.49,4.61-.27,6.96l.41,4.26-4.41-4.33c-2.43-2.38-5.54-6.82-6.92-9.85-1.38-3.04-2.65-5.72-2.82-5.97-.18-.25-1.63.76-3.24,2.25-2.37,2.2-8.46,5.13-10.64,5.13-.26,0,.77-1.48,2.29-3.28,4.92-5.84,3.46-19.46-2.91-27.19-7.18-8.71-21.36-11.53-32.33-6.41-12.65,5.89-19.05,15.75-18.34,28.3.58,10.22,4.63,17.87,14.82,27.98,6.83,6.78,10.16,9.12,19.29,13.56,11.01,5.35,19.7,8.02,61.16,18.82,21.96,5.72,35.35,10.42,49.06,17.24,27.1,13.48,44.93,30.53,52.43,50.14,3.76,9.83,4.6,24.88,2,35.76-7.17,29.98-29.01,45.32-65.35,45.91-12.59.2-14.7.81-12.07,3.46,1.13,1.14,3.26,16.65,3.26,23.76,0,3.67,1.24,6.87,5.76,14.96,13.37,23.89,24.93,55.5,30.55,83.55,1.8,8.98,4.64,20.65,6.32,25.92,6.24,19.65,10.68,41.07,12.72,61.32.65,6.51,1.94,12.23,3.6,16,4.05,9.21,5.13,15.23,6.14,34.12,1.34,25.29,6.54,52.83,13.53,71.69,2.97,8.02,13.77,23.62,19.65,28.38,8.06,6.53,15.78,27.46,14.15,38.34-1.24,8.26-4.93,11.94-17.05,17-2.94,1.23-19.08,3.47-25.07,3.49-1.92,0-3.13-.81-3.98-2.66-1.53-3.37-3.31-3.37-7.23,0-2.85,2.45-3.95,2.67-13.48,2.67-10.01,0-10.58-.13-16.12-3.68-3.28-2.1-6.03-4.73-6.41-6.13-2.41-9,3.01-32.75,9.48-41.55,9.87-13.41,10.38-31.37,1.59-55.22-6.71-18.2-18.26-36.92-27.38-44.4-3.89-3.19-4.91-4.9-6.8-11.44-5.1-17.6-4.74-16.96-16.86-29.2-6.3-6.35-14.46-15.75-18.15-20.88-3.68-5.13-6.92-9.33-7.2-9.33s-2.52,1.01-4.99,2.25c-6.45,3.23-10.98,7.89-15.96,16.42-2.4,4.11-7.55,10.67-11.44,14.58-5.83,5.85-8.16,7.42-13.16,8.88-10.86,3.16-17.08.31-31.48-14.4-11.91-12.17-14.49-13.37-19.65-9.14-8.65,7.1-20.52,15.73-25.35,18.44-5.78,3.25-6.13,4.13-3.59,9.05l1.71,3.3-3.31-.66c-4.35-.87-4.26.09.94,10.44,2.33,4.65,4.13,8.55,4,8.68s-2.04-.38-4.24-1.14-4-1.23-4-1.06c0,2.1,5.58,12.17,9.88,17.83,4.36,5.74,6.05,7.2,8.33,7.2,3.92,0,5.29,2.04,6,8.95l.61,5.9-5.41,5.92c-5.69,6.23-12.47,18.48-13.62,24.61-.64,3.39-1.48,4.02-12.57,9.48-6.54,3.22-15.54,6.77-20.02,7.88-7.33,1.83-8.86,1.89-15.46.61-11.1-2.15-11.55-2.06-13.69,2.68-1.84,4.09-1.83,4.26.51,8.42,1.31,2.34,3.55,4.78,4.98,5.43,3.25,1.48,8.07,11.54,10.98,22.94,2.7,10.56,2.8,17.73.28,20.84-2.86,3.54-15.05,6.72-27.65,7.22-9.84.39-11.07.23-13.04-1.74-2.28-2.28-4.85-2.05-5.84.52-.45,1.18-3.08,1.52-11.8,1.52-11.75,0-18.35-1.13-25.91-4.43-5.16-2.25-5.24-2.63-3.4-15.09,2.06-13.95,6.74-25.47,12.62-31.05,4.03-3.83,5.02-8.48,3.25-15.37-1.2-4.67-1.08-6.36,1.07-15.24,1.33-5.5,2.65-15.03,2.94-21.19l.53-11.2-2.84,3.73c-7.36,9.66-11.47,21.93-12.86,38.39-.97,11.51-2.24,15.47-5.94,18.59-1.79,1.51-3.67,2.74-4.16,2.74s-1.88-1.59-3.08-3.53c-2.85-4.61-6.92-6.89-9.08-5.09-2.6,2.16-3.13,7.08-1.1,10.18,6.39,9.75-8.42,39.89-21.28,43.33-2.41.65-5.07,1.73-5.89,2.4-1.62,1.33-84.65,1.82-85.95.51-.96-.96,5.15-15.82,9.72-23.65,5.44-9.31,14.56-20.15,22.49-26.73,4.82-4,11.33-7.76,19.52-11.28,10.04-4.32,12.8-7.15,12.8-13.18,0-7.9,3.65-13.16,13.08-18.8,9.76-5.84,14.82-10.51,23.14-21.36,8.41-10.97,13.53-19.16,17.71-28.34l3.54-7.78-2.13-2.7c-1.17-1.49-6.26-5.42-11.31-8.75l-9.18-6.05-8.32,1.79c-11.61,2.49-20.62,5.56-28.41,9.67-3.67,1.93-6.67,3.15-6.67,2.71s.73-2.86,1.61-5.38c.89-2.51,1.49-4.68,1.33-4.81-1.1-.98-13.9,2.59-15.93,4.46-3.1,2.84-7.86,5.25-12.26,6.2-2.93.63-3.48,1.29-4.1,4.97-.93,5.51-7.33,14.95-12.93,19.06-4.91,3.6-12.02,6.43-16.17,6.43h-2.72l2.34-2.5c2.13-2.27,4.9-9.12,4.03-9.99-.2-.2-2.95.85-6.11,2.32-7.35,3.42-14.95,3.59-20.12.44l-3.7-2.25,3.83-1.97c4.5-2.31,9.15-7.5,10.09-11.27.37-1.46.44-6.11.17-10.32-.82-12.56-5.71-20.23-26.94-42.31-6.49-6.75-14.46-15.3-17.72-19.01l-5.93-6.74-14.68,11.38c-16.7,12.94-32.17,27.74-39.41,37.68-4.18,5.74-4.94,7.55-4.95,11.73-.04,13.75-5.98,27.72-15.93,37.48-6,5.88-7.92,8.76-12.64,18.93-8.46,18.23-9.19,21.92-6.98,35.06,1.94,11.5,1.31,17.69-1.87,18.3-.9.17-3.47-1.14-5.71-2.93-7.7-6.12-8.71-3.67-4.2,10.12,2.53,7.75,2.74,9.68,2.35,21.83-.28,8.68-.97,14.43-1.98,16.49-2.02,4.13-7.4,7.68-13.04,8.59-2.48.4-6,1.64-7.83,2.76-2.89,1.75-5.51,2.02-19.87,2.02h-16.55l-1.84-2.8v-.05Zm402.36-2.7l6.85-2.12-.52-7.65c-.28-4.21-.78-11.74-1.11-16.73-.32-4.99-1.14-10.51-1.82-12.26l-1.22-3.19-1.5,2.84c-1.3,2.46-1.28,3.45.1,7.37,2.09,5.93,1.29,6.63-1.01.88-1.76-4.4-1.81-4.43-3.4-2.16-1.46,2.09-1.41,2.84.5,7.89,3.47,9.17,3.56,10.22.32,3.52-2.82-5.82-3.16-6.15-4.26-4.11-.93,1.75-.73,3.55.92,8.37,2.75,7.98,2.58,8.72-.46,2.07l-2.44-5.33-1.15,4.04c-.9,3.17-.81,4.9.41,8,1.27,3.22,1.28,3.61.08,2.09-2.18-2.74-2.85-2.31-2.85,1.87,0,2.05-.51,3.73-1.14,3.73s-.9-.84-.61-1.87c.29-1.03.86-4.03,1.26-6.67.41-2.64,2.32-9.24,4.25-14.66l3.51-9.87h-5.5c-8.63-.02-13.55-1.78-14.9-5.35l-1.15-3.04-2.49,3.38c-3.55,4.81-7.75,18.95-8.49,28.59l-.63,8.23,4.15,1.18c15.86,4.5,22.26,4.68,34.32.96h-.02Zm3.03-22.8c-1.03-2.68-.73-3.37.53-1.21.62,1.07.91,2.17.63,2.45-.27.27-.8-.28-1.16-1.23h0Zm28.13,23.91c3.23-.57,7.85-1.75,10.27-2.63,5.47-1.97,6.11-4.33,4.17-15.39-1.31-7.48-7.51-25.58-8.77-25.58-.31,0-1.98,1.19-3.7,2.63-3.9,3.28-17.07,7.3-22.01,6.73l-3.7-.43.66,7c.36,3.85.66,11.89.67,17.86,0,10.41.11,10.88,2.41,11.31,2.99.56,12.26-.13,20-1.5h0Zm318.41-1.02c4.66-1.22,10.2-3.19,12.32-4.38,9.43-5.3,9.74-19.69.81-37.39-3.18-6.3-4.5-7.36-5.6-4.48-.9,2.35-6.61,4.47-14.4,5.36-6.04.68-7.35.46-13.01-2.25l-6.29-3.01-4.94,2.47c-9.6,4.79-17.2,5.11-21.71.91-2.22-2.07-2.34-2.08-3.76-.17-2.81,3.8-7.15,19.09-7.72,27.19-.79,11.36-.19,13.08,5.12,14.67,5.56,1.67,18.07,2.74,21.61,1.85,2.57-.65,2.71-1.05,2.73-8.13.01-4.1.32-9.26.68-11.46,1.08-6.59,6.11-22.68,7.09-22.68.5,0,.18,1.76-.72,3.9-.9,2.15-1.38,4.79-1.08,5.87s.81,3.04,1.13,4.36c.56,2.31.52,2.3-.94-.18-1.46-2.5-1.54-2.51-2.2-.41-.38,1.2-.2,3.47.4,5.05,1.52,3.99,1.37,4.56-.55,2.14-1.53-1.93-1.62-1.75-1.25,2.73.22,2.64.78,5.76,1.25,6.93l.86,2.13-1.81-2.13c-1.73-2.04-1.78-1.88-1.14,3.71.37,3.22.84,6.01,1.04,6.22.2.2,1.31-.13,2.45-.74,2.16-1.16,3.43-6.82,3.46-15.48,0-2.41.53-5.1,1.15-5.98.82-1.15.95,1.6.49,9.78-.64,11.34.12,14.46,2.87,11.71,1.97-1.97,1.5-25.37-.65-32.54-1.03-3.44-1.64-6.48-1.35-6.77s1.33,2.04,2.32,5.18c1.21,3.85,1.97,11,2.34,21.97l.53,16.26h5c2.75,0,8.81-1,13.47-2.22h0Zm-709.53-1.45c13.96-3.02,15.31-4.99,16.46-24.04l.67-11.17-3.36,2.83c-2.36,1.99-5.18,3.06-9.46,3.59-7.35.92-20.92-.98-27.65-3.86l-4.81-2.06-3.65,7.9c-2.01,4.34-5.13,12.33-6.95,17.74-2.67,7.96-3.03,10.03-1.88,10.83,2.03,1.41,31.96.12,40.63-1.76h0Zm275.27.11c3.45-.86,7.53-2.5,9.07-3.65,7.18-5.35,17.3-26.37,15.73-32.66l-.65-2.6-3.28,3.06c-3.96,3.7-8.25,4.68-20.19,4.6-9.26-.06-18.42-2.15-23.24-5.31-2.57-1.68-2.73-1.59-9.49,5.06-8.96,8.83-18.44,23.07-21.12,31.72l-.79,2.55,23.85-.61c15.42-.39,26.06-1.16,30.11-2.17h0Zm-334.99-.13c8.08-.85,15.16-1.84,15.73-2.19.57-.35,1.04-1.78,1.04-3.16s1.01-4.83,2.24-7.67c5.16-11.9,5.07-12.45-.73-4.35-2.2,3.08-4.48,6.08-5.06,6.67-1.5,1.52,3.33-6.59,7.22-12.12,6.57-9.36,8.08-11.87,7.13-11.87-1.29,0-16.41,16.12-21.75,23.19-2.33,3.08-4.45,5.6-4.71,5.6-1.31,0,16.07-22.58,20.88-27.13,1.82-1.72,3.31-3.46,3.31-3.87s-2.6-.95-5.79-1.21c-4.13-.34-6.87-1.3-9.56-3.35l-3.77-2.87-4.47,5.62c-7.06,8.87-13.24,18.95-15.72,25.66-2.22,6-3.1,14.63-1.48,14.62.44,0,7.41-.7,15.49-1.55h0v-.02Zm274.69.67c4.32-.67,4.79-1.08,6.94-6.05,1.27-2.93,3.62-7.53,5.24-10.23,2.19-3.66,2.93-6.29,2.93-10.44,0-5.21-.13-5.47-2.13-4.4-1.62.87-2.18,2.35-2.31,6.17-.17,4.64-.21,4.72-.6,1.03-.23-2.2-.71-4-1.07-4-1.91,0-4.55,3.95-4.57,6.83,0,1.82-.48,4.02-1.05,4.9-.79,1.22-1.04.79-1.05-1.78,0-1.86-.23-4.02-.49-4.8-.53-1.59,7.44-8.21,18.02-14.96l6.97-4.45-3.89-2.21c-2.14-1.21-4.42-3.17-5.06-4.34-.64-1.17-1.27-2.31-1.39-2.53-.46-.83-9.7,6.64-17,13.75-4.54,4.41-9.59,10.77-12.47,15.7-4.88,8.33-10.3,19.71-10.3,21.64,0,1.17,16.09,1.28,23.29.16h0Zm-5.74-16.5c5.21-6.04,9.16-8.66,4.92-3.27-1.22,1.55-2.22,3.59-2.23,4.53-.01,1.37-.2,1.43-.93.28-.73-1.15-1.21-1.04-2.38.6-.81,1.12-2.18,2.47-3.05,2.99s.78-1.79,3.67-5.13h0Zm26.23-13.75c1.51-5.6.95-6.76-1.94-4.07-1.72,1.6-2.38,3.44-2.38,6.58,0,3.74.22,4.17,1.59,3.03.88-.73,2.1-3.22,2.73-5.54h0Zm7.98-6.34c3.5-3.6,5.89-6.3,5.3-6.01-.59.3-2.93,1.41-5.2,2.47-2.73,1.27-4.63,3.11-5.6,5.44-2.64,6.31-2.4,6.23,5.5-1.9h0Zm-238.11,2.38c.29-1.12.13-4.12-.36-6.67-1.5-7.75-.94-8.22,1.19-1,1.11,3.76,1.76,7.24,1.46,7.73-.31.5.45.9,1.69.9,1.56,0,2.73-1.14,3.81-3.73,1.41-3.38,1.36-4.51-.56-11.84-2.08-7.93-2.08-8.21-.15-12.53,1.08-2.43,2.24-5.14,2.56-6.02.32-.88.62-.14.67,1.64.06,2.49,1.11,4.03,4.54,6.67,2.45,1.89,4.9,3.43,5.45,3.43.95,0,.65-7.21-.92-21.98-.86-8.09.86-14.43,8.12-29.94,2.91-6.21,5.29-11.47,5.29-11.68s-.84-.41-1.87-.43c-1.03-.03.31-1.19,2.98-2.57,12.33-6.43,20.03-20.32,21.89-39.5.63-6.5,1.31-8.3,5.28-13.86,8.18-11.49,25.23-27.56,43.97-41.46,5.43-4.02,9.86-7.62,9.86-7.99s-1.14-2.1-2.53-3.84l-2.53-3.16-4.49,2.97c-2.47,1.63-8.17,6.09-12.66,9.89-6.97,5.9-6.47,5.28,3.36-4.22l11.53-11.14-3.31-5.38c-3.51-5.71-8.58-17.38-8.53-19.65.02-.74,2.06,2.49,4.54,7.18s6.02,10.69,7.86,13.33c4.83,6.91,19.13,23.22,32.25,36.79,19.8,20.48,26.18,29.17,29.34,39.92,3.33,11.36,1.67,20.61-4.87,27.15-4.48,4.48-4.15,5.93,1.34,5.97,7.69.05,16.21-5.49,19.34-12.56,3.07-6.94,2.35-21.14-1.47-28.85-1.49-3.01-2.12-4.99-1.4-4.39,5.33,4.43,8.68,24.61,5.52,33.3-2.27,6.24-3.14,17.85-1.35,17.85,2.52,0,6.52-4.05,9.63-9.77,3.93-7.21,4.98-20.69,2.31-29.77-.92-3.14-1.49-5.89-1.26-6.12.74-.74,3.64,10.39,4.36,16.74.63,5.56-.21,12.65-2.23,18.79-1.57,4.77,3.79-3.33,6-9.07,1.87-4.87,2.16-7.32,1.68-14.42-1.04-15.46-4.49-22.14-19.7-38.22-8.42-8.9-15.14-17.91-15.14-20.3,0-.59,1.38,1.07,3.07,3.67,1.69,2.61,7.12,8.61,12.08,13.34,13.38,12.76,21.12,24.28,21.12,31.42,0,1.16.44,2.11.98,2.11,1.87,0,3.52-7.69,3.09-14.4-.48-7.48-2.83-11.54-17.93-30.91-7.95-10.2-10.37-14.9-3.21-6.24,2.35,2.84,7.56,8.93,11.59,13.53,10.15,11.59,12.33,16.25,12.35,26.39.02,7.06-.36,8.66-2.9,12.51-1.84,2.78-2.92,5.85-2.92,8.31,0,3.86.04,3.89,3.74,3.29,5.29-.86,9.73-4.38,11.38-9.02.83-2.34,1.39-8.37,1.35-14.65-.05-9.3-.43-11.49-2.99-17.06-1.61-3.52-5.11-9.28-7.77-12.8l-4.84-6.4,6.12,6.35c8.57,8.89,13.27,20.29,13.27,32.18,0,1.97.36,3.58.8,3.57.44,0,2.84-1.18,5.33-2.6,5.83-3.33,5.96-1.86.14,1.6-6.05,3.6-8.41,5.98-8.41,8.45,0,1.79.52,2.02,3.47,1.5,6.54-1.14,15.2-3.8,16.8-5.17.88-.75,2.8-1.97,4.27-2.7,1.95-.97,1.35.06-2.28,3.86-4.17,4.38-8.16,10-7.09,9.99.17,0,3.72-1.4,7.9-3.1,4.18-1.7,11.96-4.15,17.3-5.45l9.7-2.35-4.11-4.95c-2.26-2.72-4.87-6.45-5.79-8.29-3.56-7.06-6.15-19.17-6.78-31.59-.35-6.89-.74-12.53-.88-12.53s-3.13,1.92-6.65,4.27c-7.49,5-13.89,7.46-19.42,7.46-5.08,0-8.05-2.97-7.04-7.02.62-2.45.45-2.73-1.21-2.02-4.23,1.81-21.2,1.86-27.33.08-5.72-1.66-5.94-1.86-4.98-4.39.96-2.52.82-2.65-2.97-2.66-6.96-.02-20.43-5.11-23.58-8.91-1.02-1.23-1.05-2.14-.11-3.9.67-1.26,1.07-2.43.87-2.6-.19-.17-3.04-1.08-6.32-2.02s-7.29-2.76-8.92-4.03c-2.59-2.04-2.89-2.88-2.45-6.79.48-4.27.35-4.52-3.08-5.76-5.46-1.97-9.81-6.19-11.21-10.87-1.73-5.78-.32-7.13,5.16-4.95,4.68,1.87,12.07,3.99,12.07,3.47,0-.19-3.01-2.5-6.69-5.13-14.31-10.21-26.24-25.93-30.94-40.74-2.09-6.58-2.35-9.61-2.24-25.6.07-9.97.55-19.42,1.07-20.99.93-2.83,1.02-2.77,7.88,5.63,18.29,22.39,40.38,35.32,69.32,40.57,9,1.63,44.36,1.74,49.56.16,2.51-.76,3.34-1.78,3.98-4.9,2.18-10.48,9.99-20.03,20.21-24.7,3.51-1.6,7.2-4.29,8.83-6.43,1.54-2.02,5.07-5.01,7.83-6.63,4.21-2.48,6.24-2.95,12.5-2.94,4.81,0,8.79.66,11.2,1.82,3.56,1.72,3.58,1.77.53,1.05-5.98-1.41-16.87-.74-20.8,1.29-7.57,3.91-13.81,11.77-16.15,20.35-.67,2.47-.76,2.04-.38-1.87.59-6.09-.09-6.26-7.15-1.73-9.99,6.41-14.76,16.6-14.64,31.22.12,13.95,1.08,14.49,6.2,3.47,2.41-5.18,5.41-10.88,6.68-12.66,2.68-3.77,9.56-7.19,14.51-7.22,2.51-.02,3.47-.51,3.47-1.8,0-3.19,6.49-11.98,11.65-15.76,6.3-4.62,13.09-6.56,18.79-5.36l4.22.89-6.54.7c-14.79,1.57-26.47,13.96-28.15,29.84l-.73,6.93-.15-7.2c-.14-6.5-.36-7.2-2.34-7.2-6.63,0-12.29,6.15-19.16,20.86-8.06,17.24-14.28,22.65-24.33,21.17l-4.98-.73,2.13,2.43c2.94,3.35,12.02,7.44,16.53,7.44,6.88,0,11.73-2,13.96-5.77,1.14-1.93,7.21-8.26,13.48-14.06,12.28-11.35,10.71-7.86-1.91,4.25-10,9.59-13.18,16.18-13.21,27.33-.02,8.51,2.13,14.45,7.01,19.33l2.34,2.34-.64-2.46c-.99-3.78,1.04-12.64,4.52-19.74,1.8-3.68,6.83-10.42,11.83-15.86,5.67-6.17,9.99-12.11,12.43-17.06,2.06-4.2,3.43-6.17,3.06-4.4-1.37,6.45-7.14,16.2-14.47,24.46-4.13,4.65-9.06,11.6-10.95,15.44-3.01,6.11-3.44,8.06-3.44,15.54s.37,9.09,2.6,12.29l2.6,3.73-2.48-2.13c-1.36-1.17-3.23-3.81-4.15-5.87l-1.66-3.73-.76,5.33c-.42,2.93-.8,12.45-.85,21.15-.08,12.7.34,17.52,2.1,24.42,4.11,16.1,8.32,21.61,24.47,32.01,10.8,6.96,12.69,8.58,16.38,14.02l2.81,4.15v-3.35c0-1.84.48-3.35,1.06-3.35,1.24,0,9.1,7.75,12.48,12.31l2.34,3.16.06-4.23.06-4.23,5.96,5.83c7.24,7.08,13.95,16.3,18.55,25.48,3.38,6.75,8.55,24.61,8.55,29.55,0,4.49.62,3.99,15.45-12.5,2.1-2.34,3.7-2.87,10.32-3.43,13.88-1.18,27.68-6.96,40.66-17.04,5.39-4.19,6.88-4.79,13.28-5.4,3.97-.38,9.01-1.19,11.2-1.8l3.99-1.12-4.34-5.49c-4.82-6.1-8.83-13.51-11.67-21.59-1.04-2.95-2.24-6.32-2.68-7.49-.54-1.43.71-.72,3.76,2.13,2.51,2.35,4.29,3.55,3.96,2.67-6.29-16.93-10.9-36.07-5.58-23.17,1.14,2.77,2.38,5.03,2.75,5.03s.63-4.22.58-9.38c-.1-10.31-.61-8.94,12.73-33.77,4.44-8.26,5.2-10.59,5.62-17.23.97-15.16-5.84-30.03-25.29-55.17l-4.82-6.24-1.34,5.17c-2.54,9.8-2.89,17.93-.94,21.85l1.78,3.58-2.35-2.34c-3.2-3.19-3.77-11.46-1.53-22.45,3.56-17.47.59-28.26-10.62-38.5-9.37-8.56-13.96-10.3-27.18-10.3-6.16,0-13.6.33-16.53.73l-5.33.73,5.65-2.02c7.93-2.83,16.66-3.59,24.59-2.14,3.73.68,6.93,1.08,7.13.88,1.05-1.05-6.28-15.3-9.54-18.56-2.1-2.1-3.83-4.19-3.83-4.64,0-1.44-12.09-7.21-18-8.58-10.72-2.49-24.36.63-35.51,8.13-3.02,2.03-5.95,3.98-6.53,4.34-.57.35.07-.86,1.42-2.69,2.97-4.02,8.86-8.04,15.68-10.72l5.03-1.98-3.71-2.26c-6.6-4.03-14.78-6.06-22.6-5.63-3.48.19-10.17,5.81-12.24,10.27l-1.5,3.22.63-3.2c.83-4.17,3.59-7.93,8.1-11.04,6.49-4.47,19.43-1.93,28.35,5.57,2.78,2.34,4.31,2.68,13.48,2.98,11.87.4,11.42.93,8.35-9.79-3.67-12.83-10.71-25.05-20.86-36.26l-4.35-4.8,5.16,4.8c10.55,9.8,20.12,26.2,23.61,40.45,1.6,6.55,2.18,7.53,4.96,8.5,1.73.6,4.58,2.12,6.34,3.37,4.35,3.1,6.71,2.08,5.74-2.46-1.67-7.81-9.3-29.39-13.8-39.03-5.23-11.18-3.94-10.47,2.59,1.43,4.4,8.02,10.8,24.4,12.92,33.06.72,2.93,1.43,5.49,1.58,5.68.21.26,8.16-4.32,9.82-5.65.15-.12-.89-4.74-2.33-10.25-4.53-17.44-14.07-38.38-24.83-54.5-6.98-10.47-14.65-18.98-32.62-36.19-9.57-9.17-19.97-19.73-23.12-23.46-5.52-6.55-5.42-6.49,2.74,1.74,4.65,4.69,14.69,14.1,22.3,20.91,16.11,14.4,21.33,19.85,29.51,30.81,12.13,16.25,24.19,41.44,28.84,60.28l2.21,8.95,4.18-2.89,4.18-2.89-.55-6.4c-1.27-14.73-9.32-35.15-20.3-51.52-3.27-4.87-5.54-8.61-5.04-8.3,2.06,1.27,12.14,16.99,16.55,25.81,5.01,10.02,9.94,24.42,11,32.11.35,2.54.96,4.82,1.37,5.07,1.39.86,19.12-16.59,25.58-25.16,14.27-18.93,22.44-44.51,22.44-70.23,0-2.96.26-5.37.58-5.37s2.38.92,4.58,2.04c8.93,4.56,19.09,19.43,24.83,36.35,2.96,8.72,3.5,11.99,3.9,23.46.38,11.05.07,14.97-1.82,22.92-2.53,10.61-10.2,27.48-16.98,37.33-2.42,3.52-3.93,6.56-3.35,6.75,1.82.61,13.11-6.46,17.78-11.14,2.46-2.46,5.48-6.44,6.71-8.84,3-5.88,6.46-6.02,9.26-.37,1.55,3.12,1.97,6.24,1.89,14.13-.09,9-.52,11.15-3.83,19.25-2.05,5.01-5.52,11.92-7.71,15.35-2.96,4.63-3.64,6.45-2.64,7.06,1.08.67,1.08,1.74-.02,5.45-1.73,5.86-5.36,10.68-10.37,13.77-3.43,2.12-3.67,2.52-1.89,3.15,1.86.66,1.73,1.01-1.47,4-4.62,4.33-9.73,5.9-17.41,5.34-4.32-.31-6.29-.07-6.29.78,0,3.12-4.47,5.21-12.37,5.78l-7.99.58,4.93,6.93c12.47,17.52,17.79,33.85,15.39,47.19-1.13,6.25-2.6,9.46-13.26,28.89l-4,7.29,3.05-1.61c5.32-2.81,19.84-15.06,27.88-23.53,6.51-6.85,15.41-18.08,21.32-26.88,1.14-1.7,1.16-1.6.1.65-6.13,13.04-27.08,36.11-43.12,47.48-8.42,5.97-10.11,7.65-10.67,10.65-.37,1.96-.25,4.3.26,5.22.8,1.42,1.87,1.09,7.5-2.31,20.11-12.17,40.12-31.77,55.35-54.24,22.95-33.85,33.34-71.46,32.21-116.6-.33-13.32-.18-17.17.52-13.37.54,2.93,1.04,14.69,1.1,26.13.14,24.39-1.93,37.99-8.98,59.15-7.26,21.77-19.4,44.22-32.18,59.54-2.34,2.81-4.02,5.35-3.73,5.64,1.06,1.06,17.41-3,23.69-5.88,28.78-13.2,51.01-51.13,56.5-96.38,1.73-14.23,2.15-8.88.55,6.88-2.57,25.3-11.46,47.9-26.6,67.64l-6.37,8.3,7.32,2.85c4.03,1.57,9.6,4.12,12.38,5.68,2.78,1.55,5.27,2.83,5.54,2.83s.21-1.56-.12-3.47l-.6-3.47,1.52,3.29c.84,1.81,4.97,8.53,9.19,14.93,9.42,14.3,31.55,36.86,40.54,41.34,6.56,3.27,4.86,3.81-2.07.66-4.3-1.95-4.61-1.97-4.07-.24.32,1.03,1.72,5.85,3.1,10.71,2.28,8.01,3.09,9.4,8.71,14.93,11.5,11.32,21.19,28.13,28.41,49.29,2.88,8.44,3.54,12.2,3.97,22.53.45,10.78.19,13.47-1.94,20.67-2.39,8.05-2.4,8.31-.46,9.73,3.41,2.49,10.27,1.75,17.56-1.89l6.71-3.35,5.57,2.82c6.17,3.12,14.28,3.68,20.72,1.43,6.8-2.39,6.64-3.82-1.69-14.79-8.01-10.56-11.79-17.29-14.55-25.94-6.82-21.35-11.45-47.46-12.48-70.39-.85-18.79-1.2-20.73-5.64-31.1-1.84-4.3-3.05-10.02-3.92-18.49-1.95-18.94-8.55-50.73-11.72-56.43-.46-.83-.67,5.17-.48,13.33.22,9.2.02,13.62-.54,11.64-.49-1.76-.95-6.32-1.02-10.13-.19-10.02-2.89-34.33-4.93-44.26-3.4-16.56-9.69-36.71-16.99-54.39-4.99-12.08-15.65-32.53-16.96-32.53-.59,0-.8,9.14-.52,22.66.28,13.4.1,20.92-.42,18.4-.49-2.35-1.26-19.38-1.72-37.86-.62-25.01-1.21-34.28-2.29-36.26-4.74-8.71-29.66-42.61-44.29-60.26-18.58-22.4-36.57-39.42-50.94-48.16l-6.16-3.75-12.69,1.16c-6.98.64-15.85,1.16-19.71,1.16h-7.02l8.79,7.73c28.94,25.46,50.52,52.13,64.32,79.52,6.1,12.1,13.61,30.09,12.87,30.83-.24.24-1.44-2.22-2.65-5.46-1.22-3.25-4.42-10.31-7.12-15.69-27.81-55.38-81-105.81-133.78-126.84-16.11-6.42-46.04-15.14-50.91-14.83-.45.03,2.3,1.73,6.11,3.79,7.69,4.14,6.99,4.01-6.93-1.33-12.08-4.64-26.61-12.05-46.39-23.69-36.68-21.57-61.68-34.28-67.41-34.28-.52,0,.21,1.56,1.64,3.47,1.43,1.91,2.95,4.67,3.37,6.13.48,1.65-.92.33-3.66-3.46-5.24-7.23-6.19-7.83-14.12-8.81-7.18-.89-10.07.22-5.55,2.12,4.37,1.84,9.8,6.66,11.75,10.43,1.64,3.16,1.59,3.15-2.44-.81-7.31-7.18-19.32-11-25.03-7.94-1.98,1.06-1.86,1.31,1.92,3.87,3.77,2.56,6.93,5.82,6.27,6.48-.16.16-5.02-2.17-10.8-5.17-10.16-5.28-10.75-5.45-17.84-5.05-5.71.32-7.73.89-9.11,2.55-.98,1.18-3.1,2.8-4.71,3.61s-2.93,1.75-2.93,2.09,3.48.64,7.73.67c9.91.07,17.75,3.96,21.32,10.59,1.1,2.04,1.06,2.05-1.43.27-5.73-4.11-15.3-8.4-20.01-8.95-4-.47-6.31,0-11.64,2.37-3.66,1.63-6.65,3.31-6.65,3.73,0,1.16,4.39,2.29,8.13,2.1,5.94-.3,14.02,4.06,16.66,8.99,1.12,2.09,1.1,2.09-1.97.05-9.53-6.33-14.93-7.26-22.29-3.84-5.91,2.75-13.11,9.24-14.85,13.39-.8,1.91-2.51,4.46-3.81,5.67-2.59,2.41-2.09,4.5,1.06,4.5,1.21,0,3.56-2.22,5.92-5.6,2.15-3.08,5.12-6.5,6.59-7.61,5.38-4.05,16.83-3.23,21.12,1.52,2.27,2.51,1.91,2.57-3.07.49-8.23-3.44-15.46-1.62-21.18,5.33-2.5,3.03-10.45,16.08-10.45,17.14s-6.01,9.64-8,11.35c-2.08,1.79-2.05,1.83,1.6,1.84,4.67,0,9.53-4.17,13.18-11.34,4.35-8.53,11.93-14.1,17-12.49,1.83.58,1.51.91-2.01,2.1-5.38,1.82-11.42,8.59-14.53,16.28-2.16,5.34-2.43,7.72-2.31,20.44l.13,14.4-1.55-11.73c-1.1-8.3-1.26-13.22-.55-16.83.97-4.93.94-5.04-.98-3.3-1.09.99-1.99,2.44-1.99,3.23s-.38,1.43-.85,1.43c-1.37,0-13.25,16.68-20.5,28.8-3.69,6.16-8.61,14.01-10.93,17.45-10.22,15.13-18.88,42.04-23.88,74.27-1.44,9.26-1.9,18.4-1.87,37.33.03,23.48.38,28.07,4.13,54.43.29,2.03-.15,1.08-.98-2.12-3.88-14.96-5.34-30.24-5.36-56.05,0-15.87.51-29.04,1.38-34.66,2.19-14.23,6.41-32.19,10.33-44.03,1.98-5.97,3.41-11.04,3.19-11.26s-3.02,3.6-6.2,8.51c-15.71,24.2-22.47,46.55-24.14,79.84l-.78,15.46-.08-16c-.04-8.8.27-18.76.69-22.13.94-7.55.1-6.83-4.01,3.47-12.78,31.99-15.43,62.9-10.24,119.45.24,2.64-.57-.21-1.8-6.32-2.65-13.18-2.42-13.28-11.04,4.73-11.7,24.44-20.65,62.14-20.83,87.77-.03,3.93-.69,10.26-1.47,14.08-1.31,6.37-1.44,6.59-1.6,2.67l-.18-4.27-4.9,9.6c-10.55,20.65-14,34.96-11.56,47.95.84,4.48.93,6.68.23,5.99-1.12-1.12-3.63,4.04-10.41,21.4-5.78,14.8-11.74,22.26-27.29,34.14-5.28,4.04-7.15,6.34-9.95,12.26-1.9,4.01-4.86,8.9-6.58,10.86-3.57,4.07-3.5,5.04.58,8.09,3.13,2.34,10.41,2.92,15.84,1.27,2.53-.77,3.05-.53,3.95,1.83,1.85,4.86,10.84,7.93,23.67,8.08,7.16.08,8.21-.15,8.67-1.94h0l.04.05Zm11.6-97.72c-4.13-3.47-5.9-8.95-5.18-15.97.51-4.93,4.76-17.14,5.66-16.24.19.19-.4,3.2-1.32,6.7-1,3.84-1.5,9.17-1.26,13.47.44,7.83,2.17,10.76,7.81,13.25l3.2,1.41-2.85.04c-1.57.02-4.3-1.17-6.06-2.66h0Zm411.84.06l-2.99-2.65,5.07,1.68c5.16,1.71,6.74,3.61,2.99,3.61-1.14,0-3.42-1.19-5.07-2.65h0Zm-61.8-4.29c.36-2.35.67-6.88.67-10.08,0-4.28.33-5.5,1.2-4.62,1.65,1.65.76,15.86-1.1,17.61-1.2,1.13-1.33.64-.78-2.91h.01Zm62.01-3.43c-2.53-.62-9.42-5.63-8.71-6.34.55-.55,13.51,5.77,13.51,6.59,0,.59-1.71.5-4.8-.25h0Zm-70.22-13.1c-.42-6.75-.99-14.9-1.28-18.13l-.52-5.87,1.69,4.27c2.05,5.18,3.16,21.86,1.83,27.73-.84,3.72-1.06,2.71-1.72-8h0Zm63.48-.73c-3.25-1.6-8.72-7.46-8.72-9.33,0-.43,1.86.69,4.14,2.49s6.24,4.48,8.8,5.94c4.03,2.3,4.3,2.66,1.99,2.65-1.47,0-4.26-.8-6.21-1.76h0Zm-84.11-3.15c4.22-5.02,6.37-13.26,6.93-26.52.6-14.21,2.29-13.08,2.43,1.62.12,12.11-2.29,19.27-8.24,24.51-2.24,1.97-2.53,2.07-1.11.39h-.01Zm81.43-11.16c-6.61-4.38-11.95-10.77-13.98-16.74-2.64-7.75-1.93-8.57,1.5-1.72,1.92,3.85,6.18,9.33,10.89,14.03,4.26,4.25,7.48,7.72,7.16,7.72s-2.82-1.49-5.57-3.3h0Zm-85.58-3.46c2.15-6.75,2.1-6.93-2.16-7.72-2.52-.47-5.26-.25-7.3.59-1.79.74-5.3,2.07-7.78,2.95-11.21,3.97-24.06-3.28-25.55-14.41-.5-3.74-1.03-4.48-3.6-5.05-4.22-.93-11.47-7.86-12.25-11.71l-.64-3.2,2.24,3.34c2.93,4.37,9.42,8.59,15.18,9.89,2.53.57,10.13,1.3,16.87,1.61,14.64.69,19.62,1.94,23.65,5.97l3.02,3.02v-2.85c-.02-6.3-2-10.29-6.59-13.27-4.9-3.18-4.77-3.88.25-1.29,3.74,1.93,3.72,2.03,1-4.86-2.95-7.47-1.07-5.84,3.16,2.75,4.63,9.4,6.2,18.64,4.47,26.35-.72,3.21-2.05,6.75-2.95,7.85-1.56,1.91-1.61,1.91-1.02.04h0Zm-14.85-7.59c2.05-.94,2.54-1.5,1.35-1.55-2.09-.1-3.45-4.14-2.7-8.05.66-3.44-.49-3.77-13.14-3.77-10.27,0-10.58.07-10.54,2.4.1,6.67,7.88,12.55,16.49,12.48,2.93-.02,6.77-.7,8.53-1.51h.01Zm-135.05-.31c-1.33-1.69-1.29-1.73.4-.4,1.03.81,1.87,1.64,1.87,1.87,0,.88-.88.31-2.27-1.46h0Zm443.7-5.48c-12.67-4.96-27.6-20.13-38.21-38.84-4.47-7.88-3.66-9.03,1.11-1.59,4.5,7.03,14.09,19.05,20.25,25.4,6.6,6.8,12.59,11.27,19.22,14.36,6.57,3.06,4.92,3.52-2.37.67h0Zm-214.17-11.55c-6.3-2.22-13.18-9.27-15.39-15.76-2.52-7.4-2.18-8.19.88-2.05,3.71,7.45,9.59,12.75,18.21,16.43,5.91,2.52,6.76,3.15,4.21,3.1-1.76-.03-5.32-.8-7.91-1.72h0Zm7.84-6.58c-4.85-2.2-11.69-7.84-13.41-11.06-1.39-2.6-.43-2.09,6.91,3.68,2.84,2.23,5.48,4.06,5.87,4.06s.54-2.43.33-5.41c-.51-7.41,3.76-15.7,14.78-28.68,8.31-9.79,11.65-16.3,11.75-22.89.03-2.1.09-2.11,1.19-.22,1.5,2.57.57,8.07-2.35,13.91l-2.32,4.65,2.41,3.26c3.27,4.43,4,12.67,1.65,18.81-2.04,5.35-8.7,11.92-13.11,12.95-4.14.96-7.76,3.4-7.76,5.23,0,.85,1.56,2,3.47,2.55l3.47,1-4.27.07c-2.35.04-6.22-.81-8.6-1.9h-.01Zm23.63-19.53c2.91-5.56,1.25-18.98-2.34-18.98-1.49,0-11.19,10.6-14.54,15.89-1.76,2.78-1.83,3.3-.45,3.3,3.17,0,9.23,4.4,9.23,6.7,0,2.06.24,2,3.29-.91,1.81-1.72,3.97-4.43,4.8-6.01h.01Zm-80.04,16.98c-2.48-1.41-5.56-4.55-7.47-7.63-2.89-4.67-3.23-6.12-3.17-13.32.08-9.1,2.04-14.64,9.72-27.37,6.64-11.01,10.89-20.58,12.56-28.31.81-3.74,1.51-5.57,1.56-4.08.18,5.89-3.55,16.19-11.8,32.52-7.85,15.56-8.68,17.8-9.18,24.8-.85,11.85,2.92,19.44,12,24.15,1.76.91,2.48,1.66,1.6,1.65-.88,0-3.5-1.09-5.83-2.41h.01Zm8.04.15c-3.87-3.61-5.42-8.66-5.42-17.75,0-10.85,1.9-16.16,9.05-25.31,14.48-18.52,16.62-21.62,18.26-26.51,1.23-3.66,1.6-7.46,1.25-12.8-.56-8.56-2.98-14.21-9.09-21.24l-3.9-4.48,4.95,4.69c6.96,6.59,9.73,13.41,9.81,24.1.06,7.47-.36,9.4-3.3,15.46-1.85,3.81-6.81,11.23-11.02,16.49-9.11,11.36-11.13,15.08-12.93,23.77-1.63,7.87-.12,18.25,3.33,22.91,2.62,3.54,2.31,3.75-1,.67h.01Zm-33.7-13.88c-9.77-8.58-11.11-20.68-4.49-40.53,4.57-13.7,6.51-22.53,5.58-25.45-.62-1.95-1.15-1.66-5.29,2.93-2.53,2.8-6.22,6.03-8.19,7.17-2.97,1.73-2.58,1.1,2.31-3.73,3.41-3.36,7.68-9.19,10.13-13.81,4.18-7.89,4.23-8.15,4.17-19.2-.07-12.18-2.05-19.08-7.67-26.66l-2.77-3.73,2.96,2.67c6.79,6.12,12.19,22.52,10.93,33.17-.35,2.96-1.75,7.87-3.12,10.9-2.13,4.73-2.31,6.03-1.28,9.1l1.2,3.59,2.4-3.05c3.57-4.54,10.34-19.31,11.83-25.83,2.35-10.27,0-20.72-6.61-29.31l-3.41-4.44,3.44,3.17c8.14,7.5,11.54,21.82,8.25,34.67-2.09,8.16-5.74,14.72-11.86,21.34-3.27,3.53-4.65,6.06-5.18,9.5-.4,2.58-2.72,10.74-5.16,18.13-6.93,20.99-5.88,32.46,3.69,39.99,1.92,1.52,3.15,2.76,2.73,2.77-.42,0-2.49-1.5-4.6-3.35h0Zm-43.84-1.88c-2.83-1.29-5.69-3.85-8-7.17-3.25-4.68-3.59-5.89-3.58-12.64.01-9.88,2.45-14.53,14.61-27.91,6.32-6.95,10.75-13,13.17-17.95,2-4.11,3.65-6.8,3.65-5.98.05,3.82-8.02,17.49-15.48,26.24-4.5,5.28-9.33,12-10.73,14.93-4.95,10.37-2.45,22.04,6.05,28.2,2.48,1.8,5.38,3.27,6.45,3.27,1.73,0,1.65-.42-.8-4-2.44-3.56-2.69-4.78-2.25-11.13.57-8.23,3.21-13.53,9.15-18.39,2.14-1.75,6.97-6.26,10.73-10.01,4.85-4.85,6.17-5.79,4.55-3.25-3.96,6.21-6.73,12.95-8.27,20.11l-1.49,6.93.46-7.73c.25-4.25.07-7.73-.41-7.73s-2.83,2.12-5.22,4.72c-7.52,8.16-9.71,21.46-4.66,28.29l2.08,2.82-2.8.19c-1.54.11-4.79-.71-7.21-1.81h0Zm362.48-1.68c.01-2.35.23-3.18.49-1.85.25,1.33.25,3.25-.02,4.27s-.48-.07-.46-2.41h0Zm-281.17-4.23c-.98-1.5-1.67-4.59-1.6-7.2l.12-4.57.78,4.01c.73,3.75,1.83,5.99,2.44,4.97.15-.24,1.44-2.78,2.88-5.64,1.45-2.87,4.78-6.92,7.47-9.07,2.67-2.13,7.63-6.63,11.02-10,9.6-9.54,4.75-2.51-5.84,8.47-6.45,6.69-10.29,11.68-12.08,15.73-1.44,3.26-2.81,5.93-3.05,5.93s-1.2-1.18-2.15-2.63h.01Zm23.85-.11c-1.47-3.86-1.23-9.07.56-12.2,1.42-2.48,1.53-2.04,1.56,6.13.02,4.84-.21,8.8-.52,8.8s-1.03-1.23-1.6-2.74h0Zm-56.96-4.04c-2.17-10.15.02-17.33,12.29-40.15,6.61-12.3,5.89-9.19-1.83,7.89-6.74,14.91-7.96,18.89-8.89,28.9-.66,7.17-.73,7.3-1.57,3.36h0Zm-29.03-5.54c-.35-.91-.39-1.88-.1-2.18.29-.29.79.45,1.1,1.65.66,2.54-.07,2.93-1,.53h0Zm110.19-23.71c-6.14-3.73-7.55-8.57-7.69-26.37-.08-9.99-.62-17.2-1.44-19.19-2.14-5.17-6.44-10.14-11.65-13.45-2.68-1.7-4.38-3.09-3.78-3.09,1.97,0,11.01,6.53,13.04,9.43,5.2,7.4,5.83,9.9,6.5,25.76.71,16.84,2.13,21.79,7.19,25.11,1.48.97,4.39,1.77,6.46,1.77,2.59,0,3.3.29,2.27.94-2.39,1.51-7.64,1.07-10.92-.92h.02Zm-107.33-28.6c-.01-.64.99-2.08,2.22-3.2,4.24-3.84,6.29-9.47,6.29-17.31,0-6.74-.45-8.25-5.33-17.78-2.93-5.73-5.31-11.19-5.29-12.14s.74-.11,1.6,1.86c.86,1.98,3.29,5.95,5.4,8.83,9.15,12.46,9.08,26.3-.19,36-2.57,2.7-4.69,4.38-4.7,3.74h0Zm58.72-3.19c.05-1.24.3-1.5.64-.64.31.77.27,1.69-.08,2.04-.35.35-.61-.28-.56-1.4h0Zm-60.79-4.27c.05-1.24.3-1.5.64-.64.31.77.27,1.69-.08,2.04-.35.35-.61-.28-.56-1.4h0Zm1.15-6.84c0-1.47.24-2.07.54-1.33.3.73.3,1.93,0,2.67-.3.73-.54.13-.54-1.33h0Zm-12.88-7.02c.05-1.24.3-1.5.64-.64.31.77.27,1.69-.08,2.04-.35.35-.61-.28-.56-1.4h0Zm316.83-13.24c0-1.47.24-2.07.54-1.33.3.73.3,1.93,0,2.67s-.54.13-.54-1.33h0Zm-523.73-2.76c.05-1.24.3-1.5.64-.64.31.77.27,1.69-.08,2.04s-.61-.28-.56-1.4h0Zm522.7-3.11c.02-1.76.26-2.35.53-1.31s.25,2.48-.04,3.2c-.29.72-.51-.13-.49-1.89h0Zm-415.7-7.57c.3-4.85,1.51-11.23,2.75-14.55,2.63-7.02,9.32-15,15.03-17.91,5.98-3.05,6.39-2.55.82.98-8.01,5.08-11.24,10.8-15.9,28.09l-3.24,12.03.54-8.64h0Zm19.27,3.23c1.48-2.17,3.67-7.37,4.87-11.54,1.2-4.17,3.6-11.23,5.33-15.67,1.73-4.45,3.15-8.41,3.15-8.81,0-1.26,7.58-11.75,11.33-15.67,1.98-2.08,3.64-4.72,3.69-5.87s.32-1.51.6-.81c.35.86,2.75.05,7.43-2.53,7.45-4.1,17.61-5.78,22.81-3.78,2.13.82,1.26,1.01-4.27.97-11.37-.1-22.48,6.27-32.16,18.43-4.65,5.85-12.1,21.15-15.84,32.56-2.4,7.34-6.27,14.61-8.49,15.98-.62.38.08-1.08,1.56-3.26h0Zm-36.16-6.16c-1.24-7.2-.09-15.03,3.18-21.73,2.95-6.02,13.37-17.26,25-26.95,6.79-5.66,6.73-5.57-2.72,4.3-18.71,19.54-22.9,26.71-23.95,41.01l-.62,8.53-.89-5.17h0Zm55.41.9c.97-6.31,5.53-19.38,8.58-24.57,7.59-12.95,17.44-19.74,29.71-20.49,4.15-.25,8.65-.03,10,.49,1.81.69.5.94-4.92.94-6.15,0-8.54.57-14.31,3.41-12.02,5.92-19.87,16.2-26.17,34.31-2.1,6.02-3.28,8.44-2.89,5.91h0Zm150.62-7.95c-8.68-5.9-16.95-8.76-25.88-8.95-4.11-.09-8.91.2-10.66.64l-3.2.8,3.2-1.86c2.34-1.36,5.49-1.85,11.73-1.81,11.06.06,18.83,3.03,26.41,10.11,3.07,2.87,5.34,5.21,5.05,5.22-.29,0-3.29-1.86-6.65-4.14h0Zm148.66-27.78c0-1.47.24-2.07.54-1.33.3.73.3,1.93,0,2.67-.3.73-.54.13-.54-1.33h0Zm-318.8-7.47c0-2.05.22-2.89.49-1.87.27,1.03.27,2.71,0,3.73-.27,1.03-.49.19-.49-1.87h0Zm136.81-2.71c-6-8.71-14.84-17.08-21.46-20.32-7.32-3.58-18.08-4.57-24.68-2.26-2.49.87-4.53,1.37-4.53,1.12s2.04-1.39,4.53-2.52c10.09-4.58,24.86-1.7,34.53,6.73,4.95,4.32,5.07,4.36,3.04,1.12-9.7-15.52-21.87-24.22-37.06-26.5-10.05-1.51-21.09,3.77-24.25,11.6-.8,1.97-.93,2.02-.99.32-.12-3.53,3.05-8.63,7.06-11.36,3.55-2.42,4.94-2.67,14.89-2.67h10.97l-5.03-5.13c-7.39-7.53-15-11.55-23.1-12.2-8.07-.65-13.27.89-18.46,5.44-2.67,2.34-3.47,2.71-2.67,1.21,4.71-8.81,20.43-12.39,31.3-7.13,5.05,2.44,14.8,11.43,17.74,16.36.95,1.59,4.31,4.03,7.71,5.6,11.75,5.42,22.01,16.31,25.12,26.66.83,2.76,2.42,6.31,3.54,7.9,2.27,3.22,6.83,11.95,6.24,11.95-.21,0-2.21-2.66-4.45-5.91h.01Zm180.84,4.22c.05-1.24.3-1.5.64-.64.31.77.27,1.69-.08,2.04-.35.35-.61-.28-.56-1.4h0Zm-230.4-.85c-.08-3.42,4.24-9.16,8.55-11.36,6.99-3.56,20.24-2.44,25.71,2.19l2.48,2.1-4.27-1.78c-2.61-1.09-7.37-1.81-12.26-1.86-9.47-.09-14.76,2.48-18.11,8.82-1.39,2.63-2.07,3.24-2.1,1.89h0Zm-73.15-5.48c.81-10.51,4.2-19.42,11.32-29.86,7.74-11.34,10.56-16.61,10.66-19.94.07-2.31.12-2.33.97-.31,1.81,4.34-.57,9.86-9.72,22.49-6.25,8.63-9.34,15.62-12.2,27.64l-1.53,6.4.5-6.42Zm-12.7-4.21c.36-2.33,2.59-9.77,4.95-16.53,10.6-30.4,11.76-34.54,12.34-44.15.57-9.5,1.54-10.25,2.86-2.22,1.09,6.63-1.79,18.02-9.11,36-3.63,8.91-7.75,19.56-9.15,23.67-1.81,5.3-2.36,6.24-1.89,3.23h0Zm-33.51-4.59c-.19-7.74,2.84-15.65,10.52-27.51,9.22-14.23,9.74-16.13,8.91-32.46-.77-15.29.2-21.14,4.6-27.8,2.42-3.66,8.31-8.46,10.38-8.46.39,0-1.07,1.56-3.24,3.47-10.45,9.17-11.52,21.81-5.02,59.23,1.46,8.38,2.41,15.82,2.12,16.53s-.56,0-.61-1.57c-.12-4.01-1.66-4.54-3.2-1.1-1.55,3.47-9.73,16.23-10.4,16.23-.26,0-.26-.36,0-.8s2.37-3.93,4.7-7.75c7.09-11.66,7.57-14.41,4.45-25.99l-1.15-4.25-3.4,6.33c-1.87,3.48-5.36,9.21-7.75,12.73-6.62,9.72-8.99,15.04-9.93,22.24l-.86,6.56-.14-5.63h.02Zm62.28-2.37c2.68-13.07,14.34-22.08,24.91-19.23,2.28.61,4.76,1.86,5.52,2.77,1.21,1.46,1,1.56-1.74.82-11.38-3.07-20.04,1.09-25.88,12.44-2.86,5.55-3.41,6.19-2.8,3.2h-.01Zm-36.33-3.73c1.45-6.55,1.96-8,2.82-8,.52,0,.9,1.8.83,4-.07,2.27-.35,3.1-.65,1.91-.46-1.83-.72-1.69-2,1.07-.81,1.74-1.26,2.2-1,1.02h0Zm130.55-23.73c-1.33-1.69-1.29-1.73.4-.4,1.03.81,1.87,1.64,1.87,1.87,0,.88-.88.31-2.27-1.46h0Zm-158.56-4.27c6.54-6.99,8.32-14.99,8.32-37.45,0-18.66,1.05-24.07,6.31-32.35,4.97-7.84,16.33-12.04,21.76-8.05,1.53,1.12.83,1.33-4.41,1.33s-6.89.5-10.16,3c-8.46,6.46-11.45,17.48-11.17,41.26.21,18.8-1.5,26.22-7.3,31.69-4.49,4.23-7.21,4.69-3.35.57h0Zm39.02-10.66c-5.09-11.5-6.64-25.14-3.55-31.13,3.58-6.92,11.87-10.67,16.57-7.49,1.18.8.83.9-1.35.4-6.36-1.48-12.49,3.96-13.99,12.42-.75,4.2,1.59,19.35,4.06,26.36,2.14,6.07,1.03,5.71-1.74-.56h0Zm119.61-1.94c-4.88-5.05-12.84-10.25-14.62-9.57-.79.3-1.16.12-.84-.41.33-.53,0-1.18-.74-1.44s-.98-.86-.54-1.34c1.07-1.15,10.85,5.69,16.75,11.71,2.62,2.67,4.51,4.85,4.21,4.85s-2.2-1.71-4.22-3.8h0Zm-194.3-9.47c3.78-3.18,9.08-12.93,11.34-20.85,2.82-9.9,4.76-25.17,6-47.1,1.02-18.19,3.33-34.71,5.85-41.96.47-1.34-.84-.5-3.54,2.27-6.57,6.75-8.62,14.75-9.87,38.53-.56,10.71-1.7,23.02-2.53,27.36-1.42,7.44-5.73,17.86-7.95,19.24-.56.34.36-2.14,2.02-5.52,3.71-7.53,5.34-17.69,5.36-33.55.05-29.66,3.53-42.87,12.72-48.32,1.98-1.17,5.96-4.62,8.84-7.65,2.89-3.03,6.84-6.27,8.79-7.2,3.97-1.88,9.86-2.18,12.29-.61,1.17.76.37,1.04-2.99,1.05-2.52,0-5.88.7-7.47,1.53-3.71,1.94-10.18,8.77-12.27,12.93-2.85,5.67-4.99,19.1-6.14,38.6-1.91,32.18-5.03,50.99-10.16,61.22-2.3,4.58-10.23,12.65-12.44,12.65-.53,0,.44-1.18,2.15-2.61h0Zm160.42-1.08c-11.36-7.06-29.49-10.81-39.31-8.14-2.64.72-5.57,2.54-7.2,4.47-1.51,1.79-2.74,2.78-2.74,2.19,0-2.28,5.6-7.55,9.37-8.82,5.96-2,17.28-1.48,25.19,1.15,6.6,2.2,18.77,9.19,20.3,11.66.96,1.56.94,1.54-5.61-2.52h0Zm-136.63-3.24c0-.59.69-2.27,1.52-3.73.84-1.47,1.52-2.19,1.52-1.6s-.69,2.27-1.52,3.73c-.84,1.47-1.52,2.19-1.52,1.6Zm148.38-8.27c-5.47-9.96-15.05-23.39-21.37-29.96-20.57-21.38-52.51-33.85-62.11-24.25-3.38,3.38-4.13,2.61-1.45-1.48,2.06-3.14,6.69-4.84,13.15-4.84,18.37.02,46.39,18.96,61.61,41.64,5.55,8.27,15.84,26.61,14.93,26.61-.29,0-2.43-3.48-4.77-7.73h0Zm-67.4-.18c0-4.1,7.17-7.22,12.18-5.3,2.44.94,2.08,2.45-.43,1.8-3.02-.79-6.61.32-9.37,2.89-1.84,1.71-2.38,1.85-2.38.62h0Zm-111.12-4.86c1.94-1.9,3.75-3.22,4.03-2.95.27.27-1.31,1.83-3.53,3.45l-4.03,2.95,3.53-3.45Zm34.91,1.05c.49-1.47.95-16.1,1.02-32.53.13-32.7,1.04-40.53,5.67-49.06,3.12-5.75,8.62-10.13,12.72-10.13,4.31,0,9.86,3.27,11.57,6.81,1.03,2.14,1.11,2.74.22,1.67-4.69-5.58-12.34-6.93-17.27-3.05-7.48,5.88-10.25,19.57-10.25,50.63,0,15.33-.48,23.92-1.63,29.4-.9,4.26-1.93,8.01-2.29,8.34-.36.33-.26-.61.24-2.07h0Zm104.74-13.6c-4.57-6.83-10.08-11.7-17.26-15.24-6.3-3.1-7.58-3.36-14.69-2.92-4.28.27-8.75.87-9.92,1.33-1.97.79-1.95.66.26-1.66,1.95-2.04,3.74-2.59,9.6-2.92,5.97-.34,8.25.06,13.36,2.31,6.94,3.07,15.95,11.52,19.78,18.55,3.05,5.6,2.45,5.89-1.12.53h0v.02Zm-93.09-26.4c.41-14.32,2.17-20.94,6.85-25.84,3.9-4.08,8.89-6.08,12.63-5.05l2.95.81-3.2.73c-11.21,2.54-16.46,11.72-18.61,32.56l-.99,9.6.37-12.8h0Zm111.98-.31c-16.78-16.19-33.54-25.42-51.11-28.15-9.04-1.41-13.66-.51-20.16,3.9l-3.89,2.64,1.72-2.62c1.95-2.98,7.85-6.92,10.36-6.92,6.89,0-1.37-8.88-10.99-11.8-2.15-.66-2.26-.83-.54-.88,3.53-.11,11.24,3.93,14.79,7.76,2.82,3.03,4.67,3.86,11.87,5.31,5.43,1.09,12.3,3.6,18.91,6.89,10.31,5.14,10.37,5.16,9.77,2.41-.95-4.32-3.39-14.27-4.08-16.62-.34-1.17.37-.07,1.58,2.44,1.21,2.52,3.05,7.88,4.07,11.93,1.8,7.09,2.16,7.61,10.23,14.62,7.03,6.11,18.86,18.56,17.52,18.43-.22-.02-4.74-4.22-10.04-9.33h0Zm13.23,1.11c-1.33-1.69-1.29-1.73.4-.4,1.03.81,1.87,1.64,1.87,1.87,0,.88-.88.31-2.27-1.46h0Zm-110.77-9.14c0-3.35,2.17-6.19,5.95-7.77,3.17-1.33,4.13-1.32,7.38.04,4.57,1.91,4.88,3.16.53,2.2-5.19-1.14-9.53.37-11.8,4.1-1.46,2.4-2.05,2.81-2.06,1.43h0Zm56.07-33.47c-1.17-4.92-9.73-16.58-15.21-20.72-2.82-2.13-8.66-5.64-12.97-7.8-8.57-4.29-9.37-5.69-2.13-3.74,6.29,1.69,10.14,3.77,15.95,8.61,2.7,2.25,5.22,3.78,5.6,3.41.38-.38.69,0,.69.83s1.44,3.67,3.2,6.31c3.22,4.84,7.05,14.63,6.1,15.58-.28.28-.83-.83-1.22-2.47h-.01Zm-12.55-3.56c-9.25-13.13-27.95-19.81-37.45-13.36-3.78,2.56-3.81,2.57-2.99.27,3.19-8.96,23.65-6.78,34.09,3.64,3.79,3.78,10.21,12.62,9.59,13.19-.2.19-1.66-1.49-3.24-3.73h0Zm-1.72-25.39c-11.89-18.35-29.66-23.49-42.67-12.35-5.06,4.33-5.9,3.39-1.57-1.75,11.58-13.77,34.23-6.92,45.44,13.74,3.77,6.95,3.19,7.12-1.19.36h0Zm43.18,542.02c2.23-1.67,3.25-3.7,4.19-8.36,1.58-7.88,5.12-11.84,9.19-10.29,1.52.58,4.09,2.71,5.71,4.74,5.4,6.76,8.4,2.14,10.05-15.45.62-6.66,1.64-14.01,2.27-16.34,1.53-5.73,7.82-18.1,12.38-24.35l3.73-5.11-1.74-9.52c-.96-5.24-2.27-10.85-2.9-12.48l-1.16-2.96-1.68,3.47c-2.05,4.23-2.81,4.32-4.39.51-.67-1.63-3.02-5.05-5.22-7.6l-4-4.64-2.02,6.27-2.02,6.27-.9-4.27c-1.66-7.86-1.93-7.79-6.77,1.92-5.6,11.24-16.49,27.11-24.6,35.86-3.56,3.84-9.2,8.27-14.27,11.19-10.24,5.9-12.83,9.2-12.83,16.31,0,4.38.5,5.72,3.08,8.18,1.69,1.62,4.93,3.61,7.2,4.42,2.27.81,3.26,1.49,2.22,1.52-2.47.06-9.26-2.79-11.51-4.83-1.58-1.43-2.11-1.26-5.2,1.63-1.89,1.77-5.31,3.78-7.58,4.46-4.68,1.4-8.46,4.48-8.46,6.88,0,1.92,6.17,4.7,10.43,4.7,1.67,0,3.96-.7,5.1-1.57,2.88-2.18,3.95-2.01,2.64.43-2.35,4.39-1.38,6.21,4.5,8.4,8.59,3.2,9.12,3.28,20.75,3.04,9.12-.19,11.37-.58,13.84-2.43h-.03Zm62.99-.17c1.03-1.04,2.62-3.04,3.54-4.45,2.19-3.35,4.85-2.35,6.92,2.59,1.51,3.62,1.75,3.75,7.15,3.69,6.63-.07,18.23-4.2,18.72-6.67.19-.94-.9-3.53-2.4-5.74-3.11-4.57-3.51-9.42-1.08-12.89l1.66-2.37h-11.89c-10.16,0-12.33-.31-14.87-2.12-3.89-2.77-4.85-6.72-2.57-10.57,1.67-2.82,1.64-3.64-.38-13.55-1.19-5.8-3.21-13.33-4.5-16.74-2.4-6.34-11.34-20.6-14.57-23.26-1.65-1.36-1.74-1.17-1.05,2.25,3.39,16.88,3.37,34.8-.07,47.99-1.09,4.17-1.91,12.03-2.08,19.73-.15,7.04-.42,14.71-.59,17.05-.3,4.01-.11,4.33,3.41,5.54,5.68,1.95,12.48,1.73,14.66-.49h0Zm66.6-28.62c4.87-1.53,13-4.91,18.08-7.52,8.32-4.27,9.29-5.09,9.9-8.35,1.1-5.86,7.62-17.76,12.83-23.4,4.32-4.68,4.84-5.8,4.84-10.27,0-6.96-1.67-8.15-8.24-5.85-2.8.98-8.68,2.06-13.08,2.42-7.6.61-8.34.91-15.42,6.31-12.91,9.84-26.24,15.22-41.9,16.93-6.62.72-6.67.75-11.91,7.43-2.9,3.69-7.23,8.08-9.63,9.76-5.35,3.76-6.54,7.2-3.52,10.22,1.97,1.97,3.74,2.19,19.6,2.48,9.59.17,19.12.79,21.17,1.36,5.82,1.63,7.8,1.46,17.28-1.51h0Zm-15.43-6.89c.57-2.18.36-2.2-15.3-1.61-11.69.44-15.03.31-12.67-.51,4.07-1.41,22.85-2.6,26.53-1.67,2.77.7,3.92,4.1,1.83,5.4-.53.33-.71-.39-.39-1.61h0Zm33.9-12.7c-.96-1.55,1.4-9.54,4.28-14.51,2.64-4.57,9.24-11.08,13.48-13.31,1.55-.81.46.87-2.88,4.44-6.18,6.62-9.43,11.61-11.64,17.87-1.58,4.47-.88,5.74,1.55,2.82.73-.88,1.83-1.6,2.45-1.6s0,1.2-1.38,2.67c-2.62,2.79-4.76,3.39-5.85,1.62h-.01Zm92.77-91.7c7.47-3.58,14.47-11.19,22.26-24.25,4.5-7.53,8.73-11.48,15.54-14.5l4.75-2.11-3.15-2.54c-6.17-4.99-7.61-4.67-15.25,3.4-7.36,7.77-6.41,4.37,1.21-4.36,3.9-4.47,3.97-4.66,1.85-5.79-1.8-.97-2.87-.65-6.12,1.81-3.75,2.84-3.97,1.94-.52-2.08,1.46-1.7,1.26-1.99-2.26-3.47-5.17-2.16-6.44-2.05-9.97.91-10.36,8.66-23.48,14.45-37.68,16.62-7.22,1.1-8.44,1.65-12.53,5.66-2.49,2.44-4.53,4.71-4.53,5.04s1.71,1.52,3.81,2.65c2.09,1.13,7.62,6.23,12.29,11.34,12.27,13.44,20.2,16.5,30.3,11.67h0Zm-286.59-39.39c6.35-2.19,19.13-10.48,19.91-12.92.28-.88.6-5.09.71-9.36.15-5.81-.2-8.09-1.4-9.07-.88-.72-2.35-2.42-3.25-3.78l-1.64-2.48-4.11,4.59c-6.76,7.54-11.41,11.61-14.02,12.27-1.35.34-2.61.44-2.79.22-.18-.22,4.34-4.71,10.06-9.99,5.72-5.28,10.16-10,9.87-10.48-.71-1.19-10.82.25-14.16,2.01-1.47.77-5.42,3.49-8.79,6.04-7.75,5.86-14.29,8.31-23.73,8.89l-7.47.46,6.93-1.5c9.34-2.02,13.86-4.07,22.71-10.29l7.48-5.26h-8.51c-6.34,0-10.54.69-16.43,2.72-8.93,3.06-22.49,4.44-30.41,3.08-4.88-.84-4.44-.95,6.5-1.64,6.45-.41,14.37-1.59,17.6-2.61l5.87-1.87-9.6-1.4c-12.81-1.87-21.43-4.07-33.18-8.47-5.38-2.01-10.73-3.66-11.91-3.66s-6.02-1.13-10.78-2.51c-9.32-2.7-9.99-2.37-6.6,3.2,1.45,2.38,3.79,4.01,8.03,5.6,3.29,1.23,6.76,2.24,7.7,2.24,1.28,0,.99.67-1.11,2.62-3.45,3.2-3.54,4.87-.41,7.81,2.26,2.13,12.78,5.57,17.01,5.57,2.44,0,2.4.64-.22,3.97-1.17,1.49-2.13,3.05-2.13,3.46s2.55,2,5.66,3.52c7.61,3.72,18,5.48,24.18,4.1,2.62-.59,4.92-.91,5.12-.72.19.19-1.35,1.41-3.44,2.69-5.25,3.25-4.82,4.97,1.6,6.35,7.23,1.55,13.06,1.43,20.74-.42,8.64-2.09,8.36-2.19,7.56,2.82-1.07,6.68,1.18,7.55,10.87,4.21h-.02Zm4.5-43.72l8-.66-.28-3.2c-.15-1.76.38-5.96,1.19-9.33s1.35-6.13,1.21-6.13-2.11.77-4.36,1.71c-9.98,4.17-22.19-.26-27.96-10.14l-2.74-4.7,3.14.7c1.73.39,5.6,1,8.6,1.37,5.17.63,5.69.46,9.54-3.07l4.07-3.73-1.28-6.92c-.7-3.81-1.28-8.31-1.28-10v-3.08h-25.33c-23.16,0-26.19-.22-35.43-2.54-22.87-5.76-38.46-14.71-55.24-31.71-8.95-9.07-11.09-10.76-11.69-9.22-.4,1.04-.75,8.36-.76,16.28-.03,16.21,1.32,22.32,7.54,34.2,10.01,19.12,29.31,34.53,53.2,42.46,21.2,7.04,45.52,9.73,69.85,7.72h0Zm210.36-26.28c2.04-.8,2.48-3.73.81-5.4-.7-.7,2.92-1.04,10.62-1.01,9.54.03,12-.29,13.47-1.75,1.67-1.66,1.67-1.92.05-3.54-2.49-2.49-2.19-3.38,1.36-4.09,4.04-.81,10.68-6.67,12.51-11.06,1.92-4.6,1.93-4.58-1.88-4.58h-3.32l3.72-4.12c7.5-8.31,14.86-24.17,16.89-36.38,1.06-6.38-.22-15.39-2.66-18.72-1.29-1.76-1.64-1.52-4.25,2.95-4.16,7.09-12.35,14.25-21.15,18.46-4.24,2.03-8.21,3.69-8.82,3.69s-5.91,4.85-11.76,10.77c-6.96,7.04-9.78,10.51-8.14,10.03,1.38-.41,6.65-1.86,11.73-3.22,14.33-3.84,20.89-6.64,25.09-10.73,4.32-4.2,4.97-3.94,1.7.67-4.77,6.7-12.47,10.09-31.48,13.86-12.11,2.4-14.95,3.49-20,7.62l-3,2.46,16.86-.66c15.8-.62,22.18-1.74,25.86-4.56,1.17-.9,1.35-.86.73.17-1.21,2.01-7.95,5.13-14,6.49-2.93.66-11.09,1.08-18.13.95-11.58-.23-13.23-.02-17.39,2.2-3.86,2.06-4.47,2.82-3.87,4.8.4,1.29.79,2.44.87,2.54.08.11,7.92.35,17.41.53,14.55.29,17.03.57,15.83,1.79-2.28,2.31-10,2.62-19.63.78-13.21-2.52-12.95-2.59-12.94,3.37,0,4.42.64,5.86,5,11.34l4.99,6.27,7.54-.59c4.14-.32,8.38-.92,9.4-1.32h-.02Zm-24.28-33.55c2.55-1.75,4.79-3.55,4.99-4s3.16-2.7,6.57-5c7.52-5.06,21.51-18.7,29.62-28.88,27.35-34.29,31.68-73.21,11.81-106.08-4.16-6.88-13.55-17.1-15.71-17.1-.79,0-1.44,4.16-1.86,12-1.72,31.4-15.82,59.46-40.72,81.06-7.57,6.57-30.78,22.97-34.77,24.56-1.11.44-.57,1.48,2.07,3.96,3.54,3.33,10.77,17.26,10.89,20.99.03,1.1,2.84,3.96,6.49,6.62,3.54,2.58,8.17,7.02,10.3,9.87s4.28,5.18,4.78,5.18,3-1.43,5.54-3.19h0Zm212.25-100.72c27.45-7.53,42.51-27.15,42.6-55.53.03-8.43-.48-12.17-2.44-17.86-6.84-19.92-25.8-38.32-53.06-51.5-14.94-7.22-25.26-10.69-55.89-18.74-38.62-10.15-41.83-11.16-52.73-16.56-14.53-7.19-22.46-13.76-29.31-24.27-12.91-19.82-7.66-41.3,12.32-50.45,7.66-3.51,14.7-4.18,21.88-2.09,13.3,3.87,20.41,13.23,20.56,27.08.05,4.61.51,7.6,1.15,7.42.59-.17,2.39-2.9,4-6.05,3.08-6.03,3.79-12.58,1.89-17.56-1.4-3.69-.29-3.51,1.21.2.65,1.61,1.25,7.97,1.34,14.13.11,8.35.61,12.01,1.97,14.4,2.68,4.72,4.95,7.39,5.67,6.67.35-.35.71-5.36.79-11.12.2-14.29-3.29-24.36-12.25-35.32-1.78-2.18-1.09-1.64,1.54,1.2,7.2,7.78,13.57,22.68,13.57,31.77,0,3.5,7.16,10.21,14.63,13.73,7.13,3.35,18.98,5.59,25.34,4.79,8.32-1.04,17.95-4.53,24.89-9.02,5.97-3.86,8.77-6.44,6.99-6.44-.44,0-4.4,1.01-8.8,2.25-11.67,3.27-26.82,2.59-36.11-1.63-3.66-1.66-7.18-3.66-7.83-4.45-.65-.78,1.62-.04,5.05,1.66s9.28,3.63,13,4.3c17.56,3.13,34.84-5.22,42.03-20.29,3.03-6.36,4.69-12.78,3.29-12.73-.49.02-2.08,1.71-3.55,3.76-6.1,8.54-20.24,15.6-33.8,16.89l-6.19.59,6.65-1.54c8.99-2.08,11.96-3.78,17.68-10.15,6.78-7.54,9.61-15.42,9-25.06-.91-14.46-6.95-21.89-26.4-32.48-8.49-4.62-12.26-7.4-15.6-11.49-2.42-2.96-4.67-6.04-4.98-6.84-.47-1.19-.79-1.16-1.74.15-4.73,6.54-1.45,12.38,12.14,21.6,5.84,3.96,12.2,8.74,14.15,10.62,12.48,12.09,11.74,33.25-1.43,40.97-3.92,2.3-6.7,3-13.35,3.39-7.76.45-8.93.23-15.13-2.82-3.7-1.82-7.65-4.33-8.77-5.57-1.24-1.37.15-.79,3.54,1.5,15.75,10.6,36.67,5.35,40.87-10.26,3.34-12.4-3.11-23.57-19.86-34.4-12.63-8.17-22.32-16.78-24.91-22.13-1.39-2.88-2.24-6.72-2.24-10.16,0-3.04-.47-5.53-1.04-5.53-2.22,0-5.35,8.44-5.35,14.4,0,10.58,5.83,18.73,19.88,27.8,10.33,6.66,18.01,13.93,20.16,19.08.85,2.04,1.48,6.01,1.4,8.81l-.15,5.1-.66-5.4c-.36-2.97-1.59-6.81-2.73-8.53l-2.07-3.14-.91,4.53c-1.76,8.76-12.7,13.34-26.42,11.08-6.92-1.14-12.18-3.08-30.55-11.27-15.42-6.87-33.38-8.86-48.25-5.36-18.29,4.31-31.5,17.99-35.37,36.62-1.77,8.52-.74,23.9,2.09,31.22,8.22,21.25,32.28,39.46,68.73,52,6.94,2.39,22.44,7,34.45,10.25,50.64,13.72,70.45,24.34,80.28,43.03,8.08,15.38,4.61,31.08-8.82,39.98-16.14,10.69-37.83,10.55-61.18-.39-6.71-3.14-8.68-3.73-7.6-2.25.8,1.09,7.21,9.65,14.25,19.02s14.39,19.33,16.34,22.13l3.54,5.09,15.13-.55c9.03-.33,17.7-1.26,21.53-2.31h0l-.05.03Zm-60.39-208.3c-1.33-1.69-1.29-1.73.4-.4,1.03.81,1.87,1.64,1.87,1.87,0,.88-.88.31-2.27-1.46h0Zm25.84-24.48c.78-1.29,1.64-2.12,1.92-1.84.28.28-.35,1.34-1.41,2.35-1.84,1.76-1.86,1.74-.51-.51h0Z" style="fill:none; stroke:#000; stroke-miterlimit:10; stroke-width:3px;"/></svg>