<?xml version="1.0" standalone="no"?>
<!DOCTYPE svg PUBLIC "-//W3C//DTD SVG 20010904//EN" "http://www.w3.org/TR/2001/REC-SVG-20010904/DTD/svg10.dtd">
<svg xmlns="http://www.w3.org/2000/svg" version="1.0" viewBox="0 0 495.000000 498.000000">
  <metadata>
Created by potrace 1.11, written by Peter Selinger 2001-2013
</metadata>
  <g transform="translate(0.000000,498.000000) scale(0.100000,-0.100000)" fill="#000000" stroke="none">
    <path d="M2188 4480 l-38 -20 -17 0 -18 -1 -19 -14 -20 -15 -23 0 -23 0 0 -10 0 -10 -27 -6 -28 -7 -5 -7 -5 -7 -85 -69 -85 -69 -53 -55 -54 -55 -30 -47 -30 -48 -9 0 -9 0 0 -11 0 -12 -32 -51 -32 -51 -4 -115 -4 -115 13 -75 13 -75 -1 -40 -1 -40 -3 -35 -2 -35 10 -82 10 -83 13 -15 13 -16 9 -47 9 -47 9 -125 8 -125 11 -28 11 -28 0 -35 0 -34 10 0 9 0 15 -27 15 -28 35 -40 36 -40 0 -21 0 -20 15 -20 14 -19 1 -30 0 -31 18 -23 17 -24 42 -40 43 -41 20 -38 20 -39 0 -23 0 -24 15 -12 15 -12 0 -37 0 -37 12 -12 12 -12 -12 -12 -12 -12 0 -18 0 -18 -22 -10 -23 -10 -20 -12 -20 -11 -15 -9 -15 -8 -15 -6 -15 -5 -15 -9 -15 -9 -68 -35 -69 -36 -13 0 -13 0 -12 -15 -12 -15 -18 0 -18 0 -12 -15 -12 -15 -25 0 -24 0 -5 -15 -6 -15 -23 0 -23 0 -12 -15 -12 -15 -23 0 -23 0 -6 -15 -5 -15 -24 0 -25 0 -12 -15 -12 -15 -18 0 -18 0 -6 -15 -5 -15 -19 0 -19 0 -59 -61 -59 -61 -60 -46 -60 -46 -37 -35 -38 -35 0 -38 0 -39 -14 -34 -15 -34 -2 -360 -3 -360 17 -19 17 -19 0 -14 0 -14 26 -24 26 -25 -5 -20 -5 -21 -21 -57 -21 -58 0 -110 0 -111 93 4 92 4 190 12 190 12 110 -6 110 -5 153 -12 154 -12 9 15 8 14 -20 15 -20 16 -8 34 -7 35 1 105 1 105 17 95 16 95 11 60 10 60 0 66 0 66 -15 49 -15 49 1 45 0 45 17 65 17 65 8 12 8 13 15 55 14 56 0 9 0 9 -21 6 -22 7 9 72 8 71 1 270 2 270 7 50 8 50 5 8 5 8 14 -18 14 -18 11 18 10 17 24 0 24 0 11 20 11 20 14 0 14 0 14 -20 14 -21 9 3 9 2 42 -26 41 -27 7 -11 6 -10 39 0 38 0 46 -51 46 -51 25 6 25 6 0 -34 0 -35 -17 -10 -18 -9 8 -8 7 -7 24 11 23 10 54 49 54 48 60 61 60 60 72 75 71 76 42 67 41 68 27 68 27 67 21 -7 21 -8 16 -35 17 -35 0 -44 0 -45 -15 -49 -15 -49 0 -28 0 -28 -12 -22 -12 -22 -7 -35 -8 -35 -21 -70 -21 -70 -8 -50 -8 -50 -13 -50 -12 -50 -29 -115 -30 -115 -14 -35 -14 -35 -27 -95 -26 -95 -9 -50 -8 -50 -16 -65 -16 -65 -14 -80 -15 -80 -11 -65 -10 -65 -8 -20 -9 -20 -12 -70 -12 -70 -13 -75 -14 -75 -11 -55 -12 -55 -8 -9 -9 -9 -6 25 -6 25 4 89 5 89 11 130 11 130 10 115 9 115 -21 79 -20 78 11 43 11 44 0 76 0 75 -25 10 -25 10 -2 37 -1 38 0 10 0 10 6 65 7 66 -50 37 -49 37 -12 0 -12 0 -19 16 -18 17 -47 8 -48 7 -25 7 -25 6 -55 -53 -55 -53 -20 -25 -20 -25 -19 -30 -20 -30 -33 -63 -33 -63 0 -50 0 -49 13 0 12 1 46 62 46 62 29 50 30 50 7 18 7 17 20 -12 20 -13 11 -35 11 -35 9 -9 9 -10 0 -27 0 -28 -9 -5 -9 -6 -25 -47 -24 -48 -28 -90 -28 -90 -8 -10 -8 -11 -10 -39 -10 -40 -20 -70 -20 -70 -1 -41 0 -41 -15 -49 -15 -49 0 -50 0 -51 -10 -10 -10 -10 -9 -124 -9 -125 14 -23 15 -23 -25 -24 -26 -24 0 -64 0 -63 -11 -11 -12 -12 7 -17 7 -17 212 7 212 8 25 -2 25 -2 355 -1 355 0 130 2 130 2 117 -7 116 -6 4 23 3 23 25 6 25 6 3 19 4 20 51 53 51 52 46 0 47 0 24 -26 24 -26 17 -9 18 -10 32 17 33 17 -53 25 -53 24 3 36 3 37 20 3 20 4 12 15 12 16 16 -13 15 -12 45 21 45 21 20 0 20 0 0 23 0 23 32 39 33 39 72 70 72 71 32 25 32 25 11 13 11 14 25 25 25 24 20 19 20 20 43 -45 43 -45 9 0 10 0 0 84 0 84 -22 6 -23 6 -22 0 -23 0 0 15 0 15 24 0 24 0 12 15 13 16 19 -17 18 -17 13 17 13 18 34 -4 35 -3 5 -190 5 -190 18 -3 17 -3 0 533 0 533 -22 10 -23 10 -3 20 -4 20 -24 32 -24 32 0 12 0 12 -67 68 -67 69 -12 0 -12 0 -12 15 -12 15 -23 0 -23 0 -12 15 -12 15 -38 0 -38 0 -12 15 -12 15 -37 0 -37 0 -20 15 -19 14 -36 1 -37 0 -12 15 -12 15 -37 0 -37 0 -20 15 -19 14 -50 1 -50 1 -40 14 -40 15 -46 0 -45 0 -20 15 -19 14 -41 1 -42 0 -12 15 -12 15 -28 0 -28 0 -12 15 -12 15 -23 0 -23 0 -12 15 -12 15 -19 0 -18 0 -8 13 -8 12 -20 13 -20 12 -20 9 -21 9 -14 17 -15 18 -40 24 -40 25 -10 12 -10 13 -68 46 -68 47 -5 0 -5 0 -29 22 -30 22 0 92 0 92 15 12 15 12 0 18 0 18 15 12 15 12 0 18 0 18 15 12 15 12 0 30 0 29 15 36 15 35 0 192 1 191 14 40 15 40 0 165 -1 165 -14 19 -15 20 0 22 0 22 -15 6 -15 5 0 19 0 20 -105 105 -105 105 0 10 0 10 -15 12 -15 12 0 23 0 22 -51 52 -52 51 -19 0 -19 0 -5 15 -6 15 -18 0 -18 0 -12 15 -12 15 -23 0 -23 0 -12 15 -12 15 -22 0 -22 0 -20 15 -19 14 -26 1 -25 0 -20 15 -19 14 -23 1 -23 0 -27 14 -27 13 -105 7 -105 7 -37 -21z m139 -41 l21 -8 7 -11 7 -11 -3 -3 -4 -4 -22 -6 -23 -7 0 16 0 16 -14 5 -14 5 -37 -15 -37 -16 -24 0 -23 0 -37 -25 -36 -24 -35 -7 -34 -7 -11 11 -11 11 26 6 26 7 12 14 11 14 23 0 23 0 28 15 29 15 15 0 15 1 20 15 20 15 30 -7 30 -7 22 -8z m335 -401 l15 -22 62 2 62 3 38 -11 39 -10 10 -28 11 -27 8 -33 8 -33 8 1 7 1 30 -18 29 -17 6 -14 5 -15 -4 -4 -4 -4 -28 -2 -29 -2 -3 -89 -3 -89 -15 -11 -15 -12 7 -17 6 -17 9 0 9 0 0 -34 0 -34 15 -36 15 -36 9 0 9 0 12 -47 12 -48 8 -50 9 -50 6 -35 6 -35 -11 18 -11 17 -14 0 -14 0 6 -54 6 -54 -60 -30 -59 -30 -31 -69 -31 -68 -5 -31 -6 -32 14 -18 14 -19 1 -13 0 -14 30 -28 30 -28 0 -22 0 -22 -17 -30 -18 -31 13 -4 12 -5 0 -12 0 -13 -25 -23 -25 -23 0 -13 0 -12 -30 -32 -30 -32 -28 4 -27 5 -16 7 -15 7 -31 -93 -30 -93 -21 -3 -20 -3 -18 -20 -17 -19 -14 0 -13 0 0 -9 0 -9 -47 -16 -47 -16 -40 0 -41 0 -38 -11 -39 -10 -50 18 -49 17 -64 63 -64 63 -6 0 -5 0 -20 20 -21 21 5 8 5 7 -15 28 -14 28 0 13 0 12 -25 27 -24 26 -10 36 -10 36 -15 12 -14 11 -21 38 -21 38 0 17 0 18 -11 11 -12 12 22 -6 22 -6 6 -28 6 -29 14 0 15 0 -12 15 -12 15 6 15 5 15 -29 44 -30 44 0 7 0 8 -17 12 -18 13 19 21 18 20 -6 16 -6 16 -20 -6 -20 -6 0 28 0 28 -13 36 -13 37 -12 15 -13 16 -1 33 -1 33 12 65 11 65 0 52 0 52 8 5 8 5 -4 68 -3 68 -11 110 -11 111 19 63 19 64 105 33 105 34 22 11 21 12 32 -11 31 -11 47 5 47 6 80 28 80 28 85 25 85 25 71 1 72 1 14 -22z m-962 -1060 l0 -22 -11 11 -11 11 6 11 7 11 5 0 4 0 0 -22z m34 -168 l7 -49 9 -6 10 -6 0 -15 0 -14 -10 0 -10 0 0 14 0 14 -15 6 -15 5 0 51 0 50 9 0 8 0 7 -50z m2206 -775 l12 -15 79 0 78 0 6 -11 7 -10 -4 -4 -4 -4 -104 10 -105 10 -22 11 -22 11 5 9 5 8 28 0 29 0 12 -15z m-390 -404 l0 -28 -20 -18 -20 -18 0 -9 0 -8 20 0 20 0 0 10 0 10 15 0 15 0 0 -18 0 -18 -35 -34 -35 -34 -3 5 -4 4 -22 44 -22 43 26 24 26 24 10 30 11 30 9 -6 9 -5 0 -28z m270 -56 l23 -25 14 20 14 20 9 0 9 0 20 -21 20 -22 38 8 38 7 25 2 25 1 12 8 13 8 34 -26 34 -26 9 -37 9 -37 16 -3 15 -3 31 26 30 25 11 0 11 0 0 -17 -1 -18 -14 -19 -15 -19 6 -24 6 -23 -15 -6 -15 -5 -7 -27 -6 -27 -19 -20 -18 -20 -4 -30 -3 -30 -17 -3 -17 -3 -7 25 -6 26 10 13 10 12 7 73 7 72 -10 0 -11 0 -15 -22 -16 -22 16 -17 16 -18 -8 -13 -9 -13 -5 -95 -5 -95 -55 -29 -55 -28 -7 -12 -8 -11 0 -23 0 -23 -24 -22 -23 -22 -22 -50 -22 -50 6 -33 6 -33 -11 -33 -11 -33 -2 -39 -2 -38 -24 -6 -24 -6 -11 -37 -11 -38 -24 -12 -24 -12 -8 -15 -8 -15 -12 -46 -13 -46 -35 -9 -36 -9 2 -25 2 -25 -11 -40 -11 -40 -15 -12 -15 -12 6 -30 6 -31 -30 -15 -30 -16 6 -18 5 -17 -49 -33 -50 -32 -85 -6 -86 -6 -6 17 -7 18 20 41 20 42 17 57 17 57 15 12 14 11 0 28 0 28 16 13 15 13 -5 20 -5 21 9 15 9 15 14 -19 14 -19 7 11 6 11 -10 6 -10 6 0 39 0 39 9 6 9 5 7 29 6 30 15 12 16 13 -7 34 -6 34 10 12 11 13 25 47 25 47 0 31 0 30 16 -6 16 -6 10 6 9 6 -16 12 -16 12 6 27 7 27 13 0 14 0 4 -22 4 -23 -4 43 -4 43 21 64 21 65 -6 18 -5 19 -50 31 -50 31 0 10 0 9 -30 11 -30 10 0 10 0 10 21 6 20 7 -12 14 -12 14 18 20 18 20 13 0 13 0 16 30 16 30 7 0 7 0 33 31 32 30 0 38 0 39 15 12 15 12 16 -6 17 -6 -7 -42 -7 -42 -14 -17 -15 -16 0 -11 0 -12 17 0 17 0 28 27 28 27 0 43 0 43 -15 0 -15 0 0 15 0 15 13 0 14 0 23 -25z m-377 -95 l17 -20 15 0 15 0 0 -8 0 -9 -20 -18 -19 -18 -10 25 -9 25 -16 6 -16 6 0 16 0 15 13 0 13 0 17 -20z m932 1 l5 -10 -16 -46 -15 -46 11 -13 10 -14 -10 -26 -10 -26 -9 0 -9 0 -5 -42 -6 -43 -7 -35 -6 -35 -18 -20 -17 -20 -13 -33 -13 -34 1 -35 1 -35 -27 -51 -27 -52 -20 -65 -21 -65 -14 0 -15 0 -3 71 -3 71 16 13 15 12 0 36 0 35 17 20 18 19 1 49 1 49 16 18 17 19 0 21 0 21 25 69 25 69 0 17 0 17 14 5 14 5 6 41 7 40 22 19 22 18 7 1 7 0 6 -9z m-1879 -38 l-6 -6 -6 6 -6 6 7 18 8 18 4 -18 5 -19 -6 -5z m914 -88 l0 -15 -20 -12 -20 -13 0 -12 0 -13 -10 0 -10 0 0 5 0 5 9 18 10 17 5 18 5 17 16 0 15 0 0 -15z m1335 -26 l-7 -31 -8 -51 -8 -52 -16 -55 -16 -55 0 -23 0 -23 -15 -5 -15 -6 -22 -50 -21 -49 -19 -10 -20 -11 18 -19 17 -19 -25 0 -26 0 -6 -23 -5 -22 -65 -75 -66 -75 -12 -13 -13 -12 -45 -40 -45 -40 -7 0 -7 0 -51 -66 -50 -67 0 -13 0 -14 -21 -12 -20 -13 -14 -33 -15 -33 -27 3 -28 3 -3 37 -3 38 15 22 16 22 0 16 0 15 21 40 21 40 23 25 23 25 19 45 20 45 12 32 13 32 49 46 49 46 0 10 0 11 23 30 22 31 46 46 47 46 6 28 7 28 24 11 25 11 0 8 0 8 14 13 13 14 17 29 17 30 22 36 22 36 28 41 27 42 26 0 26 0 -7 -31z m-1312 -96 l32 -18 8 -12 8 -13 23 0 24 0 12 -15 12 -15 14 0 13 0 11 -20 10 -19 -10 -45 -10 -46 -16 -40 -16 -40 -9 0 -9 0 0 -44 0 -44 -15 -12 -15 -12 0 -27 -1 -26 -14 -19 -15 -20 0 -17 0 -17 -15 -12 -15 -12 0 -33 0 -33 -15 -12 -15 -12 0 -24 0 -23 -16 -38 -17 -38 -13 -27 -14 -26 0 -20 0 -20 -15 -12 -15 -12 0 -28 0 -28 -15 -12 -15 -12 0 -23 0 -23 -15 -28 -15 -29 0 -15 0 -16 -11 -11 -11 -11 -7 -34 -7 -33 -21 -3 -21 -3 -14 15 -15 15 -11 -11 -10 -10 -88 1 -88 2 -69 9 -69 10 -9 6 -9 5 0 18 0 19 -15 12 -15 12 31 30 30 30 25 -6 26 -7 14 18 13 18 1 28 0 27 10 0 10 0 0 -20 0 -21 15 -29 16 -30 12 0 12 0 17 30 17 30 -10 30 -11 30 -24 0 -25 0 -6 16 -6 17 10 16 11 16 28 -2 28 -2 13 11 13 10 0 8 0 8 -25 6 -25 6 0 11 0 10 43 -6 43 -7 13 16 13 16 -46 20 -46 19 0 15 0 16 25 16 26 17 23 -11 23 -10 30 -45 30 -45 12 7 13 8 5 41 6 42 -27 10 -26 10 0 2 0 3 -10 58 -9 58 6 14 5 15 48 0 47 0 17 19 17 19 -45 22 -46 22 0 8 0 8 22 25 23 25 0 24 0 23 22 3 22 3 27 -41 28 -41 20 5 21 6 33 0 34 0 11 30 12 30 12 -5 13 -4 -6 27 -7 27 -8 15 -8 15 -1 -10 0 -10 -9 -14 -8 -13 -59 32 -59 33 -12 9 -13 10 6 9 5 9 35 0 35 0 6 15 5 16 -16 18 -16 18 0 22 0 22 13 3 12 4 28 6 27 6 12 -25 11 -25 6 0 6 0 14 9 15 10 -12 25 -12 26 -22 0 -23 0 -22 24 -23 24 0 6 0 6 11 0 11 0 31 -17z m-163 -51 l0 -8 -12 -12 -12 -12 -18 0 -18 0 12 20 13 20 17 0 18 0 0 -8z m-820 -83 l0 -39 -9 0 -10 0 -6 21 -7 20 6 25 7 25 9 -6 10 -6 0 -40z m865 21 l6 -10 -16 -6 -16 -6 -5 5 -6 6 7 10 6 11 9 0 9 0 6 -10z m-827 -128 l4 -12 -31 0 -30 0 -7 11 -7 11 13 8 13 8 21 -7 20 -8 4 -11z m22 -78 l0 -34 15 0 15 0 0 -39 0 -40 -9 -6 -10 -5 -6 10 -6 10 -55 -6 -54 -7 0 10 0 11 29 5 30 6 -4 61 -4 60 17 9 17 9 12 -10 13 -10 0 -34z m97 -159 l-6 -35 10 -6 10 -6 1 -66 1 -67 1 -90 1 -90 -13 -150 -13 -150 -5 -24 -5 -23 -117 4 -117 4 -13 8 -12 7 21 18 22 18 5 54 4 55 30 17 29 17 -3 17 -3 18 -34 5 -34 5 -4 11 -4 11 16 13 15 12 0 15 0 14 -15 5 -15 6 0 15 0 14 25 24 26 23 -22 16 -22 15 12 15 12 15 -3 33 -3 33 -47 3 -48 3 0 13 0 13 8 7 7 8 0 21 0 22 10 3 10 3 3 -25 3 -24 19 -5 19 -5 20 15 21 14 10 -6 9 -6 10 20 11 20 22 3 23 3 0 15 0 15 -15 -1 -15 -1 -32 -7 -33 -8 0 20 0 20 16 6 16 6 22 0 22 0 23 17 24 16 16 -10 17 -11 25 14 24 13 4 1 4 0 -6 -35z m-1142 -128 l7 -59 -19 4 -18 3 -1 45 -1 45 4 19 5 18 8 -8 8 -9 7 -58z m1645 28 l0 -45 -6 0 -7 0 -23 26 -24 25 0 9 0 9 18 10 17 10 13 1 12 0 0 -45z m1014 17 l5 -8 -24 -30 -23 -29 -7 18 -7 18 17 19 18 20 8 0 8 0 5 -8z m-1786 -175 l3 -17 -15 0 -16 0 0 21 0 21 13 -4 12 -5 3 -16z m-111 -23 l6 -16 -14 -9 -14 -9 -22 0 -23 0 0 9 0 9 23 15 22 16 8 0 8 1 6 -16z m12 -102 l20 3 3 -10 3 -10 -25 -2 -25 -1 -22 -7 -23 -7 -6 16 -6 16 6 15 6 16 24 -16 25 -16 20 3z m619 -70 l12 -8 -6 -34 -7 -33 -14 18 -13 19 0 23 0 23 8 0 7 0 13 -8z m-1322 -23 l6 -11 -20 -21 -21 -21 -7 17 -6 17 6 15 5 15 15 0 15 0 7 -11z m774 -85 l14 -5 -14 -9 -15 -10 -37 0 -37 0 -5 -9 -6 -9 15 -28 14 -28 23 -12 23 -13 -16 -6 -16 -6 -63 3 -63 3 -1 40 -1 40 23 3 23 4 -12 14 -11 14 6 15 6 16 67 -7 68 -6 15 -4z"/>
    <path d="M2819 3844 l-24 -26 3 -24 4 -25 -21 -42 -20 -42 -7 -38 -6 -38 17 -19 17 -18 5 -41 6 -41 7 0 8 0 6 16 6 16 0 26 0 27 20 13 20 12 0 60 0 59 11 23 10 24 -8 48 -8 49 -11 4 -10 3 -25 -26z"/>
    <path d="M2867 3553 l-7 -6 0 -9 0 -8 15 0 15 0 0 15 0 15 -8 0 -9 0 -6 -7z"/>
    <path d="M2605 3469 l-90 -9 -49 -10 -50 -11 -13 -11 -13 -10 0 -22 0 -23 -25 -23 -26 -24 5 -51 5 -50 21 -63 20 -64 0 -29 0 -30 -20 -39 -20 -39 -20 -11 -21 -11 6 -9 6 -9 0 -56 1 -55 10 0 9 0 19 10 19 10 34 -16 35 -17 24 6 24 6 38 26 37 25 14 0 14 0 6 19 6 19 -9 40 -9 39 -32 46 -31 46 0 13 0 13 -25 40 -24 40 0 30 0 30 13 18 13 17 -5 25 -4 25 15 6 16 6 17 -10 17 -10 11 -33 11 -34 38 -3 37 -3 0 20 0 20 11 6 10 7 7 -6 6 -7 -12 -19 -12 -19 10 -6 9 -6 50 5 51 5 11 6 10 7 -5 14 -5 14 30 0 30 0 20 10 19 11 0 15 0 15 15 15 15 15 0 10 0 9 -15 0 -15 0 0 -10 0 -10 -10 0 -10 0 0 18 0 19 -19 17 -19 17 -72 25 -72 24 -1 -1 -2 -2 -90 -8z"/>
    <path d="M1855 3411 l-40 -27 -3 -52 -3 -52 17 0 17 0 43 21 42 22 19 -8 18 -7 -32 -14 -32 -13 -26 -36 -27 -35 6 -15 5 -15 12 0 12 0 32 20 33 20 5 20 5 20 20 0 21 0 3 -22 3 -23 35 -3 35 -3 10 -10 9 -9 37 0 37 0 20 43 20 42 7 30 7 30 2 40 1 40 -25 3 -25 2 -50 10 -50 10 -75 -9 -75 -8 -15 7 -15 8 -40 -27z"/>
    <path d="M2184 3005 l-6 -14 7 -11 7 -11 14 12 14 11 0 14 0 14 -15 0 -16 0 -5 -15z"/>
    <path d="M2206 2931 l-29 -30 6 -15 6 -16 10 0 10 0 36 21 36 22 -3 21 -3 21 -20 3 -20 3 -29 -30z"/>
    <path d="M2061 2911 l-36 -39 -27 -35 -27 -34 -10 -26 -10 -25 -20 -7 -21 -6 0 -10 0 -9 20 -17 20 -17 0 -19 0 -18 19 6 20 6 11 -21 11 -20 8 0 9 0 7 27 6 27 -18 13 -18 13 14 23 14 22 7 15 8 15 11 25 11 25 35 55 35 55 0 8 0 7 -21 0 -21 0 -37 -39z"/>
    <path d="M2582 2753 l-23 -16 -22 12 -22 12 -65 -20 -65 -21 -27 0 -27 0 -5 -8 -5 -8 -61 -2 -62 -3 -37 -19 -36 -19 -27 -6 -27 -5 -11 -19 -10 -20 15 -15 15 -15 34 6 33 5 22 -12 22 -11 29 6 29 6 3 16 3 16 50 13 50 13 51 1 50 0 19 -13 18 -14 -7 -11 -7 -12 -24 0 -25 0 -60 -32 -60 -31 0 -7 0 -8 16 -6 16 -6 19 0 20 0 5 -15 6 -15 10 0 11 0 14 18 14 17 15 -22 16 -23 38 0 38 0 36 61 36 60 0 15 0 14 25 10 24 9 5 23 5 23 5 33 6 32 -24 0 -24 0 -12 15 -12 15 -7 -1 -6 0 -23 -16z"/>
    <path d="M3985 1400 l-7 -11 13 -15 12 -14 -17 -18 -16 -19 0 -20 0 -21 15 -12 14 -12 9 6 9 6 6 47 5 47 -9 23 -9 23 -9 0 -10 0 -6 -10z"/>
    <path d="M3830 1383 l0 -8 9 -14 9 -14 10 7 11 7 -6 14 -5 15 -14 0 -14 0 0 -7z"/>
    <path d="M3654 1344 l6 -16 0 -9 0 -10 25 18 24 18 1 8 0 7 -31 0 -31 0 6 -16z"/>
    <path d="M3566 1273 l-6 -6 0 -9 0 -8 14 0 15 0 5 9 6 9 -14 5 -14 6 -6 -6z"/>
    <path d="M3650 1265 l0 -17 11 4 11 4 0 9 0 10 -11 3 -11 4 0 -17z"/>
    <path d="M3930 1195 l0 -17 11 4 11 4 0 9 0 10 -11 3 -11 4 0 -17z"/>
    <path d="M3522 1108 l4 -12 12 -4 12 -4 0 16 0 16 -16 0 -16 0 4 -12z"/>
    <path d="M3466 1092 l-5 -9 6 -22 6 -22 11 4 11 4 0 23 0 23 -12 4 -11 4 -6 -9z"/>
    <path d="M3404 1064 l6 -16 0 -4 0 -4 15 0 15 0 0 20 0 20 -21 0 -21 0 6 -16z"/>
    <path d="M3437 806 l-6 -14 6 -6 6 -6 9 0 8 0 0 20 0 20 -9 0 -9 0 -5 -14z"/>
    <path d="M3325 759 l-7 -10 5 -6 6 -5 10 7 11 6 0 10 0 9 -9 0 -10 0 -6 -11z"/>
    <path d="M3262 438 l-12 -12 0 -12 0 -12 20 5 20 5 5 8 5 8 -13 11 -13 11 -12 -12z"/>
    <path d="M3132 393 l-23 -26 6 -16 7 -16 15 23 15 22 19 0 19 0 0 20 0 20 -17 0 -18 0 -23 -27z"/>
    <path d="M3210 229 l0 -20 17 3 18 3 3 18 3 17 -20 0 -21 0 0 -21z"/>
    <path d="M2880 90 l0 -10 20 0 20 0 0 10 0 10 -20 0 -20 0 0 -10z"/>
    <path d="M2484 856 l-6 -17 6 -6 6 -7 12 12 12 12 -12 12 -11 11 -7 -17z"/>
    <path d="M2550 713 l0 -28 10 15 10 15 0 13 0 12 -10 0 -10 0 0 -27z"/>
    <path d="M2423 403 l-23 -4 0 -10 0 -10 38 3 37 3 -2 10 -2 10 -13 1 -13 1 -22 -4z"/>
    <path d="M2155 101 l-5 -10 9 -5 9 -6 16 6 16 6 -6 9 -5 9 -14 0 -14 0 -6 -9z"/>
    <path d="M2516 1813 l-7 -16 10 -10 9 -9 11 20 10 19 -6 7 -6 6 -8 0 -7 0 -6 -17z"/>
    <path d="M4743 640 l-23 -9 0 -19 0 -18 -20 -22 -21 -22 -13 0 -13 0 -24 -61 -24 -61 -22 -15 -23 -15 0 -47 0 -46 -20 -30 -19 -29 16 -18 16 -17 -27 -10 -26 -11 0 -11 0 -11 20 5 19 5 11 -13 10 -12 -14 -13 -15 -12 -11 7 -10 6 -11 -6 -10 -7 15 -16 14 -17 -21 -26 -22 -26 -20 -11 -20 -10 -110 3 -110 3 -27 7 -28 7 0 -7 0 -8 18 -13 17 -13 146 -1 145 0 31 33 31 32 4 20 3 19 25 6 25 6 3 36 3 36 15 12 14 12 0 18 0 18 15 12 15 12 0 18 0 18 15 12 15 12 0 33 0 33 -15 12 -15 12 0 24 0 24 9 0 10 0 6 -10 6 -10 15 0 14 0 0 13 0 13 20 42 20 42 10 0 10 0 0 45 0 45 -12 -1 -13 0 -22 -9z"/>
  </g>
</svg>
