<?xml version="1.0" encoding="UTF-8"?><svg id="a" xmlns="http://www.w3.org/2000/svg" width="1024" height="1024" viewBox="0 0 1024 1024"><path id="b" d="m892.49,321.76H131.51c-29.18,0-52.85,23.66-52.85,52.85v422.76c0,29.18,23.66,52.85,52.85,52.85h760.98c29.18,0,52.85-23.66,52.85-52.85v-422.76c0-29.19-23.66-52.85-52.85-52.85Z"/><path id="c" d="m892.49,321.76H131.51c-29.18,0-52.85,23.66-52.85,52.85v422.76c0,29.18,23.66,52.85,52.85,52.85h760.98c29.18,0,52.85-23.66,52.85-52.85v-422.76c0-29.19-23.66-52.85-52.85-52.85Z"/><path id="d" d="m881.92,769.18h-63.41c-9.73,0-17.62,7.89-17.62,17.62v7.05c0,9.73,7.89,17.62,17.62,17.62h63.41c9.73,0,17.62-7.89,17.62-17.62v-7.05c0-9.72-7.89-17.62-17.62-17.62Z" style="fill:#fff;"/><path id="e" d="m194.93,779.75h-52.85c-9.73,0-17.62,7.89-17.62,17.62v7.05c0,9.73,7.89,17.62,17.62,17.62h52.85c9.73,0,17.62-7.89,17.62-17.62v-7.05c0-9.72-7.89-17.62-17.62-17.62Z" style="fill:#fff;"/><rect id="f" x="184.36" y="261.86" width="35.23" height="24.66" style="fill:red;"/><rect id="g" x="156.17" y="283" width="91.6" height="38.75"/><path id="h" d="m571.89,173.79h-119.78c-29.18,0-52.85,23.66-52.85,52.85v109.21c0,29.18,23.66,52.85,52.85,52.85h119.78c29.18,0,52.85-23.66,52.85-52.85v-109.21c0-29.19-23.66-52.85-52.85-52.85Z"/><rect id="i" x="78.67" y="512" width="866.67" height="211.38"/><path id="j" d="m556.04,209.02h-84.55c-18.48,0-33.47,14.99-33.47,33.47s14.99,33.47,33.47,33.47h84.55c18.48,0,33.47-14.99,33.47-33.47s-14.99-33.47-33.47-33.47Z" style="fill:#edecec;"/><circle id="k" cx="512" cy="608.88" r="220.19" style="fill:#365052;"/><circle id="l" cx="512" cy="608.88" r="198.17" style="fill:#fff;"/><circle id="m" cx="512" cy="608.88" r="188.27" style="fill:#595959;"/><path id="n" d="m348.18,624.74c0-101.38,86.65-184.22,195.86-189.93-10.39-1.9-21.1-2.9-32.04-2.9-97.74,0-176.96,79.23-176.96,176.96,0,46.62,18.04,89.02,47.5,120.63-21.72-30.03-34.37-66.04-34.37-104.76h0Z" style="fill:#acacac;"/><circle id="o" cx="512" cy="608.88" r="56.48" style="fill:#acacac;"/></svg>