<?xml version="1.0" encoding="UTF-8"?><svg id="a" xmlns="http://www.w3.org/2000/svg" width="1024" height="1024" xmlns:xlink="http://www.w3.org/1999/xlink" viewBox="0 0 1024 1024"><defs><radialGradient id="e" cx="355.96" cy="1054.06" fx="355.96" fy="1054.06" r="258.2" gradientTransform="translate(-2609.85 1509.42) rotate(51.75) scale(2.75 -2.9)" gradientUnits="userSpaceOnUse"><stop offset="0" stop-color="#fff"/><stop offset="1" stop-color="#7f7f7f"/></radialGradient></defs><g id="b"><g id="c"><path id="d" d="m940.78,512.01c1.35,237.36-189.98,430.87-427.34,432.22-237.36,1.35-430.87-189.98-432.22-427.34,0-1.63,0-3.25,0-4.88-1.35-237.36,189.98-430.87,427.34-432.22,237.36-1.35,430.87,189.98,432.22,427.34,0,1.63,0,3.25,0,4.88Z" style="opacity:.95;"/><path id="f" d="m940.78,512.01c1.35,237.36-189.98,430.87-427.34,432.22-237.36,1.35-430.87-189.98-432.22-427.34,0-1.63,0-3.25,0-4.88-1.35-237.36,189.98-430.87,427.34-432.22,237.36-1.35,430.87,189.98,432.22,427.34,0,1.63,0,3.25,0,4.88Z" style="fill:url(#e); opacity:.64; stroke:#000; stroke-linecap:round; stroke-linejoin:round; stroke-width:2.07px;"/><path id="g" d="m83.66,558.35c285.67,1.66,571.39-4.06,857.11-24.41" style="fill:none; stroke:#fff; stroke-linecap:round; stroke-linejoin:round; stroke-width:2.07px;"/><path id="h" d="m103.2,636.51c280.01,2.44,547.8-4.88,825.37-29.3" style="fill:none; stroke:#fff; stroke-linecap:round; stroke-linejoin:round; stroke-width:2.07px;"/><path id="i" d="m137.37,712.19c258.03-.83,508.74-4.06,766.78-31.74" style="fill:none; stroke:#fff; stroke-linecap:round; stroke-linejoin:round; stroke-width:2.07px;"/><path id="j" d="m171.55,770.78c236.06,8.98,459.92,3.27,693.5-17.09" style="fill:none; stroke:#fff; stroke-linecap:round; stroke-linejoin:round; stroke-width:2.07px;"/><path id="k" d="m227.74,834.3c195.35,3.27,393.13-3.27,586.04-19.53" style="fill:none; stroke:#fff; stroke-linecap:round; stroke-linejoin:round; stroke-width:2.07px;"/><path id="l" d="m298.54,880.68c150.57,5.71,298.71,4.06,451.77-12.21" style="fill:none; stroke:#fff; stroke-linecap:round; stroke-linejoin:round; stroke-width:2.07px;"/><path id="m" d="m364.46,912.42c100.96,4.88,201.88,12.21,302.8,0" style="fill:none; stroke:#fff; stroke-linecap:round; stroke-linejoin:round; stroke-width:2.07px;"/><path id="n" d="m86.11,472.9c283.23,3.23,564.07-.83,842.46-19.53" style="fill:none; stroke:#fff; stroke-linecap:round; stroke-linejoin:round; stroke-width:2.07px;"/><path id="o" d="m100.75,402.06c270.24-.79,542.92-6.5,810.72-24.41" style="fill:none; stroke:#fff; stroke-linecap:round; stroke-linejoin:round; stroke-width:2.07px;"/><path id="p" d="m134.93,316.62c251.54,2.44,505.47,2.44,749.69-14.65" style="fill:none; stroke:#fff; stroke-linecap:round; stroke-linejoin:round; stroke-width:2.07px;"/><path id="q" d="m169.11,253.1c218.15,4.1,443.61-1.61,661.76-17.09" style="fill:none; stroke:#fff; stroke-linecap:round; stroke-linejoin:round; stroke-width:2.07px;"/><path id="r" d="m227.74,190.87c179.04,3.23,367.89-4.51,544.54-11.01" style="fill:none; stroke:#fff; stroke-linecap:round; stroke-linejoin:round; stroke-width:2.07px;"/><path id="s" d="m291.22,148.13c147.35,6.5,300.65.79,433.35-9.77" style="fill:none; stroke:#fff; stroke-linecap:round; stroke-linejoin:round; stroke-width:2.07px;"/><path id="t" d="m348.78,113.95l294.86-9.77" style="fill:none; stroke:#fff; stroke-linecap:round; stroke-linejoin:round; stroke-width:2.07px;"/><path id="u" d="m437.74,472.9v83" style="fill:none; stroke:#fff; stroke-linecap:round; stroke-linejoin:round; stroke-width:2.07px;"/><path id="v" d="m508.54,472.9l2.44,78.12" style="fill:none; stroke:#fff; stroke-linecap:round; stroke-linejoin:round; stroke-width:2.07px;"/><path id="w" d="m594.02,472.9l4.88,75.24" style="fill:none; stroke:#fff; stroke-linecap:round; stroke-linejoin:round; stroke-width:2.07px;"/><path id="x" d="m662.38,472.9v73.24" style="fill:none; stroke:#fff; stroke-linecap:round; stroke-linejoin:round; stroke-width:2.07px;"/><path id="y" d="m725.89,465.58v75.68" style="fill:none; stroke:#fff; stroke-linecap:round; stroke-linejoin:round; stroke-width:2.07px;"/><path id="z" d="m801.57,463.14v75.68" style="fill:none; stroke:#fff; stroke-linecap:round; stroke-linejoin:round; stroke-width:2.07px;"/><path id="aa" d="m847.96,463.14l2.44,78.12" style="fill:none; stroke:#fff; stroke-linecap:round; stroke-linejoin:round; stroke-width:2.07px;"/><path id="ab" d="m879.7,460.7l4.92,75.68" style="fill:none; stroke:#fff; stroke-linecap:round; stroke-linejoin:round; stroke-width:2.07px;"/><path id="ac" d="m906.59,455.81l4.88,80.56" style="fill:none; stroke:#fff; stroke-linecap:round; stroke-linejoin:round; stroke-width:2.07px;"/><path id="ad" d="m923.68,458.26l4.88,73.24" style="fill:none; stroke:#fff; stroke-linecap:round; stroke-linejoin:round; stroke-width:2.07px;"/><path id="ae" d="m374.22,477.79v75.68" style="fill:none; stroke:#fff; stroke-linecap:round; stroke-linejoin:round; stroke-width:2.07px;"/><path id="af" d="m305.87,472.9v85.45" style="fill:none; stroke:#fff; stroke-linecap:round; stroke-linejoin:round; stroke-width:2.07px;"/><path id="ag" d="m232.63,477.79v80.56" style="fill:none; stroke:#fff; stroke-linecap:round; stroke-linejoin:round; stroke-width:2.07px;"/><path id="ah" d="m185,474.1v84.25" style="fill:none; stroke:#fff; stroke-linecap:round; stroke-linejoin:round; stroke-width:2.07px;"/><path id="ai" d="m143.5,475.34v83" style="fill:none; stroke:#fff; stroke-linecap:round; stroke-linejoin:round; stroke-width:2.07px;"/><path id="aj" d="m114.16,475.34l-2.44,83" style="fill:none; stroke:#fff; stroke-linecap:round; stroke-linejoin:round; stroke-width:2.07px;"/><path id="ak" d="m500.01,397.18c-2.44,4.88,3.64,74.48,3.64,74.48" style="fill:none; stroke:#fff; stroke-linecap:round; stroke-linejoin:round; stroke-width:2.07px;"/><path id="al" d="m573.25,397.18l6.12,69.6" style="fill:none; stroke:#fff; stroke-linecap:round; stroke-linejoin:round; stroke-width:2.07px;"/><path id="am" d="m645.29,392.3l11.01,75.72" style="fill:none; stroke:#fff; stroke-linecap:round; stroke-linejoin:round; stroke-width:2.07px;"/><path id="an" d="m710,391.1l11.01,73.24" style="fill:none; stroke:#fff; stroke-linecap:round; stroke-linejoin:round; stroke-width:2.07px;"/><path id="ao" d="m771.04,386.22l17.09,73.24" style="fill:none; stroke:#fff; stroke-linecap:round; stroke-linejoin:round; stroke-width:2.07px;"/><path id="ap" d="m821.11,382.53l15.89,75.72" style="fill:none; stroke:#fff; stroke-linecap:round; stroke-linejoin:round; stroke-width:2.07px;"/><path id="aq" d="m861.41,381.33l17.09,75.68" style="fill:none; stroke:#fff; stroke-linecap:round; stroke-linejoin:round; stroke-width:2.07px;"/><path id="ar" d="m889.5,380.09l19.53,73.28" style="fill:none; stroke:#fff; stroke-linecap:round; stroke-linejoin:round; stroke-width:2.07px;"/><path id="as" d="m904.15,377.65l15.85,72.04" style="fill:none; stroke:#fff; stroke-linecap:round; stroke-linejoin:round; stroke-width:2.07px;"/><path id="at" d="m427.97,398.42l-2.44,73.24" style="fill:none; stroke:#fff; stroke-linecap:round; stroke-linejoin:round; stroke-width:2.07px;"/><path id="au" d="m353.49,402.06l-1.24,70.84" style="fill:none; stroke:#fff; stroke-linecap:round; stroke-linejoin:round; stroke-width:2.07px;"/><path id="av" d="m286.33,402.06l-2.44,72.04" style="fill:none; stroke:#fff; stroke-linecap:round; stroke-linejoin:round; stroke-width:2.07px;"/><path id="aw" d="m230.18,403.31l-3.68,69.6" style="fill:none; stroke:#fff; stroke-linecap:round; stroke-linejoin:round; stroke-width:2.07px;"/><path id="ax" d="m178.88,405.75l-7.32,64.72" style="fill:none; stroke:#fff; stroke-linecap:round; stroke-linejoin:round; stroke-width:2.07px;"/><path id="ay" d="m139.82,403.31l-8.52,68.36" style="fill:none; stroke:#fff; stroke-linecap:round; stroke-linejoin:round; stroke-width:2.07px;"/><path id="az" d="m467.03,316.62l-6.12,79.36" style="fill:none; stroke:#fff; stroke-linecap:round; stroke-linejoin:round; stroke-width:2.07px;"/><path id="ba" d="m547.64,317.82l-1.24,74.48" style="fill:none; stroke:#fff; stroke-linecap:round; stroke-linejoin:round; stroke-width:2.07px;"/><path id="bb" d="m618.44,315.38l14.65,73.28" style="fill:none; stroke:#fff; stroke-linecap:round; stroke-linejoin:round; stroke-width:2.07px;"/><path id="bc" d="m688.03,312.94l21.97,75.72" style="fill:none; stroke:#fff; stroke-linecap:round; stroke-linejoin:round; stroke-width:2.07px;"/><path id="bd" d="m746.62,310.49l25.65,74.48" style="fill:none; stroke:#fff; stroke-linecap:round; stroke-linejoin:round; stroke-width:2.07px;"/><path id="be" d="m797.89,308.05l32.98,74.48" style="fill:none; stroke:#fff; stroke-linecap:round; stroke-linejoin:round; stroke-width:2.07px;"/><path id="bf" d="m840.64,305.61l30.54,73.28" style="fill:none; stroke:#fff; stroke-linecap:round; stroke-linejoin:round; stroke-width:2.07px;"/><path id="bg" d="m862.61,304.41l35.42,75.68" style="fill:none; stroke:#fff; stroke-linecap:round; stroke-linejoin:round; stroke-width:2.07px;"/><path id="bh" d="m386.47,319.06l-8.57,79.36" style="fill:none; stroke:#fff; stroke-linecap:round; stroke-linejoin:round; stroke-width:2.07px;"/><path id="bi" d="m318.07,317.82l-10.97,84.25" style="fill:none; stroke:#fff; stroke-linecap:round; stroke-linejoin:round; stroke-width:2.07px;"/><path id="bj" d="m266.8,319.06l-19.53,80.56" style="fill:none; stroke:#fff; stroke-linecap:round; stroke-linejoin:round; stroke-width:2.07px;"/><path id="bk" d="m220.42,317.82l-25.65,81.8" style="fill:none; stroke:#fff; stroke-linecap:round; stroke-linejoin:round; stroke-width:2.07px;"/><path id="bl" d="m176.43,317.82l-30.5,83.05" style="fill:none; stroke:#fff; stroke-linecap:round; stroke-linejoin:round; stroke-width:2.07px;"/><path id="bm" d="m144.7,317.82l-24.41,84.25" style="fill:none; stroke:#fff; stroke-linecap:round; stroke-linejoin:round; stroke-width:2.07px;"/><path id="bn" d="m110.52,403.31l-9.77,69.6" style="fill:none; stroke:#fff; stroke-linecap:round; stroke-linejoin:round; stroke-width:2.07px;"/><path id="bo" d="m485.36,255.54l-7.32,58.63" style="fill:none; stroke:#fff; stroke-linecap:round; stroke-linejoin:round; stroke-width:2.07px;"/><path id="bp" d="m565.93,251.9l4.88,58.59" style="fill:none; stroke:#fff; stroke-linecap:round; stroke-linejoin:round; stroke-width:2.07px;"/><path id="bq" d="m642.85,249.46l26.85,61.03" style="fill:none; stroke:#fff; stroke-linecap:round; stroke-linejoin:round; stroke-width:2.07px;"/><path id="br" d="m711.2,245.78l35.42,65.96" style="fill:none; stroke:#fff; stroke-linecap:round; stroke-linejoin:round; stroke-width:2.07px;"/><path id="bs" d="m757.63,242.14l40.26,63.47" style="fill:none; stroke:#fff; stroke-linecap:round; stroke-linejoin:round; stroke-width:2.07px;"/><path id="bt" d="m802.82,239.7l40.26,63.47" style="fill:none; stroke:#fff; stroke-linecap:round; stroke-linejoin:round; stroke-width:2.07px;"/><path id="bu" d="m821.11,237.25l48.83,65.92" style="fill:none; stroke:#fff; stroke-linecap:round; stroke-linejoin:round; stroke-width:2.07px;"/><path id="bv" d="m410.88,255.54l-11.01,63.52" style="fill:none; stroke:#fff; stroke-linecap:round; stroke-linejoin:round; stroke-width:2.07px;"/><path id="bw" d="m332.72,257.99l-23.17,59.83" style="fill:none; stroke:#fff; stroke-linecap:round; stroke-linejoin:round; stroke-width:2.07px;"/><path id="bx" d="m276.57,256.79l-40.3,59.83" style="fill:none; stroke:#fff; stroke-linecap:round; stroke-linejoin:round; stroke-width:2.07px;"/><path id="by" d="m225.3,256.79l-35.42,58.59" style="fill:none; stroke:#fff; stroke-linecap:round; stroke-linejoin:round; stroke-width:2.07px;"/><path id="bz" d="m193.52,255.54l-36.62,59.83" style="fill:none; stroke:#fff; stroke-linecap:round; stroke-linejoin:round; stroke-width:2.07px;"/><path id="ca" d="m518.3,189.63l13.45,61.03" style="fill:none; stroke:#fff; stroke-linecap:round; stroke-linejoin:round; stroke-width:2.07px;"/><path id="cb" d="m586.7,188.43l24.41,58.59" style="fill:none; stroke:#fff; stroke-linecap:round; stroke-linejoin:round; stroke-width:2.07px;"/><path id="cc" d="m650.17,185.95l40.3,58.63" style="fill:none; stroke:#fff; stroke-linecap:round; stroke-linejoin:round; stroke-width:2.07px;"/><path id="cd" d="m705.12,182.3l42.74,58.59" style="fill:none; stroke:#fff; stroke-linecap:round; stroke-linejoin:round; stroke-width:2.07px;"/><path id="ce" d="m746.62,183.5l47.63,54.95" style="fill:none; stroke:#fff; stroke-linecap:round; stroke-linejoin:round; stroke-width:2.07px;"/><path id="cf" d="m772.28,181.06l47.63,53.75" style="fill:none; stroke:#fff; stroke-linecap:round; stroke-linejoin:round; stroke-width:2.07px;"/><path id="cg" d="m446.26,192.07l-30.5,61.03" style="fill:none; stroke:#fff; stroke-linecap:round; stroke-linejoin:round; stroke-width:2.07px;"/><path id="ch" d="m388.91,193.31l-37.86,61.03" style="fill:none; stroke:#fff; stroke-linecap:round; stroke-linejoin:round; stroke-width:2.07px;"/><path id="ci" d="m330.28,192.07l-41.5,61.03" style="fill:none; stroke:#fff; stroke-linecap:round; stroke-linejoin:round; stroke-width:2.07px;"/><path id="cj" d="m282.65,192.07l-42.7,61.03" style="fill:none; stroke:#fff; stroke-linecap:round; stroke-linejoin:round; stroke-width:2.07px;"/><path id="ck" d="m249.72,193.31l-51.31,58.59" style="fill:none; stroke:#fff; stroke-linecap:round; stroke-linejoin:round; stroke-width:2.07px;"/><path id="cl" d="m508.54,150.57c0,4.88,3.68,36.5,3.68,36.5" style="fill:none; stroke:#fff; stroke-linecap:round; stroke-linejoin:round; stroke-width:2.07px;"/><path id="cm" d="m576.93,146.89l35.38,36.62" style="fill:none; stroke:#fff; stroke-linecap:round; stroke-linejoin:round; stroke-width:2.07px;"/><path id="cn" d="m641.65,145.69l39.06,36.62" style="fill:none; stroke:#fff; stroke-linecap:round; stroke-linejoin:round; stroke-width:2.07px;"/><path id="co" d="m689.23,140.8l57.39,42.7" style="fill:none; stroke:#fff; stroke-linecap:round; stroke-linejoin:round; stroke-width:2.07px;"/><path id="cp" d="m426.73,151.77l-26.85,40.3" style="fill:none; stroke:#fff; stroke-linecap:round; stroke-linejoin:round; stroke-width:2.07px;"/><path id="cq" d="m358.37,151.77l-21.97,35.42" style="fill:none; stroke:#fff; stroke-linecap:round; stroke-linejoin:round; stroke-width:2.07px;"/><path id="cr" d="m318.07,151.77l-42.74,40.3" style="fill:none; stroke:#fff; stroke-linecap:round; stroke-linejoin:round; stroke-width:2.07px;"/><path id="cs" d="m294.9,150.57l-50.07,42.74" style="fill:none; stroke:#fff; stroke-linecap:round; stroke-linejoin:round; stroke-width:2.07px;"/><path id="ct" d="m427.97,149.33l39.06-37.82" style="fill:none; stroke:#fff; stroke-linecap:round; stroke-linejoin:round; stroke-width:2.07px;"/><path id="cu" d="m404.76,113.95l-35.42,36.62" style="fill:none; stroke:#fff; stroke-linecap:round; stroke-linejoin:round; stroke-width:2.07px;"/><path id="cv" d="m372.78,114.59l-52.27,33.54" style="fill:none; stroke:#fff; stroke-linecap:round; stroke-linejoin:round; stroke-width:2.07px;"/><path id="cw" d="m523.18,107.82l3.68,39.06" style="fill:none; stroke:#fff; stroke-linecap:round; stroke-linejoin:round; stroke-width:2.07px;"/><path id="cx" d="m558.6,109.07l34.18,37.82" style="fill:none; stroke:#fff; stroke-linecap:round; stroke-linejoin:round; stroke-width:2.07px;"/><path id="cy" d="m613.55,106.62l56.15,31.74" style="fill:none; stroke:#fff; stroke-linecap:round; stroke-linejoin:round; stroke-width:2.07px;"/><path id="cz" d="m493.89,110.27l8.57-24.41" style="fill:none; stroke:#fff; stroke-linecap:round; stroke-linejoin:round; stroke-width:2.07px;"/><path id="da" d="m548.84,107.82l-9.77-24.41" style="fill:none; stroke:#fff; stroke-linecap:round; stroke-linejoin:round; stroke-width:2.07px;"/><path id="db" d="m440.18,112.71l14.65-25.65" style="fill:none; stroke:#fff; stroke-linecap:round; stroke-linejoin:round; stroke-width:2.07px;"/><path id="dc" d="m512.22,554.71l6.08,78.12" style="fill:none; stroke:#fff; stroke-linecap:round; stroke-linejoin:round; stroke-width:2.07px;"/><path id="dd" d="m584.26,552.27l3.64,75.68" style="fill:none; stroke:#fff; stroke-linecap:round; stroke-linejoin:round; stroke-width:2.07px;"/><path id="de" d="m658.74,549.82l-1.24,75.68" style="fill:none; stroke:#fff; stroke-linecap:round; stroke-linejoin:round; stroke-width:2.07px;"/><path id="df" d="m728.34,546.14l-2.44,75.72" style="fill:none; stroke:#fff; stroke-linecap:round; stroke-linejoin:round; stroke-width:2.07px;"/><path id="dg" d="m786.93,544.94l-6.12,73.24" style="fill:none; stroke:#fff; stroke-linecap:round; stroke-linejoin:round; stroke-width:2.07px;"/><path id="dh" d="m845.52,540.06l-7.32,73.24" style="fill:none; stroke:#fff; stroke-linecap:round; stroke-linejoin:round; stroke-width:2.07px;"/><path id="di" d="m883.38,538.82l-6.12,73.28" style="fill:none; stroke:#fff; stroke-linecap:round; stroke-linejoin:round; stroke-width:2.07px;"/><path id="dj" d="m916.36,536.38l-8.57,72.04" style="fill:none; stroke:#fff; stroke-linecap:round; stroke-linejoin:round; stroke-width:2.07px;"/><path id="dk" d="m434.05,555.91l8.57,76.92" style="fill:none; stroke:#fff; stroke-linecap:round; stroke-linejoin:round; stroke-width:2.07px;"/><path id="dl" d="m354.69,557.15l17.09,78.12" style="fill:none; stroke:#fff; stroke-linecap:round; stroke-linejoin:round; stroke-width:2.07px;"/><path id="dm" d="m285.09,558.35l18.33,76.92" style="fill:none; stroke:#fff; stroke-linecap:round; stroke-linejoin:round; stroke-width:2.07px;"/><path id="dn" d="m224.06,558.35l14.65,76.92" style="fill:none; stroke:#fff; stroke-linecap:round; stroke-linejoin:round; stroke-width:2.07px;"/><path id="do" d="m175.23,559.59l10.97,79.36" style="fill:none; stroke:#fff; stroke-linecap:round; stroke-linejoin:round; stroke-width:2.07px;"/><path id="dp" d="m134.93,558.35l15.89,81.8" style="fill:none; stroke:#fff; stroke-linecap:round; stroke-linejoin:round; stroke-width:2.07px;"/><path id="dq" d="m108.08,559.59l17.09,78.12" style="fill:none; stroke:#fff; stroke-linecap:round; stroke-linejoin:round; stroke-width:2.07px;"/><path id="dr" d="m519.54,632.83l-1.24,73.28" style="fill:none; stroke:#fff; stroke-linecap:round; stroke-linejoin:round; stroke-width:2.07px;"/><path id="ds" d="m591.58,627.95l-6.12,73.28" style="fill:none; stroke:#fff; stroke-linecap:round; stroke-linejoin:round; stroke-width:2.07px;"/><path id="dt" d="m668.5,624.31l-4.88,75.68" style="fill:none; stroke:#fff; stroke-linecap:round; stroke-linejoin:round; stroke-width:2.07px;"/><path id="du" d="m738.1,620.62l-7.32,73.28" style="fill:none; stroke:#fff; stroke-linecap:round; stroke-linejoin:round; stroke-width:2.07px;"/><path id="dv" d="m804.02,616.98l-17.09,74.48" style="fill:none; stroke:#fff; stroke-linecap:round; stroke-linejoin:round; stroke-width:2.07px;"/><path id="dw" d="m855.28,614.54l-24.41,74.44" style="fill:none; stroke:#fff; stroke-linecap:round; stroke-linejoin:round; stroke-width:2.07px;"/><path id="dx" d="m889.5,609.66l-24.45,74.44" style="fill:none; stroke:#fff; stroke-linecap:round; stroke-linejoin:round; stroke-width:2.07px;"/><path id="dy" d="m913.92,610.86l-20.77,70.8" style="fill:none; stroke:#fff; stroke-linecap:round; stroke-linejoin:round; stroke-width:2.07px;"/><path id="dz" d="m436.5,634.07l7.32,73.24" style="fill:none; stroke:#fff; stroke-linecap:round; stroke-linejoin:round; stroke-width:2.07px;"/><path id="ea" d="m358.37,636.51l13.41,74.48" style="fill:none; stroke:#fff; stroke-linecap:round; stroke-linejoin:round; stroke-width:2.07px;"/><path id="eb" d="m286.33,636.51l21.97,73.24" style="fill:none; stroke:#fff; stroke-linecap:round; stroke-linejoin:round; stroke-width:2.07px;"/><path id="ec" d="m222.86,638.95l19.53,70.8" style="fill:none; stroke:#fff; stroke-linecap:round; stroke-linejoin:round; stroke-width:2.07px;"/><path id="ed" d="m175.23,636.51l23.17,74.48" style="fill:none; stroke:#fff; stroke-linecap:round; stroke-linejoin:round; stroke-width:2.07px;"/><path id="ee" d="m136.17,636.51l20.73,75.68" style="fill:none; stroke:#fff; stroke-linecap:round; stroke-linejoin:round; stroke-width:2.07px;"/><path id="ef" d="m532.95,704.87l-2.44,69.6" style="fill:none; stroke:#fff; stroke-linecap:round; stroke-linejoin:round; stroke-width:2.07px;"/><path id="eg" d="m604.99,706.11l-8.52,65.92" style="fill:none; stroke:#fff; stroke-linecap:round; stroke-linejoin:round; stroke-width:2.07px;"/><path id="eh" d="m689.23,699.99l-23.17,65.92" style="fill:none; stroke:#fff; stroke-linecap:round; stroke-linejoin:round; stroke-width:2.07px;"/><path id="ei" d="m764.95,695.1l-34.18,69.6" style="fill:none; stroke:#fff; stroke-linecap:round; stroke-linejoin:round; stroke-width:2.07px;"/><path id="ej" d="m827.23,691.46l-39.1,68.36" style="fill:none; stroke:#fff; stroke-linecap:round; stroke-linejoin:round; stroke-width:2.07px;"/><path id="ek" d="m863.85,682.9l-37.86,74.48" style="fill:none; stroke:#fff; stroke-linecap:round; stroke-linejoin:round; stroke-width:2.07px;"/><path id="el" d="m889.5,682.9l-36.66,72.04" style="fill:none; stroke:#fff; stroke-linecap:round; stroke-linejoin:round; stroke-width:2.07px;"/><path id="em" d="m441.38,709.75l7.32,64.72" style="fill:none; stroke:#fff; stroke-linecap:round; stroke-linejoin:round; stroke-width:2.07px;"/><path id="en" d="m370.58,712.19l14.65,61.03" style="fill:none; stroke:#fff; stroke-linecap:round; stroke-linejoin:round; stroke-width:2.07px;"/><path id="eo" d="m309.55,708.55l17.09,63.47" style="fill:none; stroke:#fff; stroke-linecap:round; stroke-linejoin:round; stroke-width:2.07px;"/><path id="ep" d="m239.95,713.43l23.17,58.59" style="fill:none; stroke:#fff; stroke-linecap:round; stroke-linejoin:round; stroke-width:2.07px;"/><path id="eq" d="m189.88,712.19l32.98,59.83" style="fill:none; stroke:#fff; stroke-linecap:round; stroke-linejoin:round; stroke-width:2.07px;"/><path id="er" d="m153.26,713.43l42.7,61.03" style="fill:none; stroke:#fff; stroke-linecap:round; stroke-linejoin:round; stroke-width:2.07px;"/><path id="es" d="m484.12,774.47l3.68,57.39" style="fill:none; stroke:#fff; stroke-linecap:round; stroke-linejoin:round; stroke-width:2.07px;"/><path id="et" d="m570.81,772.03l-4.88,59.83" style="fill:none; stroke:#fff; stroke-linecap:round; stroke-linejoin:round; stroke-width:2.07px;"/><path id="eu" d="m652.61,768.34l-25.65,58.63" style="fill:none; stroke:#fff; stroke-linecap:round; stroke-linejoin:round; stroke-width:2.07px;"/><path id="ev" d="m730.78,762.26l-30.54,61.03" style="fill:none; stroke:#fff; stroke-linecap:round; stroke-linejoin:round; stroke-width:2.07px;"/><path id="ew" d="m788.13,758.58c-7.32,7.32-36.62,59.83-36.62,59.83" style="fill:none; stroke:#fff; stroke-linecap:round; stroke-linejoin:round; stroke-width:2.07px;"/><path id="ex" d="m828.43,758.58l-46.38,57.39" style="fill:none; stroke:#fff; stroke-linecap:round; stroke-linejoin:round; stroke-width:2.07px;"/><path id="ey" d="m854.08,754.94l-50.07,59.83" style="fill:none; stroke:#fff; stroke-linecap:round; stroke-linejoin:round; stroke-width:2.07px;"/><path id="ez" d="m385.23,774.47c2.44,4.88,31.74,59.83,31.74,59.83" style="fill:none; stroke:#fff; stroke-linecap:round; stroke-linejoin:round; stroke-width:2.07px;"/><path id="fa" d="m296.1,775.71l54.95,59.79" style="fill:none; stroke:#fff; stroke-linecap:round; stroke-linejoin:round; stroke-width:2.07px;"/><path id="fb" d="m233.83,774.47l61.07,62.27" style="fill:none; stroke:#fff; stroke-linecap:round; stroke-linejoin:round; stroke-width:2.07px;"/><path id="fc" d="m192.32,772.03l56.15,62.27" style="fill:none; stroke:#fff; stroke-linecap:round; stroke-linejoin:round; stroke-width:2.07px;"/><path id="fd" d="m454.83,834.3l24.41,48.83" style="fill:none; stroke:#fff; stroke-linecap:round; stroke-linejoin:round; stroke-width:2.07px;"/><path id="fe" d="m564.73,830.62l-6.12,47.63" style="fill:none; stroke:#fff; stroke-linecap:round; stroke-linejoin:round; stroke-width:2.07px;"/><path id="ff" d="m658.74,825.73l-34.22,48.87" style="fill:none; stroke:#fff; stroke-linecap:round; stroke-linejoin:round; stroke-width:2.07px;"/><path id="fg" d="m728.34,825.73l-63.52,48.87" style="fill:none; stroke:#fff; stroke-linecap:round; stroke-linejoin:round; stroke-width:2.07px;"/><path id="fh" d="m778.36,820.85l-62.23,51.31" style="fill:none; stroke:#fff; stroke-linecap:round; stroke-linejoin:round; stroke-width:2.07px;"/><path id="fi" d="m369.34,835.5l35.42,46.43" style="fill:none; stroke:#fff; stroke-linecap:round; stroke-linejoin:round; stroke-width:2.07px;"/><path id="fj" d="m296.1,836.74l52.51,46.38" style="fill:none; stroke:#fff; stroke-linecap:round; stroke-linejoin:round; stroke-width:2.07px;"/><path id="fk" d="m530.51,880.68c-2.44,4.88-4.88,39.06-4.88,39.06" style="fill:none; stroke:#fff; stroke-linecap:round; stroke-linejoin:round; stroke-width:2.07px;"/><path id="fl" d="m644.09,877.04l-58.63,39.06" style="fill:none; stroke:#fff; stroke-linecap:round; stroke-linejoin:round; stroke-width:2.07px;"/><path id="fm" d="m713.65,873.36l-68.36,40.3" style="fill:none; stroke:#fff; stroke-linecap:round; stroke-linejoin:round; stroke-width:2.07px;"/><path id="fn" d="m416.97,884.37l36.62,31.74" style="fill:none; stroke:#fff; stroke-linecap:round; stroke-linejoin:round; stroke-width:2.07px;"/><path id="fo" d="m348.61,883.13l45.18,28.1" style="fill:none; stroke:#fff; stroke-linecap:round; stroke-linejoin:round; stroke-width:2.07px;"/><path id="fp" d="m552.52,920.99l-16.89,20.41" style="fill:none; stroke:#fff; stroke-linecap:round; stroke-linejoin:round; stroke-width:2.07px;"/><path id="fq" d="m480.48,919.74l14.21,21.89" style="fill:none; stroke:#fff; stroke-linecap:round; stroke-linejoin:round; stroke-width:2.07px;"/><path id="fr" d="m444.23,336.4l-73.74,18.45c-74.94,17.46-75.51,18.25-66.29,96.78l7.49,78.33-19.49-74.48q-18.66-77.05-97.16-66.49l-77.71,8.07,77.21-18.87c73.78-17.25,74.32-20.28,67.24-96.95l-9.97-78.12,19.16,75.97c17.46,70.51,17.71,72.08,96.62,64.43l76.63-7.12h0Z" style="fill:#fff;"/><path id="fs" d="m795.33,720.59l-38.85,9.72c-39.47,9.19-39.76,9.6-34.92,50.98l3.97,41.25-10.3-39.23q-9.85-40.59-51.18-35.05l-40.92,4.26,40.67-9.93c38.85-9.1,39.14-10.68,35.42-51.1l-5.25-41.13,10.1,40.01c9.19,37.16,9.31,37.99,50.89,33.93l40.39-3.72h0Z" style="fill:#fff;"/></g></g></svg>