<?xml version="1.0" encoding="UTF-8"?><svg id="a" xmlns="http://www.w3.org/2000/svg" width="880" height="880" viewBox="0 0 880 880"><g id="b"><g id="c"><g id="d"><g id="e"><path id="f" d="m712.87,402.66c-6.01-10.22-14.64-16.97-26-20.34l-104.71-31c-9.11-2.7-18.73,2.53-21.43,11.64l-7.63,25.76c-2.7,9.1,2.53,18.73,11.63,21.43l104.72,31c11.36,3.37,22.28,2.4,32.88-2.91,3.4-1.7,7.43-2.17,11.36-1.01l2.63.78c5.1,1.51,9.03,4.33,12.1,8.69,3,4.26,7.26,6.87,12.49,7.62l40.76,5.88c8.19,1.18,15.89-3.75,18.25-11.69l.39-1.33c2.36-7.94-1.42-16.27-8.94-19.74l-37.39-17.27c-4.79-2.22-9.79-2.34-14.63-.4-4.93,1.99-9.77,2.21-14.87.7l-2.63-.78c-3.92-1.16-7.04-3.75-8.97-7.03m-135.95,199.46c-.77,11.82,2.59,22.26,10.1,31.42l69.25,84.45c6.02,7.34,16.91,8.42,24.27,2.4l20.78-17.03c7.34-6.02,8.42-16.93,2.4-24.27l-69.25-84.45c-7.52-9.16-17.09-14.49-28.84-16.05-3.77-.51-7.38-2.38-9.97-5.54l-1.74-2.11c-3.38-4.11-5.04-8.66-5.14-13.97-.09-5.21-2.16-9.76-6.07-13.32l-30.43-27.75c-6.12-5.58-15.26-5.83-21.66-.57l-1.08.88c-6.4,5.25-7.96,14.26-3.69,21.36l21.25,35.27c2.73,4.53,6.79,7.45,11.88,8.55,5.19,1.13,9.33,3.65,12.71,7.77l1.74,2.11c2.6,3.16,3.73,7.07,3.49,10.86m-227.94-35.98c-9.46,7.14-15.18,16.49-17.21,28.16l-18.79,107.58c-1.63,9.35,4.67,18.32,14.02,19.95l26.46,4.62c9.35,1.63,18.32-4.67,19.95-14.02l18.79-107.58c2.03-11.67-.17-22.41-6.65-32.34-2.08-3.18-3.01-7.14-2.31-11.17l.47-2.7c.92-5.24,3.27-9.47,7.24-13.01,3.88-3.47,5.99-8,6.14-13.28l1.17-41.16c.23-8.29-5.55-15.36-13.71-16.79l-1.37-.24c-8.16-1.42-16,3.29-18.58,11.15l-12.85,39.13c-1.65,5.02-1.22,10,1.28,14.58,2.54,4.68,3.32,9.46,2.4,14.7l-.47,2.69c-.72,4.03-2.93,7.43-5.98,9.73m148.57-318.9l12.07,24.49,45.06-22.2,5.55,11.26,168.49-83-11.93,19.29-151.26,74.51,5.55,11.26-45.07,22.2,12.07,24.49-258.14,127.14-13.51-27.43-136.41,67.2,12.55,25.46-23.51,11.58-38.6-78.37,23.51-11.58,12.55,25.46,136.42-67.19-13.51-27.43,258.12-127.15h0Z" style="fill-rule:evenodd;"/></g><g id="g"><path id="h" d="m564.01,596.43c.24-3.8-.88-7.7-3.48-10.86l-1.74-2.11c-3.38-4.11-7.5-6.64-12.71-7.77-5.09-1.1-9.15-4.02-11.88-8.55l-21.26-35.27c-4.27-7.1-2.72-16.11,3.69-21.36l1.08-.88c6.4-5.25,15.55-5.01,21.66.56l30.44,27.75c3.91,3.56,5.98,8.11,6.07,13.33.09,5.32,1.76,9.86,5.14,13.98l1.74,2.11c2.6,3.17,6.19,5.04,9.97,5.54,11.74,1.56,21.33,6.89,28.84,16.05l69.25,84.45c6.02,7.34,4.94,18.25-2.4,24.26l-20.78,17.03c-7.34,6.02-18.25,4.94-24.26-2.4l-69.27-84.44c-7.52-9.17-10.87-19.6-10.1-31.43" style="fill:#3ec7a5; fill-rule:evenodd;"/></g><g id="i"><path id="j" d="m568.94,596.75c-.69,10.57,2.28,19.78,8.99,27.97l69.25,84.45c4.29,5.23,12.07,6,17.31,1.71l20.78-17.04c5.23-4.29,6-12.07,1.71-17.31l-69.26-84.45c-6.71-8.19-15.17-12.89-25.66-14.29-5.16-.69-9.85-3.29-13.15-7.31l-1.74-2.11c-4.08-4.98-6.15-10.59-6.25-17.03-.06-3.88-1.57-7.12-4.45-9.74l-30.43-27.75c-4.31-3.92-10.69-4.09-15.19-.39l-1.08.88c-4.5,3.7-5.6,9.99-2.59,14.98l21.26,35.25c2.01,3.32,4.9,5.45,8.7,6.27,6.29,1.37,11.4,4.49,15.48,9.47l1.72,2.11c3.31,4.02,4.93,9.12,4.6,14.32" style="fill:#7fe3ca; fill-rule:evenodd;"/></g><g id="k"><path id="l" d="m680.71,697.56l4.55-3.73c5.23-4.29,6-12.07,1.71-17.31l-69.25-84.45c-6.71-8.19-15.17-12.89-25.66-14.29-5.16-.69-9.85-3.29-13.15-7.31l-1.74-2.11c-4.08-4.98-6.15-10.59-6.25-17.03-.07-3.88-1.59-7.14-4.45-9.76l-30.43-27.75c-4.31-3.92-10.69-4.09-15.19-.39l-.24.2c2.54-2.08,7.29-.56,11.31,3.59l28.42,29.39c2.68,2.77,4.49,5.77,5.38,8.99,1.46,5.32,4.19,10.4,8.27,15.38l1.74,2.11c3.3,4.02,7.31,7.17,11.27,8.85,8.06,3.4,15.29,9.09,22.02,17.28l69.25,84.45c4.27,5.25,5.38,11.49,2.44,13.9" style="fill:#9ef0da; fill-rule:evenodd;"/></g><g id="m"><path id="n" d="m568.94,596.75c-.69,10.57,2.28,19.78,8.99,27.97l69.25,84.45c4.29,5.23,12.07,6,17.31,1.71l20.78-17.04c5.23-4.29,6-12.07,1.71-17.31l-69.26-84.45c-6.71-8.19-15.17-12.89-25.66-14.29-5.16-.69-9.85-3.29-13.15-7.31l-1.74-2.11c-4.08-4.98-6.15-10.59-6.25-17.03-.01-.54-.05-1.07-.11-1.59-11.99-7-20.99-9.22-25.56-5.47s-4.16,13.01.36,26.14c.49.17,1,.3,1.53.43,6.29,1.37,11.4,4.49,15.48,9.47l1.74,2.11c3.31,4.02,4.93,9.12,4.6,14.32" style="fill-rule:evenodd;"/></g><g id="o"><path id="p" d="m570.23,595.69c-.07,10.05,3.21,19.02,9.92,27.2l69.25,84.44c4.29,5.23,11.59,6.39,16.24,2.57l4.84-3.96c-2.21,1.82-7.53-.98-11.81-6.21l-69.25-84.44c-6.71-8.19-11.25-16.1-13.8-24.02-1.25-3.9-3.76-8.27-7.07-12.3l-1.74-2.11c-4.08-4.98-8.31-8.83-12.81-11.65-2.72-1.71-5.22-4.16-7.47-7.27l-23.9-33.09c-3.38-4.69-4.45-9.2-2.55-10.77l-.25.21c-4,3.29-4.68,9.24-1.59,14.17l21.78,34.83c2.06,3.29,4.87,5.47,8.46,6.47,5.94,1.65,10.89,4.92,14.96,9.89l1.74,2.11c3.3,4.02,5.1,8.99,5.07,13.93" style="fill:#d6fff4; fill-rule:evenodd;"/></g><g id="q"><path id="r" d="m665.64,709.92l4.84-3.96c-2.21,1.82-7.53-.98-11.81-6.22l-69.25-84.45c-6.72-8.19-11.26-16.1-13.8-24.02-1.24-3.9-3.76-8.27-7.06-12.3l-1.74-2.11c-4.08-4.98-8.31-8.83-12.81-11.65-2.72-1.71-5.22-4.16-7.47-7.27l-4.47-6.19c-.3,4.24.69,9.81,2.82,16.47,1.09.67,2.29,1.18,3.59,1.54,5.94,1.65,10.89,4.92,14.96,9.89l1.74,2.11c3.3,4.02,5.1,8.99,5.07,13.93-.07,10.05,3.21,19.02,9.92,27.2l69.25,84.44c4.29,5.25,11.59,6.41,16.24,2.6" style="fill-rule:evenodd;"/></g><g id="s"><path id="t" d="m680.71,697.56l4.55-3.73c5.23-4.29,6-12.07,1.71-17.31l-69.25-84.45c-6.71-8.19-15.17-12.89-25.66-14.29-5.16-.69-9.85-3.29-13.15-7.31l-1.74-2.11c-4.08-4.98-6.15-10.59-6.25-17.03v-.17h0v-.17h0v-.17h-.01v-.19h0v-.16s-.01-.17-.01-.17h0v-.17h0v-.16h-.01v-.13s-.01-.02-.01-.02c-5.04-2.95-9.57-5.06-13.46-6.22l2.98,3.08c2.68,2.77,4.49,5.77,5.38,8.99,1.46,5.32,4.19,10.4,8.27,15.38l1.74,2.11c3.3,4.02,7.31,7.17,11.27,8.85,8.06,3.4,15.29,9.09,22.02,17.28l69.25,84.45c4.22,5.21,5.32,11.45,2.38,13.86" style="fill-rule:evenodd;"/></g><g id="u"><path id="v" d="m336.08,560.45c3.05-2.3,5.25-5.7,5.95-9.73l.47-2.69c.92-5.24.14-10.02-2.4-14.7-2.48-4.57-2.92-9.56-1.28-14.58l12.85-39.13c2.59-7.87,10.42-12.57,18.58-11.15l1.38.24c8.16,1.42,13.94,8.5,13.71,16.79l-1.16,41.16c-.15,5.29-2.25,9.82-6.14,13.28-3.98,3.54-6.33,7.77-7.24,13.01l-.47,2.7c-.7,4.03.22,7.99,2.31,11.17,6.48,9.92,8.7,20.66,6.65,32.32l-18.78,107.58c-1.63,9.35-10.59,15.65-19.95,14.02l-26.46-4.62c-9.35-1.63-15.65-10.59-14.02-19.95l18.78-107.58c2.03-11.66,7.76-21.02,17.21-28.15" style="fill:#3ec7a5; fill-rule:evenodd;"/></g><g id="w"><path id="x" d="m339.06,564.39c-8.46,6.38-13.5,14.63-15.32,25.06l-18.79,107.58c-1.16,6.66,3.33,13.07,10,14.23l26.46,4.62c6.66,1.16,13.07-3.33,14.23-10l18.78-107.58c1.83-10.43-.13-19.91-5.92-28.77-2.85-4.36-3.94-9.6-3.05-14.73l.47-2.7c1.1-6.33,4.02-11.57,8.83-15.86,2.91-2.59,4.38-5.85,4.48-9.73l1.16-41.16c.17-5.83-3.87-10.77-9.62-11.77l-1.37-.24c-5.75-1-11.22,2.28-13.04,7.81l-12.84,39.14c-1.21,3.69-.93,7.26.92,10.68,3.07,5.65,4.03,11.57,2.93,17.9l-.47,2.69c-.9,5.14-3.69,9.7-7.85,12.84" style="fill:#7fe3ca; fill-rule:evenodd;"/></g><g id="y"><path id="z" d="m335.62,714.87l5.8,1.01c6.66,1.16,13.07-3.33,14.23-10l18.78-107.58c1.83-10.43-.13-19.9-5.92-28.77-2.85-4.36-3.94-9.6-3.05-14.73l.47-2.7c1.1-6.33,4.02-11.57,8.83-15.85,2.91-2.59,4.38-5.85,4.48-9.73l1.16-41.16c.17-5.83-3.87-10.77-9.62-11.77l-.3-.06c3.23.56,5.18,5.15,4.65,10.91l-3.72,40.71c-.34,3.84-1.44,7.17-3.3,9.94-3.08,4.58-5.15,9.96-6.25,16.31l-.47,2.69c-.9,5.13-.65,10.23.65,14.31,2.68,8.32,3.09,17.52,1.26,27.96l-18.78,107.59c-1.16,6.66-5.17,11.58-8.92,10.93" style="fill:#9ef0da; fill-rule:evenodd;"/></g><g id="aa"><path id="ab" d="m339.06,564.39c-8.46,6.38-13.5,14.63-15.32,25.06l-18.79,107.58c-1.16,6.66,3.33,13.07,10,14.23l26.46,4.62c6.66,1.16,13.07-3.33,14.23-10l18.78-107.58c1.83-10.43-.13-19.91-5.92-28.77-2.85-4.36-3.94-9.6-3.05-14.73l.47-2.7c1.1-6.33,4.02-11.57,8.83-15.86.4-.36.78-.74,1.13-1.11-2.52-13.65-6.71-21.92-12.54-22.94-5.83-1-12.57,5.35-19.57,17.34.2.48.43.95.68,1.44,3.07,5.65,4.03,11.57,2.93,17.9l-.47,2.69c-.9,5.14-3.69,9.7-7.85,12.84" style="fill-rule:evenodd;"/></g><g id="ac"><path id="ad" d="m340.7,564.68c-7.66,6.52-12.32,14.83-14.13,25.27l-18.78,107.58c-1.16,6.66,2.72,12.95,8.65,13.98l6.16,1.07c-2.82-.49-4.17-6.34-3.01-13.01l18.79-107.58c1.82-10.43,4.85-19.04,9.19-26.13,2.14-3.49,3.82-8.25,4.71-13.38l.47-2.69c1.1-6.34,1.26-12.05.46-17.32-.48-3.17-.25-6.66.64-10.4l9.48-39.71c1.34-5.62,4.07-9.39,6.5-8.96l-.32-.06c-5.1-.9-10.04,2.48-11.78,8.04l-12.22,39.24c-1.15,3.7-.98,7.25.62,10.63,2.63,5.57,3.38,11.46,2.28,17.79l-.47,2.7c-.9,5.13-3.48,9.72-7.25,12.93" style="fill:#d6fff4; fill-rule:evenodd;"/></g><g id="ae"><path id="af" d="m316.43,711.52l6.16,1.08c-2.82-.49-4.17-6.34-3-13.01l18.78-107.58c1.82-10.43,4.85-19.04,9.19-26.13,2.14-3.49,3.82-8.25,4.71-13.38l.47-2.69c1.1-6.33,1.26-12.05.46-17.32-.48-3.17-.25-6.66.64-10.4l1.77-7.42c-3.4,2.54-6.99,6.92-10.64,12.88.21,1.26.6,2.51,1.17,3.72,2.62,5.57,3.38,11.46,2.28,17.79l-.47,2.7c-.9,5.13-3.48,9.73-7.25,12.94-7.66,6.52-12.32,14.83-14.13,25.27l-18.79,107.56c-1.16,6.65,2.73,12.95,8.65,13.98" style="fill-rule:evenodd;"/></g><g id="ag"><path id="ah" d="m335.62,714.87l5.8,1.01c6.66,1.16,13.07-3.33,14.23-10l18.78-107.58c1.83-10.43-.13-19.9-5.92-28.77-2.85-4.36-3.94-9.6-3.05-14.73l.47-2.7c1.1-6.33,4.02-11.57,8.83-15.85l.11-.1.02-.02h.01l.11-.11h.01v-.02s.12-.1.12-.1h.02v-.03l.1-.09h.01v-.02l.1-.1h.01l.02-.02.07-.07h.02v-.03h.02l.02-.02.03-.03h.01v-.02s.03-.02.03-.02h0v-.02s.01-.02.01-.02h.03s.05-.07.05-.07v-.02h.02s.01-.01.01-.01v-.03h.02l.03-.05v-.02h.03c-1.06-5.77-2.42-10.56-4.08-14.26l-.39,4.26c-.34,3.84-1.44,7.17-3.3,9.94-3.08,4.58-5.15,9.96-6.25,16.31l-.47,2.69c-.9,5.13-.65,10.23.65,14.31,2.68,8.32,3.09,17.52,1.26,27.96l-18.76,107.59c-1.16,6.66-5.17,11.58-8.92,10.93" style="fill-rule:evenodd;"/></g><g id="ai"><path id="aj" d="m699.97,396.96c1.93,3.29,5.06,5.87,8.97,7.03l2.63.78c5.1,1.51,9.94,1.29,14.88-.7,4.84-1.94,9.82-1.8,14.63.41l37.39,17.26c7.53,3.47,11.3,11.8,8.94,19.74l-.39,1.33c-2.37,7.94-10.07,12.87-18.26,11.69l-40.76-5.88c-5.24-.76-9.5-3.36-12.49-7.62-3.07-4.36-7-7.18-12.1-8.69l-2.62-.77c-3.93-1.16-7.95-.69-11.36,1.01-10.59,5.3-21.51,6.26-32.88,2.9l-104.71-31c-9.11-2.7-14.33-12.32-11.64-21.43l7.63-25.76c2.7-9.1,12.32-14.33,21.43-11.64l104.72,31c11.34,3.37,19.97,10.12,25.98,20.34" style="fill:#3ec7a5; fill-rule:evenodd;"/></g><g id="ak"><path id="al" d="m695.7,399.47c-5.37-9.14-12.98-15.09-23.14-18.1l-104.71-31c-6.48-1.92-13.35,1.82-15.28,8.3l-7.63,25.76c-1.92,6.49,1.8,13.35,8.3,15.28l104.72,31c10.16,3.01,19.79,2.16,29.26-2.59,4.65-2.32,9.99-2.8,14.98-1.33l2.62.78c6.17,1.83,11.03,5.32,14.73,10.58,2.24,3.18,5.31,5.02,9.16,5.57l40.76,5.88c5.77.83,11.15-2.61,12.8-8.2l.39-1.33c1.65-5.58-.98-11.4-6.27-13.85l-37.38-17.26c-3.53-1.62-7.1-1.76-10.71-.31-5.96,2.4-11.95,2.68-18.12.85l-2.63-.77c-4.99-1.48-9.2-4.79-11.84-9.27" style="fill:#7fe3ca; fill-rule:evenodd;"/></g><g id="am"><path id="an" d="m546.62,378.78l-1.67,5.64c-1.92,6.49,1.82,13.35,8.3,15.28l104.72,31c10.16,3.01,19.79,2.16,29.26-2.59,4.65-2.33,9.99-2.8,14.98-1.33l2.62.77c6.17,1.83,11.03,5.32,14.73,10.58,2.24,3.18,5.31,5.02,9.16,5.57l40.76,5.88c5.77.83,11.15-2.61,12.8-8.2l.08-.29c-.93,3.14-5.7,4.55-11.36,3.37l-40.02-8.38c-3.78-.79-6.96-2.25-9.5-4.42-4.19-3.59-9.31-6.25-15.48-8.08l-2.62-.78c-5-1.47-10.08-1.83-14.29-.99-8.57,1.7-17.77,1.06-27.92-1.94l-104.71-30.99c-6.48-1.92-10.91-6.47-9.82-10.11" style="fill:#9ef0da; fill-rule:evenodd;"/></g><g id="ao"><path id="ap" d="m695.7,399.47c-5.37-9.14-12.98-15.09-23.14-18.1l-104.71-31c-6.48-1.92-13.35,1.82-15.28,8.3l-7.63,25.76c-1.92,6.49,1.8,13.35,8.3,15.28l104.72,31c10.16,3.01,19.79,2.16,29.26-2.59,4.65-2.32,9.99-2.8,14.98-1.33l2.62.78c6.17,1.83,11.03,5.32,14.73,10.58.31.45.63.86.98,1.24,13.85-.93,22.55-4.15,24.22-9.82,1.68-5.67-3.86-13.11-14.97-21.43-.48.15-.99.32-1.48.52-5.96,2.4-11.95,2.68-18.12.85l-2.63-.77c-4.99-1.48-9.2-4.79-11.84-9.27" style="fill-rule:evenodd;"/></g><g id="aq"><path id="ar" d="m695.23,401.07c-5.6-8.37-13.32-13.94-23.48-16.95l-104.71-31c-6.48-1.92-13.18,1.22-14.89,6.99l-1.78,6c.82-2.75,6.78-3.41,13.26-1.49l104.71,31c10.17,3.01,18.36,7,24.91,12.13,3.22,2.52,7.76,4.73,12.74,6.21l2.62.78c6.17,1.83,11.84,2.63,17.14,2.45,3.21-.11,6.64.51,10.26,1.83l38.36,13.97c5.42,1.98,8.85,5.13,8.16,7.48l.09-.31c1.47-4.96-1.31-10.26-6.63-12.62l-37.56-16.62c-3.55-1.57-7.1-1.8-10.63-.61-5.84,1.96-11.77,2.05-17.94.22l-2.62-.78c-5-1.47-9.27-4.56-12.02-8.68" style="fill:#d6fff4; fill-rule:evenodd;"/></g><g id="as"><path id="at" d="m552.15,360.1l-1.78,6c.82-2.75,6.78-3.41,13.26-1.49l104.71,31c10.16,3.01,18.35,7,24.9,12.13,3.22,2.52,7.76,4.73,12.74,6.21l2.62.77c6.17,1.83,11.84,2.63,17.14,2.45,3.21-.11,6.64.52,10.26,1.83l7.17,2.61c-2.14-3.68-6.07-7.73-11.57-12.05-1.28.07-2.56.31-3.84.74-5.84,1.98-11.77,2.05-17.94.22l-2.62-.77c-5-1.48-9.27-4.57-12.02-8.69-5.6-8.37-13.32-13.94-23.48-16.95l-104.67-30.98c-6.49-1.92-13.19,1.22-14.89,6.99" style="fill-rule:evenodd;"/></g><g id="au"><path id="av" d="m546.62,378.78l-1.67,5.64c-1.92,6.49,1.82,13.35,8.3,15.28l104.72,31c10.16,3.01,19.79,2.16,29.26-2.59,4.65-2.33,9.99-2.8,14.98-1.33l2.62.77c6.17,1.83,11.03,5.32,14.73,10.58l.08.13v.02h.01s.01.01.01.01l.09.14h0v.02s.1.11.1.11h.01v.02s.01.02.01.02l.09.1h.01l.09.13v.02l.02.02.06.08v.02l.02.02h.01l.02.03.03.03v.02l.02.02v.02h.02s.01.01.01.01v.03h.02l.05.07v.02h.02s.01.01.01.01v.02s.01.02.01.02l.05.03h.01v.03c5.85-.39,10.77-1.2,14.64-2.41l-4.19-.87c-3.78-.79-6.96-2.25-9.5-4.42-4.19-3.59-9.31-6.25-15.48-8.08l-2.62-.78c-5-1.47-10.08-1.83-14.29-.99-8.57,1.7-17.77,1.06-27.92-1.94l-104.66-31.04c-6.48-1.92-10.91-6.47-9.82-10.11" style="fill-rule:evenodd;"/></g><g id="aw"><path id="ax" d="m735.09,155.6l-11.94,19.27-168.49,83,11.93-19.27,168.51-83h-.01Z" style="fill:#ccc; fill-rule:evenodd;"/></g><g id="ay"><path id="az" d="m561.04,227.33l16.41,33.31-54.86,27.02-16.41-33.31,54.86-27.02Z" style="fill:#2dc0ca; fill-rule:evenodd;"/></g><g id="ba"><path id="bb" d="m391.29,314.59l13.51,27.43L123.16,480.75l-13.51-27.43,281.65-138.73h0Z" style="fill:#d6fff4; fill-rule:evenodd;"/></g><g id="bc"><path id="bd" d="m503.91,225.03l40.53,82.29-258.14,127.15-40.53-82.29,258.14-127.15Z" style="fill:#96a19e; fill-rule:evenodd;"/></g><g id="be"><path id="bf" d="m498.94,239.66l30.89,62.7-238.54,117.5-30.88-62.7,238.53-117.5h0Z" style="fill-rule:evenodd;"/></g><g id="bg"><path id="bh" d="m110.33,421.33l38.61,78.37-23.52,11.58-38.6-78.37,23.51-11.58Z" style="fill:#2dc0ca; fill-rule:evenodd;"/></g><g id="bi"><path id="bj" d="m391.29,314.59l13.51,27.43-122.21,60.2-13.51-27.43,122.21-60.2Z" style="fill:#bfe3d9; fill-rule:evenodd;"/></g><g id="bk"><path id="bl" d="m356.89,309.62l30.88,62.7-10.28,5.07-30.88-62.7,10.28-5.07Z" style="fill:#fff; fill-rule:evenodd;"/></g><g id="bm"><path id="bn" d="m373.42,301.48c10.3,20.9,20.59,41.79,30.89,62.7-3.44,1.69-6.86,3.38-10.28,5.07-10.31-20.9-20.59-41.8-30.89-62.7,3.42-1.69,6.86-3.38,10.28-5.07" style="fill:#fff; fill-rule:evenodd;"/></g><g id="bo"><path id="bp" d="m389.96,293.34l30.88,62.7-10.28,5.07-30.88-62.7,10.28-5.07Z" style="fill:#fff; fill-rule:evenodd;"/></g></g></g></g></svg>