<?xml version="1.0" encoding="UTF-8"?><svg id="a" xmlns="http://www.w3.org/2000/svg" width="1024" height="1024" viewBox="0 0 1024 1024"><path id="b" d="m496.6,927.68c-8.47-11.67-41.38-57.13-73.14-101.02-31.75-43.88-88.89-122.78-126.98-175.33-38.09-52.55-69.25-96.94-69.25-98.66s1.97-2.36,4.59-1.36c2.52.97,66.22,37.01,141.54,80.09s138.44,78.32,140.25,78.32,64.97-35.3,140.33-78.44c75.37-43.14,138.95-79.18,141.31-80.09,2.35-.9,4.28-.22,4.28,1.52s-23.93,36.23-53.17,76.65c-84.68,117.02-188.91,260.94-210.64,290.84-11,15.13-20.83,27.78-21.85,28.1s-8.79-8.96-17.26-20.64h0Zm21.17,7.24c1.09-1.77.77-2.44-.74-1.5-2.99,1.85-4.7-.41-109.7-145.27-40.58-55.99-91.62-126.36-113.41-156.38-21.79-30.02-39.05-55.14-38.37-55.83s5.74,1.4,11.23,4.64,9.98,5.24,9.98,4.44c0-1.97-30.34-19.2-31.59-17.95-.55.55,28.17,41.23,63.83,90.4,159.49,219.97,192.73,265.97,197.35,273.06,5.32,8.19,8.36,9.36,11.43,4.39h0Zm9.37-13.33c3.23-4.54,5.26-8.25,4.5-8.25s-4.02,3.71-7.25,8.25c-3.23,4.54-5.26,8.25-4.5,8.25s4.02-3.71,7.25-8.25Zm11.01-15.13c1.88-2.27,2.81-4.13,2.05-4.13s-2.92,1.86-4.8,4.13-2.81,4.13-2.05,4.13,2.92-1.86,4.8-4.13Zm13.76-19.26c1.88-2.27,2.81-4.13,2.05-4.13s-2.92,1.86-4.8,4.13-2.81,4.13-2.05,4.13,2.92-1.86,4.8-4.13Zm11.01-15.13c3.23-4.54,5.26-8.25,4.5-8.25s-4.02,3.71-7.25,8.25c-3.23,4.54-5.26,8.25-4.5,8.25s4.02-3.71,7.25-8.25Zm19.15-26.39c5.17-7.2,8.21-12.36,6.76-11.46-1.45.9-6.87,7.52-12.04,14.72-5.17,7.2-8.21,12.36-6.76,11.46,1.45-.9,6.87-7.52,12.04-14.72Zm13.87-19c1.88-2.27,2.81-4.13,2.05-4.13s-2.92,1.86-4.8,4.13-2.81,4.13-2.05,4.13,2.92-1.86,4.8-4.13Zm11.01-15.13c3.23-4.54,5.26-8.25,4.5-8.25s-4.02,3.71-7.25,8.25c-3.23,4.54-5.26,8.25-4.5,8.25s4.02-3.71,7.25-8.25Zm24.76-34.39c1.88-2.27,2.81-4.13,2.05-4.13s-2.92,1.86-4.8,4.13-2.81,4.13-2.05,4.13,2.92-1.86,4.8-4.13Zm11.01-15.13c3.23-4.54,5.26-8.25,4.5-8.25s-4.02,3.71-7.25,8.25c-3.23,4.54-5.26,8.25-4.5,8.25s4.02-3.71,7.25-8.25Zm11.01-15.13c1.88-2.27,2.81-4.13,2.05-4.13s-2.92,1.86-4.8,4.13-2.81,4.13-2.05,4.13,2.92-1.86,4.8-4.13Zm-125.54-33.25c7-3.91,12.73-7.73,12.73-8.49s-5.73,1.83-12.73,5.74c-7,3.91-13.65,7.11-14.77,7.11s-51.42-28.28-111.77-62.83c-121.48-69.56-122.11-69.92-122.11-68.25,0,.64,20.74,13.07,46.09,27.62,25.35,14.54,77.04,44.31,114.87,66.14,37.83,21.83,70.18,39.78,71.88,39.89,1.7.11,8.82-3,15.82-6.92Zm147.55,2.99c1.88-2.27,2.81-4.13,2.05-4.13s-2.92,1.86-4.8,4.13-2.81,4.13-2.05,4.13,2.92-1.86,4.8-4.13Zm-103.18-29.71c1.51-1.56-3.44.63-11.01,4.86-7.57,4.23-15,8.97-16.51,10.54-1.51,1.56,3.44-.63,11.01-4.86,7.57-4.23,15-8.97,16.51-10.54Zm127.94-4.68c3.23-4.54,5.26-8.25,4.5-8.25s-4.02,3.71-7.25,8.25c-3.23,4.54-5.26,8.25-4.5,8.25s4.02-3.71,7.25-8.25Zm-107.3-7.02c0-.76-3.71.55-8.25,2.89-4.54,2.35-8.25,4.89-8.25,5.64s3.71-.55,8.25-2.89c4.54-2.35,8.25-4.89,8.25-5.64Zm19.26-11.01c0-.76-3.71.55-8.25,2.89-4.54,2.35-8.25,4.89-8.25,5.64s3.71-.55,8.25-2.89c4.54-2.35,8.25-4.89,8.25-5.64Zm99.05,2.89c1.88-2.27,2.81-4.13,2.05-4.13s-2.92,1.86-4.8,4.13-2.81,4.13-2.05,4.13,2.92-1.86,4.8-4.13Zm-79.79-13.9c0-.76-3.71.55-8.25,2.89-4.54,2.35-8.25,4.89-8.25,5.64s3.71-.55,8.25-2.89c4.54-2.35,8.25-4.89,8.25-5.64Zm19.26-11.01c0-.76-3.71.55-8.25,2.89-4.54,2.35-8.25,4.89-8.25,5.64s3.71-.55,8.25-2.89c4.54-2.35,8.25-4.89,8.25-5.64Zm74.29,5.64c1.88-2.27,2.81-4.13,2.05-4.13s-2.92,1.86-4.8,4.13-2.81,4.13-2.05,4.13,2.92-1.86,4.8-4.13Zm-55.03-16.65c0-.76-3.71.55-8.25,2.89-4.54,2.35-8.25,4.89-8.25,5.64s3.71-.55,8.25-2.89c4.54-2.35,8.25-4.89,8.25-5.64Zm19.26-11.01c0-.76-3.71.55-8.25,2.89-4.54,2.35-8.25,4.89-8.25,5.64s3.71-.55,8.25-2.89c4.54-2.35,8.25-4.89,8.25-5.64Zm57.78-2.61c1.88-2.27,2.81-4.13,2.05-4.13s-2.92,1.86-4.8,4.13-2.81,4.13-2.05,4.13,2.92-1.86,4.8-4.13Zm-44.02-5.7c0-.76-2.48-.05-5.5,1.57s-5.5,3.56-5.5,4.32,2.48.05,5.5-1.57,5.5-3.56,5.5-4.32Zm52.28-5.31c1.88-2.27,2.81-4.13,2.05-4.13s-2.92,1.86-4.8,4.13-2.81,4.13-2.05,4.13,2.92-1.86,4.8-4.13Zm-27.51-8.4c0-.76-3.71.55-8.25,2.89-4.54,2.35-8.25,4.89-8.25,5.64s3.71-.55,8.25-2.89c4.54-2.35,8.25-4.89,8.25-5.64Zm13.76-8.31c0-.76-2.48-.05-5.5,1.57s-5.5,3.56-5.5,4.32,2.48.05,5.5-1.57,5.5-3.56,5.5-4.32Zm27.51-2.56c1.88-2.27,2.81-4.13,2.05-4.13s-2.92,1.86-4.8,4.13-2.81,4.13-2.05,4.13,2.92-1.86,4.8-4.13Zm16.51-22.26c0-.52-1.86-.24-4.13.63-2.27.87-4.13,2.84-4.13,4.38s1.75,1.34,4.13-.63c2.27-1.88,4.13-3.85,4.13-4.38Zm-375.57,59.11c-55.99-31.91-109.85-62.68-119.69-68.38s-28.1-16.22-40.58-23.38-22.7-14.18-22.7-15.58,30.51-50.5,67.79-109.11,93.78-147.41,125.55-197.35c87.51-137.56,89.11-140.01,92.21-141.04,3.12-1.04,6.42,3.88,74.35,110.77,25,39.35,63.62,100.01,85.82,134.82,106.9,167.58,126.93,199.78,125.99,202.58-.92,2.76-281.55,164.76-285.31,164.71-.9-.01-47.44-26.13-103.43-58.05h0Zm212.75-11.2c58.53-33.56,120.71-69.16,138.17-79.1l31.76-18.08-82.66-129.82c-45.46-71.4-83.78-130.83-85.16-132.07-3.48-3.13-1.67-.12,30.09,50.02,79.21,125.08,130.62,207.77,130.62,210.1,0,1.92-257.7,151.45-270.11,156.72-1.14.49-63.46-34.1-138.48-76.85-90.7-51.69-135.94-78.93-135.03-81.3,1.51-3.94,199.88-319.73,231.64-368.75,20.34-31.39,28.67-45.69,23.75-40.77-1.51,1.51-33.4,51.04-70.86,110.06s-94.1,148.16-125.87,198.1c-31.77,49.94-59.56,93.69-61.77,97.23-2.2,3.54-3.3,7.14-2.43,8,3.91,3.91,273.03,157.19,276.27,157.35,2,.1,51.53-27.28,110.06-60.84h0Zm-1.19-366.13c-8.42-14.44-29.39-46.09-30.54-46.09-.78,0,.81,3.4,3.54,7.57s9.82,15.3,15.76,24.76c5.93,9.46,11.34,17.2,12.02,17.2s.33-1.55-.77-3.44Zm-33.79-53.65c-3.47-6.31-12.33-17.06-9.64-11.69,3.52,7.02,9.92,16.51,11.13,16.51.64,0-.03-2.17-1.49-4.81h0Zm-19.26-30.27c-3.47-6.31-12.33-17.06-9.64-11.69,3.52,7.02,9.92,16.51,11.13,16.51.64,0-.03-2.17-1.49-4.81h0Zm-38.82-61.22c-1.62-3.03-3.56-5.5-4.32-5.5s-.05,2.48,1.57,5.5,3.56,5.5,4.32,5.5.05-2.48-1.57-5.5Zm-19.32-17.49c.03-1.3,1.86-1.67,4.05-.83,2.69,1.03,3.48.21,2.43-2.53-1.98-5.17-6.14-1.83-12.84,10.32l-5.04,9.15,5.67-6.88c3.12-3.78,5.7-7.94,5.73-9.24h0Z" style="stroke:#fff; stroke-miterlimit:10;"/><path id="c" d="m505.86,938.91c-18.15-23.19-276.23-380.96-277.85-385.18-1.23-3.2-.58-4.09,2.17-3.02,2.15.84,66.89,37.52,143.85,81.51,129.18,73.85,140.38,79.71,145.82,76.26,11.62-7.35,277.04-158.34,278.33-158.34.73,0,1.33,1.15,1.33,2.55,0,1.77-276.21,385.69-284.79,395.84-.38.45-4.37-3.89-8.86-9.63h0Zm36.99-38.65c15.08-20.81,74.85-103.45,132.83-183.66,57.97-80.2,106.77-147.61,108.43-149.79s1.78-3.3.27-2.49c-1.51.81-63.08,35.87-136.81,77.9l-134.06,76.42-133.96-76.68c-73.68-42.17-135.3-77.2-136.94-77.82s.23,3.09,4.15,8.25c6.77,8.92,74.3,102.1,205.7,283.85,32.55,45.02,60.03,81.85,61.07,81.85s14.23-17.02,29.31-37.83h0Zm-28.83-72.17l.72-105.74,41.27-23.68c22.7-13.03,70.99-40.83,107.3-61.79,106.5-61.47,112.18-64.72,113.12-64.72.49,0-14.29,20.74-32.86,46.09-18.56,25.35-76.27,104.9-128.23,176.78-51.96,71.88-96.18,132.52-98.26,134.75-3.21,3.45-3.67-11.87-3.06-101.68Zm-144.52-227.6c-78.37-44.87-142.13-82.95-141.7-84.61,1.51-5.75,283.55-447.23,285.7-447.23,2.36,0,286.01,444.55,286.01,448.26,0,2.02-274.61,160.55-283.82,163.85-2.04.73-67.82-35.39-146.2-80.26h0Zm422.27-87.61c-21.2-34.97-274.22-430.07-274.95-429.34-.57.57,37.84,62.76,85.34,138.2,150.88,239.61,184.15,292.99,183.18,293.9-3.66,3.42-270.87,154.05-272.4,153.55-5.24-1.69-269.2-153.41-269.15-154.7.03-.83,60.7-28.05,134.82-60.49l134.76-58.99v-154.7c0-85.09.75-156.66,1.67-159.06,6.79-17.71-16.44,17.09-110.35,165.26-59.02,93.12-121.67,191.79-139.24,219.27-20.18,31.58-30.81,50.65-28.89,51.82,1.67,1.02,64.7,37.07,140.06,80.11l137.02,78.25,140-79.99c89.57-51.18,139.32-81.11,138.12-83.09h0Z" style="stroke:#fff; stroke-miterlimit:10;"/><path id="d" d="m370.39,752.18c-77.46-106.94-141.49-196.14-142.29-198.23s-.69-3.8.24-3.8,65.51,36.47,143.49,81.06l141.8,81.06,141.9-81.19c78.04-44.65,142.58-80.51,143.41-79.68,1.98,1.98,2.32,1.51-150.02,211.76-72.27,99.75-132.82,181.84-134.54,182.41s-66.51-86.45-143.97-193.38h0Zm280.66-1.22c73.9-102.06,134.02-185.91,133.6-186.33-.42-.42-61.59,34.03-135.94,76.54l-135.18,77.3-135.31-77.33c-74.42-42.53-135.65-77-136.06-76.59s5.17,8.79,12.4,18.62c7.23,9.83,44.49,61.2,82.79,114.17,149.3,206.47,174.59,240.77,176.92,239.99,1.33-.44,62.88-84.31,136.78-186.38h0Zm-137.68,77.79v-104.76l129.28-74.54c71.1-41,129.84-74.54,130.54-74.54,1.03,0-254.9,353.65-258.68,357.45-.63.63-1.14-45.99-1.14-103.61h0Zm-143.76-228.39c-78.31-44.86-142.39-82.28-142.39-83.15,0-2.92,283.45-447.18,285.82-447.98,2.22-.75,284.19,439.65,285.9,446.53.63,2.54-281.89,166.87-285.93,166.32-.56-.08-65.09-36.85-143.4-81.71h0Zm284.91-4.72l139.29-79.69-4.71-7.37c-2.59-4.05-65.38-102.82-139.53-219.49-74.15-116.66-135.44-212.08-136.19-212.04-.76.04-59.57,91.74-130.69,203.76-71.12,112.02-133.84,210.79-139.38,219.48l-10.06,15.81,139.38,79.96c76.66,43.98,140.11,79.8,141,79.61.89-.19,64.3-36.21,140.91-80.04Zm-141.94-62.9c.32-74.64,1.27-137.49,2.11-139.68.84-2.18,1.19-72.29.79-155.8-.4-83.51.06-150.97,1.02-149.91,2.19,2.4,76.1,119.69,179.8,285.32,43.58,69.61,81.67,130.04,84.65,134.29,2.98,4.25,4.97,8.07,4.42,8.49-4.77,3.68-269.31,153-271.07,153-1.27,0-2.05-61.07-1.72-135.71h0Zm-34.29,116.16c-7.94-4.63-14.44-9.06-14.44-9.83,0-1.53,24.47,12.08,28.75,15.99,4.66,4.26.43,2.43-14.31-6.16Zm-38.52-22.01c-7.94-4.63-14.44-9.06-14.44-9.83,0-1.53,24.47,12.08,28.75,15.99,4.66,4.26.43,2.43-14.31-6.16Zm-39.92-22.75c-13.22-8.13-16.91-11.96-6.17-6.41,8.62,4.46,20.26,12.76,17.88,12.77-.76,0-6.03-2.86-11.72-6.36Zm-41.27-23.44c-16.75-9.83-20.47-13.66-6.16-6.35,10.63,5.43,23.46,14.19,20.64,14.08-.76-.03-7.27-3.51-14.47-7.74Zm-31.09-18.33c-5.13-4.11-5.09-4.16.85-1.28,3.4,1.65,6.19,3.58,6.19,4.28,0,2.11-1.43,1.5-7.04-3h0Zm-15.66-8.3c-10.29-5.58-9.66-7.9.69-2.55,4.54,2.35,8.25,4.86,8.25,5.57,0,1.77-.3,1.67-8.94-3.02Zm-31.64-17.97c-7.94-4.63-14.44-8.96-14.44-9.63,0-1.67,19.41,8.54,26.14,13.74,8.64,6.68,4.05,5.06-11.69-4.11Zm-33.25-18.63c-3.02-1.91-2.98-2.59.23-3.82,2.22-.85,3.9.16,3.9,2.37s-.1,3.85-.23,3.82c-.13-.02-1.88-1.09-3.9-2.37Z" style="stroke:#fff; stroke-miterlimit:10;"/><path id="e" d="m374.18,757.19c-75.3-104.04-139.4-192.55-142.43-196.69s-4.81-8.24-3.95-9.09,65.53,35,143.71,79.69l142.15,81.26,141.82-81.1c78-44.61,142.46-81.1,143.23-81.1,3.5,0-4.39,12.14-37.3,57.38-19.42,26.7-66.65,91.88-104.96,144.85-122.6,169.5-140.65,193.97-143.02,193.97-1.28,0-63.94-85.12-139.25-189.16h0Zm263.07,13.07c62.98-87.01,122.92-169.85,133.21-184.08,17.37-24.03,18.04-25.47,9.44-20.25-5.1,3.09-67.15,38.66-137.89,79.04l-128.63,73.42-135.23-77.29c-74.38-42.51-135.56-76.96-135.96-76.56-.68.69,33.41,48.03,204.26,283.66,66.68,91.97,67.54,93,71.89,86.67,2.42-3.52,55.94-77.6,118.91-164.61h0Zm-123.39,58.5c.57-66.76,1.9-105.59,3.65-106.27,1.82-.7,2.29,33.09,1.38,99.7-.76,55.42-1.27,101.08-1.15,101.45.13.38,4.94-6.16,10.71-14.52,5.76-8.37,11.74-16,13.3-16.95,2.56-1.58-20.4,32.51-26.29,39.04-1.48,1.64-2.12-39.82-1.59-102.45h0Zm43.54,40.55c3.23-4.54,6.5-8.25,7.25-8.25s-1.27,3.71-4.5,8.25c-3.23,4.54-6.5,8.25-7.25,8.25s1.27-3.71,4.5-8.25Zm13.23-17.88c1.59-3.03,6.81-9.84,11.59-15.13l8.69-9.63-8.99,12.38c-11.01,15.16-15.14,19.69-11.29,12.38h0Zm30.79-42.65c3.23-4.54,6.5-8.25,7.25-8.25s-1.27,3.71-4.5,8.25c-3.23,4.54-6.5,8.25-7.25,8.25s1.27-3.71,4.5-8.25Zm21.95-30.18c3.2-4.49,7.22-9.04,8.94-10.1,1.72-1.06-.34,2.62-4.58,8.17-9.2,12.06-12.66,13.59-4.36,1.93h0Zm27.56-37.91c3.6-4.92,6.98-8.94,7.5-8.94,2.09,0-4.73,10.32-9.24,13.98-2.97,2.41-2.31.49,1.74-5.04Zm-126.56-21.13c0-.76,2.48-2.7,5.5-4.32s5.5-2.33,5.5-1.57-2.48,2.7-5.5,4.32-5.5,2.33-5.5,1.57Zm148.52-9.74c3.2-4.49,7.22-9.04,8.94-10.1,1.72-1.06-.34,2.62-4.58,8.17-9.2,12.06-12.66,13.59-4.36,1.93h0Zm-114.12-10.27c1.51-1.56,8.94-6.3,16.51-10.54s12.52-6.42,11.01-4.86-8.94,6.3-16.51,10.54-12.52,6.42-11.01,4.86Zm127.69-8.61c1.48-2.77,4.86-6.8,7.5-8.94,2.97-2.41,2.31-.49-1.74,5.04-7.23,9.87-9.94,11.71-5.76,3.9h0Zm-90.55-12.65c0-.76,2.48-2.7,5.5-4.32s5.5-2.33,5.5-1.57-2.48,2.7-5.5,4.32-5.5,2.33-5.5,1.57Zm104.55-5.7c1.88-2.27,4.04-4.13,4.8-4.13s-.17,1.86-2.05,4.13-4.04,4.13-4.8,4.13.17-1.86,2.05-4.13Zm-90.8-2.56c0-.76,2.48-2.7,5.5-4.32s5.5-2.33,5.5-1.57-2.48,2.7-5.5,4.32-5.5,2.33-5.5,1.57Zm107.25-20.75c3.2-4.49,7.22-9.04,8.94-10.1,1.72-1.06-.34,2.62-4.58,8.17-9.2,12.06-12.66,13.59-4.36,1.93h0Zm-74.23,1.43c0-.76,3.71-3.3,8.25-5.64,4.54-2.35,8.25-3.65,8.25-2.89s-3.71,3.3-8.25,5.64c-4.54,2.35-8.25,3.65-8.25,2.89Zm38.52-21.96c0-.76,2.48-2.7,5.5-4.32s5.5-2.33,5.5-1.57-2.48,2.7-5.5,4.32-5.5,2.33-5.5,1.57Zm57.72-9.74c3.2-4.49,7.22-9.04,8.94-10.1,1.72-1.06-.34,2.62-4.58,8.17-9.2,12.06-12.66,13.59-4.36,1.93h0Zm-43.96,1.49c0-.76,2.48-2.7,5.5-4.32s5.5-2.33,5.5-1.57-2.48,2.7-5.5,4.32-5.5,2.33-5.5,1.57Zm24.76-13.76c0-.76,2.48-2.7,5.5-4.32s5.5-2.33,5.5-1.57-2.48,2.7-5.5,4.32-5.5,2.33-5.5,1.57Zm13.76-8.25c0-.76,2.48-2.7,5.5-4.32s5.5-2.33,5.5-1.57-2.48,2.7-5.5,4.32-5.5,2.33-5.5,1.57Zm25.55-5.99c1.19-1.79,1.81-4.32,1.38-5.61s.09-2.35,1.16-2.35,3.82-2.48,6.1-5.5,4.16-4.26,4.17-2.75c0,1.51-3.36,6.51-7.48,11.11s-6.52,6.9-5.33,5.1h0Zm-389.42,7.79c-78.31-44.87-142.39-82.27-142.39-83.11,0-2.76,283.53-447.14,285.79-447.93,2.02-.7,281.41,435.83,285.11,445.47,1.22,3.18-32.5,23.68-141.2,85.83-78.54,44.91-143.29,81.58-143.87,81.49s-65.13-36.88-143.45-81.76h0Zm284.92-4.55c93.69-53.57,138.58-80.67,137.28-82.89-11.31-19.35-277.42-435.86-278.44-435.8-1.03.05-225.66,352.08-272.77,427.47l-7.26,11.62,139.33,79.97c76.63,43.98,140.08,79.8,141,79.6.92-.2,64.31-36.19,140.87-79.97Zm-141.16-63.02c0-74.65.69-136.42,1.53-137.26s8.58,1.81,17.2,5.9,69.18,30.86,134.59,59.51c89.68,39.28,118.09,52.85,115.56,55.17-3.59,3.28-265.4,152.42-267.58,152.42-.71,0-1.29-61.08-1.29-135.74h0Zm252.56-43.79c-6.59-10.31-8.36-14.77-3.56-8.94,5.37,6.52,10.3,15.13,8.67,15.13-.64,0-2.94-2.79-5.11-6.19Zm-41.31-66.03c-2.2-3.4-6.2-9.9-8.9-14.44l-4.9-8.25,5.54,6.7c6.54,7.91,15.21,22.19,13.47,22.19-.67,0-3.01-2.79-5.21-6.19Zm-27.48-44.02c-6.59-10.31-8.36-14.77-3.56-8.94,5.37,6.52,10.3,15.13,8.67,15.13-.64,0-2.94-2.79-5.11-6.19Zm-19.26-30.27c-6.59-10.31-8.36-14.77-3.56-8.94,5.37,6.52,10.3,15.13,8.67,15.13-.64,0-2.94-2.79-5.11-6.19Zm-27.51-44.02c-6.59-10.31-8.36-14.77-3.56-8.94,5.37,6.52,10.3,15.13,8.67,15.13-.64,0-2.94-2.79-5.11-6.19Zm-20.58-33.02c-6.34-8.5-12.18-19.09-9.68-17.54,1.52.94,5.32,6.04,8.45,11.34,5.58,9.47,6.28,12.97,1.23,6.2h0Zm-20.73-33.02c-2.2-3.4-6.2-9.9-8.9-14.44l-4.9-8.25,5.54,6.7c6.54,7.91,15.21,22.19,13.47,22.19-.67,0-3.01-2.79-5.21-6.19Zm-51.03-81.17c-7.12-10.29-9.44-14.44-8.04-14.44.64,0,4.45,4.95,8.46,11.01,8.14,12.3,7.79,15.28-.41,3.44Zm-33.66-52.96c-1.62-3.03-2.33-5.5-1.57-5.5s2.7,2.48,4.32,5.5,2.33,5.5,1.57,5.5-2.7-2.48-4.32-5.5Zm-6.99-11.19c-1-1.61-1.22-3.52-.5-4.25s2.04.6,2.94,2.93c1.86,4.85.27,5.7-2.44,1.31h0Z" style="fill:#898989;"/><path id="f" d="m489.85,916.87c-11.85-16.32-47.1-64.96-78.32-108.09-31.22-43.13-85-117.4-119.49-165.04-59.95-82.8-67.32-93.59-63.88-93.59.83,0,65.35,36.53,143.38,81.18l141.86,81.18,142.01-81.18c78.1-44.65,142.62-81.18,143.36-81.18,3.53,0-5.9,13.95-58.2,86.05-30.98,42.71-93.93,129.58-139.87,193.05-45.95,63.46-84.83,115.82-86.41,116.35-1.58.53-12.57-12.4-24.42-28.72h0Zm296.9-352.85c1.87-2.39-.76-1.68-6.49,1.76-5.3,3.17-67.53,38.81-138.29,79.21l-128.66,73.44-135.12-77.39c-74.32-42.56-135.49-77.01-135.95-76.55s56.12,79.45,125.74,175.53c69.62,96.08,130.86,180.64,136.09,187.91l9.52,13.22,135.02-186.56c74.26-102.61,136.43-188.36,138.15-190.57h0Zm-417.19,36.22c-87.94-50.4-141.95-82.91-141.16-84.97,2.5-6.53,282.5-445.26,284.65-446.02,1.98-.7,281.44,436,285.09,445.49,1.16,3.03-34.86,24.85-141.64,85.77-78.76,44.93-143.49,81.62-143.85,81.53-.36-.09-64.75-36.9-143.09-81.8Zm285.02-4.45c95.65-54.65,138.6-80.6,137.26-82.92-10.2-17.64-277.43-435.92-278.47-435.87-.76.04-62.04,95.53-136.19,212.21-74.15,116.68-136.95,215.45-139.56,219.49l-4.74,7.35,139.56,80.06c76.76,44.04,140.32,79.88,141.25,79.65.93-.23,64.33-36.22,140.9-79.97h0Zm-141.21-63.62c0-128.95.27-136.66,4.81-135.29,10.48,3.16,264.82,116.11,264.82,117.61,0,1.34-260.13,150.75-267.27,153.51-1.3.51-2.37-60.52-2.37-135.83Z" style="stroke:#fff; stroke-miterlimit:10;"/><path id="g" d="m375.57,758.72c-152.98-211.11-149.23-205.85-147.74-207.34.6-.6,65.12,35.47,143.38,80.16l142.29,81.25,142.18-81.23c78.2-44.68,142.73-80.68,143.4-80.01s.02,2.8-1.44,4.72c-1.46,1.93-65.54,90.48-142.39,196.79-76.85,106.31-140.63,193.29-141.72,193.29s-63.18-84.43-137.95-187.63Zm265.74,6.91c155.79-215.45,148.94-205.86,145.73-203.96-1.46.86-63.6,36.38-138.09,78.92l-135.44,77.36-131.45-75.18c-72.3-41.35-134.46-76.79-138.13-78.75l-6.68-3.57,5.85,7.93c3.22,4.36,65.03,89.88,137.37,190.05,72.34,100.17,132.15,182.15,132.9,182.18.76.04,58.33-78.7,127.94-174.96h0Zm-269.64-164.67c-77.18-44.4-141.48-81.19-142.9-81.76-2.43-.97,281.58-450.43,284.67-450.51,1.48-.04,282.64,440.69,284.89,446.58.74,1.93-56.01,35.96-140.76,84.41-78.1,44.64-142.8,81.36-143.79,81.59s-64.93-35.9-142.11-80.31Zm280.17-3.06c75.92-43.35,138.97-79.62,140.1-80.61,1.99-1.74-274.03-438.3-277.99-439.69-1.81-.63-277.75,431.08-279.2,436.82-.48,1.89,272.73,161.13,278.15,162.13.5.09,63.02-35.3,138.95-78.65h0Z" style="fill:#5f5f5f;"/><path id="h" d="m509,940.22c-4.26-4.99-4.34-5.45-.44-2.43,4.05,3.14,5.58,3.13,9.63-.05,4.45-3.49,4.51-3.36.78,1.73-2.22,3.03-4.19,5.82-4.37,6.21s-2.7-2.07-5.59-5.46Zm-12.14-15.88c-3.23-4.54-5.26-8.25-4.5-8.25s4.02,3.71,7.25,8.25c3.23,4.54,5.26,8.25,4.5,8.25s-4.02-3.71-7.25-8.25Zm27.51,4.13c1.88-2.27,4.04-4.13,4.8-4.13s-.17,1.86-2.05,4.13-4.04,4.13-4.8,4.13.17-1.86,2.05-4.13Zm11.01-15.13c3.23-4.54,6.5-8.25,7.25-8.25s-1.27,3.71-4.5,8.25c-3.23,4.54-6.5,8.25-7.25,8.25s1.27-3.71,4.5-8.25Zm-52.28-8.25c-3.23-4.54-5.26-8.25-4.5-8.25s4.02,3.71,7.25,8.25c3.23,4.54,5.26,8.25,4.5,8.25s-4.02-3.71-7.25-8.25Zm63.28-6.88c1.88-2.27,4.04-4.13,4.8-4.13s-.17,1.86-2.05,4.13-4.04,4.13-4.8,4.13.17-1.86,2.05-4.13Zm-74.64-8.94c-3.42-4.36-3.33-4.46,1.04-1.04,2.65,2.08,4.81,4.24,4.81,4.81,0,2.26-2.26.81-5.85-3.78Zm-10.65-14.44c-3.23-4.54-5.26-8.25-4.5-8.25s4.02,3.71,7.25,8.25c3.23,4.54,5.26,8.25,4.5,8.25s-4.02-3.71-7.25-8.25Zm99.05,4.13c1.88-2.27,4.04-4.13,4.8-4.13s-.17,1.86-2.05,4.13-4.04,4.13-4.8,4.13.17-1.86,2.05-4.13Zm8.25-11.01c1.88-2.27,4.04-4.13,4.8-4.13s-.17,1.86-2.05,4.13-4.04,4.13-4.8,4.13.17-1.86,2.05-4.13Zm-118.66-8.94c-3.42-4.36-3.33-4.46,1.04-1.04,2.65,2.08,4.81,4.24,4.81,4.81,0,2.26-2.26.81-5.85-3.78Zm-10.65-14.44c-3.23-4.54-5.26-8.25-4.5-8.25s4.02,3.71,7.25,8.25c3.23,4.54,5.26,8.25,4.5,8.25s-4.02-3.71-7.25-8.25Zm143.07,4.13c1.88-2.27,4.04-4.13,4.8-4.13s-.17,1.86-2.05,4.13-4.04,4.13-4.8,4.13.17-1.86,2.05-4.13Zm11.01-15.13c3.23-4.54,6.5-8.25,7.25-8.25s-1.27,3.71-4.5,8.25c-3.23,4.54-6.5,8.25-7.25,8.25s1.27-3.71,4.5-8.25Zm-167.84-8.25c-3.23-4.54-5.26-8.25-4.5-8.25s4.02,3.71,7.25,8.25c3.23,4.54,5.26,8.25,4.5,8.25s-4.02-3.71-7.25-8.25Zm178.84-6.88c1.88-2.27,4.04-4.13,4.8-4.13s-.17,1.86-2.05,4.13-4.04,4.13-4.8,4.13.17-1.86,2.05-4.13Zm-190.2-8.94c-3.42-4.36-3.33-4.46,1.04-1.04,2.65,2.08,4.81,4.24,4.81,4.81,0,2.26-2.26.81-5.85-3.78Zm-10.65-14.44c-3.23-4.54-5.26-8.25-4.5-8.25s4.02,3.71,7.25,8.25c3.23,4.54,5.26,8.25,4.5,8.25s-4.02-3.71-7.25-8.25Zm214.61,4.13c1.88-2.27,4.04-4.13,4.8-4.13s-.17,1.86-2.05,4.13-4.04,4.13-4.8,4.13.17-1.86,2.05-4.13Zm11.01-15.13c3.23-4.54,6.5-8.25,7.25-8.25s-1.27,3.71-4.5,8.25c-3.23,4.54-6.5,8.25-7.25,8.25s1.27-3.71,4.5-8.25Zm-236.97-4.81c-3.42-4.36-3.33-4.46,1.04-1.04,2.65,2.08,4.81,4.24,4.81,4.81,0,2.26-2.26.81-5.85-3.78Zm-10.65-14.44c-3.23-4.54-5.26-8.25-4.5-8.25s4.02,3.71,7.25,8.25c3.23,4.54,5.26,8.25,4.5,8.25s-4.02-3.71-7.25-8.25Zm258.63,4.13c1.88-2.27,4.04-4.13,4.8-4.13s-.17,1.86-2.05,4.13-4.04,4.13-4.8,4.13.17-1.86,2.05-4.13Zm11.01-15.13c3.23-4.54,6.5-8.25,7.25-8.25s-1.27,3.71-4.5,8.25c-3.23,4.54-6.5,8.25-7.25,8.25s1.27-3.71,4.5-8.25Zm-280.99-4.81c-3.42-4.36-3.33-4.46,1.04-1.04,2.65,2.08,4.81,4.24,4.81,4.81,0,2.26-2.26.81-5.85-3.78Zm292-10.32c1.88-2.27,4.04-4.13,4.8-4.13s-.17,1.86-2.05,4.13-4.04,4.13-4.8,4.13.17-1.86,2.05-4.13Zm-305.76-8.94c-3.42-4.36-3.33-4.46,1.04-1.04,2.65,2.08,4.81,4.24,4.81,4.81,0,2.26-2.26.81-5.85-3.78Zm-10.65-14.44c-3.23-4.54-5.26-8.25-4.5-8.25s4.02,3.71,7.25,8.25c3.23,4.54,5.26,8.25,4.5,8.25s-4.02-3.71-7.25-8.25Zm330.17,4.13c1.88-2.27,4.04-4.13,4.8-4.13s-.17,1.86-2.05,4.13-4.04,4.13-4.8,4.13.17-1.86,2.05-4.13Zm-168.79-6.19c-.7-1.13,2.2-2.06,6.45-2.06s7.15.93,6.45,2.06c-.7,1.13-3.61,2.06-6.45,2.06s-5.75-.93-6.45-2.06Zm182.66-12.81c5.17-7.2,10.59-13.82,12.04-14.72s-1.59,4.26-6.76,11.46-10.59,13.82-12.04,14.72,1.59-4.26,6.76-11.46Zm-199.75,2.34c-5.13-4.11-5.09-4.16.85-1.28,3.4,1.65,6.19,3.58,6.19,4.28,0,2.11-1.43,1.5-7.04-3h0Zm40.06,3.1c0-.76,2.48-2.7,5.5-4.32s5.5-2.33,5.5-1.57-2.48,2.7-5.5,4.32-5.5,2.33-5.5,1.57Zm-194.56-5.01c-11.93-15.59-18.22-24.9-15.87-23.47,3.25,1.96,21.52,26.91,19.71,26.91-.67,0-2.39-1.55-3.84-3.44h0Zm135.24-9.09c-5.13-4.11-5.09-4.16.85-1.28,3.4,1.65,6.19,3.58,6.19,4.28,0,2.11-1.43,1.5-7.04-3h0Zm78.58,3.1c0-.76,2.48-2.7,5.5-4.32s5.5-2.33,5.5-1.57-2.48,2.7-5.5,4.32-5.5,2.33-5.5,1.57Zm-97.84-14.1c-5.13-4.11-5.09-4.16.85-1.28,3.4,1.65,6.19,3.58,6.19,4.28,0,2.11-1.43,1.5-7.04-3h0Zm117.1,3.1c0-.76,2.48-2.7,5.5-4.32s5.5-2.33,5.5-1.57-2.48,2.7-5.5,4.32-5.5,2.33-5.5,1.57Zm140.32-9.82c3.23-4.54,6.5-8.25,7.25-8.25s-1.27,3.71-4.5,8.25c-3.23,4.54-6.5,8.25-7.25,8.25s1.27-3.71,4.5-8.25Zm-273.08-1.57c-10.29-5.58-9.66-7.9.69-2.55,4.54,2.35,8.25,4.86,8.25,5.57,0,1.77-.3,1.67-8.94-3.02Zm-125.88-6.68c-3.23-4.54-5.26-8.25-4.5-8.25s4.02,3.71,7.25,8.25c3.23,4.54,5.26,8.25,4.5,8.25s-4.02-3.71-7.25-8.25Zm185.56,3.98c-5.13-4.11-5.09-4.16.85-1.28,3.4,1.65,6.19,3.58,6.19,4.28,0,2.11-1.43,1.5-7.04-3h0Zm29.05,3.1c0-.76,2.48-2.7,5.5-4.32s5.5-2.33,5.5-1.57-2.48,2.7-5.5,4.32-5.5,2.33-5.5,1.57Zm63.28,0c0-.76,2.48-2.7,5.5-4.32s5.5-2.33,5.5-1.57-2.48,2.7-5.5,4.32-5.5,2.33-5.5,1.57Zm-174.88-14.1c-5.13-4.11-5.09-4.16.85-1.28,3.4,1.65,6.19,3.58,6.19,4.28,0,2.11-1.43,1.5-7.04-3h0Zm63.28,0c-5.13-4.11-5.09-4.16.85-1.28,3.4,1.65,6.19,3.58,6.19,4.28,0,2.11-1.43,1.5-7.04-3h0Zm130.85,3.1c0-.76,2.48-2.7,5.5-4.32s5.5-2.33,5.5-1.57-2.48,2.7-5.5,4.32-5.5,2.33-5.5,1.57Zm112.81-2.95c1.88-2.27,4.04-4.13,4.8-4.13s-.17,1.86-2.05,4.13-4.04,4.13-4.8,4.13.17-1.86,2.05-4.13Zm-421.32-8.94c-3.42-4.36-3.33-4.46,1.04-1.04,2.65,2.08,4.81,4.24,4.81,4.81,0,2.26-2.26.81-5.85-3.78Zm98.71.49c-10.29-5.58-9.66-7.9.69-2.55,4.54,2.35,8.25,4.86,8.25,5.57,0,1.77-.3,1.67-8.94-3.02Zm59.68-2.71c-5.13-4.11-5.09-4.16.85-1.28,3.4,1.65,6.19,3.58,6.19,4.28,0,2.11-1.43,1.5-7.04-3h0Zm106.09,3.1c0-.76,2.48-2.7,5.5-4.32s5.5-2.33,5.5-1.57-2.48,2.7-5.5,4.32-5.5,2.33-5.5,1.57Zm63.28,0c0-.76,2.48-2.7,5.5-4.32s5.5-2.33,5.5-1.57-2.48,2.7-5.5,4.32-5.5,2.33-5.5,1.57Zm-338.42-15.33c-3.23-4.54-5.26-8.25-4.5-8.25s4.02,3.71,7.25,8.25c3.23,4.54,5.26,8.25,4.5,8.25s-4.02-3.71-7.25-8.25Zm445.73,4.13c1.88-2.27,4.04-4.13,4.8-4.13s-.17,1.86-2.05,4.13-4.04,4.13-4.8,4.13.17-1.86,2.05-4.13Zm-359.22-2.9c-5.13-4.11-5.09-4.16.85-1.28,3.4,1.65,6.19,3.58,6.19,4.28,0,2.11-1.43,1.5-7.04-3h0Zm63.28,0c-5.13-4.11-5.09-4.16.85-1.28,3.4,1.65,6.19,3.58,6.19,4.28,0,2.11-1.43,1.5-7.04-3h0Zm144.61,3.1c0-.76,2.48-2.7,5.5-4.32s5.5-2.33,5.5-1.57-2.48,2.7-5.5,4.32-5.5,2.33-5.5,1.57Zm63.28,0c0-.76,2.48-2.7,5.5-4.32s5.5-2.33,5.5-1.57-2.48,2.7-5.5,4.32-5.5,2.33-5.5,1.57Zm-286.83-11.4c-10.29-5.58-9.66-7.9.69-2.55,4.54,2.35,8.25,4.86,8.25,5.57,0,1.77-.3,1.67-8.94-3.02Zm385.88-3.93c3.23-4.54,6.5-8.25,7.25-8.25s-1.27,3.71-4.5,8.25c-3.23,4.54-6.5,8.25-7.25,8.25s1.27-3.71,4.5-8.25Zm-326.2,1.22c-5.13-4.11-5.09-4.16.85-1.28,3.4,1.65,6.19,3.58,6.19,4.28,0,2.11-1.43,1.5-7.04-3h0Zm183.13,3.1c0-.76,2.48-2.7,5.5-4.32s5.5-2.33,5.5-1.57-2.48,2.7-5.5,4.32-5.5,2.33-5.5,1.57Zm63.28,0c0-.76,2.48-2.7,5.5-4.32s5.5-2.33,5.5-1.57-2.48,2.7-5.5,4.32-5.5,2.33-5.5,1.57Zm-388.3-9.14c-3.42-4.36-3.33-4.46,1.04-1.04,2.65,2.08,4.81,4.24,4.81,4.81,0,2.26-2.26.81-5.85-3.78Zm59.34-4.97c-5.13-4.11-5.09-4.16.85-1.28,3.4,1.65,6.19,3.58,6.19,4.28,0,2.11-1.43,1.5-7.04-3h0Zm63.28,0c-5.13-4.11-5.09-4.16.85-1.28,3.4,1.65,6.19,3.58,6.19,4.28,0,2.11-1.43,1.5-7.04-3h0Zm221.65,3.1c0-.76,2.48-2.7,5.5-4.32s5.5-2.33,5.5-1.57-2.48,2.7-5.5,4.32-5.5,2.33-5.5,1.57Zm63.28,0c0-.76,2.48-2.7,5.5-4.32s5.5-2.33,5.5-1.57-2.48,2.7-5.5,4.32-5.5,2.33-5.5,1.57Zm-418.21-12.57c-3.23-4.54-5.26-8.25-4.5-8.25s4.02,3.71,7.25,8.25c3.23,4.54,5.26,8.25,4.5,8.25s-4.02-3.71-7.25-8.25Zm489.75,4.13c1.88-2.27,4.04-4.13,4.8-4.13s-.17,1.86-2.05,4.13-4.04,4.13-4.8,4.13.17-1.86,2.05-4.13Zm-433.51-2.9c-5.13-4.11-5.09-4.16.85-1.28,3.4,1.65,6.19,3.58,6.19,4.28,0,2.11-1.43,1.5-7.04-3h0Zm57.78-2.75c-5.13-4.11-5.09-4.16.85-1.28,3.4,1.65,6.19,3.58,6.19,4.28,0,2.11-1.43,1.5-7.04-3h0Zm260.17,3.1c0-.76,2.48-2.7,5.5-4.32s5.5-2.33,5.5-1.57-2.48,2.7-5.5,4.32-5.5,2.33-5.5,1.57Zm63.28,0c0-.76,2.48-2.7,5.5-4.32s5.5-2.33,5.5-1.57-2.48,2.7-5.5,4.32-5.5,2.33-5.5,1.57Zm63.28-12.57c3.23-4.54,6.5-8.25,7.25-8.25s-1.27,3.71-4.5,8.25c-3.23,4.54-6.5,8.25-7.25,8.25s1.27-3.71,4.5-8.25Zm-469.28-1.53c-5.13-4.11-5.09-4.16.85-1.28,3.4,1.65,6.19,3.58,6.19,4.28,0,2.11-1.43,1.5-7.04-3h0Zm63.28,0c-5.13-4.11-5.09-4.16.85-1.28,3.4,1.65,6.19,3.58,6.19,4.28,0,2.11-1.43,1.5-7.04-3h0Zm361.97,3.1c0-.76,2.48-2.7,5.5-4.32s5.5-2.33,5.5-1.57-2.48,2.7-5.5,4.32-5.5,2.33-5.5,1.57Zm-470.49-9.82c-3.23-4.54-5.26-8.25-4.5-8.25s4.02,3.71,7.25,8.25c3.23,4.54,5.26,8.25,4.5,8.25s-4.02-3.71-7.25-8.25Zm29.58-1.57c-10.29-5.58-9.66-7.9.69-2.55,4.54,2.35,8.25,4.86,8.25,5.57,0,1.77-.3,1.67-8.94-3.02Zm59.68-2.71c-5.13-4.11-5.09-4.16.85-1.28,3.4,1.65,6.19,3.58,6.19,4.28,0,2.11-1.43,1.5-7.04-3h0Zm337.21,3.1c0-.76,2.48-2.7,5.5-4.32s5.5-2.33,5.5-1.57-2.48,2.7-5.5,4.32-5.5,2.33-5.5,1.57Zm63.28,0c0-.76,2.48-2.7,5.5-4.32s5.5-2.33,5.5-1.57-2.48,2.7-5.5,4.32-5.5,2.33-5.5,1.57Zm35.77-5.7c1.88-2.27,4.04-4.13,4.8-4.13s-.17,1.86-2.05,4.13-4.04,4.13-4.8,4.13.17-1.86,2.05-4.13Zm-536.88-8.94c-3.42-4.36-3.33-4.46,1.04-1.04,2.65,2.08,4.81,4.24,4.81,4.81,0,2.26-2.26.81-5.85-3.78Zm18.07.54c-5.13-4.11-5.09-4.16.85-1.28,3.4,1.65,6.19,3.58,6.19,4.28,0,2.11-1.43,1.5-7.04-3h0Zm63.28,0c-5.13-4.11-5.09-4.16.85-1.28,3.4,1.65,6.19,3.58,6.19,4.28,0,2.11-1.43,1.5-7.04-3h0Zm375.73,3.1c0-.76,2.48-2.7,5.5-4.32s5.5-2.33,5.5-1.57-2.48,2.7-5.5,4.32-5.5,2.33-5.5,1.57Zm63.28,0c0-.76,2.48-2.7,5.5-4.32s5.5-2.33,5.5-1.57-2.48,2.7-5.5,4.32-5.5,2.33-5.5,1.57Zm-516.05-11.35c-5.13-4.11-5.09-4.16.85-1.28,3.4,1.65,6.19,3.58,6.19,4.28,0,2.11-1.43,1.5-7.04-3h0Zm-12.19-3.91c-2.28-4.27-2.11-5.13.82-4.01,2.05.79,3.73,3.24,3.73,5.44,0,5.39-1.08,5.05-4.55-1.43h0Zm69.97,1.16c-5.13-4.11-5.09-4.16.85-1.28,3.4,1.65,6.19,3.58,6.19,4.28,0,2.11-1.43,1.5-7.04-3h0Zm414.25,3.1c0-.76,2.48-2.7,5.5-4.32s5.5-2.33,5.5-1.57-2.48,2.7-5.5,4.32-5.5,2.33-5.5,1.57Zm73.12-3.99c-.85-1.38.3-3.22,2.56-4.09s4.11-.45,4.11.92c0,3.73-4.89,6.05-6.67,3.16Zm-506.63-10.11c-5.13-4.11-5.09-4.16.85-1.28,3.4,1.65,6.19,3.58,6.19,4.28,0,2.11-1.43,1.5-7.04-3h0Zm452.77,3.1c0-.76,2.48-2.7,5.5-4.32s5.5-2.33,5.5-1.57-2.48,2.7-5.5,4.32-5.5,2.33-5.5,1.57Zm-472.03-14.1c-5.13-4.11-5.09-4.16.85-1.28,3.4,1.65,6.19,3.58,6.19,4.28,0,2.11-1.43,1.5-7.04-3h0Zm491.29,3.04c0-.76,3.71-3.3,8.25-5.64,4.54-2.35,8.25-3.65,8.25-2.89s-3.71,3.3-8.25,5.64c-4.54,2.35-8.25,3.65-8.25,2.89Zm-510.55-14.05c-5.13-4.11-5.09-4.16.85-1.28,3.4,1.65,6.19,3.58,6.19,4.28,0,2.11-1.43,1.5-7.04-3h0Zm529.81,3.04c0-.76,3.71-3.3,8.25-5.64,4.54-2.35,8.25-3.65,8.25-2.89s-3.71,3.3-8.25,5.64c-4.54,2.35-8.25,3.65-8.25,2.89Zm-544.78-13.74c0-2.18,1.12-4.66,2.49-5.51s1.85.94,1.05,3.96c-1.68,6.42-3.55,7.24-3.55,1.54Zm563.3-1.32c-1.2-4.58-.84-5.65,1.2-3.61,1.6,1.6,2.37,4.53,1.7,6.52-.69,2.06-1.93.81-2.91-2.91Zm-7.51-13.98c-1.62-3.03-2.33-5.5-1.57-5.5s2.7,2.48,4.32,5.5,2.33,5.5,1.57,5.5-2.7-2.48-4.32-5.5Zm-542.38-6.88c1.49-3.03,4.72-7.98,7.18-11.01q4.48-5.5,1.78,0c-1.49,3.03-4.72,7.98-7.18,11.01q-4.48,5.5-1.78,0Zm523.12-23.39c-1.62-3.03-2.33-5.5-1.57-5.5s2.7,2.48,4.32,5.5,2.33,5.5,1.57,5.5-2.7-2.48-4.32-5.5Zm-503.51-8.25c1.62-3.03,3.56-5.5,4.32-5.5s.05,2.48-1.57,5.5-3.56,5.5-4.32,5.5-.05-2.48,1.57-5.5Zm484.25-22.01c-1.62-3.03-2.33-5.5-1.57-5.5s2.7,2.48,4.32,5.5,2.33,5.5,1.57,5.5-2.7-2.48-4.32-5.5Zm-464.99-8.25c1.62-3.03,3.56-5.5,4.32-5.5s.05,2.48-1.57,5.5-3.56,5.5-4.32,5.5-.05-2.48,1.57-5.5Zm450.62-14.44c-2.2-3.4-6.2-9.9-8.9-14.44l-4.9-8.25,5.54,6.7c6.54,7.91,15.21,22.19,13.47,22.19-.67,0-3.01-2.79-5.21-6.19Zm-431.72-14.44c1.49-3.03,4.72-7.98,7.18-11.01q4.48-5.5,1.78,0c-1.49,3.03-4.72,7.98-7.18,11.01q-4.48,5.5-1.78,0Zm407.56-23.39c-1.62-3.03-2.33-5.5-1.57-5.5s2.7,2.48,4.32,5.5,2.33,5.5,1.57,5.5-2.7-2.48-4.32-5.5Zm-387.95-8.25c1.62-3.03,3.56-5.5,4.32-5.5s.05,2.48-1.57,5.5-3.56,5.5-4.32,5.5-.05-2.48,1.57-5.5Zm373.62-14.44c-6.59-10.31-8.36-14.77-3.56-8.94,5.37,6.52,10.3,15.13,8.67,15.13-.64,0-2.94-2.79-5.11-6.19Zm-354.71-14.44c1.49-3.03,4.72-7.98,7.18-11.01q4.48-5.5,1.78,0c-1.49,3.03-4.72,7.98-7.18,11.01q-4.48,5.5-1.78,0Zm330.52-23.39c-1.62-3.03-2.33-5.5-1.57-5.5s2.7,2.48,4.32,5.5,2.33,5.5,1.57,5.5-2.7-2.48-4.32-5.5Zm-310.91-8.25c1.62-3.03,3.56-5.5,4.32-5.5s.05,2.48-1.57,5.5-3.56,5.5-4.32,5.5-.05-2.48,1.57-5.5Zm291.65-22.01c-1.62-3.03-2.33-5.5-1.57-5.5s2.7,2.48,4.32,5.5,2.33,5.5,1.57,5.5-2.7-2.48-4.32-5.5Zm-272.39-8.25c1.62-3.03,3.56-5.5,4.32-5.5s.05,2.48-1.57,5.5-3.56,5.5-4.32,5.5-.05-2.48,1.57-5.5Zm258.06-14.44c-6.59-10.31-8.36-14.77-3.56-8.94,5.37,6.52,10.3,15.13,8.67,15.13-.64,0-2.94-2.79-5.11-6.19Zm-238.8-15.82c1.62-3.03,3.56-5.5,4.32-5.5s.05,2.48-1.57,5.5-3.56,5.5-4.32,5.5-.05-2.48,1.57-5.5Zm219.54-14.44c-6.59-10.31-8.36-14.77-3.56-8.94,5.37,6.52,10.3,15.13,8.67,15.13-.64,0-2.94-2.79-5.11-6.19Zm-200.64-14.44c1.49-3.03,4.72-7.98,7.18-11.01q4.48-5.5,1.78,0c-1.49,3.03-4.72,7.98-7.18,11.01q-4.48,5.5-1.78,0Zm181.38-15.82c-6.59-10.31-8.36-14.77-3.56-8.94,5.37,6.52,10.3,15.13,8.67,15.13-.64,0-2.94-2.79-5.11-6.19Zm-161.76-15.82c1.62-3.03,3.56-5.5,4.32-5.5s.05,2.48-1.57,5.5-3.56,5.5-4.32,5.5-.05-2.48,1.57-5.5Zm142.5-14.44c-6.59-10.31-8.36-14.77-3.56-8.94,5.37,6.52,10.3,15.13,8.67,15.13-.64,0-2.94-2.79-5.11-6.19Zm-123.6-14.44c1.49-3.03,4.72-7.98,7.18-11.01q4.48-5.5,1.78,0c-1.49,3.03-4.72,7.98-7.18,11.01q-4.48,5.5-1.78,0Zm104.34-15.82c-6.59-10.31-8.36-14.77-3.56-8.94,5.37,6.52,10.3,15.13,8.67,15.13-.64,0-2.94-2.79-5.11-6.19Zm-84.72-15.82c1.62-3.03,3.56-5.5,4.32-5.5s.05,2.48-1.57,5.5-3.56,5.5-4.32,5.5-.05-2.48,1.57-5.5Zm13.4-20.64c1.49-3.03,4.72-7.98,7.18-11.01q4.48-5.5,1.78,0c-1.49,3.03-4.72,7.98-7.18,11.01q-4.48,5.5-1.78,0Zm47.13-1.38c-1.62-3.03-2.33-5.5-1.57-5.5s2.7,2.48,4.32,5.5,2.33,5.5,1.57,5.5-2.7-2.48-4.32-5.5Zm-13.64-21.8c-1.56-2.91-4.98-7.44-7.61-10.07-2.63-2.63-3.19-4.25-1.25-3.61,3.63,1.21,16.03,18.97,13.25,18.97-.85,0-2.82-2.38-4.38-5.29Z" style="fill:#515151;"/></svg>