<?xml version="1.0" encoding="UTF-8"?>
<svg id="a" data-name="svg1679" xmlns="http://www.w3.org/2000/svg" width="1024" height="1024" viewBox="0 0 1024 1024">
  <g id="b" data-name="g1689">
    <g id="c" data-name="g1691">
      <g id="d" data-name="g1697">
        <path id="e" data-name="path1699" d="m495.49,930.4c218.44,0,396.59-84.41,396.59-187.9s-178.16-187.9-396.59-187.9-396.59,84.41-396.59,187.9,178.16,187.9,396.59,187.9" style="fill-rule: evenodd;"/>
      </g>
      <g id="f" data-name="g1701">
        <path id="g" data-name="path1703" d="m311.04,334.99h345.28l-44.37,321.71c-15.72,114.01-240.81,114.01-256.54,0l-44.38-321.71Z" style="fill-rule: evenodd;"/>
      </g>
      <g id="h" data-name="g1705">
        <path id="i" data-name="path1707" d="m640.84,447.31l-22.47,162.93c-12.27,88.94-257.08,88.94-269.35,0l-22.48-162.93c12.31,70.8,301.75,71.42,314.3,0" style="fill-rule: evenodd;"/>
      </g>
      <g id="j" data-name="g1709">
        <path id="k" data-name="path1711" d="m483.69,205.33c51.96,0,99.35,10.71,135.28,28.33h38.07l23.8,56.06h-.01c3.98,8.72,6.11,17.84,6.11,27.24,0,61.65-90.99,111.63-203.24,111.63s-203.24-49.98-203.24-111.63c0-9.45,2.15-18.62,6.17-27.38h0l23.73-55.92h38.07c35.94-17.62,83.33-28.33,135.29-28.33" style="fill: #cbd1a7; fill-rule: evenodd;"/>
      </g>
      <g id="l" data-name="g1713">
        <path id="m" data-name="path1715" d="m483.69,353.71c98.04,0,177.99-43.92,177.99-97.76s-79.96-97.76-177.99-97.76-177.99,43.91-177.99,97.76,79.96,97.76,177.99,97.76" style="fill: #e7ebd3; fill-rule: evenodd;"/>
      </g>
      <g id="n" data-name="g1717">
        <path id="o" data-name="path1719" d="m483.69,334.99c84.02,0,152.54-35.51,152.54-79.04s-68.52-79.04-152.54-79.04-152.54,35.51-152.54,79.04,68.52,79.04,152.54,79.04" style="fill: #bec499; fill-rule: evenodd;"/>
      </g>
      <g id="p" data-name="g1721">
        <path id="q" data-name="path1723" d="m635.75,262.19c-6.14,40.73-71.88,72.8-152.07,72.8s-145.93-32.07-152.07-72.8c6.14-40.74,71.88-72.8,152.07-72.8s145.93,32.06,152.07,72.8" style="fill-rule: evenodd; opacity: .5;"/>
      </g>
      <g id="r" data-name="g1725">
        <path id="s" data-name="path1727" d="m483.69,211.49c52.27,0,95.96,19.03,106.68,44.45h2.52v12.13c0,31.25-48.89,56.59-109.2,56.59s-109.21-25.34-109.21-56.59v-12.13h2.53c10.72-25.42,54.41-44.45,106.68-44.45" style="fill: #bec499; fill-rule: evenodd;"/>
      </g>
      <g id="t" data-name="g1729">
        <path id="u" data-name="path1731" d="m483.69,312.53c60.15,0,109.21-25.42,109.21-56.59s-49.06-56.59-109.21-56.59-109.21,25.42-109.21,56.59,49.06,56.59,109.21,56.59" style="fill: #e7ebd3; fill-rule: evenodd;"/>
      </g>
      <g id="v" data-name="g1733">
        <path id="w" data-name="path1735" d="m559.36,669.68c-21.54-1.95-37.42-20.99-35.47-42.53,1.95-21.54,20.99-37.42,42.53-35.47,138.38.28,341.25,57.98,397.33,201.6,9.16,19.59.7,42.89-18.89,52.05-19.59,9.16-42.89.71-52.05-18.89-47.51-101.37-232.57-147.48-333.46-156.77" style="fill: #e39400; fill-rule: evenodd;"/>
      </g>
      <g id="x" data-name="g1737">
        <path id="y" data-name="path1739" d="m538.62,678.52c130.79,5.12,244.37,42.13,311.9,96.07l53.5,9.68v54.08l-396.61,51.35v-54.08l9.4-9.49,21.82-147.62Z" style="fill: #ffdd30; fill-rule: evenodd;"/>
      </g>
      <g id="z" data-name="g1741">
        <path id="aa" data-name="path1743" d="m538.62,624.44c177.62,6.95,323.53,72.73,365.4,159.83l-396.61,51.35,31.22-211.19Z" style="fill: #fb0; fill-rule: evenodd;"/>
      </g>
      <g id="ab" data-name="g1745">
        <path id="ac" data-name="path1747" d="m597.72,656.55c25.49,0,46.78,9.28,52.01,21.67h1.23v13.13c0,15.23-23.84,27.59-53.24,27.59s-53.24-12.35-53.24-27.59v-13.13h1.23c5.22-12.39,26.52-21.67,52-21.67" style="fill: #eb0000; fill-rule: evenodd;"/>
      </g>
      <g id="ad" data-name="g1749">
        <path id="ae" data-name="path1751" d="m597.72,705.8c29.32,0,53.24-12.39,53.24-27.58s-23.92-27.59-53.24-27.59-53.24,12.39-53.24,27.59,23.92,27.58,53.24,27.58" style="fill: #ff5e52; fill-rule: evenodd;"/>
      </g>
      <g id="af" data-name="g1753">
        <path id="ag" data-name="path1755" d="m730.93,707.14c-6.7,0-12.13,2.81-12.13,6.29s5.43,6.29,12.13,6.29,12.13-2.82,12.13-6.29-5.43-6.29-12.13-6.29m0-5.05c9.11,0,16.72,3.31,18.59,7.74h.44v4.69c0,5.44-8.52,9.86-19.03,9.86s-19.02-4.42-19.02-9.86v-4.69h.44c1.87-4.43,9.48-7.74,18.59-7.74" style="fill: #1a1a1a; fill-rule: evenodd;"/>
      </g>
      <g id="ah" data-name="g1757">
        <path id="ai" data-name="path1759" d="m730.93,703.55c-6.7,0-12.13,2.81-12.13,6.28s5.43,6.29,12.13,6.29,12.13-2.81,12.13-6.29-5.43-6.28-12.13-6.28m0-3.58c10.51,0,19.03,4.42,19.03,9.86s-8.52,9.86-19.03,9.86-19.02-4.41-19.02-9.86,8.52-9.86,19.02-9.86" style="fill: #4d4d4d; fill-rule: evenodd;"/>
      </g>
      <g id="aj" data-name="g1761">
        <path id="ak" data-name="path1763" d="m621.12,731.45c25.49,0,46.78,9.28,52.01,21.67h1.23v13.13c0,15.24-23.84,27.59-53.24,27.59s-53.24-12.35-53.24-27.59v-13.13h1.23c5.22-12.39,26.52-21.67,52-21.67" style="fill: #eb0000; fill-rule: evenodd;"/>
      </g>
      <g id="al" data-name="g1765">
        <path id="am" data-name="path1767" d="m621.12,780.71c29.32,0,53.24-12.39,53.24-27.59s-23.91-27.58-53.24-27.58-53.24,12.39-53.24,27.58,23.92,27.59,53.24,27.59" style="fill: #ff5e52; fill-rule: evenodd;"/>
      </g>
      <g id="an" data-name="g1769">
        <path id="ao" data-name="path1771" d="m669.3,655.48c-6.7,0-12.13,2.82-12.13,6.29s5.43,6.28,12.13,6.28,12.13-2.81,12.13-6.28-5.43-6.29-12.13-6.29m0-5.05c9.11,0,16.72,3.32,18.59,7.75h.44v4.69c0,5.44-8.52,9.86-19.03,9.86s-19.02-4.42-19.02-9.86v-4.69h.44c1.87-4.43,9.48-7.75,18.58-7.75" style="fill: #1a1a1a; fill-rule: evenodd;"/>
      </g>
      <g id="ap" data-name="g1773">
        <path id="aq" data-name="path1775" d="m669.3,651.89c-6.7,0-12.13,2.82-12.13,6.29s5.43,6.28,12.13,6.28,12.13-2.81,12.13-6.28-5.43-6.29-12.13-6.29m0-3.57c10.51,0,19.03,4.41,19.03,9.86s-8.52,9.86-19.03,9.86-19.02-4.42-19.02-9.86,8.52-9.86,19.02-9.86" style="fill: #4d4d4d; fill-rule: evenodd;"/>
      </g>
      <g id="ar" data-name="g1777">
        <path id="as" data-name="path1779" d="m797.4,717.21c25.49,0,46.78,9.28,52.01,21.67h1.23v13.13c0,15.24-23.84,27.59-53.24,27.59s-53.24-12.35-53.24-27.59v-13.13h1.23c5.22-12.39,26.52-21.67,52-21.67" style="fill: #eb0000; fill-rule: evenodd;"/>
      </g>
      <g id="at" data-name="g1781">
        <path id="au" data-name="path1783" d="m797.4,766.47c29.32,0,53.24-12.39,53.24-27.59s-23.92-27.59-53.24-27.59-53.24,12.39-53.24,27.59,23.92,27.59,53.24,27.59" style="fill: #ff5e52; fill-rule: evenodd;"/>
      </g>
      <g id="av" data-name="g1785">
        <path id="aw" data-name="path1787" d="m704.93,776.12c-6.7,0-12.13,2.81-12.13,6.29s5.43,6.28,12.13,6.28,12.13-2.81,12.13-6.28-5.43-6.29-12.13-6.29m0-5.05c9.11,0,16.72,3.32,18.59,7.74h.44v4.69c0,5.44-8.52,9.86-19.03,9.86s-19.02-4.42-19.02-9.86v-4.69h.44c1.87-4.43,9.48-7.74,18.59-7.74" style="fill: #1a1a1a; fill-rule: evenodd;"/>
      </g>
      <g id="ax" data-name="g1789">
        <path id="ay" data-name="path1791" d="m704.93,772.53c-6.7,0-12.13,2.81-12.13,6.29s5.43,6.29,12.13,6.29,12.13-2.81,12.13-6.29-5.43-6.29-12.13-6.29m0-3.57c10.51,0,19.03,4.41,19.03,9.86s-8.52,9.86-19.03,9.86-19.02-4.42-19.02-9.86,8.52-9.86,19.02-9.86" style="fill: #4d4d4d; fill-rule: evenodd;"/>
      </g>
      <g id="az" data-name="g1793">
        <path id="ba" data-name="path1795" d="m547.28,734.49c-6.7,0-12.13,2.82-12.13,6.29s5.43,6.28,12.13,6.28,12.13-2.81,12.13-6.28-5.43-6.29-12.13-6.29m0-5.05c9.11,0,16.72,3.32,18.59,7.74h.44v4.69c0,5.44-8.52,9.86-19.03,9.86s-19.02-4.42-19.02-9.86v-4.69h.44c1.87-4.43,9.48-7.74,18.59-7.74" style="fill: #1a1a1a; fill-rule: evenodd;"/>
      </g>
      <g id="bb" data-name="g1797">
        <path id="bc" data-name="path1799" d="m547.28,730.9c-6.7,0-12.13,2.81-12.13,6.29s5.43,6.28,12.13,6.28,12.13-2.81,12.13-6.28-5.43-6.29-12.13-6.29m0-3.57c10.51,0,19.03,4.41,19.03,9.86s-8.52,9.86-19.03,9.86-19.02-4.42-19.02-9.86,8.52-9.86,19.02-9.86" style="fill: #4d4d4d; fill-rule: evenodd;"/>
      </g>
      <g id="bd" data-name="g1801">
        <path id="be" data-name="path1803" d="m828.29,737.83c-6.7,0-12.13,2.81-12.13,6.28s5.43,6.29,12.13,6.29,12.13-2.81,12.13-6.29-5.43-6.28-12.13-6.28m0-5.05c9.11,0,16.72,3.32,18.59,7.74h.44v4.7c0,5.44-8.52,9.86-19.02,9.86s-19.03-4.42-19.03-9.86v-4.7h.44c1.87-4.43,9.48-7.74,18.59-7.74" style="fill: #1a1a1a; fill-rule: evenodd;"/>
      </g>
      <g id="bf" data-name="g1805">
        <path id="bg" data-name="path1807" d="m828.29,734.24c-6.7,0-12.13,2.81-12.13,6.28s5.43,6.29,12.13,6.29,12.13-2.82,12.13-6.29-5.43-6.28-12.13-6.28m0-3.57c10.51,0,19.02,4.41,19.02,9.86s-8.52,9.86-19.02,9.86-19.03-4.41-19.03-9.86,8.52-9.86,19.03-9.86" style="fill: #4d4d4d; fill-rule: evenodd;"/>
      </g>
      <g id="bh" data-name="g1809">
        <path id="bi" data-name="path1811" d="m501.32,268.07c-.63,4.72-8.52,8.55-17.63,8.55s-16-3.83-15.37-8.55l21.94-165.92h33l-21.93,165.92Z" style="fill: #2da3ca; fill-rule: evenodd;"/>
      </g>
      <g id="bj" data-name="g1813">
        <path id="bk" data-name="path1815" d="m507.88,93.6c9.11,0,15.99,3.83,15.37,8.55-.62,4.72-8.52,8.55-17.63,8.55s-16-3.83-15.37-8.55c.62-4.72,8.52-8.55,17.63-8.55" style="fill: #56c3e8; fill-rule: evenodd;"/>
      </g>
      <g id="bl" data-name="g1817">
        <path id="bm" data-name="path1819" d="m271.09,709.94c64.54,0,120.47,19.1,147.89,46.99h17.99v38.97c0,47.47-74.26,85.96-165.88,85.96s-165.88-38.48-165.88-85.96v-38.97h17.99c27.42-27.89,83.35-46.99,147.89-46.99" style="fill: #f5cc5a; fill-rule: evenodd;"/>
      </g>
      <g id="bn" data-name="g1821">
        <path id="bo" data-name="path1823" d="m271.09,842.88c91.36,0,165.88-38.61,165.88-85.95s-74.51-85.96-165.88-85.96-165.88,38.61-165.88,85.96,74.52,85.95,165.88,85.95" style="fill: #f0dba3; fill-rule: evenodd;"/>
      </g>
      <g id="bp" data-name="g1825">
        <path id="bq" data-name="path1827" d="m326.59,837.95l-55.5,33.48-55.5-33.48c17.35,3.19,36.03,4.94,55.5,4.94s38.15-1.74,55.5-4.94" style="fill: #e39400; fill-rule: evenodd;"/>
      </g>
      <g id="br" data-name="g1829">
        <path id="bs" data-name="path1831" d="m108.18,740.71l107.42-64.8c17.35-3.19,36.03-4.94,55.5-4.94s38.14,1.74,55.5,4.94l107.42,64.8c1.94,5.25,2.96,10.68,2.96,16.22s-1.02,10.97-2.96,16.22l-107.41,64.8c-17.35,3.19-36.03,4.94-55.5,4.94s-38.15-1.74-55.5-4.94l-107.42-64.8c-1.94-5.25-2.96-10.68-2.96-16.22s1.03-10.97,2.96-16.22" style="fill: #fb0; fill-rule: evenodd;"/>
      </g>
      <g id="bt" data-name="g1833">
        <path id="bu" data-name="path1835" d="m356.55,761.38c25.49,0,46.78,9.28,52.01,21.67h1.23v13.13c0,15.23-23.84,27.59-53.24,27.59s-53.24-12.35-53.24-27.59v-13.13h1.23c5.22-12.39,26.52-21.67,52.01-21.67" style="fill: #eb0000; fill-rule: evenodd;"/>
      </g>
      <g id="bv" data-name="g1837">
        <path id="bw" data-name="path1839" d="m356.55,810.64c29.32,0,53.24-12.39,53.24-27.59s-23.92-27.59-53.24-27.59-53.24,12.39-53.24,27.59,23.92,27.59,53.24,27.59" style="fill: #ff5e52; fill-rule: evenodd;"/>
      </g>
      <g id="bx" data-name="g1841">
        <path id="by" data-name="path1843" d="m194.31,764.15c25.48,0,46.78,9.28,52.01,21.67h1.23v13.13c0,15.23-23.84,27.59-53.24,27.59s-53.24-12.35-53.24-27.59v-13.13h1.23c5.23-12.39,26.52-21.67,52.01-21.67" style="fill: #eb0000; fill-rule: evenodd;"/>
      </g>
      <g id="bz" data-name="g1845">
        <path id="ca" data-name="path1847" d="m194.31,813.41c29.32,0,53.24-12.39,53.24-27.59s-23.92-27.59-53.24-27.59-53.24,12.39-53.24,27.59,23.92,27.59,53.24,27.59" style="fill: #ff5e52; fill-rule: evenodd;"/>
      </g>
      <g id="cb" data-name="g1849">
        <path id="cc" data-name="path1851" d="m436.97,697.3v14.01c0,47.47-74.26,85.95-165.88,85.95s-165.88-38.48-165.88-85.95v-14.01c0-138.84,331.76-141.12,331.76,0" style="fill: #f5cc5a; fill-rule: evenodd;"/>
      </g>
      <g id="cd" data-name="g1853">
        <path id="ce" data-name="path1855" d="m364.41,701.59v10.42c0,35.3-55.23,63.92-123.36,63.92s-123.36-28.62-123.36-63.92v-10.42c0-103.25,246.72-104.95,246.72,0" style="fill: #fcd979; fill-rule: evenodd;"/>
      </g>
      <g id="cf" data-name="g1857">
        <path id="cg" data-name="path1859" d="m393.79,656.82c-7.65,10.65-24.88-14.67-2.22-2.69,1.13.6,2.41,1.39,2.22,2.69m14.92,37.63c-7.67,11.56-32.65-15.54-5.13-4.78,2.07.81,5.46,2.33,5.13,4.78m-10.78,52.57c-6.19,16.1-33.15-16.2-6.56-6.93,3.35,1.17,6.73,3.35,6.56,6.93m-147.07-70.95c-8.77,18.26-41.57-2.46-8.12-4.09,3.1-.15,8.54.25,8.12,4.09m24.91-36.87c-8.95,17.23-42.79-6.02-8.44-4.74,3.13.12,8.85.96,8.44,4.74m-26.98-32.95c-7.46,15.39-33.48-5.39-5.25-3.37,2.27.16,5.48.79,5.25,3.37m-61,52.25c-7.86,19.88-39.24,1.01-7.67-3.54,3.18-.46,7.99-.38,7.67,3.54m-28.81,65.35c-6.95,21.38-35.96.46-7.05-4.05,3.63-.57,7.3.08,7.05,4.05m126.89,26.01c-6.53,18.73-35.8-6.63-8.66-6.43,4.35.03,8.96,1.91,8.66,6.43m34.16-64.58c-6.22,16.71-29.05-13.73-4.61-5.27,2.64.91,4.78,2.53,4.61,5.27m30.66,62.02c-6.81,17.4-35.8-14.65-7.04-6.82,3.48.95,7.34,3.1,7.04,6.82m-141.83-121.26c-6.47,19.28-31.11-5.28-5-3.99,2.85.14,5.14,1.15,5,3.99m137.16,30.47c-6.1,14.3-33.23-12.89-6.58-5.84,2.95.78,6.84,2.6,6.58,5.84m-128.53,77c-6.84,20.71-34.91-2.51-6.84-4.65,3.7-.28,7.1.81,6.84,4.65m119.29-114.44c-7.01,13.12-31.69-11.97-5.01-4.36,2.2.63,5.24,1.9,5.01,4.36" style="fill: #fff6b0; fill-rule: evenodd;"/>
      </g>
    </g>
  </g>
</svg>