<?xml version="1.0" encoding="UTF-8"?>
<svg id="a" data-name="svg198" xmlns="http://www.w3.org/2000/svg" width="1024" height="1024" viewBox="0 0 1024 1024">
  <path d="m914.88,190.4c-3.4-9.03-7.25-11.34-44.94-26.98-16.21-6.73-18.64-7.21-30.35-6.07-31.17,3.05-44.75,4.97-54.33,7.68-16.44,4.65-32.89,4.55-48.18-.31-7.38-2.34-18.4-4.25-24.47-4.24-32.72.07-55.55,16.21-76.15,53.82l-11.8,21.54-27.23,13.71c-14.98,7.54-36.88,17.38-48.68,21.87-32.52,12.37-59.25,23.98-94.88,41.22-17.77,8.6-37.39,17.63-43.6,20.08-6.21,2.44-11.73,5.16-12.27,6.03s-10.33,6.05-21.76,11.51c-17.22,8.23-23.05,12.23-34,23.38-14.08,14.33-24.91,31.34-44.81,70.34l-4.3,8.42-5.93-4.99c-4.7-3.96-8.05-4.99-16.17-4.99-14.31,0-27.51,7.12-44.25,23.87-14.79,14.79-20.49,22.23-33.43,43.68-17.87,29.61-21.49,36.03-25.53,45.26-4.29,9.78-15.82,44.14-18.27,54.46-.75,3.15-6.82,16.83-13.48,30.39-30.14,61.37-32.58,68.81-28.68,87.58,1.6,7.72,4,12.78,7.67,16.21,9.11,8.51,31.42,12.41,44.64,7.8,5.13-1.79,7.45-1.3,16.45,3.43,9.59,5.04,12.11,5.48,29.61,5.2,12.64-.2,22.38-1.48,28.72-3.76,8.98-3.23,9.91-3.24,14.58-.18,2.74,1.8,6.52,3.27,8.39,3.27s6.15,2.66,9.5,5.91c6.24,6.05,18.61,11.55,38.71,17.22l11.33,3.2-1.19,12.78c-1,10.76-.37,15.1,3.99,27.47,5.38,15.26,12.87,25.07,23.46,30.76,4.65,2.49,12.68,3.23,38.2,3.49,30.97.32,91.97,4.37,93.96,6.24h0c1.8,1.7,44.11-1.58,57.79-4.48,7.54-1.6,20.31-5.89,28.39-9.54,41.06-18.55,74.72-30.49,120.42-42.73,38.6-10.34,43.68-11.17,54.05-8.77,7.74,1.79,10.21,1.55,16.68-1.61,6.14-3,7.71-4.9,8.19-9.95.48-4.96-.46-6.94-4.6-9.66-4.32-2.83-6.22-3.03-11.14-1.17-4.29,1.62-8.57,1.67-15.48.19-5.26-1.13-15.28-1.75-22.27-1.39-6.99.36-12.71.18-12.71-.4,0-1.36,38.46-16.38,54.49-21.28,8.4-2.57,15.65-3.47,22.52-2.81,8.74.84,11.26.23,18.45-4.51,6.34-4.18,8.32-6.73,8.32-10.72,0-2.9-1.34-5.74-3.02-6.39-5.64-2.17-57.18,2.34-63.36,5.54-3.23,1.67-7.89,3.06-10.37,3.08-4.91.05-23.12,5.8-33.33,10.51-3.53,1.63-11.27,4.84-17.19,7.13-5.92,2.29-11.65,4.85-12.73,5.68-1.08.83-4,2.01-6.48,2.62-8.22,2.01-1.42-3.1,15.03-11.31,9.82-4.9,15.73-9.03,15.8-11.05.06-1.81,2.43-3.8,5.43-4.55,7.51-1.88,19.5-16.11,27.05-32.09,3.67-7.77,2.97-23.24-1.17-25.87-2.24-1.42-1.33-3.13,4.54-8.56,4.04-3.73,7.34-8.16,7.34-9.84s2.92-7.23,6.49-12.34c3.57-5.1,8.58-13.03,11.13-17.6,5.37-9.63,7.83-10.55,7.85-2.94,0,2.96,1.29,7.83,2.85,10.83,1.56,2.99,2.37,6.66,1.8,8.14-.6,1.56.59,3.21,2.82,3.92,2.61.83,3.54,2.43,2.88,4.94-3.7,14.16,14.44,29.38,35.08,29.41,6.15.01,15.84-1.62,21.54-3.61,14.17-4.97,30.61-7.84,38.27-6.68,12.01,1.82,17.09-9.9,7.13-16.43-4.44-2.91-6.51-3.04-16.27-1.02-13.45,2.78-19.76,2.94-19.76.5,0-8.78,28.2-25.31,45.35-26.59,5.17-.38,10.29-1.25,11.39-1.93,3.51-2.17,2.15-8.01-2.99-12.83l-4.98-4.68-16.06,5.68c-8.84,3.12-20.13,8.16-25.09,11.19-12.94,7.91-22.99,7.25-13.49-.88,2.57-2.2,3.92-5.78,3.92-10.41,0-3.88,1.24-9.4,2.76-12.26,8.2-15.43,17.47-64.48,17.44-92.33-.03-23.85-4.28-37.01-15.93-49.35-5.87-6.22-6.48-7.7-4.27-10.37,1.42-1.71,5.83-9.46,9.79-17.22,8.62-16.87,36.67-65.76,40.12-69.91,1.34-1.62,2.91-5.14,3.49-7.83,1.34-6.23,9.3-27.77,11.23-30.35,3.56-4.77,15.51-34.62,18.43-46.04,9.21-35.94,11.85-77.64,5.92-93.39Z"/>
  <path d="m914.88,190.4c-3.4-9.03-7.25-11.34-44.94-26.98-16.21-6.73-18.64-7.21-30.35-6.07-31.17,3.05-44.75,4.97-54.33,7.68-16.44,4.65-32.89,4.55-48.18-.31-7.38-2.34-18.4-4.25-24.47-4.24-32.72.07-55.55,16.21-76.15,53.82l-11.8,21.54-27.23,13.71c-14.98,7.54-36.88,17.38-48.68,21.87-32.52,12.37-59.25,23.98-94.88,41.22-17.77,8.6-37.39,17.63-43.6,20.08-6.21,2.44-11.73,5.16-12.27,6.03s-10.33,6.05-21.76,11.51c-17.22,8.23-23.05,12.23-34,23.38-14.08,14.33-24.91,31.34-44.81,70.34l-4.3,8.42-5.93-4.99c-4.7-3.96-8.05-4.99-16.17-4.99-14.31,0-27.51,7.12-44.25,23.87-14.79,14.79-20.49,22.23-33.43,43.68-17.87,29.61-21.49,36.03-25.53,45.26-4.29,9.78-15.82,44.14-18.27,54.46-.75,3.15-6.82,16.83-13.48,30.39-30.14,61.37-32.58,68.81-28.68,87.58,1.6,7.72,4,12.78,7.67,16.21,9.11,8.51,31.42,12.41,44.64,7.8,5.13-1.79,7.45-1.3,16.45,3.43,9.59,5.04,12.11,5.48,29.61,5.2,12.64-.2,22.38-1.48,28.72-3.76,8.98-3.23,9.91-3.24,14.58-.18,2.74,1.8,6.52,3.27,8.39,3.27s6.15,2.66,9.5,5.91c6.24,6.05,18.61,11.55,38.71,17.22l11.33,3.2-1.19,12.78c-1,10.76-.37,15.1,3.99,27.47,5.38,15.26,12.87,25.07,23.46,30.76,4.65,2.49,12.68,3.23,38.2,3.49,30.97.32,91.97,4.37,93.96,6.24h0c1.8,1.7,44.11-1.58,57.79-4.48,7.54-1.6,20.31-5.89,28.39-9.54,41.06-18.55,74.72-30.49,120.42-42.73,38.6-10.34,43.68-11.17,54.05-8.77,7.74,1.79,10.21,1.55,16.68-1.61,6.14-3,7.71-4.9,8.19-9.95.48-4.96-.46-6.94-4.6-9.66-4.32-2.83-6.22-3.03-11.14-1.17-4.29,1.62-8.57,1.67-15.48.19-5.26-1.13-15.28-1.75-22.27-1.39-6.99.36-12.71.18-12.71-.4,0-1.36,38.46-16.38,54.49-21.28,8.4-2.57,15.65-3.47,22.52-2.81,8.74.84,11.26.23,18.45-4.51,6.34-4.18,8.32-6.73,8.32-10.72,0-2.9-1.34-5.74-3.02-6.39-5.64-2.17-57.18,2.34-63.36,5.54-3.23,1.67-7.89,3.06-10.37,3.08-4.91.05-23.12,5.8-33.33,10.51-3.53,1.63-11.27,4.84-17.19,7.13-5.92,2.29-11.65,4.85-12.73,5.68-1.08.83-4,2.01-6.48,2.62-8.22,2.01-1.42-3.1,15.03-11.31,9.82-4.9,15.73-9.03,15.8-11.05.06-1.81,2.43-3.8,5.43-4.55,7.51-1.88,19.5-16.11,27.05-32.09,3.67-7.77,2.97-23.24-1.17-25.87-2.24-1.42-1.33-3.13,4.54-8.56,4.04-3.73,7.34-8.16,7.34-9.84s2.92-7.23,6.49-12.34c3.57-5.1,8.58-13.03,11.13-17.6,5.37-9.63,7.83-10.55,7.85-2.94,0,2.96,1.29,7.83,2.85,10.83,1.56,2.99,2.37,6.66,1.8,8.14-.6,1.56.59,3.21,2.82,3.92,2.61.83,3.54,2.43,2.88,4.94-3.7,14.16,14.44,29.38,35.08,29.41,6.15.01,15.84-1.62,21.54-3.61,14.17-4.97,30.61-7.84,38.27-6.68,12.01,1.82,17.09-9.9,7.13-16.43-4.44-2.91-6.51-3.04-16.27-1.02-13.45,2.78-19.76,2.94-19.76.5,0-8.78,28.2-25.31,45.35-26.59,5.17-.38,10.29-1.25,11.39-1.93,3.51-2.17,2.15-8.01-2.99-12.83l-4.98-4.68-16.06,5.68c-8.84,3.12-20.13,8.16-25.09,11.19-12.94,7.91-22.99,7.25-13.49-.88,2.57-2.2,3.92-5.78,3.92-10.41,0-3.88,1.24-9.4,2.76-12.26,8.2-15.43,17.47-64.48,17.44-92.33-.03-23.85-4.28-37.01-15.93-49.35-5.87-6.22-6.48-7.7-4.27-10.37,1.42-1.71,5.83-9.46,9.79-17.22,8.62-16.87,36.67-65.76,40.12-69.91,1.34-1.62,2.91-5.14,3.49-7.83,1.34-6.23,9.3-27.77,11.23-30.35,3.56-4.77,15.51-34.62,18.43-46.04,9.21-35.94,11.85-77.64,5.92-93.39Zm-271.94,22.35c.74-1.93,1.83-3.02,2.43-2.41s0,2.18-1.34,3.51c-1.93,1.92-2.16,1.69-1.1-1.1Zm-201.91,113.1c2.09-1.58,5.17-2.84,6.85-2.81,1.96.04,1.29,1.07-1.84,2.87-6.41,3.66-9.88,3.62-5.01-.06Zm-195.41,131.41c2.69-1.03,2.81-.74.74,1.75-2.82,3.4-3.95,3.75-3.95,1.23,0-.96,1.45-2.3,3.21-2.98Zm-67.83,90.88c1.04-1.62,1.9-2.06,1.9-.98s-.85,3.28-1.9,4.89c-1.04,1.62-1.9,2.06-1.9.98s.85-3.28,1.9-4.9Zm-4.99,10.65c2.74-3.67,2.8-3.64,1.72.64-.61,2.44-1.89,4.91-2.84,5.5-2.68,1.66-2.03-1.93,1.12-6.14Zm-11.05,37.23c.45,2.11-.72,11.36-2.6,20.56-3.36,16.41-6.81,24.66-6.81,16.29,0-7.33,8.55-40.83,9.41-36.85Zm-33.93,141.96c-.69-1.12-2.95-1.5-5.01-.85-5.21,1.65-7.67-5.67-7.67-22.86,0-10.68,1.32-17.08,5.93-28.75,7.92-20.07,22.11-49.27,23.93-49.27,2.09,0,.38,27.35-2.1,33.58-2.66,6.69-1.38,17.18,3.97,32.57,4.19,12.05,4.21,12.43.68,18.6-1.98,3.46-6.29,9.16-9.58,12.66-6.39,6.8-8.17,7.55-10.16,4.33Zm21.68-2.77c-4.99,4.99-8.9,6.24-8.9,2.85,0-1.08.74-1.96,1.65-1.96s3.31-3.08,5.34-6.85c2.03-3.77,4.37-6.85,5.2-6.85,3.35,0,1.21,8.31-3.29,12.82Zm48.73,17.31c-3.5,1.34-3.42,1.35-11.88-.67-10.94-2.61-17.46-8.93-21.96-21.27-2.31-6.34-4.2-12.33-4.2-13.31s-2.27-8.82-5.05-17.42c-5.83-18.05-5.88-39.33-.11-45.7,1.76-1.94,3.19-5.74,3.19-8.45s1.33-9.24,2.96-14.53c1.63-5.29,4.33-16.22,6-24.3,11.28-54.47,29.85-92.25,61.92-126.02,6.14-6.46,10.73-12.44,10.2-13.29-.53-.85,2.17-2.85,5.99-4.45,3.9-1.63,7.74-4.98,8.75-7.65,1.28-3.37,3.88-5.13,8.96-6.09,8.7-1.63,17.89.15,19.27,3.74,2.78,7.24-12.8,40.19-19,40.19-3.27,0-21.74,18.1-31.6,30.98-18.81,24.54-33.85,48.78-37,59.63-3.79,13.02-3.79,13.18-.7,13.15,1.35-.01,7.54-9.66,13.77-21.43,6.22-11.77,14.18-25.64,17.67-30.82,9.43-13.97,22.89-31.93,23.94-31.93,2.59,0,.24,4.65-5.2,10.3-3.36,3.49-6.97,8.77-8.02,11.73s-2.69,5.38-3.65,5.38-5.32,7.27-9.7,16.15c-4.37,8.88-6.17,13.95-3.99,11.26s6.13-9.3,8.77-14.68c5.41-11.05,22.43-33.24,24.16-31.51.62.62-.87,5.03-3.32,9.79-2.45,4.76-4.04,9.83-3.53,11.27.51,1.44-2.56,9.23-6.81,17.3-7.69,14.61-21.09,46.98-21.09,50.94,0,1.14-1.76,5.53-3.92,9.75-2.15,4.22-3.92,9.26-3.92,11.2s-2.17,7.6-4.82,12.58c-2.65,4.98-6.16,15.46-7.79,23.28-3.41,16.35-1.55,28.8,5.56,37.14,5.34,6.27,10.96,16.48,10.96,19.91,0,4.79-11.62,26.61-14.82,27.84Zm73.56-255.3c0,1.08-.88,1.96-1.96,1.96s-1.96-.88-1.96-1.96.88-1.96,1.96-1.96,1.96.88,1.96,1.96Zm-57.93,245.63c-1.95,2.67-2.75,2.95-2.73.96.04-3.95,3.18-8.49,4.45-6.44.58.93-.19,3.4-1.71,5.48Zm531.32-233.89c-2.13,11.18-5.43,17.58-5.43,10.53,0-4.18,5.9-22.91,6.9-21.89.32.33-.34,5.44-1.47,11.36Zm85.54,58.74c-3.29,18.42-13.16,46.59-21.25,60.7-5.29,9.22-6.08,11.77-3.64,11.71.81-.02,4.06-4.4,7.23-9.74s6.08-9.38,6.48-8.99c1.31,1.31-11.92,21.32-17.8,26.95h0c-3.18,3.04-6.75,5.5-7.94,5.46-1.19-.04,0-1.86,2.63-4.05,3.86-3.22,4.26-4.32,2.04-5.69-2.32-1.43-2.24-2.27.52-5.32,5.6-6.19,20.6-39.91,25.06-56.34,4.67-17.21,8.72-26.11,6.68-14.68Zm5.88-57.11c1.3,26.95-1.06,47.65-5.34,46.79-1.23-.25-5.54,9.6-9.67,22.07-4.1,12.38-9.66,27.17-12.34,32.85-2.69,5.68-4.9,10.97-4.93,11.75-.02.78-1.81,3.62-3.97,6.31-10.58,13.19-12.53,16.42-9.1,15.11,3.62-1.39,4.62,1.48,1.25,3.57-1.14.71-2.88,3.4-3.87,5.99-1.24,3.25-3.31,4.7-6.73,4.7-2.72,0-4.94.88-4.94,1.96s2.1,1.96,4.67,1.96c8.23,0,17.4-5.2,22.59-12.83,2.78-4.08,6.15-7.78,7.5-8.23,5.24-1.73,1.98,4-8.32,14.63-11.48,11.85-11.8,12.29-8.88,12.29,1.85,0,8.1-5.97,21.27-20.31,3.89-4.23,8.35-7.1,11.05-7.1,2.49,0,5.05-1.36,5.68-3.01,1.15-3,19.56-12.6,24.23-12.63,5.51-.04,1.75,3.95-9.82,10.42-15.24,8.52-31.32,25.6-27.61,29.31.61.61,7.11.6,14.46-.01,23.21-1.95,26.46,3.31,3.88,6.27-5.92.78-13.7,2.62-17.28,4.09h0c-3.58,1.47-11.95,3.21-18.6,3.85-10.99,1.07-12.85.67-20.39-4.3-8.94-5.9-14.21-14.61-14.23-23.52,0-3.07-1.26-7.97-2.79-10.9-6.53-12.51-9.32-33.72-8.52-64.59.73-27.96,1.15-30.72,6.33-41.69,3.05-6.46,6.89-13.3,8.52-15.19,1.64-1.89,2.43-3.98,1.77-4.65-2.99-2.99-7.83,2.15-13.11,13.92-3.15,7.02-6.52,12.76-7.49,12.76-2.92,0-4.28-19.32-2.09-29.54,1.12-5.24,3.81-14.18,5.97-19.85,5.74-15.09,6.23-17.18,4-17.18-1.11,0-3.93,3.96-6.28,8.81-3.94,8.15-7.33,10.62-10.36,7.58-4.04-4.04,26.79-35.97,34.73-35.97,2.24,0,8.55-1.63,14.02-3.63,11.18-4.09,9.85-4.59,27.09,10.29,14.49,12.51,16.18,17.08,17.67,47.83Zm-8.94-80.74c-2.26,2.05-5.37,6.15-6.9,9.11-1.53,2.96-4.09,5.39-5.67,5.39-4.3,0-3.52-2.46,2.5-7.95,2.96-2.7,7.37-7.49,9.79-10.65,2.85-3.71,4.41-4.66,4.41-2.68,0,1.68-1.85,4.73-4.12,6.78Zm85.92-206.28c-1.31.44-2.57,4.26-2.78,8.48-.55,10.85-6.96,34.81-9.78,36.58-1.3.81-2.93,4.34-3.62,7.83-1.77,8.96-5.03,17.26-9.13,23.22-1.94,2.82-6.69,11.37-10.57,19-6.19,12.19-12.52,20.84-23.31,31.85-1.67,1.71-3.04,5.34-3.04,8.08,0,7.63-19.35,32.5-35.99,46.26-15.3,12.65-17.49,17.98-7.37,17.9,6.89-.06,11.1-3.86,24.89-22.46,15.49-20.89,18.67-25.64,25.25-37.72,3.07-5.64,6.55-10.3,7.72-10.36,1.18-.05,4.52-5.12,7.43-11.26,6.85-14.43,17.11-30.53,18.54-29.09.62.62-.83,4.85-3.2,9.42-2.38,4.56-7.44,15.81-11.24,25-3.8,9.19-8.17,17.62-9.7,18.74-1.53,1.12-3.85,3.94-5.16,6.27-4.72,8.44-23.78,35.1-32.14,44.96-4.71,5.55-11.83,11.54-15.83,13.31-3.99,1.77-8.79,4.06-10.66,5.08-1.87,1.02-8.31,1.86-14.3,1.86h-10.9l1.12-12.07c.61-6.64,1.2-17.86,1.31-24.93.23-15.64,1.73-19.86,10.32-29.19,19.29-20.93,22.73-25.49,21.56-28.54-2.37-6.18-8.33-2.99-23.56,12.61-17.34,17.76-22.05,25.19-22.23,35.12-.36,18.84-10.85,42.93-25.16,57.76-5.2,5.38-12.02,14.2-15.17,19.58-5.05,8.65-5.72,11.63-5.69,25.67.03,16.94,1.97,21.61,9.42,22.67,3.51.5,4.16,1.71,3.67,6.8-.65,6.83,4.68,27.34,7.57,29.13,3.19,1.97,1.99,12.52-3.36,29.69-3.97,12.72-4.62,16.99-2.77,18.13,1.82,1.12,1.13,4.05-2.78,11.75-8.6,16.97-2.47,14.64,7.22-2.74,1.84-3.3,3.38-4.73,3.43-3.17.1,3.35-14.19,28.02-20.99,36.23-2.62,3.17-5.57,7.87-6.55,10.44-2.32,6.1-6.13,4.67-8.37-3.14-.98-3.42-2.53-6.21-3.46-6.21s-1.67-1.14-1.67-2.53c0-3.76-15.76-18.09-22.52-20.47-3.23-1.14-12.26-4.03-20.07-6.42s-14.19-4.9-14.19-5.58c0-.67,5.07-2.71,11.26-4.53,21.44-6.31,40.78-16.41,46.78-24.45,3.08-4.12,7.04-8.57,8.82-9.9,7.5-5.62,20.93-37.1,17.97-42.13-1.62-2.75-3.92-1.47-6.15,3.43-1.45,3.19-3.83,4.89-6.8,4.89-3.33,0-8.41,4.53-18.65,16.62-17.45,20.6-29.77,30.3-55.95,44.04-19.63,10.31-20.71,10.63-27.31,8.25-9.51-3.44-58.12-3.1-82.27.57-10.62,1.61-20,2.5-20.85,1.98-4.08-2.52-72.43,15-72.43,18.57,0,3.06-15.23,17.59-20.88,19.91-4.05,1.66-4.68,2.49-2.33,3.06,1.77.43,9.26-2.27,16.64-5.99,25.19-12.69,72.34-26.57,104.47-30.75,43.55-5.67,118.19,5.25,149.17,21.83,6.47,3.46,9.52,14.19,9.98,35.11.4,18.08.69,19.39,4.11,18.31,3.32-1.05,3.55-.43,2.28,6.32-1.92,10.22-5.18,15.73-16.16,27.28-12.08,12.71-20.23,18.78-35.21,26.21-6.67,3.31-16.94,10.23-22.84,15.39-5.9,5.16-20.15,14.17-31.67,20.03-12.32,6.26-21.53,12.21-22.36,14.44-1.24,3.36-1.54,3.42-2.65.52-1.15-3-2.09-2.94-11.59.71-13.91,5.35-39.01,11.72-46.16,11.72-3.19,0-8.77,1.24-12.4,2.75-11.18,4.66-40.45,8.72-71.22,9.87-30.1,1.13-45.61,4.37-44.4,9.28,1.13,4.59,3.77,5.9,7.69,3.8,2.11-1.13,11.24-2.17,20.28-2.3,43.12-.65,107.03-5.55,114.52-8.79,4.2-1.81,11.61-4.46,16.46-5.88,26.41-7.74,59.1-22.09,71.8-31.51,6.6-4.9,31.86-15.65,54.49-23.2,21.64-7.22,50.93-18,55.41-20.39,3.36-1.8,22.69-4.14,55.16-6.69,7.38-.58,7.49,5.57.17,9.36-4.68,2.42-6.92,2.62-10.11.92-2.25-1.21-5.55-1.76-7.32-1.23-33.4,9.97-45.35,14.02-50.22,17.01-3.23,1.98-12.8,6.35-21.26,9.7-8.46,3.35-19.04,7.98-23.5,10.29-13.29,6.86-14.73,7.43-18.85,7.43-4.53,0-5.12,2.46-1.34,5.59,2.93,2.43,32.7-2.75,53.2-9.27,10.9-3.46,12.67-3.52,24.47-.84,26.4,5.99,29.22,10.43,6.36,9.99-16.01-.3-56.2,8.59-86.95,19.24-7.91,2.74-18.35,5.65-23.19,6.47-14.52,2.45-31.51,8.09-45.52,15.11-7.27,3.64-17.84,7.9-23.5,9.47-5.65,1.56-17.67,5-26.7,7.65h0c-9.03,2.64-21.37,5.2-27.41,5.69-13.84,1.12-75.34-1.59-92.24-4.06-8.38-1.23-16.76-1.17-24.56.16-9.82,1.68-14.07,1.42-24.96-1.52-18.3-4.95-27.03-13.3-32.51-31.09-8.08-26.23-3.86-37.51,18.48-49.35,7.49-3.97,16.25-9.39,19.48-12.05,3.23-2.66,15.4-10.58,27.03-17.6,11.64-7.02,20.79-13.13,20.33-13.59s-11.11,4.93-23.68,11.96c-12.57,7.03-23.42,12.79-24.1,12.79-3.53,0,8.84-9.77,21.07-16.64,7.66-4.31,18.09-10.52,23.18-13.8,23.8-15.38,55.96-30.39,63.86-29.82,7.61.56,32.7-8.35,33.64-11.94.54-2.08,4.9-4.74,11.04-6.74,17.14-5.58,69.77-15.31,90.27-16.68,12.82-.86,19.7-2.13,20.23-3.74,2.01-6.06-51.36-.87-86.63,8.43-14.01,3.69-27.67,7.27-30.36,7.95-2.69.68-12.82,4.59-22.52,8.7-9.69,4.11-23.79,9.85-31.33,12.77s-19.87,8.79-27.41,13.04c-12.62,7.13-19.69,11.31-44.05,26.12-4.85,2.94-16.74,11.25-26.43,18.46-13.82,10.27-20.79,14.01-32.31,17.33-17.75,5.11-26.6,5.28-40.77.82-8.65-2.73-12.24-5.26-18.28-12.9-4.13-5.23-7.52-10.82-7.52-12.43s-1.1-2.55-2.45-2.09c-1.35.46-2.17,2.72-1.84,5.03.52,3.56-.23,4.1-4.89,3.55-15.63-1.83-34.05-20.7-23.88-24.46,3.85-1.43,3.69-1.85-2.97-7.7-3.88-3.4-7.05-6.93-7.05-7.84s-2.56-4.1-5.69-7.1c-5.28-5.06-9.97-17.37-9.97-26.16,0-2.03,2.48-7.59,5.51-12.35,3.03-4.76,8.92-14.38,13.09-21.38,7.9-13.27,31.52-45.93,40.09-55.42,2.72-3.02,6.45-8.21,8.28-11.54,2.6-4.73,62.01-68.19,75.97-81.15,22.51-20.9,45.88-46.08,61.03-65.76,5.61-7.28,27.74-19.79,49.52-27.99,11.82-4.45,12.81-4.55,12.81-1.31,0,1.93-.96,4.46-2.12,5.63-3.11,3.11-1.36,11.24,2.57,11.99,1.86.35,6.34-1.61,9.95-4.37,6.83-5.21,18.97-8.84,18.97-5.67,0,2.38-10.13,17.82-15.97,24.35-2.52,2.82-9.87,9.11-16.33,13.98-13.5,10.17-35.58,32.95-46.99,48.48-4.31,5.86-10.81,13.32-14.45,16.57-19.87,17.77-55.19,53.18-56.2,56.34-.64,2.01-4.49,8.67-8.55,14.8-4.07,6.13-9.7,15.71-12.52,21.29-2.82,5.58-6.69,11.31-8.6,12.73-1.91,1.42-5.67,5.81-8.36,9.76-18.61,27.3-44.8,58.23-49.43,58.37-1.66.05-2.06,9.84-.41,9.84.58,0,5.68-3.48,11.32-7.74,11.83-8.93,40.33-40.53,58.36-64.7,6.83-9.15,26.52-30.86,43.77-48.24,17.25-17.38,36.64-38.04,43.1-45.92,15.38-18.75,59.6-62.48,63.18-62.48,4.97,0,28.94-30.19,41.97-52.87,5.83-10.14,16.4-21.47,35.63-38.18,17.8-15.47,18.33-16.02,19.77-20.57.69-2.18,2.96-3.9,5.14-3.9s3.41-.8,2.8-1.78c-.6-.98.67-1.31,2.82-.75,2.92.76,3.92.06,3.92-2.74,0-3.65,13.49-14.86,36.22-30.1,5.38-3.61,11.33-8.51,13.22-10.88,1.89-2.37,10.7-8.05,19.58-12.61,8.88-4.56,17.91-10.14,20.06-12.41,2.15-2.27,9.85-7.57,17.1-11.78,12.99-7.55,20.02-12.94,21.37-16.42,3.04-7.83,82.15-49.99,119.08-63.48,9.7-3.54,17.64-7.1,17.66-7.9.12-5.71-31.18,3.25-78.29,22.41-17.49,7.12-58.24,30.75-68.26,39.6-3.92,3.46-9.8,8.14-13.06,10.4-3.27,2.26-7.23,6.54-8.81,9.5-3.66,6.89-16.97,20.4-20.08,20.4-2.69,0-41.33,18.95-53.27,26.12-8.33,5.01-38.48,22.61-45.03,26.29-2.15,1.21-20.18,10.27-40.07,20.13-34.07,16.9-37.58,18.2-60.95,22.52-32.64,6.04-58.05,18.06-73.97,34.99-4.99,5.3-18.87,19.4-30.86,31.33-41.55,41.36-59.83,62.63-80.43,93.6-8.08,12.14-16.33,23.86-18.33,26.05s-5.66,7.57-8.12,11.97c-5.42,9.69-25.41,36.22-26.48,35.15s8.79-20.2,11.21-21.69c3.29-2.03,2.27-4.93-2.41-6.84l-4.41-1.79,4.43-1.31c3.06-.91,6.54-5.77,11.26-15.71,3.76-7.92,6.83-15.19,6.83-16.17s1.32-2.87,2.94-4.21c1.62-1.34,2.94-4.43,2.94-6.87s2.04-5.77,4.75-7.54c2.61-1.71,5.36-5.12,6.1-7.57s3.3-7.1,5.69-10.33c2.38-3.23,9.49-15.13,15.8-26.43,6.31-11.31,15.56-25.85,20.56-32.31s12.05-16.15,15.66-21.54,7.12-10.23,7.79-10.77,2.49-2.84,4.05-5.12c5.93-8.69,24.48-27.53,34.97-35.5,16.04-12.19,16.09-12.25,14.87-16.09-1.22-3.84,8.22-10.64,18.17-13.09,4.55-1.12,15.67-6.17,62.08-28.19,4.31-2.04,17.07-7.67,28.36-12.5,11.29-4.83,20.82-9.65,21.17-10.71.35-1.06,1.79-1.49,3.2-.95,1.41.54,10.38-2.5,19.94-6.76,9.56-4.26,19.23-8.29,21.49-8.96,2.26-.67,16.36-7.86,31.33-15.97,23.53-12.75,43.03-21.8,71.28-33.09,3.77-1.51,11.7-3.77,17.62-5.04,17.9-3.82,31.55-9.46,35.7-14.73,2.16-2.74,8.59-7.63,14.3-10.85,8.85-4.99,16.57-12.62,16.57-16.36,0-2.53-6.25-.56-18.46,5.81-7.23,3.77-15.07,6.86-17.41,6.87-2.34.01-8.98,2.21-14.74,4.9-5.76,2.68-11.75,4.88-13.31,4.88s-5.22,1.2-8.13,2.68c-2.91,1.47-10.74,3.27-17.41,4-11.01,1.2-12.32.95-14.31-2.75-3.04-5.68,2.9-14.81,17.64-27.13,12.19-10.19,28.9-16.37,33.79-12.5,1.32,1.05,7.87,2.37,14.54,2.95,6.67.57,14.92,2.43,18.32,4.13,4.53,2.26,7.19,2.55,9.92,1.09,2.05-1.1,6.59-1.46,10.08-.81,4.05.76,8.48.08,12.21-1.86,3.22-1.68,9.82-3.06,14.67-3.06s16.74-1.34,26.43-2.97c42.52-7.14,39.06-7.03,54.89-1.86,18.35,5.99,39.07,15.32,41.02,18.47,1.11,1.8-.9,2.23-8.06,1.71-8.9-.64-9.51-.39-9.07,3.73.43,4.01-4.22,11.63-17.54,28.72-7.74,9.94-8.08,12.92-2.19,19.07,6.02,6.28,12.03,7.22,13.59,2.12,2.17-7.06,15.05-31,18.95-35.24,4.84-5.26,10.91-5.74,12.39-.98.58,1.88,1.88,4.96,2.88,6.83,2.55,4.78,2.26,10.81-.58,11.76Zm-170.08,360.78c-.2,3.71-3.47,9.95-3.58,6.85-.06-1.62.75-4.26,1.79-5.87,1.04-1.62,1.85-2.06,1.79-.98Zm-236.75,28.81c-13.37,2.9-40.93,11.09-51.66,15.36-10.57,4.21-13.76,4.73-12.05,1.97,2.92-4.73,54.74-19.92,66.41-19.47,5.34.21,4.99.48-2.7,2.14Zm137.9,145.41c-4.2,3.18-6.71,3.74-6.71,1.49s8-6.83,9.35-5.48c.62.62-.56,2.42-2.64,3.99Zm-118.32-370.88c0-1.01.88-2.39,1.96-3.05,1.08-.67,1.96.16,1.96,1.84s-.88,3.05-1.96,3.05-1.96-.83-1.96-1.84Z" style="fill: #fff;"/>
  <path d="m802.39,640.17c-1.08,0-1.96.88-1.96,1.96s.88,1.96,1.96,1.96,1.96-.88,1.96-1.96-.88-1.96-1.96-1.96Z" style="fill: #fff;"/>
  <path d="m839.6,224.09c5.92,1.59,12.31,2.9,14.2,2.91,4.71.03,4.32-5.24-.6-7.87-6.42-3.44-21.92-7.73-27.98-7.75-12.56-.05-43.65,11.53-45.77,17.04-.53,1.38-2.45,2.51-4.27,2.51-6.92,0-24.77,23.05-23.02,29.73.56,2.13-.16,7.2-1.6,11.27-3.18,9-5.86,32.3-4.06,35.21.72,1.16,6.13,2.11,12.02,2.11,8.08,0,11.01-.78,11.93-3.18.74-1.92-.08-3.9-2.05-5.01-2.92-1.63-2.95-2.15-.3-4.79,1.78-1.78,2.98-6.61,3.01-12.12.14-25.97,12.44-45.77,36.34-58.5,9.82-5.23,17.18-5.59,32.14-1.57Z" style="fill: #fff;"/>
  <path d="m763.99,320.83c-2.7-2.24-3.64-2.03-6.44,1.43-4.43,5.47-11.58,9.1-15.2,7.71-1.63-.62-5.2.63-7.94,2.79-2.74,2.16-6.16,3.92-7.6,3.92s-10.12,5.73-19.3,12.73c-11.8,9-18.37,12.73-22.44,12.73-8.1,0-15.81,3.29-15.81,6.74,0,1.79-1.13,2.49-2.94,1.8-1.68-.64-8.6,2.68-16.15,7.74-7.27,4.88-16,9.43-19.39,10.11-4.29.86-6.87,2.91-8.44,6.72-1.37,3.31-7.26,8.66-14.88,13.51-6.93,4.42-12.61,9.32-12.61,10.89s1.54,5.57,3.43,8.88c4.33,7.61,6.17,7.51,12.21-.62,2.68-3.61,5.87-6.18,7.09-5.71,1.22.47,6.32-2.69,11.32-7.01,5-4.33,12.38-9.36,16.4-11.19,4.02-1.83,11.28-7.04,16.12-11.58,6.04-5.66,11.15-8.61,16.24-9.38,5.73-.86,10.82-4.28,22.19-14.9,10.61-9.91,17.05-14.36,22.92-15.83,14.6-3.65,35.23-12.54,39.86-17.17,5.29-5.29,5.8-10.64,1.36-14.32Z" style="fill: #fff;"/>
  <path d="m579.6,430.09c-10.39,6.54-34.9,27.92-49.3,43.01-33.88,35.51-80.36,82.62-86.48,87.65-3.63,2.98-5.03,4.91-3.12,4.28,2.94-.97,3.15-.55,1.4,2.73-1.14,2.13-2.88,3.87-3.88,3.87s-6.88,5.07-13.08,11.26c-6.2,6.19-16.49,14.97-22.87,19.5-15.83,11.25-26.12,20.16-46.01,39.83-22.8,22.54-42.68,40.8-52.18,47.89-8.15,6.09-12.56,10.69-12.66,13.2-.09,2.08,5.36,1.83,6.68-.31.6-.98,6.71-4.4,13.57-7.61,6.86-3.21,15.89-8.8,20.07-12.43,13.21-11.47,23.07-18.63,31.82-23.09,4.67-2.38,13.16-8.01,18.87-12.51,9.98-7.86,27.38-20.82,40.66-30.3,3.47-2.48,20.4-18.01,37.63-34.53,17.23-16.52,36.61-34.59,43.08-40.16,6.46-5.57,17.48-16.71,24.47-24.74,19.38-22.25,38.53-43.56,51.21-56.97,11.13-11.77,11.44-12.4,11.44-23.01,0-12.17-1.94-13.47-11.33-7.56Z" style="fill: #fff;"/>
  <path d="m426.46,718.38c-13.83,9.37-6.34,6.99,8.87-2.81,7.51-4.84,14.45-8.8,15.44-8.81.99,0,1.29-.52.68-1.13-1.34-1.34-12.88,4.55-24.99,12.75Z" style="fill: #fff;"/>
  <path d="m664.26,771.13c2.99-2.79-1.3-1.94-6.76,1.35l-4.9,2.95,4.9-1.28c2.69-.7,5.73-2.06,6.76-3.02Z" style="fill: #fff;"/>
  <path d="m632.98,786.62c4.82-2.34,8.36-4.67,7.85-5.18-1.32-1.32-16.62,5.86-16.62,7.8,0,.9,3.95-.28,8.77-2.62Z" style="fill: #fff;"/>
  <path d="m866.74,251.18c-5.82-6.24-17.69-12.4-23.88-12.4-10.6,0-30.02,12.31-36.66,23.23-4.73,7.78-8.11,24.26-8.56,41.8-.4,15.46,1.05,18.51,7.62,15.99,1.57-.6,4.85.31,7.29,2.02,4.98,3.49,20.17,4.15,27.9,1.21,7.99-3.04,21.43-16.61,26.5-26.76,3.78-7.57,4.64-12.28,4.54-24.74-.11-13.37-.73-16.04-4.75-20.34Zm-3.67,33.75c-2.52,11.26-8.53,20.97-16.93,27.38-8.04,6.14-20.87,8.15-27.86,4.38-6.22-3.36-11.96-14.49-11.96-23.19,0-13.07,5.35-26.38,13.61-33.84,10.22-9.23,21.07-12.2,30.38-8.31,3.81,1.59,6.92,3.17,6.92,3.51s1.74,5.37,3.86,11.17c3.12,8.53,3.5,12.15,1.99,18.9Z" style="fill: #fff;"/>
  <path d="m848.39,260.72c-4.76-.47-6.55.53-9.31,5.21-1.88,3.18-2.88,7.2-2.21,8.92,1.25,3.25-2.24,8.96-5.48,8.96-1.02,0-1.31-1.69-.66-3.75,1.82-5.72-2.62-6.97-7.72-2.17-6.27,5.89-7.27,14.73-2.36,20.97,3.29,4.18,5.08,4.81,11.27,3.98,16.34-2.19,28-18.73,24.16-34.26-1.52-6.17-2.69-7.37-7.69-7.86Z"/>
</svg>