<?xml version="1.0" encoding="utf-8"?>
<!-- Generator: Adobe Illustrator 26.4.1, SVG Export Plug-In . SVG Version: 6.00 Build 0)  -->
<!DOCTYPE svg PUBLIC "-//W3C//DTD SVG 1.1//EN" "http://www.w3.org/Graphics/SVG/1.1/DTD/svg11.dtd" [
	<!ENTITY ns_extend "http://ns.adobe.com/Extensibility/1.0/">
	<!ENTITY ns_ai "http://ns.adobe.com/AdobeIllustrator/10.0/">
	<!ENTITY ns_graphs "http://ns.adobe.com/Graphs/1.0/">
	<!ENTITY ns_vars "http://ns.adobe.com/Variables/1.0/">
	<!ENTITY ns_imrep "http://ns.adobe.com/ImageReplacement/1.0/">
	<!ENTITY ns_sfw "http://ns.adobe.com/SaveForWeb/1.0/">
	<!ENTITY ns_custom "http://ns.adobe.com/GenericCustomNamespace/1.0/">
	<!ENTITY ns_adobe_xpath "http://ns.adobe.com/XPath/1.0/">
]>
<svg version="1.1" id="a" xmlns:x="&ns_extend;" xmlns:i="&ns_ai;" xmlns:graph="&ns_graphs;"
	 xmlns="http://www.w3.org/2000/svg" xmlns:xlink="http://www.w3.org/1999/xlink" x="0px" y="0px" viewBox="0 0 174.8 111.1"
	 style="enable-background:new 0 0 174.8 111.1;" xml:space="preserve">
<style type="text/css">
	.st0{fill-rule:evenodd;clip-rule:evenodd;fill:#FFFFFF;stroke:#000000;stroke-width:0.75;stroke-miterlimit:11.34;}
	
		.st1{fill-rule:evenodd;clip-rule:evenodd;fill:#FFFFFF;stroke:#000000;stroke-width:0.75;stroke-linecap:round;stroke-linejoin:round;}
	
		.st2{fill-rule:evenodd;clip-rule:evenodd;fill:none;stroke:#000000;stroke-width:0.75;stroke-linecap:round;stroke-linejoin:round;}
	.st3{fill:none;stroke:#000000;stroke-width:0.75;stroke-linecap:round;stroke-linejoin:round;}
	.st4{stroke:#000000;stroke-width:0.75;stroke-linecap:round;stroke-linejoin:round;}
	.st5{fill:#110A0D;}
	.st6{fill:#FFFFFF;stroke:#000000;stroke-width:0.75;stroke-miterlimit:11.34;}
</style>
<metadata>
	<sfw  xmlns="&ns_sfw;">
		<slices></slices>
		<sliceSourceBounds  bottomLeftOrigin="true" height="110.3" width="174.1" x="0.4" y="0.4"></sliceSourceBounds>
	</sfw>
</metadata>
<path class="st0" d="M173.8,91.7c0,0,0.1,0,0.1,0c-0.1-1-0.2-2-0.4-3c-0.1,0-0.2,0-0.3,0.1c-0.4-2.1-1-4.4-1.8-7.2
	c-32.4,6.9-92.9,17.2-142.5,10.2c0.9-5.2,0.8-11.9-0.3-17.1c0,0-12.6-2.1-18.2,0C8.1,75.6,5.4,82,4,86.2c-3,1.1-5.2,9.6-0.6,17.8
	c35.5,6.8,108.8,11.7,170.3-5.7C174.1,96,174.1,94,173.8,91.7L173.8,91.7z"/>
<path class="st1" d="M132.2,5.8c-3.4-5-11.8-7.7-15.2-1.6l0,0C92.3,65,56.2,66.9,28.9,74.6c-1.2,1.3,1.3,7.8,0.9,9.9
	c11-0.8,20.4,1.8,28.6-1.2c13.8-5,29.4-13.3,40.4-23.2c6-5.4,15.6-15.6,20-21.8c1.3-1.8,1.4-12.2,13.6-18.5
	C135.9,18,136.4,11.9,132.2,5.8z"/>
<path class="st2" d="M164.6,47.5c-8.1-21.1-6.7-23-7.4-40.3h0c-2.7-0.7-14.9,5.6-29.3,2.9c-1.7-0.3-8.9,2.8-11.2,9.3
	c-4.4,13.1-11.2,27.8-21,37c-11,9.8-23.5,18.5-37.4,23.5c-8.2,3-39.1,5.4-50.1,6.2c-1.1,6,0.6,14.1,2.5,17.3
	c24.2,7.6,88,3.8,126.3-4.6c12.2-2.1,23.5-5.3,31.8-8.2C171.5,75.8,169.6,60.4,164.6,47.5z"/>
<path class="st0" d="M173.9,91.7c0,0,0.1,0,0.1,0c-0.1-1-0.2-2-0.4-3c-0.1,0-0.2,0-0.3,0.1c-0.4-2.1-1-4.4-1.8-7.2
	c-32.4,6.9-92.9,17.2-142.4,10.2c0.9-5.2,0.8-11.9-0.3-17.1c0,0-12.6-2.1-18.2,0C8.1,75.6,5.5,82,4,86.2c-3,1.1-5.2,9.6-0.6,17.8
	c35.5,6.8,108.8,11.7,170.3-5.7C174.1,96,174.1,94,173.9,91.7L173.9,91.7z"/>
<circle id="d" class="st3" cx="94.7" cy="80.4" r="4"/>
<circle id="e" class="st4" cx="94.7" cy="80.4" r="1.6"/>
<circle id="f" class="st3" cx="113.3" cy="78.8" r="4"/>
<circle id="g" class="st4" cx="113.3" cy="78.8" r="1.6"/>
<g>
	<g>
		<path class="st5" d="M133,68.6c-2.2-2.6-5.6-3.9-7.4-6.9c-2.2-5.2-0.5-2.8-5.2-5.3c-3.4-2.5-3.8-7.9-0.3-10
			c-0.3-2.8-0.9-5.5-1.3-8.2c-0.2-5-2.9-12.4,2.8-15c7.3-2.7,15.3-4,23-5.1c12.9-2.1,9.5,13.4,10.6,21.8c1.7,0.5,3.4,2.1,4,4.2
			c1.1,3.2-1.2,6.2-3.3,7.8c0.7,3.1,1.3,6.7-1.1,9.2c-2.5,2.2-3.2,6.1-5.7,8.1c2.2-6.2,9-10.5,6-17.8c-0.1-0.5,0-0.6,0.5-0.6
			c2.5-0.4,3.6-4,3-6.3c-2.6-6.9-6.2,1.1-10-15.1c-1,1.6-0.2,3.6-0.8,5c-2.3-0.8-3.1-4.1-4.7-5.9c-0.5,2.8-0.9,5.5-0.4,8.4
			c-1.5,2.4-4-6.8-5-7.9c-0.1,16.6-1.1,9.4-6.1-0.6c0.3,13,0.9,15.4-4.9,1.6c-0.3,4,1.2,8.8-2.5,2.1c0.4,5,2.8,11.8-2.5,3.2
			c2.4,8,2.5,8.7-3.3,14c-0.8,3.6,1.8,7.5,5.5,7.7c0.8-0.1,0.8-0.1,1,0.7c0.2,1.5,0.6,2.9,1.6,4c2,3,5.7,4.1,7.6,7.2
			c1,1.8,2.1,3.6,4,4.6c3.4,1,8.6-0.4,10.5-3.5c0.2,0.2-0.2,0.7,0.3,0.7c0,0.1-0.2,0.1-0.1,0.3c0,0,0,0,0,0
			c-1.3,1.9-3.4,2.3-5.5,2.8c-3.1,2.1-6.5,0-8.7-2.1c-0.6-0.5-0.3-1.1-0.7-1.6c-0.3-0.3-0.3,0.2-0.2,0.4
			C132.7,69.1,134.5,69.4,133,68.6z M142.2,36.7c-0.1-3-0.3-6.4,0.9-9.1c1.9,1.4,2.5,4.6,4.6,6c0.8-14.4,2.6,5.1,6.9,6.6
			c-0.9-12.7,2.6-25.2-15-20.6c-6.8,2.9-22.3,0.2-20.4,11.7c0.2,2.2,1.1,20.6,3.6,12.5c0.9-3.3-2-6.7-1.3-9.7
			c1.5,0.6,1.9,3.3,3.3,4.4c-0.3-2.9-2.4-11.8,1.6-4.4c-0.6-12.7,2.8,1.3,5.1,4.7c-0.4-16.9-0.5-12.5,5.7-0.6
			C137,25.4,136.6,25.7,142.2,36.7z"/>
		<path d="M150,68.5c2.2-2.7,1.3,0.8,2.4,1.3c-2.2,2-2,5.6-4.4,7.8c-0.3-0.7-0.6,0.8-0.8,1c0.3-2.4-3.4,4.3-7.5,1.6
			c-0.1,0-0.2-0.2-0.3,0c-3.3-2.3-6.6-5-7.5-9.1c0.1-0.2,0.3-0.5,0-0.8c0.2-0.4-0.3-0.8-0.1-1.3c0,0.1,0,0.3,0.2,0.4
			c0-0.2,0.1-0.4-0.2-0.5c0.3-0.3,0.6,1,1-0.3c1.1,0.6,0.2,0.6,0.5,1.5c0.3,1.1,0.8,2.1,0.9,3.3c1.8,2.7,4.8,5.4,7.7,5.9
			c2.5-0.1,8.8-6.9,6.8-8.2C149.4,70.2,149.7,69.3,150,68.5z"/>
		<path class="st5" d="M145.5,85.4c-1.3,0.2-7.1,1.6-6.1-0.5c2.9-2,7.2-1.5,10-2.7C154.1,83.6,147.4,85.2,145.5,85.4z"/>
		<path class="st5" d="M137.9,79.1c1.7,0,2.1,3.7,0.7,1.3c-0.2,3.5-1.6,1-3.1-0.3c-0.4,0.2-0.2,1.9-0.9,1.1
			c-0.1-0.4-0.3-0.3-0.6-0.1c-2,0.4-1.9-5.4-0.9-6.6c0.4,1.4-0.6,3.4,0.3,5.1c0.3,0.6,0.7-0.5,1.2,0.1c1.1-3,0.9,0.4,2.1,0.5
			C138.1,80.7,137.6,81.2,137.9,79.1z"/>
		<path class="st5" d="M150.8,72.3c0.1-0.3,0.2-0.6,0.3-0.8c0.7,1.7,4.7,6.4,1.7,7.1c-0.5-0.4-0.4,0.6-0.9,0.3
			c-1.7-1-0.8,1.5-0.9,2.4c-0.7,1.9-0.9-2.8-1.7-1.9c-0.9,0.9-1.4-0.3-1.5-1.1c0.2,0,0.3,0.4,0.6,0.2c0.8,0.8,0.7-1.5,2,0.7
			c-0.1-3.3,0.9-0.8,1.7-1.8c0.4-0.7,0.5,0.3,1,0.2C153.5,75.8,151.6,73.9,150.8,72.3z"/>
		<path class="st5" d="M132,71c0.3,0.2,0.3,0.4,0.3,0.7c-1-0.3-0.8,1.7-1.9,0.8c-1.4-1.6-0.8-5,1.6-3c0.6,2.1-1.5-0.7-1.6,0.1
			C130.5,73.3,130.5,71.1,132,71z"/>
		<path class="st5" d="M152.7,68c3.3-4.2,2.5,6.7,0.1,2.2c0,0,0,0,0,0c0-0.3,0-0.7,0.1-1c0.5-0.1,0.2,1.5,0.8,1.4
			c0.7-0.4,0.4-1.8,0.3-2.6c0-0.2-0.4-0.4-0.4-0.1C153.6,68.7,152.2,68.9,152.7,68z"/>
		<path d="M152.7,68c0,0.4-0.4,1,0.2,1.1c-0.2,0.3,0,0.6-0.1,0.8c-1.2-0.4-0.6-1.2-1.1-2C152,67.8,152.3,67.9,152.7,68z"/>
		<path class="st5" d="M139.8,80.1c0.6,0.2,1.2,0.3,1.7,0.6C140.7,81.3,140.1,81.1,139.8,80.1z"/>
		<path class="st5" d="M152.9,80.5c0.3,0.4-0.2,1-0.5,0.4C152.1,80,152.7,79,152.9,80.5C152.9,80.5,152.9,80.5,152.9,80.5z"/>
		<path d="M148.3,78.5c-0.3,0.2-0.3-0.3-0.6-0.2C147.1,76.9,148.3,77.3,148.3,78.5z"/>
		<path d="M134.8,71.7c0.1,0.6-0.1,1.1-0.4,1.6c-0.1-1.2-0.6-2.2-0.9-3.3c0.5,0,0.2,0.8,0.7,0.8C134.4,71.2,134.6,71.5,134.8,71.7z"
			/>
		<path d="M148.8,70c0.2-0.7,0.7-1.1,1.2-1.5C149.7,69.1,149,71.8,148.8,70z"/>
		<path class="st5" d="M143.1,59.4c3.3-1.4,6.5,2.5,4.6,5.6c-2.8,3.9-12.4,6.6-12.6-0.6C135.1,60.4,140.3,60.3,143.1,59.4z
			 M144.3,65c-0.3-0.3-1.1,0.1-0.9,0.6c0.2,0.3,0,1.4,0.7,0.7c0.6,0.1,0.5-0.1,0.4-0.5C144.4,65.6,144.6,64.7,144.3,65z M137.3,66.8
			c-0.4,0,0.2,0.6,0.2,0.8c0.4,0.9,0.8,0.5,1.6,0.4c0.4-0.2-0.2-1.2-0.2-1.7C138.6,66,137.6,66.6,137.3,66.8z M141.3,67.3
			c-0.3-0.4-0.2-1.7-0.9-1.4c-0.3,0.3-1.3,0-1,0.6c0.3,0.3,0.3,1.5,0.7,1.3C140.5,67.4,141.4,67.9,141.3,67.3z M145,61.4
			c-0.2,0.9,1.4,0.1,1-0.4c-0.3-0.3-0.4-1.9-1-1.2C143.8,59.8,145,60.9,145,61.4z M142.1,62.6c1.2-0.2,0.2-1.7-0.2-2.2
			c-0.3,0-0.1,0.7-0.5,0.5C140.8,60.7,141.6,62.9,142.1,62.6z M146.3,65.7c0-0.5,0.2-1.2-0.1-1.6c-0.4,0-1.7,0.1-1.3,0.8
			C145.1,66.9,145.4,65.4,146.3,65.7z M142,67.4c1.2-0.9,1.1,0.4,0.8-2.1C141.5,65.4,141.5,66.3,142,67.4z M140.2,60.9
			c0,0.8-1,0.2-0.8,0.8C140,64.2,141.7,62.9,140.2,60.9z M136.8,62.2c-1,0.7-0.9,0.6-0.5,1.7c0,0.1,0,0.4,0.2,0.2
			C137.8,64,137.4,63,136.8,62.2z M143.6,59.9c-0.4,0.5-0.9,0.1-0.7,0.7C143.4,63.2,145.1,61.8,143.6,59.9z M138.8,63.5
			c1,0.1-0.2-1.6-0.6-1.8C137,61.7,138.1,63.9,138.8,63.5z"/>
		<path class="st5" d="M146.8,47.6c-0.7,0-2,0.9-2.2-0.2c-0.2-2.4-2.4-5.4,0.3-6.8c1.1-0.5,3.4-0.9,4.3-0.2
			C150.3,43.3,151.3,47.9,146.8,47.6z M148.7,42.8c0-2.3-3-0.5-4.4-0.7c-1.5,0.6,0.7,3.4,0.5,4.8C149.2,45.6,149.7,47.6,148.7,42.8z
			 M148,41.1c2.7-0.8-2.7-1.1-3.1,0C144.2,42.1,147.3,41,148,41.1z"/>
		<path class="st5" d="M129.2,44.2c1.2-0.3,2.6-0.7,3,0.9c0.1,1.4,2.2,4.3,0.5,5c-1.8,0.4-5.2,2.7-6.1,0.1
			C125.2,45.9,124.1,45.2,129.2,44.2z M130.8,45.1c-1.2,0.6-4,0.5-4.3,1.7c0.8,0.9,0.6,4.3,1.7,4c0.8-1.7,5.4-1.1,4.9-1.7
			C132.4,47.9,132.6,44.3,130.8,45.1z M130,44.4c-0.8,0.3-5,1.1-4,1.8C126.8,45.7,133.8,43.9,130,44.4z"/>
		<path class="st5" d="M129,41c1.1,0,0.9-0.9,1.5-1.2c0.5,0.2-0.2,0.7,0.3,0.9c0.9,0.6,0.9-0.6,1.5-0.5c0.5,0.3-0.6,0.8,0,1.1
			c1.3,0.7,0.2,0.7-0.5,0.5c-0.2,0.1-0.2,0.4-0.4,0.6c-0.2,0.6-0.9,0.3-0.5-0.2c0.3-0.6,0.5-0.8-0.3-0.9c-0.7-0.2-0.3,1.1-0.9,1
			c-0.4-0.1-0.1-0.5-0.1-0.8c-0.5,0.1-0.9,0.2-1,0.8c-0.1,0.6-0.9,0.3-0.5-0.2c0.1-0.2,0.1-0.4-0.2-0.5c-0.7-0.5-0.7,1.7-1.2,0.6
			c0.6-1.3-0.7-0.4-0.9-1.1c0.2-0.6,1.3,0.2,1.3-0.6c0.6-1.1,0.4,0.8,1,0.7c0.5,0,0.3-0.6,0.4-0.9C129,39.3,129.2,40.5,129,41z"/>
		<path class="st5" d="M139.1,52.1c-0.4-1.5,0.4-0.6,0.5,0.4c0.2,0.6,1.4,0.1,1.4,1c0.1,0.5,0,0.9-0.5,1.2c-1.1,0.5,0.3,2.1-0.4,2.8
			c-0.3-0.6-0.8-2.5-0.1-3c0.9-0.1,0.9-1.5,0-1.3C139.2,53.5,139.4,52.6,139.1,52.1z"/>
		<path class="st5" d="M138.5,56.7c0.1,0.3,0.4,1.9-0.1,1.1c-0.2-0.5,0-1.6-0.6-1.8c-1,0.1-1.2,0-1.4-0.7c-0.1-2.1,1.7-0.7,0.8-3.5
			c0.4,0.2,1.1,2.2,0.5,2.3c-1.1-0.1-1.3,2,0,1.6C138.5,55.1,138.3,56.1,138.5,56.7C138.5,56.7,138.5,56.7,138.5,56.7z"/>
		<path class="st5" d="M119.9,50.6c-0.6-1.3,1-3.1,2.1-2c-1.5-0.1-2.2,0.9-1.6,2.5C120.8,52.4,119.9,51.2,119.9,50.6z"/>
		<path class="st5" d="M120.9,54.4c0.5,0.2,0.7,1,1.4,0.4c0.5-0.6,2-0.1,1.8,0.7c-1.3-1.1-1.1-0.1-2.2-0.1
			C121.6,55.1,120.6,54.8,120.9,54.4z"/>
		<path class="st5" d="M157.1,43.5c-0.2,1.3-0.7-2.3-2.4-1.5C155.4,40.6,157,42.5,157.1,43.5z"/>
		<path class="st5" d="M157.6,48.1c-0.4,1.6-1.2,1.2-2.4,1.1c0.5-0.8,1.9,0.3,2.1-1.2C157.4,47.9,157.6,47.9,157.6,48.1z"/>
		<path class="st5" d="M119.9,52.1c-0.1,0.4,1,2.4,0.3,1.7C119.6,53.2,119.4,50.1,119.9,52.1z"/>
		<path class="st5" d="M157.5,43.4c0.3,0.4,0.5,0.9,0.4,1.4C157.7,44.3,157.6,43.9,157.5,43.4z"/>
		<path class="st5" d="M137.4,66.7c0.2,0.1,0.1,0.2,0.2,0.5C137.4,66.9,137.2,66.9,137.4,66.7z"/>
		<path class="st5" d="M144.2,65.2c0,0.1,0,0.2,0,0.3C143.9,65.4,143.9,65.1,144.2,65.2z"/>
		<path class="st5" d="M144.3,65c0,0.1-0.1,0.1-0.1,0.2C144.1,65.1,144.2,65,144.3,65C144.3,65,144.3,65,144.3,65z"/>
	</g>
	<circle id="g_00000008137333075700623680000008282238140105616549_" class="st4" cx="124.1" cy="18" r="1.6"/>
	<circle id="f_00000049222756347758899700000006812015536883560376_" class="st3" cx="124.1" cy="18" r="4"/>
	<path class="st6" d="M139.7,39.3c0,0-2-1-3.9-2.7c-7.6-6-0.8-6.4-1.9-13.4c-0.8-3.4-6.2-6.9-8.3-7.5c-1.2,0-4.2,3.2-2.6,4
		c14.4,7.8-5.3,8.6,9,21c2.2,2,4.2,3.4,4.2,3.4C138.7,46.1,142.4,41,139.7,39.3z"/>
	<path class="st6" d="M94.4,37.4L94.4,37.4c-1.9,1.3-2.5,3.2-3.2,4.9c6.1,4.3,11,7.4,13.7,10.4c1.2-1.1,2.4-2.4,2.6-5
		C108,47,96,37.7,94.4,37.4z"/>
	<path class="st6" d="M86.2,46.4L86.2,46.4c-2,0.2-3.3,2.8-4.2,3.9c6.4,6.5,9.4,9.2,12.2,13c1.4-0.2,2.8-2.2,3.7-3.9
		C98.6,59.1,88,47.4,86.2,46.4L86.2,46.4z"/>
	<path class="st6" d="M56.9,65.3c-3.1-0.8-5.4,0.3-6.2,2.4c-0.8,3.1,2.9,18.1,3.9,17.6c1.4,0.9,3.4,0.4,5.8-1.2
		C59.2,80.3,56.2,74.1,56.9,65.3z"/>
	<path class="st6" d="M76.6,54.8c-2.7-0.8-5.4,2.4-5.3,3.7c7.7,6.2,9.6,11.3,11.8,14.9c1.6-0.3,3.2-1,4.9-3.7
		C88.6,69.5,78.6,55.9,76.6,54.8L76.6,54.8z"/>
	<path class="st6" d="M61.5,63.8c0.8,3.4,8.4,18.1,9.1,17.2c1.5-1.1,3.1-1.4,4.6-3.9c-4.3-6.3-5.6-8.7-8.8-16.2
		C64.2,60.8,62.4,60.4,61.5,63.8L61.5,63.8z"/>
	<path class="st6" d="M43.3,70.5c-2.3-0.8-3.8-0.6-6.5,1.1c-1.3,2.5,0,16.5,1.1,16.3c2.3,1.8,4.1,0.4,5.9-0.1
		C43.3,83.6,41.8,77.5,43.3,70.5z"/>
	<path class="st6" d="M100.9,28.1c-1.7,1.5-2.2,3.4-2.8,5.2c6.5,3.7,11.7,6.3,14.6,9c1.1-1.2,2.1-2.6,2.1-5.2
		C115.3,36.3,102.5,28.2,100.9,28.1L100.9,28.1z"/>
</g>
<path class="st6" d="M103.1,101.8c23.8-15.5,23.8,8.6,60.5-5.6c5.8-2.1,10.1-4.2,10.1-4.2"/>
</svg>
