<?xml version="1.0" encoding="UTF-8"?><svg id="a" xmlns="http://www.w3.org/2000/svg" width="1024" height="1024" viewBox="0 0 1024 1024"><path id="b" d="m38.33,282.55l-1.7,45.15c203.72,169.38,683.65,389.48,867.27,433.63l8.51-35.79L38.33,282.55h0Z" style="stroke:#000;"/><path id="c" d="m38.33,281.7c254.57,207.63,710.84,390.77,874.93,443l73.27-121.83C691.34,464.03,363.57,343.13,60.49,264.66c-10.8,3.41-18.18,9.09-22.16,17.04h0Z" style="stroke:#000;"/><path id="d" d="m455.87,466.04c79.69,21.14,149.21,12.55,212.05-9.64v38.25c-3.08,49.46-151.03,90.79-211.44,7.23l-.6-35.84h-.01,0Z" style="stroke:#000;"/><path id="e" d="m451.95,446.77l219.28-.6c-5.61,86.75-215.07,91.75-219.28.6h0Z" style="stroke:#000;"/><path id="f" d="m451.64,445.56c57.59,79.93,185.27,58.65,216.26,4.82l-216.26-4.82h0Z" style="stroke:#000;"/><path id="g" d="m411.01,368.65c35.42-93.73,247.3-92.48,301.34-5.91,2.22,8.37,3.99,15.45,2.87,23.82-18.28,111.45-268.06,123.89-306.57,5.08-.93-7.1-.11-16.32,2.34-22.99h.02Z" style="stroke:#000;"/><path id="h" d="m453.58,332.97c112.03-68.93,250.33-5.95,242.9,53.09-2.59,15.03-11.59,28.48-14.31,30.52-28.44,45.65-290.8,50.56-250.33-57.02,6.65-13.76,12-17.77,21.74-26.59h0Z" style="stroke:#000;"/><path id="i" d="m447.1,390.06c-1.29,66.64,222.38,79.33,229.37,2.86-14.35-81.24-210.49-91.51-229.37-2.86h0Z" style="stroke:#000;"/><path id="j" d="m458.43,413.68c17.53-96.51,209.49-57.14,206.59.23-18.02,33.71-163.14,51.01-206.59-.23h0Z" style="stroke:#000;"/><path id="k" d="m470.3,423.32c38.85,32.22,137.98,33.96,180.12,2.54-30.61-50.87-160.63-42.62-180.12-2.54Z" style="stroke:#000;"/><path id="l" d="m480.46,429.35c22.05-42.35,142.78-33.18,160.43,1.27-14.49,18.44-122.41,30.01-160.43-1.27h0Z" style="stroke:#000;"/><path id="m" d="m506.52,441.31c26.45-25.35,88.75-21,116.9-2.19-34.44,11.67-71.52,17.46-116.9,2.19Z" style="stroke:#000;"/><path id="n" d="m978.01,639.52l9.37-34.93-74.12,120.12-9.37,35.78,74.12-120.97h0Z" style="stroke:#000;"/><path id="o" d="m903.89,760.49l74.12-120.97" style="fill:#500; stroke:#000;"/></svg>