<?xml version="1.0" encoding="UTF-8"?><svg id="a" xmlns="http://www.w3.org/2000/svg" width="1024" height="1024" viewBox="0 0 1024 1024"><g id="b"><path id="c" d="m326.6,733.46c-114.39,10.06-189.68,4.54-224.96,71.27-29.22,59.75-77.3,217.72-77.3,217.72h976.06c-36.98-101.33-42.8-226.04-139.28-266.73-42.26-15.59-193.73-24.5-193.73-24.5l-17.82,6.68-42.32,64.59-26.73,31.18-75.73,13.36-106.91-17.82-37.86-24.5-31.18-44.55-2.25-26.71h0Z"/><path id="d" d="m339.69,143.65s-44.1,58.27-89.77,215.76c-38.06,142.77-87.96,281.9-148.04,416.57l-78.75,246.48h224.43s19.69-502.4,19.69-521.29,44.1-226.79,45.67-239.38c1.57-12.6,26.77-118.12,26.77-118.12h0v-.02Z"/><path id="e" d="m280.94,517.42s26.73-181.53,60.14-220.5c33.41-38.98,92.43-102.45,92.43-102.45,0,0,33.41-18.93,70.16-16.7,36.75,2.23,83.52,21.16,83.52,21.16l49,50.11,43.43,62.36,20.05,69.05,15.59,73.5s6.68-132.52,6.68-138.09-35.64-143.66-70.16-179.29c-34.52-35.64-151.45-60.14-159.25-60.14s-77.95,10.02-77.95,10.02l-65.7,59.02-43.43,103.57-40.09,208.25,15.59,60.14h-.01Z"/><path id="f" d="m626.17,256.83l55.13,76.28,17.82,93.55s-14.48,121.94-17.26,129.74-27.84,85.19-29.51,96.89c-1.67,11.69-8.91,87.42-9.47,100.23s0,11.14,0,11.14l-45.66-37.3-16.15-84.63,49-218.84-12.25-154.79,8.36-12.26h-.01Z" style="fill:#2b0000;"/><path id="g" d="m654.02,383.78s15.59,112.48,12.25,131.41-49,151.45-49,160.37-302.91,74.61-302.91,74.61l16.7-25.61s-1.11-63.48-20.05-141.44c-18.93-77.95-30.07-172.61-5.57-210.48,24.5-37.86,75.73-119.16,75.73-119.16l64.59-28.95,171.5,104.68,36.75,54.58h.01Z"/><path id="h" d="m346,481.47l14.17,137.8,7.87,78.75-14.96,23.62-29.92,17.32,29.92,51.97,73.23,48.82,101.58,2.36,66.93-20.47,36.13-43.14,7.97-30.1-17.4-29.52-13.09-98.05-4.15-110.25-258.29-29.13v.02Z" style="fill:#fca;"/><path id="i" d="m346.78,504.3c5.94,56.71,19.65,85.31,63,123.63,14.96,14.17,51.19,26.77,59.85,34.65,8.66,7.87,19.69,33.86,19.69,33.86,0,0-2.36,7.09,23.62,10.24,25.99,3.15,30.71,4.72,36.22,14.96,5.51,10.24,14.17,58.27,14.17,58.27,0,0,6.3,17.32,29.14,14.17s39.37-14.17,41.74-18.9c2.36-4.72,4.72-36.22,4.72-36.22l-15.96-12.29-8.33-142.53,6.97-94.8-274.82,14.97h0Z" style="fill:#f6ab78;"/><path id="j" d="m594.83,556.28l3.15,111.82,4.72,34.65s3.94,12.6,14.96,24.41,14.96,15.75,14.96,15.75c0,0-59.85,87.41-93.71,88.98s-123.63,3.94-151.19-16.54c-27.56-20.47-45.67-55.91-45.67-55.91l-5.51-21.26,17.32.79s18.11,1.57,20.47-11.02c2.36-12.6-5.51-122.05-5.51-122.05-1.96-18.96-8.58-40.48-10.24-61.42l-3.15-16.54-15.75-122.05,7.09-48.04,18.11-76.38,1.57-3.94s-28.35,29.92-36.22,81.11,8.66,207.89,8.66,207.89l13.39,102.37s5.51,36.22,1.57,44.1c-3.94,7.87-59.85,24.41-59.85,24.41l60.63,61.42s87.41,59.85,122.05,58.27c34.65-1.57,109.46-27.56,122.84-39.37,13.39-11.81,48.04-58.27,48.04-58.27l-10.24-27.56-7.87-5.51s-8.66-74.81-8.66-86.62,0-62.21,1.57-73.23c1.57-11.02,12.6-67.72,12.6-67.72l11.81-77.17-51.97,134.64h.03Z" style="fill:#562121;"/><path id="k" d="m448.55,191.13s-66.26,54.57-81.3,79.63c-15.03,25.06-32.3,87.98-33.97,128.63s6.13,110.25,30.07,152.57,50.11,51.78,60.14,57.91c10.02,6.13,49,19.49,69.6,19.49s69.6-12.81,95.77-51.78c26.17-38.98,55.13-114.7,56.24-118.6s10.58-97.44,8.91-108.58c-1.67-11.14-12.25-70.72-18.37-84.08-6.13-13.36-32.85-54.01-48.44-62.92s-43.99-16.7-60.14-16.7-28.4-5.01-39.53-3.34-24.5,2.23-24.5,2.23l-14.48,5.56v-.02Z" style="fill:#fca;"/><path id="l" d="m595.62,549.97s0,126,7.87,142.53c7.87,16.54,18.11,37.01,18.11,37.01,0,0-24.41,1.57-34.65-13.39-10.24-14.96-21.26-27.56-25.99-40.95-4.72-13.39-5.51-40.16-5.51-40.16l-6.3-53.55,46.46-31.5h.01Z" style="fill:#b66d49;"/><path id="m" d="m501.91,391.3l-3.94,55.52,3.15,5.51s2.76,2.76,7.09,0c13.63-9.06,8.24-10.48,26.45-9.63,8.06,6.97,8.32,10.7,4.66,20.66-3.62,5.77-3.84,9.09-14.17,11.81-4.81-3.3-9.33-5.43-14.96-6.3,0,0-10.24,4.33-11.02,5.91-.79,1.57-9.06,10.63-9.06,10.63-11.01,5.38-10.25,3.33-12.21,14.57,0,0,7.87,8.27,12.6,8.27s25.99,4.72,25.99,4.72l18.11,6.3,8.66,9.84-30.32,8.66-10.24,5.51,3.54,6.69,2.76,8.27s9.06-3.94-11.42-1.18-30.71,5.51-30.71,5.51c0,0-14.96,6.69-16.14,11.02s-1.57,6.3,5.12,13.39,22.84,21.26,22.84,21.26c0,0,7.87,11.42,13.39,13.78,5.51,2.36,11.81,4.33,24.02,4.33,37.52-6.08,75.41-44.06,89.77-72.45,5.12-11.02,14.96-32.29,14.96-32.29,0,0,16.14-48.04,19.69-67.33,3.54-19.29,5.51-42.52,3.54-47.64-1.97-5.12-1.97-18.9-7.09-22.84-5.12-3.94-22.44-42.13-27.17-47.25-4.72-5.12-48.04-14.96-48.04-14.96l-20.87,1.57-18.9,3.94-16.93,37.4-3.15,26.77v.03Z" style="fill:#fcbe94;"/><path id="n" d="m492.85,209.4s-26.77-.79-38.19,4.72-33.47,17.72-33.47,17.72c0,0-14.57,14.96-21.66,24.41-7.09,9.45-24.02,26.38-25.59,29.53s-11.81,19.29-11.81,19.29l-6.3,12.6s-1.97,6.69,1.57,9.06c3.54,2.36,23.23-13.78,23.23-13.78l59.06-15.75,47.52,17.15,9.87,22.61,2.46,27.56-1.97,41.74-1.97,20.47-1.57,20.47s2.76,5.12,5.51,5.12,9.98-.28,9.98-.28c0,0,4.59.28,5.38-2.48s-1.18-11.42-1.97-15.36c-3.3-27.68,2.91-54.48,5.91-81.9,5.5-22.45,13.29-26.77,31.25-36.18,7.48-3.94,26.63-11.07,46.32-2.8,19.69,8.27,33.86,16.14,33.86,16.14l7.48,9.84,1.97,3.54s0-24.81-3.54-32.68-25.59-42.52-30.71-51.58c-5.12-9.06-12.6-25.99-22.05-33.86s-29.53-12.21-50.79-14.96c-21.26-2.76-39.77-.39-39.77-.39h0v.03Z" style="fill:#fcbe94;"/><path id="o" d="m540.49,310.4c-9.43.93-21.26,32.88-22.44,38.39-3.8,27.42-5.29,55.06-6.69,82.68v12.6s9.84-5.91,12.6-5.91,14.17,1.97,15.75,5.91c1.57,3.94,3.54,12.6,3.54,12.6,0,0,10.06,7.16,14.96,6.3,37.49-14.04,18.83-64.53,3.15-72.05-1.97-1.97-17.72-38.19-17.72-40.16s3.94-21.26,2.36-22.84,3.91-18.46-5.51-17.52h0Z" style="fill:#fca;"/><path id="p" d="m535.41,313.34c-1.39,4.45-3.06,13.92-3.06,16.15s-.56,30.63-.28,31.74c.28,1.11.28,16.98,13.08,24.5,12.81,7.52,21.16,12.81,26.45,12.81s39.26-4.45,43.15-7.8c3.9-3.34,8.91-8.07,8.91-8.07l13.08,5.57s5.57,11.14,6.68,21.44-1.39,37.31-1.39,37.31l-4.99,24.46-9.2,30.34s29.39-63.42,29.78-99.9c.11-10.3-.28-13.92-1.95-26.73s-15.31-34.24-18.1-37.86c-2.78-3.62-18.65-22.55-35.64-27.28-16.98-4.73-28.4-8.07-32.85-8.07s-16.98,2.78-16.98,2.78c-10.02,3.36-11.02,4.84-16.7,8.63h0v-.02Z" style="fill:#f6ab78;"/><path id="q" d="m473.56,356.27s-10.63-13.39-17.32-18.51-20.08-9.45-38.19-9.45-33.07,18.51-33.07,18.51l-9.06,8.27s14.57,14.96,38.59,16.93,40.55,1.97,49.61-6.3c9.06-8.27,9.45-9.45,9.45-9.45h-.01Z" style="fill:#fff;"/><path id="r" d="m541.28,368.86s19.88-12.66,29.72-16.2c9.84-3.54,27.59,1.16,29.95,3.92s12.55,8.5,12.55,8.5l11.64,13.63s-23.62,5.91-25.99,7.87c-2.36,1.97-31.89.79-36.62-3.15-4.72-3.94-15.75-9.06-15.75-9.06l-5.51-5.51h.01Z" style="fill:#fff;"/><path id="s" d="m446.42,350.32c0,9.93-8.22,17.99-18.36,17.99s-18.36-8.05-18.36-17.99,8.22-17.99,18.36-17.99,18.36,8.05,18.36,17.99h0Z" style="stroke:#4b1c1c; stroke-width:2.02px;"/><path id="t" d="m601.77,366.89c0,9.93-8.22,17.99-18.36,17.99s-18.36-8.05-18.36-17.99,8.22-17.99,18.36-17.99,18.36,8.05,18.36,17.99Z" style="stroke:#4b1c1c; stroke-width:2.02px;"/><path id="u" d="m461.56,440.01c-12.92,10.31-5.96,26.32,6.49,30.43,5.12,1.57,16.93,2.76,16.93,2.76,11.84,9.61,22.63,1.53,24.41-9.84,0,0,0-6.3-1.97-10.63s-9.84-7.48-9.84-7.48c-3.74-16.56-.4-33.66.79-50.4,1.83-23.57,3.17-53.27-4.86-70.31-5.91-12.21-21.13-20.64-27.82-24.18s-38.19-5.91-46.85-5.51c-8.66.39-27.56,9.06-27.56,9.06l-12.99,10.24-10.24,10.24-3.94,12.6c2.19,7.58-2.87,20.52,14.96,16.93,3.94-1.57,23.62-13.78,23.62-13.78l25.01-3.82c16.97,5.95,27.71,9.33,43.23,18.51,0,0,13.16,10.08,14.83,26.26.4,3.92-3.54,32.29-4.33,33.86-.79,1.57-3.94,14.57-5.91,18.51s-5.93,7.06-5.93,7.06c0,0-5.37-2.08-8.04-.49h0v-.02Z" style="fill:#ffb380;"/><path id="v" d="m375.33,349.54s26.45-20.32,36.47-23.11c10.02-2.78,36.19,2.78,38.98,3.62,2.78.84,15.03,13.08,15.03,13.08,0,0,2.51,4.45,7.52,4.45s11.97-3.9,12.53-6.4c.56-2.51-1.67-18.37-4.73-22.27s-18.1-22.83-38.7-22.83-46.22,4.18-53.73,8.35c-7.52,4.18-28.68,27.84-28.68,27.84,0,0-1.95,1.95-1.95,7.52s1.67,10.02,5.85,11.14c4.18,1.11,11.42-1.39,11.42-1.39h0Z" style="fill:#b66d49;"/><path id="w" d="m363.91,331.16s5.29-14.76,18.93-25.06c13.64-10.3,30.9-16.43,37.86-17.54,6.96-1.11,24.5-1.67,35.64,1.11s20.05,9.47,21.72,10.86c1.67,1.39,8.63,9.19,8.63,9.19,0,0,10.02,17.26-4.45,7.52-14.48-9.74-26.73-20.05-40.65-19.49-13.92.56-28.4,0-34.8,3.06s-20.05,10.02-26.73,15.87c-6.68,5.85-16.15,14.48-16.15,14.48h0Z" style="fill:#4f2002;"/><path id="x" d="m379.65,356.85s12.21,3.35,13.19,2.17,6.89-13.19,13.19-15.55,13.58-6.1,24.41-4.33,25.79,9.84,25.79,9.84l10.24,8.47,3.54,2.76s2.56-5.71-2.95-10.43-22.25-11.42-23.23-12.21c-.98-.79-10.04-5.12-15.95-5.12s-18.9,2.76-24.81,6.89-13.58,11.22-13.58,11.22c0,0-.2,1.18-2.36,2.76s-7.48,3.54-7.48,3.54h0Z" style="fill:#500;"/><path id="y" d="m380.61,360.39s12.25-2.23,15.87-.84,18.1,6.13,21.99,6.96c15.84,3.14,25.94.06,38.7-7.8,3.06-.56,5.85-.56,10.3-.56s-5.57,2.78-7.8,5.01-7.52,10.58-20.6,11.97c-13.08,1.39-32.57-3.06-37.58-5.57-5.01-2.51-10.86-5.29-12.81-6.68-1.95-1.39-8.07-2.51-8.07-2.51h0v.02Z" style="fill:#500;"/><path id="z" d="m436.87,349.62c0,4.46-3.8,8.07-8.49,8.07s-8.49-3.61-8.49-8.07,3.8-8.07,8.49-8.07,8.49,3.61,8.49,8.07Z" style="fill:#170600;"/><path id="aa" d="m432.12,339.31l2.51,8.63,6.13-.28-1.95-7.8-6.68-.56h-.01Z" style="fill:#fff;"/><path id="ab" d="m540.7,365.71s5.12,3.54,10.04.39,11.61-9.06,18.7-10.04,20.28.39,22.64,1.38c2.36.98,13.39,6.89,13.58,7.87.2.98,7.28,11.02,7.28,11.02,0,0,1.97,1.77,5.91,1.77s0-8.47,0-8.47c0,0-8.47-13.58-17.52-16.54-9.06-2.95-17.52-5.32-25.2-4.33-7.68.98-23.23,8.27-23.23,8.27l-7.68,7.09-4.53,1.57v.02Z" style="fill:#500;"/><path id="ac" d="m592.33,367.43c0,4.46-3.8,8.07-8.49,8.07s-8.49-3.61-8.49-8.07,3.8-8.07,8.49-8.07,8.49,3.61,8.49,8.07Z" style="fill:#170600;"/><path id="ad" d="m587.58,357.13l2.51,8.63,6.13-.28-1.95-7.8-6.68-.56h-.01Z" style="fill:#fff;"/><path id="ae" d="m552.95,372.37s18.93,11.69,38.14,11.14c19.21-.56,27.56-6.4,27.56-6.4l2.23-2.51s-.28,7.8-8.91,10.86c-8.63,3.06-17.54,4.18-25.34,4.18s-27.28-6.96-27.28-6.96l-7.8-5.85-1.67-2.78,3.06-1.67h.01Z" style="fill:#500;"/><path id="af" d="m466.37,464.52s6.96-4.18,8.35-3.62,5.29.84,5.29.84l6.13,2.78,4.18,2.78s-7.24,2.23-9.19,2.23-8.35-2.23-8.35-2.23c-1.36-.58-1.7-1.14-6.4-2.78h-.01Z" style="fill:#003;"/><path id="ag" d="m510.07,467.3s10.02-4.45,11.14-4.73c1.11-.28,6.4.84,6.96,2.23s1.39,5.01,0,5.01-6.68.28-6.68.28l-7.8-1.11-3.62-1.67h0Z" style="fill:#003;"/><path id="ah" d="m439.36,521.32s9.47,1.95,11.69,2.78,13.13,1.85,17.03,1.85,15.54-2.97,19.72-1.57c4.18,1.39,19.29.69,22.91,2.36,3.62,1.67,20.52,4.04,22.47,4.04s15.03-2.78,15.03-2.78l-.56-1.95s-12.25-1.95-13.92-2.78c-1.67-.84-8.63-8.07-11.97-8.91-3.34-.84-14.2-3.62-18.37-2.23-4.18,1.39-11.14.56-14.2-.56-3.06-1.11-11.69-.56-16.15.56-4.45,1.11-17.82,3.62-19.77,4.73-1.95,1.11-2.78,2.51-7.24,3.9s-6.68.56-6.68.56h0Z"/><path id="ai" d="m441.86,521.59l14.48,8.63,13.08,6.68,17.82,5.01h13.64l15.59,1.11,14.48-3.62,7.8-6.13,5.57-1.67,3.9-3.9-17.5.96c-13.44-1.35-24.21-5.26-35.4-3.47-8.13-2.03-16-1.4-24.22-.84h-13.64l-15.59-2.78v.02Z"/><path id="aj" d="m542.46,314.53s-5.91,4.33-6.69,12.6c-.79,8.27-1.57,17.72-1.57,17.72,0,0-.79,6.69,3.15,8.27,3.94,1.57,14.96-12.21,24.81-14.96,9.84-2.76,37.8,1.18,42.52,4.33,4.72,3.15,18.9,25.59,18.9,25.59l8.66,15.75,13.78,14.17s-4.72-46.46-10.63-55.91c-5.91-9.45-22.44-28.74-30.32-30.71-7.87-1.97-21.66-6.69-32.68-4.33s-22.44,3.94-22.44,3.94l-7.48,3.54h-.01Z" style="fill:#b66d49;"/><path id="ak" d="m566.31,300.26l-15.87,5.29-10.86,5.01s-6.68,2.51-4.45,5.29,5.57.56,5.57.56l9.47-5.29s15.31-3.06,22.55-3.06,25.34.56,30.35,3.62c5.01,3.06,20.88,17.26,20.88,17.26l8.35,16.43,5.57,7.52s-1.95-15.31-5.01-20.05c-3.06-4.73-10.86-16.15-15.03-19.21-4.18-3.06-20.32-11.97-23.11-11.97s-18.93-1.95-18.93-1.95l-9.47.56h0Z" style="fill:#4f2002;"/><path id="al" d="m373.55,254.67c59.86-65.71,124.65-45.49,182.69-45.67,45.63,11.5,72.21,70.55,91.98,104.33l24.57,24.81-22.84-66.15-41.74-64.57-45.67-19.69-85.05-9.45-33.07,14.96-27.56,19.69-25.99,21.26-17.32,20.47h0Z" style="fill:#2b0000;"/><path id="am" d="m319.62,725.97l13.78-5.12c34.06,95.08,91.15,126.13,207.1,108.28,17.32-5.51,35.83-16.14,64.97-50,7.7-8.95,24.02-37.01,24.02-37.01l7.09-11.81,29.92.39s-51.19,82.29-75.2,101.19c-8.86,6.97-71.66,31.5-100.01,26.77-96.74-2.47-150.77-48.15-180.72-129.15l9.06-3.54h0Z"/><path id="an" d="m413.72,223.19c-72.05,66.3-112.62,168.35-112.64,249.78-.05,63.78,24.18,129.86,29.53,191.75,0,2.25,7.58,118.39,3.77,219.55-1.87,49.69-12.79,105.48-13.8,128.84-3.02,11.43-10.87,9.36-21.83,9.36h-43.31c11.82-64.15,70.46-261.55,61.73-326.2-4.72-30.71-27.51-152.83-27.51-160.7-10.68-94.44,10.23-210.18,67.36-272.22,15.75-14.96,63.32-63.71,68.12-66.54,149.85-88.07,269.36,62.53,283.1,203.56,9.46,80.55-20.13,140.81-24.81,210.26,0,7.87-18.51,75.6-16.93,120.48-2.81,65.8,19.34,227.23,29.92,291.37h-41.34s-12.35-270.19-12.63-288.45c-.39-25.2,12.63-100.16,16.57-116.69,3.94-16.54,31.47-146.86,33.05-158.67,9.34-90.25-23.32-143.9-70.45-217.34-44.92-67-156.99-67.13-207.89-18.11h0v-.03Z"/><path id="ao" d="m550.44,103.15s109.14,49,125.84,100.23c16.7,51.23,28.95,112.48,32.3,163.71,3.34,51.23-14.48,167.05-14.48,167.05,0,0-46.77,216.04-34.52,278.41,12.25,62.36,20.05,126.96,20.05,126.96l4.13,82.97h317.12s-22.8-101.15-59.24-185.63c-24.16-56.02-65.79-101.62-69.34-116.72-8.91-37.86-84.64-257.25-100.23-312.94-15.59-55.68-63.48-226.07-94.66-275.07-31.18-49-122.51-94.66-209.36-71.27-86.86,23.39-105.79,30.07-154.79,118.04-49,87.98-71.27,185.98-75.73,204.91-4.45,18.93-12.25,202.68-4.45,253.9,7.8,51.23,20.05,115.82,12.25,183.75s-55.89,201.02-55.89,201.02h88.92s63.55-229.15,36.26-347.54c-25.3-109.75-33.66-269.97-11.38-357.94,22.27-87.98,47.89-155.91,67.93-169.27,20.05-13.36,35.64-55.68,85.75-56.8,50.11-1.11,93.55,12.25,93.55,12.25h0l-.03-.02Z"/><path id="ap" d="m750.9,341.46s7.3,192.96-15.59,268.38c1.85,41.81,10.67,248.95,19.29,352.9,2.99,36.07-13.44,59.71-3.64,59.71,18.1,0,37.59.05,58.74.05,17.56,0,31.89,2.23,43.61-.05,18.61,0,9.3-29.16,8.83-56.69-2.24-130.28-71.12-423.99-66.53-457.09,5.57-40.09-44.7-167.21-44.7-167.21h0Z"/><path id="aq" d="m238.9,1022.47s17.19-91.29,19.94-190.56c3.04-109.73-8.43-229.55-10.49-254.36-3.94-47.25,0-239.38,1.57-242.54,1.57-3.15-17.32,48.82-16.54,98.43.79,49.61-6.3,100.8-4.72,119.69,4.4,137.96,17.98,274.61-31.68,414.16-12.42,24.03-35.3,55.16-27.45,55.16h69.37v.02Z"/><path id="ar" d="m511.36,95.61s-71.66-10.24-92.92,8.66-40.95,36.22-45.67,44.1c-4.72,7.87-16.54,13.39-30.71,48.04-14.17,34.65-10.24,29.14-10.24,29.14,0,0,25.99-37.01,30.71-48.04,4.72-11.02,51.97-50.4,51.97-50.4l31.5-16.54,59.06-4.72,28.35,2.36,32.29,11.02s-25.2-15.75-33.86-19.69-20.47-3.94-20.47-3.94h-.01Z"/><path id="as" d="m648.38,167.27l33.07,78.75,17.32,55.12,6.3,35.44s-22.84-111.82-22.84-114.97-9.45-37.01-13.39-37.8c-3.94-.79-20.47-16.54-20.47-16.54h.01Z"/><path id="at" d="m853.88,662.58l96.86,258.29,12.6,101.58h-74.81s18.34-68.82-7.2-155.81c-17.89-61.23-30.51-144.92-30.51-151.32,0-14.96,3.15-52.76,3.15-52.76h-.09v.02Z"/><path id="au" d="m161.07,635.29s43.32,215.94-15.1,272.19c-38.72,37.29-36.22,114.97-36.22,114.97h-55.12s22.61-86.72,44.65-113.49c35.13-64.71,28.62-110.11,15-164.14l46.79-109.53h0Z"/></g></svg>