<svg id="eVJCMqYxfyZ1" xmlns="http://www.w3.org/2000/svg" xmlns:xlink="http://www.w3.org/1999/xlink" viewBox="0 0 524.9 274.688" shape-rendering="geometricPrecision" text-rendering="geometricPrecision"><g transform="matrix(-1 0 0 1 526.338944 2.281349)"><path d="M1.438897,10.358418L0.5,35.23919c112.25619,93.33457,376.72295,214.61628,477.89856,238.94928l4.69448-19.71684L1.438897,10.358418Z" transform="matrix(-1 0 0 1 525.4-4.56316)" fill="#800000" stroke="#000"/><path d="M1.438897,9.88897C141.71843,124.29882,393.13787,225.22368,483.5625,254.00218l40.37256-67.13113C361.26882,110.35993,180.66139,43.74209,13.644558,0.5C7.69821,2.377794,3.629657,5.507451,1.438897,9.88897Z" transform="matrix(-1 0 0 1 525.373948 0)" fill="#f00" stroke="#000"/><g transform="matrix(-.205023 0.037904-.027686-.149751 125.111888 264.247524)"><path d="M231.51711,111.4692c43.91004,11.65092,82.22192,6.91486,116.84647-5.3112v21.07884c-1.69764,27.25255-83.22573,50.02984-116.51453,3.9834l-.33194-19.75104Z" transform="matrix(-1 0 0 1 579.924194-1.417447)" fill="#ffd42a" stroke="#000"/><path d="M229.35943,100.8468l120.82988-.33195c-3.09393,47.80139-118.51047,50.55913-120.82988.33195Z" transform="matrix(-1 0 0 1 579.505736 1.40212)" fill="#d4aa00" stroke="#000"/><path d="M229.19345,100.1829c31.73314,44.04316,102.08864,32.31802,119.17013,2.6556l-119.17013-2.6556Z" transform="matrix(-1 0 0 1 578.816382 0.04791)" fill="#ffd42a" stroke="#000"/><path d="M206.80027,57.80154C226.31958,6.152344,343.06582,6.841636,372.85315,54.54711c1.22328,4.60971,2.1986,8.51524,1.5834,13.12495-10.07214,61.41638-147.71093,68.27081-168.92529,2.80083-.51337-3.91081-.0606-8.99526,1.28901-12.67135Z" transform="matrix(-1 0 0 1 579.931518 0)" fill="#fd5" stroke="#000"/><path d="M230.25772,38.14111C291.98833,0.155891,368.19839,34.8621,364.10915,67.39645c-1.42523,8.27975-6.38744,15.69384-7.88418,16.81582-15.67222,25.15589-160.24039,27.85808-137.94466-31.41792c3.66586-7.58193,6.61051-9.79059,11.97741-14.65324Z" transform="matrix(-1 0 0 1 580.21576 0)" fill="#ffd42a" stroke="#000"/><path d="M226.69257,69.59763c-.70956,36.72485,122.53523,43.71332,126.38762,1.57547-7.90801-44.766825-115.98594-50.428161-126.38762-1.57547Z" transform="matrix(-1 0 0 1 579.769714 0)" fill="#806600" stroke="#000"/><path d="M232.93477,82.61512c9.65844-53.18144,115.43585-31.4868,113.84354.12727-9.92783,18.57446-89.89843,28.11135-113.84354-.12727Z" transform="matrix(-1 0 0 1 579.730912 0)" fill="#d4aa00" stroke="#000"/><path d="M239.47137,87.92636c21.41038,17.75501,76.03527,18.71165,99.25455,1.40041-16.86878-28.02994-88.51338-23.48461-99.25455-1.40041Z" transform="matrix(-1 0 0 1 578.197296 0)" fill="#540" stroke="#000"/><path d="M245.07304,91.25235c12.15269-23.33902,78.67774-18.2816,88.40131.7002-7.98436,10.15978-67.45455,16.53878-88.40131-.7002Z" transform="matrix(-1 0 0 1 578.54741 0)" fill="#d4aa00" stroke="#000"/><path d="M259.42731,97.84079c14.57454-13.96873,48.90685-11.56993,64.41918-1.20721-18.97981,6.42898-39.40963,9.62067-64.41918,1.20721Z" transform="matrix(-1 0 0 1 583.273804 0)" fill="#2b0000" stroke="#000"/></g><path d="M519.24058,207.05734l5.16393-19.24739-40.84202,66.19223-5.16393,19.71684l40.84202-66.66168Z" transform="matrix(-1 0 0 1 525.843398-4.09371)" fill="#500" stroke="#000"/></g><g transform="translate(145.766452 63.479788)"><path d="M231.51711,111.4692c43.91004,11.65092,82.22192,6.91486,116.84647-5.3112v21.07884c-1.69764,27.25255-83.22573,50.02984-116.51453,3.9834l-.33194-19.75104Z" transform="matrix(-1 0 0 1 579.880692 0)" fill="#ffd42a" stroke="#000"/><path d="M229.35943,100.8468l120.82988-.33195c-3.09393,47.80139-118.51047,50.55913-120.82988.33195Z" transform="matrix(-1 0 0 1 579.548768 0)" fill="#d4aa00" stroke="#000"/><path d="M229.19345,100.1829c31.73314,44.04316,102.08864,32.31802,119.17013,2.6556l-119.17013-2.6556Z" transform="matrix(-1 0 0 1 577.557038 0)" fill="#ffd42a" stroke="#000"/><path d="M206.80027,57.80154C226.31958,6.152344,343.06582,6.841636,372.85315,54.54711c1.22328,4.60971,2.1986,8.51524,1.5834,13.12495-10.07214,61.41638-147.71093,68.27081-168.92529,2.80083-.51337-3.91081-.0606-8.99526,1.28901-12.67135Z" transform="matrix(-1 0 0 1 579.931518 0)" fill="#fd5" stroke="#000"/><path d="M230.25772,38.14111C291.98833,0.155891,368.19839,34.8621,364.10915,67.39645c-1.42523,8.27975-6.38744,15.69384-7.88418,16.81582-15.67222,25.15589-160.24039,27.85808-137.94466-31.41792c3.66586-7.58193,6.61051-9.79059,11.97741-14.65324Z" transform="matrix(-1 0 0 1 580.21576 0)" fill="#ffd42a" stroke="#000"/><path d="M226.69257,69.59763c-.70956,36.72485,122.53523,43.71332,126.38762,1.57547-7.90801-44.766825-115.98594-50.428161-126.38762-1.57547Z" transform="matrix(-1 0 0 1 579.769714 0)" fill="#806600" stroke="#000"/><path d="M232.93477,82.61512c9.65844-53.18144,115.43585-31.4868,113.84354.12727-9.92783,18.57446-89.89843,28.11135-113.84354-.12727Z" transform="matrix(-1 0 0 1 579.730912 0)" fill="#d4aa00" stroke="#000"/><path d="M239.47137,87.92636c21.41038,17.75501,76.03527,18.71165,99.25455,1.40041-16.86878-28.02994-88.51338-23.48461-99.25455-1.40041Z" transform="matrix(-1 0 0 1 578.197296 0)" fill="#540" stroke="#000"/><path d="M245.07304,91.25235c12.15269-23.33902,78.67774-18.2816,88.40131.7002-7.98436,10.15978-67.45455,16.53878-88.40131-.7002Z" transform="matrix(-1 0 0 1 578.54741 0)" fill="#d4aa00" stroke="#000"/><path d="M259.42731,97.84079c14.57454-13.96873,48.90685-11.56993,64.41918-1.20721-18.97981,6.42898-39.40963,9.62067-64.41918,1.20721Z" transform="matrix(-1 0 0 1 583.273804 0)" fill="#2b0000" stroke="#000"/></g><g transform="matrix(-.767011-.026209-.025903 0.758053 520.831813 49.633542)"><path d="M231.51711,111.4692c43.91004,11.65092,82.22192,6.91486,116.84647-5.3112v21.07884c-1.69764,27.25255-83.22573,50.02984-116.51453,3.9834l-.33194-19.75104Z" transform="matrix(-1 0 0 1 579.880692 0)" fill="#ffd42a" stroke="#000"/><path d="M229.35943,100.8468l120.82988-.33195c-3.09393,47.80139-118.51047,50.55913-120.82988.33195Z" transform="matrix(-1 0 0 1 579.548768 0)" fill="#d4aa00" stroke="#000"/><path d="M229.19345,100.1829c31.73314,44.04316,102.08864,32.31802,119.17013,2.6556l-119.17013-2.6556Z" transform="matrix(-1 0 0 1 577.557038 0)" fill="#ffd42a" stroke="#000"/><path d="M206.80027,57.80154C226.31958,6.152344,343.06582,6.841636,372.85315,54.54711c1.22328,4.60971,2.1986,8.51524,1.5834,13.12495-10.07214,61.41638-147.71093,68.27081-168.92529,2.80083-.51337-3.91081-.0606-8.99526,1.28901-12.67135Z" transform="matrix(-.977518 0 0 1.069786 573.412508-4.732668)" fill="#fd5" stroke="#000"/><path d="M230.25772,38.14111C291.98833,0.155891,368.19839,34.8621,364.10915,67.39645c-1.42523,8.27975-6.38744,15.69384-7.88418,16.81582-15.67222,25.15589-160.24039,27.85808-137.94466-31.41792c3.66586-7.58193,6.61051-9.79059,11.97741-14.65324Z" transform="matrix(-1 0 0 1 580.21576 0)" fill="#ffd42a" stroke="#000"/><path d="M226.69257,69.59763c-.70956,36.72485,122.53523,43.71332,126.38762,1.57547-7.90801-44.766825-115.98594-50.428161-126.38762-1.57547Z" transform="matrix(-1 0 0 1 579.769714 0)" fill="#806600" stroke="#000"/><path d="M232.93477,82.61512c9.65844-53.18144,115.43585-31.4868,113.84354.12727-9.92783,18.57446-89.89843,28.11135-113.84354-.12727Z" transform="matrix(-1 0 0 1 579.730912 0)" fill="#d4aa00" stroke="#000"/><path d="M239.47137,87.92636c21.41038,17.75501,76.03527,18.71165,99.25455,1.40041-16.86878-28.02994-88.51338-23.48461-99.25455-1.40041Z" transform="matrix(-1 0 0 1 578.197296 0)" fill="#540" stroke="#000"/><path d="M245.07304,91.25235c12.15269-23.33902,78.67774-18.2816,88.40131.7002-7.98436,10.15978-67.45455,16.53878-88.40131-.7002Z" transform="matrix(-1 0 0 1 578.54741 0)" fill="#d4aa00" stroke="#000"/><path d="M259.42731,97.84079c14.57454-13.96873,48.90685-11.56993,64.41918-1.20721-18.97981,6.42898-39.40963,9.62067-64.41918,1.20721Z" transform="matrix(-1 0 0 1 583.273804 0)" fill="#2b0000" stroke="#000"/><g transform="matrix(.70702 0 0 0.653704 229.470879-7.515955)"><path d="M231.51711,111.4692c43.91004,11.65092,82.22192,6.91486,116.84647-5.3112v21.07884c-1.69764,27.25255-83.22573,50.02984-116.51453,3.9834l-.33194-19.75104Z" transform="matrix(-1 0 0 1 579.924194-1.417447)" fill="#ffd42a" stroke="#000"/><path d="M229.35943,100.8468l120.82988-.33195c-3.09393,47.80139-118.51047,50.55913-120.82988.33195Z" transform="matrix(-1 0 0 1 579.505736 1.40212)" fill="#d4aa00" stroke="#000"/><path d="M229.19345,100.1829c31.73314,44.04316,102.08864,32.31802,119.17013,2.6556l-119.17013-2.6556Z" transform="matrix(-1 0 0 1 578.816382 0.04791)" fill="#ffd42a" stroke="#000"/><path d="M206.80027,57.80154C226.31958,6.152344,343.06582,6.841636,372.85315,54.54711c1.22328,4.60971,2.1986,8.51524,1.5834,13.12495-10.07214,61.41638-147.71093,68.27081-168.92529,2.80083-.51337-3.91081-.0606-8.99526,1.28901-12.67135Z" transform="matrix(-1 0 0 1 579.931518 0)" fill="#fd5" stroke="#000"/><path d="M230.25772,38.14111C291.98833,0.155891,368.19839,34.8621,364.10915,67.39645c-1.42523,8.27975-6.38744,15.69384-7.88418,16.81582-15.67222,25.15589-160.24039,27.85808-137.94466-31.41792c3.66586-7.58193,6.61051-9.79059,11.97741-14.65324Z" transform="matrix(-1 0 0 1 580.21576 0)" fill="#ffd42a" stroke="#000"/><path d="M226.69257,69.59763c-.70956,36.72485,122.53523,43.71332,126.38762,1.57547-7.90801-44.766825-115.98594-50.428161-126.38762-1.57547Z" transform="matrix(-1 0 0 1 579.769714 0)" fill="#806600" stroke="#000"/><path d="M232.93477,82.61512c9.65844-53.18144,115.43585-31.4868,113.84354.12727-9.92783,18.57446-89.89843,28.11135-113.84354-.12727Z" transform="matrix(-1 0 0 1 579.730912 0)" fill="#d4aa00" stroke="#000"/><path d="M239.47137,87.92636c21.41038,17.75501,76.03527,18.71165,99.25455,1.40041-16.86878-28.02994-88.51338-23.48461-99.25455-1.40041Z" transform="matrix(-1 0 0 1 578.197296 0)" fill="#540" stroke="#000"/><path d="M245.07304,91.25235c12.15269-23.33902,78.67774-18.2816,88.40131.7002-7.98436,10.15978-67.45455,16.53878-88.40131-.7002Z" transform="matrix(-1 0 0 1 578.54741 0)" fill="#d4aa00" stroke="#000"/><path d="M259.42731,97.84079c14.57454-13.96873,48.90685-11.56993,64.41918-1.20721-18.97981,6.42898-39.40963,9.62067-64.41918,1.20721Z" transform="matrix(-1 0 0 1 583.273804 0)" fill="#2b0000" stroke="#000"/></g></g><g transform="matrix(-.222773-.073429 0.068763-.208618 486.976304 295.476882)"><path d="M231.51711,111.4692c43.91004,11.65092,82.22192,6.91486,116.84647-5.3112v21.07884c-1.69764,27.25255-83.22573,50.02984-116.51453,3.9834l-.33194-19.75104Z" transform="matrix(-1 0 0 1 579.924194-1.417447)" fill="#ffd42a" stroke="#000"/><path d="M229.35943,100.8468l120.82988-.33195c-3.09393,47.80139-118.51047,50.55913-120.82988.33195Z" transform="matrix(-1 0 0 1 579.505736 1.40212)" fill="#d4aa00" stroke="#000"/><path d="M229.19345,100.1829c31.73314,44.04316,102.08864,32.31802,119.17013,2.6556l-119.17013-2.6556Z" transform="matrix(-1 0 0 1 578.816382 0.04791)" fill="#ffd42a" stroke="#000"/><path d="M206.80027,57.80154C226.31958,6.152344,343.06582,6.841636,372.85315,54.54711c1.22328,4.60971,2.1986,8.51524,1.5834,13.12495-10.07214,61.41638-147.71093,68.27081-168.92529,2.80083-.51337-3.91081-.0606-8.99526,1.28901-12.67135Z" transform="matrix(-1 0 0 1 579.931518 0)" fill="#fd5" stroke="#000"/><path d="M230.25772,38.14111C291.98833,0.155891,368.19839,34.8621,364.10915,67.39645c-1.42523,8.27975-6.38744,15.69384-7.88418,16.81582-15.67222,25.15589-160.24039,27.85808-137.94466-31.41792c3.66586-7.58193,6.61051-9.79059,11.97741-14.65324Z" transform="matrix(-1 0 0 1 580.21576 0)" fill="#ffd42a" stroke="#000"/><path d="M226.69257,69.59763c-.70956,36.72485,122.53523,43.71332,126.38762,1.57547-7.90801-44.766825-115.98594-50.428161-126.38762-1.57547Z" transform="matrix(-1 0 0 1 579.769714 0)" fill="#806600" stroke="#000"/><path d="M232.93477,82.61512c9.65844-53.18144,115.43585-31.4868,113.84354.12727-9.92783,18.57446-89.89843,28.11135-113.84354-.12727Z" transform="matrix(-1 0 0 1 579.730912 0)" fill="#d4aa00" stroke="#000"/><path d="M239.47137,87.92636c21.41038,17.75501,76.03527,18.71165,99.25455,1.40041-16.86878-28.02994-88.51338-23.48461-99.25455-1.40041Z" transform="matrix(-1 0 0 1 578.197296 0)" fill="#540" stroke="#000"/><path d="M245.07304,91.25235c12.15269-23.33902,78.67774-18.2816,88.40131.7002-7.98436,10.15978-67.45455,16.53878-88.40131-.7002Z" transform="matrix(-1 0 0 1 578.54741 0)" fill="#d4aa00" stroke="#000"/><path d="M259.42731,97.84079c14.57454-13.96873,48.90685-11.56993,64.41918-1.20721-18.97981,6.42898-39.40963,9.62067-64.41918,1.20721Z" transform="matrix(-1 0 0 1 583.273804 0)" fill="#2b0000" stroke="#000"/><g transform="matrix(.926204 0 0 1.02618 186.89866 7.38299)"><path d="M231.51711,111.4692c43.91004,11.65092,82.22192,6.91486,116.84647-5.3112v21.07884c-1.69764,27.25255-83.22573,50.02984-116.51453,3.9834l-.33194-19.75104Z" transform="matrix(-1 0 0 1 579.924194-1.417447)" fill="#ffd42a" stroke="#000"/><path d="M229.35943,100.8468l120.82988-.33195c-3.09393,47.80139-118.51047,50.55913-120.82988.33195Z" transform="matrix(-1 0 0 1 579.505736 1.40212)" fill="#d4aa00" stroke="#000"/><path d="M229.19345,100.1829c31.73314,44.04316,102.08864,32.31802,119.17013,2.6556l-119.17013-2.6556Z" transform="matrix(-1 0 0 1 578.816382 0.04791)" fill="#ffd42a" stroke="#000"/><path d="M206.80027,57.80154C226.31958,6.152344,343.06582,6.841636,372.85315,54.54711c1.22328,4.60971,2.1986,8.51524,1.5834,13.12495-10.07214,61.41638-147.71093,68.27081-168.92529,2.80083-.51337-3.91081-.0606-8.99526,1.28901-12.67135Z" transform="matrix(-1 0 0 1 579.931518 0)" fill="#fd5" stroke="#000"/><path d="M230.25772,38.14111C291.98833,0.155891,368.19839,34.8621,364.10915,67.39645c-1.42523,8.27975-6.38744,15.69384-7.88418,16.81582-15.67222,25.15589-160.24039,27.85808-137.94466-31.41792c3.66586-7.58193,6.61051-9.79059,11.97741-14.65324Z" transform="matrix(-1 0 0 1 580.21576 0)" fill="#ffd42a" stroke="#000"/><path d="M226.69257,69.59763c-.70956,36.72485,122.53523,43.71332,126.38762,1.57547-7.90801-44.766825-115.98594-50.428161-126.38762-1.57547Z" transform="matrix(-1 0 0 1 579.769714 0)" fill="#806600" stroke="#000"/><path d="M232.93477,82.61512c9.65844-53.18144,115.43585-31.4868,113.84354.12727-9.92783,18.57446-89.89843,28.11135-113.84354-.12727Z" transform="matrix(-1 0 0 1 579.730912 0)" fill="#d4aa00" stroke="#000"/><path d="M239.47137,87.92636c21.41038,17.75501,76.03527,18.71165,99.25455,1.40041-16.86878-28.02994-88.51338-23.48461-99.25455-1.40041Z" transform="matrix(-1 0 0 1 578.197296 0)" fill="#540" stroke="#000"/><path d="M245.07304,91.25235c12.15269-23.33902,78.67774-18.2816,88.40131.7002-7.98436,10.15978-67.45455,16.53878-88.40131-.7002Z" transform="matrix(-1 0 0 1 578.54741 0)" fill="#d4aa00" stroke="#000"/><path d="M259.42731,97.84079c14.57454-13.96873,48.90685-11.56993,64.41918-1.20721-18.97981,6.42898-39.40963,9.62067-64.41918,1.20721Z" transform="matrix(-1 0 0 1 583.273804 0)" fill="#2b0000" stroke="#000"/></g></g><g transform="matrix(-.219035-.109049 0.105512-.211931 407.514783 278.635685)"><path d="M231.51711,111.4692c43.91004,11.65092,82.22192,6.91486,116.84647-5.3112v21.07884c-1.69764,27.25255-83.22573,50.02984-116.51453,3.9834l-.33194-19.75104Z" transform="matrix(-1 0 0 1 579.924194-1.417447)" fill="#ffd42a" stroke="#000"/><path d="M229.35943,100.8468l120.82988-.33195c-3.09393,47.80139-118.51047,50.55913-120.82988.33195Z" transform="matrix(-1 0 0 1 579.505736 1.40212)" fill="#d4aa00" stroke="#000"/><path d="M229.19345,100.1829c31.73314,44.04316,102.08864,32.31802,119.17013,2.6556l-119.17013-2.6556Z" transform="matrix(-1 0 0 1 578.816382 0.04791)" fill="#ffd42a" stroke="#000"/><path d="M206.80027,57.80154C226.31958,6.152344,343.06582,6.841636,372.85315,54.54711c1.22328,4.60971,2.1986,8.51524,1.5834,13.12495-10.07214,61.41638-147.71093,68.27081-168.92529,2.80083-.51337-3.91081-.0606-8.99526,1.28901-12.67135Z" transform="matrix(-1 0 0 1 579.931518 0)" fill="#fd5" stroke="#000"/><path d="M230.25772,38.14111C291.98833,0.155891,368.19839,34.8621,364.10915,67.39645c-1.42523,8.27975-6.38744,15.69384-7.88418,16.81582-15.67222,25.15589-160.24039,27.85808-137.94466-31.41792c3.66586-7.58193,6.61051-9.79059,11.97741-14.65324Z" transform="matrix(-1 0 0 1 580.21576 0)" fill="#ffd42a" stroke="#000"/><path d="M226.69257,69.59763c-.70956,36.72485,122.53523,43.71332,126.38762,1.57547-7.90801-44.766825-115.98594-50.428161-126.38762-1.57547Z" transform="matrix(-1 0 0 1 579.769714 0)" fill="#806600" stroke="#000"/><path d="M232.93477,82.61512c9.65844-53.18144,115.43585-31.4868,113.84354.12727-9.92783,18.57446-89.89843,28.11135-113.84354-.12727Z" transform="matrix(-1 0 0 1 579.730912 0)" fill="#d4aa00" stroke="#000"/><path d="M239.47137,87.92636c21.41038,17.75501,76.03527,18.71165,99.25455,1.40041-16.86878-28.02994-88.51338-23.48461-99.25455-1.40041Z" transform="matrix(-1 0 0 1 578.197296 0)" fill="#540" stroke="#000"/><path d="M245.07304,91.25235c12.15269-23.33902,78.67774-18.2816,88.40131.7002-7.98436,10.15978-67.45455,16.53878-88.40131-.7002Z" transform="matrix(-1 0 0 1 578.54741 0)" fill="#d4aa00" stroke="#000"/><path d="M259.42731,97.84079c14.57454-13.96873,48.90685-11.56993,64.41918-1.20721-18.97981,6.42898-39.40963,9.62067-64.41918,1.20721Z" transform="matrix(-1 0 0 1 583.273804 0)" fill="#2b0000" stroke="#000"/></g><g transform="matrix(-.262261-.155644 0.171197-.288469 370.142252 286.608517)"><path d="M231.51711,111.4692c43.91004,11.65092,82.22192,6.91486,116.84647-5.3112v21.07884c-1.69764,27.25255-83.22573,50.02984-116.51453,3.9834l-.33194-19.75104Z" transform="matrix(-1 0 0 1 579.924194-1.417447)" fill="#ffd42a" stroke="#000"/><path d="M229.35943,100.8468l120.82988-.33195c-3.09393,47.80139-118.51047,50.55913-120.82988.33195Z" transform="matrix(-1 0 0 1 579.505736 1.40212)" fill="#d4aa00" stroke="#000"/><path d="M229.19345,100.1829c31.73314,44.04316,102.08864,32.31802,119.17013,2.6556l-119.17013-2.6556Z" transform="matrix(-1 0 0 1 578.816382 0.04791)" fill="#ffd42a" stroke="#000"/><path d="M206.80027,57.80154C226.31958,6.152344,343.06582,6.841636,372.85315,54.54711c1.22328,4.60971,2.1986,8.51524,1.5834,13.12495-10.07214,61.41638-147.71093,68.27081-168.92529,2.80083-.51337-3.91081-.0606-8.99526,1.28901-12.67135Z" transform="matrix(-1 0 0 1 579.931518 0)" fill="#fd5" stroke="#000"/><path d="M230.25772,38.14111C291.98833,0.155891,368.19839,34.8621,364.10915,67.39645c-1.42523,8.27975-6.38744,15.69384-7.88418,16.81582-15.67222,25.15589-160.24039,27.85808-137.94466-31.41792c3.66586-7.58193,6.61051-9.79059,11.97741-14.65324Z" transform="matrix(-1 0 0 1 580.21576 0)" fill="#ffd42a" stroke="#000"/><path d="M226.69257,69.59763c-.70956,36.72485,122.53523,43.71332,126.38762,1.57547-7.90801-44.766825-115.98594-50.428161-126.38762-1.57547Z" transform="matrix(-1 0 0 1 579.769714 0)" fill="#806600" stroke="#000"/><path d="M232.93477,82.61512c9.65844-53.18144,115.43585-31.4868,113.84354.12727-9.92783,18.57446-89.89843,28.11135-113.84354-.12727Z" transform="matrix(-1 0 0 1 579.730912 0)" fill="#d4aa00" stroke="#000"/><path d="M239.47137,87.92636c21.41038,17.75501,76.03527,18.71165,99.25455,1.40041-16.86878-28.02994-88.51338-23.48461-99.25455-1.40041Z" transform="matrix(-1 0 0 1 578.197296 0)" fill="#540" stroke="#000"/><path d="M245.07304,91.25235c12.15269-23.33902,78.67774-18.2816,88.40131.7002-7.98436,10.15978-67.45455,16.53878-88.40131-.7002Z" transform="matrix(-1 0 0 1 578.54741 0)" fill="#d4aa00" stroke="#000"/><path d="M259.42731,97.84079c14.57454-13.96873,48.90685-11.56993,64.41918-1.20721-18.97981,6.42898-39.40963,9.62067-64.41918,1.20721Z" transform="matrix(-1 0 0 1 583.273804 0)" fill="#2b0000" stroke="#000"/><g transform="matrix(1.064678 0 0 1.238927 142.048105-44.593616)"><path d="M231.51711,111.4692c43.91004,11.65092,82.22192,6.91486,116.84647-5.3112v21.07884c-1.69764,27.25255-83.22573,50.02984-116.51453,3.9834l-.33194-19.75104Z" transform="matrix(-1 0 0 1 579.924194-1.417447)" fill="#ffd42a" stroke="#000"/><path d="M229.35943,100.8468l120.82988-.33195c-3.09393,47.80139-118.51047,50.55913-120.82988.33195Z" transform="matrix(-1 0 0 1 579.505736 1.40212)" fill="#d4aa00" stroke="#000"/><path d="M229.19345,100.1829c31.73314,44.04316,102.08864,32.31802,119.17013,2.6556l-119.17013-2.6556Z" transform="matrix(-1 0 0 1 578.816382 0.04791)" fill="#ffd42a" stroke="#000"/><path d="M206.80027,57.80154C226.31958,6.152344,343.06582,6.841636,372.85315,54.54711c1.22328,4.60971,2.1986,8.51524,1.5834,13.12495-10.07214,61.41638-147.71093,68.27081-168.92529,2.80083-.51337-3.91081-.0606-8.99526,1.28901-12.67135Z" transform="matrix(-1 0 0 1 579.931518 0)" fill="#fd5" stroke="#000"/><path d="M230.25772,38.14111C291.98833,0.155891,368.19839,34.8621,364.10915,67.39645c-1.42523,8.27975-6.38744,15.69384-7.88418,16.81582-15.67222,25.15589-160.24039,27.85808-137.94466-31.41792c3.66586-7.58193,6.61051-9.79059,11.97741-14.65324Z" transform="matrix(-1 0 0 1 580.21576 0)" fill="#ffd42a" stroke="#000"/><path d="M226.69257,69.59763c-.70956,36.72485,122.53523,43.71332,126.38762,1.57547-7.90801-44.766825-115.98594-50.428161-126.38762-1.57547Z" transform="matrix(-1 0 0 1 579.769714 0)" fill="#806600" stroke="#000"/><path d="M232.93477,82.61512c9.65844-53.18144,115.43585-31.4868,113.84354.12727-9.92783,18.57446-89.89843,28.11135-113.84354-.12727Z" transform="matrix(-1 0 0 1 579.730912 0)" fill="#d4aa00" stroke="#000"/><path d="M239.47137,87.92636c21.41038,17.75501,76.03527,18.71165,99.25455,1.40041-16.86878-28.02994-88.51338-23.48461-99.25455-1.40041Z" transform="matrix(-1 0 0 1 578.197296 0)" fill="#540" stroke="#000"/><path d="M245.07304,91.25235c12.15269-23.33902,78.67774-18.2816,88.40131.7002-7.98436,10.15978-67.45455,16.53878-88.40131-.7002Z" transform="matrix(-1 0 0 1 578.54741 0)" fill="#d4aa00" stroke="#000"/><path d="M259.42731,97.84079c14.57454-13.96873,48.90685-11.56993,64.41918-1.20721-18.97981,6.42898-39.40963,9.62067-64.41918,1.20721Z" transform="matrix(-1 0 0 1 583.273804 0)" fill="#2b0000" stroke="#000"/><g transform="matrix(1.123579 0 0 1.039283 127.721833-21.635432)"><path d="M231.51711,111.4692c43.91004,11.65092,82.22192,6.91486,116.84647-5.3112v21.07884c-1.69764,27.25255-83.22573,50.02984-116.51453,3.9834l-.33194-19.75104Z" transform="matrix(-1 0 0 1 579.924194-1.417447)" fill="#ffd42a" stroke="#000"/><path d="M229.35943,100.8468l120.82988-.33195c-3.09393,47.80139-118.51047,50.55913-120.82988.33195Z" transform="matrix(-1 0 0 1 579.505736 1.40212)" fill="#d4aa00" stroke="#000"/><path d="M229.19345,100.1829c31.73314,44.04316,102.08864,32.31802,119.17013,2.6556l-119.17013-2.6556Z" transform="matrix(-1 0 0 1 578.816382 0.04791)" fill="#ffd42a" stroke="#000"/><path d="M206.80027,57.80154C226.31958,6.152344,343.06582,6.841636,372.85315,54.54711c1.22328,4.60971,2.1986,8.51524,1.5834,13.12495-10.07214,61.41638-147.71093,68.27081-168.92529,2.80083-.51337-3.91081-.0606-8.99526,1.28901-12.67135Z" transform="matrix(-1 0 0 1 579.931518 0)" fill="#fd5" stroke="#000"/><path d="M230.25772,38.14111C291.98833,0.155891,368.19839,34.8621,364.10915,67.39645c-1.42523,8.27975-6.38744,15.69384-7.88418,16.81582-15.67222,25.15589-160.24039,27.85808-137.94466-31.41792c3.66586-7.58193,6.61051-9.79059,11.97741-14.65324Z" transform="matrix(-1 0 0 1 580.21576 0)" fill="#ffd42a" stroke="#000"/><path d="M226.69257,69.59763c-.70956,36.72485,122.53523,43.71332,126.38762,1.57547-7.90801-44.766825-115.98594-50.428161-126.38762-1.57547Z" transform="matrix(-1 0 0 1 579.769714 0)" fill="#806600" stroke="#000"/><path d="M232.93477,82.61512c9.65844-53.18144,115.43585-31.4868,113.84354.12727-9.92783,18.57446-89.89843,28.11135-113.84354-.12727Z" transform="matrix(-1 0 0 1 579.730912 0)" fill="#d4aa00" stroke="#000"/><path d="M239.47137,87.92636c21.41038,17.75501,76.03527,18.71165,99.25455,1.40041-16.86878-28.02994-88.51338-23.48461-99.25455-1.40041Z" transform="matrix(-1 0 0 1 578.197296 0)" fill="#540" stroke="#000"/><path d="M245.07304,91.25235c12.15269-23.33902,78.67774-18.2816,88.40131.7002-7.98436,10.15978-67.45455,16.53878-88.40131-.7002Z" transform="matrix(-1 0 0 1 578.54741 0)" fill="#d4aa00" stroke="#000"/><path d="M259.42731,97.84079c14.57454-13.96873,48.90685-11.56993,64.41918-1.20721-18.97981,6.42898-39.40963,9.62067-64.41918,1.20721Z" transform="matrix(-1 0 0 1 583.273804 0)" fill="#2b0000" stroke="#000"/><g transform="matrix(.89835 0 0 0.811113 179.735035 29.459362)"><path d="M231.51711,111.4692c43.91004,11.65092,82.22192,6.91486,116.84647-5.3112v21.07884c-1.69764,27.25255-83.22573,50.02984-116.51453,3.9834l-.33194-19.75104Z" transform="matrix(-1 0 0 1 579.924194-1.417447)" fill="#ffd42a" stroke="#000"/><path d="M229.35943,100.8468l120.82988-.33195c-3.09393,47.80139-118.51047,50.55913-120.82988.33195Z" transform="matrix(-1 0 0 1 581.400191 4.570902)" fill="#d4aa00" stroke="#000"/><path d="M229.19345,100.1829c31.73314,44.04316,102.08864,32.31802,119.17013,2.6556l-119.17013-2.6556Z" transform="matrix(-1 0 0 1 578.816382 0.04791)" fill="#ffd42a" stroke="#000"/><path d="M206.80027,57.80154C226.31958,6.152344,343.06582,6.841636,372.85315,54.54711c1.22328,4.60971,2.1986,8.51524,1.5834,13.12495-10.07214,61.41638-147.71093,68.27081-168.92529,2.80083-.51337-3.91081-.0606-8.99526,1.28901-12.67135Z" transform="matrix(-1 0 0 1 579.931518 0)" fill="#fd5" stroke="#000"/><path d="M230.25772,38.14111C291.98833,0.155891,368.19839,34.8621,364.10915,67.39645c-1.42523,8.27975-6.38744,15.69384-7.88418,16.81582-15.67222,25.15589-160.24039,27.85808-137.94466-31.41792c3.66586-7.58193,6.61051-9.79059,11.97741-14.65324Z" transform="matrix(-1 0 0 1 580.21576 0)" fill="#ffd42a" stroke="#000"/><path d="M226.69257,69.59763c-.70956,36.72485,122.53523,43.71332,126.38762,1.57547-7.90801-44.766825-115.98594-50.428161-126.38762-1.57547Z" transform="matrix(-1 0 0 1 579.769714 0)" fill="#806600" stroke="#000"/><path d="M232.93477,82.61512c9.65844-53.18144,115.43585-31.4868,113.84354.12727-9.92783,18.57446-89.89843,28.11135-113.84354-.12727Z" transform="matrix(-1 0 0 1 579.730912 0)" fill="#d4aa00" stroke="#000"/><path d="M239.47137,87.92636c21.41038,17.75501,76.03527,18.71165,99.25455,1.40041-16.86878-28.02994-88.51338-23.48461-99.25455-1.40041Z" transform="matrix(-1 0 0 1 578.197296 0)" fill="#540" stroke="#000"/><path d="M245.07304,91.25235c12.15269-23.33902,78.67774-18.2816,88.40131.7002-7.98436,10.15978-67.45455,16.53878-88.40131-.7002Z" transform="matrix(-1 0 0 1 578.54741 0)" fill="#d4aa00" stroke="#000"/><path d="M259.42731,97.84079c14.57454-13.96873,48.90685-11.56993,64.41918-1.20721-18.97981,6.42898-39.40963,9.62067-64.41918,1.20721Z" transform="matrix(-1 0 0 1 583.273804 0)" fill="#2b0000" stroke="#000"/><g transform="matrix(.784401 0.059799-.055343 0.72596 216.177769 18.900414)"><path d="M231.51711,111.4692c43.91004,11.65092,82.22192,6.91486,116.84647-5.3112v21.07884c-1.69764,27.25255-83.22573,50.02984-116.51453,3.9834l-.33194-19.75104Z" transform="matrix(-1 0 0 1 579.924194-1.417447)" fill="#ffd42a" stroke="#000"/><path d="M229.35943,100.8468l120.82988-.33195c0,0-118.51047,50.55913-120.82988.33195Z" transform="matrix(-1 0 0 1 579.505736 1.40212)" fill="#d4aa00" stroke="#000"/><path d="M229.19345,100.1829c31.73314,44.04316,102.08864,32.31802,119.17013,2.6556l-119.17013-2.6556Z" transform="matrix(-1 0 0 1 578.816382 0.04791)" fill="#ffd42a" stroke="#000"/><path d="M206.80027,57.80154C226.31958,6.152344,343.06582,6.841636,372.85315,54.54711c1.22328,4.60971,2.1986,8.51524,1.5834,13.12495-10.07214,61.41638-147.71093,68.27081-168.92529,2.80083-.51337-3.91081-.0606-8.99526,1.28901-12.67135Z" transform="matrix(-1 0 0 1 579.931518 0)" fill="#fd5" stroke="#000"/><path d="M230.25772,38.14111C291.98833,0.155891,368.19839,34.8621,364.10915,67.39645c-1.42523,8.27975-6.38744,15.69384-7.88418,16.81582-15.67222,25.15589-160.24039,27.85808-137.94466-31.41792c3.66586-7.58193,6.61051-9.79059,11.97741-14.65324Z" transform="matrix(-1 0 0 1 580.21576 0)" fill="#ffd42a" stroke="#000"/><path d="M226.69257,69.59763c-.70956,36.72485,122.53523,43.71332,126.38762,1.57547-7.90801-44.766825-115.98594-50.428161-126.38762-1.57547Z" transform="matrix(-1 0 0 1 579.769714 0)" fill="#806600" stroke="#000"/><path d="M232.93477,82.61512c9.65844-53.18144,115.43585-31.4868,113.84354.12727-9.92783,18.57446-89.89843,28.11135-113.84354-.12727Z" transform="matrix(-1 0 0 1 579.730912 0)" fill="#d4aa00" stroke="#000"/><path d="M239.47137,87.92636c21.41038,17.75501,76.03527,18.71165,99.25455,1.40041-16.86878-28.02994-88.51338-23.48461-99.25455-1.40041Z" transform="matrix(-1 0 0 1 578.197296 0)" fill="#540" stroke="#000"/><path d="M245.07304,91.25235c12.15269-23.33902,78.67774-18.2816,88.40131.7002-7.98436,10.15978-67.45455,16.53878-88.40131-.7002Z" transform="matrix(-1 0 0 1 578.54741 0)" fill="#d4aa00" stroke="#000"/><path d="M259.42731,97.84079c14.57454-13.96873,48.90685-11.56993,64.41918-1.20721-18.97981,6.42898-39.40963,9.62067-64.41918,1.20721Z" transform="matrix(-1 0 0 1 583.273804 0)" fill="#2b0000" stroke="#000"/><g transform="matrix(.748335 0.201339-.283295 1.05295 241.289317-102.657122)"><path d="M231.51711,111.4692c43.91004,11.65092,82.22192,6.91486,116.84647-5.3112v21.07884c-1.69764,27.25255-83.22573,50.02984-116.51453,3.9834l-.33194-19.75104Z" transform="matrix(-1 0 0 1 579.924194-1.417447)" fill="#ffd42a" stroke="#000"/><path d="M229.35943,100.8468l120.82988-.33195c-3.09393,47.80139-118.51047,50.55913-120.82988.33195Z" transform="matrix(-1 0 0 1 579.505736 1.40212)" fill="#d4aa00" stroke="#000"/><path d="M229.19345,100.1829c31.73314,44.04316,102.08864,32.31802,119.17013,2.6556l-119.17013-2.6556Z" transform="matrix(-1 0 0 1 578.816382 0.04791)" fill="#ffd42a" stroke="#000"/><path d="M206.80027,57.80154C226.31958,6.152344,343.06582,6.841636,372.85315,54.54711c1.22328,4.60971,2.1986,8.51524,1.5834,13.12495-10.07214,61.41638-147.71093,68.27081-168.92529,2.80083-.51337-3.91081-.0606-8.99526,1.28901-12.67135Z" transform="matrix(-1 0 0 1 579.931518 0)" fill="#fd5" stroke="#000"/><path d="M230.25772,38.14111C291.98833,0.155891,368.19839,34.8621,364.10915,67.39645c-1.42523,8.27975-6.38744,15.69384-7.88418,16.81582-15.67222,25.15589-160.24039,27.85808-137.94466-31.41792c3.66586-7.58193,6.61051-9.79059,11.97741-14.65324Z" transform="matrix(-1 0 0 1 580.21576 0)" fill="#ffd42a" stroke="#000"/><path d="M226.69257,69.59763c-.70956,36.72485,122.53523,43.71332,126.38762,1.57547-7.90801-44.766825-115.98594-50.428161-126.38762-1.57547Z" transform="matrix(-1 0 0 1 579.769714 0)" fill="#806600" stroke="#000"/><path d="M232.93477,82.61512c9.65844-53.18144,115.43585-31.4868,113.84354.12727-9.92783,18.57446-89.89843,28.11135-113.84354-.12727Z" transform="matrix(-1 0 0 1 579.730912 0)" fill="#d4aa00" stroke="#000"/><path d="M239.47137,87.92636c21.41038,17.75501,76.03527,18.71165,99.25455,1.40041-16.86878-28.02994-88.51338-23.48461-99.25455-1.40041Z" transform="matrix(-1 0 0 1 578.197296 0)" fill="#540" stroke="#000"/><path d="M245.07304,91.25235c12.15269-23.33902,78.67774-18.2816,88.40131.7002-7.98436,10.15978-67.45455,16.53878-88.40131-.7002Z" transform="matrix(-1 0 0 1 578.54741 0)" fill="#d4aa00" stroke="#000"/><path d="M259.42731,97.84079c14.57454-13.96873,48.90685-11.56993,64.41918-1.20721-18.97981,6.42898-39.40963,9.62067-64.41918,1.20721Z" transform="matrix(-1 0 0 1 583.273804 0)" fill="#2b0000" stroke="#000"/><g transform="matrix(1.158106-.098248 0.075099 0.885227 130.074517 14.858328)"><path d="M231.51711,111.4692c43.91004,11.65092,82.22192,6.91486,116.84647-5.3112v21.07884c-1.69764,27.25255-83.22573,50.02984-116.51453,3.9834l-.33194-19.75104Z" transform="matrix(-1 0 0 1 579.924194-1.417447)" fill="#ffd42a" stroke="#000"/><path d="M229.35943,100.8468l120.82988-.33195c-3.09393,47.80139-118.51047,50.55913-120.82988.33195Z" transform="matrix(-1 0 0 1 579.505736 1.40212)" fill="#d4aa00" stroke="#000"/><path d="M229.19345,100.1829c31.73314,44.04316,102.08864,32.31802,119.17013,2.6556l-119.17013-2.6556Z" transform="matrix(-1 0 0 1 578.816382 0.04791)" fill="#ffd42a" stroke="#000"/><path d="M206.80027,57.80154C226.31958,6.152344,343.06582,6.841636,372.85315,54.54711c1.22328,4.60971,2.1986,8.51524,1.5834,13.12495-10.07214,61.41638-147.71093,68.27081-168.92529,2.80083-.51337-3.91081-.0606-8.99526,1.28901-12.67135Z" transform="matrix(-1 0 0 1 579.931518 0)" fill="#fd5" stroke="#000"/><path d="M230.25772,38.14111C291.98833,0.155891,368.19839,34.8621,364.10915,67.39645c-1.42523,8.27975-6.38744,15.69384-7.88418,16.81582-15.67222,25.15589-160.24039,27.85808-137.94466-31.41792c3.66586-7.58193,6.61051-9.79059,11.97741-14.65324Z" transform="matrix(-1 0 0 1 580.21576 0)" fill="#ffd42a" stroke="#000"/><path d="M226.69257,69.59763c-.70956,36.72485,126.38762,1.57547,126.38762,1.57547s-115.98594-50.428161-126.38762-1.57547Z" transform="matrix(-1 0 0 1 577.230582-2.375505)" fill="#806600" stroke="#000"/><path d="M232.93477,82.61512c9.65844-53.18144,115.43585-31.4868,113.84354.12727-9.92783,18.57446-89.89843,28.11135-113.84354-.12727Z" transform="matrix(-1 0 0 1 579.730912 0)" fill="#d4aa00" stroke="#000"/><path d="M239.47137,87.92636c21.41038,17.75501,76.03527,18.71165,99.25455,1.40041-16.86878-28.02994-88.51338-23.48461-99.25455-1.40041Z" transform="matrix(-1 0 0 1 578.197296 0)" fill="#540" stroke="#000"/><path d="M245.07304,91.25235c12.15269-23.33902,78.67774-18.2816,88.40131.7002-7.98436,10.15978-67.45455,16.53878-88.40131-.7002Z" transform="matrix(-1 0 0 1 578.54741 0)" fill="#d4aa00" stroke="#000"/><path d="M259.42731,97.84079c14.57454-13.96873,48.90685-11.56993,64.41918-1.20721-18.97981,6.42898-39.40963,9.62067-64.41918,1.20721Z" transform="matrix(-1 0 0 1 583.273804 0)" fill="#2b0000" stroke="#000"/><g transform="matrix(1.059729 0 0 0.829661 150.657625-4.925877)"><path d="M231.51711,111.4692c43.91004,11.65092,82.22192,6.91486,116.84647-5.3112v21.07884c-1.69764,27.25255-83.22573,50.02984-116.51453,3.9834l-.33194-19.75104Z" transform="matrix(-1 0 0 1 579.924194-1.417447)" fill="#ffd42a" stroke="#000"/><path d="M229.35943,100.8468l120.82988-.33195c-3.09393,47.80139-118.51047,50.55913-120.82988.33195Z" transform="matrix(-1 0 0 1 579.505736 1.40212)" fill="#d4aa00" stroke="#000"/><path d="M229.19345,100.1829c31.73314,44.04316,102.08864,32.31802,119.17013,2.6556l-119.17013-2.6556Z" transform="matrix(-1 0 0 1 578.816382 0.04791)" fill="#ffd42a" stroke="#000"/><path d="M206.80027,57.80154C226.31958,6.152344,343.06582,6.841636,372.85315,54.54711c1.22328,4.60971,2.1986,8.51524,1.5834,13.12495-10.07214,61.41638-147.71093,68.27081-168.92529,2.80083-.51337-3.91081-.0606-8.99526,1.28901-12.67135Z" transform="matrix(-1 0 0 1 579.931518 0)" fill="#fd5" stroke="#000"/><path d="M230.25772,38.14111C291.98833,0.155891,368.19839,34.8621,364.10915,67.39645c-1.42523,8.27975-6.38744,15.69384-7.88418,16.81582-15.67222,25.15589-160.24039,27.85808-137.94466-31.41792c3.66586-7.58193,6.61051-9.79059,11.97741-14.65324Z" transform="matrix(-1 0 0 1 580.21576 0)" fill="#ffd42a" stroke="#000"/><path d="M226.69257,69.59763c-.70956,36.72485,122.53523,43.71332,126.38762,1.57547-7.90801-44.766825-115.98594-50.428161-126.38762-1.57547Z" transform="matrix(-1 0 0 1 579.769714 0)" fill="#806600" stroke="#000"/><path d="M232.93477,82.61512c9.65844-53.18144,115.43585-31.4868,113.84354.12727-9.92783,18.57446-89.89843,28.11135-113.84354-.12727Z" transform="matrix(-1 0 0 1 579.730912 0)" fill="#d4aa00" stroke="#000"/><path d="M239.47137,87.92636c21.41038,17.75501,76.03527,18.71165,99.25455,1.40041-16.86878-28.02994-88.51338-23.48461-99.25455-1.40041Z" transform="matrix(-1 0 0 1 578.197296 0)" fill="#540" stroke="#000"/><path d="M245.07304,91.25235c12.15269-23.33902,78.67774-18.2816,88.40131.7002-7.98436,10.15978-67.45455,16.53878-88.40131-.7002Z" transform="matrix(-1 0 0 1 578.54741 0)" fill="#d4aa00" stroke="#000"/><path d="M259.42731,97.84079c14.57454-13.96873,48.90685-11.56993,64.41918-1.20721-18.97981,6.42898-39.40963,9.62067-64.41918,1.20721Z" transform="matrix(-1 0 0 1 583.273804 0)" fill="#2b0000" stroke="#000"/><g transform="matrix(.621524 0.10069-.081386 0.502369 253.663631 22.972344)"><path d="M231.51711,111.4692c43.91004,11.65092,82.22192,6.91486,116.84647-5.3112v21.07884c-1.69764,27.25255-83.22573,50.02984-116.51453,3.9834l-.33194-19.75104Z" transform="matrix(-1 0 0 1 579.924194-1.417447)" fill="#ffd42a" stroke="#000"/><path d="M229.35943,100.8468l120.82988-.33195c-3.09393,47.80139-118.51047,50.55913-120.82988.33195Z" transform="matrix(-1 0 0 1 579.505736 1.40212)" fill="#d4aa00" stroke="#000"/><path d="M229.19345,100.1829c31.73314,44.04316,102.08864,32.31802,119.17013,2.6556l-119.17013-2.6556Z" transform="matrix(-1 0 0 1 578.816382 0.04791)" fill="#ffd42a" stroke="#000"/><path d="M206.80027,57.80154C226.31958,6.152344,343.06582,6.841636,372.85315,54.54711c1.22328,4.60971,2.1986,8.51524,1.5834,13.12495-10.07214,61.41638-147.71093,68.27081-168.92529,2.80083-.51337-3.91081-.0606-8.99526,1.28901-12.67135Z" transform="matrix(-1 0 0 1 579.931518 0)" fill="#fd5" stroke="#000"/><path d="M230.25772,38.14111C291.98833,0.155891,368.19839,34.8621,364.10915,67.39645c-1.42523,8.27975-6.38744,15.69384-7.88418,16.81582-15.67222,25.15589-160.24039,27.85808-137.94466-31.41792c3.66586-7.58193,6.61051-9.79059,11.97741-14.65324Z" transform="matrix(-1 0 0 1 580.21576 0)" fill="#ffd42a" stroke="#000"/><path d="M226.69257,69.59763c-.70956,36.72485,122.53523,43.71332,126.38762,1.57547-7.90801-44.766825-115.98594-50.428161-126.38762-1.57547Z" transform="matrix(-1 0 0 1 579.769714 0)" fill="#806600" stroke="#000"/><path d="M232.93477,82.61512c9.65844-53.18144,115.43585-31.4868,113.84354.12727-9.92783,18.57446-89.89843,28.11135-113.84354-.12727Z" transform="matrix(-1 0 0 1 579.730912 0)" fill="#d4aa00" stroke="#000"/><path d="M239.47137,87.92636c21.41038,17.75501,76.03527,18.71165,99.25455,1.40041-16.86878-28.02994-88.51338-23.48461-99.25455-1.40041Z" transform="matrix(-1 0 0 1 578.197296 0)" fill="#540" stroke="#000"/><path d="M245.07304,91.25235c12.15269-23.33902,78.67774-18.2816,88.40131.7002-7.98436,10.15978-67.45455,16.53878-88.40131-.7002Z" transform="matrix(-1 0 0 1 578.54741 0)" fill="#d4aa00" stroke="#000"/><path d="M259.42731,97.84079c14.57454-13.96873,48.90685-11.56993,64.41918-1.20721-18.97981,6.42898-39.40963,9.62067-64.41918,1.20721Z" transform="matrix(-1 0 0 1 583.273804 0)" fill="#2b0000" stroke="#000"/></g></g></g></g></g></g></g></g></g><g transform="matrix(.236902 0.145228-.084668 0.138114-24.252026-35.048905)"><path d="M231.51711,111.4692c43.91004,11.65092,82.22192,6.91486,116.84647-5.3112v21.07884c-1.69764,27.25255-83.22573,50.02984-116.51453,3.9834l-.33194-19.75104Z" transform="matrix(-1 0 0 1 579.924194-1.417447)" fill="#ffd42a" stroke="#000"/><path d="M229.35943,100.8468l120.82988-.33195c-3.09393,47.80139-118.51047,50.55913-120.82988.33195Z" transform="matrix(-1 0 0 1 579.505736 1.40212)" fill="#d4aa00" stroke="#000"/><path d="M229.19345,100.1829c31.73314,44.04316,102.08864,32.31802,119.17013,2.6556l-119.17013-2.6556Z" transform="matrix(-1 0 0 1 578.816382 0.04791)" fill="#ffd42a" stroke="#000"/><path d="M206.80027,57.80154C226.31958,6.152344,343.06582,6.841636,372.85315,54.54711c1.22328,4.60971,2.1986,8.51524,1.5834,13.12495-10.07214,61.41638-147.71093,68.27081-168.92529,2.80083-.51337-3.91081-.0606-8.99526,1.28901-12.67135Z" transform="matrix(-1 0 0 1 579.931518 0)" fill="#fd5" stroke="#000"/><path d="M230.25772,38.14111C291.98833,0.155891,368.19839,34.8621,364.10915,67.39645c-1.42523,8.27975-6.38744,15.69384-7.88418,16.81582-15.67222,25.15589-160.24039,27.85808-137.94466-31.41792c3.66586-7.58193,6.61051-9.79059,11.97741-14.65324Z" transform="matrix(-1 0 0 1 580.21576 0)" fill="#ffd42a" stroke="#000"/><path d="M226.69257,69.59763c-.70956,36.72485,122.53523,43.71332,126.38762,1.57547-7.90801-44.766825-115.98594-50.428161-126.38762-1.57547Z" transform="matrix(-1 0 0 1 579.769714 0)" fill="#806600" stroke="#000"/><path d="M232.93477,82.61512c9.65844-53.18144,115.43585-31.4868,113.84354.12727-9.92783,18.57446-89.89843,28.11135-113.84354-.12727Z" transform="matrix(-1 0 0 1 579.730912 0)" fill="#d4aa00" stroke="#000"/><path d="M239.47137,87.92636c21.41038,17.75501,76.03527,18.71165,99.25455,1.40041-16.86878-28.02994-88.51338-23.48461-99.25455-1.40041Z" transform="matrix(-1 0 0 1 578.197296 0)" fill="#540" stroke="#000"/><path d="M245.07304,91.25235c12.15269-23.33902,78.67774-18.2816,88.40131.7002-7.98436,10.15978-67.45455,16.53878-88.40131-.7002Z" transform="matrix(-1 0 0 1 578.54741 0)" fill="#d4aa00" stroke="#000"/><path d="M259.42731,97.84079c14.57454-13.96873,48.90685-11.56993,64.41918-1.20721-18.97981,6.42898-39.40963,9.62067-64.41918,1.20721Z" transform="matrix(-1 0 0 1 583.273804 0)" fill="#2b0000" stroke="#000"/><g transform="matrix(.873128 0 0 2.158058 176.423854-178.910007)"><path d="M231.51711,111.4692c43.91004,11.65092,82.22192,6.91486,116.84647-5.3112v21.07884c-1.69764,27.25255-83.22573,50.02984-116.51453,3.9834l-.33194-19.75104Z" transform="matrix(-1 0 0 1 579.924194-1.417447)" fill="#ffd42a" stroke="#000"/><path d="M229.35943,100.8468l120.82988-.33195c-3.09393,47.80139-118.51047,50.55913-120.82988.33195Z" transform="matrix(-1 0 0 1 579.505736 1.40212)" fill="#d4aa00" stroke="#000"/><path d="M229.19345,100.1829c31.73314,44.04316,102.08864,32.31802,119.17013,2.6556l-119.17013-2.6556Z" transform="matrix(-1 0 0 1 578.816382 0.04791)" fill="#ffd42a" stroke="#000"/><path d="M206.80027,57.80154C226.31958,6.152344,343.06582,6.841636,372.85315,54.54711c1.22328,4.60971,2.1986,8.51524,1.5834,13.12495-10.07214,61.41638-147.71093,68.27081-168.92529,2.80083-.51337-3.91081-.0606-8.99526,1.28901-12.67135Z" transform="matrix(-1 0 0 1 579.931518 0)" fill="#fd5" stroke="#000"/><path d="M230.25772,38.14111C291.98833,0.155891,368.19839,34.8621,364.10915,67.39645c-1.42523,8.27975-6.38744,15.69384-7.88418,16.81582-15.67222,25.15589-160.24039,27.85808-137.94466-31.41792c3.66586-7.58193,6.61051-9.79059,11.97741-14.65324Z" transform="matrix(-1 0 0 1 580.21576 0)" fill="#ffd42a" stroke="#000"/><path d="M226.69257,69.59763c-.70956,36.72485,122.53523,43.71332,126.38762,1.57547-7.90801-44.766825-115.98594-50.428161-126.38762-1.57547Z" transform="matrix(-1 0 0 1 579.769714 0)" fill="#806600" stroke="#000"/><path d="M232.93477,82.61512c9.65844-53.18144,115.43585-31.4868,113.84354.12727-9.92783,18.57446-89.89843,28.11135-113.84354-.12727Z" transform="matrix(-1 0 0 1 579.730912 0)" fill="#d4aa00" stroke="#000"/><path d="M239.47137,87.92636c21.41038,17.75501,76.03527,18.71165,99.25455,1.40041-16.86878-28.02994-88.51338-23.48461-99.25455-1.40041Z" transform="matrix(-1 0 0 1 578.197296 0)" fill="#540" stroke="#000"/><path d="M245.07304,91.25235c12.15269-23.33902,78.67774-18.2816,88.40131.7002-7.98436,10.15978-67.45455,16.53878-88.40131-.7002Z" transform="matrix(-1 0 0 1 578.54741 0)" fill="#d4aa00" stroke="#000"/><path d="M259.42731,97.84079c14.57454-13.96873,48.90685-11.56993,64.41918-1.20721-18.97981,6.42898-39.40963,9.62067-64.41918,1.20721Z" transform="matrix(-1 0 0 1 583.273804 0)" fill="#2b0000" stroke="#000"/></g></g><g transform="matrix(.278946 0.170035-.175557 0.288005 64.934567-42.524144)"><path d="M231.51711,111.4692c43.91004,11.65092,82.22192,6.91486,116.84647-5.3112v21.07884c-1.69764,27.25255-83.22573,50.02984-116.51453,3.9834l-.33194-19.75104Z" transform="matrix(-1 0 0 1 579.924194-1.417447)" fill="#ffd42a" stroke="#000"/><path d="M229.35943,100.8468l120.82988-.33195c-3.09393,47.80139-118.51047,50.55913-120.82988.33195Z" transform="matrix(-1 0 0 1 579.505736 1.40212)" fill="#d4aa00" stroke="#000"/><path d="M229.19345,100.1829c31.73314,44.04316,102.08864,32.31802,119.17013,2.6556l-119.17013-2.6556Z" transform="matrix(-1 0 0 1 578.816382 0.04791)" fill="#ffd42a" stroke="#000"/><path d="M206.80027,57.80154C226.31958,6.152344,343.06582,6.841636,372.85315,54.54711c1.22328,4.60971,2.1986,8.51524,1.5834,13.12495-10.07214,61.41638-147.71093,68.27081-168.92529,2.80083-.51337-3.91081-.0606-8.99526,1.28901-12.67135Z" transform="matrix(-1 0 0 1 579.931518 0)" fill="#fd5" stroke="#000"/><path d="M230.25772,38.14111C291.98833,0.155891,368.19839,34.8621,364.10915,67.39645c-1.42523,8.27975-6.38744,15.69384-7.88418,16.81582-15.67222,25.15589-160.24039,27.85808-137.94466-31.41792c3.66586-7.58193,6.61051-9.79059,11.97741-14.65324Z" transform="matrix(-1 0 0 1 580.21576 0)" fill="#ffd42a" stroke="#000"/><path d="M226.69257,69.59763c-.70956,36.72485,122.53523,43.71332,126.38762,1.57547-7.90801-44.766825-115.98594-50.428161-126.38762-1.57547Z" transform="matrix(-1 0 0 1 579.769714 0)" fill="#806600" stroke="#000"/><path d="M232.93477,82.61512c9.65844-53.18144,115.43585-31.4868,113.84354.12727-9.92783,18.57446-89.89843,28.11135-113.84354-.12727Z" transform="matrix(-1 0 0 1 579.730912 0)" fill="#d4aa00" stroke="#000"/><path d="M239.47137,87.92636c21.41038,17.75501,76.03527,18.71165,99.25455,1.40041-16.86878-28.02994-88.51338-23.48461-99.25455-1.40041Z" transform="matrix(-1 0 0 1 578.197296 0)" fill="#540" stroke="#000"/><path d="M245.07304,91.25235c12.15269-23.33902,78.67774-18.2816,88.40131.7002-7.98436,10.15978-67.45455,16.53878-88.40131-.7002Z" transform="matrix(-1 0 0 1 578.54741 0)" fill="#d4aa00" stroke="#000"/><path d="M259.42731,97.84079c14.57454-13.96873,48.90685-11.56993,64.41918-1.20721-18.97981,6.42898-39.40963,9.62067-64.41918,1.20721Z" transform="matrix(-1 0 0 1 583.273804 0)" fill="#2b0000" stroke="#000"/></g><g transform="matrix(.349188 0.136498-.086905 0.22232 18.279452-.1484)"><path d="M231.51711,111.4692c43.91004,11.65092,82.22192,6.91486,116.84647-5.3112v21.07884c-1.69764,27.25255-83.22573,50.02984-116.51453,3.9834l-.33194-19.75104Z" transform="matrix(-1 0 0 1 579.924194-1.417447)" fill="#ffd42a" stroke="#000"/><path d="M229.35943,100.8468l120.82988-.33195c-3.09393,47.80139-118.51047,50.55913-120.82988.33195Z" transform="matrix(-1 0 0 1 579.505736 1.40212)" fill="#d4aa00" stroke="#000"/><path d="M229.19345,100.1829c31.73314,44.04316,102.08864,32.31802,119.17013,2.6556l-119.17013-2.6556Z" transform="matrix(-1 0 0 1 578.816382 0.04791)" fill="#ffd42a" stroke="#000"/><path d="M206.80027,57.80154C226.31958,6.152344,343.06582,6.841636,372.85315,54.54711c1.22328,4.60971,2.1986,8.51524,1.5834,13.12495-10.07214,61.41638-147.71093,68.27081-168.92529,2.80083-.51337-3.91081-.0606-8.99526,1.28901-12.67135Z" transform="matrix(-1 0 0 1 579.931518 0)" fill="#fd5" stroke="#000"/><path d="M230.25772,38.14111C291.98833,0.155891,368.19839,34.8621,364.10915,67.39645c-1.42523,8.27975-6.38744,15.69384-7.88418,16.81582-15.67222,25.15589-160.24039,27.85808-137.94466-31.41792c3.66586-7.58193,6.61051-9.79059,11.97741-14.65324Z" transform="matrix(-1 0 0 1 580.21576 0)" fill="#ffd42a" stroke="#000"/><path d="M226.69257,69.59763c-.70956,36.72485,122.53523,43.71332,126.38762,1.57547-7.90801-44.766825-115.98594-50.428161-126.38762-1.57547Z" transform="matrix(-1 0 0 1 579.769714 0)" fill="#806600" stroke="#000"/><path d="M232.93477,82.61512c9.65844-53.18144,115.43585-31.4868,113.84354.12727-9.92783,18.57446-89.89843,28.11135-113.84354-.12727Z" transform="matrix(-1 0 0 1 579.730912 0)" fill="#d4aa00" stroke="#000"/><path d="M239.47137,87.92636c21.41038,17.75501,76.03527,18.71165,99.25455,1.40041-16.86878-28.02994-88.51338-23.48461-99.25455-1.40041Z" transform="matrix(-1 0 0 1 578.197296 0)" fill="#540" stroke="#000"/><path d="M245.07304,91.25235c12.15269-23.33902,78.67774-18.2816,88.40131.7002-7.98436,10.15978-67.45455,16.53878-88.40131-.7002Z" transform="matrix(-1 0 0 1 578.54741 0)" fill="#d4aa00" stroke="#000"/><path d="M259.42731,97.84079c14.57454-13.96873,48.90685-11.56993,64.41918-1.20721-18.97981,6.42898-39.40963,9.62067-64.41918,1.20721Z" transform="matrix(-1 0 0 1 583.273804 0)" fill="#2b0000" stroke="#000"/></g><g transform="matrix(.385505 0.101105-.084494 0.322168 234.460997 113.888191)"><path d="M231.51711,111.4692c43.91004,11.65092,82.22192,6.91486,116.84647-5.3112v21.07884c-1.69764,27.25255-83.22573,50.02984-116.51453,3.9834l-.33194-19.75104Z" transform="matrix(-1 0 0 1 579.924194-1.417447)" fill="#ffd42a" stroke="#000"/><path d="M229.35943,100.8468l120.82988-.33195c-3.09393,47.80139-118.51047,50.55913-120.82988.33195Z" transform="matrix(-1 0 0 1 579.505736 1.40212)" fill="#d4aa00" stroke="#000"/><path d="M229.19345,100.1829c31.73314,44.04316,102.08864,32.31802,119.17013,2.6556l-119.17013-2.6556Z" transform="matrix(-1 0 0 1 578.816382 1.091632)" fill="#ffd42a" stroke="#000"/><path d="M206.80027,57.80154C226.31958,6.152344,343.06582,6.841636,372.85315,54.54711c1.22328,4.60971,2.1986,8.51524,1.5834,13.12495-10.07214,61.41638-147.71093,68.27081-168.92529,2.80083-.51337-3.91081-.0606-8.99526,1.28901-12.67135Z" transform="matrix(-1 0 0 1 579.931518 0)" fill="#fd5" stroke="#000"/><path d="M230.25772,38.14111C291.98833,0.155891,368.19839,34.8621,364.10915,67.39645c-1.42523,8.27975-6.38744,15.69384-7.88418,16.81582-15.67222,25.15589-160.24039,27.85808-137.94466-31.41792c3.66586-7.58193,6.61051-9.79059,11.97741-14.65324Z" transform="matrix(-1 0 0 1 581.180775 0)" fill="#ffd42a" stroke="#000"/><path d="M226.69257,69.59763c-.70956,36.72485,122.53523,43.71332,126.38762,1.57547-7.90801-44.766825-115.98594-50.428161-126.38762-1.57547Z" transform="matrix(-1 0 0 1 579.769714 0)" fill="#806600" stroke="#000"/><path d="M232.93477,82.61512c9.65844-53.18144,115.43585-31.4868,113.84354.12727-9.92783,18.57446-89.89843,28.11135-113.84354-.12727Z" transform="matrix(-1 0 0 1 579.730912 0)" fill="#d4aa00" stroke="#000"/><path d="M239.47137,87.92636c21.41038,17.75501,76.03527,18.71165,99.25455,1.40041-16.86878-28.02994-88.51338-23.48461-99.25455-1.40041Z" transform="matrix(-1 0 0 1 578.197296 0)" fill="#540" stroke="#000"/><path d="M245.07304,91.25235c12.15269-23.33902,78.67774-18.2816,88.40131.7002-7.98436,10.15978-67.45455,16.53878-88.40131-.7002Z" transform="matrix(-1 0 0 1 578.54741 0)" fill="#d4aa00" stroke="#000"/><path d="M259.42731,97.84079c14.57454-13.96873,48.90685-11.56993,64.41918-1.20721-18.97981,6.42898-39.40963,9.62067-64.41918,1.20721Z" transform="matrix(-1 0 0 1 583.273804 0)" fill="#2b0000" stroke="#000"/></g><g transform="matrix(.232605 0 0 0.277255 152.698869 95.595289)"><path d="M231.51711,111.4692c43.91004,11.65092,82.22192,6.91486,116.84647-5.3112v21.07884c-1.69764,27.25255-83.22573,50.02984-116.51453,3.9834l-.33194-19.75104Z" transform="matrix(-1 0 0 1 579.924194-1.417447)" fill="#ffd42a" stroke="#000"/><path d="M229.35943,100.8468l120.82988-.33195c-3.09393,47.80139-118.51047,50.55913-120.82988.33195Z" transform="matrix(-1 0 0 1 579.505736 1.40212)" fill="#d4aa00" stroke="#000"/><path d="M229.19345,100.1829c31.73314,44.04316,102.08864,32.31802,119.17013,2.6556l-119.17013-2.6556Z" transform="matrix(-1 0 0 1 578.816382 0.04791)" fill="#ffd42a" stroke="#000"/><path d="M206.80027,57.80154C226.31958,6.152344,343.06582,6.841636,372.85315,54.54711c1.22328,4.60971,2.1986,8.51524,1.5834,13.12495-10.07214,61.41638-147.71093,68.27081-168.92529,2.80083-.51337-3.91081-.0606-8.99526,1.28901-12.67135Z" transform="matrix(-1 0 0 1 579.931518 0)" fill="#fd5" stroke="#000"/><path d="M230.25772,38.14111C291.98833,0.155891,368.19839,34.8621,364.10915,67.39645c-1.42523,8.27975-6.38744,15.69384-7.88418,16.81582-15.67222,25.15589-160.24039,27.85808-137.94466-31.41792c3.66586-7.58193,6.61051-9.79059,11.97741-14.65324Z" transform="matrix(-1 0 0 1 580.21576 0)" fill="#ffd42a" stroke="#000"/><path d="M226.69257,69.59763c-.70956,36.72485,122.53523,43.71332,126.38762,1.57547-7.90801-44.766825-115.98594-50.428161-126.38762-1.57547Z" transform="matrix(-1 0 0 1 579.769714 0)" fill="#806600" stroke="#000"/><path d="M232.93477,82.61512c9.65844-53.18144,115.43585-31.4868,113.84354.12727-9.92783,18.57446-89.89843,28.11135-113.84354-.12727Z" transform="matrix(-1 0 0 1 579.730912 0)" fill="#d4aa00" stroke="#000"/><path d="M239.47137,87.92636c21.41038,17.75501,76.03527,18.71165,99.25455,1.40041-16.86878-28.02994-88.51338-23.48461-99.25455-1.40041Z" transform="matrix(-1 0 0 1 578.197296 0)" fill="#540" stroke="#000"/><path d="M245.07304,91.25235c12.15269-23.33902,78.67774-18.2816,88.40131.7002-7.98436,10.15978-67.45455,16.53878-88.40131-.7002Z" transform="matrix(-1 0 0 1 578.54741 0)" fill="#d4aa00" stroke="#000"/><path d="M259.42731,97.84079c14.57454-13.96873,48.90685-11.56993,64.41918-1.20721-18.97981,6.42898-39.40963,9.62067-64.41918,1.20721Z" transform="matrix(-1 0 0 1 583.273804 0)" fill="#2b0000" stroke="#000"/></g></svg>