<?xml version="1.0" encoding="utf-8"?>
<!-- Generator: Adobe Illustrator 26.1.0, SVG Export Plug-In . SVG Version: 6.00 Build 0)  -->
<!DOCTYPE svg [
	<!ENTITY ns_extend "http://ns.adobe.com/Extensibility/1.0/">
	<!ENTITY ns_ai "http://ns.adobe.com/AdobeIllustrator/10.0/">
	<!ENTITY ns_graphs "http://ns.adobe.com/Graphs/1.0/">
	<!ENTITY ns_vars "http://ns.adobe.com/Variables/1.0/">
	<!ENTITY ns_imrep "http://ns.adobe.com/ImageReplacement/1.0/">
	<!ENTITY ns_sfw "http://ns.adobe.com/SaveForWeb/1.0/">
	<!ENTITY ns_custom "http://ns.adobe.com/GenericCustomNamespace/1.0/">
	<!ENTITY ns_adobe_xpath "http://ns.adobe.com/XPath/1.0/">
]>
<svg version="1.2" baseProfile="tiny" id="Layer_1" xmlns:x="&ns_extend;" xmlns:i="&ns_ai;" xmlns:graph="&ns_graphs;"
	 xmlns="http://www.w3.org/2000/svg" xmlns:xlink="http://www.w3.org/1999/xlink" x="0px" y="0px" viewBox="0 0 300 300"
	 overflow="visible" xml:space="preserve">
<metadata>Created by potrace 1.10, written by Peter Selinger 2001-2011<sfw  xmlns="&ns_sfw;">
	<slices></slices>
	<sliceSourceBounds  bottomLeftOrigin="true" height="300.5" width="300.02" x="0" y="0"></sliceSourceBounds>
</sfw>
</metadata>
<g transform="translate(0.000000,300.000000) scale(0.100000,-0.100000)">
	<path d="M172,2990c-46-11-71-36-99-100c-14-30-36-70-50-88s-23-35-21-38c9-8,44,39,83,114c36,69,43,77,73,80c18,2,32-1,32-7
		s7-11,15-11c9,0,20-11,26-24c24-52-73-194-146-215c-38-10-43-6-20,19c10,11,15,20,12,20s-15-10-26-21c-12-13-26-19-35-16
		c-11,5-16,0-16-13c0-16,7-20,38-20c130,1,248,160,211,286C235,3002,231,3004,172,2990z M233,2973c2-10,8-27,12-38c6-18,5-18-5-2
		c-6,9-18,17-25,17c-8,0-15,5-15,10c0,6-12,11-27,11l-28,1l30,8C222,2992,227,2991,233,2973z"/>
	<path d="M582,2987c-9-10-6-18,9-31c12-9,23-15,26-12c9,8,32-26,33-47c0-10-4-16-9-13s-12-11-16-32c-10-52-30-82-81-119
		c-49-37-110-44-160-18c-16,8-36,15-44,15s-26,10-40,21l-25,21l25-7c78-19,86-18,125,16c24,21,51,61,71,107c24,52,39,72,52,72
		c10,0,19,7,19,15c0,43-52-7-90-89c-44-92-77-120-132-113c-22,3-48,8-57,12c-29,12-22-27,9-57c36-33,125-60,173-52
		c125,23,216,165,185,292c-4,17-11,32-16,32s-3-16,5-35l15-35l-35,27c-32,24-34,28-18,34s16,8,3,8C600,3000,588,2994,582,2987z"/>
	<path d="M939,2977c-14-12-42-57-63-101c-31-64-44-81-72-92c-28-12-42-12-75-3c-31,10-42,10-52,0c-9-10-4-19,25-46
		c70-65,185-72,261-18c82,59,130,179,100,251c-14,35-28,44-18,12c4-14,2-20-9-20c-8,0-18,5-21,10c-3,6-18,10-33,10c-21,0-24,2-12,10
		c8,5,10,10,4,10S952,2990,939,2977z M1016,2955c19-10,30-11,35-4c4,7,9,4,12-6c4-9,3-14-1-11c-5,3-14-21-20-53c-7-33-19-64-27-71
		s-13-16-10-20c3-5-5-6-17-2c-13,3-19,1-15-6c12-19-5-42-44-62c-42-22-95-27-83-9c4,8,0,8-15,0c-23-13-45-6-36,10c4,5-6,9-20,9
		c-28,0-85,28-85,42c0,4,12,3,26-2c40-16,89-12,116,9c13,11,39,50,57,88C941,2974,958,2986,1016,2955z"/>
	<path d="M960,2850c0-6,7-10,15-10s15,2,15,4s-7,6-15,10C967,2857,960,2855,960,2850z"/>
	<path d="M898,2788c9-9,15-9,24,0s7,12-12,12S889,2797,898,2788z"/>
	<path d="M1347,2980c-14-11-41-54-61-95c-41-86-70-110-124-102c-20,3-45,8-54,12c-12,5-20,1-25-11c-8-22,46-70,98-86l37-10l-6-64
		c-5-70,9-118,40-135c10-5,24-7,30-3s0-8-15-27c-41-54-67-120-67-173c0-47-1-48-26-42c-71,18-84,19-84,3c0-23,57-76,93-85
		c27-7,33-15,44-57c37-140,54-355,28-355c-6,0-21-11-32-24c-25-28-69-25-78,5c-9,28-26,24-74-17c-42-36-68-40-39-7s48,81,50,129
		c3,43,1,47-21,51c-14,2-29,7-35,12s-20,11-31,14c-16,4-14,5,7,6c14,0,33,4,41,7c10,3,17-2,20-13c3-10,5-1,6,20c1,51-14,77-44,77
		c-14,0-25-5-25-11s8-8,19-4c14,4,21,0,26-16c9-26-16-49-50-49c-30,0-68-44-105-122c-18-37-40-74-50-83c-20-18-68-22-117-10
		c-29,7-33,5-33-13c0-12,14-31,33-45c34-26,105-53,114-43c7,7-23,37-34,34c-12-3-80,32-94,48c-10,13-8,13,15,4c44-16,91-12,121,12
		c15,12,42,52,60,90c40,82,52,98,75,98c43,0,106-53,82-69c-4-3-9-16-9-28c-2-22-38-113-46-113c-2,0-3,19-3,43c1,56-15,54-62-8
		c-21-27-42-50-47-50c-6,0-15-4-21-8c-13-8-44-96-44-124c0-12-25-31-83-60c-70-37-84-41-93-28c-12,16-54,21-54,7c0-5,10-8,21-8
		c35,1,33-20-3-43c-18-11-42-26-53-33c-31-20-43-38-80-116c-41-88-73-108-144-90c-63,16-74-2-29-45c55-52,114-64,223-45
		c18,3,20-3,20-62c0-36,4-75,8-86c6-17-2-33-38-75c-25-30-49-65-52-79s-24-61-45-104c-21-44-38-88-38-98c0-20-15-24-26-7
		c-3,6,0,15,7,20c11,7,11,9-3,9c-27,0-30-18-8-40c21-21,21-22,4-103c-26-131-3-248,69-340c22-29,26-42,18-50c-13-13-86-16-119-4
		c-30,11-41-17-17-43C331,2,345,0,434,2l101,2l-90,4c-73,2-95,7-115,23l-25,21l25-7c70-17,86-17,109,2c22,18,27,19,53,5
		c35-17,62-18,108-4l35,11l-33-29c-21-20-27-30-17-30c9,0,35,19,59,43c24,23,49,47,55,52c11,10,136,152,150,170c4,6,5,17,3,25
		c-3,8-1,12,3,8c15-14,6-262-10-288c-3-6,1-10,10-10c24,0,35,44,36,139c0,88-4,124-15,152c-4,9,3,26,20,45c14,16,36,52,49,79
		c13,28,40,66,60,85s49,55,63,80c15,25,41,60,59,79c33,34,38,43,27,53c-7,7-77-68-94-102c-19-35-72-100-82-100c-5,0-6,5-2,12
		s3,8-5,4c-6-4-9-11-6-16s-1-15-10-23c-8-8-26-39-40-68c-13-30-40-74-60-99c-48-62-145-178-174-206c-29-29-124-58-156-47
		c-27,9-105,101-105,123c0,9-5,21-11,27c-5,5-17,38-25,72c-12,55-12,71,2,139c9,42,20,100,24,128c5,28,22,73,38,100
		c17,27,35,67,41,89s31,65,56,95c49,59,49,61,37,105c-6,18-5,45,2,69c9,33,8,50-8,98c-17,54-18,66-7,143c13,87,30,115,29,47
		c0-50,23-102,70-160c22-26,57-85,78-131s40-78,42-71c6,18-76,180-114,224c-39,45-64,113-64,171c0,47-16,34,164,129
		c27,14,51,25,52,23c2-2,9-39,15-83c6-43,19-92,29-109c49-78,89-171,84-192c-4-13-10-23-15-23s-9-5-9-10c0-17-71-95-186-202
		c-17-16-37-41-45-56c-16-32-67-83-131-132c-57-44-82-79-108-155c-11-33-29-78-40-100c-20-42-25-71-20-120c2-21,5-12,11,29
		c5,32,15,66,23,75c7,9,28,54,46,100c33,82,58,115,132,177c21,17,34,35,30,39c-4,5-2,5,4,2c8-4,5-23-8-63c-10-31-17-64-15-73
		s14,18,26,59c13,41,39,101,59,133c36,58,124,145,130,128c2-5-11-37-28-71s-29-64-27-66c5-6,67,123,67,140c0,21,105,153,118,148
		c7-2,12-8,12-13c0-6-4-7-10-4c-15,9-12-36,5-69c8-15,15-33,15-39c0-27,142-208,154-196c9,9-5,40-15,33c-5-3-13,6-18,19
		c-6,14-15,28-21,32c-7,4,0,19,20,41c16,19,30,45,30,58s8,31,19,40c18,16,18,16,13-11c-2-15-2-26,1-23c4,4,8,22,11,40
		c8,64,18,95,45,130c40,54,52,81,55,127c5,82,16,56,17-38c0-96,1-108,13-239c8-77,39-263,55-328c5-20,12-50,15-65c4-15,10-26,14-23
		c5,3,7-8,6-25s2-26,8-23c5,3,9-2,8-12c-3-27,11-64,23-64c6,0,8-3,4-6c-9-9,31-84,44-84c8,0,9-13,4-42c-4-24-8-50-8-60
		c-2-41-86,54-174,197c-13,20-88,174-103,210c-5,11-12,35-15,53c-4,17-11,32-16,32c-6,0-7,5-3,12c4,6,3,8-4,4c-11-6-8-18,18-96
		c41-122,158-320,233-394l43-42l-4-100c-5-114,6-124,13-13c6,85,8,100,17,114c9,15,22,78,19,94c-1,7,2,10,7,7c13-8,71,120,102,227
		c15,48,28,85,31,83c2-2,4,10,5,27c0,18,10,82,21,142c12,61,24,134,27,164c20,177,26,243,26,306c0,49,3,65,10,55c5-8,10-29,10-46
		c0-43,18-90,55-149c18-27,38-71,45-97c7-27,17-48,21-48c5,0,9-7,9-16c0-8,4-12,10-9s7-1,4-9c-3-9-1-16,6-16c6,0,8-5,5-10
		c-4-6,10-26,30-45l36-35l-22-23c-18-18-21-18-16-4c4,11,3,16-3,12c-6-3-10-12-10-19c0-8-16-26-35-40c-19-15-34-30-34-34
		c2-15-14-52-22-52c-5,0-9-5-9-11c0-17-53-122-72-143c-10-11-18-23-18-27c0-11-157-242-187-275c-15-17-37-46-47-65l-19-34l28,25
		c25,23,119,149,201,271c54,80,119,192,139,239c25,61,31,66,39,34c7-26,97-151,156-215c16-19,30-37,30-40c0-4,20-31,44-60
		c44-53,44-53,28-84c-32-59-13-275,24-275c11,0,13,9,7,43c-10,52-8,215,1,225c4,4,12-2,18-13c5-11,48-56,93-100c67-65,94-84,138-98
		c83-26,115-23,135,14c9,17,26,45,37,63c32,50,73,148,80,189c3,20,11,37,17,37s8-11,5-30c-4-16-2-32,3-35c19-12,11-38-10-32
		c-11,3-20,1-20-4s7-9,15-9c20,0,43-49,28-58c-5-4-13-20-17-37c-4-16-15-39-24-49c-11-13-12-16-3-11c10,5,12,4,7-3c-4-7-14-12-22-12
		s-13-4-12-9c4-12-49-60-58-52c-4,3-4,0,0-6c4-7,11-13,16-13c19,0,82,64,102,104c23,44,40,136,25,133c-5-1-12,4-15,12c-3,9,0,11,8,6
		s11-4,7,2c-3,5-8,29-11,53s-10,48-16,54c-5,5-10,24-10,41s-6,55-14,84l-14,54l35,30c66,58,103,170,77,233c-8,18-14,47-14,63
		c0,20-7,34-19,41c-25,13-41,13-41,0c0-5,9-10,19-10c30,0,36-32,9-54c-22-18-22-19-2-14c17,4,24-2,37-29c15-34,15-34-4-17
		c-10,9-19,12-19,6s5-14,10-17c12-7,14-55,3-55c-5,0-9-15-10-32c-2-18-7-34-13-36c-5-2-10-10-10-18s-4-14-9-14s-11-9-14-21
		s-10-18-17-14c-6,3-9,3-8-2c2-4-1-9-6-11c-8-3-38,60-72,153c-8,22-27,56-42,75c-63,79-70,99-74,203c-2,80-1,96,11,92
		c8-3,38,1,66,10c83,24,153,115,168,217c3,22,1,40-5,44c-7,4-8,2-4-4c4-7,2-12-3-12c-6,0-11,5-11,10c0,6-5,10-11,10c-8,0-8-5,1-15
		c28-34-15-136-83-198c-44-39-52-43-62-27c-3,6-11,10-16,10c-6,0-8-4-5-9c5-7-15-21-30-21c-17,0,15,116,51,184c35,68,46,82,69,84
		c15,2,34-2,42-9c22-18,16,6-7,27c-18,17-23,17-47,4c-16-9-39-40-59-80c-32-65-35-65-48-5c-11,50-33,74-98,105c-34,16-87,46-117,65
		s-63,35-72,35c-11,0-15,5-12,14c3,8-2,36-11,62c-11,34-13,50-5,52c51,17,130,145,130,210c0,20-3,33-6,29c-4-3-22,6-42,21
		c-34,26-35,27-11,32c19,5,26,1,35-19c10-22,11-19,6,24c-5,54-24,85-54,85c-26,0-22-18,5-22c16-2,22-10,22-28c0-19-7-26-35-35
		c-19-5-43-15-53-21c-19-11-100-164-92-173c8-7,33,31,46,69c20,59,47,90,80,90c16,0,29-5,29-11s7-8,15-5c24,9,42-38,26-67
		c-6-12-14-33-16-47c-3-14-9-26-15-28c-5-2-10-8-10-14c0-19-65-73-91-74c-20-1-30,7-50,45c-27,52-63,67-74,32c-7-24-45-28-91-11
		c-62,24-57-45,7-87c23-15,36-29,29-31c-19-7-95,27-120,53c-22,23-22,26-7,43c38,41,74,162,52,171c-6,2-22,12-37,22
		c-32,23-39,24-32,4c4-8,15-15,25-15c22,0,36-44,20-64c-6-7-8-16-5-19c5-4-21-62-43-96c-2-2-11,3-21,12c-10,10-28,17-40,17h-21
		l24,54c13,29,34,90,46,135c12,44,26,81,30,81c5,0,13-9,19-20c8-15,6-23-12-41c-23-21-23-21-2-15c17,5,23,2,27-16c10-37,14-16,8,37
		c-4,36-11,52-27,60c-17,8-19,15-12,40c5,17,11,75,15,130c3,55,11,111,18,125s14,45,16,69c3,36,1,44-13,47c-20,3-23-7-7-23
		c6-6,8-25,3-49l-7-39l-13,68c-7,38-22,84-34,103c-24,42-24,44-6,44c22,0,76,68,76,96c0,21-3,25-17,18c-28-13-103-9-163,8
		s-78,38-33,38c76,1,168,80,198,171c22,66,17,101-15,106c-13,2-27,8-30,13c-9,14-66,16-83,2c-8-7-29-43-47-80c-17-37-43-79-58-94
		c-14-16-20-28-14-28c19,0,44,33,87,117c44,84,58,93,111,68c41-19,46-36,29-84c-7-22-11-41-8-44c2-3-4-10-15-16s-25-25-31-42
		c-8-24-15-30-31-26c-11,3-18,2-15-3c8-13-23-32-66-40l-41-8l-34,72c-20,44-55,94-91,133c-61,64-102,84-123,58c-10-12-7-20,14-46
		c14-17,29-43,32-57c4-15,9-31,13-37c16-29,18-165,1-165c-5,0-21,17-35,39l-26,39l25,37c28,41,32,55,15,55c-5,0-18-17-27-37l-16-38
		l-4,28c-2,16-8,27-13,25c-6-2-9-6-8-8c7-12-46-90-62-90c-10,0-24-3-33-6c-12-5-16,0-16,20c0,33-18,34-30,0c-6-14-15-22-20-19
		c-6,4-8,11-5,16c4,5-4,9-17,9c-24,0-94,37-86,46c3,2,18,0,34-6c69-27,122,11,172,123c17,37,39,71,49,75s19,13,21,20
		C1381,3004,1377,3003,1347,2980z M1509,2888c24-28,52-66,61-86c37-78,50-110,50-120c0-5,7-15,15-22c9-7,13-15,10-18
		c-9-9,114-36,168-36c26-1,47-2,47-4c0-10-60-52-82-57c-33-8-84,17-120,59c-15,17-27,26-28,19c0-6,5-15,10-18c6-4,8-10,5-15
		c-7-11-65,8-65,21c0,9,3,10,32,13c7,0,14,9,16,19c3,17,2,17-33,0c-21-10-34-22-31-30c9-23-9-14-19,9c-6,14-22,25-40,28
		c-25,5-27,7-13,15c31,19,64,105,39,105c-5,0-12-16-15-35c-11-56-21-41-21,31c-1,46-5,68-15,75c-8,5-10,9-4,9s19-9,29-20
		s21-17,26-14c4,2-19,32-51,65c-33,34-60,65-60,70C1420,2969,1465,2937,1509,2888z M1380,2711c0-29,62-77,109-85c48-7,51-18,14-51
		c-49-43-104-29-128,30c-8,19-8,19-12,2c-3-10,3-27,13-38c15-17,15-19,1-19c-35,0-48,62-28,133C1363,2730,1380,2746,1380,2711z
		 M1310,2665c-9-23-13-25-25-15c-22,18-18,38,8,42C1322,2697,1322,2697,1310,2665z M1328,2565c8-15,6-25-8-43c-10-12-25-20-32-17
		c-25,10-48,62-48,108v45l39-37C1300,2601,1322,2576,1328,2565z M1684,2541c131-63,146-91,146-271c0-164-36-339-101-490
		c-19-44-26-50-77-69c-32-11-72-31-90-45c-39-28-47-27-185,31l-88,37l6,58c7,70-8,191-40,322c-29,115-33,223-10,232c8,4,15,12,15,18
		c0,7,14,34,32,62c18,27,31,53,30,57c-1,5,2,6,8,2c5-3,13,2,17,12c10,28,22,32,77,26c46-5,55-2,90,26c21,17,50,31,64,31
		S1639,2562,1684,2541z M1175,2230c16,0,25-7,29-26c4-15,5-28,3-31c-7-7-57,19-52,28c3,4-3,10-14,14c-11,3-25,12-32,21
		c-10,13-8,13,15,4C1139,2235,1162,2230,1175,2230z M983,1704c-12-36-19-45-34-41c-12,3-19,0-19-9c0-8,4-14,9-14c18,0,21-33,5-59
		c-15-26-15-30,1-54c13-20,15-37,10-63c-6-36-6-36,25-32c26,4,39-1,66-27c37-36,41-45,19-45c-8,0-15-6-15-13c0-10,19-12,74-10
		c61,2,79-1,99-17c30-24,37-25,37-6c0,7-10,20-22,28l-22,15l27,35c32,42,33,46,7,73c-12,13-18,29-14,38c9,25,21,21,29-10
		c3-15,15-44,25-65c16-34,17-42,4-85c-8-26-19-52-24-57c-6-6-10-27-10-49c0-45-11-67-57-122c-19-22-36-55-39-76c-3-20-16-49-28-64
		l-22-27l-67,65c-52,50-67,71-67,93c0,16-25,79-56,141c-45,91-58,126-66,190c-10,85-8,118,15,177c14,39,15,39,27,16
		c11-21,10-26-11-43c-16-13-20-21-11-24c15-6,16-55,0-71c-12-12-10-13,13-16c6,0,20-23,31-51c21-54,34-72,44-62c4,3-8,36-26,72
		c-18,35-30,70-27,77c2,7,1,22-3,33c-4,12-1,29,7,42c11,17,12,26,3,43c-10,19-7,28,24,67c20,26,36,50,36,55s4,7,9,3
		C995,1752,992,1731,983,1704z M2081,1703c30-51,60-213,39-213c-4,0-16-22-25-50c-9-27-21-52-26-55c-5-4-9-11-9-17c0-21,33,17,52,60
		c10,23,25,42,33,42s15,5,15,10c0,6-4,10-10,10c-14,0-13,43,2,58c9,9,7,16-6,31c-19,21-18,62,2,69c8,2,12-7,12-27c0-16,5-33,11-36
		c7-5,8-35,4-91c-4-46-8-96-9-112c-2-51-141-311-201-377c-62-68-64-67-91,23c-8,29-26,65-40,81c-30,37-54,92-54,128
		c0,30-17,83-39,122c-12,21-10,26,13,50l26,26v-32c0-20,7-36,18-43c16-10,16-10,0-20c-29-18-20-30,10-14c15,7,53,14,84,14
		c62,0,88,7,88,22c0,6-12,8-27,4c-27-6-27-5,9,27c40,36,41,58,1,32c-31-20-42-13-49,35c-5,32-11,40-35,45c-15,4-31,15-34,26
		c-5,16-10,17-27,8c-15-8-27-8-44,2c-34,18-30,25,17,33c30,5,48,2,65-9c13-8,32-15,42-15c11,0,28-12,37-27c26-42,67-83,82-83
		c9,0,13,16,13,53c0,29,5,58,12,65c9,9,8,12-6,12c-11,0-24,15-34,40c-9,22-24,40-32,40c-25,0-60,30-60,51c0,18,2,18,24,7
		c40-21,125-107,132-133c3-13,0-33-6-45s-9-32-6-45c4-14,1-25-7-28c-9-3-9-7,0-17c18-20,35-1,30,33c-2,17,2,46,9,64
		c10,22,11,34,3,38c-6,5-8,23-4,49c4,22,4,38,0,34c-9-9-45,45-45,67C2040,1751,2057,1741,2081,1703z M1120,1682c-9-15-29-31-48-37
		c-18-5-32-16-32-25c-1-22-25-50-44-50s-22-16-3-23c18-7,10-97-9-97c-9,0-12,8-8,28c2,15-1,38-8,52c-22,42-3,79,76,141
		C1118,1730,1149,1734,1120,1682z M1418,1650c23-7,42-17,42-22s-10-6-22-1c-13,4-55,8-95,8c-71,0-72,0-77,29c-11,55-9,56,52,27
		C1349,1676,1394,1657,1418,1650z M1770,1671c0-34-3-39-22-39c-13,1-60-1-105-4c-81-5-105,4-60,21C1769,1724,1770,1724,1770,1671z
		 M2045,1670c36-49,21-50-28-2c-36,36-39,42-19,39C2010,1705,2031,1689,2045,1670z M1190,1690c0-5-3-10-7-10c-14,0-74-56-67-63
		c8-8,63,29,87,60c29,36,38,28,36-32c-2-52-4-54-33-61c-17-4-40-13-51-20c-29-20-38-17-33,11c6,31-8,33-16,3c-3-13-24-43-46-68
		l-39-45l2,45c2,47,27,82,67,95c11,4,18,10,15,15s3,18,15,30c11,11,20,27,20,35c0,9,9,15,25,15C1179,1700,1190,1696,1190,1690z
		 M1845,1633c13-12,35-25,48-28c22-6,44-32,34-41c-1-1-22,6-46,17c-24,10-51,19-61,19c-19,0-30,19-30,54c0,31,12,40,23,19
		C1818,1663,1833,1645,1845,1633z M1000,1655c-13-14-26-23-28-20c-7,7,29,45,41,45C1019,1680,1013,1669,1000,1655z M1490,1619
		c0-6,10-10,23-9c40,4,47,0,48-22c1-19,2-20,6-5c3,14,12,18,28,15c23-5,125,6,174,18c21,5,23,3,11-11c-7-8-18-15-24-14
		c-27,3-35-2-31-22c2-12,12-27,21-33c16-12,16-16,0-63c-11-32-25-55-41-63c-22-12-27-11-47,12c-39,43-89,118-84,126c2,4-18,7-45,6
		c-31-2-49,2-49,9c-1,7-7-1-15-18c-16-34-25-45-83-99c-40-38-42-39-61-22c-26,24-54,107-41,120c18,18,12,46-10,46c-11,0-20,6-20,14
		c0,10,10,13,38,10c109-11,171-11,176,3C1470,1633,1490,1635,1490,1619z M1998,1573c12-24,22-103,13-103c-21,0-71,78-71,111
		C1940,1597,1989,1591,1998,1573z M1270,1562c0-11-46-32-69-32c-11,0-21-7-25-15c-3-9-18-15-36-15c-16,0-30-4-30-10c0-5,5-10,10-10
		c16,0,12-26-8-50c-18-22-18-22-50-3l-31,19l39,39c39,38,82,59,150,75C1269,1571,1270,1571,1270,1562z M1567,1502c3-13,3-49-1-80
		c-3-31-6-271-7-532c-2-457-3-477-22-517c-12-24-24-43-28-43c-14,0-21,50-24,185c-10,399-16,982-11,995c4,10,20,15,47,15
		C1554,1525,1562,1522,1567,1502z M1890,1455c0-11,7-30,15-42c23-33,10-48-41-50c-42-1-45,0-51,28c-3,16-9,32-13,34c-5,3-3,20,2,38
		c6,17,12,38,14,44C1821,1527,1889,1479,1890,1455z M1213,1491c-3-11,2-29,10-41c14-20,13-25-5-56c-17-29-25-34-58-34
		c-24,0-42,6-51,18c-7,9-9,14-5,10c9-8,46,52,46,74c0,11,44,45,62,47C1215,1510,1216,1501,1213,1491z M1774,1451c-16-15-16-15-9,4
		c4,11,10,29,13,40c6,18,7,18,10-4C1790,1478,1784,1460,1774,1451z M2282,1456c85-57,124-77,132-68c13,12-1-66-24-134
		c-30-90-58-150-76-164c-7-7-14-17-14-22c0-11-60-99-74-109c-4-4-4-9,2-13c10-6,71,73,119,154c32,53,83,199,83,238c0,28,2,32,14,23
		c37-31,42-173,7-216c-15-18-15-19,2-6c20,16,22,4,3-21c-7-10-16-15-19-11c-4,3-7,1-7-5s5-14,10-17c6-3,10-47,10-97
		c0-86,2-93,35-148c19-32,42-60,50-63c7-3,19-25,25-49c7-24,20-58,31-77c32-55,69-218,64-282c-4-64-39-155-85-222
		c-16-25-30-49-30-55c0-50-102-25-195,47c-80,61-79,60-186,202c-51,67-121,159-157,203c-35,43-78,101-94,128c-18,29-34,45-41,41
		s-6,1,2,10c7,9,19,17,26,17c58,0,174,217,167,313c-2,33,15,17,43-44c30-61,57-90,156-165c47-35,60-52,86-115c17-41,33-92,35-113
		c4-41,24-60,30-29c5,25-12,82-35,116s-18,44,10,17c12-10,24-16,29-12c4,4,4,2,1-4c-4-7,23-38,61-72c58-52,69-68,84-118
		c15-51,38-197,38-243c0-9,3-11,9-6c16,17-4,214-28,275c-21,56-92,132-172,187c-20,13-49,43-63,66c-15,24-64,69-110,104
		c-63,47-89,73-108,110c-13,26-32,60-41,74c-18,26-17,28,43,153c56,117,60,132,60,196c0,51,4,70,13,70
		C2210,1500,2246,1480,2282,1456z M1457,1282c2-108,5-345,8-527l5-330l-31,85c-65,181-97,385-106,670l-6,195l29,17c16,9,45,33,63,52
		c19,20,35,36,35,36C1455,1480,1456,1391,1457,1282z M1600,1456c0-7,16-30,35-50c27-29,40-36,56-31c22,7,22,7,15-126
		c-13-262-61-571-111-719l-26-75l6,334c3,184,5,415,5,513c0,117,3,177,10,173C1596,1472,1600,1463,1600,1456z M548,1288
		c-14-51-17-90-13-129l6-57l-31-4c-20-3-29-1-27,6c3,7-13,10-49,8c-41-3-62,1-94,19c-39,22-57,49-22,33c9-4,35-9,57-12
		c58-5,89,24,136,125c21,46,42,83,47,83S558,1327,548,1288z M2031,1018c-17-46-63-153-67-157c-7-7-33,33-34,50c0,11,96,127,107,129
		C2038,1040,2036,1030,2031,1018z M1110,911c0-3-9-17-20-31c-20-25-20-25-36-5c-15,18-42,75-65,133c-7,18,8,9,56-33
		C1081,943,1110,915,1110,911z"/>
	<path d="M1267,2574c-3-5,3-19,13-32c32-39,42-24,11,17C1281,2572,1270,2579,1267,2574z"/>
	<path d="M1346,2460c-20-23-46-61-58-85c-12-25-24-45-27-45c-4,0-4-23-2-51c4-61,24-53,23,9c0,24,5,46,14,53c8,6,14,18,14,26
		c0,7,10,24,21,36c12,12,18,16,14,8c-6-10-4-12,4-7c7,5,10,14,7,21c-2,7,3,21,12,32c16,18,27,43,18,43
		C1384,2500,1366,2482,1346,2460z"/>
	<path d="M990,1339c0-22,94-109,117-108c14,0,12,5-11,22c-17,12-47,40-68,62C1003,1342,990,1350,990,1339z"/>
	<path d="M926,1307c3-10,9-15,12-12s0,11-7,18C921,1322,920,1321,926,1307z"/>
	<path d="M1000,1229c0-5,5-7,10-4c6,3,10,8,10,11c0,2-4,4-10,4C1005,1240,1000,1235,1000,1229z"/>
	<path d="M1147,1183c11-44,6-66-19-84c-12-10-19-21-15-25s18,3,32,16c25,23,33,68,19,104C1154,1221,1139,1212,1147,1183z"/>
	<path d="M1971,1294c-36-35-62-66-59-69c13-13,138,102,138,127C2050,1368,2033,1356,1971,1294z"/>
	<path d="M1867,1203c-4-3-7-23-7-44c0-32,5-41,34-58c36-22,46-25,46-13c0,4-14,15-31,25c-29,16-31,21-26,57
		C1888,1207,1882,1219,1867,1203z"/>
	<path d="M1585,1581c8-15,85-54,92-47c3,2-18,17-47,31C1601,1580,1581,1586,1585,1581z"/>
	<path d="M1340,1550c0-12,27-12,55,0c16,7,13,9-17,9C1357,1560,1340,1556,1340,1550z"/>
	<path d="M1423,1536c-13-6-23-14-23-19c0-9,36,9,45,23c3,6,5,9,3,9C1446,1548,1435,1543,1423,1536z"/>
	<path d="M1590,1542c0-12,19-26,26-19c2,2-2,10-11,17C1596,1548,1590,1548,1590,1542z"/>
	<path d="M2360,1256c-15-39-12-46,6-13c9,16,13,31,10,34S2366,1271,2360,1256z"/>
	<path d="M2327,1223c-11-11-8-20,7-20c8,0,12,6,9,14C2337,1232,2336,1232,2327,1223z"/>
	<path d="M2310,1180c0-5,5-10,10-10c6,0,10,5,10,10c0,6-4,10-10,10C2315,1190,2310,1186,2310,1180z"/>
	<path d="M2300,1158c0-3-7-22-15-42s-13-36-10-36c9,0,37,71,31,78C2303,1161,2300,1161,2300,1158z"/>
	<path d="M2389,1046c-6-17-13-25-16-18c-6,15-86-83-81-99c2-6,19,11,38,38s40,48,45,47c15-5,29,8,42,37c9,21,8,26-3,26
		C2407,1077,2396,1063,2389,1046z"/>
	<path d="M2418,865c-2-19-1-40,2-46c4-5,7,11,8,36C2430,908,2424,915,2418,865z"/>
	<path d="M2395,860c-8-34,2-90,16-90c4,0,4,12-2,27s-8,42-4,60C2412,898,2404,901,2395,860z"/>
	<path d="M2170,860c6-11,13-20,16-20c2,0,0,9-6,20s-13,20-16,20C2162,880,2164,871,2170,860z"/>
	<path d="M2195,829c-4-6-4-13-1-16c3-4,6,0,6,8c1,8,9-2,20-21c23-41,27-32,5,10C2208,843,2204,845,2195,829z"/>
	<path d="M2186,780c3-14,6-33,7-42s5-14,9-12c9,6,12-13,10-61c-1-29-1-29,7-5c5,14,6,36,3,49c-3,17-1,22,7,17s8,0-1,19
		c-7,16-14,22-16,15c-3-8-11,0-18,16C2182,801,2181,802,2186,780z"/>
	<path d="M1982,760c-18-11-35-27-39-35c-4-13-8-13-21-3c-20,17-14,5,33-69c22-34,44-62,49-63c4,0,1,11-8,25c-14,21-14,25-2,25
		c8,0,18-4,21-10c7-11,45,9,45,24c0,5,7,18,17,28c9,10,11,18,5,18s-15-8-21-17c-5-10-13-15-16-11c-4,4,0,17,9,30s18,21,20,18
		c3-3,8-1,13,4s3,6-4,2c-12-7-18,5-14,27c1,5-3,6-8,3s-14,1-21,9C2024,784,2022,784,1982,760z M2047,730c2-8-10-29-25-47
		c-27-30-30-31-43-14c-28,32-30,41-15,57c9,8,16,12,16,8c0-5,6-2,12,4C2009,755,2044,749,2047,730z"/>
	<path d="M1996,706c3-9,11-16,16-16c13,0,5,23-10,28C1995,720,1992,716,1996,706z"/>
	<path d="M2090,635c-13-14-29-25-36-25c-13,0-26-25-17-34c12-11,20-6,52,35C2126,656,2126,674,2090,635z"/>
	<path d="M2439,611c12-16,21-33,21-38s7-18,15-29c14-18,14-17,5,9c-17,47-40,87-51,87C2423,640,2428,627,2439,611z"/>
	<path d="M2130,605c-13-14-29-25-36-25c-11,0-24-21-24-40c0-17,35-3,46,18c6,12,19,31,29,42C2172,630,2158,634,2130,605z"/>
	<path d="M2016,569c17-30,84-103,84-91c0,6-21,33-47,59C2028,563,2011,578,2016,569z"/>
	<path d="M2430,565c0-11,9-31,20-45s20-31,20-37c0-7,5-13,10-13c14,0,14,0-20,61C2442,564,2430,577,2430,565z"/>
	<path d="M2431,510c0-8,8-31,19-50s19-28,19-20s-8,31-19,50S2431,518,2431,510z"/>
	<path d="M2395,138c1-14,8-23,19-23c9,0,20-4,24-10c4-5,14-11,22-13c8-1,4,7-10,18s-32,27-41,35C2395,158,2394,158,2395,138z"/>
	<path d="M1445,2990c3-5,8-10,11-10c2,0,4,5,4,10c0,6-5,10-11,10C1444,3000,1442,2996,1445,2990z"/>
	<path d="M2155,2986c-8-6-31-44-51-85s-46-82-57-92c-24-20-72-24-112-9c-21,8-27,7-32-7c-11-28,56-79,120-93c63-13,95-7,153,26
		c85,48,145,189,109,254c-17,30-20,18-3-13c10-20,10-21-5-8c-19,15-23,1-5-17c9-9,9-17,0-34c-6-13-16-40-22-60c-6-21-15-38-19-38
		s-12-10-18-23c-13-29-113-79-130-65c-6,5-20,8-30,7s-25,0-33,4c-8,3-27,8-41,11c-15,3-37,15-50,27l-24,21l25-7c102-25,136-7,182,93
		c17,37,38,75,46,85c17,20,68,23,75,5c2-7,8-10,12-5C2269,2985,2183,3007,2155,2986z"/>
	<path d="M2556,2984c-9-8-31-49-50-90c-28-60-41-77-70-90c-30-15-41-16-77-5c-60,18-71,1-28-42c74-74,211-75,287-4
		c63,58,103,181,75,229l-14,23l7-24l6-24l-30,22C2627,3004,2578,3006,2556,2984z M2640,2977c34-16,48-36,42-60c-4-14-7-16-13-5
		c-5,8-7,2-5-17c5-38-34-111-57-107c-11,2-15-2-12-11c7-17-63-57-99-57c-16,0-25,4-21,10c3,6,1,10-4,10c-6,0-11-6-11-12c0-9-3-9-9,1
		c-5,8-19,12-35,9c-14-3-23-1-20,3c3,5-1,9-8,9s-26,9-43,20l-30,20l60-6c53-5,64-3,89,17c16,12,42,52,59,88
		C2567,2989,2585,3002,2640,2977z"/>
	<path d="M2580,2868c0-4,7-8,15-8s15,4,15,8c0,5-7,9-15,9S2580,2873,2580,2868z"/>
	<path d="M2962,2988c-5-7-26-46-46-85c-46-93-68-108-146-99c-33,4-60,3-60-1c0-36,75-86,146-97c47-8,116,7,134,29c19,23,7,27-26,11
		c-35-17-45-19-109-16c-35,1-44,4-30,9c16,6,12,9-20,15c-40,6-83,31-73,41c3,3,17,1,32-5c69-26,123,8,168,107c16,35,37,72,48,83
		c14,14,16,20,6,20C2979,3000,2968,2994,2962,2988z"/>
	<path d="M2970,2886c0-2,7-9,15-16c9-7,15-8,15-2c0,5-7,12-15,16C2977,2887,2970,2888,2970,2886z"/>
	<path d="M1200,2869c0-5,5-7,10-4c6,3,10,8,10,11c0,2-4,4-10,4C1205,2880,1200,2875,1200,2869z"/>
	<path d="M1768,2858c5-5,16-8,23-6c8,3,3,7-10,11C1764,2867,1760,2866,1768,2858z"/>
	<path d="M2180,2859c0-5,5-7,10-4c6,3,10,8,10,11c0,2-4,4-10,4C2185,2870,2180,2865,2180,2859z"/>
	<path d="M1360,2850c0-5,7-10,16-10c8,0,12,5,9,10c-3,6-10,10-16,10C1364,2860,1360,2856,1360,2850z"/>
	<path d="M140,2840c0-5,7-10,16-10c8,0,12,5,9,10c-3,6-10,10-16,10C144,2850,140,2846,140,2840z"/>
	<path d="M548,2843c6-2,18-2,25,0c6,3,1,5-13,5S541,2846,548,2843z"/>
	<path d="M95,2820c-3-5-1-10,4-10c6,0,11,5,11,10c0,6-2,10-4,10C103,2830,98,2826,95,2820z"/>
	<path d="M2948,2813c7-3,16-2,19,1c4,3-2,6-13,5C2943,2819,2940,2816,2948,2813z"/>
	<path d="M1310,2800c0-5,5-10,11-10c5,0,7,5,4,10c-3,6-8,10-11,10C1312,2810,1310,2806,1310,2800z"/>
	<path d="M85,2780c3-5,10-10,16-10c5,0,9,5,9,10c0,6-7,10-16,10C86,2790,82,2786,85,2780z"/>
	<path d="M2910,2750c-9-6-10-10-3-10c6,0,15,5,18,10C2933,2762,2929,2762,2910,2750z"/>
	<path d="M1700,2730c-9-6-10-10-3-10c6,0,15,5,18,10C1723,2742,1719,2742,1700,2730z"/>
	<path d="M2620,2560c0-5,11-10,25-10c20,0,25-5,25-25c0-25-25-45-58-45c-27,0-60-39-101-122c-45-91-69-107-141-92c-58,12-69,4-46-31
		c35-54,144-85,217-63c94,27,180,156,165,246c-4,20-9,55-12,77c-4,22-13,48-22,58C2656,2571,2620,2576,2620,2560z M2695,2422
		c-3-3-5,0-5,6c0,7-4,12-9,12s-5-12,1-28c9-23,8-36-5-62c-10-18-17-40-17-48c0-18-83-99-112-108c-11-3-23-2-27,2c-3,5-21,10-40,11
		c-24,1-30-1-20-8c10-6,5-9-17-9c-19,0-34,6-38,15c-3,8-14,15-24,15s-27,10-38,21c-19,22-19,22,6,13c14-5,42-9,63-8
		c49,0,76,27,124,124c32,64,42,75,66,78c16,2,35-2,43-9c9-7,14-8,14-1c0,6-4,14-10,17c-16,10-12,23,8,27c11,2,21-6,30-26
		C2695,2440,2698,2425,2695,2422z"/>
	<path d="M2588,2333c6-2,18-2,25,0c6,3,1,5-13,5S2581,2336,2588,2333z"/>
	<path d="M2538,2273c7-3,16-2,19,1c4,3-2,6-13,5C2533,2279,2530,2276,2538,2273z"/>
	<path d="M2220,2550c0-5,6-7,14-4c9,3,19-4,26-17c11-19,10-25-6-36c-10-7-28-13-39-13c-34,0-68-39-109-123c-46-96-79-118-147-98
		c-56,17-72,2-38-35c34-38,96-64,152-64c86,0,156,44,197,126c28,56,43,134,26,134c-6,0-22,9-36,20s-34,20-45,21s-4,5,15,8
		c30,5,37,3,48-16c17-31,24-29,12,3c-6,14-10,38-10,53s-5,32-12,39C2254,2562,2220,2564,2220,2550z M2240,2437c14-7,28-16,32-22
		c12-16,9-45-4-41c-7,1-10,1-5-1c11-7,9-43-3-43c-5,0-9-3-8-7c1-5-8-27-20-49c-26-50-102-95-159-93c-35,1-36,2-13,10c19,7,13,8-24,5
		c-27-2-43,0-37,4c8,4,2,9-16,13c-15,3-37,13-48,21c-18,14-15,15,40,10c76-8,100,9,144,103C2168,2449,2185,2462,2240,2437z"/>
	<path d="M2185,2330c3-5,11-10,16-10c6,0,7,5,4,10c-3,6-11,10-16,10C2183,2340,2182,2336,2185,2330z"/>
	<path d="M2130,2310c0-5,5-10,11-10c5,0,7,5,4,10c-3,6-8,10-11,10C2132,2320,2130,2316,2130,2310z"/>
	<path d="M990,2541c0-5,10-11,22-13c29-4,36-37,12-56c-18-14-18-14,3-9c20,4,23,1,22-26c0-18,2-43,4-57c4-24-1-40-26-100
		c-13-29-73-90-81-82c-3,3-6,0-6-7s-4-10-9-6c-5,3-12,1-16-5c-3-5-13-10-21-10s-12,5-9,10c4,6-6,10-22,9c-25,0-26-1-8-9
		c16-7,17-9,3-9c-9-1-20,4-23,9c-3,6-17,10-30,10c-32,0-105,29-105,42c0,6,8,7,18,3c83-34,125-9,183,107c25,49,48,82,60,85
		c10,3,16,10,12,16c-7,12,14,1,40-21c23-20,22,0-1,21c-41,37-70,15-125-94c-52-103-73-118-147-103c-60,13-76-2-44-37
		c59-66,179-82,259-35c73,43,133,152,121,219c-3,18-9,56-14,85c-5,30-15,58-23,63C1021,2553,990,2552,990,2541z M1068,2405
		c-3-3-9,2-12,12c-6,14-5,15,5,6C1068,2416,1071,2408,1068,2405z"/>
	<path d="M180,2530c0-5,9-10,20-10c32,0,37-30,9-53c-22-19-23-20-3-15c17,4,25-2,37-28l16-34l-49,36c-46,33-55,35-51,11c1-5-3-6-9-2
		c-18,11-42-17-75-90c-18-38-42-79-54-89c-11-11-21-24-21-29c0-25,56,45,90,114c31,61,44,78,65,81c14,3,32,0,38-7c7-6,17-10,24-8
		c27,9,27-73,0-122c-6-11-11-24-12-28c0-4-7-12-15-17s-12-10-7-10c4,0-1-8-10-18c-10-10-27-16-37-14c-13,4-17,1-12-6
		c14-24-88-44-110-22c-6,6-10,3-11-10c-1-12,5-20,15-21c93-6,172,41,218,131c22,44,35,120,23,142c-5,10-11,36-13,58s-10,47-16,55
		C216,2542,180,2545,180,2530z"/>
	<path d="M585,2530c3-5,12-7,20-4c7,3,18-3,24-15c13-24-9-51-42-51c-38,0-68-30-102-104c-52-112-84-132-177-112c-50,11-51-10-3-52
		c83-74,215-66,292,16c58,62,89,164,67,217c-7,17-13,44-14,61c0,16-5,35-12,42C624,2542,576,2544,585,2530z M644,2443
		c3-10,9-25,12-33c3-9,2-11-3-5c-12,15-51,35-70,36c-14,1,14,11,48,18C635,2459,640,2452,644,2443z M613,2418c31-18,37-29,31-58
		c-3-14-6-33-7-42c-1-10-5-18-10-18c-4,0-5-4-2-10c3-5,1-10-5-10s-9-4-6-9c8-13-42-63-56-55c-6,4-8,3-5-3c9-14-40-46-59-39
		c-8,3-14,1-14-4c0-16-66-11-80,5c-7,8-23,15-37,15c-25,0-73,27-73,41c0,5,12,4,26-1c75-29,125-1,172,97C540,2435,558,2448,613,2418
		z"/>
	<path d="M540,2316c0-2,7-6,15-10c8-3,15-1,15,4c0,6-7,10-15,10S540,2318,540,2316z"/>
	<path d="M500,2250c0-5,7-7,15-4c8,4,15,8,15,10s-7,4-15,4S500,2256,500,2250z"/>
	<path d="M510,2200c-9-6-10-10-3-10c6,0,15,5,18,10C533,2212,529,2212,510,2200z"/>
	<path d="M420,2186c0-2,9-6,20-9s18-1,14,4C449,2190,420,2194,420,2186z"/>
	<path d="M1855,2507c1-35,24-88,25-54c0,9-5,17-11,17c-8,0-8,4-1,13c11,13,6,57-7,57C1858,2540,1855,2525,1855,2507z"/>
	<path d="M2976,2461c-9-10-34-52-54-92s-49-82-64-93c-26-18-32-19-79-7c-55,15-64,12-55-17c12-38,80-74,149-79c63-5,127,13,127,37
		c0,13-3,13-36-5c-16-8-47-14-69-14l-40,1l38,8c58,11,54,18-9,13c-59-4-115,9-134,32c-9,11-1,12,47,8c58-5,59-5,91,32
		c18,20,44,62,58,93s32,64,41,74s14,20,11,23S2985,2472,2976,2461z"/>
	<path d="M2470,2339c0-5,5-7,10-4c6,3,10,8,10,11c0,2-4,4-10,4C2475,2350,2470,2345,2470,2339z"/>
	<path d="M2985,2340c3-5,8-10,11-10c2,0,4,5,4,10c0,6-5,10-11,10C2984,2350,2982,2346,2985,2340z"/>
	<path d="M960,2309c0-5,5-7,10-4c6,3,10,8,10,11c0,2-4,4-10,4C965,2320,960,2315,960,2309z"/>
	<path d="M143,2303c9-2,23-2,30,0c6,3-1,5-18,5C139,2308,133,2306,143,2303z"/>
	<path d="M2986,2295c-3-8-1-15,4-15c6,0,10,7,10,15s-2,15-4,15S2990,2303,2986,2295z"/>
	<path d="M2940,2280c0-5,5-10,11-10c5,0,7,5,4,10c-3,6-8,10-11,10C2942,2290,2940,2286,2940,2280z"/>
	<path d="M908,2253c7-3,16-2,19,1c4,3-2,6-13,5C903,2259,900,2256,908,2253z"/>
	<path d="M243,2213c4-3,1-13-6-22c-11-14-10-14,5-2c16,12,16,31,1,31C239,2220,240,2217,243,2213z"/>
	<path d="M2710,2200c0-5,5-10,11-10c5,0,7,5,4,10c-3,6-8,10-11,10C2712,2210,2710,2206,2710,2200z"/>
	<path d="M2630,2019c0-6,8-8,19-4c14,4,21,0,26-15c9-28-11-50-44-50c-36,0-71-39-109-121c-17-36-40-74-52-84c-22-20-64-24-117-10
		c-28,6-33,5-33-10c0-25,56-73,98-85c115-32,214,14,272,127c29,57,28,178-2,241C2676,2030,2630,2040,2630,2019z M2698,1918
		c6-17,9-34,7-37c-3-2-5,1-5,7c0,12-54,41-79,43c-9,1,0,5,19,9s37,8,40,9C2683,1949,2691,1936,2698,1918z M2657,1904
		c43-19,47-42,21-100c-12-27-22-52-23-56c0-4-20-25-43-47c-43-38-76-51-134-51c-25,0-28,3-19,14s9,14-1,13c-47-2-79,6-99,22l-24,20
		l58-6c51-5,60-3,83,18c15,13,41,55,60,93c18,38,38,74,44,81C2593,1921,2619,1921,2657,1904z"/>
	<path d="M2595,1800c3-5,14-10,23-10c15,0,15,2,2,10C2600,1813,2587,1813,2595,1800z"/>
	<path d="M2498,1673c6-2,18-2,25,0c6,3,1,5-13,5S2491,1676,2498,1673z"/>
	<path d="M590,2001c0-5,10-11,22-13c23-3,37-34,21-48c-4-5-20-11-35-14c-50-9-68-27-111-113c-51-104-78-123-153-106c-37,9-47,8-51-4
		c-14-36,86-94,165-94c87-1,151,39,195,119c27,50,49,151,31,139c-6-3-11,18-12,51c-2,35-9,63-19,74C626,2011,590,2017,590,2001z
		 M654,1881c-2-2-16,5-31,15l-28,18l25,6c20,5,26,2,31-14C654,1894,655,1883,654,1881z M610,1885c7-8,16-12,21-10c4,3,13-4,19-15
		c8-15,7-27-5-51c-9-17-14-33-11-36c8-9-33-79-61-104c-15-13-23-17-18-9c6,9,2,7-7-3c-10-11-25-17-33-13c-9,3-13,2-10-4s-1-10-10-10
		c-12,0-15,6-11,23c3,12,3,16,0,10c-3-7-12-13-20-13s-14-6-15-12c0-10-2-10-6,0c-2,6-9,12-14,12c-6,0-7-6-3-12c6-10,4-10-7,0
		c-7,6-21,12-31,12c-23,0-88,31-88,43c0,5,8,6,18,2c82-33,128-5,183,109c29,62,46,86,62,89c12,2,25,5,28,6
		C595,1899,603,1893,610,1885z"/>
	<path d="M590,1846c0-2,8-10,18-17c15-13,16-12,3,4S590,1854,590,1846z"/>
	<path d="M184,1993c4-4,15-8,24-8c21,0,29-44,10-56c-7-5-24-9-37-9c-31,0-83-56-101-109c-7-22-29-59-48-82c-38-45-40-58-3-28
		c13,11,43,57,66,102c37,75,44,82,73,85c18,2,32-1,32-7s9-11,19-11c24,0,35-28,19-48c-10-12-10-14,0-8c18,11,15,0-14-58
		c-30-59-53-88-66-80c-4,3-7,0-6-7c4-19-61-49-107-49c-31,0-37,3-25,11c13,9,13,10,0,6c-8-2-16-11-18-20c-3-14,5-17,38-17
		c84,0,164,56,206,145c21,44,35,139,18,122c-4-4-19,2-34,13c-16,11-36,20-47,21c-13,1-11,3,7,9c40,13,46,11,57-12c8-18,10-13,5,27
		c-6,60-16,75-50,75C188,2000,180,1997,184,1993z"/>
	<path d="M2978,1923c-9-10-29-48-45-84c-17-36-43-75-59-88c-25-20-36-22-86-17c-31,4-59,3-62-2c-6-10,48-64,82-81
		c35-18,123-21,160-6c26,11,32,19,31,42c-1,21-3,23-6,7c-5-27-98-54-116-34c-9,10-9,11,1,6c7-4,22-4,35,1c16,5,0,9-56,13
		c-64,5-81,10-100,29c-21,22-21,23-2,17c93-34,132-11,197,116C3000,1935,3006,1954,2978,1923z"/>
	<path d="M2976,1799c-11-11-17-21-14-24c2-3,13,4,23,15C3009,1816,3001,1823,2976,1799z"/>
	<path d="M1133,1785c0-8,4-12,9-9s6,10,3,15C1136,1804,1133,1802,1133,1785z"/>
	<path d="M1835,1790c3-5,8-10,11-10c2,0,4,5,4,10c0,6-5,10-11,10C1834,1800,1832,1796,1835,1790z"/>
	<path d="M2188,1793c7-3,16-2,19,1c4,3-2,6-13,5C2183,1799,2180,1796,2188,1793z"/>
	<path d="M145,1770c3-5,10-10,16-10c5,0,9,5,9,10c0,6-7,10-16,10C146,1780,142,1776,145,1770z"/>
	<path d="M2940,1749c0-5,9-9,20-9s20,2,20,4s-9,6-20,9S2940,1754,2940,1749z"/>
	<path d="M2130,1734c0-8,5-12,10-9c6,4,8,11,5,16C2136,1755,2130,1752,2130,1734z"/>
	<path d="M97,1709c7-7,15-10,18-7s-2,9-12,12C89,1720,88,1719,97,1709z"/>
	<path d="M2231,1634c0-11,3-14,6-6c3,7,2,16-1,19C2233,1651,2230,1645,2231,1634z"/>
	<path d="M160,1570c-9-6-10-10-3-10c6,0,15,5,18,10C183,1582,179,1582,160,1570z"/>
	<path d="M768,1563c7-3,16-2,19,1c4,3-2,6-13,5C763,1569,760,1566,768,1563z"/>
	<path d="M2640,1490c0-5,9-10,19-10c30,0,36-32,9-54c-23-19-23-19-1-14c16,4,23,0,27-15c3-12,8-19,11-16c9,10-12,101-26,110
		C2660,1503,2640,1502,2640,1490z"/>
	<path d="M190,1461c0-5,10-11,23-13c32-4,36-45,5-58c-22-10-22-10,5-7c17,3,27,0,27-9c0-7,3-20,7-30c5-13-5-9-39,14l-44,31l-27-22
		c-15-12-42-54-61-93s-47-81-62-93c-33-26-25-40,10-17c14,9,42,52,65,100c33,70,44,84,68,89c19,4,32,1,40-10c6-8,16-12,22-9
		c12,8,31-24,27-45c-8-41-19-69-27-69c-5,0-8-3-8-7c1-5,1-17,0-28c-1-17-3-18-11-5s-10,12-10-3c0-30-42-61-109-82c-18-5-22-4-16,6
		c6,9,4,10-8,6c-10-4-24-10-32-13s-15-1-15,5s-4,11-10,11c-5,0-10-9-10-20c0-17,7-20,50-20c28,0,65,6,83,14c72,30,139,132,139,211
		c-1,60-16,141-31,159C227,1471,190,1476,190,1461z"/>
	<path d="M2545,1400c-3-5-2-10,4-10c5,0,13,5,16,10c3,6,2,10-4,10C2556,1410,2548,1406,2545,1400z"/>
	<path d="M2982,1388c-5-7-24-43-41-80c-18-37-46-79-63-94c-33-27-37-27-120-8c-62,14-9-60,64-90c74-31,178-14,178,28
		c-1,19-1,20-11,3c-6-9-14-15-20-12c-5,4-9,2-9-2c0-5-12-10-27-11c-22-1-24,0-13,8c11,7,0,10-38,10c-34,0-68,8-95,22
		c-46,23-36,36,15,19c26-9,38-8,67,7s46,37,84,111C2997,1384,3009,1420,2982,1388z"/>
	<path d="M2525,1369c-4-6-5-12-2-15c2-3,7,2,10,11C2540,1382,2534,1385,2525,1369z"/>
	<path d="M2905,1310c3-5,8-10,11-10c2,0,4,5,4,10c0,6-5,10-11,10C2904,1320,2902,1316,2905,1310z"/>
	<path d="M652,1285c0-11,4-31,8-45c6-20,8-21,8-5c0,11-4,31-8,45C654,1300,652,1301,652,1285z"/>
	<path d="M2991,1284c0-11,3-14,6-6c3,7,2,16-1,19C2993,1301,2990,1295,2991,1284z"/>
	<path d="M2645,1280c-3-5-1-10,4-10c6,0,11,5,11,10c0,6-2,10-4,10C2653,1290,2648,1286,2645,1280z"/>
	<path d="M2605,1260c3-5,8-10,11-10c2,0,4,5,4,10c0,6-5,10-11,10C2604,1270,2602,1266,2605,1260z"/>
	<path d="M150,1240c0-4,9-10,20-13s20-2,20,3c0,4-9,10-20,13S150,1245,150,1240z"/>
	<path d="M691,1229c-1-18,20-82,25-77c2,2-3,24-11,48C698,1225,691,1238,691,1229z"/>
	<path d="M2990,1222c0-7-10-13-22-13c-19-1-20-2-4-6c20-5,44,12,33,24C2993,1230,2990,1228,2990,1222z"/>
	<path d="M2548,1203c7-3,16-2,19,1c4,3-2,6-13,5C2543,1209,2540,1206,2548,1203z"/>
	<path d="M736,1097c3-10,9-15,12-12s0,11-7,18C731,1112,730,1111,736,1097z"/>
	<path d="M608,1090c6-8,12-22,12-31c0-10,27-45,59-78c64-66,91-82,45-27c-16,18-38,45-48,60c-10,14-25,26-32,26c-8,0-14,8-14,19
		c0,10-8,25-17,32C598,1102,597,1102,608,1090z"/>
	<path d="M496,902c-3-5,1-9,9-9s12,4,9,9c-3,4-7,8-9,8S499,906,496,902z"/>
	<path d="M1866,902c-11-19-16-92-5-92c6,0,9,8,8,18c-1,9,1,30,6,45C1882,901,1877,920,1866,902z"/>
	<path d="M250,881c0-5,10-11,23-13c32-4,36-45,5-58c-22-10-21-10,5-5c22,4,27,2,27-15c0-25-18-25-50-1c-24,19-25,19-51,0
		c-14-10-45-56-67-102C99,600,77,581,22,579c-26,0-26-1-5-11c16-8,30-6,60,8c32,16,45,33,82,106c35,69,48,87,70,91c15,4,30,0,36-7
		s15-11,22-9c14,5,39-37,27-46c-5-3-10-19-12-36c-4-35-32-86-44-79c-5,3-8,2-7-3c4-22-4-32-41-57c-32-21-51-26-100-26
		c-34,0-59,4-56,9s-4,11-17,15c-32,8-37,8-37-7c0-22,46-37,114-37c88,0,147,40,195,130c25,46,39,132,21,128c-7-2-15,3-18,11
		c-2,8,0,11,5,8c16-10,3,85-15,106C286,891,250,897,250,881z"/>
	<path d="M622,870c0-14,2-19,5-12c2,6,2,18,0,25C624,889,622,884,622,870z"/>
	<path d="M840,853c-24-52-49-134-40-128c6,4,10,12,10,18c0,7,11,39,25,71C860,875,864,903,840,853z"/>
	<path d="M596,861c-4-5-2-20,3-33c9-21,10-21,10,10C610,870,606,877,596,861z"/>
	<path d="M1174,853c-4-10-6-22-4-28c3-9,5-22,9-68c1-5,6-5,11-2c6,4,8,16,4,28s-6,37-6,55C1190,874,1186,878,1174,853z"/>
	<path d="M2673,826c4-10,3-15-4-11c-20,13-76-60-67-87c3-7,13,6,25,28c21,42,61,57,89,33c11-9,14-8,14,3c0,7-14,22-32,32
		C2670,841,2667,842,2673,826z"/>
	<path d="M618,805c-6-30-3-43,8-33c3,4,4,19,2,35l-3,28L618,805z"/>
	<path d="M847,813c-8-13-37-133-37-150c0-23,13-7,16,20c3,30,20,98,29,120C862,820,856,827,847,813z"/>
	<path d="M978,803c-8-10-19-31-26-46c-10-24-9-31,8-49c11-12,23-18,27-14c5,4,0,14-10,21c-14,10-16,18-8,32c5,10,12,26,15,36
		c8,24,19,21,33-8c10-23,9-25-13-25c-13,0-24-4-24-9c0-15,18-23,25-11c4,6,11,7,17,4c7-4,7-9-1-13c-8-5-6-13,4-27c8-10,15-14,14-9
		c-4,30,1,36,22,25c16-9,18-14,8-26c-6-8-18-14-25-14c-8,0-14-4-14-8c0-21,44-2,71,31c30,37,32,51,2,22c-19-20-31-11-13,9
		c10,13,8,21-10,46c-13,18-28,29-36,26c-7-3-20,1-28,9C998,824,996,824,978,803z M1056,775c-3-9,1-18,9-21c24-10,17-24-11-24
		c-20,0-25,4-20,16c3,9,6,22,6,30s5,14,11,14S1059,783,1056,775z"/>
	<path d="M1840,776c0-14,5-28,10-31c7-4,8,3,4,21c-5,19-4,25,5,20c6-4,11-2,11,3c0,6-7,11-15,11C1846,800,1840,791,1840,776z"/>
	<path d="M2987,699c-4-15-23-41-43-59c-38-33-40-33-126-14c-62,14-9-60,64-90c42-18,118-21,118-6c0,6-16,10-36,10c-19,0-33,4-29,9
		c3,6-14,13-38,16c-23,4-54,15-67,26l-25,19l47-6c26-4,58-4,72,0c30,7,80,76,74,103C2995,721,2993,719,2987,699z"/>
	<path d="M943,682c10-10,17-26,17-34c0-9,11-18,25-20c20-4,26-1,31,18c3,13,3,32-1,41c-6,17-7,17-21-1c-13-18-15-18-32-3
		C937,706,923,705,943,682z"/>
	<path d="M2877,685c3-8,9-12,14-9c12,7,11,11-5,17C2876,697,2873,694,2877,685z"/>
	<path d="M2668,683c6-2,18-2,25,0c6,3,1,5-13,5S2661,686,2668,683z"/>
	<path d="M220,660c-12-8-10-10,8-10c13,0,20,4,17,10C238,672,239,672,220,660z"/>
	<path d="M2785,659c-4-6-5-12-2-15c2-3,7,2,10,11C2800,672,2794,675,2785,659z"/>
	<path d="M915,631c14-28,51-61,67-61c5,0,8,9,8,21c0,15-5,19-22,17c-16-2-26,5-36,25c-7,15-17,27-23,27C904,660,906,647,915,631z"/>
	<path d="M175,640c-3-5-1-10,4-10c6,0,11,5,11,10c0,6-2,10-4,10C183,650,178,646,175,640z"/>
	<path d="M590,629c0-6-14-31-31-57c-28-43-28-45-4-17c17,18,25,23,21,12c-3-10-2-16,3-12c5,3,11,0,13-6s5,12,6,40s0,51-3,51
		S590,635,590,629z"/>
	<path d="M1032,613c-26-38-34-53-29-53c2,0,16,18,31,40C1063,645,1062,656,1032,613z"/>
	<path d="M870,612c0-5,9-17,20-27s20-24,20-30c0-17,31-28,42-17s-17,42-37,42c-8,0-17,9-20,20C889,620,870,628,870,612z"/>
	<path d="M163,593c9-2,23-2,30,0c6,3-1,5-18,5C159,598,153,596,163,593z"/>
	<path d="M2981,571c-10-6-10-10-1-16c13-8,24-1,19,14C2996,575,2989,576,2981,571z"/>
	<path d="M120,530c0-5,4-10,9-10c6,0,13,5,16,10c3,6-1,10-9,10C127,540,120,536,120,530z"/>
	<path d="M572,485c-30-62-27-71,4-12c14,27,24,51,22,53C595,528,584,509,572,485z"/>
	<path d="M545,499c-9-28-2-33,13-9c6,11,8,21,3,25C556,518,548,511,545,499z"/>
	<path d="M200,340c0-5,10-9,23-7c17,1,23-4,25-25c3-23-1-28-25-33c-58-12-78-30-118-107C61,85,34,50,13,50C6,50,0,46,0,40
		c0-19,27-10,56,21c16,16,45,63,64,102c30,62,39,72,64,75c16,2,32,0,35-5c3-4,15-13,26-19c20-11,34-54,18-54c-5,0-10-8-11-17
		c-4-42-9-55-23-64c-8-5-10-9-6-9c8,0-5-18-37-50c-17-17-17-20-4-20c23,0,75,66,93,119c16,47,20,105,8,98c-5-3-24,6-43,19
		s-29,24-23,24s18,3,27,6c10,4,16,1,16-9c0-9,4-18,9-21c11-7,1,86-12,102C246,352,200,354,200,340z"/>
	<path d="M2956,198c-20-42-48-86-63-98c-25-19-36-21-90-16c-66,7-72,3-48-28c24-32,68-56,100-55c20,1,23,3,11,6c-15,4-16,7-5,14
		c10,6,7,9-11,9c-24,0-96,37-89,45c3,2,23-2,47-8c66-18,101,6,152,105c23,43,39,84,37,91C2994,270,2976,240,2956,198z"/>
	<path d="M613,148c-20-26-26-41-15-34c12,7,36,46,29,46C624,160,618,154,613,148z"/>
	<path d="M626,121c-20-21-24-29-12-27c9,1,15,5,14,8c-2,3,6,15,16,27C673,161,658,154,626,121z"/>
	<path d="M664,128l-19-23l23,19c21,18,27,26,19,26C685,150,675,140,664,128z"/>
	<path d="M2208,143c7-3,16-2,19,1c4,3-2,6-13,5C2203,149,2200,146,2208,143z"/>
	<path d="M2984,139c-3-6-2-15,3-20s9-1,9,11C2996,153,2994,154,2984,139z"/>
	<path d="M800,130c0-5,5-10,11-10c5,0,7,5,4,10c-3,6-8,10-11,10C802,140,800,136,800,130z"/>
	<path d="M160,120c15-10,58-14,48-5c-3,3-18,8-34,11C152,129,149,128,160,120z"/>
	<path d="M2276,115c-10-8-15-19-11-25c5-9,1-10-16-5c-20,7-22,5-12-6c9-11,7-19-13-38c-35-34-29-48,9-19C2285,63,2328,153,2276,115z
		"/>
	<path d="M1506,94c-34-33-4-84,36-63c23,12,24,64,2,73C1523,112,1524,112,1506,94z M1543,84c11-11-13-43-28-38c-16,6-16,25,0,36
		C1527,91,1535,92,1543,84z"/>
	<path d="M16,92c-3-5,1-9,9-9s12,4,9,9c-3,4-7,8-9,8S19,96,16,92z"/>
	<path d="M2968,93c6-2,18-2,25,0c6,3,1,5-13,5S2961,96,2968,93z"/>
	<path d="M2340,67c0-9,15-27,33-41c28-22,44-26,93-25c56,1,57,2,19,9c-55,10-96,27-122,52C2344,80,2340,81,2340,67z"/>
	<path d="M115,60c3-5,11-10,16-10c6,0,7,5,4,10c-3,6-11,10-16,10C113,70,112,66,115,60z"/>
	<path d="M706,61c-4-6,4-22,18-36c19-19,35-25,63-24c21,1,29,3,18,6c-39,8-74,25-79,38c-4,10,3,10,37,0c26-8,51-9,65-4
		c32,12,27,17-15,16c-21,0-52,3-69,7C724,69,710,68,706,61z"/>
	<path d="M2991,14c0-11,3-14,6-6c3,7,2,16-1,19C2993,31,2990,25,2991,14z"/>
	<path d="M75,10L25,3l53-1c29-1,52,2,52,8s-1,9-2,8C126,18,103,14,75,10z"/>
	<path d="M2550,10c-13-8-12-10,3-10c9,0,17,5,17,10C2570,22,2569,22,2550,10z"/>
	<path d="M2903,3c9-2,23-2,30,0c6,3-1,5-18,5C2899,8,2893,6,2903,3z"/>
	<path d="M2958,3c7-3,16-2,19,1c4,3-2,6-13,5C2953,9,2950,6,2958,3z"/>
</g>
</svg>
