<?xml version="1.0" encoding="UTF-8"?><svg id="a" xmlns="http://www.w3.org/2000/svg" width="1024" height="1024" viewBox="0 0 1024 1024"><path d="m291.73,0h389.04c31.39,18.81,62.71,37.78,94.04,56.67,2.04,2.82,2.97,6.25,4.55,9.31.96,2.75,2.88,5.19,3.1,8.17,2.78,22.85,5.52,45.72,8.29,68.58.27,2.56.77,5.1.86,7.68.05,2.71,1.87,4.91,2.73,7.39,4.37,9.51,8.77,19.01,13.15,28.52,2.8,5.09,3.45,10.93,4.91,16.45,1.78,7.81,3.6,15.61,5.43,23.4.86,4.5,2.27,8.88,3.95,13.14,4.65,12.79,9.36,25.56,14.01,38.36.93,3.05,2.85,5.94,2.49,9.24-.1,1.8-1.66,2.98-2.83,4.16-2.32,1.98-3.87,4.67-6.17,6.67-3.25,3.35-6.85,6.38-9.68,10.11-2.68,2.84-5.61,5.44-8.24,8.32-2.82,3.09-5.58,6.25-8.72,9.02-1.52,1.27-3.72.97-5.48.49-11.32-3.78-22.78-7.13-34.09-10.93-7.48-3.23-14.94-6.49-22.4-9.75-1.5-.74-3.43-1.08-4.36-2.6-3.23-5.47-5.88-11.24-8.77-16.89-1.55-3.35-3.63-6.43-5.19-9.77-2.6-5.05-4.95-10.23-7.86-15.11-1.96-3.92-4.02-7.8-5.88-11.76-2.24-21.67-4.26-43.38-6.45-65.06-.37-2.23-.2-4.49-.21-6.74v-27.2c-.01-1.74.11-3.49-.14-5.22-1.12-5.72-2.31-11.44-3.19-17.2-2.09,1.46-3.33,3.74-5.1,5.51-5.77,6.87-11.73,13.61-17.46,20.52-1.27,1.6-3.43,1.82-5.29,2.25-11.45,2.48-22.92,4.94-34.36,7.45-36.28-3.42-72.59-6.72-108.88-10.1-4.55-.54-9.13-.69-13.66-1.35-32.74-8.85-65.44-17.85-98.17-26.73-2.49-.58-4.23-2.55-6.25-3.97,1.34,5.38,2.87,10.73,4.31,16.08.36,2.15-1.66,3.41-3.39,4.07-16,7.18-31.91,14.54-47.89,21.75-2.81,1.04-5.32,2.92-8.31,3.42-3.93.21-7.86-.14-11.79.12-6.93,1.17-14.03-.26-20.96.9-4.27.31-8.57-.12-12.85.17-2.63.34-5.45,1.02-7.99-.12-7.1-3.11-14.25-6.09-21.38-9.15-2.55-1.01-4.99-2.31-7.62-3.09-.18,2.56.21,5.16-.35,7.7-.61,3.03.16,6.14-.46,9.17-.74,3.31.13,6.73-.61,10.03-.61,3.03.15,6.14-.47,9.17-.73,3.31.14,6.73-.61,10.03-.6,3.03.16,6.14-.46,9.17-.73,3.31.13,6.72-.61,10.03-.61,3.03.14,6.14-.47,9.17-.66,3.24-.06,6.56-.35,9.83-1.02,6.71-.19,13.52-.54,20.27-.9,5.46-.34,11.01-.47,16.52.28,3.41-.74,6.74-.57,10.14.12,6.03-.13,12.06.11,18.09.96,4.12-.03,8.37.77,12.5.61,3.54-.23,7.17.5,10.7.66,3.55-.18,7.19.51,10.74.72,3.68-.18,7.45.56,11.13.58,3.1.01,6.26.31,9.38.45,5.36,2.83,10.28,4.34,15.39.72,2.76,2.58,5.49,1.89,8.43-.63,2.36-3.54,2.72-5.55,2.13-8.4-2.34-16.8-4.66-25.21-6.96-3.51-.83-5.96-3.66-8.87-5.57-3.09-2.11-5.73-4.91-9.11-6.55-1.54-1.84-3.7-2.98-5.48-4.55-4.32-3.36-8.83-6.47-13.07-9.94-.63-.51-1.04-1.26-1.17-2.05-.39-5.31.48-10.7-.52-15.97-.43-6.02.5-12.12-.59-18.09-.31-5.86.51-11.79-.54-17.6-.3-6.04.52-12.15-.53-18.13-.31-6.04.52-12.15-.54-18.13-.3-6.04.52-12.15-.61-18.13.07-4.08,1.35-8.02,1.88-12.05,6.79-38.58,13.58-77.16,20.38-115.74.25-1.27.32-2.65,1.01-3.79,1-1.18,2.45-1.85,3.7-2.72,13.1-8.67,26.19-17.36,39.29-26.03.81-.47,1.14-1.39,1.57-2.17.98-2.01,2.28-3.84,3.21-5.87,1.05-2.26,2.69-4.23,3.53-6.59.04-.7-.83-.95-1.23-1.38-6.17-4.51-11.98-9.47-18.14-13.98-1.87-1.35-1.9-4.06-1.01-5.98,2.01-4.94,4.74-9.55,6.99-14.38,2.51-6.21,6.13-11.9,8.64-18.11,1.29-2.77,2.76-5.44,4.07-8.2.54-1,.92-2.32,2.16-2.67,4.18-1.52,8.68-1.98,12.85-3.54l.02-.03Z" style="fill:#f96; stroke:#efd168; stroke-width:.3px;"/><path d="m409.46,121.03c2.01,1.42,3.76,3.39,6.25,3.97,32.73,8.87,65.43,17.88,98.17,26.73,4.53.66,9.12.81,13.66,1.35,36.29,3.38,72.6,6.68,108.88,10.1,11.45-2.5,22.91-4.97,34.36-7.45,1.86-.43,4.02-.65,5.29-2.25,5.73-6.91,11.68-13.64,17.46-20.52,1.77-1.78,3.01-4.06,5.1-5.51.88,5.76,2.08,11.48,3.19,17.2.25,1.73.13,3.48.14,5.22-.01,9.07,0,18.13,0,27.2.01,2.25-.16,4.51.21,6.74,2.19,21.69,4.21,43.39,6.45,65.06,1.85,3.96,3.91,7.84,5.88,11.76,2.9,4.89,5.26,10.06,7.86,15.11,1.56,3.34,3.64,6.42,5.19,9.77,2.89,5.64,5.55,11.41,8.77,16.89.92,1.51,2.85,1.86,4.36,2.6,7.46,3.27,14.92,6.52,22.4,9.75,11.31,3.8,22.77,7.15,34.09,10.93,1.77.49,3.96.79,5.48-.49,3.14-2.77,5.9-5.94,8.72-9.02-1.12,6.92.21,13.97-.95,20.88-.28,4.94.26,9.91-.24,14.84-.67,2.85.06,5.86-.84,8.67-4.18,14.74-8.15,29.55-12.36,44.28-4.53,10.74-9.25,21.39-13.79,32.13-.34.68-.71,1.48-1.47,1.77-10.97,3.73-22.05,7.18-32.98,11.03-.29,2.53.18,5.11-.31,7.64-.83,4.36.2,8.84-.62,13.2-.65,4.07.24,8.23-.52,12.29-.7,4.23.25,8.56-.56,12.78-.65,4.07.25,8.22-.52,12.29-.7,4.23.25,8.56-.56,12.78-.57,3.03.16,6.14-.48,9.17-.61,2.63.04,5.36-.54,8-.6,2.63.03,5.36-.52,8.01-.3,1.48-.34,2.99-.29,4.51.16,2.51-.78,4.93-.54,7.45.25,2.7-.76,5.3-.54,8,.11,1.93-.11,3.86-.59,5.74-1.33.02-2.32.91-3.06,1.92-.53,2.05.54,4.04.43,6.09-11.54,27.94-22.75,56.03-34.21,84-3.08,4.85-6.61,9.41-9.83,14.18-1.74,2.9-4.88,4.44-7.46,6.46-17.51,12.65-35.02,25.3-52.51,37.96-4.45,3.29-9.09,6.37-13.41,9.83-10.4,2.21-20.54,5.46-30.83,8.12-6.76,1.86-13.49,3.85-20.31,5.45-17.63,1.27-35.27,2.48-52.91,3.65-2.61-1-5.49-.24-8.22-.45-3.28.2-6.67-.51-9.86.41-4.69-2.34-9.42-4.61-14.07-7.03-9.12-5.51-18.23-11.04-27.33-16.59-1.69-1.08-3.73-1.16-5.62-1.64-2.84-2.71-6.49-4.35-9.69-6.59-11.17-7.22-22.43-14.31-33.61-21.51-3.96-2.37-6.93-5.93-10.25-9.05-3.96-3.89-7.89-7.82-11.86-11.7-7.73-6.88-14.8-14.46-22.31-21.57-3.86-3.27-7.22-7.07-11.02-10.38-1.05-.85-2.19-1.57-3.27-2.37.09-.17.26-.51.34-.67-2.08-2.34-4.44-4.39-6.85-6.38-1.71-1.32-2.31-3.47-3.3-5.29-5.37-10.67-10.75-21.33-16.09-32.01-6.41-15.55-12.03-31.43-18.92-46.79-5.4-12.42-10.84-24.82-16.22-37.24-1.9-5.91-3.2-12.01-5.08-17.91-4.72-.31-9.48.12-14.19-.18-.89-.85-1.17-2.11-1.67-3.19-2.76-6.49-5.58-12.95-8.36-19.43-2.16-5.18-4.7-10.23-6.29-15.63-3.48-11.2-7.39-22.26-10.88-33.46-3.49-10.13-6.62-20.38-10.05-30.54-1.97-6.75-3.97-13.5-5.94-20.26-.6-1.99-1.24-3.97-1.58-6.02,3.38,1.64,6.02,4.45,9.11,6.55,2.91,1.91,5.36,4.74,8.87,5.57,8.41,2.3,16.81,4.62,25.21,6.96,2.02.59,4.93.22,5.55-2.13.69-2.94-1.16-5.67-1.89-8.43-1.51-5.11-3.89-10.03-4.34-15.39-.3-3.12.27-6.28-.31-9.38-.75-3.67.16-7.45-.56-11.13-.69-3.55.15-7.19-.51-10.74-.73-3.53.11-7.16-.5-10.7-.8-4.13.18-8.38-.77-12.5-.25-6.02.01-12.06-.11-18.09-.17-3.4.85-6.73.57-10.14.13-5.51-.42-11.06.47-16.52.35-6.75-.48-13.56.54-20.27.29-3.27-.31-6.59.35-9.83.62-3.03-.13-6.14.47-9.17.74-3.31-.12-6.73.61-10.03.62-3.03-.14-6.14.46-9.17.75-3.31-.12-6.73.61-10.03.62-3.03-.14-6.14.47-9.17.75-3.31-.12-6.73.61-10.03.62-3.03-.14-6.14.46-9.17.56-2.54.18-5.14.35-7.7,2.63.77,5.07,2.08,7.62,3.09,7.12,3.06,14.28,6.04,21.38,9.15,2.54,1.14,5.36.46,7.99.12,4.28-.28,8.58.14,12.85-.17,6.93-1.16,14.03.27,20.96-.9,3.92-.26,7.86.09,11.79-.12,2.99-.5,5.5-2.38,8.31-3.42,15.98-7.21,31.89-14.57,47.89-21.75,1.73-.67,3.75-1.93,3.39-4.07-1.44-5.35-2.97-10.7-4.31-16.08m187.34,112.11c-10.04,1.51-19.97,3.8-30.13,4.33-8.54.75-17.08,1.57-25.63,2.21-8.05.85-16.14,1.11-24.19,1.97.5,7.43.89,14.89,1.68,22.3,1.4.4,2.84.6,4.29.77-1.21.78-1.45,2.27-1.69,3.57-.86,4.93-1.78,9.85-2.68,14.77,1.72-.65,3.31-1.61,5.02-2.29,4.24-1.72,8.16-4.13,12.42-5.82,3.8-1.67,7.4-3.79,11.26-5.33,2.16-.85,4.1-2.31,6.44-2.67,5.52-.89,11.04-1.84,16.57-2.72.96-.14,1.88-.52,2.7-1.05,5.2-3.19,10.42-6.36,15.62-9.57,1.13-.77,2.55-1.22,3.43-2.32-1.06-.07-2.13-.07-3.18.06-4.26.76-8.62.05-12.87.87-4.29-.07-8.54.38-12.8.72-6.02,1.8-12.02,3.66-18.03,5.5-1.92.47-3.77,1.4-5.8,1.24,2.37-1.47,4.79-2.94,7.42-3.89,11.87-3,23.76-5.91,35.63-8.88,3.16-.81,6.43-.89,9.67-1.21,7.86-.76,15.73-1.29,23.6-1.79,5.08-.18,10.15-1.05,15.23-.44,7.28.38,14.55.91,21.83,1.22-1.07-.82-2.43-1.09-3.63-1.6-4.64-1.63-9.19-3.48-13.9-4.89-9.72-1.91-19.42-3.88-29.14-5.79-3.06-.78-6.11.36-9.14.71m-197.85,20.41c-7.62,1.67-15.26,3.26-22.87,4.97-5.14,1.05-10.22,2.45-15.46,2.85-5.13.57-10.24,1.16-15.36,1.82-3.08.4-6.25.43-9.2,1.48-7.11,2.37-14.24,4.7-21.35,7.07-.87.22-.99,1.22-1.28,1.91-2.48,7.95-5.02,15.87-7.47,23.82,7.23-3.87,14.27-8.09,21.44-12.07,1.74-.92,3.65-1.43,5.52-2.05,10.73-3.56,21.47-7.1,32.2-10.68,3.21-1.16,6.66-1.32,10.01-1.85,7.3-1.14,14.61-2.22,21.93-3.29,1.09-.14,2.3-.42,3.28.26,8.21,4.57,16.38,9.22,24.64,13.71.64-7.38,1.2-14.78,1.59-22.18-.68-.59-1.66-.55-2.47-.82-6.77-1.78-13.54-3.58-20.31-5.38-1.62-.45-3.25.14-4.84.42m-45.88,29.09c-4.23,1.71-8.69,2.87-12.84,4.76,2.34.24,4.65-.3,6.96-.61,9.13-1.16,18.25-2.39,27.38-3.54,3.05-.19,6.13-.1,9.17.32,5.01.28,10.03.02,15.04.23,5.15.75,10.38.24,15.56.54,3.36.49,6.76.46,10.15.37-.38-.33-.78-.6-1.23-.81-6.94-3.4-13.84-6.87-20.76-10.3-1.53-.73-3.02-1.82-4.8-1.63-4.81.11-9.64-.14-14.44.12-10.15,3.25-20.09,7.12-30.18,10.54m207.19-9.58c-9.3,6.03-18.6,12.05-27.9,18.09-1.8,1.24-3.87,2.15-5.36,3.78,7.4-2.61,14.53-5.87,21.85-8.68,4.97-1.9,9.74-4.54,15.06-5.34,6.43-1.23,12.83-2.63,19.28-3.77.33-.95-.82-.73-1.38-.91-6.35-1.33-12.69-2.73-19.06-4.01-.96-.37-1.74.4-2.48.85m20.95,9.47c-3.33.23-6.7.19-9.97.91-6.29,4.22-12.45,8.65-18.77,12.81-.49.35-1.06.67-1.29,1.25,1.94.3,3.9.52,5.87.58,3.43,0,6.82.63,10.24.62,6.04.79,12.14.4,18.21.49,6.61-.06,13.23.12,19.83-.08,9.92-2.28,19.76-4.93,29.67-7.29.65-.23,1.57-.21,1.9-.94-6.21-1.66-12.09-4.64-18.57-5.21-2.39-.27-4.73-1.08-7.15-.87l-.02.53c-3.12-1.49-6.57-2.21-10.02-2.16-.55-.62-1.5-.39-2.22-.57-3.02-.24-5.99-1.37-9.04-.83-2.88.44-5.8.29-8.67.74m-187.59,8.88c-4.14.83-8.24,1.79-12.37,2.66-.02.17-.05.5-.08.67,4.14.5,8.21,1.45,12.31,2.19,12.5,2.34,24.99,4.73,37.49,7.02,1.42.28,2.84.58,4.3.58-.17-.12-.5-.35-.67-.47-12.01-3.91-24.05-7.72-36.07-11.57-1.62-.43-3.21-1.45-4.92-1.07m-24.38,9.97c-6.61,1.97-13.27,3.79-19.84,5.85-6.77,5.17-13.43,10.48-20.18,15.67-.67.5-1.26,1.09-1.75,1.76,7.51-1.37,15.05-2.6,22.56-3.97,3.13-.63,6.33-.9,9.51-1.2,8.02-.49,16.02-1.29,23.99-2.38l.17-.38c3.48.2,7.05-.11,10.29-1.46l.17.35c3.52-.11,6.79-1.56,10.15-2.44,3.65-1.21,7.36-2.2,11.01-3.41.91-.37,2.1-.29,2.81-1.01-2.25-2.74-5.45-4.55-8-7.02-1.07-1.35-2.95-.83-4.44-1.07-4.45-.58-8.95-.19-13.39-.77-4.1-.25-8.22-.06-12.29-.61-3.76-.54-7.22,1.22-10.77,2.09m238.5,8.72c-1.64.5-3.38.25-5.06.3-10.5.02-21-.07-31.51.06v.35c1.56.1,3.12.27,4.64.66,6.46,1.24,12.95,2.37,19.41,3.65,2.24-.16,4.38-.97,6.6-1.34,7.04-1.79,14.18-3.15,21.19-5.04,2.48-1.73,4.65-3.94,7.11-5.74.61-.43,1.11-1,1.51-1.64-8.05,2.65-15.9,5.93-23.89,8.75m-196.81,11.87c-5.41,2.39-10.75,4.95-16.12,7.43-1.66.41-3.41.21-5.09.03-4.69-.77-9.47.04-14.15-.69-3.53-.4-7.09-.04-10.63-.31-2.3-.34-4.63-.49-6.94-.33,8.74,3.6,17.66,6.86,26.46,10.33.9.28,1.83.9,2.8.53,5.84-1.73,11.75-3.19,17.6-4.89,3.42-1.11,7.05-1.62,10.36-3.05,1.47-4.03,2.17-8.33,3.32-12.46-2.65.89-5.13,2.16-7.61,3.41m132.66,65.22c.12.72.29,1.45.63,2.12,2.28,4.57,4.15,9.31,6.39,13.9,2,4.81,4.43,9.43,6.32,14.28-1.84,1.89-3.7,3.77-5.81,5.35-1.75,1.45-3.19,3.25-5.06,4.57-1.6,1.41-3.32,2.78-4.55,4.53,2.96,1.18,6.14,1.77,9.22,2.62,10.4,2.84,20.85,5.51,31.22,8.41,3.39,2.07,5.33,5.74,8.25,8.35,2.08,2.71,4.64,5,6.72,7.71,2.17,1.95,3.73,4.45,5.89,6.41,2.15,2.45,4.13,5.18,6.85,7.05,4.35,1.63,8.4,4.07,12.86,5.36-.3-1.5-.93-2.9-1.62-4.25-1.32-2.49-2.23-5.17-3.57-7.65-1.09-2.05-1.37-4.88-3.75-5.92-5.63-3.13-11.38-6.02-17.01-9.16-1-.59-2.38-.9-2.7-2.16-1.58-4.57-2.75-9.28-4.28-13.87-.43-1.77-2.36-2.34-3.75-3.18-3.74-2.24-8.09-3.9-10.58-7.68-9.96-11.6-19.79-23.31-29.77-34.89-.55-.73-1.09-1.49-1.92-1.9m-110.05,22.83c-3.23,3.4-7.02,6.18-10.26,9.57-2.62,2.15-3.82,5.42-5.73,8.13-2.89,4.76-5.96,9.42-8.73,14.25-3.61,10.35-6.96,20.79-10.52,31.16-1.45,3.43.32,7.08-.03,10.63.6,3.53.35,7.12,1.01,10.64.55,2.67-3.55,3.22-3.2,5.83-.01,2.67-.07,5.35.03,8.03-.09,1.54,1.66,2.48,3.04,2.06,2.03-6.72,3.47-13.62,5.28-20.41,1.9-6.66,2.46-13.58,3.67-20.38.49-2.44.32-5.14,1.81-7.25,3.56-6.23,7.05-12.51,10.64-18.73.97-1.72,1.75-3.57,3.06-5.08,4.73.41,9.49.97,14.24,1.49-2.55-3.24-5.41-6.31-7.89-9.55,2.54-6.6,5.43-13.09,8.06-19.67.86-2.3,2.19-4.47,2.59-6.92-2.54,1.85-4.46,4.41-7.06,6.21m21.92,8.52c-1.53,7.62-3.19,15.23-4.55,22.88,4.67,1,9.51.99,14.23,1.76-2.77-8.39-6.31-16.52-9.17-24.89-.13.06-.39.19-.52.25m71.91,73.02c-4.53,1.83-8.89,4.05-13.45,5.82-4.96,1.18-10.18.85-15.15,2.04-3.08.87-5.96,2.28-8.97,3.32-5.29,1.89-10.38,4.38-15.91,5.53-17.5,4.3-34.96,8.76-52.47,12.98.18.92,1.31.69,2.01.91,8.04,1.34,16.08,2.83,24.12,4.2,11.67-3.28,23.31-6.73,34.98-10.05,5.31-1.47,10.55-3.24,15.93-4.46,10.04-1.46,20.08-2.86,30.13-4.25,2.84-.53,5.75-.52,8.61-.26,3.73.54,7.51.34,11.28.39,3.06-.15,6.06.62,9.13.51,3.23.09,6.46-.05,9.68.09,2.98.42,6.01.6,9.02.37,4.73-1.7,9.16-4.14,13.87-5.9-.05-.15-.16-.45-.21-.6-19.73-3.4-39.43-7.03-59.15-10.52-1.14-.14-2.35-.68-3.45-.11m42.65,23.73c-6.75,2.33-13.93,2.86-20.88,4.33-12.93,2.16-25.81,4.59-38.74,6.73-17.37.17-34.74-.12-52.1.15-5.15.75-10.36.25-15.54.57-5.62.84-11.34.05-16.98.64-2.19.38-4.43.24-6.64.34,3.33,2.29,7.14,3.83,10.62,5.9,10.01,5.34,20.02,10.67,29.99,16.06,2.06.91,4.33,1.05,6.5,1.55,11.49,2.24,22.96,4.66,34.47,6.78,14.56-1.98,29.1-4.23,43.68-6.13,1.92-.31,3.59-1.36,5.31-2.2,8.95-4.44,17.89-8.91,26.85-13.32,1.33-.56,2.17-1.78,2.92-2.94,5.85-8.86,11.9-17.61,17.69-26.51-9.08,2.6-18.1,5.4-27.17,8.04m93.99,73.65c-2.92,2.63-5.13,5.9-8.05,8.53-2.29,2.02-3.94,4.6-6.18,6.67-1.33,1.35-2.75,2.62-3.94,4.11-2,2.6-4.55,4.7-6.76,7.12-2.9,3.66-6.41,6.78-9.67,10.11-6.96,5.89-13.87,11.83-20.82,17.71-9.61,4.3-19.19,8.68-28.79,12.99-5.47,2.77-11.33,4.55-17.17,6.37-5.09,1.42-10.02,3.35-15.11,4.77-4.92,1.43-9.69,3.37-14.67,4.57-9.17-1.52-18.27-3.47-27.42-5.09-11.8-2.26-23.45-5.18-35.19-7.71-2.72-.9-5.85-.71-8.18-2.54-11.21-6.98-22.4-13.99-33.58-21.02-4.36-2.65-8.56-5.62-13.31-7.56-3.66-1.41-7-3.49-10.66-4.91-3.39-1.37-6.45-3.57-10.04-4.42,1.08,1.77,3.01,2.7,4.44,4.14,14.5,12.62,29.1,25.13,43.57,37.78,9.32,2.63,18.82,4.72,28.21,7.14,4.65,1.04,9.21,2.56,13.95,3.18,12.88,1.92,25.74,4,38.63,5.86,9.29-1.37,18.56-2.95,27.86-4.3,3.38-.43,6.45-1.97,9.55-3.25,11.08-4.46,22.14-8.92,33.2-13.44,1.37-.57,2.82-.99,4.08-1.79,8.19-5.39,16.52-10.57,24.69-15.99,2.84-1.96,6.11-3.39,8.35-6.1,6.97-7.83,13.82-15.76,20.82-23.57,5.62-7.57,11.22-15.15,16.85-22.73.99-1.37,2.19-2.63,2.8-4.23-3.02,1.99-4.79,5.24-7.45,7.61h-.01Z" style="fill:#fc9; stroke:#000; stroke-width:.3px;"/><path d="m596.8,233.14c3.03-.35,6.08-1.49,9.14-.71,9.72,1.9,19.42,3.88,29.14,5.79,4.71,1.41,9.26,3.26,13.9,4.89,1.21.51,2.57.78,3.63,1.6-7.28-.31-14.55-.84-21.83-1.22-5.08-.61-10.15.26-15.23.44-7.87.51-15.75,1.03-23.6,1.79-3.23.31-6.51.39-9.67,1.21-11.87,2.97-23.76,5.88-35.63,8.88-2.63.94-5.06,2.42-7.42,3.89-2.36,1.14-4.81,2.09-7.34,2.77-3.02.79-5.9,2.23-9.07,2.27-1.45-.18-2.89-.37-4.29-.77-.79-7.41-1.18-14.86-1.68-22.3,8.04-.86,16.14-1.11,24.19-1.97,8.55-.65,17.08-1.46,25.63-2.21,10.16-.53,20.1-2.82,30.13-4.33v-.02Z" style="fill:#f96; stroke:#efd168; stroke-width:.3px;"/><path d="m575.86,252.22c4.26-.82,8.61-.11,12.87-.87,1.05-.13,2.11-.13,3.18-.06-.88,1.1-2.3,1.55-3.43,2.32-5.19,3.21-10.42,6.37-15.62,9.57-.82.53-1.74.91-2.7,1.05-5.53.88-11.04,1.83-16.57,2.72-2.34.36-4.28,1.82-6.44,2.67-3.86,1.54-7.46,3.65-11.26,5.33-4.26,1.69-8.18,4.1-12.42,5.82-1.71.68-3.3,1.64-5.02,2.29.9-4.92,1.82-9.85,2.68-14.77.24-1.3.48-2.79,1.69-3.57,3.17-.04,6.05-1.48,9.07-2.27,2.53-.68,4.98-1.63,7.34-2.77,2.02.15,3.87-.77,5.8-1.24,6.01-1.85,12.01-3.71,18.03-5.5,4.26-.34,8.51-.79,12.8-.72h0Z" style="stroke:#000; stroke-width:.3px;"/><path d="m398.95,253.55c1.58-.28,3.21-.87,4.84-.42,6.77,1.79,13.53,3.59,20.31,5.38.81.27,1.8.23,2.47.82-.4,7.39-.95,14.79-1.59,22.18-8.26-4.49-16.43-9.14-24.64-13.71-.99-.68-2.19-.4-3.28-.26-7.31,1.06-14.62,2.14-21.93,3.29-3.35.53-6.8.69-10.01,1.85-10.73,3.57-21.47,7.11-32.2,10.68-1.86.62-3.77,1.14-5.52,2.05-7.17,3.98-14.21,8.2-21.44,12.07,2.45-7.95,4.99-15.88,7.47-23.82.29-.7.41-1.7,1.28-1.91,7.11-2.37,14.24-4.7,21.35-7.07,2.96-1.05,6.12-1.08,9.2-1.48,5.11-.66,10.23-1.25,15.36-1.82,5.24-.4,10.33-1.8,15.46-2.85,7.61-1.71,15.25-3.3,22.87-4.97h0Z" style="fill:#f96; stroke:#efd168; stroke-width:.3px;"/><path d="m353.06,282.64c10.09-3.42,20.03-7.29,30.18-10.54,4.8-.26,9.63,0,14.44-.12,1.78-.19,3.27.9,4.8,1.63,6.92,3.42,13.82,6.9,20.76,10.3.45.21.85.47,1.23.81-3.39.09-6.79.12-10.15-.37-5.18-.3-10.41.21-15.56-.54-5.01-.22-10.04.04-15.04-.23-3.04-.42-6.11-.51-9.17-.32-9.13,1.15-18.25,2.38-27.38,3.54-2.3.3-4.62.85-6.96.61,4.14-1.89,8.61-3.05,12.84-4.76h.01Z" style="stroke:#000; stroke-width:.3px;"/><path d="m560.25,273.06c.75-.45,1.53-1.23,2.48-.85,6.36,1.28,12.7,2.68,19.06,4.01.56.18,1.71-.05,1.38.91-6.45,1.14-12.85,2.54-19.28,3.77-5.32.81-10.09,3.44-15.06,5.34-7.32,2.81-14.46,6.07-21.85,8.68,1.49-1.62,3.56-2.54,5.36-3.78,9.3-6.03,18.6-12.06,27.9-18.09h.01Z" style="stroke:#000; stroke-width:.3px;"/><path d="m581.2,282.53c2.87-.45,5.8-.3,8.67-.74,3.05-.54,6.02.59,9.04.83.71.18,1.66-.05,2.22.57-4.06.09-8.38.86-11.58,3.52-1.57,1.23-2.41,3.41-1.59,5.31,1.14,2.39,3.71,3.67,6.12,4.5,4.92,1.54,10.41,1.5,15.26-.27,2.47-.97,5.4-2.66,5.65-5.58.21-2.47-1.93-4.17-3.84-5.31l.02-.53c2.42-.2,4.77.61,7.15.87,6.48.57,12.36,3.55,18.57,5.21-.33.73-1.25.7-1.9.94-9.91,2.36-19.74,5.01-29.67,7.29-6.61.2-13.22.02-19.83.08-6.07-.09-12.18.3-18.21-.49-3.43,0-6.82-.62-10.24-.62-1.97-.05-3.93-.27-5.87-.58.23-.58.79-.91,1.29-1.25,6.33-4.17,12.48-8.59,18.77-12.81,3.27-.73,6.64-.68,9.97-.91v-.03Z" style="fill:#fff; stroke:#fff; stroke-width:.3px;"/><path d="m589.56,286.71c3.19-2.66,7.52-3.43,11.58-3.52,3.45-.05,6.9.67,10.02,2.16,1.91,1.14,4.05,2.84,3.84,5.31-.25,2.93-3.17,4.61-5.65,5.58-4.86,1.77-10.34,1.81-15.26.27-2.41-.83-4.98-2.1-6.12-4.5-.82-1.89.03-4.08,1.59-5.31h0Z" style="stroke:#000; stroke-width:.3px;"/><path d="m393.61,291.41c1.71-.37,3.31.65,4.92,1.07,12.02,3.86,24.06,7.66,36.07,11.57.17.12.5.35.67.47-1.46,0-2.89-.3-4.3-.58-12.5-2.29-24.99-4.68-37.49-7.02-4.1-.74-8.17-1.69-12.31-2.19.02-.17.06-.5.08-.67,4.13-.87,8.23-1.83,12.37-2.66h-.01Z" style="stroke:#000; stroke-width:.3px;"/><path d="m369.23,301.39c3.55-.86,7.01-2.63,10.77-2.09,4.07.54,8.19.36,12.29.61,4.44.59,8.94.2,13.39.77,1.49.24,3.36-.28,4.44,1.07,2.54,2.47,5.74,4.28,8,7.02-.71.72-1.91.64-2.81,1.01-3.65,1.21-7.36,2.2-11.01,3.41-3.36.89-6.63,2.33-10.15,2.44l-.17-.35c2.21-.95,4.71-2.39,5.23-4.93.47-2.28-1.23-4.25-3.06-5.35-4.29-2.58-9.58-2.98-14.46-2.32-3.16.52-6.47,1.58-8.66,4.03-1.58,1.67-1.42,4.5.25,6.05,2.71,2.71,6.69,3.65,10.4,3.98l-.17.38c-7.97,1.09-15.97,1.89-23.99,2.38-3.18.3-6.38.57-9.51,1.2-7.51,1.37-15.05,2.6-22.56,3.97.5-.67,1.08-1.26,1.75-1.76,6.75-5.19,13.41-10.51,20.18-15.67,6.57-2.06,13.23-3.88,19.84-5.85h.01Z" style="fill:#fff; stroke:#fff; stroke-width:.3px;"/><path d="m607.73,310.11c8-2.83,15.84-6.1,23.89-8.75-.4.63-.9,1.21-1.51,1.64-2.46,1.8-4.63,4.02-7.11,5.74-7.01,1.89-14.16,3.25-21.19,5.04-2.22.38-4.36,1.18-6.6,1.34-6.46-1.28-12.94-2.41-19.41-3.65-1.52-.38-3.08-.56-4.63-.66v-.35c10.5-.13,21-.04,31.5-.06,1.68-.05,3.42.2,5.06-.3h0Z" style="stroke:#000; stroke-width:.3px;"/><path d="m373.03,306.71c2.18-2.45,5.5-3.51,8.66-4.03,4.88-.66,10.16-.26,14.46,2.32,1.83,1.1,3.53,3.07,3.06,5.35-.52,2.54-3.02,3.98-5.23,4.93-3.24,1.34-6.82,1.66-10.29,1.46-3.71-.33-7.69-1.27-10.4-3.98-1.67-1.55-1.83-4.38-.25-6.05h0Z" style="stroke:#000; stroke-width:.3px;"/><path d="m410.91,321.98c2.48-1.25,4.96-2.52,7.61-3.41-1.15,4.14-1.85,8.44-3.32,12.46-3.31,1.43-6.94,1.93-10.36,3.05-5.85,1.69-11.76,3.16-17.6,4.89-.97.37-1.9-.25-2.8-.53-8.81-3.47-17.72-6.73-26.46-10.33,2.31-.16,4.64-.02,6.94.33,3.53.28,7.09-.09,10.63.31,4.68.73,9.46-.08,14.15.69,1.68.18,3.43.38,5.09-.03,5.37-2.48,10.7-5.05,16.12-7.43Z" style="stroke:#000; stroke-width:.3px;"/><path d="m543.57,387.2c.83.41,1.37,1.18,1.92,1.9,9.98,11.58,19.81,23.29,29.77,34.89,2.49,3.78,6.84,5.44,10.58,7.68,1.39.84,3.32,1.42,3.75,3.18,1.52,4.59,2.69,9.3,4.28,13.87.32,1.26,1.7,1.57,2.7,2.16,5.62,3.14,11.38,6.03,17.01,9.16,2.38,1.04,2.66,3.87,3.75,5.92,1.34,2.47,2.25,5.16,3.57,7.65.69,1.35,1.33,2.75,1.62,4.25-4.46-1.29-8.52-3.73-12.86-5.36-2.72-1.87-4.7-4.6-6.85-7.05-2.16-1.96-3.72-4.46-5.89-6.41-2.08-2.71-4.65-5-6.72-7.71-2.92-2.61-4.87-6.28-8.25-8.35-10.37-2.9-20.83-5.57-31.22-8.41-3.08-.85-6.26-1.44-9.22-2.62,1.23-1.75,2.95-3.12,4.55-4.53,1.87-1.32,3.31-3.11,5.06-4.57,2.11-1.58,3.97-3.47,5.81-5.35-1.88-4.85-4.32-9.47-6.32-14.28-2.24-4.59-4.12-9.33-6.39-13.9-.34-.67-.51-1.4-.63-2.12h-.02Z" style="stroke:#000; stroke-width:.3px;"/><path d="m433.52,410.03c2.6-1.8,4.52-4.36,7.06-6.21-.39,2.45-1.73,4.61-2.59,6.92-2.63,6.58-5.52,13.07-8.06,19.67,2.47,3.24,5.34,6.31,7.89,9.55-4.74-.52-9.5-1.08-14.24-1.49-1.3,1.5-2.09,3.36-3.06,5.08-3.58,6.22-7.07,12.5-10.64,18.73-1.49,2.12-1.33,4.82-1.81,7.25-1.21,6.8-1.77,13.72-3.67,20.38-1.8,6.79-3.25,13.69-5.28,20.41-1.38.42-3.13-.52-3.04-2.06-.1-2.68-.04-5.35-.03-8.03-.35-2.62,3.75-3.17,3.2-5.83-.66-3.52-.41-7.11-1.01-10.64.34-3.55-1.43-7.19.03-10.63,3.57-10.37,6.92-20.81,10.52-31.16,2.77-4.83,5.84-9.49,8.73-14.25,1.91-2.71,3.1-5.97,5.73-8.13,3.24-3.4,7.03-6.18,10.26-9.57h0Z" style="stroke:#000; stroke-width:.3px;"/><path d="m455.44,418.54c.13-.06.39-.19.52-.25,2.86,8.37,6.39,16.5,9.17,24.89-4.72-.77-9.56-.76-14.23-1.76,1.35-7.65,3.01-15.26,4.55-22.88h0Z" style="stroke:#000; stroke-width:.3px;"/><path d="m527.35,491.56c1.1-.57,2.31-.03,3.45.11,19.72,3.49,39.41,7.13,59.15,10.52.05.15.16.45.21.6-4.71,1.76-9.14,4.2-13.87,5.9-3.01.23-6.04.05-9.02-.37-3.23-.14-6.46,0-9.68-.09-3.06.12-6.07-.66-9.13-.51-3.76-.05-7.55.15-11.28-.39-2.87-.26-5.77-.27-8.61.26-10.05,1.39-20.09,2.79-30.13,4.25-5.38,1.23-10.62,2.99-15.93,4.46-11.67,3.32-23.31,6.77-34.98,10.05-8.04-1.37-16.07-2.86-24.12-4.2-.7-.22-1.84.02-2.01-.91,17.52-4.21,34.98-8.67,52.47-12.98,5.52-1.15,10.62-3.64,15.91-5.53,3.02-1.03,5.9-2.45,8.97-3.32,4.97-1.19,10.19-.86,15.15-2.04,4.56-1.77,8.92-3.99,13.45-5.82h0Z" style="stroke:#000; stroke-width:.3px;"/><path d="m570.01,515.3c9.06-2.65,18.09-5.44,27.17-8.04-5.8,8.9-11.84,17.64-17.69,26.51-.75,1.17-1.59,2.38-2.92,2.94-8.96,4.42-17.9,8.89-26.85,13.32-1.72.84-3.39,1.88-5.31,2.2-14.58,1.89-29.11,4.15-43.68,6.13-11.51-2.12-22.98-4.54-34.47-6.78-2.17-.5-4.44-.65-6.5-1.55-9.97-5.39-19.99-10.72-29.99-16.06-3.48-2.07-7.29-3.61-10.62-5.9,2.21-.1,4.44.04,6.64-.34,5.64-.59,11.36.2,16.98-.64,5.17-.31,10.38.18,15.54-.57,17.37-.27,34.74.02,52.1-.15,12.93-2.14,25.81-4.57,38.74-6.73,6.96-1.47,14.13-2,20.88-4.33h-.02Z" style="stroke:#000; stroke-width:.3px;"/><path d="m705.3,663.61c11.46-27.97,22.67-56.06,34.21-84,1.03,5.41,1.58,10.9,2.46,16.34.94,5.79,1.35,11.7,2.91,17.38,5.41,20.28,10.63,40.61,16,60.91,1.42,6.47,3.75,12.75,4.71,19.32,2.62,13.44,5.06,26.92,7.67,40.37.22,2.31,1.06,4.53,1.15,6.86-.01,16.9-.03,33.8,0,50.7-2.92,26.94-5.98,53.88-8.82,80.83-2.8,21.76-6.54,43.42-9.59,65.16-.32,2.35-1.04,4.65-.94,7.05-.08,2.7.33,5.47-.39,8.13-.53,4.39.45,8.91-.61,13.26-.35,4.25.47,8.6-.53,12.79-.35,4.26.47,8.6-.54,12.8-.35,4.26.47,8.6-.54,12.8-.16,2.46-.02,4.95-.04,7.42.21,3.51-1.13,6.95-.43,10.47.51.63,1.11,1.21,1.71,1.8H0v-11.15c12.87.5,25.76.37,38.63.85,14.32.08,28.63.68,42.95.73,13.93.56,27.88.38,41.82.89,13.26.09,26.49.71,39.75.7,13.22.53,26.46.42,39.68.88,14.68.1,29.36.74,44.04.72,8.94.29,17.89.5,26.84.54,12.52.57,25.06.38,37.59.85,5.7.09,11.4.3,17.1.13.91-11.62,1.19-23.28,1.92-34.91,1.29-26.39,2.7-52.76,4-79.15,1.44-27.21,3.25-54.39,4.82-81.59.64-13.56,2.46-27.03,3.77-40.54,3.75-36.08,7.52-72.15,11.25-108.23.1-10.51,0-21.03.05-31.55,3.8,3.31,7.16,7.11,11.02,10.38,7.51,7.11,14.58,14.69,22.31,21.57,3.97,3.88,7.9,7.8,11.86,11.7,3.32,3.11,6.3,6.68,10.25,9.05,11.18,7.2,22.44,14.29,33.61,21.51,3.19,2.24,6.84,3.88,9.69,6.59-17.85-3.01-35.64-6.33-53.47-9.46-2.37-.41-4.74-1.03-7.16-.76-8.92.61-17.89.81-26.8,1.54-1.61,12.06-2.93,24.17-4.44,36.24-.24,1.88-.55,3.79-.19,5.69,1.58,11.03,2.97,22.1,4.62,33.13,3.79,13.43,7.82,26.81,11.69,40.22,1.29,4.03,2.16,8.21,3.83,12.12,6.12,15.07,12.07,30.21,18.28,45.24,16.5-4.6,32.94-9.47,49.43-14.14,3.96-1.33,8.15-2.06,12-3.64,16.55-13.95,33.02-27.99,49.54-41.96,2.18-1.9,4.52-3.65,6.47-5.8,7.07-7.55,14.22-15.04,21.28-22.6.66-.66,1.31-1.55,2.38-1.38,16.23-.51,32.48-1.16,48.72-1.5,2.83,3.46,5.11,7.37,7.76,11,4.59,6.46,8.8,13.24,13.64,19.49,21.41,14.12,42.92,28.12,64.36,42.2,2.8,1.71,5.34,3.94,8.54,4.9,5.1,1.75,10.12,3.78,15.25,5.41,6.19-6.28,12.01-12.93,18.06-19.34,6.3-6.87,12.76-13.63,18.95-20.58,4.29-10.41,8.28-20.95,12.45-31.41.86-2.46,2.3-4.81,2.22-7.49.96-23.78,2.15-47.56,3.04-71.34-2.37-2.15-5.22-3.73-7.75-5.69-1.57-1.01-3-2.67-5.04-2.51-14.12-.45-28.26-.79-42.39-1.29-2.7-.01-5.41-.3-8.1-.11-22.7,3.88-45.34,8.09-68.04,11.91,4.32-3.47,8.95-6.54,13.41-9.83,17.5-12.66,35-25.31,52.51-37.96,2.59-2.02,5.73-3.57,7.46-6.46,3.22-4.77,6.76-9.33,9.83-14.18v-.02Z" style="fill:#fff; stroke:#fff; stroke-width:.3px;"/><path d="m663.99,588.95c2.66-2.37,4.44-5.62,7.45-7.61-.61,1.61-1.81,2.86-2.8,4.23-5.62,7.57-11.22,15.16-16.85,22.73-6.99,7.81-13.85,15.74-20.82,23.57-2.24,2.7-5.51,4.14-8.35,6.1-8.17,5.42-16.5,10.6-24.69,15.99-1.27.79-2.72,1.22-4.08,1.79-11.06,4.52-22.12,8.98-33.2,13.44-3.11,1.28-6.17,2.83-9.55,3.25-9.3,1.34-18.57,2.93-27.86,4.3-12.89-1.86-25.75-3.94-38.63-5.86-4.74-.62-9.3-2.14-13.95-3.18-9.39-2.42-18.89-4.51-28.21-7.14-14.47-12.65-29.07-25.16-43.57-37.78-1.43-1.44-3.36-2.38-4.44-4.14,3.59.85,6.65,3.05,10.04,4.42,3.65,1.41,7,3.5,10.66,4.91,4.75,1.95,8.95,4.91,13.31,7.56,11.18,7.02,22.37,14.04,33.58,21.02,2.33,1.82,5.47,1.64,8.18,2.54,11.74,2.53,23.39,5.45,35.19,7.71,9.16,1.62,18.26,3.57,27.42,5.09,4.99-1.2,9.75-3.14,14.67-4.57,5.09-1.42,10.02-3.34,15.11-4.77,5.83-1.82,11.7-3.61,17.17-6.37,9.61-4.31,19.19-8.69,28.79-12.99,6.95-5.88,13.87-11.82,20.82-17.71,3.26-3.33,6.77-6.45,9.67-10.11,2.21-2.42,4.77-4.52,6.76-7.12,1.19-1.49,2.61-2.76,3.94-4.11,2.23-2.06,3.89-4.65,6.18-6.67,2.92-2.63,5.13-5.9,8.05-8.53h.01Z" style="stroke:#000; stroke-width:.3px;"/><path d="m319.81,608.44c.5-.9,1.66-.75,2.24-.01-.75.19-1.5.19-2.24.01Z" style="fill:#fff; stroke:#fff; stroke-width:.3px;"/><path d="m312.33,608.97c.22-.86,1.41-.79,1.65.03-.41,0-1.23-.02-1.65-.03Z" style="fill:#e9cee0; stroke:#e9cee0; stroke-width:.3px;"/><path d="m305.36,609.5c.22-.87,1.41-.79,1.65.03-.41,0-1.23-.02-1.65-.03Z" style="fill:#e9cee0; stroke:#e9cee0; stroke-width:.3px;"/><path d="m297.85,610.03c.2-.87,1.38-.81,1.65,0h-1.65Z" style="fill:#e9cee0; stroke:#e9cee0; stroke-width:.3px;"/><path d="m328,609.82c.04.06.11.18.14.25-.04-.06-.11-.19-.14-.25Z" style="fill:#e9cee0; stroke:#e9cee0; stroke-width:.3px;"/><path d="m290.33,610.56c.23-.86,1.41-.79,1.64.03-.41,0-1.23-.02-1.64-.03Z" style="fill:#e9cee0; stroke:#e9cee0; stroke-width:.3px;"/><path d="m282.77,611.11c.46-.96,1.69-.82,2.25-.04-.75.13-1.5.14-2.25.04Z" style="fill:#fff; stroke:#fff; stroke-width:.3px;"/><path d="m275.84,611.64c.19-.88,1.38-.83,1.65-.02-.41,0-1.23.02-1.65.02Z" style="fill:#e9cee0; stroke:#e9cee0; stroke-width:.3px;"/><path d="m268.82,612.14c.51-.9,1.68-.81,2.25-.03-.75.17-1.5.18-2.25.03Z" style="stroke:#000; stroke-width:.3px;"/><path d="m260.81,612.71c.22-.87,1.41-.8,1.65.02-.41,0-1.24-.02-1.65-.02Z" style="fill:#e9cee0; stroke:#e9cee0; stroke-width:.3px;"/><path d="m329.57,612.47c.04.06.1.19.13.25l-.13-.25Z" style="fill:#e9cee0; stroke:#e9cee0; stroke-width:.3px;"/><path d="m253.85,613.24c.2-.87,1.38-.82,1.64-.02-.41,0-1.23.01-1.64.02Z" style="fill:#e9cee0; stroke:#e9cee0; stroke-width:.3px;"/><path d="m246.27,613.74c.52-.89,1.69-.81,2.26-.03-.76.17-1.51.18-2.26.03Z" style="stroke:#000; stroke-width:.3px;"/><path d="m239.37,614.32c.39-.77.73-.75,1.04.07-.26-.02-.78-.05-1.04-.07Z" style="fill:#e9cee0; stroke:#e9cee0; stroke-width:.3px;"/><path d="m231.8,614.85c.49-.91,1.66-.76,2.24-.03-.75.19-1.5.19-2.24.03Z" style="fill:#fff; stroke:#fff; stroke-width:.3px;"/><path d="m224.27,615.34c.52-.9,1.69-.81,2.26-.03-.76.17-1.51.18-2.26.03Z" style="stroke:#000; stroke-width:.3px;"/><path d="m331.23,615.14c.04.07.12.2.16.27l-.16-.27Z" style="fill:#e9cee0; stroke:#e9cee0; stroke-width:.3px;"/><path d="m216.76,615.91c.46-.96,1.69-.82,2.25-.04-.75.13-1.5.14-2.25.04Z" style="fill:#fff; stroke:#fff; stroke-width:.3px;"/><path d="m209.84,616.44c.19-.87,1.37-.83,1.64-.02-.41,0-1.23.02-1.64.02Z" style="fill:#e9cee0; stroke:#e9cee0; stroke-width:.3px;"/><path d="m331.8,616.16c.04.07.11.21.15.28-.04-.07-.11-.21-.15-.28Z" style="fill:#e9cee0; stroke:#e9cee0; stroke-width:.3px;"/><path d="m202.81,616.94c.48-.91,1.66-.81,2.23-.05-.75.18-1.49.2-2.23.05Z" style="stroke:#000; stroke-width:.3px;"/><path d="m194.8,617.57c.39-1.01,1.65-.91,2.21-.11-.74.12-1.47.15-2.21.11Z" style="fill:#fff; stroke:#fff; stroke-width:.3px;"/><path d="m192.23,618.07c.06-.06.19-.18.25-.25l.15.17-.4.08Z" style="fill:#e9cee0; stroke:#e9cee0; stroke-width:.3px;"/><path d="m189.55,618.57c.06-.05.18-.15.24-.2l.16.13-.39.07h-.01Z" style="fill:#e9cee0; stroke:#e9cee0; stroke-width:.3px;"/><path d="m186.87,619.11c.06-.05.18-.17.24-.22l.15.14-.39.07h0Z" style="fill:#e9cee0; stroke:#e9cee0; stroke-width:.3px;"/><path d="m333.34,618.87c.04.07.13.22.18.3-.04-.08-.13-.23-.18-.3Z" style="fill:#e9cee0; stroke:#e9cee0; stroke-width:.3px;"/><path d="m184.18,619.65c.06-.06.18-.17.24-.22l.16.14-.4.07h0Z" style="fill:#e9cee0; stroke:#e9cee0; stroke-width:.3px;"/><path d="m181.49,620.18c.06-.05.18-.17.24-.22l.15.14-.39.07h0Z" style="fill:#e9cee0; stroke:#e9cee0; stroke-width:.3px;"/><path d="m178.82,620.71c.06-.05.18-.17.24-.22l.15.15-.39.07h0Z" style="fill:#e9cee0; stroke:#e9cee0; stroke-width:.3px;"/><path d="m176.13,621.25c.06-.05.18-.17.24-.22l.15.14-.39.07h0Z" style="fill:#e9cee0; stroke:#e9cee0; stroke-width:.3px;"/><path d="m173.45,621.78c.06-.05.18-.16.24-.21l.16.13-.39.08h-.01Z" style="fill:#e9cee0; stroke:#e9cee0; stroke-width:.3px;"/><path d="m335.01,621.53c.04.07.11.2.14.27l-.14-.27Z" style="fill:#e9cee0; stroke:#e9cee0; stroke-width:.3px;"/><path d="m170.77,622.34l.25-.25.15.17-.4.07h0Z" style="fill:#e9cee0; stroke:#e9cee0; stroke-width:.3px;"/><path d="m168.08,622.85c.06-.06.18-.17.24-.22l.15.15-.39.07h0Z" style="fill:#e9cee0; stroke:#e9cee0; stroke-width:.3px;"/><path d="m335.57,622.54c.04.07.13.22.18.29-.05-.07-.14-.21-.18-.29Z" style="fill:#e9cee0; stroke:#e9cee0; stroke-width:.3px;"/><path d="m165.4,623.38c.06-.06.18-.17.24-.22l.15.14-.39.07h0Z" style="fill:#e9cee0; stroke:#e9cee0; stroke-width:.3px;"/><path d="m162.72,623.91c.06-.05.18-.17.24-.22l.15.14-.39.07h0Z" style="fill:#e9cee0; stroke:#e9cee0; stroke-width:.3px;"/><path d="m160.03,624.45c.06-.06.18-.17.24-.22l.15.14-.39.07h0Z" style="fill:#e9cee0; stroke:#e9cee0; stroke-width:.3px;"/><path d="m336.62,624.15c.04.07.12.21.16.29l-.16-.29Z" style="fill:#e9cee0; stroke:#e9cee0; stroke-width:.3px;"/><path d="m157.35,624.98c.06-.05.18-.16.24-.22l.15.14-.39.07h0Z" style="fill:#e9cee0; stroke:#e9cee0; stroke-width:.3px;"/><path d="m154.66,625.51c.06-.05.18-.17.25-.22l.15.15-.4.07h0Z" style="fill:#e9cee0; stroke:#e9cee0; stroke-width:.3px;"/><path d="m337.15,625.21c.04.08.12.23.16.31-.04-.07-.12-.23-.16-.31Z" style="fill:#e9cee0; stroke:#e9cee0; stroke-width:.3px;"/><path d="m151.98,626.05c.06-.05.18-.17.24-.22l.15.14-.39.07h0Z" style="fill:#e9cee0; stroke:#e9cee0; stroke-width:.3px;"/><path d="m149.3,626.58c.06-.06.18-.17.24-.22l.15.15-.39.07h0Z" style="fill:#e9cee0; stroke:#e9cee0; stroke-width:.3px;"/><path d="m146.62,627.11c.06-.06.18-.17.24-.22l.15.15-.39.07h0Z" style="fill:#e9cee0; stroke:#e9cee0; stroke-width:.3px;"/><path d="m143.93,627.65c.06-.06.18-.17.25-.22l.15.15-.4.07h0Z" style="fill:#e9cee0; stroke:#e9cee0; stroke-width:.3px;"/><path d="m141.24,628.19c.06-.06.19-.17.25-.22l.15.15-.4.07h0Z" style="fill:#e9cee0; stroke:#e9cee0; stroke-width:.3px;"/><path d="m338.7,627.94c.04.08.13.23.18.3-.04-.07-.13-.22-.18-.3Z" style="fill:#e9cee0; stroke:#e9cee0; stroke-width:.3px;"/><path d="m138.55,628.68c.06-.04.17-.13.23-.18l.15.11-.38.06h0Z" style="fill:#e9cee0; stroke:#e9cee0; stroke-width:.3px;"/><path d="m135.81,629.32c.26-.85.58-.89.98-.12-.25.03-.74.09-.98.12Z" style="fill:#e9cee0; stroke:#e9cee0; stroke-width:.3px;"/><path d="m133.2,629.77c.06-.05.18-.14.24-.19l.15.12-.39.07Z" style="fill:#e9cee0; stroke:#e9cee0; stroke-width:.3px;"/><path d="m130.52,630.31c.06-.05.18-.17.24-.22l.15.15-.39.07h0Z" style="fill:#e9cee0; stroke:#e9cee0; stroke-width:.3px;"/><path d="m127.83,630.85c.06-.05.18-.17.25-.22l.15.14-.4.07h0Z" style="fill:#e9cee0; stroke:#e9cee0; stroke-width:.3px;"/><path d="m340.38,630.62c.03.06.11.18.14.25l-.14-.25Z" style="fill:#e9cee0; stroke:#e9cee0; stroke-width:.3px;"/><path d="m125.15,631.38c.06-.05.18-.16.24-.21l.15.14-.39.07Z" style="fill:#e9cee0; stroke:#e9cee0; stroke-width:.3px;"/><path d="m122.47,631.91c.06-.05.18-.16.24-.21l.15.14-.39.07Z" style="fill:#e9cee0; stroke:#e9cee0; stroke-width:.3px;"/><path d="m340.93,631.61c.04.07.13.22.18.29-.04-.07-.13-.22-.18-.29Z" style="fill:#e9cee0; stroke:#e9cee0; stroke-width:.3px;"/><path d="m119.78,632.45c.06-.05.18-.17.24-.22l.15.14-.39.07h0Z" style="fill:#e9cee0; stroke:#e9cee0; stroke-width:.3px;"/><path d="m117.09,632.98c.06-.05.18-.17.24-.22l.15.14-.39.07h0Z" style="fill:#e9cee0; stroke:#e9cee0; stroke-width:.3px;"/><path d="m114.42,633.51c.06-.06.18-.17.24-.22l.15.15-.39.07h0Z" style="fill:#e9cee0; stroke:#e9cee0; stroke-width:.3px;"/><path d="m341.96,633.23c.04.06.11.19.14.26l-.14-.26Z" style="fill:#e9cee0; stroke:#e9cee0; stroke-width:.3px;"/><path d="m111.73,634.05c.06-.05.18-.17.24-.22l.15.14-.39.07h0Z" style="fill:#e9cee0; stroke:#e9cee0; stroke-width:.3px;"/><path d="m109.05,634.58c.06-.06.18-.17.24-.22l.15.14-.39.07h0Z" style="fill:#e9cee0; stroke:#e9cee0; stroke-width:.3px;"/><path d="m342.53,634.28c.05.07.16.23.21.3-.05-.07-.16-.23-.21-.3Z" style="fill:#e9cee0; stroke:#e9cee0; stroke-width:.3px;"/><path d="m106.36,635.08c.06-.04.17-.13.23-.18l.16.11-.38.07h-.01Z" style="fill:#e9cee0; stroke:#e9cee0; stroke-width:.3px;"/><path d="m103.59,635.7c.28-.83.62-.86.99-.1-.25.02-.74.07-.99.1Z" style="fill:#e9cee0; stroke:#e9cee0; stroke-width:.3px;"/><path d="m343.51,635.41c.06.06.19.17.25.23-.06-.06-.19-.17-.25-.23Z" style="fill:#e9cee0; stroke:#e9cee0; stroke-width:.3px;"/><path d="m100.93,636.26c.25-.85.57-.89.98-.13-.25.03-.74.1-.98.13Z" style="fill:#e9cee0; stroke:#e9cee0; stroke-width:.3px;"/><path d="m98.32,636.7c.06-.05.18-.15.24-.21l.15.13-.39.07h0Z" style="fill:#e9cee0; stroke:#e9cee0; stroke-width:.3px;"/><path d="m95.63,637.25c.06-.05.18-.17.24-.22l.15.15-.39.07h0Z" style="fill:#e9cee0; stroke:#e9cee0; stroke-width:.3px;"/><path d="m345.71,637.02c.07.05.21.14.28.19-.07-.05-.21-.14-.28-.19Z" style="fill:#e9cee0; stroke:#e9cee0; stroke-width:.3px;"/><path d="m92.95,637.78c.06-.06.18-.17.24-.22l.15.14-.39.07h0Z" style="fill:#e9cee0; stroke:#e9cee0; stroke-width:.3px;"/><path d="m90.27,638.31c.06-.05.18-.16.24-.21l.15.14-.39.07Z" style="fill:#e9cee0; stroke:#e9cee0; stroke-width:.3px;"/><path d="m347.26,638.1c.07.05.21.15.28.2-.07-.05-.21-.15-.28-.2Z" style="fill:#e9cee0; stroke:#e9cee0; stroke-width:.3px;"/><path d="m87.58,638.84c.06-.05.18-.15.24-.21l.16.13-.39.07h-.01Z" style="fill:#e9cee0; stroke:#e9cee0; stroke-width:.3px;"/><path d="m84.9,639.38c.06-.06.18-.17.24-.22l.15.14-.39.07h0Z" style="fill:#e9cee0; stroke:#e9cee0; stroke-width:.3px;"/><path d="m82.21,639.91c.06-.06.18-.17.25-.22l.15.15-.4.07h0Z" style="fill:#e9cee0; stroke:#e9cee0; stroke-width:.3px;"/><path d="m349.45,639.7c.06.05.2.14.27.19-.07-.05-.2-.14-.27-.19Z" style="fill:#e9cee0; stroke:#e9cee0; stroke-width:.3px;"/><path d="m79.53,640.44c.06-.05.18-.17.24-.22l.15.14-.39.07h0Z" style="fill:#e9cee0; stroke:#e9cee0; stroke-width:.3px;"/><path d="m76.85,640.98c.06-.05.18-.17.24-.22l.15.14-.39.07h0Z" style="fill:#e9cee0; stroke:#e9cee0; stroke-width:.3px;"/><path d="m74.16,641.51c.06-.06.18-.17.24-.22l.16.14-.4.07h0Z" style="fill:#e9cee0; stroke:#e9cee0; stroke-width:.3px;"/><path d="m71.48,642.04c.06-.05.18-.16.24-.21l.15.14-.39.07Z" style="fill:#e9cee0; stroke:#e9cee0; stroke-width:.3px;"/><path d="m68.8,642.59c.06-.05.18-.17.24-.22l.15.14-.39.07h0Z" style="fill:#e9cee0; stroke:#e9cee0; stroke-width:.3px;"/><path d="m66.15,643.11c.05-.05.17-.16.23-.21l.16.14-.38.07h-.01Z" style="fill:#e9cee0; stroke:#e9cee0; stroke-width:.3px;"/><path d="m365.52,715.27c8.91-.73,17.87-.93,26.8-1.54,2.42-.27,4.8.36,7.16.76,17.83,3.13,35.62,6.45,53.47,9.46,1.89.47,3.93.56,5.62,1.64,9.1,5.55,18.2,11.08,27.33,16.59,4.65,2.43,9.38,4.69,14.07,7.03,1.07.54,2.17,1.28,3.45,1.07,4.87-.36,9.76-.53,14.63-1.03,17.63-1.17,35.28-2.37,52.91-3.65,6.82-1.59,13.55-3.59,20.31-5.45,10.29-2.67,20.43-5.91,30.83-8.12,22.7-3.83,45.34-8.04,68.04-11.91,2.69-.2,5.4.1,8.1.11,14.12.5,28.26.84,42.39,1.29,2.04-.16,3.47,1.5,5.04,2.51,2.53,1.96,5.38,3.54,7.75,5.69-.89,23.78-2.08,47.56-3.04,71.34.08,2.68-1.36,5.03-2.22,7.49-4.17,10.46-8.16,21.01-12.45,31.41-6.19,6.95-12.65,13.71-18.95,20.58-6.05,6.42-11.87,13.07-18.06,19.34-5.14-1.63-10.15-3.66-15.25-5.41-3.2-.95-5.74-3.19-8.54-4.9-21.44-14.08-42.94-28.07-64.36-42.2-4.84-6.26-9.05-13.03-13.64-19.49-2.65-3.63-4.93-7.54-7.76-11-16.24.34-32.48.99-48.72,1.5-1.07-.17-1.72.72-2.38,1.38-7.06,7.56-14.21,15.05-21.28,22.6-1.95,2.15-4.29,3.9-6.47,5.8-16.53,13.97-33,28.02-49.54,41.96-3.85,1.58-8.04,2.31-12,3.64-16.49,4.67-32.93,9.55-49.43,14.14-6.21-15.03-12.16-30.18-18.28-45.24-1.67-3.91-2.54-8.09-3.83-12.12-3.87-13.41-7.9-26.79-11.69-40.22-1.65-11.02-3.03-22.09-4.62-33.13-.36-1.9-.04-3.81.19-5.69,1.51-12.07,2.83-24.18,4.44-36.24h-.02Z" style="stroke:#000; stroke-width:.3px;"/><path d="m499.97,749.22c3.19-.92,6.58-.21,9.86-.41,2.73.21,5.6-.54,8.22.45-4.87.5-9.76.67-14.63,1.03-1.28.21-2.37-.53-3.45-1.07h0Z" style="fill:#fff; stroke:#fff; stroke-width:.3px;"/><path d="m354.21,643.16c-1.05-.85-2.19-1.57-3.27-2.37-.31-.22-.92-.67-1.22-.9-.07-.05-.2-.14-.27-.19-.65-.47-1.29-.93-1.91-1.4-.07-.05-.21-.15-.28-.2-.32-.22-.96-.67-1.27-.89-.07-.05-.21-.14-.28-.19-.67-.46-1.34-.89-1.95-1.38-.06-.06-.19-.17-.25-.23-.19-.21-.57-.62-.76-.83-.05-.07-.16-.23-.21-.3-.1-.2-.32-.6-.42-.8l-.14-.26c-.21-.33-.64-1-.85-1.33-.04-.07-.13-.22-.18-.29-.1-.19-.31-.55-.41-.74l-.14-.25c-.53-.78-1.05-1.56-1.5-2.37-.04-.07-.13-.22-.18-.3-.49-.8-.97-1.61-1.4-2.43-.04-.07-.12-.23-.16-.31-.09-.19-.28-.58-.37-.77l-.16-.29c-.22-.33-.65-.99-.87-1.32-.05-.07-.14-.21-.18-.29-.1-.19-.31-.55-.41-.74l-.14-.27c-.56-.76-1.05-1.55-1.5-2.35-.04-.08-.13-.23-.18-.3-.49-.81-.96-1.62-1.39-2.44-.04-.07-.11-.21-.15-.28-.1-.19-.31-.57-.41-.75l-.16-.27c-.61-.75-1.15-1.54-1.52-2.42l-.13-.25c-.49-.79-.97-1.6-1.42-2.41-.04-.06-.11-.19-.14-.25-.41-.62-.84-1.23-1.37-1.72-1.53-.06-3.05.2-4.58.32-.75.19-1.5.19-2.24.01-1.94.17-3.88.4-5.83.55-.41,0-1.23-.02-1.65-.03-1.77.22-3.54.45-5.32.57-.41,0-1.23-.02-1.65-.03-1.96.15-3.91.37-5.87.52h-1.65c-1.96.17-3.91.42-5.87.57-.41,0-1.23-.02-1.64-.03-1.77.19-3.54.41-5.31.51-.75.13-1.5.14-2.25.04-1.76.2-3.52.38-5.28.51-.41,0-1.23.02-1.65.02-1.59.16-3.18.34-4.77.46-.75.17-1.5.18-2.25.03-2.12.2-4.23.48-6.36.59-.41,0-1.24-.02-1.65-.02-1.77.19-3.54.38-5.32.51-.41,0-1.23.01-1.64.02-1.78.14-3.54.33-5.31.47-.76.17-1.51.18-2.26.03-1.94.28-3.9.57-5.86.65-.26-.02-.78-.05-1.04-.07-1.78.17-3.55.38-5.33.5-.75.19-1.5.19-2.24.03-1.76.14-3.51.32-5.26.46-.76.17-1.51.18-2.26.03-1.75.21-3.5.43-5.26.52-.75.13-1.5.14-2.25.04-1.75.2-3.52.38-5.28.51-.41,0-1.23.02-1.64.02-1.6.14-3.19.31-4.79.45-.75.18-1.49.2-2.23.05-1.94.18-3.87.42-5.81.52-.74.12-1.47.15-2.21.11-.72.14-1.44.29-2.16.42l-.4.08c-.76.16-1.52.31-2.29.43l-.39.07c-.76.18-1.52.34-2.29.47l-.39.07c-.76.17-1.52.33-2.29.46l-.4.07c-.76.17-1.52.33-2.29.46l-.39.07c-.76.17-1.52.33-2.29.46l-.39.07c-.76.17-1.52.33-2.3.46l-.39.07c-.76.17-1.52.33-2.29.45l-.39.08c-.76.18-1.52.34-2.29.48l-.4.07c-.76.16-1.53.31-2.3.44l-.39.07c-.76.17-1.52.33-2.29.46l-.39.07c-.76.17-1.52.33-2.29.46l-.39.07c-.76.18-1.52.33-2.3.46l-.39.07c-.76.17-1.52.33-2.29.45l-.39.07c-.76.18-1.52.34-2.29.46l-.4.07c-.76.17-1.52.33-2.29.46l-.39.07c-.76.17-1.52.33-2.29.46l-.39.07c-.76.17-1.52.33-2.29.46l-.39.07c-.76.17-1.52.33-2.29.46l-.4.07c-.76.17-1.52.34-2.29.46l-.4.07c-.76.17-1.53.32-2.31.43l-.38.06c-.58.18-1.18.35-1.77.52-.25.03-.74.09-.98.12-.74.12-1.48.26-2.22.37l-.39.07c-.76.19-1.52.35-2.29.47l-.39.07c-.76.17-1.52.33-2.29.46l-.4.07c-.76.17-1.52.33-2.29.45l-.39.07c-.76.18-1.52.34-2.29.46l-.39.07c-.76.18-1.52.34-2.29.46l-.39.07c-.76.17-1.52.33-2.3.46l-.39.07c-.76.17-1.52.33-2.29.46l-.39.07c-.76.17-1.52.33-2.29.46l-.39.07c-.76.17-1.52.33-2.29.46l-.39.07c-.77.17-1.53.33-2.31.43l-.38.07c-.59.18-1.19.35-1.78.52-.25.02-.74.07-.99.1-.56.13-1.12.28-1.68.43-.25.03-.74.1-.98.13-.74.12-1.48.26-2.22.37l-.39.07c-.76.18-1.52.34-2.29.47l-.39.07c-.76.17-1.52.33-2.29.46l-.39.07c-.76.17-1.52.33-2.29.45l-.39.07c-.76.18-1.52.34-2.29.46l-.39.07c-.76.18-1.52.34-2.29.46l-.39.07c-.76.17-1.52.33-2.29.46l-.4.07c-.76.17-1.52.33-2.29.45l-.39.07c-.76.18-1.52.34-2.29.46l-.39.07c-.76.17-1.52.33-2.29.46l-.4.07c-.76.17-1.52.33-2.29.45l-.39.07c-.76.18-1.52.34-2.29.47l-.39.07c-.75.17-1.5.33-2.26.45l-.38.07c-20.61,10.41-41.37,20.55-62.01,30.9-1.36.69-2.75,1.32-4.15,1.96v348.03h328.17v-4.86h.24c.91-11.62,1.19-23.28,1.92-34.91,1.29-26.39,2.7-52.76,4-79.15,1.44-27.21,3.25-54.39,4.82-81.59.64-13.56,2.46-27.03,3.77-40.54,3.75-36.08,7.52-72.15,11.25-108.23.1-10.51,0-21.03.05-31.55l-.08.24Z" style="stroke:#000; stroke-width:.3px;"/><path d="m1023.96,1001.33c-.02-104.62,0-209.25,0-313.87-.11-4.56.2-9.14-.13-13.68-1.72-2.39-4.9-2.78-7.45-3.85-80.55-29.09-161.05-58.3-241.59-87.39-9.56-3.46-19.12-6.91-28.65-10.43-1.27-.5-2.66-.44-3.98-.51-1.33.02-2.32.91-3.06,1.92-.53,2.05.54,4.04.43,6.09,1.03,5.41,1.58,10.9,2.46,16.34.94,5.79,1.35,11.7,2.91,17.38,5.41,20.28,10.63,40.61,16,60.91,1.42,6.47,3.75,12.75,4.71,19.32,2.62,13.44,5.06,26.92,7.67,40.37.22,2.31,1.06,4.53,1.15,6.86-.01,16.9-.03,33.8,0,50.7-2.92,26.94-5.98,53.88-8.82,80.83-2.8,21.76-6.54,43.42-9.59,65.16-.32,2.35-1.04,4.65-.94,7.05-.08,2.7.33,5.47-.39,8.13-.53,4.39.45,8.91-.61,13.26-.35,4.25.47,8.6-.53,12.79-.35,4.26.47,8.6-.54,12.8-.35,4.26.47,8.6-.54,12.8-.16,2.46-.02,4.95-.04,7.42.21,3.51-1.13,6.95-.43,10.47.51.63,1.11,1.21,1.71,1.8h270.32v-22.67h-.07Z" style="stroke:#000; stroke-width:.3px;"/><path d="m1023.96,1001.33c-.02-104.62,0-209.25,0-313.87-.11-4.56.2-9.14-.13-13.68-1.72-2.39-4.9-2.78-7.45-3.85-80.55-29.09-161.05-58.3-241.59-87.39-9.56-3.46-19.12-6.91-28.65-10.43-1.27-.5-2.66-.44-3.98-.51-1.33.02-2.32.91-3.06,1.92-.53,2.05.54,4.04.43,6.09,1.03,5.41,1.58,10.9,2.46,16.34.94,5.79,1.35,11.7,2.91,17.38,5.41,20.28,10.63,40.61,16,60.91,1.42,6.47,3.75,12.75,4.71,19.32,2.62,13.44,5.06,26.92,7.67,40.37.22,2.31,1.06,4.53,1.15,6.86-.01,16.9-.03,33.8,0,50.7-2.92,26.94-5.98,53.88-8.82,80.83-2.8,21.76-6.54,43.42-9.59,65.16-.32,2.35-1.04,4.65-.94,7.05-.08,2.7.33,5.47-.39,8.13-.53,4.39.45,8.91-.61,13.26-.35,4.25.47,8.6-.53,12.79-.35,4.26.47,8.6-.54,12.8-.35,4.26.47,8.6-.54,12.8-.16,2.46-.02,4.95-.04,7.42.21,3.51-1.13,6.95-.43,10.47.51.63,1.11,1.21,1.71,1.8h270.32v-22.67h-.07Z" style="stroke:#000; stroke-width:.3px;"/></svg>