<?xml version="1.0" encoding="UTF-8"?>
<svg id="a" data-name="svg2" xmlns="http://www.w3.org/2000/svg" width="1024" height="1024" viewBox="0 0 1024 1024">
  <g id="b" data-name="layer1">
    <g id="c" data-name="g4427">
      <g id="d" data-name="g4274">
        <g>
          <ellipse cx="436.03" cy="128.91" rx="26.43" ry="31.61" transform="translate(-13.87 194.68) rotate(-24.79)"/>
          <ellipse cx="608.17" cy="126.23" rx="31.61" ry="26.43" transform="translate(136.54 530.42) rotate(-52.32)"/>
          <path d="m842.42,234.32c-.62-36.08-6.79-68.23-16.32-90.95,1.44-5.52,2.22-11.35,2.22-17.38l-.06-2.78c-1.34-33.47-26.25-59.85-56.51-59.85-31.24,0-56.57,28.04-56.57,62.63,0,24.6,12.82,45.88,31.46,56.12-3.32,17.5-5.19,37.2-5.19,58.04,0,12.24.65,24.09,1.85,35.33h-73.07c-15.67,0-29.51,7.85-37.8,19.83-29.74-26.61-65.13-42.04-103.11-42.04-43.77,0-84.09,20.51-116.3,54.98-2.7-5-6.37-9.58-11.01-13.43-19.51-16.24-48.49-13.59-64.73,5.92l-57.51,69.1c-22.28,15.7-47.22,50.63-65.35,94.79l-2.17,5.41c-13.13,33.61-19.63,65.69-19.45,90.33-3.43,4.56-6.37,9.65-8.66,15.23l-1.01,2.59c-11.47,31.48,1.55,65.33,29.55,76.83,28.9,11.87,62.98-4.45,76.12-36.45,9.34-22.76,5.57-47.31-7.78-63.87,9.72-14.93,18.93-32.44,26.85-51.72,6.68-16.27,11.82-32.29,15.41-47.39,5.3-2.74,10.16-6.56,14.22-11.44l11.91-14.31c-7.12,27.84-11.01,57.82-11.01,89.06,0,38.98,6.03,75.99,16.87,109.34-15.84,12.73-26.79,31.53-29.01,53.32l-18.56,182.05c-1.16,11.37.19,22.4,3.57,32.57-3.39,5.49-5.24,11.38-5.23,17.52v.02c.01,29.59,42.87,53.57,95.73,53.56,52.86,0,95.7-24,95.69-53.58v-.02c0-16.18-12.82-30.68-33.08-40.5l10.17-99.73c17.35,7.22,35.73,11.11,54.77,11.11,17.82,0,35.07-3.41,51.44-9.77l11.17,109.59c-20.26,9.82-33.07,24.32-33.08,40.5v.02c-.01,29.59,42.83,53.58,95.69,53.58s95.72-23.97,95.73-53.56v-.02c0-6.14-1.84-12.03-5.23-17.52,3.38-10.17,4.73-21.2,3.57-32.57l-18.56-182.05c-2.28-22.33-13.73-41.53-30.23-54.26,13.05-35.95,20.41-76.58,20.41-119.6,0-56.32-12.61-108.54-34.09-151.52h93.29c4,2.65,8.2,4.07,12.52,4.07,27.89,0,50.51-58.79,50.51-131.32l-.05-5.83Z"/>
        </g>
        <g id="e" data-name="g4268">
          <path id="f" data-name="path4114-6" d="m728.54,78.21c4.52,10.81,6.09,20.45,3.51,21.52s-8.32-6.82-12.84-17.63-6.09-20.45-3.51-21.52,8.32,6.82,12.84,17.63Z" style="fill: #fff; stroke: #030000; stroke-linejoin: round; stroke-width: 1.31px;"/>
          <path id="g" data-name="path4114-6-8" d="m747.11,63.92c4.52,10.81,6.09,20.45,3.51,21.52s-8.32-6.82-12.84-17.63-6.09-20.45-3.51-21.52,8.32,6.82,12.84,17.63Z" style="fill: #fff; stroke: #030000; stroke-linejoin: round; stroke-width: 1.31px;"/>
          <path id="h" data-name="path4114-6-3" d="m765.32,56.42c4.52,10.81,6.09,20.45,3.51,21.52s-8.32-6.82-12.84-17.63-6.09-20.45-3.51-21.52,8.32,6.82,12.84,17.63Z" style="fill: #fff; stroke: #030000; stroke-linejoin: round; stroke-width: 1.31px;"/>
          <path id="i" data-name="path4114-6-1" d="m788.9,55.71c4.52,10.81,6.09,20.45,3.51,21.52s-8.32-6.82-12.84-17.63-6.09-20.45-3.51-21.52,8.32,6.82,12.84,17.63Z" style="fill: #fff; stroke: #030000; stroke-linejoin: round; stroke-width: 1.31px;"/>
        </g>
      </g>
      <path id="j" data-name="path4425" d="m755.47,635.15c0,19.02-17,34.44-38,34.45s-38.02-15.41-38.02-34.43v-.02c0-19.02,17-34.44,38-34.45s38.02,15.41,38.02,34.43v.02Z" style="fill: #fffcfc; stroke: #030000;"/>
      <g id="k" data-name="g4364-6">
        <path id="l" data-name="path4114-0-1" d="m599.74,969.34c-10.52,9.52-17.21,19.27-14.93,21.76s12.65-3.2,23.18-12.73,17.21-19.27,14.93-21.76-12.65,3.2-23.18,12.73Z" style="fill: #fff; stroke: #030000; stroke-linejoin: round; stroke-width: 1.58px;"/>
        <path id="m" data-name="path4114-0-6-8" d="m579.74,960.06c-10.52,9.52-17.21,19.27-14.93,21.76s12.65-3.2,23.18-12.73,17.21-19.27,14.93-21.76-12.65,3.2-23.18,12.73Z" style="fill: #fff; stroke: #030000; stroke-linejoin: round; stroke-width: 1.58px;"/>
        <path id="n" data-name="path4114-0-8-9" d="m562.24,946.84c-10.52,9.52-17.21,19.27-14.93,21.76s12.65-3.2,23.18-12.73,17.21-19.27,14.93-21.76-12.65,3.2-23.18,12.73Z" style="fill: #fff; stroke: #030000; stroke-linejoin: round; stroke-width: 1.58px;"/>
        <path id="o" data-name="path4114-0-65-0" d="m550.81,927.2c-10.52,9.52-17.21,19.27-14.93,21.76s12.65-3.2,23.18-12.73,17.21-19.27,14.93-21.76-12.65,3.2-23.18,12.73Z" style="fill: #fff; stroke: #030000; stroke-linejoin: round; stroke-width: 1.58px;"/>
      </g>
      <g id="p" data-name="g4364">
        <path id="q" data-name="path4114-0" d="m456.57,958.14c10.52,9.52,17.21,19.27,14.93,21.76s-12.65-3.2-23.18-12.73-17.21-19.27-14.93-21.76,12.65,3.2,23.18,12.73Z" style="fill: #fff; stroke: #030000; stroke-linejoin: round; stroke-width: 1.58px;"/>
        <path id="r" data-name="path4114-0-6" d="m476.57,948.86c10.52,9.52,17.21,19.27,14.93,21.76s-12.65-3.2-23.18-12.73-17.21-19.27-14.93-21.76,12.65,3.2,23.18,12.73Z" style="fill: #fff; stroke: #030000; stroke-linejoin: round; stroke-width: 1.58px;"/>
        <path id="s" data-name="path4114-0-8" d="m494.07,935.64c10.52,9.52,17.21,19.27,14.93,21.76s-12.65-3.2-23.18-12.73-17.21-19.27-14.93-21.76,12.65,3.2,23.18,12.73Z" style="fill: #fff; stroke: #030000; stroke-linejoin: round; stroke-width: 1.58px;"/>
        <path id="t" data-name="path4114-0-65" d="m505.5,916c10.52,9.52,17.21,19.27,14.93,21.76s-12.65-3.2-23.18-12.73-17.21-19.27-14.93-21.76,12.65,3.2,23.18,12.73Z" style="fill: #fff; stroke: #030000; stroke-linejoin: round; stroke-width: 1.58px;"/>
      </g>
      <g id="u" data-name="g4086">
        <path id="v" data-name="path3948-0" d="m719.23,519.94c.13,146.72-85.24,265.8-190.68,265.99-105.44.18-191.03-118.61-191.16-265.33,0-.95,0-1.9,0-2.86" style="fill: #fff9f9; stroke: #030000;"/>
        <path id="w" data-name="path4084" d="m337.64,519.13c1.11-82.01,87.49-147.97,192.95-147.34,105.46.63,190.05,67.63,188.94,149.63h0" style="fill: #fff; stroke: #030000; stroke-width: 1px;"/>
      </g>
      <g id="x" data-name="g3920">
        <path id="y" data-name="path2985" d="m648.17,226.58c0,64.69-54.35,117.15-121.42,117.15-67.06,0-121.44-52.43-121.44-117.13v-.02c0-64.69,54.35-117.15,121.42-117.15,67.06,0,121.44,52.43,121.44,117.13v.02Z" style="fill: #fff; stroke: #030000;"/>
        <ellipse cx="483.86" cy="178.51" rx="29.29" ry="28.28"/>
        <ellipse cx="564.25" cy="178.37" rx="29.29" ry="28.28"/>
        <path id="z" data-name="path3757" d="m496.99,175.48c.07,8.37-5.53,15.22-12.5,15.3-6.97.08-12.68-6.63-12.75-15,0-.1,0-.2,0-.3-.07-8.37,5.53-15.22,12.5-15.3,6.97-.08,12.68,6.63,12.75,15,0,.1,0,.2,0,.3Z" style="fill: #fff;"/>
        <path id="aa" data-name="path3757-4" d="m577.38,175.34c.07,8.37-5.53,15.22-12.5,15.3-6.97.08-12.68-6.63-12.75-15,0-.1,0-.2,0-.3-.07-8.37,5.53-15.22,12.5-15.3,6.97-.08,12.68,6.63,12.75,15,0,.1,0,.2,0,.3Z" style="fill: #fff;"/>
        <path id="ab" data-name="path3800" d="m449.67,131.04c5.53,8.99,5.58,19,.12,22.36s-14.37-1.21-19.89-10.2-5.58-19-.12-22.36,14.37,1.21,19.89,10.2Z" style="fill: #fff;"/>
        <path id="ac" data-name="path3800-6" d="m612.59,139.3c-5.42,9.06-14.27,13.73-19.77,10.44s-5.57-13.3-.15-22.36c5.42-9.06,14.27-13.73,19.77-10.44s5.57,13.3.15,22.36Z" style="fill: #fff;"/>
        <g id="ad" data-name="g3861">
          <path id="ae" data-name="path3845" d="m554.95,237.12c0,9.76-12.79,17.68-28.57,17.68s-28.57-7.92-28.57-17.68,12.79-17.68,28.57-17.68,28.57,7.92,28.57,17.68Z" style="fill: #030000;"/>
          <path id="af" data-name="path3847" d="m545.67,229.98c0,3.06-8.71,5.54-19.46,5.54s-19.46-2.48-19.46-5.54,8.71-5.54,19.46-5.54,19.46,2.48,19.46,5.54Z" style="fill: #fff; isolation: isolate; opacity: .65;"/>
        </g>
        <g id="ag" data-name="g3911">
          <path id="ah" data-name="path3857" d="m604.25,263.55c.11,20.81-34.27,37.72-76.77,37.77-41.94.05-76.24-16.34-77.14-36.87" style="fill: #460000; stroke: #030000; stroke-width: 2.5px;"/>
          <g id="ai" data-name="g3903">
            <path id="aj" data-name="path3859-7" d="m562.21,290.75c-1.36,5.33-18.65,9.38-38.63,9.05-19.97-.33-35.07-4.92-33.71-10.25,1.36-5.33,18.65-9.38,38.63-9.05,18.64.31,33.26,4.34,33.78,9.32" style="fill: #a50101;"/>
            <path id="ak" data-name="path3859" d="m562.79,292.69c-1.36,4.84-18.65,8.51-38.63,8.21-19.97-.3-35.07-4.46-33.71-9.3,1.36-4.84,18.65-8.51,38.63-8.21,18.64.28,33.26,3.94,33.78,8.46" style="fill: red;"/>
          </g>
          <g id="al" data-name="g3907">
            <rect id="am" data-name="rect3865-1" x="455.14" y="266.04" width="144.64" height="12.5" rx="4.93" ry="4.93" style="fill: #433434;"/>
            <rect id="an" data-name="rect3865" x="464.24" y="265.86" width="128.93" height="12.5" rx="6" ry="6" style="fill: #fff;"/>
          </g>
        </g>
      </g>
      <g id="ao" data-name="g4249">
        <path id="ap" data-name="path4114" d="m256.57,656.6c0,11.72-2.26,21.21-5.05,21.21s-5.05-9.5-5.05-21.21,2.26-21.21,5.05-21.21,5.05,9.5,5.05,21.21Z" style="fill: #fff; stroke: #030000; stroke-linejoin: round; stroke-width: 1.31px;"/>
        <path id="aq" data-name="path4114-8" d="m238.22,659.44c0,11.72-2.26,21.21-5.05,21.21s-5.05-9.5-5.05-21.21,2.26-21.21,5.05-21.21,5.05,9.5,5.05,21.21Z" style="fill: #fff; stroke: #030000; stroke-linejoin: round; stroke-width: 1.31px;"/>
        <path id="ar" data-name="path4114-4" d="m206.44,651.58c0,11.72-2.26,21.21-5.05,21.21s-5.05-9.5-5.05-21.21,2.26-21.21,5.05-21.21,5.05,9.5,5.05,21.21Z" style="fill: #fff; stroke: #030000; stroke-linejoin: round; stroke-width: 1.31px;"/>
        <path id="as" data-name="path4114-7" d="m220.72,656.94c0,11.72-2.26,21.21-5.05,21.21s-5.05-9.5-5.05-21.21,2.26-21.21,5.05-21.21,5.05,9.5,5.05,21.21Z" style="fill: #fff; stroke: #030000; stroke-linejoin: round; stroke-width: 1.31px;"/>
      </g>
    </g>
  </g>
</svg>