<?xml version="1.0" encoding="UTF-8" standalone="no"?>
<!-- Created with Inkscape (http://www.inkscape.org/) -->
<!-- ClipArt by Arvin61r58 (http://openclipart.org/user-detail/Arvin61r58) -->
<svg xmlns:dc="http://purl.org/dc/elements/1.1/" xmlns:cc="http://creativecommons.org/ns#" xmlns:rdf="http://www.w3.org/1999/02/22-rdf-syntax-ns#" xmlns:svg="http://www.w3.org/2000/svg" xmlns="http://www.w3.org/2000/svg" xmlns:xlink="http://www.w3.org/1999/xlink" xmlns:inkscape="http://www.inkscape.org/namespaces/inkscape" xmlns:sodipodi="http://sodipodi.sourceforge.net/DTD/sodipodi-0.dtd" version="1.1" id="svg2" viewBox="0 0 160.00015 428.09086" height="428.09085" width="160.00015" inkscape:version="0.91 r13725" xmlns:ns1="http://sozi.baierouge.fr">
  <title id="title5841">Paper Cup</title>
  <defs id="defs4">
    <linearGradient id="linearGradient4443">
      <stop stop-color="#a7a7a7" offset="0" id="stop4445"/>
      <stop stop-color="#bababa" offset="0.071429" id="stop4447"/>
      <stop stop-color="#d7d7d7" offset="0.142857" id="stop4449"/>
      <stop stop-color="#f2f2f2" offset="0.214286" id="stop4451"/>
      <stop stop-color="#ffffff" offset="0.285714" id="stop4453"/>
      <stop stop-color="#fbfbfb" offset="0.357143" id="stop4455"/>
      <stop stop-color="#f1f1f1" offset="0.428571" id="stop4457"/>
      <stop stop-color="#e2e2e2" offset="0.5" id="stop4459"/>
      <stop stop-color="#cecfce" offset="0.571429" id="stop4461"/>
      <stop stop-color="#bababa" offset="0.642857" id="stop4463"/>
      <stop stop-color="#a5a5a5" offset="0.714286" id="stop4465"/>
      <stop stop-color="#909090" offset="0.785714" id="stop4467"/>
      <stop stop-color="#7c7c7c" offset="0.857143" id="stop4469"/>
      <stop stop-color="#6c6c6c" offset="0.928571" id="stop4471"/>
      <stop stop-color="#636363" offset="1" id="stop4473"/>
    </linearGradient>
    <linearGradient gradientTransform="translate(374.26282,296.67949)" gradientUnits="userSpaceOnUse" y2="299.21017" x2="66.403687" y1="299.21017" x1="-71.110992" id="linearGradient5160" xlink:href="#linearGradient4443"/>
  </defs>
  <metadata id="metadata7">
    <rdf:RDF>
      <cc:Work rdf:about="">
        <dc:format>image/svg+xml</dc:format>
        <dc:type rdf:resource="http://purl.org/dc/dcmitype/StillImage"/>
        <dc:title>Paper Cup</dc:title>
        <dc:creator>
          <cc:Agent>
            <dc:title>Arvin61r58</dc:title>
          </cc:Agent>
        </dc:creator>
        <dc:publisher>
          <cc:Agent>
            <dc:title>Openclipart.org</dc:title>
          </cc:Agent>
        </dc:publisher>
        <dc:identifier>https://openclipart.org</dc:identifier>
        <dc:source>https://openclipart.org/user-detail/Arvin61r58</dc:source>
        <dc:description>paper cup with cover and straw</dc:description>
        <dc:subject>
          <rdf:Bag>
            <rdf:li>cup</rdf:li>
            <rdf:li>paper cup</rdf:li>
            <rdf:li>drink cup</rdf:li>
            <rdf:li>drink</rdf:li>
            <rdf:li>soft drink</rdf:li>
            <rdf:li>SoftDrink</rdf:li>
            <rdf:li>beverage</rdf:li>
          </rdf:Bag>
        </dc:subject>
        <cc:license rdf:resource="http://creativecommons.org/publicdomain/zero/1.0/"/>
      </cc:Work>
      <cc:License rdf:about="http://creativecommons.org/publicdomain/zero/1.0/">
        <cc:permits rdf:resource="http://creativecommons.org/ns#Reproduction"/>
        <cc:permits rdf:resource="http://creativecommons.org/ns#Distribution"/>
        <cc:permits rdf:resource="http://creativecommons.org/ns#DerivativeWorks"/>
      </cc:License>
    </rdf:RDF>
  </metadata>
  <g id="layer1" transform="translate(-292.04717,-312.13568)">
    <g id="g5794">
      <path style="opacity:1;fill:url(#linearGradient5160);fill-opacity:1;fill-rule:nonzero;stroke:#000000;stroke-width:1.49999988;stroke-linecap:butt;stroke-linejoin:round;stroke-miterlimit:4;stroke-dasharray:none;stroke-dashoffset:0;stroke-opacity:1" d="m 303.90181,462.30276 c 42.7861,30.34958 86.51914,35.7091 136.0147,0.40477 l -18.06396,252.11564 c -37.87169,20.96467 -66.37824,17.69983 -97.44959,1.39655 z" id="path5152"/>
      <path id="rect3393" d="m 303.90181,462.30275 c 42.7861,30.34958 86.51914,35.7091 136.0147,0.40477 l -18.06396,252.11564 c -37.87169,20.96467 -66.37824,17.69983 -97.44959,1.39655 z" style="opacity:0.65;fill:#ffffff;fill-opacity:1;fill-rule:nonzero;stroke:#000000;stroke-width:1.49999988;stroke-linecap:butt;stroke-linejoin:round;stroke-miterlimit:4;stroke-dasharray:none;stroke-dashoffset:0;stroke-opacity:1"/>
      <path id="path3340" d="m 395.31807,681.93432 c -0.19606,6.20647 -5.30442,10.99579 -11.30105,10.89045 -5.99667,-0.10533 -10.97378,-5.07386 -11.01023,-11.29176 -0.0365,-6.21787 4.97376,-11.32089 11.29929,-11.20455 6.32555,0.11634 11.20805,5.39935 11.01199,11.60586 z" style="opacity:0.75;fill:none;fill-opacity:1;fill-rule:nonzero;stroke:#9e2de1;stroke-width:1.50000012;stroke-linecap:butt;stroke-linejoin:round;stroke-miterlimit:4;stroke-dasharray:none;stroke-dashoffset:0;stroke-opacity:1"/>
      <path id="path3360" d="m 352.13759,518.48814 c 0.12318,4.71503 -1.65693,9.09794 -4.61496,12.38014 -2.95973,3.28407 -7.08454,5.45643 -11.67255,5.827 4.4e-4,-4e-5 -0.002,1.8e-4 -0.002,1.4e-4 -4.58846,0.37016 -8.88762,-1.12283 -12.13861,-3.92257 -3.24869,-2.79778 -5.42999,-6.88979 -5.74674,-11.61562 0,6e-5 -2.5e-4,-0.004 -2.4e-4,-0.004 -0.30513,-4.56586 1.20473,-9.15427 4.26151,-12.71926 -4.2e-4,5e-4 0.002,-0.003 0.002,-0.002 3.05747,-3.56468 7.38957,-5.78242 12.02135,-6.13231 -4.6e-4,3e-5 0.002,-1.7e-4 0.002,-1.4e-4 4.63155,-0.34939 9.13448,1.20096 12.49236,4.2644 -1.7e-4,-1.6e-4 9.4e-4,8.9e-4 8.5e-4,7.8e-4 3.35865,3.06449 5.27639,7.36685 5.39541,11.92308" style="opacity:0.75;fill:none;fill-opacity:1;fill-rule:nonzero;stroke:#292415;stroke-width:1.50000036;stroke-linecap:butt;stroke-linejoin:round;stroke-miterlimit:4;stroke-dasharray:none;stroke-dashoffset:0;stroke-opacity:1"/>
      <path id="path3362" d="m 365.15876,556.09605 c 0.0378,2.80305 -1.05004,5.39126 -2.85111,7.30202 -1.80178,1.9115 -4.29471,3.1234 -7.03927,3.23967 -2.4e-4,2e-5 -8.5e-4,5e-5 -8.5e-4,5e-5 -2.74447,0.11601 -5.29641,-0.88239 -7.19722,-2.6414 -1.9001,-1.75835 -3.12449,-4.25628 -3.23587,-7.06308 -4e-5,-8.7e-4 -7e-5,-0.002 -7e-5,-0.002 -0.10732,-2.71774 0.86106,-5.39339 2.71659,-7.425 2.5e-4,-2.8e-4 8.3e-4,-8.6e-4 8.3e-4,-8.6e-4 1.85586,-2.03134 4.43865,-3.24106 7.17161,-3.35052 2.8e-4,-1e-5 8.9e-4,-3e-5 8.9e-4,-3e-5 2.733,-0.10919 5.37391,0.89156 7.33187,2.766 -6e-5,-6e-5 5.4e-4,5.1e-4 4.8e-4,4.6e-4 1.95827,1.87492 3.06531,4.46055 3.10196,7.17511" style="opacity:0.75;fill:none;fill-opacity:1;fill-rule:nonzero;stroke:#466112;stroke-width:1.50000012;stroke-linecap:butt;stroke-linejoin:round;stroke-miterlimit:4;stroke-dasharray:none;stroke-dashoffset:0;stroke-opacity:1"/>
      <path id="path3364" d="m 361.78243,599.95063 c 0.0908,4.42223 -1.59537,8.54616 -4.4047,11.62673 -2.81113,3.08251 -6.70501,5.0806 -10.99562,5.38742 6.1e-4,-4e-5 -0.002,1.6e-4 -0.002,1.1e-4 -4.29103,0.30642 -8.33573,-1.12488 -11.40219,-3.80326 -3.06408,-2.67632 -5.10115,-6.56117 -5.39257,-10.9935 10e-6,1.1e-4 -2.3e-4,-0.004 -2.2e-4,-0.004 -0.28217,-4.30442 1.14572,-8.61331 4.03628,-11.9463 4.3e-4,-4.6e-4 0.002,-0.002 0.002,-0.002 2.89084,-3.33222 6.98586,-5.3849 11.35931,-5.67509 -6.4e-4,4e-5 0.002,-1.5e-4 0.002,-1.1e-4 4.37325,-0.28973 8.61766,1.20963 11.77086,4.12545 -2.2e-4,-1.9e-4 8.9e-4,8.5e-4 6.7e-4,6.5e-4 3.15425,2.91718 4.93823,6.98774 5.02635,11.2831" style="opacity:0.75;fill:none;fill-opacity:1;fill-rule:nonzero;stroke:#a43f1f;stroke-width:1.50000024;stroke-linecap:butt;stroke-linejoin:round;stroke-miterlimit:4;stroke-dasharray:none;stroke-dashoffset:0;stroke-opacity:1"/>
      <path id="path3366" d="m 410.49682,653.80301 c -0.1389,2.51226 -1.27108,4.74507 -3.01725,6.30017 -1.74706,1.5559 -4.06568,2.39752 -6.5225,2.24004 -2e-5,0 -7.6e-4,-6e-5 -7.7e-4,-6e-5 -2.45648,-0.15771 -4.69265,-1.29118 -6.30257,-3.06081 -1.60934,-1.769 -2.55357,-4.13313 -2.48942,-6.64829 10e-6,-5.4e-4 5e-5,-0.002 5e-5,-0.002 0.0629,-2.44966 1.08969,-4.76027 2.87954,-6.41124 2.7e-4,-2.7e-4 8e-4,-7.5e-4 8e-4,-7.5e-4 1.78986,-1.65042 4.18842,-2.49682 6.65795,-2.34016 2e-5,0 7.8e-4,5e-5 7.9e-4,5e-5 2.46969,0.15692 4.79012,1.30315 6.44028,3.17341 2.1e-4,2.2e-4 3.2e-4,3.7e-4 5.2e-4,5.9e-4 1.65045,1.87085 2.4877,4.30204 2.3524,6.74926" style="opacity:0.75;fill:none;fill-opacity:1;fill-rule:nonzero;stroke:#354ddd;stroke-width:1.50000012;stroke-linecap:butt;stroke-linejoin:round;stroke-miterlimit:4;stroke-dasharray:none;stroke-dashoffset:0;stroke-opacity:1"/>
      <path id="path3440" d="m 429.92189,589.13319 c -4.39308,-1.88859 -8.32058,-4.84505 -11.42907,-8.58394 -4.69465,-5.64672 -7.40677,-12.95278 -7.07067,-20.54275 l 2.3e-4,-0.005 c 0.3301,-7.42098 3.58592,-14.30122 9.23232,-19.01299 0,0 0.004,-0.004 0.004,-0.004 3.70392,-3.08967 8.21455,-5.05555 13.05571,-5.72889" style="opacity:0.75;fill:none;fill-opacity:1;fill-rule:nonzero;stroke:#4141f3;stroke-width:1.50000012;stroke-linecap:butt;stroke-linejoin:round;stroke-miterlimit:4;stroke-dasharray:none;stroke-dashoffset:0;stroke-opacity:1"/>
      <path id="path3434" d="m 316.32189,614.35226 c 1.05045,-0.4098 2.14031,-0.69913 3.25244,-0.85775 0,0 0.002,-2.3e-4 0.002,-2.3e-4 4.16943,-0.59419 8.28279,0.69904 11.40549,3.54835 0,0 8.7e-4,8e-4 8.7e-4,8e-4 3.12391,2.85089 4.98196,7.0014 5.2309,11.50273 0,0 -2.6e-4,4.4e-4 -2.6e-4,4.4e-4 0.25329,4.5849 -1.16867,9.04555 -3.7553,12.50815 -2.58767,3.46404 -6.24597,5.80838 -10.2868,6.42145 0,0 -0.002,2.4e-4 -0.002,2.4e-4 -1.06728,0.16181 -2.12593,0.19765 -3.16255,0.11466" style="opacity:0.75;fill:none;fill-opacity:1;fill-rule:nonzero;stroke:#094c23;stroke-width:1.50000012;stroke-linecap:butt;stroke-linejoin:round;stroke-miterlimit:4;stroke-dasharray:none;stroke-dashoffset:0;stroke-opacity:1"/>
      <path id="path3372" d="m 369.14224,683.43667 c 0.0635,3.81941 -1.39255,7.45381 -3.90075,10.18078 -2.5094,2.72826 -5.95248,4.42387 -9.65397,4.65801 2.9e-4,-10e-6 -0.002,1.2e-4 -9.9e-4,1e-4 -3.70168,0.23379 -7.26399,-1.01932 -9.98263,-3.4299 -2.71709,-2.40917 -4.45885,-5.8631 -4.69956,-9.69045 -1.5e-4,-0.003 0,0 -1.5e-4,-0.003 -0.23678,-3.77653 1.02581,-7.53893 3.57004,-10.43569 -2.3e-4,2.6e-4 0.002,-0.003 9.9e-4,-0.002 2.54409,-2.89556 6.14281,-4.66273 9.98033,-4.88749 -3e-4,3e-5 0.002,-1.2e-4 0.002,-9e-5 3.83745,-0.22438 7.55717,1.11427 10.3135,3.68735 -10e-6,0 8.4e-4,7.9e-4 8.4e-4,7.9e-4 2.75743,2.57455 4.30795,6.15205 4.3706,9.92132" style="opacity:0.75;fill:none;fill-opacity:1;fill-rule:nonzero;stroke:#8b7453;stroke-width:1.5;stroke-linecap:butt;stroke-linejoin:round;stroke-miterlimit:4;stroke-dasharray:none;stroke-dashoffset:0;stroke-opacity:1"/>
      <path id="path3444" d="m 359.69879,631.89725 c 0.0517,2.23802 -0.70988,4.34074 -2.01243,5.9131 -1.30297,1.57288 -3.11436,2.57705 -5.1023,2.70644 10e-6,0 -6.6e-4,4e-5 -6.5e-4,4e-5 -1.98787,0.12917 -3.85872,-0.6355 -5.26226,-2.0357 -1.40312,-1.3998 -2.30296,-3.40046 -2.40098,-5.64087 0,1e-4 -9e-5,-0.002 -9e-5,-0.002 -0.095,-2.18181 0.59267,-4.33943 1.92735,-5.99049 4e-5,-5e-5 7.3e-4,-8.8e-4 7.6e-4,-8.8e-4 1.33486,-1.65074 3.20239,-2.65215 5.18591,-2.77623 0,0 6.7e-4,-4e-5 6.7e-4,-4e-5 1.98358,-0.12387 3.90952,0.64044 5.34745,2.11445 3e-5,2e-5 4.2e-4,4.3e-4 4.5e-4,4.6e-4 1.43816,1.47444 2.26578,3.53178 2.31617,5.7116" style="opacity:0.75;fill:none;fill-opacity:1;fill-rule:nonzero;stroke:#000000;stroke-width:1.50000012;stroke-linecap:butt;stroke-linejoin:round;stroke-miterlimit:4;stroke-dasharray:none;stroke-dashoffset:0;stroke-opacity:1"/>
      <path id="path3446" d="m 385.55993,647.2163 c -0.0531,4.04495 -1.53535,7.74376 -3.91622,10.42596 -2.38243,2.68396 -5.61128,4.29538 -9.09703,4.33589 -2e-4,10e-6 -5.6e-4,10e-6 -7.6e-4,2e-5 -3.48566,0.0401 -6.7308,-1.49634 -9.14293,-4.13055 -2.41061,-2.63251 -3.93394,-6.30696 -4.03208,-10.35936 -10e-6,-5.2e-4 -6e-5,-0.002 -7e-5,-0.003 -0.0949,-3.9476 1.19533,-7.79919 3.63764,-10.68116 -3.7e-4,4.3e-4 0.002,-0.003 0.002,-0.002 2.44227,-2.88098 5.8206,-4.53303 9.37184,-4.56567 2.1e-4,0 5.9e-4,0 7.9e-4,-1e-5 3.55127,-0.0323 6.94822,1.5579 9.42167,4.38819 -1.8e-4,-2.1e-4 9.5e-4,8.9e-4 7.6e-4,8.9e-4 2.47425,2.83159 3.80681,6.6497 3.75508,10.5907" style="opacity:0.75;fill:none;fill-opacity:1;fill-rule:nonzero;stroke:#714bd0;stroke-width:1.50000012;stroke-linecap:butt;stroke-linejoin:round;stroke-miterlimit:4;stroke-dasharray:none;stroke-dashoffset:0;stroke-opacity:1"/>
      <path id="path3453" d="m 426.27979,641.7237 c -0.30908,-0.0147 -0.62014,-0.0434 -0.93266,-0.0862 0,0 -7.9e-4,-1.1e-4 -7.9e-4,-1.1e-4 -3.07027,-0.42103 -5.82329,-2.15252 -7.76706,-4.69942 -1.94304,-2.54596 -3.03221,-5.85152 -2.85021,-9.28644 l 1.4e-4,-0.003 c 0.17786,-3.34556 1.55987,-6.42897 3.87892,-8.54986 0,0 0.002,-0.002 0.002,-0.002 2.31896,-2.12006 5.37367,-3.0903 8.47716,-2.67462 0,0 8.3e-4,10e-5 8.3e-4,10e-5 0.32084,0.043 0.63933,0.10046 0.95472,0.17191" style="opacity:0.75;fill:none;fill-opacity:1;fill-rule:nonzero;stroke:#20a2f3;stroke-width:1.50000012;stroke-linecap:butt;stroke-linejoin:round;stroke-miterlimit:4;stroke-dasharray:none;stroke-dashoffset:0;stroke-opacity:1"/>
      <path id="path3457" d="m 423.7197,603.59868 c -0.10371,1.63616 -0.8208,3.05859 -1.90697,4.02622 -1.0865,0.96794 -2.52639,1.46751 -4.0552,1.30181 1e-5,0 -5.8e-4,-6e-5 -5.7e-4,-6e-5 -1.52855,-0.16586 -2.89447,-0.96946 -3.85925,-2.15849 -0.96468,-1.1889 -1.51447,-2.74698 -1.43565,-4.38418 0,0 3e-5,-8.7e-4 3e-5,-8.8e-4 0.0766,-1.58506 0.74322,-3.0499 1.86149,-4.06741 0,0 6e-4,-5.5e-4 6e-4,-5.5e-4 1.11839,-1.01727 2.59422,-1.5007 4.09966,-1.33899 0,0 5.8e-4,6e-5 5.8e-4,6e-5 1.50555,0.16188 2.9113,0.95515 3.90476,2.20063 -5e-5,-7e-5 3.3e-4,4.1e-4 2.7e-4,3.4e-4 0.99353,1.24569 1.49067,2.83761 1.39026,4.42193" style="opacity:0.75;fill:none;fill-opacity:1;fill-rule:nonzero;stroke:#a0d407;stroke-width:1.50000012;stroke-linecap:butt;stroke-linejoin:round;stroke-miterlimit:4;stroke-dasharray:none;stroke-dashoffset:0;stroke-opacity:1"/>
      <path id="path3464" d="m 313.55633,580.73472 c 1.43115,-1.08562 2.72715,-2.35652 3.85164,-3.77571 3.1506,-3.97625 4.926,-9.08418 4.56339,-14.38576 l -2.4e-4,-0.004 c -0.35222,-5.13484 -2.70679,-9.83224 -6.63084,-13.00952 0,0 -0.002,-0.002 -0.002,-0.002 -1.37392,-1.11206 -2.89809,-2.00298 -4.52392,-2.6565" style="opacity:0.75;fill:none;fill-opacity:1;fill-rule:nonzero;stroke:#8693c0;stroke-width:1.50000012;stroke-linecap:butt;stroke-linejoin:round;stroke-miterlimit:4;stroke-dasharray:none;stroke-dashoffset:0;stroke-opacity:1"/>
      <path id="path3468" d="m 400.71293,610.80217 c -0.15308,4.44378 -2.0716,8.40875 -5.03791,11.22139 -2.96872,2.81493 -6.95748,4.4545 -11.26218,4.36196 3.8e-4,10e-6 -0.002,-4e-5 -0.002,-4e-5 -4.30443,-0.0929 -8.24995,-1.90318 -11.14977,-4.8471 -2.89765,-2.94169 -4.72181,-6.99278 -4.77283,-11.44559 0,8.4e-4 -5e-5,-0.004 -5e-5,-0.004 -0.0486,-4.31299 1.60459,-8.47769 4.66403,-11.54262 -4.1e-4,4e-4 0.002,-0.003 0.002,-0.002 3.05942,-3.06395 7.25273,-4.7497 11.63122,-4.65113 -4e-4,-1e-5 0.002,4e-5 0.002,3e-5 4.37854,0.099 8.53394,1.97327 11.52378,5.17094 -1.7e-4,-1.9e-4 9.9e-4,8.4e-4 8.2e-4,8.4e-4 2.99073,3.199 4.54955,7.43153 4.40125,11.73653" style="opacity:0.75;fill:none;fill-opacity:1;fill-rule:nonzero;stroke:#f37100;stroke-width:1.50000024;stroke-linecap:butt;stroke-linejoin:round;stroke-miterlimit:4;stroke-dasharray:none;stroke-dashoffset:0;stroke-opacity:1"/>
      <path id="path3470" d="m 416.50001,697.55162 c -0.14323,1.97749 -1.06742,3.70625 -2.45346,4.89253 -1.38676,1.18692 -3.21709,1.81638 -5.1571,1.64855 -4e-5,0 -4.5e-4,-4e-5 -5e-4,-4e-5 -1.93971,-0.168 -3.67394,-1.10568 -4.90259,-2.51699 -1.22825,-1.41083 -1.93507,-3.27813 -1.84134,-5.25734 0,-9e-5 7e-5,-0.002 7e-5,-0.002 0.0912,-1.91662 0.93512,-3.70381 2.36286,-4.96097 4e-5,-3e-5 5e-4,-4.4e-4 5.3e-4,-4.7e-4 1.42773,-1.25673 3.31732,-1.87488 5.24613,-1.71028 5e-5,0 4.7e-4,5e-5 5.1e-4,5e-5 1.92896,0.16479 3.72761,1.09804 4.99319,2.58658 1.3e-4,1.6e-4 2.1e-4,2.6e-4 3.4e-4,4.1e-4 1.26582,1.48899 1.88989,3.40448 1.75115,5.31975" style="opacity:0.75;fill:none;fill-opacity:1;fill-rule:nonzero;stroke:#236f89;stroke-width:1.50000012;stroke-linecap:butt;stroke-linejoin:round;stroke-miterlimit:4;stroke-dasharray:none;stroke-dashoffset:0;stroke-opacity:1"/>
      <path id="path3472" d="m 385.92573,706.39121 c -0.032,1.98449 -0.85574,3.78658 -2.16983,5.08701 -1.31475,1.3011 -3.10303,2.08452 -5.04604,2.08124 -4e-5,0 -4.5e-4,0 -4.9e-4,0 -1.94284,-0.004 -3.72494,-0.79293 -5.03036,-2.09954 -1.30488,-1.30607 -2.11593,-3.11315 -2.13435,-5.0996 -1e-5,-7e-5 -1e-5,-0.002 -1e-5,-0.002 -0.0174,-1.92369 0.72378,-3.78058 2.07751,-5.15552 3e-5,-3e-5 4.8e-4,-4.8e-4 5.1e-4,-5.2e-4 1.35377,-1.37452 3.20401,-2.14805 5.13681,-2.14301 5e-5,0 4.7e-4,0 5.1e-4,0 1.93289,0.005 3.77829,0.78862 5.12276,2.16919 1.4e-4,1.4e-4 2.2e-4,2.4e-4 3.6e-4,3.8e-4 1.34478,1.38107 2.07346,3.24008 2.04244,5.16218" style="opacity:0.75;fill:none;fill-opacity:1;fill-rule:nonzero;stroke:#f3f300;stroke-width:1.50000012;stroke-linecap:butt;stroke-linejoin:round;stroke-miterlimit:4;stroke-dasharray:none;stroke-dashoffset:0;stroke-opacity:1"/>
      <path id="path3474" d="m 338.35815,663.10155 c 0.1239,2.25414 -0.54521,4.40829 -1.73767,6.06146 -1.1929,1.65377 -2.89407,2.78645 -4.81005,3.04703 -5e-5,0 -4.6e-4,6e-5 -5e-4,6e-5 -1.91603,0.26037 -3.73505,-0.39387 -5.12377,-1.70235 -1.38816,-1.30795 -2.32692,-3.25328 -2.49742,-5.51001 3e-5,3.8e-4 -1.7e-4,-0.002 -1.4e-4,-0.002 -0.16471,-2.1853 0.42419,-4.39605 1.65255,-6.13897 3e-5,-4e-5 4.2e-4,-6.1e-4 4.5e-4,-6.5e-4 1.22852,-1.74262 2.99101,-2.86636 4.89381,-3.11694 4e-5,0 4.6e-4,-7e-5 5e-4,-7e-5 1.90279,-0.25036 3.77908,0.39427 5.20907,1.78117 1.4e-4,1.4e-4 2.4e-4,2.3e-4 3.8e-4,3.8e-4 1.43032,1.38739 2.29261,3.39785 2.41262,5.58096" style="opacity:0.75;fill:none;fill-opacity:1;fill-rule:nonzero;stroke:#00d300;stroke-width:1.50000012;stroke-linecap:butt;stroke-linejoin:round;stroke-miterlimit:4;stroke-dasharray:none;stroke-dashoffset:0;stroke-opacity:1"/>
      <path id="path3476" d="m 381.44163,575.09854 c -0.0112,1.6477 -0.66797,3.13642 -1.72254,4.2098 -1.05487,1.07369 -2.502,1.72712 -4.08956,1.7225 0,0 -5.2e-4,0 -5.2e-4,0 -1.58742,-0.005 -3.03542,-0.66668 -4.09228,-1.74712 -1.05669,-1.08026 -1.71676,-2.57413 -1.73093,-4.22302 0,9e-5 0,-8.8e-4 0,-8.8e-4 -0.0134,-1.58936 0.5869,-3.12015 1.67702,-4.25103 6.5e-4,-6.7e-4 0,0 6.5e-4,-6.7e-4 1.09031,-1.13074 2.57846,-1.76533 4.13411,-1.75975 0,0 5.3e-4,0 5.3e-4,0 1.55572,0.006 3.04534,0.65125 4.13785,1.78928 -6e-5,-6e-5 3.3e-4,3.5e-4 2.7e-4,2.9e-4 1.09263,1.13825 1.69598,2.67245 1.6855,4.26095" style="opacity:0.75;fill:none;fill-opacity:1;fill-rule:nonzero;stroke:#fcf9fb;stroke-width:1.5;stroke-linecap:butt;stroke-linejoin:round;stroke-miterlimit:4;stroke-dasharray:none;stroke-dashoffset:0;stroke-opacity:1"/>
      <path id="path3478" d="m 402.99763,549.10058 c -0.11509,3.36443 -1.57015,6.33493 -3.81394,8.42272 -2.2451,2.08901 -5.27374,3.29209 -8.55946,3.1616 -1.5e-4,-10e-6 -7e-4,-3e-5 -8.4e-4,-4e-5 -3.2854,-0.13079 -6.26259,-1.57238 -8.42503,-3.83669 -2.16144,-2.26325 -3.50289,-5.346 -3.49368,-8.71539 0,-8.3e-4 0,-0.002 0,-0.002 0.01,-3.24838 1.29934,-6.35008 3.62098,-8.60184 0.002,-0.002 0,0 0.002,-0.002 2.32192,-2.25134 5.47378,-3.45384 8.74954,-3.32292 1.6e-4,0 7.2e-4,2e-5 8.7e-4,3e-5 3.27588,0.13125 6.38081,1.58426 8.61809,4.0177 -1.3e-4,-1.2e-4 6.6e-4,7.4e-4 5.4e-4,6.1e-4 2.23761,2.43405 3.41272,5.6339 3.30173,8.87808" style="opacity:0.75;fill:none;fill-opacity:1;fill-rule:nonzero;stroke:#9dada2;stroke-width:1.5;stroke-linecap:butt;stroke-linejoin:round;stroke-miterlimit:4;stroke-dasharray:none;stroke-dashoffset:0;stroke-opacity:1"/>
      <path id="path3485" d="m 434.68648,521.65058 c -1.30129,-0.78815 -2.46665,-1.76778 -3.45044,-2.89199 -2.24975,-2.57086 -3.54367,-5.89292 -3.33181,-9.36178 l 1.1e-4,-0.002 c 0.20495,-3.34399 1.81211,-6.3985 4.50478,-8.46766 0.002,-0.002 0,1e-5 0.002,-0.002 1.15499,-0.88723 2.46719,-1.56017 3.87506,-2.00072" style="opacity:0.75;fill:none;fill-opacity:1;fill-rule:nonzero;stroke:#610092;stroke-width:1.5;stroke-linecap:butt;stroke-linejoin:round;stroke-miterlimit:4;stroke-dasharray:none;stroke-dashoffset:0;stroke-opacity:1"/>
      <path id="path3489" d="m 383.91694,507.49697 c -0.0352,3.36712 -1.41789,6.39219 -3.61157,8.56681 -2.19472,2.17568 -5.1953,3.49744 -8.48477,3.49572 -1.5e-4,0 -6.9e-4,-10e-6 -8.4e-4,-10e-6 -3.2893,-0.002 -6.30034,-1.32713 -8.51395,-3.5083 -2.21266,-2.18024 -3.62166,-5.21267 -3.68621,-8.58497 -2e-5,-8.3e-4 -4e-5,-0.002 -4e-5,-0.002 -0.0616,-3.25094 1.16025,-6.40443 3.42981,-8.74583 0.002,-0.002 0,0 0.002,-0.002 2.27001,-2.34114 5.39049,-3.6635 8.66378,-3.65698 1.7e-4,0 7.1e-4,0 8.7e-4,0 3.27335,0.007 6.40582,1.34199 8.69584,3.68924 -1.3e-4,-1.4e-4 6.7e-4,7e-4 5.5e-4,5.8e-4 2.29027,2.34775 3.53935,5.50117 3.50537,8.74766" style="opacity:0.75;fill:none;fill-opacity:1;fill-rule:nonzero;stroke:#f30000;stroke-width:1.5;stroke-linecap:butt;stroke-linejoin:round;stroke-miterlimit:4;stroke-dasharray:none;stroke-dashoffset:0;stroke-opacity:1"/>
      <path id="path3491" d="m 404.60115,520.39604 c -0.0755,2.26562 -1.05399,4.26359 -2.57305,5.66207 -1.51961,1.39899 -3.57329,2.19325 -5.8003,2.07771 -10e-5,0 -4.6e-4,-2e-5 -5.6e-4,-2e-5 -2.22675,-0.11572 -4.23694,-1.12075 -5.68625,-2.67343 -1.44901,-1.55236 -2.33089,-3.64684 -2.30033,-5.91458 0,-5.7e-4 1e-5,-8.9e-4 1e-5,-8.9e-4 0.03,-2.18592 0.9207,-4.25408 2.49137,-5.74015 8.9e-4,-8.5e-4 0,0 8.9e-4,-8.5e-4 1.57093,-1.48586 3.68804,-2.26175 5.88043,-2.14812 1.1e-4,10e-6 4.8e-4,3e-5 5.9e-4,3e-5 2.1925,0.11386 4.2693,1.10742 5.76798,2.75279 3.5e-4,3.9e-4 0,0 3.5e-4,3.9e-4 1.49879,1.64564 2.29166,3.80163 2.21892,5.98588" style="opacity:0.75;fill:none;fill-opacity:1;fill-rule:nonzero;stroke:#96f86f;stroke-width:1.5;stroke-linecap:butt;stroke-linejoin:round;stroke-miterlimit:4;stroke-dasharray:none;stroke-dashoffset:0;stroke-opacity:1"/>
      <path id="path3493" d="m 307.55768,497.43604 c 1.3324,-0.79267 2.52334,-1.77804 3.52609,-2.90874 2.29325,-2.58583 3.59592,-5.92646 3.3485,-9.41683 l -1.3e-4,-0.002 c -0.23926,-3.36465 -1.91834,-6.44153 -4.70443,-8.53193 -0.002,-0.002 0,0 -0.002,-0.002 -1.19507,-0.89634 -2.54993,-1.57791 -4.00107,-2.02609" style="opacity:0.75;fill:none;fill-opacity:1;fill-rule:nonzero;stroke:#99b097;stroke-width:1.5;stroke-linecap:butt;stroke-linejoin:round;stroke-miterlimit:4;stroke-dasharray:none;stroke-dashoffset:0;stroke-opacity:1"/>
      <path style="color:#000000;font-style:normal;font-variant:normal;font-weight:normal;font-stretch:normal;font-size:medium;line-height:normal;font-family:sans-serif;text-indent:0;text-align:start;text-decoration:none;text-decoration-line:none;text-decoration-style:solid;text-decoration-color:#000000;letter-spacing:normal;word-spacing:normal;text-transform:none;direction:ltr;block-progression:tb;writing-mode:lr-tb;baseline-shift:baseline;text-anchor:start;white-space:normal;clip-rule:nonzero;display:inline;overflow:visible;visibility:visible;opacity:1;isolation:auto;mix-blend-mode:normal;color-interpolation:sRGB;color-interpolation-filters:linearRGB;solid-color:#000000;solid-opacity:1;fill:#c3c3c3;fill-opacity:1;fill-rule:nonzero;stroke:#656565;stroke-width:2;stroke-linecap:butt;stroke-linejoin:round;stroke-miterlimit:4;stroke-dasharray:none;stroke-dashoffset:0;stroke-opacity:1;color-rendering:auto;image-rendering:auto;shape-rendering:auto;text-rendering:auto;enable-background:accumulate" d="m 439.95746,454.29782 a 1.0001,1.0001 0 0 0 -0.99804,0.94141 c -0.46049,7.74531 -7.84355,15.03085 -19.92579,20.35938 -12.08179,5.32833 -28.69674,8.64009 -46.98437,8.64843 -18.14751,-0.005 -34.66443,-3.26498 -46.73438,-8.52734 -12.06995,-5.26236 -19.53196,-12.47908 -20.17773,-20.16406 a 1.0001,1.0001 0 0 0 -1.98828,-0.0547 c -0.0417,0.29588 -0.0736,0.59208 -0.0977,0.88867 a 1.0001,1.0001 0 0 0 -0.004,0.0801 c -8e-5,4.54802 2.04817,8.84714 5.61328,12.66211 3.56511,3.81496 8.65069,7.18751 14.89062,10.01172 12.47987,5.6484 29.59779,9.10365 48.49805,9.10351 18.89988,-10e-5 36.01466,-3.45512 48.49414,-9.10351 6.23974,-2.8242 11.32564,-6.19681 14.89063,-10.01172 3.56498,-3.81491 5.61335,-8.11418 5.61328,-12.66211 a 1.0001,1.0001 0 0 0 0,-0.0352 c -0.0146,-0.41887 -0.0478,-0.83602 -0.0977,-1.2539 a 1.0001,1.0001 0 0 0 -0.99219,-0.88282 z" id="circle5214"/>
      <g transform="matrix(1.1154031,0,0,0.49841489,132.93636,402.79203)" id="g5220">
        <circle style="opacity:1;fill:#fafafa;fill-opacity:1;fill-rule:nonzero;stroke:#000000;stroke-width:2.01177716;stroke-linecap:butt;stroke-linejoin:round;stroke-miterlimit:4;stroke-dasharray:none;stroke-dashoffset:0;stroke-opacity:1" id="circle5222" cx="214.37172" cy="100.51237" r="61.75"/>
        <path id="path5224" d="m 258.50996,101.2233 c 3.13652,3.31936 3.70259,12.84312 1.81064,17.64152 -1.89333,4.80191 -9.1367,11.6913 -13.70514,11.81142 0,0 -15.90123,-15.16043 -15.90123,-15.16043 -0.0978,-4.56895 6.45185,-0.0536 8.34518,-4.85548 1.89195,-4.7984 -5.82846,-6.83617 -2.52819,-9.99278 0,0 21.97874,0.55575 21.97874,0.55575 m -16.24875,33.44601 c -0.5575,4.53272 -8.10345,11.19476 -13.06519,12.60373 -4.96536,1.41001 -14.40549,0.0347 -17.39108,-3.42516 0,0 1.6658,-21.90666 1.6658,-21.90666 3.47443,-2.96863 4.37503,4.8653 9.34039,3.4553 4.96174,-1.40898 1.32922,-8.54411 5.86524,-8.01411 0,0 13.58484,17.2869 13.58484,17.2869 m -36.36157,8.26592 c -3.88007,2.40855 -13.80013,0.63616 -18.00362,-2.35301 -4.20656,-2.99135 -9.3021,-11.47943 -8.33661,-15.94628 0,0 18.49565,-11.85735 18.49565,-11.85735 4.46207,0.98731 -1.29425,6.14422 2.91231,9.13557 4.20349,2.98917 7.44453,-4.26697 9.87659,-0.40158 0,0 -4.94432,21.42265 -4.94432,21.42265 m -29.07765,-23.07249 c -4.34202,-1.41531 -9.06642,-10.32552 -9.4575,-15.46857 -0.39137,-5.146803 3.14689,-14.705713 7.23864,-16.740973 0,0 20.81096,7.04165 20.81096,7.04165 2.01524,4.10164 -5.73061,2.65903 -5.33925,7.805833 0.39109,5.14305 7.70473,2.98905 6.3158,7.33959 0,0 -19.56865,10.02247 -19.56865,10.02247 m 0,-37.722243 c -1.38893,-4.35053 2.14717,-12.97772 5.88032,-16.53694 3.73588,-3.56183 13.30171,-6.61627 17.49769,-4.8056 0,0 8.05872,20.43867 8.05872,20.43867 -1.83115,4.18707 -6.11838,-2.35052 -10.0199,1.02906 -3.89866,3.37711 2.49384,8.48197 -1.84819,9.89728 0,0 -19.56864,-10.02247 -19.56864,-10.02247 m 29.07764,-23.07249 c 2.43205,-3.86539 12.31001,-6.59615 17.38758,-5.68939 5.08128,0.90742 12.89795,6.19194 14.09935,10.6012 0,0 -10.95129,19.04611 -10.95129,19.04611 -4.41506,1.17984 -1.90952,-6.27702 -6.9908,-7.18444 -5.07758,-0.90676 -4.72044,7.05772 -8.60051,4.64917 0,0 -4.94433,-21.42265 -4.94433,-21.42265 m 36.36158,8.26592 c 4.53602,-0.53 12.57546,5.29084 15.14651,9.76232 2.57292,4.47474 3.49483,14.53764 0.70533,18.15748 0,0 -21.79466,2.76946 -21.79466,2.76946 -3.60615,-2.80715 3.98922,-4.94886 1.4163,-9.4236 -2.57105,-4.47147 -8.50081,0.55397 -9.05831,-3.97876 0,0 13.58483,-17.2869 13.58483,-17.2869" style="fill:#ffffff;fill-opacity:1;fill-rule:evenodd;stroke:#dfdfdf;stroke-width:2.68236947"/>
      </g>
      <ellipse ry="3.3947771" rx="5.55509" cy="453.07565" cx="373.75525" id="path5620" style="opacity:1;fill:#6d6d6d;fill-opacity:1;fill-rule:nonzero;stroke:#656565;stroke-width:1;stroke-linecap:butt;stroke-linejoin:round;stroke-miterlimit:4;stroke-dasharray:none;stroke-dashoffset:0;stroke-opacity:1"/>
      <g transform="translate(86.742262,351.55969)" id="g5639">
        <path style="opacity:1;fill:#ffffff;fill-opacity:1;fill-rule:nonzero;stroke:#656565;stroke-width:1;stroke-linecap:butt;stroke-linejoin:round;stroke-miterlimit:4;stroke-dasharray:none;stroke-dashoffset:0;stroke-opacity:1" d="m 291.37411,103.06559 20.26578,-129.375833 -8.89157,-1.3928 0,0 -20.30922,129.653083" id="path5637"/>
        <path style="fill:none;fill-rule:evenodd;stroke:#f30000;stroke-width:0.99999994px;stroke-linecap:butt;stroke-linejoin:miter;stroke-opacity:1" d="m 284.32253,94.103748 c 2.02106,3.574494 4.68763,3.027986 7.99976,-1.639524" id="path5579"/>
        <path style="fill:none;fill-rule:evenodd;stroke:#f30000;stroke-width:0.99999994px;stroke-linecap:butt;stroke-linejoin:miter;stroke-opacity:1" d="m 286.32449,81.323324 c 2.02106,3.574493 4.68763,3.027986 7.99976,-1.639524" id="path5577"/>
        <path style="fill:none;fill-rule:evenodd;stroke:#f30000;stroke-width:0.99999994px;stroke-linecap:butt;stroke-linejoin:miter;stroke-opacity:1" d="m 288.32645,68.5429 c 2.02106,3.574493 4.68763,3.027986 7.99976,-1.639515" id="path5575"/>
        <path style="fill:none;fill-rule:evenodd;stroke:#f30000;stroke-width:0.99999994px;stroke-linecap:butt;stroke-linejoin:miter;stroke-opacity:1" d="m 290.32841,55.762485 c 2.02106,3.574494 4.68763,3.027987 7.99976,-1.639524" id="path5573"/>
        <path style="fill:none;fill-rule:evenodd;stroke:#f30000;stroke-width:0.99999994px;stroke-linecap:butt;stroke-linejoin:miter;stroke-opacity:1" d="m 292.33037,42.982061 c 2.02106,3.574494 4.68763,3.027987 7.99976,-1.639524" id="path5571"/>
        <path style="fill:none;fill-rule:evenodd;stroke:#f30000;stroke-width:0.99999994px;stroke-linecap:butt;stroke-linejoin:miter;stroke-opacity:1" d="m 294.33233,30.201637 c 2.02106,3.574494 4.68763,3.027987 7.99975,-1.639514" id="path5569"/>
        <path style="fill:none;fill-rule:evenodd;stroke:#f30000;stroke-width:0.99999994px;stroke-linecap:butt;stroke-linejoin:miter;stroke-opacity:1" d="m 296.33428,17.421223 c 2.02107,3.574494 4.68764,3.027977 7.99976,-1.639524" id="path5567"/>
        <path style="fill:none;fill-rule:evenodd;stroke:#f30000;stroke-width:0.99999994px;stroke-linecap:butt;stroke-linejoin:miter;stroke-opacity:1" d="m 298.33624,4.6407996 c 2.02107,3.5744938 4.68764,3.0279865 7.99976,-1.6395242" id="path5565"/>
        <path style="fill:none;fill-rule:evenodd;stroke:#f30000;stroke-width:0.99999994px;stroke-linecap:butt;stroke-linejoin:miter;stroke-opacity:1" d="m 300.3382,-8.1396244 c 2.02107,3.5744938 4.68764,3.0279864 7.99976,-1.6395142" id="path5563"/>
        <path style="fill:none;fill-rule:evenodd;stroke:#f30000;stroke-width:0.99999994px;stroke-linecap:butt;stroke-linejoin:miter;stroke-opacity:1" d="m 302.34016,-20.920049 c 2.02107,3.574504 4.68764,3.027987 7.99976,-1.639514" id="path6030"/>
        <ellipse style="opacity:1;fill:#ffffff;fill-opacity:1;fill-rule:nonzero;stroke:#656565;stroke-width:0.99999994;stroke-linecap:butt;stroke-linejoin:round;stroke-miterlimit:4;stroke-dasharray:none;stroke-dashoffset:0;stroke-opacity:1" id="path5551" cx="299.31299" cy="-73.294716" rx="4.5" ry="2.7775447" transform="matrix(0.98795279,0.15475558,-0.15475558,0.98795279,0,0)"/>
      </g>
    </g>
  </g>
</svg>
