<?xml version="1.0" encoding="UTF-8"?>
<svg id="a" data-name="svg2" xmlns="http://www.w3.org/2000/svg" width="1024" height="1024" xmlns:xlink="http://www.w3.org/1999/xlink" viewBox="0 0 1024 1024">
  <defs>
    <clipPath id="y">
      <path d="m459.84,353.76c0,8.08-6.55,14.63-14.63,14.63s-14.63-6.55-14.63-14.63,6.55-14.63,14.63-14.63,14.63,6.55,14.63,14.63Z" style="fill: none;"/>
    </clipPath>
    <clipPath id="aj">
      <path d="m637.48,349.5c0,8.08,6.55,14.63,14.63,14.63s14.63-6.55,14.63-14.63-6.55-14.63-14.63-14.63-14.63,6.55-14.63,14.63Z" style="fill: none;"/>
    </clipPath>
  </defs>
  <g id="b" data-name="layer4">
    <path id="c" data-name="path2991" d="m299.71,587.74l8.77,67.03.31,22.83,105.47,44.88,25.64,9.37,2.78,17.26,34.52,18.37,14.48,10.58-3.9,46.77-6.12,10.58-10.02,3.9s30.06,17.82,69.03,22.27c38.97,4.45,61.24,2.23,61.24,2.23l9.46-11.13,5.01-26.17,34.15-47.48,17.07-120.66c-35.59,28.14-17.48,11.78-38.12,17.49-5.96,1.65-33.92,16.38-54.84,24.95-9.42,3.86-10.08,5.57-15.22,7.9-8.88-5.19-13.22-11.68-31.06-11.39-13.21.22-39.85-6.3-51.77-15.64-13.49-10.57-12.31,6.63-49.52-18.55-14.47-9.79-28.56-11.54-42.41-19.74-29.84-17.65-67.94-37.15-83.81-55.64h-1.14Z" style="fill: #d77c65;"/>
  </g>
  <g id="d" data-name="layer10">
    <path id="e" data-name="path4088" d="m663.27,662.53l-135.53,195.89-58.08-18.22,11.39-4.56,5.08-9.92,5.17-48.17-41-26.19h-10.25l-2.28-17.08-127.55-56.94-9.97-84.08,155.48,87.67,72.81,21.01,24.15,3.26,17.98,2.75,92.61-45.42Z" style="fill: #5a2326;"/>
  </g>
  <g id="f" data-name="layer1">
    <path id="g" data-name="path3007" d="m300.97,494.73l3.89,96.76c-20.44,18.61,145.01,90.39,218.79,112.35l47.54,4.42,67.3-27.61c35-24.59,68.85-60.71,80.53-101.24l4.6-28.76,14.96-131.15c10.21-37.52,4.91-72.47-2.88-106.99l-10.35-36.24-14.08-40.6c-27.55-37.38-61.71-79.06-87.73-65.81-16.38,19.04-40.4,36.56-47.17,57.52-28.35-.35-52.98,3.01-79.38,4.6-18.22-5.55-50,2.45-75.93,4.6-38.6,9.21-53.15,27.43-75.93,42.57l-42.57,59.82c-8.98,34.69-13.72,50-15.56,65.83-2.28,19.6,5.92,37.13,13.97,89.92h0Z" style="fill: #d77c65; stroke: #000;"/>
  </g>
  <g id="h" data-name="layer2">
    <path id="i" data-name="path3010" d="m277.25,431.01l-32.21-46.02-20.71,19.56-3.45,6.9,1.15-78.23c-11.14-44.87-1.41-114.24,20.71-164.51,20.89-40.1,47.15-64.8,78.23-96.64,43.94-46.76,94.37-47.49,162.21-50.62,82.56,11.47,153.06,7.69,222.03,128.85l26.46,12.65c55.71,46.26,65.69,79.21,59.82,147.26l-18.41,94.34-33.36,28.76v-78.23l-3.45-46.02-24.16-72.48-20.46-28.95c-7.4,8.26-1.47,15.22-84.25,25.51l5.78-44.27c-10.08-9.66,10.35-82.38,28.62-20.26l-56.86,46.11-8.58,11.5-23.95,4.07-131.32,24.97,87.56-41.74-134.77,59.14,70.18-54.49-98.44,73.96c-8.26,6.44,43.52-80.36,42.91-69.59-.94,16.59-49.15,62.3-69.13,94.98-27.28,44.64-35.08,72.17-31.8,116.93l-10.35-3.45Z" style="stroke: #000;"/>
    <path id="j" data-name="path3012" d="m277.24,551.12c7.48,13.04,13.86,27.05,27.49,44.19l-3.32-50.41c-2.28,9.48-8.89,8.66-24.17,6.22h0Z" style="stroke: #000;"/>
  </g>
  <g id="k" data-name="layer3">
    <path id="l" data-name="path3782" d="m735.32,432.1l28.19-21.28-9.01,30.95-4.9,9.46-.48,13.67-.58,36.81-1.59,16.15-2.78,22.77-6.43,14.48-15.1,2.4,12.65-125.4Z" style="fill: #d77c65; stroke: #000;"/>
    <path id="m" data-name="path3784" d="m248.29,392.64l-3.25-9.44-16.27,16.76-.81,17.08,5.69,34.17v28.47l7.32,25.22,17.9,29.29,16.27,16.27,21.15,1.63,7.32-10.58-4.07-52.06-9.76-56.94-14.64-4.07-26.84-35.79Z" style="fill: #d77c65; stroke: #000;"/>
  </g>
  <g id="n" data-name="layer5">
    <path id="o" data-name="path2996" d="m261.54,660.88l47.63,5.12-46.85-6.69-5.51,4.33-32.67,100.39-15.75.39-59.84,41.34-64.68,31.59-88.24,59.01,1.67,127.31,1030.79.28.28-57.44-25.61-32.57-109.39-64.41-133.06-61.41-19.29-3.94v-19.68l-28.6-53.21-18.09-15.31-31.92-19.44-13.11,81.66-28.74,41.34-4.04,6-5.22,27.16-9.95,12.21-70.15-5.01-57.6-20.34,9.72-6.38,5.57-10.58,2.78-46.77-41.2-24.5-8.35-1.11-2.23-17.26-130.28-56.79v-11.69l-48.09-3.6Z" style="fill: #ff2a2a; stroke: #000;"/>
    <path id="p" data-name="path2998" d="m591.33,959.55l10.02-92.97-70.8-5.8-57.41-20.71s6.84,69.94,9.07,68.83c2.23-1.11,51.22,42.31,51.22,42.31l74.37,74.37" style="fill: #fff; stroke: #000;"/>
  </g>
  <g id="q" data-name="layer7">
    <g id="r" data-name="g3814">
      <path id="s" data-name="path3799" d="m338.97,436.19c2.85-4.27,17.37-25.34,22.49-26.48,5.12-1.14,26.76-10.53,26.76-10.53l18.79-16.23,23.35,3.99,25.91-2.85s20.5-4.84,22.21-5.41,12.53-1.42,12.53-1.42" style="fill: none; stroke: #000;"/>
      <path id="t" data-name="path3801" d="m339.25,412.28l31.03-26.48,27.05-9.11" style="fill: none; stroke: #000;"/>
      <path id="u" data-name="path3803" d="m332.42,382.38c2.85-.85,32.74-10.82,32.74-10.82,0,0,26.29-.18,26.29-1.32s26.86-24.64,26.86-24.64l14.89-5.65" style="fill: none; stroke: #000;"/>
      <path id="v" data-name="path3805" d="m397.47,360.31c8.8-8.02,5.89-19.42,30.42-25.48,15.1-4.64,19.18-.84,24.53-1.57l31.32,15.37" style="fill: none; stroke: #000;"/>
      <path id="w" data-name="path3807" d="m405.31,361.03l27.05-11.96s4.56-3.13,6.83-2.85c2.28.28,7.4-.57,7.4-.57l21.35,5.98,18.79,8.54-4.84,2.85-25.62-1.71-21.92.28-29.04-.57Z" style="fill: none; stroke: #000;"/>
      <path id="x" data-name="path3793" d="m485.78,360.64c-6.31,3.27-21.88-.43-36.12.68-20.17,1.57-45.73.66-44.21-.49,12.63-5.41,28.46-13.17,36.56-14.32,5.33-1.08,27.34,5.09,43.76,14.13h0Z" style="fill: #fff; stroke: #000;"/>
      <g style="clip-path: url(#y); fill: none;">
        <path id="z" data-name="path3779" d="m486.35,360.64c-6.31,3.27-21.88-.43-36.12.68-20.17,1.57-45.73.66-44.21-.49,12.6-5.44,26.75-14.2,35.56-14.42,5.33-1.08,28.35,5.19,44.77,14.23h0Z"/>
      </g>
    </g>
    <g id="aa" data-name="g3823">
      <g id="ab" data-name="g3839">
        <path id="ac" data-name="path3825" d="m711.79,393.98c-3.73-.96-19.5-8.92-19.5-8.92l-13.69-13.75-17.01,3.38-18.88-2.41s-14.94-4.1-16.18-4.58c-1.24-.48-9.13-1.21-9.13-1.21" style="fill: none; stroke: #000; stroke-width: .92px;"/>
        <path id="ad" data-name="path3827" d="m723.45,388.79l-18.09-15.07-19.71-7.72" style="fill: none; stroke: #000; stroke-width: .92px;"/>
        <path id="ae" data-name="path3829" d="m734.41,366.73c-25-3.12-9.55-9.11-32.3-5-.82.16-23.23-24.84-23.23-24.84l-8.51-4.1" style="fill: none; stroke: #000; stroke-width: .92px;"/>
        <path id="af" data-name="path3831" d="m687.31,350.09l-25.1-19.54-14.94-3.38-22.82,13.02" style="fill: none; stroke: #000; stroke-width: .92px;"/>
      </g>
      <g id="ag" data-name="g3845">
        <path id="ah" data-name="path3833" d="m691.15,356.76l-27.05-11.96s-4.56-3.13-6.83-2.85c-2.28.28-7.4-.57-7.4-.57l-21.35,5.98-18.79,8.54,4.84,2.85,25.62-1.71,21.92.28,29.04-.57Z" style="fill: none; stroke: #000;"/>
        <path id="ai" data-name="path3835" d="m611.53,356.37c6.31,3.27,21.88-.43,36.12.68,20.17,1.57,45.73.66,44.21-.49-12.63-5.41-28.46-13.17-36.56-14.32-5.33-1.08-27.34,5.09-43.76,14.13h0Z" style="fill: #fff; stroke: #000;"/>
        <g style="clip-path: url(#aj); fill: none;">
          <path id="ak" data-name="path3837" d="m610.96,356.37c6.31,3.27,21.88-.43,36.12.68,20.17,1.57,45.73.66,44.21-.49-12.6-5.44-26.75-14.2-35.56-14.42-5.33-1.08-28.35,5.19-44.77,14.23h0Z" style="stroke: #000;"/>
        </g>
      </g>
    </g>
    <path id="al" data-name="path3850" d="m368.06,318.6l64.92-27.33,56.94,1.14-2.28,22.78-52.39-9.11-52.39,29.61-14.81-17.08Z" style="stroke: #000;"/>
    <path id="am" data-name="path3852" d="m723.56,307.5l-54.67-20.5-56.94,1.14,2.28,22.78,52.39-9.11,45.55,27.33,11.39-21.64Z" style="stroke: #000;"/>
    <path id="an" data-name="path4157" d="m245.26,467.54l17.72,39.83,12.88-32.9s9.66-22.51,1.61-25.97-30.6-32.9-30.6-32.9l-1.61,51.95Z" style="fill: none; stroke: #000; stroke-width: 1.04px;"/>
    <path id="ao" data-name="path4159" d="m283.91,488.07l-16.11,28.99,11.27,6.44,8.05-17.72-3.22-17.72Z" style="fill: none; stroke: #000;"/>
    <path id="ap" data-name="path4161" d="m739.09,442.49c0,8.66-11.45,79.85-1.83,52.42,9.61-27.43,9.05-36.54,9.05-36.54l-1.2-18.77-6.01,2.89Z" style="fill: none; stroke: #000; stroke-width: .82px;"/>
  </g>
  <g id="aq" data-name="layer8">
    <path id="ar" data-name="path4029" d="m500.82,439.34l-11.58,13.28.05,16.69,11.82,11.19,29.13-3.35,17.17,9.94,10.12,4.93,9.92-2.85s18.52-12.35,20.43-12.77,14.98-.39,14.98-.39l16.22-11.92-1.57-16.28-11.1-13.07h0" style="fill: #1a1a1a; stroke: #000; stroke-width: .94px;"/>
    <path id="as" data-name="path4025" d="m503.63,429.02l-12.11,14.41.07,18.12,12.4,12.17,30.52-3.61,18,10.81,10.61,5.37,10.39-3.09s19.39-13.39,21.39-13.84,15.7-.41,15.7-.41l16.99-12.93-1.66-17.68-11.64-14.2h0" style="fill: #d77c65; stroke: #000;"/>
  </g>
  <g id="at" data-name="layer9">
    <g id="au" data-name="g4044">
      <g id="av" data-name="g4040">
        <path id="aw" data-name="path4034" d="m461.42,569.32c2.16-.54,39.36-12.4,39.36-12.4,23.37-7.46,39.02-4.15,62.55,1.08,7.9-6.21,21.85-7.38,29.32-5.91,7.24,1.42,7.98,5.35,17.59,7.53l16.72,15.1-7.01,9.17c-9.33,37.33-33.04,35.95-54.46,37.21-39.75-.08-53.31-11.78-87.89-30.2l-16.18-21.57Z" style="fill: #c66472; stroke: #000; stroke-miterlimit: 3.79; stroke-width: .95px;"/>
        <path id="ax" data-name="path4036" d="m499.7,573.09l18.33-4.31,19.95.54,19.41,4.85,15.1-.54,17.79-6.47,12.11,4.66,11.79,3.14,11.25-.34-3.69,6.73-15.28,11.16-49.07,3.24-31.27-5.93-29.12-1.62-21.03-5.39-9.98-8.36c11.05-2.36,22.47-1.35,33.7-1.35h0Z" style="stroke: #000; stroke-miterlimit: 3.79; stroke-width: .95px;"/>
      </g>
      <path id="ay" data-name="path4038" d="m510.56,570.14c.76,3.97,1.52,15.88,1.52,15.88l-.38-.08-1.03-15.54,1.41,15.87,13.12-.66.26-14.78-.06,15.6,12.11.88-.43-16.94,1.78,16.81,13.73,1.23,1.15-15.44,2.24,14.96,10.29-.06-1.38-13.62,1.11,13.23c9.59-.26,5.4.73,15.65-.76l-4.64-14.18,5.32,14.36,7.82-1.67-.44-17.54,1.29,17.39c1.62.14-17.1,2.9-.16-.29l-1.06-15.49.6-1.37-16.81,4.86-16.04,1.09-20.98-4.75c-3.47.26-7.37.61-11.63.05-6.25-.82-8.69-.3-14.81,1.15l.45-.18Z" style="fill: #fff; stroke: #000; stroke-miterlimit: 3.79; stroke-width: .88px;"/>
      <path id="az" data-name="path4116" d="m446.11,558.21l2.28,35.31h0" style="fill: none; stroke: #000;"/>
      <path id="ba" data-name="path4118" d="m641.99,558.21l-6.83,41" style="fill: none; stroke: #000;"/>
      <path id="bb" data-name="path4124" d="m415.36,570.73l6.83,54.67,84.28,33.03" style="fill: none; stroke: #000; stroke-miterlimit: 3.79; stroke-width: 1px;"/>
      <path id="bc" data-name="path4126" d="m595.41,654.07l79.72-61.5v-37.58" style="fill: none; stroke: #000; stroke-miterlimit: 3.79; stroke-width: 1px;"/>
    </g>
    <path id="bd" data-name="path4054" d="m506.86,426.61c-15.8,14.2-14.14,10.6-16.77,21.86-7.61,32.58-16.1,45.98-51.06,62.12l-38.3,16.94" style="fill: none; stroke: #000;"/>
    <path id="be" data-name="path4056" d="m614.19,425.55c16.51,13.36,9.56,10.56,12.77,21.67,9.28,32.15,6.83,36.27,42.58,50.59l35.14,15.04" style="fill: none; stroke: #000;"/>
  </g>
  <g id="bf" data-name="layer11">
    <path id="bg" data-name="path4128" d="m223.41,757.29l260.92,144.95h0" style="fill: none; stroke: #000;"/>
    <path id="bh" data-name="path4149" d="m609.96,846.71l129.82-48.78h0" style="fill: none; stroke: #000; stroke-width: .84px;"/>
    <path id="bi" data-name="path4151" d="m657.94,957.34l19.36,55.03" style="fill: none; stroke: #000;"/>
    <path id="bj" data-name="path4153" d="m563.62,990.34c14.79,14.14,23.78,28.73,20.09,32.59s-28.67-14.48-43.45-28.62-13.78-18.73-10.09-22.59c3.69-3.86,18.67,4.48,33.45,18.62Z" style="fill: #fff; stroke: #000; stroke-miterlimit: 4; stroke-width: 1px;"/>
    <path id="bk" data-name="path4155" d="m609.16,992.57c6.15,19.13,12.7,31.87,14.61,28.44s-1.52-21.72-7.67-40.85c-6.15-19.13-12.7-31.87-14.61-28.44-1.92,3.43,1.52,21.72,7.67,40.85Z" style="fill: #fff; stroke: #000;"/>
  </g>
</svg>