<?xml version="1.0"?>
<svg xmlns:rdf="http://www.w3.org/1999/02/22-rdf-syntax-ns#" xmlns="http://www.w3.org/2000/svg" xmlns:cc="http://creativecommons.org/ns#" xmlns:dc="http://purl.org/dc/elements/1.1/" xmlns:svg="http://www.w3.org/2000/svg" id="svg2959" viewBox="0 0 500.57 286.04" version="1.0">
  <g id="layer1" transform="translate(-124.72 -389.34)">
    <g id="g2965" transform="matrix(1.5288 0 0 1.5288 -66.173 207.7)">
      <g id="g8810">
        <path id="path8808" fill-rule="evenodd" fill="#fff" d="m171.22 120.5c6.1-0.21 14.73 0.96 20.2 3.78 0 0 125.43 60.19 153.04 73.49 2.7-0.17 6.16-0.24 8.86-0.41 2.05 0.51 3.11-2.02 4.18-2.19 4.04-0.84 18.38-1.78 29.39 4.12 2.02 1.18 3.66 2.39 5.18 3.57 7.62 10.14 4.08 9.39 6.44 14.11l-3.54 13.13 36.11 19.19c17.72 10.1 26.1 18.69 14.14 33.34l-52.02-49.75-17.68 16.16c-11.44 1.43-14.81-6.74-22.22-10.1l-23.23 17.42c-43.09-9.07-109.42 15.2-164.12 22.8l-26.3-23.05c-2.54-3.68-1.26-5.4 1.92-8.58s8.27-7.83 9.95-9.35c0.48-1.76 16.67 10.94 25 16.41 26.69-10.69 53.25-24.28 80.82-38.13l-87.89-80.05-38.13 13.25c6.9-9.72 21.13-18.68 30.05-27.52l9.85-1.64z"/>
        <g id="g8805" transform="translate(99.86 90.913)">
          <path id="path8578" d="m48.391 40.681c-6.905 6.478-14.329 13.194-16.601 15.139-6.789 5.813-1.877 10.359 22.531 20.719 20.26 8.599 85.929 42.051 97.839 48.101 4.58 2.33-68.673 37.24-75.026 36.99-3.333-0.13-17.523-12.02-24.938-14.53 7.179 6.31 13.11 9.38 24.719 18.38 16.125-7.2 32.495-14.78 48.375-22.51 30.25-16.56 36.49-19.1 29.12-5.99-7.56 13.19-9.88 22.5-14.67 32.92-22.09 6.82-68.918 17.97-73.253 17.77 0.125-0.21 3.709-7.65 8.053-1.88 1.264-3.43 4.748-14.67 4.719-15.63-0.001 0-0.001-0.02 0-0.03h-0.032c-0.016 0-23.905-1.53-35-2.22-8.13-6.87-8.283-5.39 7.5-20.68v-0.03h-0.031c-0.902 0.26-12.999 10.2-14.187 14.21-0.008 0.03-0.026 0.07-0.032 0.1-0.197 1.13 1.387 3.43 3.907 6.25-1.631-0.1-2.698-0.16-2.75-0.16-12.239 0.2-18.759 13.45-8.688 14.25 7.695 0.61 21.641 1.23 28.156 1.56 4.767 3.98 10.003 8.79 11.059 9.14 0.026 0.01 122.66-22.91 125.67-23.97 3-1.06 11.49 0 20.91-0.52l13.83-0.21 7.16 9.53c11.3 12.23 8.65 12.57 15.62 0.82 3.52-5.93 1.95-5.86 16.65 1.53 4.75 2.38 10.29 4.89 15.03 7.27-3.91 4.31-8.63 6.32-19.37 3.35 0 0.01-0.07 0.37-0.15 0.41-0.06 0.03-0.84-0.23-0.9-0.21-0.06 0.01-0.69 0.26-0.15 0.37 8.29 2.71 14.38 3.66 21.73-3.17 18.03 9.41 40.66 21.41 41.96 21.96 0.01 0.01 19.59-16.38 22.42-21.94 7.23-14.21 0.19-17.99-15.1-28.38-5.07-3.58-12.45-8.67-17.34-11.55 6.84-19.73 1.83-56.351-17.28-72.801-8.43-7.008-21.41-11.389-30.78-11.312-4.58 0.037-25.23 1.155-39.34 26.468 0.01 0 1.57 1.867 1.72 1.469 4.57-12.752 29.06-33.666 52.28-22.949 11.55 5.328 11.12 1.468-1.44 26.168-3.84 7.547-3.13 9.967-10.94 6.877-5.6-1.07-12.32-0.27-15.06 3.53 0 0.01 1.63 1.45 2.59 3.72-3.53 6.52-2.62 6.28-13.24 9.97-4.49 1.56-7.63 3.23-7.66 3.22-0.01-0.01-0.57-1.7-0.57-3.69 0-2.6 3.02-5.57 8.19-8.06l8.19-3.94-10.63-3.06c-7.09-2.04-11.01-4.463-11.75-7.286-0.78-2.984-4.01-1.145-6.92-0.221-2.75 0.872-25.8-11.445-70.27-33.334-64.576-31.784-66.411-32.902-79.555-33.882-11.24-0.346-15.861 2.185-26.274 11.954zm38.93-8.265c7.403 2.341 66.169 31.889 66.449 32.031-1.6 0.382-31.33-13.431-42.08-18.656-10.91 0.472-9.4-0.997-8.24-3.721-9.677 4.535-7.336 2.406-5.598-2.093-13.099 13.008-5.908 0.955-5.093-1.282-18.437 15.252-9.751 2.82-6.469-2.718-22.845 20.201-9.475 2.986-7.219-1.657-28.43 22.597-13.173 5.71-9.687-0.218 1.86-3.164 5.904-5.491 17.937-1.686zm-24.039-0.744c0 0.604-17.044 18.829-20.108 20.849-1.351 0.891-10.623 6.269-10.103 5.055 0.823-1.92 30.211-26.597 30.211-25.904zm32.194-3.773v0.031h-0.032c0.001 0.007 0.001 0.03 0 0.031 0.007 0.007 0.029 0.029 0.032 0.031 1.756 1.485 117.82 56.919 123.43 59.842 11.26 5.858 2.46-2.526 2.45-2.529-2.51-1.84-103.79-47.129-109.7-50.125-5.67-2.877-15.106-7.311-16.122-7.281h-0.062zm214.4 60.234c11.97 23.627 8.41 49.947 6.28 58.897-8.37-4.89-9.15-4.76-17.82-10.88 6.22-10.09-3.95-24.36-7.07-24.7-0.24 0.2-0.18 0.1-0.21 0.52 0.96 0.62 9.07 8.29 5.31 16.97-0.73 1.1-3.44-8.63-16.52-7.43-11.72 1.07-13.02-0.51-13.65-4.94-0.31-2.12-3.83-9.05-1.13-11.17 7.03-2.46 12.68-1.31 10.03 6.01-1.51 4.19-1.54 7.25 0.19 7.54 1.72 0.29 5.44-2.11 12.12-8.6 3.46-3.35 19.74-19.967 21.6-21.841-0.71-1.515-3.8-6.395-6.93-8.597-1.65-1.771-5.23-4.921 0.68-0.558 1.38 1.475 1.98 2.011 7.12 8.779zm-234.38 2.797c5.14 4.229 58.78 32.64 62.51 34.87 2.81 1.94-33.95 19.34-37.66 24.15 5.83-2.31 42.95-21.57 44.84-23.54-14.71-7.9-54.983-28.494-69.69-35.48zm148.21 22.95c-1.38 5.67-3.32 14.95-2.55 16.5 0.31 0.61 0.83-4.5 3.18-14.16 1.11-4.56 7.48-6.09 9.76-2.4 0.72 1.17-0.32 4.62-2.31 7.66-4.24 6.47-1.79 22.16 2.44 27.43 6.59 8.22 5.33 5.42-1.63 12.75-3.04 3.21-4.11 2.14-8.31-11.87-2.55-8.5-2.07-10.42-3.53-17.78-1.83 3.64 3.54 22.45 3.54 22.45-10.69 2.09-21.85 2.62-30.1 2.77-8.26 0.14-14.72 2.85-20.13 3.59-3.44 0.47-30.44 8.65-5.47-2 4.49-1.91 7.87-9.28 15.29-5.98 2.24-2.92 4.37-12.35 7.52-20.89 4.53-12.28 5.99-13.23 12.94-15.82 13.63-5.07 17.7-7.98 19.36-2.25zm12.89 11.69c-0.14 0.51-3.44 9.3 2 18.56 3.5 9.56-1.83 4.29-4.19-1.65-1.63-4.12-2.59-10.84-0.93-17.82 0.2-0.13 2.55 0.15 3.12 0.91zm50.89-0.86c0.9 0.99-9.96 0.18-14.95 5.45-2.68 2.84-3.62-3.34-2.56-4.15 3.6-2.77 14.58-4.53 17.51-1.3zm-30.73 15.24c1.41 2.79 2.74 2.65 5.56 0.31 2.86-2.37 3.65-2.21 4.84 0.9 1.44 3.73 7 3.69 16.85-0.12 8.1-4.28 8.67-6.67 3.25 3.44-2.86 5.32-8.39 11.34-9.94 7.09-1.01-2.78-4.84-6.05-7.16-0.56-0.99 1.2-8.34 10.16-3.62-0.94 1.36-3.2 2.86-5 2.25-5.59-1.28-1.84-4.44 0.6-6.94 1.75-3.55 1.63-5.43-2.32-6.53-5.03-0.83-2.04-2.13-5.18-1.53-5.66 0.19-0.15 1.78 2.05 2.97 4.41zm-6 2.4c1.01 0.01 2.37 0.99 2.37 2.19 0 0.01-9.83 9.01-11.22 9.22h-0.03l-0.03 0.03c-1.2 0-2.54-1.04-2.19-2.19 0.38-1.22 10.25-9.25 11.1-9.25zm90.74 25.2c5.44 4.42 13.6 9.22 5.53 20.81 0.33-3.88 3.19-8.08-1.31-12.9-4.87-5.24-4.53-5-11.12-11.04-2.29-2.08-9.54-10.25 6.9 3.13zm-315.66 39.55c11.953-2.97 70.992-14.65 169.45-36.72-9.77 1.83-175.22 34.98-169.45 36.72zm260.61-15.7c16.66 12.3 30.45 16.66 41.13 23.6 6.94-6.57 12.98-12.49 17.71-18.62-4.35 3.56-10.02 10.55-17.79 15.74-2.33-1.03-37.46-18.56-41.05-20.72z"/>
        </g>
      </g>
    </g>
  </g>
  <metadata>
    <rdf:RDF>
      <cc:Work>
        <dc:format>image/svg+xml</dc:format>
        <dc:type rdf:resource="http://purl.org/dc/dcmitype/StillImage"/>
        <cc:license rdf:resource="http://creativecommons.org/licenses/publicdomain/"/>
        <dc:publisher>
          <cc:Agent rdf:about="http://openclipart.org/">
            <dc:title>Openclipart</dc:title>
          </cc:Agent>
        </dc:publisher>
        <dc:title>High Wing Airplane</dc:title>
        <dc:date>2008-09-26T07:43:15</dc:date>
        <dc:description>A high wing monoplane in flight, stylized black &amp; white only.&#xD;\n&#xD;\nRedrawn in SVG from a tiny bitmap image I found several years ago on the American FAA website.</dc:description>
        <dc:source>http://openclipart.org/detail/19437/high-wing-airplane-by-wirelizard</dc:source>
        <dc:creator>
          <cc:Agent>
            <dc:title>wirelizard</dc:title>
          </cc:Agent>
        </dc:creator>
        <dc:subject>
          <rdf:Bag>
            <rdf:li>aeroplane</rdf:li>
            <rdf:li>aircraft</rdf:li>
            <rdf:li>airplane</rdf:li>
            <rdf:li>clip art</rdf:li>
            <rdf:li>clipart</rdf:li>
            <rdf:li>flight</rdf:li>
            <rdf:li>image</rdf:li>
            <rdf:li>media</rdf:li>
            <rdf:li>plane</rdf:li>
            <rdf:li>png</rdf:li>
            <rdf:li>public domain</rdf:li>
            <rdf:li>silhouette</rdf:li>
            <rdf:li>stencil</rdf:li>
            <rdf:li>stylized</rdf:li>
            <rdf:li>svg</rdf:li>
            <rdf:li>transportation</rdf:li>
          </rdf:Bag>
        </dc:subject>
      </cc:Work>
      <cc:License rdf:about="http://creativecommons.org/licenses/publicdomain/">
        <cc:permits rdf:resource="http://creativecommons.org/ns#Reproduction"/>
        <cc:permits rdf:resource="http://creativecommons.org/ns#Distribution"/>
        <cc:permits rdf:resource="http://creativecommons.org/ns#DerivativeWorks"/>
      </cc:License>
    </rdf:RDF>
  </metadata>
</svg>
