<?xml version="1.0" encoding="UTF-8"?>
<svg id="a" data-name="svg4217" xmlns="http://www.w3.org/2000/svg" width="1024" height="1024" viewBox="0 0 1024 1024">
  <g id="b" data-name="layer1">
    <g id="c" data-name="g4200">
      <path id="d" data-name="path5" d="m917.84,511.71c0,225.68-181.87,408.27-406.35,408.27S105.07,737.37,105.07,511.71,287.07,103.69,511.5,103.69c224.46,0,406.35,182.69,406.35,408.02Z" style="fill: #9d9dff; stroke: #57ab2b; stroke-miterlimit: 9.59; stroke-width: 2.4px;"/>
      <path id="e" data-name="path12" d="m546.16,103.99c-5.14-.09-10.23.03-15.22.41h-.02l-7.12,13.26-1.35,17.34,12.26,3.77,2.35-11.28,6.11-6.08,41.8,18.72,12.27,6.11,33.3-2.7,9.82-9.53,48.01,23.12h25.8s-90.84-51.72-168-53.14h0Zm-71.55,2.56c-101.51.03-205.37,75.41-205.38,75.41h22.09l21.11,3.79,4.73-5.13,2.36-6.13,3.77-5.1,6.09-6.13,6.11-1.02h5.13l3.76-2.35c3.61-2.74,15.99-6.52,15.99-6.52l41.73-3.34,9.78-11.25s19.46,0,19.46,3.71,5.15,4.79,2.8,10.87c-2.8,6.54,14.57-13.21,14.57-13.21l11.21-21.13,18.38-1.34,6.13-10.89c-3.27-.16-6.54-.24-9.82-.23h0Zm154.52,79.19l1.42,16.96-10.9,12.27-3.69,8.87,30.56-1.38-3.75-12.29-3.75-8.82-2.35-13.27-7.54-2.34h0Zm52.39,1l-10.85,11.23,5.39,12.92h9.16l1.69,17.54-15.43-9.19-10.37,18.39-4.61-1.7h-6.26s-1.73-2.06-3.74-1.24c-1.69,1.24-3.74-5.43-3.74-5.43l-9.19,1.69-3.73,3.73-6.26-4.6h-10.03l-2.03,5.84,6.59.84-5.79,7.1,2.1,3.75c-8.36.88-22.08-5.44-22.08-5.44,0,0-3.77-1.65-9.23,0-5.8,1.69-13.02,12.08-13.02,12.08l-9.45,10.05,10.42,10.07h7.08l9.52,2.87,1.72,3.75,18.36-.87,15.01-12.07,14.57-2.88,14.6,5.8s15.8-2.91,13.74-1.22c-1.66,2.03,8.33,15.83,8.33,15.83l6.69,15.8,6.24,9.19,1.26,10.03,4.56-.82,15.44,1.69-5.38-8.38-9.18-6.26-6.7-17.49-4.59-11.24,6.69-2.55,5.43,10.02,6.21,9.18,15.02,7.52v9.98l3.76,5.87,14.6,5.36,12.93-6.67,3.77-6.25-5.46-7.49h13.77l11.19,12.13,18.41,9.15-1.26,10.01,11.22,11.24-4.59,4.61-22.91-10.01-18.77-10.45-33.71,2.08.82,14.63,21.28,13.79,22.88,9.58,18.35,10.89-1.65,13.71-6.67,12.94-10.84-7.1-24.14-25.04-5.48.88-20.39-15.86h-9.18l-2.94,11.24-6.23-.86-.82-7.46-37.09-27.5,8.33-9.51,11.24-3.41-6.66-9.61h-6.29l-15.78-10.8-14.59,3.73-19.23-15.84-12.03.79-13.82-1.62-14.09-5.46-17.52,1.69-18.33,12.93-17.5,2.88-8.34,5.46-10.01,2.92-5.49,7.08-15.74-.83-17.49,15.84-1.71,9.15-3.71,14.69-16.67,17.49-2.08,8.3v12.95l6.69,16.69,8.33,16.66,18.35,33.38,7.47,4.58,13.76.88,17.5,13.71,30.42,2.1,4.57,7.13,6.63-.84,11.76,13.78,10.41-1.69,3.32,22.91-8.07,11.26-9.46,8.35,3.79,22.98,2.88,37.09s-2.88,11.75-4.57,13.81c-2.1,1.69-15.03,9.97-15.03,9.97l-18.32,54.61,5.69,27.54-3.6,24.25-11.24,14.57-.85,14.17-2.91,9.16,11.24,3.41,11.94-5.51h17.59l25.87,8.39,19.2-10.03,25.01-14.98,14.57-1.69,2.08-22.12,7.15-8.3,16.6-2.1,12.15-10.01h10l35.81-32.12s2.9-10.48,2.9-14.16c0-3.38,3.81-19.19,3.81-19.19l13.7-20.46,13.75-.84,14.96-6.61,28.41-20.91,12.08-20.48,4.6-8.27-10-3.79-4.66,5.37-13.29-10.82-.82,3.76-1.73-17.89s4.61-4.58-2.03-9.18c-6.29-4.58-10.85-18.39-10.85-18.39l-4.6-12.9-1.69-20.45,1.69-7.94-.84-14.19.84-28.36,10.84,2.51-3.29,29.64,6.24,13.72v22.56l1.65,15.4,6.64,19.61,15.89,20.1,7.08-5.48h11.25l36.68-40.48,2.07-12.09-7.49-10.35-11.27-14.64h-3.34l-7.5,5.37-1.72-12.85-5.77-10.03s-5.44,2.89-4.61-6.28c.85-9.56,2.1-15.01,2.1-15.01l8.25-4.61,6.28,16.67,3.77,12.92,10.03,8.37,11.24,10.04,16.25,15.84,5.87,19.17,3.72,18.79,9.14,3.34-.77,28.77-2.98,46.26,8.36,4.61c.17.03,69.43-195.45-106.95-388.71l-.14-.06s-57.12-18.75-70.02-33.36l-47.93-3.74h-.04Zm-477.62,95.95l-19.28,7.51h-15.97s-46.97,83.67-56.82,143.94c-9.89,60.53,1.35,5.08,1.35,5.08l8.5,33.36,6.13,31.99-1,28.24,12.24,22.08-6.13,22.11-1.38,38.16,7.51,21.06,4.73,24.5,3.74,22.5,7.51,12.2,12.2,35.74-7.47-53.08-4.73-8.48-3.77-12.25,2.38-17.4,9.85-6.11-1.05-21.12,13.28-9.88v-13.56l31.96-41.89,12.21,3.72,5.13-6.08,33.2-61.63,18.49-3.71,7.38-8.5-1.27-8.51-11.24-21.09-15.98-9.89v-23.44l-23.06-12.3.96-30.59,5.13-9.83-5.13-8.51-13.63-7.55-3.3-13.57,2.35-23.52-15.02-19.7h0Zm546.97,422.61l-18.34,14.61-20.68,1.39-11.27,8.5-3.76,9.86-12.2,10.89h.09c0,2.54-9.33,2.72-10.51,2.73.32.51.85,1.42,1.92,3.76l-7.47,8.48v10.88l24.45-2.42,27.25-30.58,14.53-16.02,8.9-1.34,10.84-10.84-3.76-9.88h0Zm-76.66,47.97c-.38-.62-.42-.62-.42-1.39v1.4s.34-.01.42-.01h0Zm-381.47,103.43h0s.03.01.03.01c0,0-.02,0-.02-.01h0Zm.02.01c50.26,35.75,131.52,54.12,131.52,54.14l-17.33-18.37-114.19-35.74v-.04Z" style="fill: #d1e952;"/>
      <path id="f" data-name="path16910-4" d="m713.79,157.83c78.49,53.43,110.69,164.04,70.56,250.57-42.92,108.92-184.42,153.84-285.31,98.6-61.72-27.09-136.58-20-192.49,17.49-55.58,35.5-90.53,99.5-92.61,165.19-3.79,65.61,30.78,128.35,78.87,170.28,109.05,69.28,252.31,81.01,371.46,30.42,153.12-60.32,260.3-221.9,253.19-386.75-.33-139.93-80.49-278.97-203.66-345.8h0Zm-117.79,100.08c-1.89.03-3.78.14-5.66.35-31.48,3.64-58.29,30.55-61.65,62.06-3.86,37.93,30.04,76.47,68.81,73.63,45.05,3.38,81.14-48.77,63.87-90.31-9.21-27.04-37.04-46.13-65.36-45.72h0Zm-175.99,370.2c32.39-.01,63.15,26.37,66.38,59.07,6.02,34.58-20.84,70.05-55.13,75.62-34.9,7.61-71.78-18.03-78.39-52.79-9.29-36.91,19.8-76.57,57.06-81.01,3.36-.59,6.73-.87,10.08-.87h0Z" style="isolation: isolate; opacity: .53;"/>
    </g>
  </g>
</svg>