<?xml version="1.0" standalone="no"?>
<!DOCTYPE svg PUBLIC "-//W3C//DTD SVG 20010904//EN"
 "http://www.w3.org/TR/2001/REC-SVG-20010904/DTD/svg10.dtd">
<svg version="1.0" xmlns="http://www.w3.org/2000/svg"
 width="300.000000pt" height="371.000000pt" viewBox="0 0 300.000000 371.000000"
 preserveAspectRatio="xMidYMid meet">
<metadata>
Created by potrace 1.10, written by Peter Selinger 2001-2011
</metadata>
<g transform="translate(0.000000,371.000000) scale(0.100000,-0.100000)"
fill="#000000" stroke="none">
<path d="M1421 3574 c-128 -34 -251 -134 -304 -246 -50 -107 -60 -251 -22
-345 l16 -41 61 19 c33 11 91 24 128 30 56 10 78 19 122 54 140 110 204 315
154 488 l-17 57 -42 -1 c-23 0 -66 -7 -96 -15z m130 -42 c6 -15 13 -62 16
-104 4 -61 0 -93 -18 -153 -12 -41 -25 -75 -29 -75 -4 0 -13 -13 -20 -29 -11
-27 -59 -80 -119 -131 -26 -21 -25 -21 -56 -25 -35 -5 -78 -14 -135 -30 -50
-13 -56 -13 -67 1 -18 24 -26 92 -21 181 8 172 125 320 295 373 32 10 77 18
101 18 38 1 44 -2 53 -26z"/>
<path d="M1401 3001 c14 -5 93 -11 176 -15 113 -5 176 -13 245 -32 51 -14 97
-29 101 -33 13 -13 -65 -108 -123 -151 -134 -100 -312 -117 -465 -44 -67 31
-147 103 -181 161 -15 24 -29 41 -32 38 -10 -9 69 -113 113 -150 139 -114 336
-137 500 -59 67 31 147 102 181 160 30 51 25 51 144 -7 44 -21 82 -39 85 -39
12 0 150 -92 210 -141 74 -60 188 -178 244 -254 46 -63 154 -264 170 -317 7
-24 17 -51 22 -60 5 -10 9 -29 9 -42 0 -14 4 -27 9 -30 4 -3 11 -25 14 -48 4
-24 11 -68 17 -98 15 -75 20 -282 8 -298 -7 -8 -42 -12 -109 -12 -59 0 -99 -4
-99 -10 0 -6 45 -10 115 -10 l114 0 7 37 c9 50 -3 243 -22 344 -83 440 -389
826 -791 998 -54 24 -107 46 -118 51 -36 16 -128 39 -219 55 -91 15 -374 20
-325 6z"/>
<path d="M1010 2916 c-210 -90 -352 -187 -494 -336 -188 -198 -310 -423 -367
-675 -29 -131 -32 -365 -5 -498 55 -281 190 -531 401 -743 102 -102 255 -219
277 -212 6 2 48 73 94 158 47 85 97 175 111 200 35 61 18 42 -132 -147 l-128
-162 -71 56 c-277 216 -478 549 -531 877 -19 117 -18 317 2 431 60 351 343
761 633 916 25 13 46 27 48 32 2 4 9 7 15 7 7 0 -11 -22 -39 -48 -56 -53 -125
-149 -154 -217 -37 -86 -32 -268 11 -378 39 -101 125 -177 229 -203 19 -5 325
-9 680 -9 l645 0 68 -33 c96 -47 196 -151 247 -257 39 -81 57 -136 43 -134 -5
1 -10 1 -13 0 -3 -1 -135 -1 -295 -2 -318 0 -342 -4 -365 -59 -9 -23 -9 -34 2
-57 19 -40 56 -54 147 -54 95 0 94 3 31 -129 -107 -224 -281 -411 -500 -537
l-85 -48 3 -67 c4 -66 -12 -129 -54 -210 -8 -16 -13 -32 -10 -35 6 -7 41 63
56 114 8 25 19 43 28 43 9 0 12 -6 8 -16 -3 -9 -6 -45 -6 -80 l0 -64 -32 0
c-18 0 -40 -5 -48 -10 -11 -7 -5 -10 23 -10 26 0 37 -4 35 -12 -5 -15 -68 -21
-68 -7 0 6 -6 7 -12 2 -13 -8 -18 -9 -38 -12 -5 0 -27 -16 -47 -34 -131 -116
-316 -140 -478 -62 -27 13 -63 34 -79 47 l-28 24 25 50 c42 83 56 123 46 129
-5 4 -30 -38 -55 -92 l-45 -98 33 -27 c52 -44 148 -86 225 -100 124 -21 257
15 359 98 l51 42 132 3 132 4 -3 -68 -3 -67 43 0 c127 0 276 92 356 219 18 29
45 50 98 78 227 119 448 345 566 579 56 112 98 229 126 354 l5 25 -119 -3
c-116 -3 -120 -4 -120 -25 0 -41 -51 -212 -89 -298 -113 -256 -345 -495 -598
-615 -91 -43 -205 -80 -292 -96 -36 -6 -70 -15 -76 -20 -15 -13 49 -9 117 8
259 65 476 191 642 373 17 19 36 39 43 46 23 24 124 177 150 228 46 91 82 189
105 284 l23 93 92 0 92 0 -6 -32 c-21 -116 -114 -326 -200 -455 -51 -77 -180
-218 -263 -289 -44 -38 -160 -114 -220 -144 -24 -12 -56 -35 -70 -49 -29 -32
-169 -81 -303 -107 -75 -15 -90 -15 -97 -4 -7 11 -21 12 -70 4 l-62 -10 7 25
c3 14 8 67 11 116 5 74 2 102 -15 155 -11 35 -19 65 -18 66 1 1 29 15 62 32
146 73 315 222 415 364 53 74 138 235 159 298 l11 35 120 -3 c142 -4 138 3 83
-129 -54 -130 -136 -259 -238 -377 -60 -69 -256 -213 -347 -254 -120 -55 -162
-72 -178 -72 -10 0 -23 -7 -30 -15 -18 -21 -3 -19 82 11 349 125 629 406 748
751 l32 92 87 4 c47 1 -56 4 -229 5 -347 2 -360 4 -360 61 0 60 4 61 362 61
l326 0 -14 53 c-42 159 -169 319 -309 388 l-70 34 -635 -2 c-534 -2 -644 0
-693 12 -150 38 -229 156 -244 365 -9 134 24 226 122 341 59 69 182 169 257
209 53 29 69 41 51 39 -5 0 -42 -15 -83 -33z m-126 -2333 c-57 -108 -60 -111
-80 -91 -14 14 -11 21 38 78 29 34 59 71 67 81 28 39 20 16 -25 -68z m653 -55
c-3 -8 -6 -5 -6 6 -1 11 2 17 5 13 3 -3 4 -12 1 -19z m467 -210 c-26 -30 -72
-70 -103 -89 -44 -27 -134 -56 -171 -55 -34 1 -35 3 -38 42 l-3 41 78 16 c93
19 223 53 231 61 16 17 22 3 6 -16z"/>
<path d="M1705 2555 c-33 -34 -33 -78 0 -110 40 -40 95 -30 120 21 19 41 13
66 -22 94 -35 27 -67 25 -98 -5z m95 -15 c11 -11 20 -29 20 -40 0 -26 -34 -60
-62 -60 -53 0 -79 74 -36 104 30 21 54 20 78 -4z"/>
<path d="M1903 2545 c-17 -7 -34 -23 -38 -34 -3 -12 -11 -21 -16 -21 -16 0 -9
-64 9 -88 10 -12 30 -31 46 -41 56 -37 146 17 146 88 0 38 -30 82 -65 97 -41
17 -42 17 -82 -1z m102 -40 c51 -50 15 -135 -57 -135 -56 1 -95 48 -83 101 13
60 95 80 140 34z"/>
<path d="M1806 2324 c-35 -35 -35 -82 0 -123 56 -67 154 -21 154 71 0 11 -13
33 -29 49 -39 38 -88 40 -125 3z m113 -20 c12 -15 21 -34 21 -44 0 -10 -9 -29
-21 -44 -41 -53 -119 -21 -119 48 0 64 79 90 119 40z"/>
<path d="M1351 1533 c-12 -10 -24 -34 -27 -54 -7 -44 25 -86 72 -95 44 -8 94
35 94 82 0 70 -85 110 -139 67z m99 -23 c46 -46 9 -106 -62 -101 -24 1 -51 45
-43 70 16 52 69 67 105 31z"/>
</g>
</svg>
