<?xml version="1.0" encoding="UTF-8"?>
<svg id="a" data-name="svg2117" xmlns="http://www.w3.org/2000/svg" width="1024" height="1024" viewBox="0 0 1024 1024">
  <g id="b" data-name="layer5">
    <path id="c" data-name="path1845" d="m239.68,860.87c-12.49-5.56-27.78-20.57-30.39-29.74-1.15-3.82-7.71-7.78-25.42-15.22-6.05-2.5-16.06-8.69-22.11-13.69-6.12-5-12.62-10.08-14.46-11.33-6.88-4.66-12.23-20.71-10.58-31.97,2.49-16.33,25.23-22.58,44.48-12.16,17.52,9.45,44.09,12.99,47.15,6.25,3.76-8.48,19.31-14.94,44.86-18.69,30.33-4.38,44.09-12.09,66.27-37.11,13.95-15.7,17.52-21.19,25.17-38.36,4.46-10.08,7.96-15.43,12.3-18.9,11.6-9.24,18.22-17.16,23.58-28.28,2.93-6.18,8.6-16.61,12.49-23.28,12.23-20.85,12.55-21.89,9.49-30.78-3.31-9.45-2.42-11.74,10.32-26.06,15.93-18,22.05-28.14,22.05-36.69,0-4.17.76-9.03,1.72-10.98,2.29-4.66-.06-7.44-9.24-10.84-4.78-1.81-9.81-5.63-14.53-11.12-5.54-6.46-8.6-8.62-13.51-9.38-7.39-1.25-25.74-9.03-29.25-12.44-3.38-3.27-33.13-19.25-38.68-20.78-5.03-1.32-20.33-8.96-29.12-14.45-5.03-3.13-7.58-3.27-37.4-2.29-22.24.76-34.92.42-41.67-1.04-8.22-1.74-11.34-1.6-20.58.83-9.3,2.5-12.81,2.57-23.39.9-20.01-3.2-23.39-4.66-29.76-13.13-6.88-9.17-7.33-9.24-13.95-2.08-21.15,22.65-52.19,21.96-35.75-.83,6.24-8.69-6.75-11.54-18.1-3.89-7.96,5.35-15.61,5.63-18.8.63-1.27-1.95-3.06-3.13-3.95-2.5-3.76,2.5-18.35,2.29-21.15-.35-1.4-1.32-2.29-3.13-2.74-5.14v-7.37c1.72-9.73,9.43-20.64,17.78-20.64,2.49,0,7.2-1.46,10.51-3.34,5.48-3.06,7.26-3.2,21.92-1.46,20.33,2.43,28.36.83,31.92-6.39,4.65-9.24,36.19-19.04,68.88-21.47,15.48-1.11,20.45-2.15,26.83-5.7,13.19-7.23,22.56-9.94,37.66-10.84,14.91-.83,23.07-3.41,36.51-11.4,7.71-4.59,7.77-4.66,3.5-5.84-8.73-2.36-14.02-17.65-8.54-24.67,5.1-6.46,12.3-23.9,13.95-33.7,2.8-16.4,9.56-39.4,12.81-43.43,1.66-1.95,3.38-6.53,3.95-10.08,1.15-7.78,15.17-25.23,24.4-30.37,3.38-1.88,8.28-6.05,11.02-9.31,8.73-10.49,13.83-10.01,36,3.34,23.19,14.04,36.64,29.81,43.46,50.94,12.94,40.37,11.34,38.5,34.03,39.61,9.43.49,18.22.63,19.5.35,2.36-.49,4.91-13.62,6.82-35.65,2.74-32.52,7.46-39.12,24.72-34.26,16.31,4.59,19.31,8.2,17.84,21.89-.57,5.84-1.34,13.34-1.66,16.68-.38,3.34-1.47,13.55-2.42,22.72-2.23,20.01-2.68,19.11,10.64,22.79,5.93,1.6,13.38,3.75,16.63,4.79,7.14,2.29,31.73,21.54,37.79,29.53,2.49,3.34,8.54,7.78,14.34,10.56,45.75,22.17,67.1,74.15,43.65,106.46-5.29,7.3-4.78,9.94,1.91,9.94,2.55,0,9.11,1.53,14.53,3.34,5.48,1.81,12.68,3.89,16.06,4.73,11.21,2.64,15.04,18.21,9.37,37.87l-2.61,9.17,9.56,13.41c5.23,7.44,10.96,16.54,12.74,20.29,12.62,26.82,46.45,27.1,60.22.56,2.61-5.07,5.35-10.22,6.05-11.47.7-1.18,5.54-2.85,10.77-3.68,13-2.02,14.72-2.99,18.1-10.28,5.03-10.7,16.38-20.85,23.39-20.85,15.61,0,36.13,9.1,49.64,22.03,5.73,5.49,11.02,9.03,14.78,9.8,29.82,6.05,58.18,61.15,41.1,79.78l-7.07,7.71-11.47-1.25c-8.6-.9-13.95-2.64-21.03-6.88-13.44-7.99-23.51-9.31-28.99-3.75-2.29,2.29-6.75,5.14-10,6.25-15.23,5.28-46.26,38.91-63.66,68.94-14.46,25.02-84.68,33.91-110.3,13.9-13.19-10.28-36.89-20.36-62.83-26.62-6.5-1.6-16.12-3.96-21.35-5.28s-11.41-2.85-13.83-3.34c-5.99-1.46-27.78,8.2-39.82,17.58-5.29,4.1-17.4,13.2-26.95,20.22-9.56,7.09-20.07,15.01-23.32,17.65-3.31,2.64-10,7.78-14.97,11.54s-11.85,9.59-15.36,13.06-10.96,9.87-16.63,14.18-13.95,12.02-18.35,17.09-13.64,15.7-20.45,23.7c-12.74,14.73-42.18,41.56-45.62,41.56-1.02,0-4.72,2.57-8.09,5.77-3.44,3.2-9.43,7.57-13.32,9.66-8.22,4.59-17.33,12.72-37.21,33.43-15.48,16.05-16.25,16.4-24.85,11.4-10.83-6.32-16.18-4.93-21.73,5.84-9.11,17.58-20.84,21.96-38.17,14.18Z" style="fill-rule: evenodd;"/>
    <g id="d" data-name="layer6">
      <path id="e" data-name="path1852" d="m252.61,852.88c7.65,0-.57-21.13-9.05-23.49-6.05-1.67-21.73,4.79-22.37,9.17-.83,6.18,18.73,17.37,26.32,15.01,1.15-.35,3.44-.69,5.1-.69Z" style="fill-rule: evenodd;"/>
      <path id="f" data-name="path1859" d="m271.85,832.24c8.35-18.83,9.05-22.79,6.12-32.04-7.33-22.65-20.2-36.41-32.31-34.47-3.57.56-10.64,1.46-15.61,2.08-7.96.9-9.24,1.6-10.07,5.21-1.21,5.21-5.93,4.73-6.63-.63-.7-5.21-3.38-7.16-12.3-8.96-12.43-2.57-13.76.21-3.63,7.23,9.11,6.39,19.24,18.42,21.92,26.13,4.33,12.37-.32,10.22-13.38-6.18-10.83-13.55-23.32-25.64-26.63-25.64-.89,0-6.44-2.71-12.3-5.98-16.18-9.17-23.51-6.88-23.51,7.3,0,15.84,14.21,30.23,43.27,43.78,7.9,3.68,17.97,8.62,22.37,10.98,9.37,5.07,11.41,5.21,21.28,1.32,10-3.82,17.71-1.18,27.14,9.24,7.9,8.83,10.58,8.89,14.27.63Z" style="fill-rule: evenodd;"/>
      <path id="g" data-name="path1894" d="m947.28,549.97c14.91-10.91-7.84-56.64-31.41-63.03-5.86-1.67-19.75-10.77-26.63-17.51-9.94-9.73-34.28-16.54-43.07-12.02-13.06,6.81-12.11,18.28,2.23,26.62,20.45,11.95,34.73,26.06,34.73,34.4,0,5.63,4.65,10.08,12.74,12.23,4.59,1.18,10.45,4.31,13.38,7.16,10,9.52,31.99,16.54,38.04,12.16Z" style="fill-rule: evenodd;"/>
    </g>
    <g>
      <path d="m555.15,567.41c-9.75-5.91-11.15-7.64-8.03-10.15,6.5-5.14-.45-22.45-9.69-24.18-3.25-.56-8.22-1.95-11.02-2.99-6.82-2.5-11.92,1.53-19.37,15.5-3.06,5.63-8.22,13.69-11.47,17.79-3.25,4.1-5.93,8.13-5.93,8.83,0,8.27-20.84,9.17-31.1,1.32-14.97-11.47-28.36-.69-46.32,37.39-10,21.06-10.64,21.96-21.6,30.37-10.39,7.92-11.66,9.59-14.85,19.25-11.28,33.98-21.15,51.08-29.57,51.08-5.99,0-10.39,2.08-16.18,7.64-12.11,11.74-32.69,22.58-45.88,24.11-42.18,4.93-45.05,6.39-29.06,14.8,12.17,6.46,25.42,21.26,32.31,36.2,10.45,22.79,23.64,29.05,36.32,17.3,5.35-4.86,5.42-5.14,2.42-7.57-3.76-3.06-1.08-8.06,4.27-8.06,4.4,0,33.64-14.59,42.5-21.26,23.96-17.93,31.29-24.11,37.21-31.76,9.37-12.09,14.72-21.06,14.72-24.67,0-1.74,4.21-7.16,9.37-12.09,5.16-5,11.21-12.65,13.38-17.09,3.82-7.71,5.35-8.83,28.23-21.4,45.75-25.16,49.83-30.16,17.08-20.78-18.16,5.21-25.87,5.56-25.11,1.32.38-2.15,4.46-4.1,14.72-7.02,23.51-6.74,66.27-26.96,81.82-38.71,9.43-7.09,4.21-27.17-9.18-35.16Z" style="fill-rule: evenodd;"/>
      <path d="m858.84,502.71c-2.1-1.25-6.75-4.1-10.45-6.32-20.71-12.37-47.47-13.9-47.47-2.64,0,3.96,1.21,4.73,11.09,6.67,9.3,1.88,11.02,2.71,11.02,5.28,0,1.39-1.21,2.5-2.74,2.57-16.38.56-23.32,2.71-33.96,10.7-5.61,4.17-4.65,6.12,9.88,19.39,12.74,11.67,17.08,18.62,14.15,22.52-3.06,4.03-6.63,2.92-17.33-5.28-16.5-12.65-19.69-9.24-5.54,6.05,12.43,13.34,16.06,27.45,5.54,21.54-2.49-1.46-5.73-2.57-7.07-2.57-5.42,0-12.04-5.63-18.16-15.5-11.53-18.55-23.77-25.92-32.56-19.6-5.03,3.54-5.54,2.92-9.37-11.81l-3.19-12.23-12.3-9.24c-12.23-9.1-27.97-13.27-27.97-7.37,0,5.56-16.57,19.25-36.58,30.16-13.25,7.3-24.09,14.52-29.18,19.67-5.23,5.21-10.83,8.96-15.48,10.35-10,3.06-9.18,7.02,1.98,9.73,7.65,1.88,22.17,8.96,41.35,20.29,3.89,2.29,10.26,5.35,14.21,6.81,12.68,4.73,43.33,18.83,47.41,21.82,5.86,4.31,22.43,8.76,37.79,10.22,14.15,1.32,15.04,1.25,27.59-1.67,31.29-7.3,44.35-23.28,51.74-63.51,3.89-20.92,10.07-26.48,12.49-11.26,1.08,6.74,7.33,7.64,13.57,1.88,2.55-2.29,8.22-6.18,12.68-8.62,13.13-7.23,11.02-39.54-3.12-48.02Z" style="fill-rule: evenodd;"/>
      <path d="m437.91,554.83c3.57,0,8.73,2.43,16.06,7.71,11.85,8.48,14.46,9.1,21.66,5.07,2.99-1.67,6.05-5.7,8.22-10.77,1.85-4.45,5.29-10.77,7.58-14.11,17.2-24.81,16.25-42.11-2.61-46.49-5.16-1.18-11.41-3.27-13.7-4.59-9.62-5.35-13.44-2.43-10.58,7.92,2.42,8.89-1.47,15.77-20.33,35.86-14.34,15.29-15.68,19.39-6.31,19.39Z" style="fill-rule: evenodd;"/>
      <path d="m606.32,551.29c1.21-1.88,2.68-3.47,3.31-3.47s3.82-2.71,7.07-5.98c3.19-3.34,6.75-6.05,7.9-6.05,1.08,0,4.78-2.22,8.16-4.86,3.38-2.71,11.34-8.13,17.65-12.16,11.02-7.02,31.99-30.23,31.99-35.44,0-2.43,9.24-26.34,14.85-38.29,8.54-18.35,6.12-23-16.89-32.31-16.76-6.67-26.06-7.64-40.97-4.24-12.55,2.85-12.62,5.63-.13,6.67,11.09.9,15.04,4.17,7.26,6.12-16.25,3.96-30.2,10.7-31.48,15.22-1.72,5.91-18.16,22.38-28.36,28.49-5.16,3.06-10.13,6.25-10.96,7.02-4.65,3.96-27.97,15.43-35.17,17.23-10.96,2.71-10.58,5.14.76,5.21,11.34,0,23.13,3.68,23.83,7.44,1.02,5.63-6.95,5.63-38.87-.07-6.69-1.18-7.2,4.52-.76,9.1,2.42,1.67,6.44,5.35,8.98,8.13,2.61,2.78,7.58,6.53,11.09,8.41,17.27,8.89,21.73,12.72,24.72,20.99,3.82,10.56,7.26,11.67,25.3,7.99,5.48-1.11,9.3-2.92,10.7-5.14Z" style="fill-rule: evenodd;"/>
      <path d="m416.75,367.69c-.64,19.74,5.99,44.4,12.62,47.11,1.4.56,5.73,3.89,9.62,7.44,11.28,10.15,25.55,16.82,21.79,10.22-2.49-4.31-.06-7.37,5.8-7.37s10.32,5.07,10.32,11.05,2.49,6.25,9.75,2.15c12.23-6.88,12.43,4.45.13,12.09-8.98,5.56-11.34,12.65-5.48,16.4,4.59,2.92,7.01,2.29,5.23-1.32-1.08-2.29-.89-4.24.76-6.81,3.44-5.35,11.53-2.08,12.87,5.14.89,5,1.08,5.14,8.22,3.96,37.02-5.91,97.17-46.77,66.91-45.45-4.97.21-15.1-.56-22.49-1.67-21.6-3.27-24.72-2.85-30.52,3.82-8.16,9.38-17.78,9.94-22.94,1.32-4.52-7.51-7.46-68.1-3.82-78.66,2.68-7.85,5.03-35.86,6.18-74.56l1.02-34.88h-7.39c-7.58,0-9.05,1.46-4.97,5.14,10.96,9.94-3.31,25.02-23.32,24.53-13.83-.35-16.95,1.11-10.51,4.86,4.84,2.85,12.49,22.31,12.49,31.76,0,7.23-.19,7.71-2.93,5.84-2.49-1.67-3.76-1.39-7.33,1.67-6.18,5.28-7.2,3.47-6.05-10.77,1.15-14.94-.06-22.03-3.44-20.57-1.27.56-2.36,1.6-2.36,2.36s-2.8,6.25-6.18,12.3c-9.49,16.75-20.77,41.14-18.99,41.14.89,0,3.38-1.32,5.61-2.92,6.95-4.93,8.47,2.57,2.17,10.63-1.47,1.88-3.12,4.93-3.7,6.67-.83,2.43-2.04,2.92-4.97,2.15-2.17-.56-5.73-1.53-7.9-2.15-5.29-1.39-5.29,2.57,0,7.99,2.74,2.78,3.95,5.84,3.82,9.38Z" style="fill-rule: evenodd;"/>
      <path d="m447.47,459.77c6.37,5.84,18.42,7.51,18.42,2.64,0-1.32-1.27-2.43-2.8-2.43s-4.78-1.18-7.26-2.57c-7.71-4.38-13.89-2.64-8.35,2.36Z" style="fill-rule: evenodd;"/>
      <path d="m463.33,451.99c4.84-2.02,3.19-9.52-1.85-8.2-6.05,1.53-7.58,3.47-5.16,6.6,2.23,2.92,3.31,3.2,7.01,1.6Z" style="fill-rule: evenodd;"/>
      <path d="m250.32,379.92c-11.79-12.58-6.12-15.01,11.85-5.14,6.24,3.41,33.01,12.86,36.58,12.86,2.8,0,.89-3.89-4.33-8.89-12.74-12.16-6.82-14.38,8.73-3.13,14.53,10.49,20.52,10.84,20.52,1.32,0-4.93,4.59-3.61,10.7,3.06,3.12,3.41,9.88,9.8,15.04,14.25,5.1,4.38,12.23,10.63,15.87,13.9,3.63,3.2,10.51,7.78,15.29,10.15,4.78,2.43,10.39,5.77,12.36,7.44,8.98,7.51,47.28,15.91,48.87,10.7.32-1.18-2.36-3.75-5.99-5.77-15.23-8.48-25.17-26.48-25.17-45.52,0-5.28-.96-8.27-3.38-10.63-1.78-1.81-4.33-5.35-5.54-7.99-2.68-5.63-10.58-6.39-23.39-2.15-15.68,5.21-25.62.28-32.56-16.19-1.02-2.5-2.87-6.81-4.08-9.66-1.21-2.85-2.61-7.71-3.19-10.77-.83-4.52-1.78-5.63-4.84-5.63-7.96,0-12.11-7.51-10.96-19.94.57-6.12.7-11.05.19-11.05s-4.97,2.22-9.94,4.93c-13,7.23-24.47,10.49-40.65,11.74-17.84,1.39-29.44,5.21-31.6,10.42-2.23,5.7-9.69,7.71-23.45,6.32-7.07-.69-17.2-.28-25.04.97-22.94,3.61-26.63,7.02-15.93,14.52,8.92,6.18,15.17,14.38,21.35,27.8,3.06,6.6,6.95,14.66,8.6,17.93l2.99,5.91,24.02.42c28.16.49,28.67.14,17.08-12.16Z" style="fill-rule: evenodd;"/>
      <path d="m541.96,401.67c.51-.63,1.78-11.61,2.8-24.39,1.08-12.79,2.36-26.13,2.8-29.67.96-6.95-4.78-10.84-10.39-7.02-10.7,7.23-23.32,49.2-17.71,58.86,2.61,4.45,19.18,6.12,22.49,2.22Z" style="fill-rule: evenodd;"/>
      <path d="m550.69,400.28c1.34,1.46,26.51,1.46,27.91,0,3.12-3.41-3.25-5.77-15.74-5.77s-16.06,1.53-12.17,5.77Z" style="fill-rule: evenodd;"/>
      <path d="m563.82,314.05c3.12-14.59,4.08-16.05,10.39-16.05,2.99,0,6.82-.9,8.41-2.02,6.5-4.38,10.83,2.78,5.48,9.24-4.01,4.79-1.4,5.7,4.72,1.6,5.48-3.68,27.91-5.56,27.91-2.29,0,2.64-3.76,5.56-7.2,5.56-4.4,0-25.93,11.67-25.93,14.04,0,1.11,2.23,1.39,5.93.76,29.57-5.42,31.61,2.5,3.12,12.65-10.7,3.82-16.76,55.38-7.33,62.4,4.08,3.06,42.5.76,49.64-2.92,3.44-1.81,8.16-4.86,10.45-6.74,2.29-1.95,6.24-4.79,8.79-6.25,8.09-4.79,12.49-40.93,6.12-49.83-6.05-8.41-25.87-27.03-31.92-29.95-3.38-1.67-7.52-3.82-9.24-4.93-1.78-1.04-5.93-3.54-9.24-5.49-3.38-1.95-8.41-6.25-11.15-9.59-14.02-16.82-48.43-39.68-59.71-39.68-1.47,0-12.36,59.76-12.36,67.96,0,18.48,29.25,19.8,33.13,1.53Z" style="fill-rule: evenodd;"/>
      <path d="m559.1,386.39c9.05,1.11,16.31.42,16.95-1.6.76-2.57-23.13-5-25.36-2.57-1.91,2.08.25,3.13,8.41,4.17Z" style="fill-rule: evenodd;"/>
      <path d="m553.05,372.28c2.99,2.08,21.54,1.95,22.75-.14,1.21-2.22-4.14-4.45-14.66-5.98-8.6-1.32-13.51,2.36-8.09,6.12Z" style="fill-rule: evenodd;"/>
      <path d="m575.8,358.17c1.53-2.78.76-3.06-10.83-4.38-9.05-1.04-10.58-.76-10.58,1.53,0,4.24,19.12,6.81,21.41,2.85Z" style="fill-rule: evenodd;"/>
      <path d="m570.57,340.59c-10.2,1.11-10.58,1.25-9.18,3.82,1.34,2.29,10.45,2.36,15.87.14,6.75-2.85,3.06-5-6.69-3.96Z" style="fill-rule: evenodd;"/>
    </g>
    <path id="h" data-name="path1901" d="m527.37,483.33c33.07-3.68,88.06-45.03,73.66-55.38-3.89-2.71-4.14-2.64-12.81,6.05-16.89,16.82-59.9,40.93-74.81,41.9-2.23.14-4.97.97-5.99,1.81-2.29,1.88-20.01,2.22-26.95.56-5.8-1.46-7.39,2.43-2.36,5.84,2.68,1.81,29.69,1.39,49.26-.76Z" style="fill: #666; fill-rule: evenodd;"/>
    <g id="i" data-name="layer9">
      <path id="j" data-name="path1915" d="m438.67,406.19c2.49-2.64,13.32-.9,15.23,2.43,3.76,6.53-3.82,11.81-11.28,7.85-4.01-2.15-6.18-7.78-3.95-10.28Z" style="fill-rule: evenodd;"/>
      <path id="k" data-name="path1922" d="m448.17,411.26c-.38-1.18-2.04-2.5-3.63-2.78-2.61-.56-2.74-.28-.89,2.15,2.49,3.27,5.42,3.68,4.52.63Z" style="fill: #666; fill-rule: evenodd;"/>
      <path id="l" data-name="path1929" d="m429.62,391.32c-7.71-2.99-10.77-16.68-4.14-18.48,10-2.71,18.16,12.86,9.3,17.79-1.53.9-3.89,1.18-5.16.69Z" style="fill-rule: evenodd;"/>
      <path id="m" data-name="path1936" d="m432.05,381.04c-1.4-1.53-5.86,1.32-4.78,3.13.7,1.25,1.72,1.18,3.25-.21,1.27-1.18,1.98-2.43,1.53-2.92Z" style="fill: #666; fill-rule: evenodd;"/>
      <path id="n" data-name="path1950" d="m492.96,462.97c-2.04-2.22-4.08-.49-2.61,2.15.57.97,1.78,1.32,2.68.76,1.08-.76,1.08-1.67-.06-2.92Z" style="fill: #666; fill-rule: evenodd;"/>
      <path id="o" data-name="path1971" d="m469.26,430.1c-2.04-2.15-4.08-.49-2.61,2.15.57,1.04,1.78,1.39,2.68.83,1.08-.76,1.08-1.74-.06-2.99Z" style="fill: #666; fill-rule: evenodd;"/>
    </g>
    <g id="p" data-name="layer10">
      <path id="q" data-name="path1978" d="m514.18,420.16c.57-2.02,0-5.91-1.4-9.03-1.34-2.99-2.8-6.74-3.25-8.41-2.23-7.92-9.81,5-7.9,13.41,1.78,7.57,10.7,10.49,12.55,4.03Z" style="fill: #443205; fill-rule: evenodd;"/>
      <path id="r" data-name="path2083" d="m526.54,287.64c2.42-16.33,5.48-33.91,6.69-39.05,1.27-5.14,2.29-12.72,2.29-16.75s.57-9.66,1.4-12.44c9.24-33.01,6.63-57.54-6.18-57.54-10.83,0-14.21,8.55-15.17,38.78-.25,7.57-1.21,19.18-2.1,25.85-6.37,47.81-6.56,91.73-.38,92.56,8.16,1.18,8.73-.07,13.44-31.41Z" style="fill: #443205; fill-rule: evenodd;"/>
    </g>
    <g id="s" data-name="layer4">
      <path id="t" data-name="path2006" d="m133.26,397.23c1.72-1.32,8.79-8.41,15.68-15.77,11.34-12.02,13.19-13.34,18.99-13.55,8.41-.21,9.43-5.21,2.68-13.41-5.35-6.53-8.41-6.81-37.34-3.54-24.34,2.78-23.89,2.57-40.53,20.01-6.82,7.16-6.5,10.7.76,8.76,4.33-1.18,10.9-7.44,15.36-14.59,2.42-3.96,2.55-3.96,10.13-1.11,4.27,1.6,9.75,2.85,12.23,2.85,7.71,0,4.97,18.9-3.7,25.5-1.66,1.25-2.99,3.41-2.99,4.79,0,3.13,4.72,3.2,8.73.07Z" style="fill: #fff5ce; fill-rule: evenodd;"/>
      <path id="u" data-name="path2020" d="m511.82,374.3c2.36-7.51,11.15-24.95,15.23-30.3,4.72-6.25,2.87-10.63-5.73-13.41-7.2-2.36-14.27,1.04-14.27,6.88,0,1.74-1.85,6.12-4.08,9.73-2.8,4.38-3.82,7.85-3.19,10.56.51,2.22,1.34,6.12,1.78,8.76.51,2.57,1.21,6.46,1.66,8.62,1.02,5.63,6.63,5.07,8.6-.83Z" style="fill: #fff5ce; fill-rule: evenodd;"/>
      <path id="v" data-name="path2027" d="m78.66,369.64c2.23-2.29,6.44-5.63,9.43-7.44,11.28-6.74,10-15.5-1.34-9.17-6.37,3.54-14.34,11.12-14.34,13.62,0,.9-.45,2.92-.96,4.38-1.47,4.1,2.55,3.34,7.2-1.39Z" style="fill: #fff5ce; fill-rule: evenodd;"/>
      <path id="w" data-name="path2041" d="m66.93,365.89c4.91-3.54,5.03-7.57.25-7.57-4.33,0-7.46,2.99-7.46,7.23,0,3.89,2.1,3.96,7.2.35Z" style="fill: #fff5ce; fill-rule: evenodd;"/>
      <path id="x" data-name="path2055" d="m381.45,350.6c6.05-4.31,12.87-7.78,15.1-7.78,9.75,0,28.29-24.88,28.29-38.01,0-1.53,1.78-4.59,3.95-6.81,4.84-4.93,11.85-17.65,11.85-21.4s-3.12-3.41-7.26.9c-3.63,3.68-8.92,2.99-5.54-.69,3.76-4.1,1.78-6.39-5.35-6.39-8.35,0-9.05,1.11-15.61,24.6-8.35,29.6-23.39,52.26-37.08,55.8-5.23,1.39-8.41,3.96-7.26,5.98,1.85,3.34,8.41,1.18,18.92-6.18Z" style="fill: #fff5ce; fill-rule: evenodd;"/>
      <path id="y" data-name="path2069" d="m358.45,341.08c0-.97-1.4-1.74-3.12-1.74s-3.19.76-3.19,1.74,1.4,1.74,3.19,1.74,3.12-.76,3.12-1.74Z" style="fill: #fff5ce; fill-rule: evenodd;"/>
      <path id="z" data-name="path2076" d="m375.02,328.15c14.59-17.09,27.97-49.62,23.58-57.26-5.8-10.08-26-8.62-26,1.81,0,8.96-7.39,11.67-20.96,7.71-11.79-3.41-14.53-1.6-18.99,13.06-4.91,15.77-3.57,20.08,5.23,16.75,11.21-4.24,22.37,2.57,11.47,7.02-6.69,2.78-5.48,10.91,1.91,12.44,2.8.56,6.44,2.57,7.96,4.52,3.89,4.66,8.03,3.06,15.8-6.05Z" style="fill: #fff5ce; fill-rule: evenodd;"/>
    </g>
    <g id="aa" data-name="layer3">
      <path id="ab" data-name="path2090" d="m332.32,270.61c6.95-1.74,21.22-6.88,31.61-11.33,36.38-15.57,57.41-18.21,79.84-9.87,31.86,11.81,48.36,7.02,26.7-7.78-16.89-11.47-26.7-24.46-26.7-35.16,0-9.24-19.56-45.38-28.87-53.44-28.23-24.32-38.23-25.09-58.62-4.66-13.44,13.48-31.22,43.43-24.02,40.44,3.31-1.39,5.86,3.06,4.72,8.2-.83,3.41-.45,4.45,1.47,4.45,1.78,0,2.55,1.6,2.55,5.07,0,2.78.76,5.56,1.66,6.18,1.15.76,1.15,1.81-.06,3.41-.96,1.32-1.85,4.73-1.91,7.64-.13,3.82-.89,5.28-2.93,5.28-1.59,0-3.31,1.74-3.95,3.82l-1.15,3.89-1.27-3.89c-.76-2.15-2.42-4.38-3.76-4.93s-2.49-2.64-2.61-4.66c-.13-2.08-.7,1.11-1.34,7.02-.89,8.76-2.42,12.86-8.47,22.65-12.94,21.06-9.75,24.39,17.14,17.65Z" style="fill-rule: evenodd;"/>
      <path id="ac" data-name="path2097" d="m405.28,228.99c.89-.97,5.48-2.5,10.2-3.34,4.72-.9,10.2-2.15,12.17-2.78,2.55-.83,3.5-.42,3.5,1.53,0,1.81-2.61,3.27-7.96,4.52-10.39,2.43-20.07,2.5-17.91.07Z" style="fill: gray; fill-rule: evenodd;"/>
      <path id="ad" data-name="path2104" d="m336.02,214.95c.25-2.36-.57-5.21-1.85-6.39-3.44-3.13-6.56,3.47-4.08,8.55,2.23,4.52,5.35,3.47,5.93-2.15Z" style="fill: #666; fill-rule: evenodd;"/>
    </g>
  </g>
</svg>