<?xml version="1.0" encoding="UTF-8"?>
<svg id="a" data-name="Layer 1" xmlns="http://www.w3.org/2000/svg" width="1024" height="1024" viewBox="0 0 1024 1024">
  <path d="m642.03,746.85c1.37.04,2.74.06,4.12.07-.43.73-.86,1.47-1.26,2.21.44-.73.88-1.47,1.31-2.21h.02c.4.7.8,1.39,1.21,2.07-.38-.7-.77-1.39-1.17-2.07,1.35,0,2.71-.01,4.07-.04-1.35-.05-2.71-.07-4.07-.07.43-.76.87-1.52,1.3-2.28-.46.76-.91,1.52-1.35,2.28t-.01,0c-.37-.66-.75-1.31-1.14-1.96.36.66.73,1.31,1.1,1.96-1.38-.01-2.75,0-4.13.04Z"/>
  <path d="m511.84,822.54c-.39.64-.77,1.29-1.14,1.94h-.02c-.72-1.26-1.45-2.51-2.21-3.75.67,1.26,1.37,2.51,2.07,3.75-1.31,0-2.63.01-3.93.05,1.33.04,2.66.06,4,.07,0,0,.01.01.01.02-.35.59-.69,1.18-1.01,1.78.35-.58.7-1.16,1.03-1.75.7,1.23,1.42,2.44,2.15,3.64-.66-1.24-1.34-2.47-2.04-3.69,1.37,0,2.74-.01,4.11-.05-1.37-.04-2.75-.06-4.13-.07.38-.64.74-1.29,1.11-1.94Z"/>
  <path d="m375.64,745.94c-.65-1.15-1.32-2.29-2-3.41.62,1.15,1.25,2.29,1.89,3.41h-.27c.09,0,.18,0,.27,0,.02.04.04.08.07.11-.2.34-.4.69-.59,1.03.2-.34.4-.68.6-1.02.64,1.12,1.29,2.23,1.96,3.34-.62-1.15-1.25-2.29-1.9-3.43,0-.01.01-.02.02-.03h0c.22-.39.45-.79.67-1.18-.23.39-.46.79-.69,1.18,0,0-.02,0-.02,0Z"/>
  <path d="m510.14,980.68s.04-.06.05-.09c-.57-1-1.15-1.99-1.75-2.97.55,1.03,1.12,2.05,1.7,3.06Z"/>
  <path d="m510.25,980.67c.56-.97,1.11-1.93,1.64-2.91-.57.93-1.14,1.88-1.69,2.83.02.03.04.05.05.08Z"/>
  <path d="m239.48,822.74c.15.26.3.53.45.79h.02c-.15-.26-.3-.53-.46-.79Z"/>
  <path d="m781.3,825.3s.01-.01.01-.02l-.06-.04c-.73-1.26-1.47-2.51-2.23-3.74-28.43-46.52-77.6-73.1-128.7-74.63-1.35.03-2.71.04-4.07.04.4.69.79,1.38,1.17,2.07,27.72,46.81,77.97,75.55,131.63,76.5.05,0,.09,0,.14,0,.66.01,1.32.02,1.98.02.04-.07.08-.14.12-.21h0s0,0,0,0Z"/>
  <path d="m375.53,745.95c-.09,0-.18,0-.27,0h-.22c-53.65.08-105.85,27.8-134.85,77.47-.02.04-.05.08-.06.12h.04c16.16.05,32.61-2.42,48.82-7.69,37.55-12.2,67.32-37.28,86.02-68.75.19-.35.39-.69.59-1.03-.03-.03-.05-.08-.07-.11Z"/>
  <path d="m511.11,668.23c-.52-.91-1.03-1.83-1.54-2.75-28.15-46.94-79.06-75.52-133.17-75.79.95,1.67,1.87,3.36,2.77,5.08,28.46,45.62,78.66,73.27,131.94,73.47Z"/>
  <path d="m375.05,745.94h.49c-.64-1.13-1.28-2.26-1.89-3.41,0,0,0-.01,0-.01-13.08-21.6-31.6-40.33-54.95-53.93-24.55-14.3-51.39-21.16-77.9-21.26.78,1.36,1.54,2.73,2.26,4.1,28.24,46.08,78.53,74.12,132.01,74.52Z"/>
  <path d="m240.13,823.53s.04-.08.06-.12h0c27.24-46.85,28.21-104.35,2.85-151.99-.81-1.32-1.6-2.65-2.37-4-.66,1.12-1.32,2.23-2,3.34-20.02,36.47-25.52,80.82-11.65,123.51,3.27,10.07,7.47,19.58,12.47,28.47.16.26.31.53.46.79h.19Z"/>
  <path d="m106.52,742.41s0,.02-.02.03c-.44.8-.9,1.59-1.35,2.39l-.08.05s.03.05.04.08l.03-.02c56.38.2,105.89-29.49,133.53-74.16.63-1.15,1.28-2.3,1.94-3.44-53.01-.16-104.69,26.71-134.09,75.08Z"/>
  <path d="m240.58,667.28c-.77-1.34-1.51-2.69-2.24-4.06-28.03-45.76-77.66-74.01-131.47-74.61-.4,0-.8-.01-1.2-.01-.01.02-.02.04-.03.05.29.51.58,1.01.87,1.52,28.01,47.76,79.41,76.88,134.07,77.11Z"/>
  <path d="m289.54,659.59c36.62-11.9,65.85-36.04,84.62-66.43t0,0c.63-1.17,1.29-2.32,1.95-3.46h-.47c-16,0-32.28,2.48-48.31,7.69-36.57,11.88-65.76,35.97-84.54,66.29-.66,1.21-1.34,2.41-2.04,3.61,16.15.05,32.59-2.43,48.78-7.69Z"/>
  <path d="m362.55,716.59c2.97,9.12,6.69,17.78,11.08,25.93,0,0,0,0,0,.01.69,1.13,1.35,2.26,2,3.41h.02c.23-.39.46-.79.69-1.18,21.08-36.91,27.12-82.22,12.95-125.82-2.75-8.46-6.16-16.54-10.14-24.17-1.02-1.64-2.02-3.29-2.98-4.98-.66,1.13-1.34,2.26-2.02,3.37t0,0c-19.99,36.45-25.47,80.76-11.61,123.43Z"/>
  <path d="m376.32,589.55h0s0,0,0,0c16.13.04,32.54-2.43,48.72-7.69,38-12.34,68.03-37.87,86.68-69.87h-.52c-16,0-32.28,2.48-48.32,7.69-36.63,11.9-65.86,36.04-84.62,66.43-.01.02-.02.05-.04.06-.61,1.13-1.25,2.25-1.9,3.37Z"/>
  <path d="m511.74,511.96s.02-.05.04-.07c-27.81-48.61-79.69-78.31-134.89-78.54.55.95,1.08,1.91,1.61,2.88.02.03.03.06.05.08,28.2,46.89,79.09,75.42,133.19,75.65Z"/>
  <path d="m363.09,560.22c2.75,8.46,6.16,16.54,10.14,24.17,1.04,1.66,2.05,3.35,3.02,5.06.64-1.1,1.29-2.18,1.96-3.26.02-.02.03-.04.04-.06,19.99-36.46,25.47-80.77,11.61-123.43-3.02-9.29-6.82-18.1-11.31-26.38-.02-.02-.03-.05-.05-.08-.57-.95-1.13-1.91-1.68-2.88h-.16c-.22.38-.44.75-.66,1.13-21.04,36.89-27.06,82.17-12.9,125.74Z"/>
  <path d="m241.31,510.93s-.02.04-.03.05c.67,1.17,1.33,2.35,1.98,3.54,28.26,46.52,78.95,74.8,132.81,75.04-.97-1.7-1.92-3.42-2.83-5.17-28.46-45.6-78.65-73.26-131.93-73.46Z"/>
  <path d="m239.76,513.53c-20.43,36.64-26.13,81.36-12.15,124.41,2.88,8.88,6.49,17.32,10.73,25.29.8,1.3,1.58,2.61,2.34,3.95,0,0,0,0,0,.01.69-1.18,1.39-2.35,2.1-3.51,12.11-22.09,19.03-47.43,19.14-74.39.11-27.05-6.67-52.52-18.68-74.76-.69-1.14-1.37-2.28-2.03-3.44-.47.82-.96,1.63-1.46,2.44Z"/>
  <path d="m239.76,513.53c.47-.84.95-1.68,1.43-2.51-.02-.03-.04-.06-.05-.09h-.41c-16,0-32.27,2.48-48.31,7.69-36.88,11.98-66.25,36.37-85,67.05-.59.97-1.17,1.94-1.74,2.92.4,0,.8,0,1.2.01,56.27-.22,105.57-30.22,132.89-75.08Z"/>
  <path d="m931.07,464.77c-3.35-10.32-7.68-20.06-12.85-29.14-.04.07-.08.13-.12.2l.05.03c-27.87,48.06-28.12,107.31-.66,155.61l-.07.04s.05.1.08.15c21.58-37.09,27.87-82.86,13.56-126.89Z"/>
  <path d="m917.37,591.99c-26.97,46.37-28.21,103.19-3.61,150.56,1.04,1.65,2.05,3.33,3.02,5.04l.17.1c21.51-37.07,27.77-82.78,13.48-126.75-3.37-10.38-7.73-20.16-12.93-29.27-.06.11-.12.22-.19.33.02,0,.03,0,.05,0Z"/>
  <path d="m788.06,513.05c-1.85.06-3.69.08-5.53.08-.01.01-.02.03-.03.05.42.73.83,1.47,1.23,2.21,25.97,43.74,72.67,73.75,126.63,76.41,2.3.12,4.62.18,6.95.19.06-.11.13-.22.19-.33-.03-.05-.05-.1-.08-.15-26.87-47-76.24-76.34-129.36-78.47Z"/>
  <path d="m913.76,742.55c-28.22-45.19-76.16-71.22-126.15-73.28-1.91.06-3.82.09-5.71.09.36.63.72,1.26,1.07,1.9,26.47,44.75,74.63,75.19,130.1,76.75,1.17.04,2.35.06,3.53.06l.09.05c.09-.15.18-.29.26-.44l-.17-.1c-.98-1.71-1.99-3.38-3.02-5.03Z"/>
  <path d="m913.07,748.01c-54.3,1.07-104.25,30.29-131.76,77.3h0c-.04.07-.08.14-.12.21,16.2.06,32.69-2.41,48.93-7.69,37.93-12.32,67.92-37.78,86.58-69.7l-.09-.05c-1.18,0-2.36-.03-3.53-.06Z"/>
  <path d="m781.93,669.13c1.9,0,3.79.05,5.69.13,14.33-.47,28.83-2.95,43.14-7.6,37.92-12.32,67.91-37.77,86.57-69.67-2.33-.01-4.65-.08-6.95-.19-53.03,2.2-101.52,31.23-128.44,77.34Z"/>
  <path d="m781.8,669.36c-27.28,46.89-28.23,104.48-2.77,152.15.76,1.23,1.5,2.48,2.23,3.74l.06.04c21.5-37.06,27.76-82.77,13.47-126.73-3.13-9.63-7.1-18.75-11.82-27.3-.38-.63-.74-1.27-1.11-1.9h-.06Z"/>
  <path d="m783.51,200.32l.14-.08c-27.81-48.52-79.62-78.17-134.76-78.42h0c27.69,48.28,78.97,78.18,134.62,78.5Z"/>
  <path d="m779.06,825.5c-53.64.55-103.2,28.58-131.33,74.15-.64,1.17-1.3,2.33-1.96,3.49,16.12.04,32.53-2.44,48.69-7.69,38.02-12.35,68.07-37.9,86.72-69.93-.66,0-1.32-.01-1.98-.02-.05,0-.09,0-.14,0Z"/>
  <path d="m512.48,355.69c27.18,47.66,77.48,77.19,131.4,78.67.97-.02,1.94-.03,2.91-.03h.56c-27.37-47.96-78.15-77.55-132.47-78.66-.8.01-1.6.01-2.4.01t-.01.01Z"/>
  <path d="m525.36,384.98c-3.36-10.36-7.71-20.14-12.91-29.24-21.55,37.09-27.83,82.84-13.53,126.84,3.36,10.36,7.71,20.14,12.91,29.24,21.55-37.09,27.83-82.84,13.53-126.84Z"/>
  <path d="m377.5,431.88c-.23.42-.48.84-.72,1.26.04.05.06.11.09.16,16.17.05,32.63-2.42,48.85-7.69,38.01-12.35,68.06-37.9,86.71-69.92,0-.01,0-.02-.01-.02-.81,0-1.63-.02-2.44-.03-15.44.17-31.11,2.66-46.57,7.68-37.48,12.18-67.21,37.18-85.91,68.56Z"/>
  <path d="m243.16,198.26c55.55,0,106.94-29.49,134.96-77.49h0s.01-.01.01-.02c0-.01.01-.02.02-.03h-.68c-16,0-32.28,2.48-48.32,7.69-38,12.34-68.04,37.87-86.69,69.88.23,0,.47,0,.7,0v-.04h0Z"/>
  <path d="m240.17,823.63v-.1h-.24c27.8,48.76,79.8,78.56,135.12,78.76-.54-.94-1.07-1.89-1.58-2.84-28.07-46.77-78.6-75.59-133.3-75.82Z"/>
  <path d="m105.23,745.08l-.04.02c27.81,48.51,79.6,78.16,134.73,78.43-.15-.26-.3-.53-.45-.79-27.81-47.82-78.88-77.38-134.25-77.66Z"/>
  <path d="m107.41,585.67c25.59-46.16,26.1-102.1,1.5-148.67-.94-1.51-1.85-3.04-2.73-4.58-21.55,37.09-27.83,82.84-13.53,126.84,3.39,10.42,7.76,20.24,13,29.39,0-.02.02-.04.03-.05.57-.98,1.15-1.96,1.74-2.92Z"/>
  <path d="m106.5,742.44s.01-.02.02-.03c26.38-47.29,26.41-104.91,0-152.24-.29-.5-.59-1.01-.87-1.52-21.57,37.09-27.85,82.85-13.55,126.86,3.38,10.4,7.75,20.22,12.97,29.36l.08-.05c.46-.79.91-1.59,1.35-2.39Z"/>
  <path d="m646.21,746.81c.43-.76.89-1.52,1.35-2.28,20.48-36.67,26.21-81.43,12.21-124.52-3.38-10.42-7.76-20.24-12.99-29.39-21.57,37.09-27.87,82.86-13.56,126.88,3.14,9.64,7.12,18.78,11.84,27.34.39.64.77,1.3,1.14,1.96t.01,0Z"/>
  <path d="m559.99,660.54c38.03-12.36,68.08-37.91,86.73-69.96-.87,0-1.74-.01-2.61-.03-15.32.21-30.87,2.69-46.21,7.67-36.53,11.87-65.7,35.92-84.47,66.19-.69,1.28-1.41,2.55-2.14,3.81,16.13.04,32.53-2.44,48.71-7.69Z"/>
  <path d="m513.42,664.42c19.82-36.38,25.22-80.54,11.41-123.06-3.38-10.41-7.76-20.22-12.97-29.36h-.13c-21.58,37.09-27.88,82.87-13.57,126.9,3.04,9.36,6.88,18.23,11.42,26.57.54.9,1.07,1.8,1.59,2.71.73-1.27,1.49-2.52,2.26-3.76Z"/>
  <path d="m781.86,669.13c21.53-37.08,27.8-82.81,13.51-126.8-3.09-9.5-7-18.51-11.63-26.95-.42-.72-.84-1.44-1.26-2.16-13.35,22.88-21.05,49.48-21.18,77.87-.13,27.59,6.9,53.54,19.34,76.09.39.64.77,1.3,1.14,1.95.03,0,.05,0,.08,0Z"/>
  <path d="m782.43,513.15s0-.02-.01-.02c-1.79,0-3.57-.05-5.35-.12-14.45.45-29.08,2.92-43.52,7.61-38.01,12.35-68.06,37.9-86.71,69.92.93,0,1.85.02,2.77.04,15.32-.21,30.87-2.69,46.21-7.67,37.96-12.33,67.96-37.81,86.62-69.76Z"/>
  <path d="m780.64,667.18c-27.59-46.68-77.59-75.44-131.03-76.61-.93.01-1.87.02-2.8.02-.01,0-.01.02-.02.03,26.79,46.99,76.05,76.36,129.11,78.6,1.95-.07,3.89-.1,5.84-.08-.37-.65-.73-1.3-1.1-1.95Z"/>
  <path d="m650.33,746.88c14.84-.35,29.87-2.83,44.71-7.65,38-12.34,68.03-37.87,86.68-69.87-1.95-.01-3.9-.06-5.84-.14-24.64.83-49.44,7.51-72.32,20.63-23.86,13.68-42.75,32.7-56.02,54.68-.43.76-.86,1.52-1.3,2.28,1.35,0,2.71.02,4.07.07Z"/>
  <path d="m633.86,561.35c3.36,10.35,7.7,20.1,12.88,29.19,21.58-37.09,27.87-82.87,13.56-126.89-3.36-10.35-7.7-20.1-12.88-29.19-21.58,37.09-27.87,82.86-13.56,126.89Z"/>
  <path d="m646.73,590.54c-27.8-48.58-79.64-78.27-134.8-78.54,27.34,47.83,77.98,77.36,132.17,78.55.7-.01,1.4-.02,2.1-.02.18,0,.35,0,.53,0Z"/>
  <path d="m511.83,511.83s.05.09.08.13c16.16.05,32.6-2.43,48.81-7.69,38-12.34,68.03-37.86,86.68-69.86-1.17,0-2.34-.02-3.52-.06-15.06.28-30.34,2.77-45.41,7.66-37.97,12.34-67.99,37.84-86.65,69.81Z"/>
  <path d="m918.32,435.46c21.59-37.09,27.89-82.88,13.58-126.92-3.39-10.45-7.78-20.29-13.03-29.46l-.06.04c-.07.12-.14.25-.22.36h.16c-27.56,47.35-28.27,105.62-2.03,153.59.47.79.93,1.58,1.39,2.38.06,0,.13,0,.2,0Z"/>
  <path d="m918.75,278.97l.05-.03c-27.83-48.54-79.68-78.18-134.84-78.41v.02c27.74,48.3,79.1,78.17,134.79,78.42Z"/>
  <path d="m783.37,356.72c53.75.11,106.1-27.56,135.23-77.24-57.59-.15-108.02,30.89-135.23,77.24Z"/>
  <path d="m918.11,435.83c.04-.06.08-.13.12-.2-.04-.06-.06-.12-.1-.18-.02,0-.05,0-.07,0v.11c-57.7-.19-108.2,30.92-135.41,77.36,1.81,0,3.62.05,5.42.12,14.45-.45,29.08-2.92,43.52-7.61,37.89-12.31,67.86-37.73,86.52-69.6Z"/>
  <path d="m916.74,433.08c-28.07-47.23-79.11-76.02-133.39-76.31h0s.04.06.05.09c27.68,48.33,78.98,78.27,134.66,78.6.02,0,.05,0,.07,0-.46-.8-.92-1.59-1.39-2.38Z"/>
  <path d="m783.25,356.62c21.53-37.08,27.8-82.8,13.51-126.79-3.35-10.33-7.68-20.07-12.85-29.15-28,48.16-28.24,107.56-.65,155.94Z"/>
  <path d="m782.55,512.93c21.59-37.1,27.89-82.89,13.58-126.92-3.35-10.33-7.68-20.07-12.85-29.15-13.45,22.94-21.21,49.63-21.34,78.13-.13,27.43,6.81,53.24,19.12,75.7.44.74.87,1.48,1.3,2.23.06,0,.12,0,.19,0Z"/>
  <path d="m735.01,208.22c-37.96,12.33-67.97,37.83-86.63,69.78.72,0,1.44.01,2.16.02h.09c53.05-.67,104.44-28.35,133.13-77.49h-.44c-16,0-32.28,2.48-48.31,7.69Z"/>
  <path d="m648.37,278.03c-.04.06-.07.12-.11.18,13.17,23.01,32.38,42.98,56.94,57.28,24.58,14.3,51.46,21.16,77.99,21.23t0,0c-27.39-48-78.2-77.6-132.56-78.69h-.09c-.73,0-1.45.01-2.18.01Z"/>
  <path d="m783.16,356.76h-.66c-16,0-32.28,2.48-48.32,7.69-37.97,12.33-67.98,37.83-86.64,69.8.01.02.03.05.04.08,1.15,0,2.3.02,3.45.05,15.06-.28,30.33-2.77,45.41-7.66,38.03-12.36,68.08-37.91,86.73-69.96Z"/>
  <path d="m661.04,307.38c-3.35-10.31-7.67-20.02-12.82-29.09-21.54,37.08-27.82,82.83-13.52,126.83,3.35,10.31,7.67,20.02,12.82,29.09,21.54-37.08,27.82-82.83,13.52-126.83Z"/>
  <path d="m782.31,512.93c-.43-.74-.84-1.48-1.25-2.23-27.48-46.28-77.01-74.86-130.03-76.31-1.14.02-2.27.03-3.4.03,26.85,47.08,76.26,76.46,129.43,78.59,1.6-.05,3.2-.08,4.8-.08h.45Z"/>
  <path d="m646.2,746.92c-.43.74-.87,1.48-1.31,2.21-.02.02-.02.04-.03.05-25.13,45.06-27.32,101.48-1.33,149.96.76,1.24,1.51,2.5,2.24,3.77.64-1.1,1.29-2.18,1.96-3.26,19.94-36.44,25.39-80.69,11.55-123.32-3.14-9.64-7.12-18.78-11.85-27.34-.4-.69-.81-1.38-1.21-2.07,0,0-.02,0-.02,0Z"/>
  <path d="m644.86,749.18s.01-.04.03-.05c.4-.74.83-1.48,1.26-2.21-1.38,0-2.75-.03-4.12-.07-25.21.57-50.63,7.27-74.04,20.71-23.95,13.75-42.88,32.87-56.14,54.98-.36.65-.73,1.3-1.11,1.94,1.38,0,2.75.03,4.13.07,14.79-.35,29.78-2.84,44.58-7.64,37.15-12.07,66.68-36.73,85.41-67.72Z"/>
  <path d="m509.6,826.39c-25.52,45.39-27.69,102.42-1.16,151.23.6.98,1.18,1.97,1.75,2.97.56-.95,1.12-1.89,1.69-2.83,26.54-48,25.16-104.19.91-149.45,0-.01,0-.02-.02-.03-.73-1.2-1.45-2.41-2.15-3.64-.33.59-.68,1.17-1.03,1.75Z"/>
  <path d="m645.77,902.91c-.73-1.27-1.48-2.53-2.24-3.77-27.53-44.98-75.94-73.05-128.67-74.59-1.38.04-2.75.05-4.11.05.7,1.22,1.38,2.45,2.04,3.69.01.01.02.02.02.03,28.31,46.43,78.96,74.62,132.77,74.83h.19c.67-1.15,1.32-2.32,1.96-3.49-.67,1.08-1.33,2.16-1.96,3.26Z"/>
  <path d="m375.22,902.15s.01-.02.02-.04l-.09-.05c28.3-48.73,27.3-106.42,2.41-152.65-.67-1.1-1.32-2.22-1.96-3.34-.2.34-.4.68-.6,1.02-21.08,36.9-27.12,82.22-12.95,125.82,3.04,9.34,6.87,18.21,11.4,26.54.52.96,1.04,1.9,1.58,2.84h.17v-.14h0Z"/>
  <path d="m506.61,824.53c1.31-.04,2.62-.05,3.93-.05-.7-1.24-1.4-2.49-2.07-3.75-13.08-21.45-31.54-40.05-54.78-53.57-24.43-14.21-51.13-21.06-77.5-21.21-.17,0-.34,0-.5,0h0s-.01.02-.02.03c.66,1.14,1.29,2.28,1.9,3.43,27.57,45.5,76.57,73.59,129.04,75.12Z"/>
  <path d="m509.6,826.39c.33-.59.67-1.18,1.01-1.78,0,0,0-.01-.01-.02-1.34,0-2.67-.03-4-.07-54.2,1.26-104.01,30.57-131.37,77.59-.01.01-.02.02-.02.04v.14h.38s.09,0,.13,0c15.96-.01,32.19-2.49,48.18-7.69,37.34-12.13,66.99-36.99,85.7-68.21Z"/>
  <path d="m497.57,795.12c2.92,9,6.59,17.55,10.9,25.61.76,1.24,1.49,2.49,2.21,3.75h.02c.37-.65.75-1.3,1.14-1.94,20.62-36.72,26.43-81.62,12.39-124.83-3.03-9.33-6.86-18.18-11.38-26.51-.56-.93-1.11-1.87-1.65-2.82-.73,1.25-1.47,2.49-2.23,3.72-19.81,36.38-25.2,80.52-11.39,123.02Z"/>
  <path d="m376.19,745.95c16,0,32.28-2.48,48.32-7.69,36.51-11.86,65.68-35.9,84.45-66.16.69-1.27,1.4-2.53,2.12-3.77h-.38c-16,0-32.28,2.48-48.32,7.69-37.56,12.2-67.33,37.28-86.03,68.75-.22.39-.45.79-.67,1.18.16,0,.33,0,.5,0Z"/>
  <path d="m645.57,903.16c-54.6-.16-105.24,28.19-133.68,74.61-.53.97-1.08,1.94-1.64,2.91-.02-.03-.04-.05-.05-.08-.02.03-.04.06-.05.09.02.04.05.08.07.12v.11c16.14.04,32.56-2.43,48.74-7.69,38.08-12.37,68.17-37.99,86.81-70.09h-.19v.02Z"/>
  <path d="m510.14,980.68c-.58-1.01-1.15-2.03-1.7-3.06-28.08-46.41-78.32-75.01-132.72-75.34-.05,0-.09,0-.13,0h-.55c27.84,48.72,79.85,78.48,135.17,78.63v-.11s-.05-.08-.07-.12Z"/>
  <path d="m642.03,746.85c1.38-.04,2.75-.05,4.13-.04-.37-.65-.74-1.3-1.1-1.96-28.1-47.44-79.35-76.34-133.82-76.53.55.95,1.08,1.9,1.6,2.87,27.48,45.76,76.58,74.05,129.18,75.65Z"/>
  <path d="m289.99,503.2c37.54-12.2,67.31-37.26,86-68.72.21-.38.43-.75.64-1.13h-.39c-16,0-32.28,2.48-48.31,7.69-36.97,12.02-66.4,36.5-85.14,67.29-.47.86-.96,1.71-1.45,2.56,16.11.04,32.5-2.44,48.65-7.69Z"/>
  <path d="m390.31,306.31c-3.35-10.33-7.69-20.07-12.85-29.15-.66,1.13-1.32,2.25-2.02,3.36-19.99,36.46-25.48,80.77-11.62,123.44,3.04,9.36,6.88,18.23,11.42,26.57.52.86,1.03,1.73,1.52,2.61.25-.42.49-.83.73-1.24,20.97-36.86,26.95-82.07,12.81-125.58Z"/>
  <path d="m243.76,351.22c-.61,1.11-1.23,2.22-1.87,3.31-.02.02-.03.05-.05.08,26.57.14,53.53-6.51,78.25-20.65,23.44-13.41,42.09-31.97,55.34-53.44.63-1.17,1.29-2.32,1.95-3.47,0-.02-.02-.03-.03-.05-.69,0-1.39-.01-2.08-.03t-.01,0c-15.51.15-31.27,2.64-46.8,7.68-36.68,11.92-65.94,36.11-84.7,66.57Z"/>
  <path d="m242.48,198.37s.05.09.08.13l.06-.04c28.34,49.4,79.57,77.48,132.65,78.5t.01,0c.5,0,1,0,1.5,0h.56c-27.66-48.46-79.23-78.16-134.19-78.67-.23,0-.46,0-.7,0-.01.02-.02.04-.03.05l.05.02Z"/>
  <path d="m241.82,354.68c.16.28.32.56.47.84.05.09.1.17.15.26,27.94,47.99,79.43,77.27,134.22,77.53.02-.04.04-.08.06-.12-.51-.89-1.01-1.78-1.49-2.67-28.19-47.04-79.21-75.65-133.42-75.84Z"/>
  <path d="m241.82,354.68h-.01c-.62,1.06-1.24,2.11-1.89,3.15-20.12,36.51-25.67,80.94-11.76,123.72,2.98,9.19,6.74,17.91,11.17,26.12.65,1.07,1.28,2.14,1.9,3.22h.04c.5-.86,1.01-1.71,1.52-2.56,12.46-22.35,19.6-48.07,19.68-75.46.09-28.01-7.19-54.33-20.03-77.1-.05-.09-.09-.17-.15-.26-.16-.28-.33-.56-.48-.84Z"/>
  <path d="m228.83,325.3c3.31,10.19,7.57,19.8,12.64,28.78.1.16.19.33.29.5.65-1.13,1.32-2.24,2-3.35,26.16-47.57,25.78-105.42-1.21-152.72-.02-.05-.05-.09-.08-.13l-.05-.02c-.64,1.1-1.27,2.2-1.88,3.32-20.09,36.5-25.62,80.89-11.72,123.64Z"/>
  <path d="m240.55,201.66c.61-1.11,1.24-2.22,1.88-3.32.01-.02.02-.04.03-.05h-.72c-16,0-32.28,2.48-48.32,7.69-37.98,12.34-68.01,37.86-86.67,69.85l.15.09c54.53.22,105.14-27.98,133.66-74.26Z"/>
  <path d="m241.74,354.61s0-.02.01-.03c-.09-.17-.19-.33-.28-.5-26.91-46.38-77-77.68-134.48-77.96,28.71,50.04,80.92,78.19,134.75,78.5Z"/>
  <path d="m241.29,354.68c-16,0-32.28,2.48-48.31,7.69-37.15,12.07-66.68,36.73-85.41,67.72-.02.04-.04.06-.06.1-.37.66-.75,1.32-1.14,1.98l.05.03c54.5.15,105.05-28.11,133.5-74.37.58-1.06,1.18-2.11,1.78-3.15-.13,0-.28,0-.41,0Z"/>
  <path d="m241.12,510.89c-.61-1.06-1.21-2.14-1.79-3.22-27.28-44.9-76.55-74.99-132.93-75.24.87,1.51,1.71,3.04,2.52,4.58,28.41,45.87,78.75,73.69,132.2,73.89Z"/>
  <path d="m107.5,430.19s.04-.06.06-.1c26.84-47.8,26.68-106.27-.56-153.98-.02-.04-.04-.06-.06-.1-.01-.02-.03-.05-.04-.07v-.02l-.15-.09c-21.65,37.12-27.98,82.96-13.65,127.04,3.41,10.48,7.81,20.35,13.08,29.54.04-.06.07-.12.11-.18.4-.69.8-1.37,1.21-2.05Z"/>
  <path d="m647.5,124.09c-.04.05-.06.1-.09.15-27.64,49.44-25.55,107.69.73,153.76h.05c21.58-37.09,27.88-82.87,13.57-126.9-3.37-10.37-7.72-20.14-12.91-29.26h-.02c-.44.76-.88,1.51-1.33,2.25Z"/>
  <path d="m648.18,121.82c-16,0-32.28,2.48-48.32,7.69-37.54,12.2-67.31,37.26-86,68.72,0,.01,0,.02-.02.04-.21.37-.42.74-.64,1.11.91,0,1.82.02,2.73.04,53.85-.72,103.55-29.14,131.47-75.18.03-.05.05-.09.09-.15.45-.74.89-1.49,1.33-2.24h.02s0-.02-.01-.03h-.19c-.16,0-.31,0-.47,0Z"/>
  <path d="m513.88,43.3h.01c27.74,48.28,79.07,78.16,134.76,78.42v.09h.19c-27.76-48.69-79.65-78.46-134.89-78.74-.03.06-.06.12-.1.17.01.02.02.04.03.05Z"/>
  <path d="m512.51,355.64c.79,0,1.58.01,2.37.02,15.43-.17,31.1-2.66,46.56-7.68,37.99-12.34,68.02-37.86,86.68-69.86-.02-.03-.04-.06-.05-.09-.79,0-1.58,0-2.37-.02-15.4.18-31.04,2.67-46.46,7.68-38.03,12.36-68.09,37.91-86.73,69.96Z"/>
  <path d="m570.2,256.79c23.81,13.87,49.78,20.73,75.51,21.22.62,0,1.24-.01,1.85-.01h.49c-27.32-47.83-77.94-77.37-132.11-78.58-.9.02-1.81.02-2.72.02,13.17,23.05,32.39,43.04,56.98,57.36Z"/>
  <path d="m499.54,326.4c3.36,10.36,7.71,20.12,12.9,29.23h.02c21.58-37.1,27.88-82.88,13.58-126.91-3.36-10.36-7.71-20.13-12.91-29.24-.21.38-.43.76-.66,1.13-21.06,36.89-27.09,82.19-12.93,125.78Z"/>
  <path d="m513.88,43.3s-.02-.04-.03-.05c-.69,1.18-1.39,2.34-2.1,3.5-26.96,49.2-24.67,106.9,1.43,152.62h0c.22-.37.44-.74.66-1.11.01-.01.02-.02.02-.04,26.45-46.41,28.4-105.18.02-154.92Z"/>
  <path d="m511.75,46.75c.72-1.15,1.42-2.32,2.1-3.5.04-.05.07-.11.1-.17h-.76c-16,0-32.28,2.48-48.32,7.69-38,12.34-68.04,37.88-86.69,69.88,54.44.27,104.99-27.81,133.57-73.91Z"/>
  <path d="m377.57,276.97c.77,0,1.54.01,2.3.02,0,0,.01,0,.02,0,25.82-.26,51.92-6.93,75.91-20.66,24.25-13.88,43.37-33.28,56.68-55.71.22-.38.44-.77.66-1.14,0-.02-.02-.03-.02-.05-.98,0-1.96-.02-2.93-.04-15.26.22-30.75,2.71-46.03,7.67-36.61,11.89-65.83,36.03-84.6,66.4,0,.01,0,.02-.02.03-.63,1.17-1.29,2.33-1.96,3.48Z"/>
  <path d="m513.07,199.37c-27.79-48.66-79.67-78.4-134.9-78.65h0c27.21,47.62,77.34,77.4,132,78.67.76-.01,1.52-.02,2.29-.02h.61Z"/>
  <path d="m377.55,277s-.01.02-.02.03c27.37,47.93,78.14,77.51,132.45,78.62.59,0,1.17-.01,1.75-.01h.66c-27.38-47.96-78.18-77.55-132.51-78.64,0,0-.01,0-.02,0-.77.01-1.54.02-2.32,0Z"/>
  <path d="m364.55,247.66c3.37,10.37,7.72,20.14,12.91,29.26.67-1.15,1.35-2.29,2.06-3.43.01-.01.01-.02.02-.03,25.21-46.08,26.59-103.78-1.4-152.71h-.02s0,0-.01.01c-21.58,37.09-27.87,82.87-13.56,126.9Z"/>
</svg>