awedacity-bg.png
awedacity-header.png
background.jpg
background.png
bg_enspiñata.jpg
bg_goldie_infected.jpg
bg_goldie.jpg
bg_grailscale.jpg
bg_guitarron.jpg
bg_hh.jpg
bg_kazookid.jpg
bg_nb.jpg
bg_partytime.jpg
bg_web3unpugged.png
bg.jpg
born.png
default_background.jpg
default_features.jpg
default_header.jpg
etherscanLogo.png
feature_guitarron.gif
features_grailscale.jpg
features_hh.jpg
features_nb.jpg
flyer.jpeg
ghostskater.png
githubLogo.png
glyf.png
goldie_features.jpg
header_enspiñata.jpg
header_goldie.gif
header_grailscale.jpg
header_guitarron.jpg
header_hh.jpg
header_nb.jpg
header_pilsenfest.jpg
header.ai
header.jpg
header.png
icon512.ai
icon512.png
InfinityMint.jpg
invalid_wallet.jpg
kazookid_title.jpg
kazookid_v1_background_1.jpg
kazookid_v1_background_2.jpg
kuma.png
limc.png
loading_partytime.gif
loading.gif
loadingGif.gif
loadingIcon.png
loadingTwo.gif
logo_sectionz.jpg
maskmode-bg.jpeg
maskmode-feature.jpeg
maskmode-header-bg.jpeg
MASKMODE.ETH MATRIX THEME.JPG
missingWeb3.png
Nike 1.PNG
Nike 2.PNG
Nike 3.PNG
partytime_features.gif
partytime_features.jpg
partytime_header.png
partytime_texture.jpg
partytime_title.jpg
person_two.png
person.png
pf_fb3.jpeg
pf_fb4.jpeg
pf_fb5.jpeg
pf_poster_22.png
pfposter.png
quecia.png
sad_panda.jpg
sazon.png
scary_gary_pumpkin.jpeg
sectionz.jpg
texture.jpg
vortex.png
web3flyer-10.30.png
web3unplugged-flyer-2.jpg
web3unplugged-flyer-3.jpg
web3unplugged-flyer-4.jpg
whales_background.jpg
whales_features.png
whales_title.jpg<?xml version="1.0" encoding="UTF-8"?><svg xmlns="http://www.w3.org/2000/svg" viewBox="0 0 5092 5092"><g id="a"><rect width="5092" height="5092" style="fill:#c1272d;"/></g><g id="b"/><g id="c"><path d="M2589.58,408.04C1384.09,387.45,441.61,1354.99,416.53,2497.7c-26.24,1195.12,927.7,2175.33,2105.37,2189.68,1210.92,14.75,2168.15-972.72,2161.27-2137.96,7.74-1155.12-923.11-2121.38-2093.59-2141.38Zm1707.08,2148.11c-4.4,998.69-826.29,1752.27-1748.18,1740.42-921.41,9.95-1744.4-746.25-1744.43-1749.63-.04-1006.26,834.33-1770.35,1782.98-1750.49,906.89,18.98,1714.03,762.01,1709.63,1759.7Z" style="fill:#fff;"/><path d="M2166.36,3046.03c95.74,89.76,220.4,142.39,351.5,148.29,.91,.04,1.81,.08,2.72,.12,439.76,19.47,758.54-373.11,658.54-802.96-7.48-32.17-3.3-49.35,24.08-69.94,208.5-156.73,415.36-315.63,622.83-473.72,30.51-23.25,61.55-45.8,97.77-72.71-353.31-555.02-845.71-840.37-1502.28-792.66-530.66,38.56-930.77,307.83-1218.48,753.79,120.54,106.57,234.74,207.53,349.58,309.05,396.32-741.18,1276.38-736.66,1685.82-365.81,9.68,8.76,18.86,18.06,27.64,27.71,19.37,21.28,83.3,90.9,80.92,92.79-3.27,2.6-107.87-92.69-111.14-90.08-110.53,88.05-220.31,176.41-332.14,262.07-11.41,8.74-39.86,4.46-55.75-3.3-155.02-75.71-315.05-93-480.96-44.66-330.23,96.2-524.92,433.33-448.14,772.55,4.42,19.53,6.58,51.77-4.38,60.73-119.51,97.68-240.34,193.92-363.87,286.47-120.55,90.32-244.65,175.9-375.42,269.45,314.73,512.3,760.4,797.6,1355.73,805.26,588.64,7.58,1038.77-261.96,1364.97-754.53-119.02-105.93-233.34-207.68-348.91-310.54-390.03,719.26-1255.99,750.74-1703.35,349.17,119.73-95.45,238.29-190.97,358.75-284.02,1.59-1.23-107.72-137.21-105.39-137.56l69.36,65.03Z" style="fill:#fff;"/></g></svg>