<?xml version="1.0" encoding="UTF-8"?>
<svg id="a" data-name="svg8" xmlns="http://www.w3.org/2000/svg" width="1024" height="1024" xmlns:xlink="http://www.w3.org/1999/xlink" viewBox="0 0 1024 1024">
  <defs>
    <radialGradient id="e" cx="114.47" cy="777.83" fx="114.47" fy="777.83" r="5.35" gradientTransform="translate(230.59 2232.3) scale(2.83 -1.83)" gradientUnits="userSpaceOnUse">
      <stop offset="0" stop-color="#ff0"/>
      <stop offset="1" stop-color="#ff0" stop-opacity="0"/>
    </radialGradient>
  </defs>
  <g id="b" data-name="layer1">
    <g id="c" data-name="g1051">
      <path id="d" data-name="path973" d="m569.98,800.31c-7.49.5-14.99.95-22.45,1.83-1.24.22-2.58.19-3.72.75-1.57,1.28-2.08,3.39-2.62,5.26-.63,2.67-1.11,5.4-1.26,8.14-.12,1.09.7,2.07,1.75,2.31,2.58.74,5.29.68,7.95.88,5.36.19,10.72.6,16.08.3,1.08-.02,2.21-.66,2.43-1.79.73-2.98.92-6.06,1.32-9.1.28-2.82.69-5.63.81-8.46-.03-.12-.18-.13-.28-.11h0Z" style="fill: #fc0;"/>
      <path id="f" data-name="path973-6" d="m569.98,800.31c-7.49.5-14.99.95-22.45,1.83-1.24.22-2.58.19-3.72.75-1.57,1.29-2.08,3.39-2.62,5.26-.63,2.67-1.11,5.4-1.26,8.14-.12,1.09.7,2.07,1.75,2.31,2.58.74,5.29.68,7.95.88,5.36.19,10.72.6,16.08.3,1.08-.02,2.21-.66,2.43-1.79.73-2.98.92-6.06,1.32-9.1.28-2.82.69-5.63.81-8.46-.03-.12-.18-.13-.28-.11h0Z" style="fill: url(#e);"/>
      <path id="g" data-name="path842" d="m669.42,507.77c-7,1.38-13.63,4.28-20.71,5.33-3.22.24-4.99,3.1-6.06,5.82-7.63,15.74-15.12,31.57-21.38,47.91-6.29,14.51-12.63,29-18.44,43.7-7.41,17.14-15.76,33.86-22.74,51.19-4.43,9.57-8.93,19.12-12.66,28.99-5.13,12.94-9.23,26.25-14.53,39.13-6,14.56-11.19,29.45-15,44.75-2.65,10.85-6.94,21.31-8.33,32.44-.87,6.34-4.38,11.76-7.81,16.99-3.33,6.1-5.18,12.98-6.12,19.83-.52,1.86,1.33,2.67,2.87,2.56,12.83.41,25.7-.21,38.52-.77,5.2-.56,10.73-.15,15.65-2.11,5.81-3.74,8.38-11.09,7.71-17.78-1.06-20.03.5-40.15,3.6-59.93,3.74-18.03,7.81-36.02,12.35-53.86,3.82-12.32,6.36-25.05,11.33-37,5.86-16.14,11.29-32.43,16.93-48.64,2.78-9.56,7.05-18.62,10.02-28.14,3.93-11.3,9.25-22.01,14.05-32.94,3.7-9.96,6.64-20.18,11.13-29.84,2.56-5.63,4.19-11.56,6.99-17.08,1.26-3.4,3.18-6.79,3.65-10.38-.25-.26-.69-.17-1.01-.16h0Zm-103.36,289.84c2.49-.04,6.4.18,6.75,3.34.43,5.9-.58,11.87-1.89,17.61-.42,3.16-3.82,4.36-6.61,4.22-9.49.26-19.12.04-28.45-1.75-2.36-.31-.88-3.19-.62-4.56,1.71-5.74,3.67-11.44,5.5-17.16,8.42-.81,16.87-1.47,25.32-1.71h0Z" style="fill: #535d6c;"/>
      <path id="h" data-name="path844" d="m681.89,478.67c-2.74.33-5.27,1.59-7.91,2.35-12.4,4-24.96,7.55-37.12,12.25-14.94,5.44-30.16,10.08-45.11,15.52-6.35,2.32-12.76,4.44-19.13,6.69-4.72,1.9-9.31,4.15-14.22,5.54-4.1,1.36-8.52,1.81-12.39,3.81-1.52.77-2.68,2.36-2.45,4.12-.04,2.38,2.08,4,4.11,4.77,5.44,2.04,11.42,1.52,17.06.76,6.86-1.08,13.39-3.56,20.08-5.37,12.57-3.68,25.25-6.95,37.81-10.69,2.11-.64,4.22-1.36,6.02-2.66,1.74-.76,3.72-.66,5.45-1.47,3.79-1.52,7.44-3.36,11.39-4.46,6.01-1.73,12.12-3.13,18.07-5.09,6.89-2.24,13.83-4.48,20.34-7.69,1.6-.65,2.71-2.24,2.68-3.98.23-2.89-.41-5.72-1.17-8.48-.59-1.83-.7-3.97-2.02-5.47-.4-.37-.96-.5-1.49-.47Z" style="fill: #535d6c;"/>
      <path id="i" data-name="path846" d="m749.25,465.45c-5.28.23-10.5,1.21-15.65,2.34-1.1.39-2.6.4-3.3,1.47-.41,1.7.27,3.46.65,5.11.83,2.57,1.62,5.29,3.35,7.42.92.96,2.32.11,3.28-.32,1.78-1.35,3.96-2.08,5.99-3,3.8-1.4,7.73-3.27,10.04-6.76,1-1.43,1.73-3.64.35-5.07-1.23-1.18-3.11-1.16-4.71-1.18Z" style="fill: #535d6c;"/>
      <path id="j" data-name="path848" d="m384.84,708.64c-14.53.37-28.47,5.31-41.57,11.26-8.13,3.62-16.3,7.55-23.01,13.51-6.26,5.53-12.29,11.35-17.68,17.74-6.45,7.87-10.62,17.26-14.98,26.37-5.05,11.05-7.22,23.2-7.63,35.29-.24,7.96-.33,15.96.41,23.9.74,5.86,3.14,11.33,4.86,16.95,3.27,10.09,7.14,20.18,13.51,28.78,6.21,8.4,13.91,15.57,21.87,22.29,6.13,5.1,12.97,9.36,20.39,12.31,3.8,1.58,7.58,3.27,11.05,5.52,4.09,1.94,8.69,2.37,13.1,3.14,8.3,1.15,16.68,1.83,25.06,1.9,7.44-.11,14.96,0,22.24-1.8,8.69-1.87,16.71-5.83,24.81-9.35,7.64-3.33,14.81-7.79,20.86-13.55,6.64-6.26,12.98-12.85,18.86-19.84,7.77-9.41,12.34-20.86,17.52-31.77,1.88-4.06,3.83-8.29,3.74-12.87.42-7.89,1.64-15.74,1.48-23.66-.06-8.22-.6-16.55-2.92-24.48-3.42-9.75-7.85-19.12-12.69-28.24-2.53-4.83-6.26-8.85-9.33-13.32-4.7-6.28-10.66-11.48-16.64-16.49-5.45-4.63-11.42-8.77-18.17-11.27-8.28-3.19-16.62-6.27-25.1-8.87-9.74-2.24-19.75-3.37-29.74-3.46h-.21s-.06,0-.06,0Zm12.39,53.98c5.62-.04,11.47.08,16.62,2.62,6.96,3.04,13.54,7.13,18.77,12.7,6.74,6.96,11.6,15.74,14.05,25.1,2.21,9.04.79,18.51-1.43,27.41-1.66,6.35-4.67,12.36-9.09,17.24-5.47,6.61-12.45,11.94-20.36,15.26-13.2,5.71-28.7,6.2-41.98.5-13.16-5.33-24.15-16.14-29.05-29.55-4.89-12.97-3.45-27.66,1.94-40.24,4.82-11.32,14.08-20.54,25.25-25.6,6.94-3.18,14.44-5.47,22.14-5.4,1.05-.02,2.09-.03,3.14-.03h0Z" style="fill: #241f1c;"/>
      <path id="k" data-name="path850" d="m523.68,730.41c-1.04.39-1.11,1.85-1.58,2.72-3.55,10.46-5.88,21.31-9.67,31.68-.53,1.32-1.68,2.56-1.17,4.09,1.23,6.03,3.99,11.62,5.27,17.64,2.51,9.85,2.9,20.06,3.23,30.18.2,1.01-.18,2.41.6,3.19.99-.38,1.32-1.72,1.92-2.53,2.51-4.68,3.44-9.99,4.75-15.08,1.5-6.78,3-13.56,5.13-20.17,1.7-6.23,2.47-12.72,5.08-18.68,1.16-3.21,2.21-6.87,1.05-10.23-.42-.83-1.66-.91-1.74-2-.36-1.98-.31-4.04-1.03-5.95-1.58-5.6-5.49-10.26-9.9-13.91-.58-.4-1.2-.92-1.94-.95h0Z" style="fill: #241f1c;"/>
      <path id="l" data-name="path852" d="m535.92,850.35c-6.42.11-12.9.04-19.24,1.14-2.86.4-5.02,2.6-6.22,5.12-2.65,5.29-4.43,11-7.66,15.98-4.57,7.63-10.92,13.9-16.63,20.64-.74,1.21-2.31,2.29-2.15,3.85.65,1.24,2.4,1.01,3.58,1.24,6.18.35,12.18-1.6,18.12-2.99,6.13-1.61,11.28-5.57,16.08-9.53,5.56-4.76,10.61-10.29,13.88-16.9,2.87-5.49,5.84-10.97,8-16.79.45-.93-.41-1.74-1.34-1.64-2.13-.18-4.28-.1-6.42-.12h0Z" style="fill: #241f1c;"/>
      <path id="m" data-name="path854" d="m428.13,712.1c-.81.22.38.75.7.78,8.3,2.93,16.33,6.71,23.53,11.81,10.36,7.21,19.99,15.62,27.81,25.56,7.76,10.46,13.4,22.42,17.29,34.82,5.18,16.78,6.92,34.86,3.3,52.14-2.11,11.92-5.69,23.65-11.69,34.21-4.72,8.57-10.34,16.66-17.19,23.67-6.04,6.2-12.06,12.72-19.82,16.78-1.2.87-2.91,1.49-3.52,2.93.21.89,1.45.23,2.01.07,6.36-2.89,12.05-7.05,17.64-11.2,14.91-11.44,27.93-25.74,36.25-42.71,4.77-9.65,8.91-19.75,10.86-30.38,1.73-10.51,1.6-21.24.91-31.84-.6-6.41-1.52-12.9-4.26-18.79-3.64-7.98-6.03-16.53-10.69-24.03-6.35-10.44-14.59-19.84-24.56-26.95-7.96-5.42-17.25-8.36-26.23-11.6-7.25-2.41-14.67-4.78-22.34-5.26h0Z" style="fill: #483e37;"/>
      <path id="n" data-name="path856" d="m554.34,848.69c-2.77-.03-6.13.34-7.85,2.81-.71,1.44-.31,3.17-1.05,4.63-1.11,3.18-2.52,6.28-3.68,9.41-3.69,6.22-8.3,11.86-12.88,17.46-2.86,3.7-6.57,6.66-9.4,10.39-.29.82,1.05.66,1.52.65,4.18-.47,8.38-1.42,12.19-3.23,6.71-3.75,11.42-10.14,15.44-16.53,4.3-7.14,7.73-14.83,10-22.85.37-1.01.1-2.57-1.22-2.62-1.01-.15-2.04-.11-3.06-.12h0Z" style="fill: #483e37;"/>
      <path id="o" data-name="path858" d="m527.88,714.72c-.9,1.62-1.31,3.58-1.93,5.35-.71,1.98-.88,4.36.63,6.04,4.61,6.35,10.44,12.24,12.45,20.07.47.92.4,2.65,1.65,2.9,1.5-.37,2.01-2.23,2.36-3.54,1.42-7.64-1.23-15.71-6.06-21.66-2.87-3.14-5.71-6.38-8.97-9.13-.04-.01-.08-.03-.12-.02h0Z" style="fill: #483e37;"/>
      <path id="p" data-name="path860" d="m394.68,765.33c-5.1.08-10.26.19-15.26,1.28-3.85.9-6.94,3.52-10.25,5.53-3.19,2.12-6.49,4.14-9.1,6.99-4.35,4.46-8.57,9.27-10.94,15.12-3.26,7.59-4.14,15.94-4.2,24.13-.1,4.52.29,9.16,2.23,13.31,3.47,7.96,7.98,15.78,14.87,21.28,4.74,3.86,10.28,6.63,15.96,8.81,4.64,1.63,9.57,2.52,14.49,2.55,4.5,0,9.01-.29,13.42-1.27,5.49-1.2,11.11-2.66,15.79-5.88,2.08-1.6,3.86-3.57,6.03-5.05,3.12-2.81,5.28-6.48,7.57-9.95,3.4-5.51,6.52-11.24,8.77-17.33,1.4-4.24.6-8.76.3-13.11-.97-9.65-3.27-19.57-9.19-27.47-5.63-7.62-14.14-12.46-22.86-15.73-3.85-1.41-7.8-2.79-11.92-3.13-1.9-.09-3.81-.1-5.72-.09h0Zm3.66,34.51c2.74-.25,5.14,1.43,6.95,3.31,2.85,2.78,5.88,5.92,6.72,9.92.46,3.22-.05,6.51-1.16,9.54-.82,2.71-2.16,5.59-4.88,6.84-2.8,1.31-5.62,2.72-8.59,3.63-1.65.37-3.16-.8-4.62-1.38-4.03-2.07-7.86-4.7-10.9-8.09-1.75-2.2-1.51-5.18-1.42-7.82.25-5.01,2.55-10.08,6.77-12.95,3.24-2.27,7.2-3.22,11.12-3.02h0Z" style="fill: #535d6c;"/>
      <path id="q" data-name="path862" d="m395.71,803.18c-3.71.02-6.88,2.59-9.01,5.43-2.44,3.34-3.92,7.89-2.42,11.93,1.41,3.56,4.96,5.77,8.43,7,3.97,1.32,8.7,1.63,12.37-.67,1.6-1.21,2.28-3.26,2.74-5.15.72-3.86.6-8.03-.99-11.67-1.56-3.42-4.66-6.36-8.51-6.76-.87-.11-1.74-.14-2.62-.11h0Z" style="fill: #4d4d4d;"/>
      <path id="r" data-name="path864" d="m453.02,538.95c-2.01-.01-4.22.07-5.83,1.43-1.9,1.38-3.29,3.33-4.26,5.45-1.94,4.14-3.3,8.58-3.76,13.14-.05,1.38-.25,2.98.63,4.17,1.35,1.07,3.05,1.58,4.66,2.14,6.26,1.87,12.79,2.6,19.26,3.33,9.03.97,18.12,1.35,27.13,2.46,2.21.43,4.47.14,6.7.15,9.24-.31,18.47-.86,27.72-.88,10.43-.03,20.86-.12,31.28.17,3.84.04,7.74.64,11.53-.2,2.08-.44,4.06-1.96,4.48-4.14.5-2.12.09-4.54,1.55-6.33.62-1.13.34-2.48.38-3.71-.17-2.86-.51-5.77-1.56-8.45-.23-.64-.77-1.19-1.5-1.17-5.66-.76-11.39-.97-17.09-1.3-12.82-.61-25.65-1.15-38.4-2.68-14.18-1.76-28.49-1.89-42.74-2.7-6.72-.31-13.45-.86-20.18-.87h0Zm53.11,10.1c2.23.06,4.51-.06,6.66.59.81.27.77,1.32.99,1.99.68,3.36.47,6.8.46,10.21-.06,1.02.06,2.32-.81,3.06-.95.43-2.06.12-3.06.11-4.3-.36-8.62-.49-12.9-1.01-1.25-.14-2.55-.7-3.1-1.93-.98-2.11-1.68-4.37-2.04-6.66-.25-1.55.04-3.37,1.41-4.33,1.92-1.3,4.32-1.51,6.55-1.78,1.94-.18,3.89-.24,5.84-.24h0Z" style="fill: #fc0;"/>
      <path id="s" data-name="path866" d="m501.7,552.01c-2.09-.02-4.3.35-5.99,1.65-.78.56-1.3,1.63-.87,2.57.46,1.42.81,2.9,1.43,4.26.63.85,1.78,1.06,2.77,1,2.25-.05,4.46-.47,6.7-.59,1.34-.14,2.74-.04,4.05-.45.87-.33,1.06-1.38.98-2.2-.05-1.56-.19-3.37-1.5-4.42-1.32-1.01-3.02-1.33-4.61-1.66-.97-.16-1.96-.15-2.95-.15h0Z" style="fill: #c8ab37;"/>
      <path id="t" data-name="path868" d="m469.73,169.67c-3.45,1.65-7.06,3.31-9.58,6.3-4.36,4.89-7.84,10.61-10.03,16.79-1.97,6.66-3.15,13.53-4.3,20.37-.42,3.03-1,6.08-1.02,9.15.27,1.31,1.21,2.47,2.52,2.85,4.24,1.67,8.29,3.86,12.68,5.14,1.92.67,4,.47,5.92,1.1,1.02.34,2.19,1.23,2.03,2.41-.46,1.61-2.35,2.31-3.86,1.87-5.11-1.05-9.91-3.4-15.08-4.22-1.03-.14-2.58.35-2.42,1.65.17,3.47,1.39,6.79,2.5,10.06,3.36,9.03,8.87,17.12,15.04,24.45,3.89,4.25,8.49,8.1,13.96,10.07,2.08.77,4.3,0,6.42.37,1.32.31,2.33,1.46,3.76,1.39,4.48.18,8.75-1.59,12.75-3.41,7.39-3.46,13.94-8.71,18.71-15.34,6.65-9.16,10.62-19.91,14.17-30.56,1.48-4.8,3.22-9.63,3.43-14.69.12-2.67-1.01-5.77-3.7-6.75-2.34-.77-4.93-.73-7.3-.13-1.36.3-2.3,1.37-3.39,2.13-1.34.58-2.87.41-4.29.28-.57-.11-1.69-.56-1.21-1.3,1.38-1.56,3.45-2.29,5.29-3.12,3.84-1.46,7.86-2.71,11.99-2.81,4.03.19,8.01,1.71,11.24,4.13.97.87,2.31,1.88,2.29,3.31-.36,1.29-2,1.34-3.08,1.63-1.62.28-2.42,1.91-2.69,3.37-.72,3.62-1.25,7.29-2.4,10.81-3.35,10.89-8.06,21.36-13.71,31.25-3.19,5.61-7.06,10.94-12.21,14.91-4.65,3.74-10.12,6.25-15.74,8.19-1.07.54-2.52.73-3.23,1.78-.28,1.03,1.12,1.34,1.8,1.64,4.56,1.54,9.22,2.9,14,3.55,4.57.52,9.18-.17,13.53-1.6,5.48-1.57,10.69-4.25,14.83-8.22,5.37-4.86,9.49-11.08,11.78-17.96,3.37-9.99,4.18-20.6,4.78-31.05.27-7.16.75-14.36.15-21.51-.42-4.13-1.48-8.21-3.05-12.04-.8-2-2.84-3.03-4.8-3.58-6.04-1.88-12.3-3.12-18.6-3.66-2.36-.25-4.81.18-6.81,1.5-2.3,1.35-4.48,2.88-6.71,4.33-.15-3.09-.44-6.32-2.18-8.98-2.63-4.37-6.46-7.98-10.89-10.48-2.35-1.22-4.84-2.77-7.59-2.59-2.53.38-4.9,1.6-7,3.03-3.83,2.76-5.98,7.31-6.55,11.92-.5,3.37-.3,6.82-.75,10.17-.11.81-.98.15-1.35-.06-3.35-2.1-5.09-5.88-6.65-9.36-2.08-4.98-3.33-10.35-3.12-15.77-.06-.88.08-1.81-.13-2.66l-.15-.03h-.02Zm39.2,54.18c1.28.03,1.58,1.79.65,2.5-2.84,2.91-6.07,5.44-8.97,8.3-3.18,2.86-6.07,6.15-9.74,8.39-.73.53-1.15-.43-1.38-.98-.62-1.9.77-3.65,1.89-5.04,3.72-4.18,8.28-7.5,12.77-10.79,1.48-.92,2.97-2.23,4.77-2.38h0Zm-29.96,25.25c1.11-.19,1.49,1.4.83,2.08-1.65,2.72-4.73,4.55-5.57,7.76-.5,1.56.48,3.26,2,3.78,1.6.75,3.86.35,4.93,2,.67,1.27-.09,3.05-1.59,3.21-2.58.36-5.15-.99-6.94-2.77-2.08-2.16-3.49-5.25-2.9-8.28.75-2.24,2.83-3.65,4.5-5.18,1.41-1.07,2.9-2.41,4.73-2.6h0Z" style="fill: #deaa87;"/>
      <path id="u" data-name="path870" d="m686.33,453.69c-3.22.35-6.02,2.32-8.36,4.43-3.19,3.06-5.93,6.95-6.56,11.41-.26,1.9.28,3.98,1.83,5.22,1.45,1.57,4.01,1.27,5.48-.11,1.34-1.01,2.52-2.86,4.42-2.56,2.02.62,3,2.73,3.83,4.5,2.49,6.11,2.97,12.8,3.11,19.34.19,4.4,0,8.88.94,13.2.36,1.63,1.46,3.36,3.26,3.55.89.14.91-1.06,1.01-1.67.52-6.32.13-12.68-.17-19-.28-3.22-.17-6.55-1.18-9.65-.83-2.41-3.92-3.2-4.48-5.78-.27-1.29,1.35-2.09,2.45-1.79,1.87.34,3.05,2.11,3.91,3.65,1.95,4.47,2.79,9.36,3.44,14.18.34,2.62.44,5.29.07,7.91-.07,2.16.93,4.43,2.68,5.73.83.63,2.38.63,2.71-.56,1.03-3.05.98-6.33,1.2-9.51.16-5.38.27-10.76.05-16.14-.02-1.51-.78-2.93-2.02-3.79-1.39-1.12-3.18-2.38-3.17-4.36.08-.99,1.32-1.11,2.03-.7,2.42,1.2,4.58,2.96,6.23,5.09,1.35,2.44,1.16,5.34,1.4,8.03.32,5.11.16,10.26.89,15.33.15,1.11.73,2.43,2.01,2.51,1.25.3,2.66.03,3.47-1.04,2.06-2.51,2.33-5.96,2.5-9.07.11-5.39-.68-10.99-3.36-15.74-1.09-1.95-2.8-3.6-3.41-5.78-.16-.84.85-.65,1.3-.4,5.27,2.06,8.96,7.51,9.13,13.13.2,1.72-.04,3.76,1.19,5.14.83.65,1.64-.44,1.95-1.13,2.06-4.24,1.69-9.37-.49-13.49-2.25-4.35-5.58-8.08-9.28-11.25-3.53-2.96-8.13-4.34-12.69-4.46-3.85-.3-7.76-.02-11.56-.68-1.6-.18-2.73-1.4-3.59-2.65-.52-.72-1.24-1.15-2.15-1.05Z" style="fill: #deaa87;"/>
      <path id="v" data-name="path872" d="m285.62,134.39c-1.65.09-3.46.13-4.88,1.1-.54.35-.91,1.11-.39,1.65,1.02,1.16,2.16,2.21,3.04,3.49,1.3,1.61,2.12,3.88,4.2,4.68,1.82.6,3.79.31,5.67.27,2.31-.18,4.74-.34,6.82-1.44.8-.37.59-1.35.53-2.05-.35-1.46-1.56-2.53-2.66-3.46-3.47-2.69-7.82-4.3-12.23-4.23h-.1Z" style="fill: #deaa87;"/>
      <path id="w" data-name="path874" d="m286.02,96.68c-1.05-.04-1.36,1.16-1.43,2-.4,4.36.13,8.74.67,13.06.68,4.61,1.43,9.25,3.07,13.63.98,2.39,2.35,4.95,4.8,6.1.65.23,1.44.57,2.1.25.61-.95.35-2.19.34-3.26-.42-4.62-1.12-9.2-1.62-13.81-.38-2.47-.58-5.05-1.65-7.34-.44-.7-1.09-1.3-1.18-2.17-.35-1.43-.15-2.96-.76-4.34-.7-1.73-1.93-3.54-3.81-4.07-.17-.04-.35-.05-.53-.04Z" style="fill: #deaa87;"/>
      <path id="x" data-name="path876" d="m304.48,130.31c-.67-.02-.48.85-.49,1.28.34,2.57,1.23,5.07,2.43,7.36.63.96,1.34,1.9,1.46,3.08.42,1.95.08,4.11,1.23,5.86,1.26,2.2,3.41,3.75,5.62,4.89,1.08.57,2.7.79,3.51-.34,1.21-1.58,1.12-3.74.46-5.52-1.38-3.89-4.15-7.07-6.81-10.15-2.03-2.2-4.05-4.49-6.55-6.17-.26-.14-.54-.31-.85-.3Z" style="fill: #deaa87;"/>
      <path id="y" data-name="path878" d="m339.4,136.92c-4.75.02-9.08,2.48-12.69,5.37-1.54,1.36-3.34,2.66-4.13,4.62-.87,2.47.73,5.1-.31,7.55-.82,1.87-3.15,2.45-5,2.31-2.91-.27-5.66-1.44-8.17-2.89-1.49-.87-2.82-1.98-3.92-3.31-1.6-1.26-3.77-1.4-5.73-1.3-.77.08-1.96-.04-2.3.86-.32,1.69.49,3.35.46,5.05.13,2.68-1.72,5.32-4.28,6.14-1.77.65-3.77.77-5.52-.05-3.67-1.59-6.73-4.34-9.41-7.25-1.3-1.52-2.65-3.16-3.07-5.16-.05-.97.32-1.99.99-2.7.76-.36,1.45.43,1.99.87,3.13,3.12,5.18,7.22,8.62,10.04,1.06.93,2.56,1.14,3.89.75,1.15-.24,2.45-1.1,2.3-2.43-.14-1.85-1.77-3.09-3.15-4.1-1.96-1.27-4.06-2.37-5.75-4.01-1.42-1.22-2.47-2.78-3.54-4.29-.96-1.21-2.25-2.41-3.85-2.56-1.09-.06-2.24-.05-3.16.62-2.25,1.48-3.32,4.12-4.18,6.56-1.04,3.01-.91,6.42.51,9.29,1.32,2.85,3.37,5.28,5.6,7.45,6.72,6.83,13.45,13.64,20.33,20.3,1.04.86,2.17,2.03,3.64,1.93,1.56-.38,2.72-1.6,4.09-2.37,2.55-1.59,5.12-3.3,8.12-3.88,4.32-1.02,8.77-1.14,13.18-1.58.67-.14.62-1.04.76-1.57.64-4.82.14-9.77,1.46-14.49,1.12-4.01,3.79-7.45,6.94-10.09,1.56-1.33,3.56-2.03,5.6-2.12,2.88-.28,5.81-.04,8.66-.57,1.27-.25,2.88-.85,3.09-2.31.16-1.79-.97-3.36-1.89-4.8-1.86-2.9-4.81-5.31-8.32-5.73-.61-.08-1.22-.12-1.84-.11h0Z" style="fill: #deaa87;"/>
      <path id="z" data-name="path880" d="m506.84,131.7c-11-.04-21.65,4.24-30.57,10.49-7.75,5.49-14.66,12.32-19.73,20.38-2.92,5.03-5.32,10.39-7.03,15.96-.23,1.12-.76,2.4-.26,3.5.65.55,1.37-.43,1.8-.84,2.1-2.42,3.47-5.48,6.13-7.39,4.64-3.61,9.89-6.42,15.33-8.58,1.63-.48,3.46-1.28,5.09-.36,1.1.4,1.44,1.75.85,2.71-1.13,2.07-3.4,3.41-3.95,5.82-1.05,4.47-.27,9.14.83,13.52.05.57.72,1.29,1.18.61,1.54-2.38,2.33-5.17,3.58-7.71,1.39-3.17,3.31-6.35,6.49-7.97,2.8-1.39,5.81-2.41,8.91-2.83,4.3-.36,8.36,1.83,11.64,4.39,3.78,3.02,7.14,6.83,8.68,11.49.55,1.16.85,2.8,2.18,3.32,1.33.13,2.52-.79,3.84-.9,5.22-.92,10.6-.8,15.88-.6,3.09.17,6.22.61,9.03,2,2.65,1.03,5.27,2.43,8.15,2.66,1.14.11,2.38-.73,2.3-1.96.22-4.35-1.65-8.43-3.49-12.25-1.13-2.27-.95-4.88-1.73-7.26-1.73-6.02-3.81-12.05-7.28-17.32-3.56-5.13-8.14-9.43-12.56-13.81-2.31-2.26-4.94-4.38-8.17-5.07-5.6-1.34-11.37-2.18-17.14-2.04h0Z"/>
      <path id="aa" data-name="path882" d="m563.61,185.87c-1.46-.03-2.57,1.34-2.47,2.75-.4,8.05-.31,16.11-.47,24.17-.21,11.17-.21,22.38-1.09,33.52-.21,2.89-.77,5.73-1.59,8.51-.33,1.17-.51,2.73.65,3.52,1.76,1.22,4.05.22,5.52-1,2.58-2.18,4.52-5.07,5.9-8.13,1.74-4.56,1.69-9.54,2.01-14.34.41-9.76.66-19.55.16-29.32-.51-5.76-1.43-11.7-4.4-16.75-.93-1.47-2.36-2.93-4.23-2.92h0Z"/>
      <path id="ab" data-name="path884" d="m578.69,187.47c-1.43.15-3.1.28-4.19,1.33-.82,1.43-.29,3.19-.21,4.74,1.31,9.53,1.08,19.2,1.29,28.81.17,8.06.12,16.14.68,24.18.11.57-.03,1.85.89,1.68.72-.15.72-.95,1.01-1.46,1.53-1.66,3.83-2.33,5.4-3.97,2.96-2.75,5.43-6.17,6.64-10.06.76-3.59.55-7.29.61-10.94-.14-7.54-.04-15.32-2.81-22.46-1.42-3.55-2.73-7.32-5.33-10.2-1.03-1.08-2.45-1.82-3.98-1.67h0Z"/>
      <path id="ac" data-name="path886" d="m312.05,183.78c-4.52,2.49-10.3,4.43-12.7,9.4-.92,4.49,3.3,7.85,6.28,10.51,5.3,4.44,11.77,7.31,16.53,12.41,9.51,8.55,19.51,16.54,28.77,25.38,17.84,16.12,36.14,31.73,54.45,47.31,3.91,3.51,8.46,6.07,13.05,8.54,5.66,3.67,11.44,7.17,17.33,10.43,10.74,6.68,22.86,11.49,32.09,20.37.98.71.59,2.01-.67,1.8-4.91-.1-7.08-6.01-11.7-6.8-2.32-.05-2.31,3.13-3.03,4.7-6.03,22.98-9.62,46.7-18.08,68.98-3.44,7.5-6.47,15.2-10.19,22.58-4.17,8.33-11.36,14.72-19.75,18.63-5.27,3.12-11.29,5.63-15.21,10.5-.63,3.02,1.7,5.87,3.04,8.41,6.68,9.81,15.08,18.37,23.78,26.39,3.34,2.42,7.06,4.29,10.39,6.74,7.39,4.16,15.14,8.04,23.44,9.94,4.57.31,7.55-4.19,10.11-7.3,6.71-8.71,11.78-18.48,17.06-28.07,7.2-11.59,13.66-23.72,19.11-36.24,2.96-7.32,6.38-14.54,9.08-21.91.85-24.22.93-48.49,2.71-72.67.7-10.06,5.65-19.13,9.85-28.09,2-3.5,3.82-8.82,8.57-8.99,3.12.23,2.53,4.17,2.85,6.34.59,16.07,3.49,31.92,4.58,47.95,2.41,29.09,4.55,58.21,8.06,87.2,1.79,14.86,2.29,30.01,6.3,44.51.95,3.63,3.7,6.32,5.16,9.72,4.44,6.88,8.71,14.05,14.47,19.91,1.49.89,3.25-.97,4.74-1.24,2.8-1.78,6.38-.34,9.13-2.27,5.1-2.31,10.69-3.54,15.7-5.98,1.04-2.38-1.07-4.9-1.76-7.13-4.42-9.19-9.19-18.39-11.04-28.52-3.91-13.74-4.44-28.12-5.85-42.26-.7-12.24-1.36-24.53-.82-36.78,0-3.21,3.73-4.56,4.84-7.07-9.73-11.07-19.49-22.18-27.55-34.57-1.6-2.9-4.35-5.69-4.65-9.04,1.31-.3,2.32,1.73,3.21,2.55,4.83,6.66,8.26,14.29,13.74,20.51,14.59,17.38,31.4,32.76,45.57,50.51,6.77,7.08,14.12,13.58,20.8,20.77,9.34,9.73,18.9,19.27,27.28,29.86,1.89,1.74,3.72,5,6.67,4.66,2.23-1.04.93-4.08,2.4-5.72,2.09-3.6,5.32-7.09,9.59-7.77,2.24-.82,5.63-3.03,3.96-5.81-4.5-6.33-10.84-11.15-17-15.78-15.32-10.98-31.01-22.07-42.56-37.2-12.1-14.73-22.18-30.96-33.88-46.01-13.38-18.47-26.41-37.63-34.59-59.04-1.95-5.14-2.81-10.83-4.61-15.88-4.8,3.54-8.43,8.58-13.55,11.79-11.2,7.91-26.12,7.85-38.83,4.15-5.23-1.4-10.12-3.96-15.33-5.31-3.2,1.97-5.72,4.99-9.27,6.44-2,1.48-4.23,3.7-6.96,2.53-11.59-4.36-21.25-12.42-31.36-19.35-18.76-13.39-38.39-25.63-56.24-40.25-17.15-14.93-32.56-31.81-50.07-46.36-4.91-3.69-11.67-2.86-17.42-2.99Zm190.88,129.95c2.65.56,3.07,4.15,2.89,6.41.13,2.51-3.18,4.59-4.99,2.42-1.28-1.72-3.37-4.28-1.58-6.22.82-1.25,2.12-2.48,3.68-2.6Zm-11.87,84.63c2.27.98,4.28,4.01,2.48,6.32-.91,1.58-3.09,3.09-4.72,1.51-1.45-.63-3.6-2.01-2.21-3.79.99-1.65,2.41-3.73,4.45-4.04Zm-32.41,74.46c2.97.34,2.55,4.47,1.03,6.13-1.39,1.9-4.24,3.18-6.46,2.28-.26-2.84,1.63-5.6,3.5-7.62.54-.46,1.22-.8,1.93-.79h0Z"/>
      <path id="ad" data-name="path888" d="m434.49,565.53c-1.67,2.42-2.69,5.29-4.18,7.85-1.37,2.62-2.82,5.2-4.56,7.59-2.99,5.8-4.27,12.29-5.49,18.64-1.24,7.65-1.84,15.39-2.62,23.09,3.22,6,5.99,12.3,9.86,17.92.37.63,1.31,1.46,1.9.58,2.44-3.34,3.89-7.31,5.17-11.22.68-1.43.07-3.46,1.52-4.47.95-.14,2.2-.47,3.03.16.77,1.82-.74,3.62-1.32,5.28-2.26,5.02-5.46,9.89-5.91,15.48-.16,2.06-1.61,3.55-2.85,5.07-1.01,1.41-.75,3.24-1.4,4.81-4.54,15.93-10.78,31.3-16.87,46.68-.37,1.24-1.12,2.46-1.18,3.75,2.44.64,5.07.62,7.58.96,10.67.96,21.46,1.98,31.59,5.7,4.33,1.36,8.45,3.44,12.92,4.32,1.86.31,2.87-1.82,3.06-3.35.23-5.04,2.64-9.62,4.17-14.35,2.35-6.18,4.25-12.55,6.97-18.57.65-1.48,2.26-2.49,2.23-4.26.64-4.08,3.61-7.24,5.15-10.97,2.87-6.17,4.79-12.73,6.85-19.2.49-.79,0-1.77-.94-1.81-1.41-.36-3.16-.03-4.41-.52,2.33-3.16,6.48-3.69,10.06-4.37,4.35-.61,8.85-1.22,13.2-.45.5.04,1.58.55.92,1.13-3.06,2.2-7.03,2.41-10.48,3.75-2.97.9-5.3,3.24-6.45,6.09-2.51,5.68-3.69,11.89-6.8,17.31-3.7,7.59-6.04,15.75-9.15,23.59-2.14,6.08-4.78,12.07-5.93,18.44-.12,2.94-1.59,5.49-3.05,7.95-.81.93-.04,2.06.89,2.5,3.37,1.86,7.02,3.21,10.09,5.61,6.18,4.7,11.54,10.39,16.55,16.29,5.5,6.52,9.78,13.95,13.45,21.62.22.33.78,1.93,1.06.85,3.54-13.74,8.03-27.22,12.51-40.68,1.51-4.58,3.19-9.08,5.04-13.53.9-3.31,1.02-6.78,1.96-10.09,2.44-9.91,5.26-19.74,7.65-29.67,2.1-7.76,3.95-15.61,6.59-23.21,1.38-2.92,2.62-5.9,3.49-9.03,1.65-5.71,3.72-11.31,4.9-17.15,1.22-7.54,3.77-14.81,6.25-22.01,2.35-6.93,5.73-13.44,8.89-20.02.39-1.18,1.42-2.52.87-3.79-1.7-1.09-3.89-1.05-5.82-1.43-15.66-1.98-31.49-1.28-47.23-1.41-17.78.06-35.57-.08-53.31-1.4-6.22-.54-12.57-.53-18.6-2.31-2.78-.85-5.09-2.87-7.84-3.76h0Z"/>
      <path id="ae" data-name="path890" d="m523.97,305.28c-1.97.84-2.66,3.27-3.8,4.92-6.52,12.28-7.99,26.43-9,40.08-1,15.69-.36,31.45-1.59,47.12-1.4,15.24-8.02,29.32-15.04,42.71-2.3,4.37-4.5,8.82-6.34,13.4-4.15,7.02-8.52,13.93-12.53,21.04-5.55,9-11.28,18.15-19.09,25.39-1.65,1.29-3.34,3.2-5.66,2.68-1.54.38-.87,2.55-.99,3.69.67,7.44.32,14.92-.91,22.28-.13,1.69-.57,3.49-.1,5.12,8.29,2.06,16.91,2.24,25.38,2.98,16.63.96,33.29,1.71,49.86,3.55,14.99,1.51,30.07,3.16,45.16,2.34,1.77.2,3.34-2.16,1.79-3.43-1.76-1.22-4.15-.41-6.15-.71-6.49-.17-13.03.39-19.5-.24-2.99-1.52-5.01-4.55-6.33-7.56-.99-2.72,1.41-5.24,3.24-6.96,5.72-4.98,13.7-5.29,20.44-8.18,1.32-.85-.07-2.67-.48-3.67-4.86-7.76-10.07-15.31-14.36-23.41-2.08-3.73-4.11-7.58-4.57-11.89-2.35-8.83-2.69-18.01-3.6-27.07-1.35-14.32-2.08-28.71-4.03-42.96-2.03-10.43-2.04-21.15-2.7-31.75-.49-14.76-1.65-29.49-3.75-44.11-1.18-8.14-1.93-16.42-4.26-24.33-.18-.47-.5-1.1-1.11-1.04h0Z"/>
      <path id="af" data-name="path839" d="m376.04,930.92c-18.7-2.31-40.87-10.99-53.75-21.06-5.21-4.07-19.84-18.63-23.22-23.11-8.01-10.62-18.54-32.2-18.52-37.96,0-1.08-.66-2.62-1.47-3.43-4.08-4.08-4.04-35.65.07-50.26,3.51-12.5,8.86-27.19,10.82-29.72.81-1.04,2.74-4.46,4.29-7.59,2.6-5.25,12.95-16.82,25-27.95,5.92-5.47,24.47-14.63,40.98-20.24,10.98-3.73,13.49-4.1,29.06-4.3l17.05-.22,4.04-8.75c2.22-4.81,6.11-15.29,8.64-23.29s5.53-16.74,6.67-19.42c1.92-4.53,1.92-5.11-.06-8.22-1.17-1.84-3.03-5.28-4.13-7.63-1.1-2.35-3.17-5.85-4.58-7.76-3.14-4.24-3.26-12.09-.44-28.15,1.97-11.22,2.35-12.41,6.21-19.25,2.52-4.47,8.34-16.63,9.69-20.24.52-1.39,1.81-4.52,2.87-6.96,1.06-2.43,2.32-6,2.8-7.92.48-1.92,1.38-3.8,1.99-4.19.62-.38,1.12-1.9,1.12-3.37s.75-3.57,1.66-4.67c2.97-3.57,4.92-14.65,3.96-22.48-1.31-10.64-2.23-12.28-8.34-14.82-5.01-2.08-8.35-3.71-15.62-7.61-10.78-5.79-29.76-24.23-35.64-34.63l-4.51-7.98,2.8-2.98c1.54-1.64,8.2-5.73,14.8-9.1,9.77-4.98,12.82-7.25,16.39-12.22,5.09-7.08,11.84-19.95,11.84-22.57,0-.99.5-2.34,1.11-3.01,1.58-1.72,7.41-20.4,8.45-27.08.48-3.1,1.35-6.52,1.93-7.59.58-1.07,1.61-5.08,2.29-8.9.68-3.83,2.4-11.51,3.81-17.07,3.25-12.82,3.45-19.6.56-19.6-1.15,0-4.42-1.73-7.27-3.85-2.85-2.11-11.44-7.58-19.1-12.15-7.65-4.57-16.84-10.95-20.42-14.18-3.58-3.23-11.15-9.86-16.83-14.73-5.68-4.87-13.85-12.02-18.16-15.9-4.31-3.88-8.92-7.86-10.25-8.85-1.33-.99-5.31-4.85-8.85-8.56-3.54-3.72-9.28-8.84-12.76-11.38-3.48-2.54-8.83-7.05-11.88-10-3.06-2.96-6.42-5.38-7.47-5.38-2.07,0-11.47-6.49-16.04-11.06-1.93-1.93-2.65-3.85-2.24-5.98,1.13-5.92-.86-8.98-11.34-17.43-16.31-13.15-20.61-19.87-19.05-29.73.97-6.13,3.71-10.26,7.42-11.19,1.63-.41,3.29-1.76,3.68-3.01.4-1.25,2.41-2.97,4.47-3.82,3.72-1.54,4.87-4.69,2.55-7-.66-.66-1.9-6.45-2.75-12.86-1.99-14.96-.91-18.07,6.31-18.07,4.4,0,5.17.48,7.02,4.39,1.15,2.41,2.72,9.31,3.49,15.32,1.36,10.5,1.57,11,5.33,12.59,2.16.91,7.13,4.83,11.06,8.71,3.92,3.88,7.93,7.05,8.9,7.05s3.74-1.68,6.15-3.74c3.37-2.88,5.66-3.75,9.92-3.79,4.89-.05,6.19.6,11.07,5.47,9.05,9.05,6.98,16.21-4.56,15.7-6.09-.27-6.94.06-10.43,3.97-3.44,3.85-3.75,4.89-3.24,11.03.31,3.73.09,6.78-.49,6.78s-1.05,1.42-1.05,3.16c0,2.33,3.57,6.7,13.72,16.76,23.5,23.29,41.61,40.03,45.66,42.21,2.14,1.15,7.44,4.73,11.78,7.96,15.64,11.65,27,19.68,34.45,24.35,4.17,2.62,10.1,6.67,13.17,9,6.16,4.68,16.83,10.41,19.36,10.39.89,0,4.12-2,7.18-4.43,4.26-3.39,4.97-4.41,3.04-4.41-7.8,0-27.1-20.25-32.46-34.05-5.17-13.33-5.91-18.51-4.39-31.15.74-6.23,1.47-16.44,1.62-22.7.22-9.42.97-13.16,4.31-21.65,4.65-11.8,8.38-17.42,17.27-26,7.02-6.78,20.78-14.59,28.11-15.97,2.62-.49,10.95-.76,18.51-.59,16.2.36,18.34,1.33,29.31,13.35,8.42,9.23,11.17,14.2,15.89,28.72,2.99,9.2,3.86,10.7,6.06,10.36,1.42-.21,3.88.31,5.47,1.17,1.59.86,5.48,1.42,8.64,1.26,7.1-.37,8.54,1.05,13.96,13.8,3.73,8.75,4.03,10.52,4.01,23.5-.02,14.63-.74,17.32-6.18,23.19-1.64,1.77-2.99,3.59-2.99,4.04s-2.62,1.59-5.81,2.54c-3.29.97-6.38,2.81-7.11,4.25-3.06,5.96-6.36,8.23-11.98,8.23-4.69,0-5.72.48-6.99,3.28-1.26,2.76-1.16,3.47.61,4.46,1.16.65,2.47,3.3,2.91,5.89,2.09,12.19,5.87,20.86,17.77,40.78,6.16,10.31,18.31,27.7,25.18,36.02,2.87,3.48,8.85,11.73,13.28,18.34,4.44,6.61,9.15,13.15,10.47,14.55,1.32,1.39,4.88,5.66,7.91,9.49,3.03,3.83,10.76,10.94,17.17,15.81,6.41,4.87,13.69,10.59,16.18,12.72,2.49,2.12,7.38,5.92,10.85,8.42,7.73,5.58,18.34,16.79,18.34,19.38,0,1.53,1.58,1.84,8.11,1.56,6.77-.29,8.75.13,11.96,2.5,2.12,1.57,4.42,2.85,5.11,2.85s2.68,1.52,4.4,3.38l3.14,3.38,14-2.9c10.75-2.23,14.41-2.56,15.76-1.43,6,4.98,1.14,17.35-7.71,19.63-5,1.29-19.52,8.44-22.64,11.15-1.68,1.46-3.06,3.43-3.06,4.37,0,1.89-3.63,8.02-5.66,9.56-.71.54-2.84.7-4.73.36-2.28-.42-3.8.02-4.52,1.31-.6,1.06-2.89,1.99-5.1,2.05-3.32.09-4.02.62-4.02,3.04,0,3.26-3.83,5.94-6.84,4.78-2.87-1.1-7.07-8.49-7.07-12.44,0-2.95-.39-3.3-2.85-2.56-1.57.47-3.76,1.79-4.88,2.93-3.16,3.24-15.82,32.58-22.46,52.04-2.02,5.91-6.08,15.87-9.04,22.13-2.96,6.26-6.69,15.37-8.29,20.24s-4.94,14.26-7.42,20.87c-2.48,6.61-5.71,16.43-7.18,21.83-1.47,5.4-3.18,10.13-3.8,10.51-.62.38-1.12,1.81-1.12,3.17s-2.32,8.3-5.15,15.42c-6.28,15.79-15.23,46.23-18.87,64.17-1.48,7.3-3.49,16.13-4.47,19.6-2.94,10.44-5.8,41.83-5.53,60.71.35,24.88-.78,27.02-16.26,30.98-4.68,1.2-5.38,1.82-5.38,4.84,0,7.65-16.1,35.06-23.83,40.56-4.56,3.25-11.51,4.99-26.36,6.61-22.77,2.48-29.44,2.75-31.26,1.24-1.35-1.12-3.08-.38-7.89,3.39-3.39,2.65-9.29,6.58-13.12,8.72-6.85,3.83-43.2,16.04-51.85,17.42-7.81,1.24-24.43,1.53-32.25.57h0Zm47.43-8.83c23.31-9.61,27.89-12.47,40.47-25.25,14.15-14.37,18.16-19.83,24.59-33.44,8.86-18.74,9.49-20.38,9.4-24.11-.05-2.05.44-8.27,1.1-13.84,1.24-10.57.12-26.9-2.4-34.78-2.99-9.35-12.96-30.29-16.08-33.76-1.14-1.26-3.74-4.76-5.79-7.78-2.05-3.02-7.17-8.45-11.38-12.07-14.66-12.6-16.22-13.49-35.48-20.29-1.39-.49-5.38-1.93-8.85-3.2-8.08-2.95-28.2-5.37-37.68-4.54-13.82,1.21-26.06,5.16-46.11,14.9-8.24,4-12.95,7.51-22.4,16.69-11.63,11.3-14.87,15.9-23.18,32.96-7.1,14.59-9.55,26.6-9.67,47.43-.07,12.07.46,17.46,2.21,22.77,1.26,3.83,3.06,9.23,3.98,12.02,5.82,17.53,11.61,27.09,23.37,38.58,12.19,11.91,21.02,18.23,31.04,22.2,4.86,1.93,9.51,4.18,10.33,5,3.84,3.84,35.27,7.02,52.93,5.36,6.66-.63,13.36-2.29,19.6-4.86h0Zm-43.15-56.1c-24.71-6.81-40.66-28.59-38.69-52.82,1.86-22.87,14.21-39.73,34.58-47.21,8.29-3.04,11.83-3.64,21.32-3.6,10.35.05,12.19.45,20.2,4.38,11.33,5.56,19.93,14.35,25.48,26.03,5.17,10.89,6.02,19.03,3.42,32.81-2.18,11.56-5.91,18.47-14.49,26.88-13.36,13.08-33.97,18.46-51.83,13.53h0Zm33.66-5.29c3.48-1.12,7.57-3.33,9.1-4.92,1.53-1.59,3.24-3.08,3.8-3.33,2.38-1.03,9.47-11.49,13.69-20.18,4.34-8.94,4.5-9.77,3.74-18.84-2.11-25.14-11.66-37.71-34.63-45.61-6.77-2.33-9.98-2.68-19.64-2.18-10.08.53-12.26,1.07-17.07,4.27-3.03,2.02-6.43,4.24-7.55,4.94-3.08,1.93-8.11,7.05-11.91,12.13-5.25,7.01-8.07,16.83-8.32,28.97-.2,9.61.19,11.6,3.61,18.77,6.32,13.22,13.36,20.05,26.6,25.8,10.99,4.78,24.06,4.83,38.58.17h0Zm-21.5-28.84c-2.09-.94-5.74-3.38-8.11-5.41-3.79-3.25-4.3-4.4-4.23-9.54.16-10.5,7.14-17.38,17.63-17.38,3.68,0,5.5.97,9.27,4.93,5.7,5.99,6.65,10.14,4.11,18-1.71,5.31-2.63,6.29-8.01,8.6-7.07,3.04-5.91,2.95-10.67.8h0Zm12.61-5.27c3.2-2.34,4-11.72,1.43-16.7-2.39-4.62-5.5-6.57-10.48-6.56-8.21.01-15.18,12.01-10.83,18.64,3.81,5.81,14.77,8.36,19.88,4.62Zm64.84,75.39c22.4-17.88,35.61-37.56,43.74-65.15,4.37-14.83,3.57-45.47-1.45-55.66-1.37-2.79-3.63-8.29-5.02-12.23-5.93-16.87-21.6-35.59-36.05-43.06-8.85-4.57-30.53-12.04-37.56-12.94l-5.69-.73,7.7,2.95c15.66,5.99,37.25,23.48,47.19,38.2,15.61,23.13,23.13,54.05,19.15,78.7-3.41,21.11-7.54,32.18-18.19,48.83-6.42,10.04-22.42,26.4-29.24,29.91-3.15,1.62-5.74,3.38-5.74,3.92,0,1.81,11.94-5.38,21.16-12.74h0Zm28.02-5.01c2.52-.66,6-1.5,7.74-1.85,7.15-1.46,20.11-11.62,26.45-20.72,3.35-4.82,11.49-21.19,11.49-23.12,0-.86-5.02-1.06-14.73-.58-16.85.82-16.08.33-21.57,13.74-3.32,8.11-8.58,15.5-18.77,26.4-2.4,2.57-4.37,5.27-4.37,6.01,0,1.67,7.67,1.74,13.77.13h0Zm33.03-5.47c8.95-3.03,19.8-17.83,25.88-35.29,2.58-7.41,2.6-7.37-2.96-7.37-4.61,0-8.18,2.18-7.55,4.61.15.59-.68,3.29-1.85,5.98-1.17,2.69-2.13,5.12-2.13,5.38,0,1.64-12.68,18.44-17.26,22.86-3.03,2.92-5.51,5.59-5.51,5.92,0,.83,5.99-.28,11.38-2.1h0Zm40.2-47.72c2.81-1.04,5-3.19,6.76-6.65,2.31-4.52,2.51-6.51,1.8-17.25-.92-13.81,1.78-46.34,5-60.2,1.94-8.35,4.67-20.32,8.71-38.18.97-4.3,2.92-11.42,4.33-15.81s2.97-10.26,3.47-13.04c.5-2.78,2.76-9.61,5.03-15.18,2.27-5.57,5.94-15.81,8.16-22.77,2.22-6.96,5.41-16.22,7.09-20.58,1.68-4.36,3.06-8.54,3.06-9.29s.77-3.16,1.71-5.35c2.67-6.24,6.86-17.58,7.77-21.06,1.13-4.31,10.73-26.55,12.91-29.91.97-1.49,2.94-6.9,4.37-12.02,1.44-5.11,4.54-13.44,6.9-18.5,2.36-5.06,4.28-9.81,4.28-10.56s.79-2.87,1.76-4.72c3.11-5.92,6.24-14.12,5.63-14.72-.32-.32-3.4.48-6.84,1.79-3.44,1.31-8.89,2.77-12.13,3.26-5.85.88-5.9.93-9.96,9.93-2.24,4.98-6.51,14.18-9.47,20.46-2.96,6.28-6.28,14.04-7.37,17.25-1.09,3.21-4.06,10.31-6.6,15.78-4.13,8.9-6.88,15.48-14.44,34.61-1.24,3.13-5.64,12.81-9.8,21.5-4.15,8.7-8.58,18.66-9.84,22.13-1.26,3.48-4.41,10.59-6.99,15.81-2.59,5.22-5.13,10.91-5.65,12.65-.52,1.74-2.26,6.07-3.87,9.63-1.61,3.56-3.58,8.97-4.4,12.02-1.38,5.18-5.21,15.26-15.09,39.69-2.25,5.57-5.98,17.52-8.28,26.56-2.31,9.04-5.05,18.72-6.11,21.5-1.05,2.78-2.28,8.14-2.72,11.9-.86,7.27-2.9,12.17-7.77,18.68-2.62,3.5-6.74,16.7-6.8,21.76-.01,1.44,4.36,1.63,25.59,1.08,15.34-.39,27.28-1.28,29.77-2.2h0Zm-31.25-21.5c-3.08-.35-5.74-1.2-5.92-1.9-.18-.7,1.2-5.82,3.06-11.38l3.39-10.12,14.97-1.11q18.9-1.4,17.39,12.22c-1.51,13.48-1.86,13.77-15.81,13.31-6.32-.21-14.01-.67-17.08-1.02h0Zm28.23-5.27c.33-1.62.9-6.01,1.27-9.76l.67-6.81-12.09.89c-6.65.49-12.84,1.18-13.76,1.53-1.75.67-3.14,4.68-3.97,11.43-.57,4.67-.77,4.61,16.25,5.25,10.67.4,11.04.32,11.62-2.53Zm-45.39-1.08c1.09-2.1,3.1-9.19,4.47-15.75,1.37-6.56,3.1-13.52,3.84-15.46.74-1.94,1.93-6.65,2.64-10.47.71-3.81,2.09-8.48,3.07-10.37,2.05-3.97,2.38-11.16.51-11.16-.7,0-1.26-1.48-1.26-3.29s-.88-5.14-1.96-7.41c-2.43-5.11-9.52-12.53-10.7-11.17-.85.97-2.43,6.13-7.88,25.66-1.46,5.22-3.2,9.85-3.87,10.29-.73.48.09,4.28,2.06,9.49,3.79,10.02,6.01,22.68,6.12,34.91.04,4.7.28,8.55.53,8.55s1.34-1.72,2.43-3.83h0Zm-5.57-79.02c3.51-11.13,7.2-21.75,8.18-23.59.99-1.85,1.8-4.69,1.81-6.32,0-1.63,1.45-8.09,3.21-14.35,1.76-6.26,3.71-13.66,4.33-16.44.62-2.78,1.69-7.05,2.37-9.49.68-2.43,2.16-7.81,3.29-11.94,1.13-4.13,2.5-8.12,3.04-8.85.54-.74,1.74-3.9,2.66-7.03.92-3.13,2.45-8.13,3.39-11.11.94-2.98,1.72-6.4,1.72-7.59,0-1.19,1.65-7.29,3.65-13.55,3.31-10.35,5.58-15.8,11-26.42,1.03-2.01,1.62-3.89,1.33-4.19-1.62-1.62-20.36-3.07-37.49-2.9-35.37.36-43.39.23-64.8-1.03-17.98-1.06-21.86-1.65-25.77-3.96-2.53-1.5-4.68-2.55-4.76-2.35-1.3,3.06-6.6,13.18-7.15,13.65-2.96,2.56-6.61,15.79-7.89,28.61l-1.45,14.51,4.85,9.43c2.67,5.19,5.32,9.43,5.89,9.43,1.36,0,6.22-11.01,6.22-14.07,0-1.53.9-2.37,2.53-2.37,3.38,0,3.14,1.85-1.31,10.12-2.06,3.83-3.74,8.45-3.74,10.28,0,1.83-.85,4.03-1.9,4.9s-1.9,2.36-1.9,3.32c0,2.86-8.21,26.76-13.8,40.2-2.87,6.89-5.06,12.65-4.88,12.8.18.15,4.6.64,9.82,1.08,15.22,1.29,22.76,2.85,33.21,6.89,9.2,3.56,9.89,3.65,11.02,1.54.66-1.24.94-2.52.61-2.85-.33-.33.87-4.53,2.67-9.34,1.8-4.81,4.45-12.16,5.9-16.33,1.45-4.17,3.11-7.78,3.7-8.01.59-.23,1.06-1.43,1.06-2.67s1.34-4.22,2.97-6.62c1.63-2.41,4.23-8.32,5.77-13.14,1.54-4.82,3.09-9.48,3.46-10.35.44-1.05-.54-1.58-2.89-1.58-3.51,0-3.52-.02-1.05-2.38,3.25-3.1,23.36-5.07,23.36-2.28,0,1.06-2.69,2.33-6.99,3.29-7.93,1.78-9.66,3.67-12.73,14.02-1.1,3.72-2.8,7.97-3.77,9.45-.97,1.48-2.85,5.8-4.17,9.58-1.32,3.79-3.81,10.59-5.52,15.11-4.3,11.33-6.02,16.87-6.02,19.42,0,1.19-.92,3.56-2.03,5.27-2.02,3.08-1.98,3.13,3.82,5.61,10.77,4.62,27.46,23.06,34.59,38.24l2.2,4.68.99-4.04c.54-2.22,3.86-13.15,7.37-24.28h0Zm25.96,2.95c-.56-7.42-3.69-13.68-9.98-19.9l-5.2-5.14-1.57,4.58c-1.55,4.5-1.47,4.7,4.69,12.1,3.67,4.41,6.88,9.81,7.74,13.05,1.34,5,1.63,5.3,3.1,3.2.92-1.32,1.45-4.73,1.21-7.88h0Zm13.83-32.23c2.34-7.06,5.62-15.89,7.27-19.6,5.22-11.74,11.17-25.43,14.95-34.43,4.14-9.87,8.86-20.19,17.01-37.22,3.1-6.47,10.98-24.97,17.53-41.11,6.54-16.14,13.84-33.61,16.21-38.83,5.64-12.41,7.27-16.34,7.27-17.57,0-.55-6.4,1.17-14.23,3.84-7.83,2.66-15.4,4.85-16.82,4.86-1.43,0-3.15.58-3.84,1.27-1.06,1.06-8.59,3.24-23.5,6.8-3.22.77-3.32,1.02-2.09,5.47,2.78,10.06.44,25.28-5.6,36.45-8.43,15.57-14.44,30.72-17.34,43.64-1.33,5.92-8.45,29.64-14.74,49.06-.96,2.98-1.75,6.4-1.75,7.59s-1.71,8.15-3.79,15.45c-2.09,7.3-3.79,14.13-3.79,15.18s1.85,3.98,4.11,6.52c2.26,2.54,6.1,7.81,8.54,11.69l4.43,7.07,2.97-6.63c1.63-3.65,4.89-12.42,7.23-19.48h0Zm-20.32-137.63c9.04.02,20.02.23,24.4.48,8.57.48,11.52-1.27,11.6-6.91.02-1.43.57-3.13,1.21-3.79,1.19-1.22-.12-11.33-1.67-12.87-.45-.45-10.91-1.24-23.24-1.76-12.33-.52-26.76-1.56-32.06-2.31-5.3-.75-16.11-1.61-24.03-1.92-7.92-.31-20.99-.93-29.04-1.39-14.34-.82-14.71-.77-18,2.27-4.22,3.91-8.4,19.65-5.69,21.41,4.03,2.63,15.65,4.78,32.51,6.01,10.02.73,18.4,1.52,18.63,1.75.23.23,6.83.1,14.67-.29,7.84-.39,21.65-.7,30.7-.68h0Zm-34.92-5.39c-6.96-.44-7.12-.54-8.68-5.27-2.62-7.93-.67-9.95,10.13-10.46,4.91-.23,9.47.12,10.13.78.66.66,1.2,4.5,1.2,8.54,0,6.84-.19,7.32-2.85,7.1-1.57-.13-6.04-.44-9.94-.69Zm6.22-4.04c2.43-.07,2.86-.68,2.53-3.52-.32-2.77-1.27-3.64-4.89-4.49-5.53-1.3-11.55.65-10.67,3.46.33,1.07.87,2.79,1.2,3.83.42,1.33,1.82,1.73,4.74,1.35,2.28-.3,5.47-.58,7.08-.63h0Zm63.47-20.02c0-1.97-1.35-2.15-13.24-1.77-13.04.42-13.28.38-16.44-3.03-1.76-1.9-3.21-4.69-3.21-6.2,0-4.63,6.44-9.49,15.32-11.57,4.44-1.04,8.51-2.32,9.05-2.86.54-.54-.43-2.93-2.16-5.32-6.52-9.02-17.15-27.58-17.15-29.95,0-1.36-.55-4.12-1.23-6.13-.68-2.02-1.85-11.35-2.62-20.74-3.17-39.06-3.62-43.55-4.85-49.15-.71-3.23-1.63-15.54-2.06-27.37-.42-11.83-1.27-25.49-1.88-30.36-2.98-23.76-3.79-29.5-4.86-34.52-1.47-6.87-1.98-7.33-4.23-3.78-7.95,12.55-11.21,32.12-11.1,66.76.1,30.03-2.5,40.33-17.05,67.75-2.49,4.68-4.52,9.04-4.52,9.68s-1.61,3.54-3.57,6.45c-1.96,2.91-5.77,9.27-8.45,14.14-8.9,16.15-22.07,31.77-25.63,30.4-1.63-.63-1.8.36-1.15,6.57.43,4.02.16,10.89-.59,15.28-.75,4.39-1.13,8.21-.83,8.51,1.18,1.18,19.12,3.01,36.43,3.73,10.09.41,24.32,1.38,31.62,2.15,7.3.77,16.98,1.78,21.5,2.24,4.52.46,13.77.95,20.55,1.07,10.95.2,12.33-.02,12.33-1.97h0Zm2.1-8.33c5.45-1.69,16.46-4.88,24.46-7.09,8-2.2,17.68-4.88,21.5-5.95,3.83-1.07,7.5-2.45,8.16-3.08.66-.63,2.11-1.14,3.21-1.14s4.18-1.11,6.83-2.46c2.65-1.35,8.6-3.33,13.23-4.4,11.87-2.74,33.28-10.41,34.52-12.37,1.45-2.28,1.34-5.09-.46-11.82-1.63-6.09-1.41-6.01-9.2-3.24-2.09.74-9.49,3.07-16.44,5.18-6.96,2.11-16.06,5.18-20.24,6.83-4.17,1.65-13.85,5.02-21.5,7.5-7.65,2.48-19.6,6.58-26.56,9.11-6.96,2.54-13.79,4.91-15.18,5.27-1.39.36-5.38,1.97-8.85,3.57-3.48,1.61-9.6,3.63-13.61,4.5-7.8,1.7-10.25,3.51-9.56,7.09,1.12,5.8,15.23,6.99,29.7,2.49h0Zm-.9-21.6c1.7-.94,3.85-1.43,4.76-1.08.91.35,2.37.06,3.23-.65.86-.71,4.83-2.23,8.81-3.39,3.99-1.15,7.59-2.65,8-3.32.41-.67-.9-4.19-2.91-7.82-4.78-8.6-9.09-19.48-9.73-24.59-.28-2.24-.87-4.64-1.3-5.34-2.42-3.91-6.36-44.77-6.36-65.93,0-11.52.26-12.98,2.71-14.96l2.71-2.2-9.29-10.31c-9.06-10.06-23.33-30.25-23.33-33.02s2.27-1.27,5.52,3.65c1.83,2.77,3.33,5.27,3.33,5.56s2.04,3.58,4.54,7.3c4.38,6.53,8.75,11.4,32.14,35.86,5.99,6.26,12.62,13.79,14.73,16.74,2.12,2.95,5.79,6.93,8.16,8.85,3.69,2.99,10.57,9.99,32.22,32.73,2.14,2.24,5.45,6.13,7.37,8.64,7.02,9.21,10.88,11.26,10.88,5.78,0-3.34,6.07-10.14,9.06-10.14,2.54,0,6.14-2.75,6.1-4.65-.04-1.9-8.12-10.08-14.26-14.44-3.33-2.37-8.48-6.01-11.43-8.1-10.77-7.6-23.45-18.36-27.89-23.66-2.5-2.99-7.16-8.56-10.35-12.39-3.19-3.83-8.99-11.79-12.89-17.71-3.9-5.91-10.04-14.45-13.64-18.97-3.61-4.52-8.2-10.72-10.21-13.77-2.01-3.05-6.67-10.17-10.36-15.81-9.56-14.61-17.23-30.54-19.84-41.18l-2.25-9.18-5.3,5.69c-13.82,14.84-33.9,17.19-57.82,6.77-4.52-1.97-4.71-1.94-7.59,1.09-1.62,1.71-3.59,3.12-4.38,3.13-.78.01-2.13.88-3,1.92-.87,1.04-2.63,1.9-3.92,1.9-3.17,0-15.25-6.65-23.84-13.12-3.86-2.91-10.38-7.55-14.48-10.31s-11.93-8.16-17.37-11.98c-5.45-3.83-15.18-10.6-21.62-15.05-6.44-4.45-16.62-12.99-22.62-18.97-13.15-13.13-36.86-35.28-40.44-37.78-1.42-1-5.53-2.05-9.14-2.35-5.43-.45-7.64.06-12.88,2.98-8.52,4.74-9.13,8.73-2.3,14.99,2.66,2.43,6.99,5.57,9.63,6.96,2.64,1.4,6.05,4,7.59,5.8,1.53,1.79,5.35,5.21,8.48,7.6,3.13,2.39,9.47,7.87,14.08,12.18,10.19,9.52,22.48,20.47,30.31,27.01,3.2,2.67,11.65,9.98,18.79,16.24,13.58,11.92,20.18,17.08,21.86,17.08.55,0,4.33,2.28,8.41,5.06,4.08,2.78,7.82,5.06,8.33,5.06s2.69,1.26,4.86,2.81,7.22,4.36,11.21,6.25c8.11,3.84,21.28,13.13,21.28,15.01,0,2.51-6.07,1.17-7.99-1.77-1.08-1.65-3.13-3.3-4.56-3.67-3.03-.79-2.48-2.52-10.25,32.59-4.94,22.33-10.28,39.86-14.44,47.43-.96,1.74-2.83,6.01-4.15,9.49-3.57,9.38-11.03,19.01-17.17,22.17-15.98,8.24-21.16,11.77-21.09,14.38.02.76,1.3,3.79,2.85,6.72,2.96,5.62,24.01,28.18,26.29,28.18.73,0,3.44,1.68,6,3.73,5.13,4.1,22.04,11.43,26.39,11.44,1.67,0,4.54-2.09,7.31-5.33,4.37-5.1,15.87-23.61,15.87-25.53,0-.51,1.34-2.73,2.98-4.95,3.42-4.63,16-28.44,18.49-35.01.92-2.43,3.41-8.41,5.52-13.28l3.84-8.85.97-34.78c1.1-39.53,1.51-43.72,5.16-52.49,6.71-16.09,10.18-22.17,13.09-22.9,4.62-1.16,5.61.36,5.61,8.64,0,4.25.53,11.19,1.18,15.42,1.53,9.95,3.48,30.64,5.77,61.45,1.01,13.57,2.72,31.78,3.8,40.47,1.08,8.7,2.53,22.36,3.22,30.36,1.53,17.65,4.47,32.15,6.95,34.2,1.01.84,1.83,2.07,1.83,2.74,0,1.97,14.43,22.44,15.81,22.43.7,0,2.66-.78,4.36-1.73h0Zm-120.09-29.76c0-2.43,2.92-7.53,4.71-8.22,4.19-1.61,5.77,3.82,2.15,7.43-2.17,2.17-6.87,2.71-6.87.78h0Zm35.1-74.78c-2.89-1.68-2.79-3.11.42-6.33,2.47-2.47,2.77-2.5,4.97-.51,2.35,2.13,2.1,5.42-.56,7.24-1.74,1.19-2.16,1.16-4.84-.4h0Zm11.74-84.56c-1.77-3.31-1.65-4.62.62-6.9,3.63-3.63,7.58.83,6.02,6.81-.84,3.23-4.94,3.28-6.65.08h0Zm195.72,175.65c-.57-13.77-.89-15.43-3.34-17.15-3.4-2.38-3.52-5.55-.21-5.55,1.47,0,3.27,1.49,4.37,3.63,2.28,4.41,4.59,17.94,3.67,21.48-.84,3.22,2.3,7.97,4.41,6.66,1.02-.63,1.64-5.53,1.84-14.62.28-12.93.14-13.77-2.55-15.56-3.06-2.04-3.86-5.41-1.26-5.34.87.02,3.13,1.4,5.01,3.06,3.24,2.85,3.45,3.73,3.79,15.45.34,11.71.53,12.46,3.14,12.83,6.42.91,6.99-19.02.78-27.16-3.58-4.69-3.3-6.46.67-4.33,4.58,2.45,7.8,7.78,7.8,12.93s1.63,6.52,3.03,2.89c2.19-5.7.75-11.66-4.28-17.74-6.98-8.45-11.33-10.49-22.45-10.56-7.6-.04-9.41-.46-10.66-2.46-1.23-1.97-2.1-2.19-4.75-1.19-8.4,3.16-15.28,14.82-11.46,19.42,2.12,2.56,4.5,2.37,7.24-.58,5.38-5.77,10.45,5.89,10.45,24.03,0,11.53,1,15.11,4.22,15.11.71,0,.93-6.16.56-15.25h0Zm-86.3,1.41c.66-.66,3.48-1.75,6.26-2.44,2.78-.68,10.75-3.33,17.71-5.87,6.96-2.55,16.63-5.85,21.5-7.35,9.92-3.04,10.71-3.71,10.73-9.08,0-2.95-2.03-6.05-9.15-13.91-5.04-5.56-9.73-10.87-10.43-11.8-.7-.92-8.81-9.24-18.03-18.49-9.22-9.24-18.49-18.99-20.61-21.65-4.84-6.09-21.56-23.67-21.97-23.11-4.37,5.89-4.44,6.35-3.78,27.5.36,11.54,1.47,25.53,2.46,31.09,1,5.57,2.66,14.79,3.69,20.51,3.21,17.71,12.13,35.78,17.68,35.78,1.51,0,3.28-.54,3.94-1.19h0Zm129.01-17.61c.66-.6,3.96-2.12,7.32-3.38,9.52-3.54,12.91-11.98,4.81-11.96-5.13,0-18.21,2.34-19.31,3.44-1.36,1.36,2.65,12.99,4.48,12.99.82,0,2.04-.49,2.7-1.1h0Zm-211.56-195.04c5.61-1.87,9.6-4.31,13.94-8.54,10.6-10.32,14.46-22.86,15.64-50.82.64-15.04.4-19.65-1.32-25.57-2.05-7.04-2.26-7.27-8.27-9.06-3.39-1.01-9.37-2.23-13.29-2.72-6.38-.8-7.64-.55-12.15,2.44l-5.03,3.33-.05-2.86c-.12-6.7-7.36-14.93-16.42-18.69-3.06-1.27-4.43-1.14-8.45.83-6.02,2.94-9.08,8.96-9.16,17.99-.06,6.58-.14,6.74-2.67,5.06-4.56-3.03-9.28-14.88-9.28-23.29v-4.17l-4.63,2.36c-5.04,2.57-11.67,11.79-14.79,20.57-1.75,4.92-5.21,23.86-5.32,29.08-.02,1.24.95,2.59,2.17,3,1.22.41,4.67,1.89,7.68,3.28,3.01,1.39,6.84,2.54,8.51,2.54,4.05,0,6.26,2.64,3.86,4.63-1.39,1.16-3.42.91-9.14-1.1-10.26-3.61-12.11-3.46-11.14.89,2.37,10.62,6.94,19.38,16.2,31.03,5.37,6.75,14.53,12.6,18.28,11.66,1.64-.41,3.77-.09,4.75.72,2.66,2.21,12.41-.63,20.75-6.03,11.79-7.63,18.95-18.89,26.51-41.68,4.43-13.34,4.77-18.18,1.52-21.13-2.38-2.15-9.6-1.75-11.06.61-.97,1.57-6.86,1.37-6.86-.23,0-2.12,10.69-6.28,16.84-6.55,8.83-.38,19.83,8.25,11.93,9.37-2.32.33-2.99,1.45-3.64,6.1-1.96,13.99-15.2,42.32-23.68,50.66-5.31,5.22-11,8.74-18.19,11.25-7.26,2.53-7.09,2.79,3.74,5.77,8.67,2.39,13.31,2.23,22.21-.73h0Zm-53.14-19.86c-1.55-1.2-3.17-3.93-3.59-6.07-.66-3.34-.13-4.44,3.85-7.93,4.17-3.66,6.99-4.29,6.99-1.56,0,.56-1.47,2.49-3.27,4.29-4.08,4.08-3.61,7.69,1.07,8.23,2.45.28,3.47,1.12,3.47,2.85,0,3.13-4.59,3.24-8.51.2h0Zm16.97-22.61c-2.69-2.69-.18-6.58,8.76-13.58,7.38-5.78,9.85-7.1,11.01-5.92,1.16,1.18.64,2.24-2.3,4.68-2.09,1.74-6.68,5.98-10.2,9.42-3.52,3.44-6.8,5.87-7.27,5.39Zm77.26,9.99c3.88-5.61,4.21-7.52,4.83-28.13.59-19.73-.41-28.45-4.1-35.74-2.2-4.35-6.71-4.77-6.85-.63-.05,1.57-.25,15.37-.43,30.67-.21,17.88-.89,29.58-1.91,32.74-1.27,3.97-1.26,5.11.04,5.92,2.16,1.33,5.46-.56,8.42-4.83h0Zm10.41-6.44c0-.58,1.4-1.7,3.11-2.48,1.71-.78,4.62-3.7,6.47-6.5,3.13-4.73,3.35-5.98,3.22-18.32-.11-10.02-.78-14.94-2.75-20.22-3.71-9.92-6.25-12.73-10.56-11.65-3.43.86-3.45.93-2.43,8.1.57,3.97,1.03,17.33,1.03,29.68s.43,22.45.95,22.45c.52,0,.95-.48.95-1.06h0Zm-20.95-60.6c-.46-2.61-1.62-6-2.59-7.54-.97-1.54-1.76-4.03-1.76-5.53s-1.57-6.77-3.48-11.71c-2.78-7.18-5.25-10.8-12.33-18.05-8.56-8.76-9.14-9.12-17.53-10.64-13.17-2.39-23.62-.97-34.96,4.74-12.37,6.23-24.48,18.16-29.88,29.44-6.52,13.62-6.79,20.21-.4,9.69,2.79-4.59,19.06-13.54,22.82-12.55,3.1.81,3.05,3.14-.13,6.02-2.6,2.35-3.08,7.45-1.43,15.07.77,3.57.89,3.47,3.71-3.34,3.38-8.15,5.29-10.04,12.43-12.29,4.02-1.26,6.19-1.31,9.49-.2,6.08,2.06,13.09,8.83,14.95,14.46,1.25,3.79,2.03,4.6,3.68,3.83,4.19-1.97,21.36-1.99,25.73-.03,10.84,4.87,12.74,4.64,11.69-1.37h0Zm-249.31-4.82c2.93-1.63,7.51-2.42,17.48-3.04.45-.03.86-3.47.92-7.65.12-8.33,1.94-12.88,7.1-17.7,2.78-2.59,4.65-3.16,10.54-3.16,8.43,0,9.69-2.01,5.15-8.15-5.26-7.12-14.55-6.28-23.67,2.12-2.36,2.18-2.9,3.66-2.34,6.46.85,4.24-.95,6.53-5.14,6.53-3.56,0-10.66-3.45-12.08-5.86-.56-.95-2.74-1.73-4.84-1.73-3.62,0-3.78.22-2.98,3.88,1.1,5.02-2.08,8.77-7.44,8.77-4.99,0-16.02-10.29-15.04-14.03.95-3.63,2.37-2.97,6.94,3.22,4.54,6.15,6.3,7.33,9.27,6.19,3.13-1.2,1.57-4.55-3.34-7.13-2.49-1.31-5.51-4.04-6.71-6.07-2.96-5.01-7.62-4.98-10.23.07-4.02,7.77-2.49,13.11,6.17,21.54,3.21,3.13,9.36,9.25,13.65,13.6,7.36,7.46,7.95,7.8,10.42,6.01,1.44-1.04,4.23-2.79,6.19-3.88h0Zm11.38-31.07c.43-1.63-.44-4.48-2.2-7.27-3.09-4.89-10.69-12.81-12.29-12.81-1.1,0,1.23,7.61,2.88,9.42.6.66,1.09,2.75,1.09,4.65,0,2.22,1.19,4.38,3.33,6.07,4.24,3.34,6.31,3.32,7.19-.06h0Zm-18.44-7.09c.97-2.93-5.46-7.71-11.63-8.63-5.94-.89-10.55.9-7.61,2.96.71.49,2.3,2.49,3.54,4.44,2.06,3.23,2.83,3.51,8.73,3.16,3.67-.22,6.69-1.05,6.98-1.92Zm-5.19-16.48c-.37-2.61-1.03-8.01-1.46-12-.43-3.99-1.31-7.58-1.96-7.98-.65-.4-1.18-2.08-1.18-3.72,0-3.45-3.37-7.38-5.31-6.19-1.67,1.03-.32,16.39,2.22,25.41,1.66,5.88,4.2,9.07,7.31,9.18.58.02.75-2.1.38-4.7h0Z" style="stroke: #fff; stroke-miterlimit: 10;"/>
    </g>
  </g>
</svg>