<?xml version="1.0" encoding="UTF-8" standalone="no"?>
<!-- Created with Inkscape (http://www.inkscape.org/) -->

<svg
   version="1.1"
   id="svg3106"
   xml:space="preserve"
   width="1066.6667"
   height="1066.6667"
   viewBox="0 0 1066.6667 1066.6667"
   sodipodi:docname="shark-publicdomainvectors.org.svg"
   inkscape:version="1.1.2 (b8e25be833, 2022-02-05)"
   xmlns:inkscape="http://www.inkscape.org/namespaces/inkscape"
   xmlns:sodipodi="http://sodipodi.sourceforge.net/DTD/sodipodi-0.dtd"
   xmlns="http://www.w3.org/2000/svg"
   xmlns:svg="http://www.w3.org/2000/svg"><defs
     id="defs3110"><clipPath
       clipPathUnits="userSpaceOnUse"
       id="clipPath3120"><path
         d="M 0,800 H 800 V 0 H 0 Z"
         id="path3118" /></clipPath></defs><sodipodi:namedview
     id="namedview3108"
     pagecolor="#ffffff"
     bordercolor="#666666"
     borderopacity="1.0"
     inkscape:pageshadow="2"
     inkscape:pageopacity="0.0"
     inkscape:pagecheckerboard="0"
     showgrid="false"
     inkscape:zoom="0.77906244"
     inkscape:cx="533.33337"
     inkscape:cy="533.33337"
     inkscape:window-width="1920"
     inkscape:window-height="1018"
     inkscape:window-x="-8"
     inkscape:window-y="-8"
     inkscape:window-maximized="1"
     inkscape:current-layer="g3112" /><g
     id="g3112"
     inkscape:groupmode="layer"
     inkscape:label="shark-publicdomainvectors.org"
     transform="matrix(1.3333333,0,0,-1.3333333,0,1066.6667)"><g
       id="g3114"><g
         id="g3116"
         clip-path="url(#clipPath3120)"><path
           d="m 523.777,590.277 c 1.678,-0.418 3.352,-0.848 5.024,-1.297 25.892,-6.938 51.299,-17.655 74.64,-32.987 24.903,-16.36 18.981,-40.876 -11.671,-31.38 -9.338,2.894 -18.707,5.462 -28.18,7.686 l 16.828,-15.926 c 30.682,-29.036 52.434,-63.859 62.82,-101.441 9.977,-36.1 9.477,-74.718 -3.644,-113.183 -3.399,-9.965 -4.848,-19.553 -4.143,-28.929 0.703,-9.338 3.551,-18.535 8.742,-27.763 l 36.539,-64.915 c 2.188,-3.883 2.877,-8.216 2.186,-12.321 -1.463,-8.663 -8.955,-15.296 -17.732,-15.684 -4.18,-0.186 -8.405,1.029 -11.991,3.675 l -8.718,6.43 c -19.903,14.68 -40.034,26.011 -61.288,34.345 -21.257,8.336 -43.718,13.708 -68.277,16.469 l -28.808,3.235 c -9.022,1.015 -15.965,8.212 -16.645,17.266 -0.682,9.066 5.107,17.209 13.887,19.562 l 72.892,19.534 c 14.487,3.881 23.569,17.789 21.33,32.616 l -2.927,19.382 c -3.903,25.843 -16.995,46.561 -38.692,61.143 -19.56,13.143 -41.506,18.126 -64.775,14.086 -22.602,-3.924 -45.106,-3.982 -66.117,1.128 -19.291,4.689 -37.268,13.703 -52.858,28.027 l -4.708,4.324 c -8.565,-6.191 -15.729,-12.497 -22.128,-19.389 -7.26,-7.819 -13.588,-16.438 -19.893,-26.532 -5.104,-8.166 -13.887,-12.888 -23.42,-9.925 -9.255,2.876 -14.865,11.798 -14.868,21.315 -0.006,18.493 0.962,36.193 3.343,52.734 2.208,15.328 5.637,29.668 10.635,42.738 l -12.448,11.435 c -39.383,36.183 -47.189,56.256 -59.717,88.487 -4.161,10.699 -8.198,20.723 -13.104,31.094 -13.817,29.208 -43.557,92.073 -24.863,111.148 10.877,11.101 35.089,12.744 59.12,11.04 19.597,-1.387 38.996,-4.751 58.197,-8.816 38.589,-8.175 73.649,-15.603 102.9,-43.287 l 7.706,-7.294 c 9.182,15.091 23.604,27.438 39.629,36.892 22.59,13.329 48.553,20.992 67.313,22.459 15.162,1.187 28.259,-11.59 25.601,-26.959 l -11.289,-65.225 c -2.478,-14.331 -2.98,-27.95 -1.445,-41.32 0.978,-8.564 2.738,-16.27 5.017,-23.677"
           style="fill:#000000;fill-opacity:1;fill-rule:evenodd;stroke:none"
           id="path3122" /><path
           d="m 289.453,486.68 c -3.929,-11.233 -6.72,-23.492 -8.603,-36.571 -2.304,-15.998 -3.241,-33.214 -3.233,-51.272 10e-4,-4.93 2.609,-9.851 7.508,-11.374 4.885,-1.518 8.993,1.457 11.511,5.488 6.661,10.664 13.37,19.793 21.096,28.116 6.446,6.944 13.568,13.3 21.926,19.488 l -25.663,23.577 z"
           style="fill:#999999;fill-opacity:1;fill-rule:evenodd;stroke:none"
           id="path3124" /><path
           d="m 289.453,486.68 c -3.929,-11.233 -6.72,-23.492 -8.603,-36.571 -2.304,-15.998 -3.241,-33.214 -3.233,-51.272 10e-4,-4.93 2.609,-9.851 7.508,-11.374 4.885,-1.518 8.993,1.457 11.511,5.488 -16.345,46.586 -13.878,73.985 -7.183,93.729"
           style="fill:#cccccc;fill-opacity:1;fill-rule:evenodd;stroke:none"
           id="path3126" /><path
           d="m 496.594,595.702 c 5.17,-0.788 10.344,-1.711 15.511,-2.774 -1.695,6.58 -2.921,13.176 -3.685,19.837 -1.645,14.348 -1.111,28.934 1.539,44.261 l 11.289,65.225 c 1.492,8.646 -6.123,15.47 -14.529,14.813 -17.446,-1.363 -41.674,-8.541 -62.864,-21.044 -15.376,-9.07 -29.058,-20.903 -37.146,-35.254 z"
           style="fill:#999999;fill-opacity:1;fill-rule:evenodd;stroke:none"
           id="path3128" /><path
           d="m 519.268,710.814 1.98,11.437 c 1.492,8.646 -6.123,15.47 -14.529,14.813 -17.446,-1.363 -41.674,-8.541 -62.864,-21.044 -15.376,-9.07 -29.058,-20.903 -37.146,-35.254 l 1.527,-1.445 c 16.012,-4.726 37.594,-4.01 60.551,3.254 19.967,6.316 37.559,16.505 50.481,28.239"
           style="fill:#c2c2c2;fill-opacity:1;fill-rule:evenodd;stroke:none"
           id="path3130" /><path
           d="m 629.727,305.086 c 12.418,36.396 12.89,72.935 3.451,107.089 -9.883,35.752 -30.625,68.927 -59.91,96.642 l -29.071,27.513 c -7.789,1.409 -15.677,2.583 -23.707,3.511 -24.691,2.854 -50.672,3.371 -79.058,1.223 -16.858,-1.275 -28.496,11.54 -29.184,27.53 -0.768,17.865 11.818,30.364 29.877,30.69 12.113,0.219 24.525,-0.224 37.057,-1.426 l -44.121,41.755 -50.968,48.232 c -27.123,25.671 -60.81,32.807 -97.883,40.662 -18.741,3.969 -37.675,7.259 -56.802,8.615 -21.466,1.521 -42.674,0.475 -50.927,-7.946 -13.615,-13.894 14.01,-72.292 26.845,-99.424 5.007,-10.582 9.125,-20.839 13.37,-31.755 11.987,-30.837 19.452,-50.041 57.066,-84.598 l 83.488,-76.701 c 14.238,-13.081 30.646,-21.31 48.24,-25.588 19.551,-4.754 40.639,-4.672 61.928,-0.977 26.002,4.514 50.465,-1.023 72.322,-15.71 24.153,-16.23 38.879,-39.435 43.223,-68.212 l 2.93,-19.383 c 3.023,-20.033 -9.413,-39.006 -28.979,-44.248 l -72.893,-19.534 c -3.947,-1.058 -6.47,-4.629 -6.162,-8.701 0.305,-4.086 3.329,-7.234 7.403,-7.691 l 28.808,-3.235 c 25.446,-2.861 48.78,-8.451 70.936,-17.14 22.164,-8.69 43.076,-20.447 63.668,-35.635 l 8.719,-6.432 c 1.623,-1.198 3.502,-1.75 5.336,-1.667 3.902,0.173 7.259,3.131 7.908,6.983 0.308,1.829 -0.006,3.774 -0.994,5.529 l -36.539,64.916 c -5.963,10.592 -9.237,21.218 -10.053,32.059 -0.813,10.806 0.824,21.759 4.676,33.054"
           style="fill:#cccccc;fill-opacity:1;fill-rule:evenodd;stroke:none"
           id="path3132" /><path
           d="m 447.225,541.468 c -1.92,-0.122 -3.85,-0.256 -5.793,-0.404 -16.858,-1.275 -28.496,11.54 -29.184,27.53 -0.059,1.373 -0.039,2.715 0.057,4.022 l -110.61,98.664 c -53.971,48.142 -126.626,35.044 -108.77,-14.492 4.476,-10.283 8.969,-19.778 12.401,-27.036 5.007,-10.582 9.125,-20.839 13.37,-31.755 11.987,-30.837 19.452,-50.041 57.066,-84.598 l 83.488,-76.701 c 14.238,-13.081 30.646,-21.31 48.24,-25.588 19.551,-4.754 40.639,-4.672 61.928,-0.977 26.002,4.514 50.465,-1.023 72.322,-15.71 24.153,-16.23 38.879,-39.435 43.223,-68.212 l 2.93,-19.383 c 0.365,-2.43 0.502,-4.842 0.431,-7.217 43.028,29.76 19.588,98.522 -52.988,163.26 z"
           style="fill:#e6e6e6;fill-opacity:1;fill-rule:evenodd;stroke:none"
           id="path3134" /><path
           d="m 432.492,597.83 c 2.979,0.891 6.205,1.393 9.633,1.454 12.113,0.219 24.525,-0.224 37.057,-1.426 l -44.121,41.755 -50.968,48.232 c -27.123,25.671 -60.81,32.807 -97.883,40.662 -18.741,3.969 -37.675,7.259 -56.802,8.615 -6.324,0.448 -12.628,0.673 -18.583,0.552 46.907,-4.633 92.57,-13.098 131.863,-52.938 29.219,-29.625 59.47,-58.305 89.804,-86.906 M 629.727,305.086 c 12.418,36.396 12.89,72.935 3.451,107.089 -9.883,35.752 -30.625,68.927 -59.91,96.642 l -29.071,27.513 c -7.789,1.409 -15.677,2.583 -23.707,3.511 -9.508,1.099 -19.207,1.851 -29.162,2.239 43.891,-42.157 86.651,-85.337 125.326,-132.228 25.186,-30.539 15.264,-74.607 10.696,-112.804 0.664,2.662 1.459,5.34 2.377,8.038"
           style="fill:#808080;fill-opacity:1;fill-rule:evenodd;stroke:none"
           id="path3136" /><path
           d="m 440.645,551.464 c 29.099,2.203 55.734,1.671 81.044,-1.255 25.295,-2.924 49.301,-8.252 73.155,-15.645 20.427,-6.328 15.535,4.43 2.898,12.73 -22.346,14.68 -46.732,24.956 -71.627,31.628 -28.027,7.51 -56.674,10.449 -83.781,9.958 -11.963,-0.216 -20.191,-7.883 -19.678,-19.829 0.43,-10.003 7.248,-18.4 17.989,-17.587"
           style="fill:#999999;fill-opacity:1;fill-rule:evenodd;stroke:none"
           id="path3138" /><path
           d="m 440.645,551.464 c 29.099,2.203 55.734,1.671 81.044,-1.255 25.295,-2.924 49.301,-8.252 73.155,-15.645 9.197,-2.848 13.26,-2.233 13.795,0.061 l 0.017,0.069 0.004,0.034 c -52.849,29.129 -116.43,37.521 -186.004,34.323 0.43,-10.003 7.248,-18.4 17.989,-17.587"
           style="fill:#cccccc;fill-opacity:1;fill-rule:evenodd;stroke:none"
           id="path3140" /><path
           d="m 342.541,703.846 c 7.119,-4.858 10.363,-12.502 7.245,-17.074 -3.119,-4.572 -11.421,-4.338 -18.539,0.519 -7.121,4.859 -10.364,12.502 -7.245,17.073 3.119,4.572 11.42,4.34 18.539,-0.518"
           style="fill:#000000;fill-opacity:1;fill-rule:evenodd;stroke:none"
           id="path3142" /><path
           d="m 341.46,703.205 c 3.155,-2.153 4.591,-5.54 3.21,-7.566 -1.381,-2.026 -5.061,-1.924 -8.215,0.229 -3.157,2.154 -4.593,5.541 -3.212,7.568 1.382,2.024 5.062,1.922 8.217,-0.231"
           style="fill:#ffffff;fill-opacity:1;fill-rule:evenodd;stroke:none"
           id="path3144" /><path
           d="m 315.045,630.459 c 6.466,-2.224 3.086,-12.057 -3.381,-9.832 -16.863,5.806 -50.45,13.702 -67.074,3.789 -9.985,-5.953 -9.15,-17.035 -6.181,-26.752 1.995,-6.562 -7.984,-9.595 -9.976,-3.032 -4.484,14.664 -3.705,30.04 10.848,38.717 20.032,11.945 55.304,4.158 75.764,-2.89"
           style="fill:#000000;fill-opacity:1;fill-rule:evenodd;stroke:none"
           id="path3146" /><path
           d="m 408.352,624.721 c 1.382,-9.215 0.205,-17.371 -3.206,-24.601 -3.443,-7.302 -9.215,-13.767 -16.966,-19.516 -1.734,-1.287 -2.097,-3.74 -0.811,-5.476 1.286,-1.735 3.739,-2.099 5.474,-0.812 8.751,6.492 15.333,13.93 19.364,22.478 4.066,8.62 5.482,18.268 3.857,29.092 -0.322,2.13 -2.31,3.596 -4.439,3.274 -2.129,-0.321 -3.598,-2.308 -3.273,-4.439 m -14.849,15.359 c 1.655,-11.004 0.242,-20.749 -3.834,-29.393 -4.111,-8.718 -10.985,-16.424 -20.208,-23.267 -1.736,-1.287 -2.101,-3.738 -0.813,-5.475 1.288,-1.736 3.739,-2.099 5.475,-0.812 10.224,7.585 17.91,16.265 22.607,26.226 4.731,10.036 6.381,21.273 4.485,33.887 -0.32,2.129 -2.307,3.596 -4.436,3.274 -2.132,-0.322 -3.596,-2.31 -3.276,-4.44 m -15.988,16.158 c -0.324,2.13 1.144,4.118 3.273,4.44 2.129,0.321 4.117,-1.145 4.439,-3.275 2.068,-13.773 0.268,-26.042 -4.895,-36.996 -5.132,-10.88 -13.533,-20.365 -24.712,-28.659 -1.736,-1.286 -4.189,-0.923 -5.475,0.813 -1.288,1.736 -0.925,4.189 0.813,5.475 10.177,7.551 17.767,16.062 22.312,25.697 4.509,9.564 6.07,20.34 4.245,32.505"
           style="fill:#000000;fill-opacity:1;fill-rule:evenodd;stroke:none"
           id="path3148" /><path
           d="m 436.338,691.746 c -2.219,-1.827 -5.498,-1.509 -7.324,0.709 -1.828,2.218 -1.512,5.499 0.709,7.325 7.652,6.336 15.804,11.94 24.617,16.561 8.869,4.652 18.334,8.276 28.547,10.612 2.806,0.64 5.601,-1.117 6.242,-3.925 0.641,-2.807 -1.117,-5.604 -3.926,-6.243 -9.381,-2.146 -18.014,-5.442 -26.049,-9.656 -8.091,-4.244 -15.654,-9.453 -22.816,-15.383"
           style="fill:#ffffff;fill-opacity:1;fill-rule:evenodd;stroke:none"
           id="path3150" /><path
           d="m 496.781,731.895 c 3.092,0.467 5.979,-1.662 6.446,-4.754 0.466,-3.093 -1.663,-5.978 -4.756,-6.445 -3.09,-0.468 -5.977,1.66 -6.446,4.753 -0.464,3.093 1.663,5.978 4.756,6.446"
           style="fill:#ffffff;fill-opacity:1;fill-rule:evenodd;stroke:none"
           id="path3152" /><path
           d="m 387.795,661.022 c -2.108,1.96 -2.226,5.257 -0.266,7.364 1.96,2.108 5.255,2.227 7.363,0.266 l 42.264,-39.16 c 2.108,-1.96 2.227,-5.258 0.268,-7.365 -1.961,-2.106 -5.258,-2.226 -7.363,-0.266 z"
           style="fill:#ffffff;fill-opacity:1;fill-rule:evenodd;stroke:none"
           id="path3154" /><path
           d="m 449.182,617.929 c 1.384,-2.805 0.234,-6.201 -2.571,-7.586 -2.802,-1.385 -6.199,-0.234 -7.584,2.57 -1.386,2.805 -0.236,6.201 2.571,7.586 2.802,1.386 6.199,0.234 7.584,-2.57"
           style="fill:#ffffff;fill-opacity:1;fill-rule:evenodd;stroke:none"
           id="path3156" /><path
           d="m 477.484,564.138 c -2.88,-0.002 -5.218,2.331 -5.22,5.213 -0.004,2.881 2.33,5.218 5.213,5.222 10.035,-0.011 19.97,-0.659 29.798,-1.959 9.766,-1.293 19.34,-3.234 28.707,-5.838 2.77,-0.766 4.395,-3.635 3.629,-6.404 -0.767,-2.768 -3.632,-4.393 -6.402,-3.627 -8.93,2.483 -18.033,4.328 -27.305,5.556 -9.213,1.219 -18.689,1.825 -28.42,1.837"
           style="fill:#ffffff;fill-opacity:1;fill-rule:evenodd;stroke:none"
           id="path3158" /><path
           d="m 551.787,564.42 c 2.75,-1.492 3.77,-4.929 2.277,-7.678 -1.492,-2.75 -4.929,-3.77 -7.679,-2.279 -2.748,1.491 -3.77,4.928 -2.278,7.678 1.493,2.75 4.93,3.77 7.68,2.279"
           style="fill:#ffffff;fill-opacity:1;fill-rule:evenodd;stroke:none"
           id="path3160" /><path
           d="m 251.858,723.342 c 2.667,-1.066 3.964,-4.093 2.898,-6.76 -1.065,-2.666 -4.094,-3.964 -6.759,-2.898 -13.125,5.244 -29.884,8.032 -42.315,7.066 -4.54,-0.353 -8.349,-1.185 -10.95,-2.562 -1.678,-0.888 -2.71,-1.967 -2.82,-3.23 -0.097,-1.116 0.288,-2.584 1.247,-4.444 1.307,-2.559 0.295,-5.695 -2.265,-7.004 -2.557,-1.308 -5.694,-0.295 -7.003,2.262 -1.894,3.679 -2.613,7.043 -2.346,10.096 0.452,5.176 3.486,8.963 8.333,11.528 3.926,2.079 9.106,3.292 14.976,3.748 13.87,1.078 32.488,-2.001 47.004,-7.802"
           style="fill:#ffffff;fill-opacity:1;fill-rule:evenodd;stroke:none"
           id="path3162" /><path
           d="m 198.178,690.888 c -2.921,-1.119 -6.196,0.341 -7.314,3.262 -1.121,2.92 0.342,6.196 3.262,7.314 2.923,1.119 6.196,-0.341 7.315,-3.262 1.119,-2.921 -0.342,-6.196 -3.263,-7.314"
           style="fill:#ffffff;fill-opacity:1;fill-rule:evenodd;stroke:none"
           id="path3164" /><path
           d="m 288.134,460.745 c 0.673,2.79 3.48,4.507 6.268,3.834 2.791,-0.672 4.507,-3.478 3.834,-6.267 -1.528,-6.306 -2.762,-12.646 -3.694,-19.016 -0.904,-6.206 -1.518,-12.557 -1.831,-19.047 -0.133,-2.879 -2.577,-5.103 -5.456,-4.969 -2.88,0.133 -5.105,2.577 -4.969,5.457 0.314,6.566 0.972,13.254 1.965,20.058 0.971,6.639 2.266,13.291 3.883,19.95"
           style="fill:#ffffff;fill-opacity:1;fill-rule:evenodd;stroke:none"
           id="path3166" /><path
           d="m 279.579,405.005 c 0.554,-3.078 3.496,-5.125 6.575,-4.571 3.079,0.551 5.126,3.496 4.572,6.574 -0.552,3.078 -3.497,5.126 -6.576,4.573 -3.077,-0.554 -5.125,-3.498 -4.571,-6.576"
           style="fill:#ffffff;fill-opacity:1;fill-rule:evenodd;stroke:none"
           id="path3168" /><path
           d="m 423.441,68.702 c 127.567,0 231.61,14.892 231.61,33.151 0,18.257 -104.043,33.149 -231.61,33.149 -127.564,0 -231.61,-14.892 -231.61,-33.149 0,-18.259 104.046,-33.151 231.61,-33.151"
           style="fill:#e6e6e6;fill-opacity:1;fill-rule:evenodd;stroke:none"
           id="path3170" /></g></g></g></svg>
