<?xml version="1.0" encoding="UTF-8"?><svg id="a" xmlns="http://www.w3.org/2000/svg" width="1024" height="1024" viewBox="0 0 1024 1024"><path d="m382.65,74.56c54.07,45.96,108.05,92,162.14,137.95-2.17,4.25-3.79,9.07-6.21,13.08-2.09,1.1-4.81,3.72-7.19,5.56.56,1.83,2.34,2.45,2.94,4.25-1,.45-1.8-.88-2.29-1.31-25.42-21.95-50.45-46.05-75.84-68.65-26.36-23.46-52.71-47.11-78.45-70.61,1.33-7.06,3.54-13.23,4.9-20.27h0Z" style="fill-rule:evenodd;"/><path d="m374.81,96.13c52.42,46.34,107.04,95.54,157.89,142.2-5.16-.04-7.88-4.96-11.11-7.85-42.62-37.93-84.68-76.19-127.49-115.06-2.83-2.57-6.25-5.51-9.81-8.83-3.27-3.05-9.15-6.9-9.48-10.46Z" style="fill-rule:evenodd;"/><path d="m375.79,102.34c50.74,45.92,101.93,91.37,152,137.95-2.81,7.54-5.7,15-8.17,22.88-49.86-47.54-99.23-95.6-148.41-143.83,1.59-5.6,2.86-11.53,4.58-17Z" style="fill-rule:evenodd;"/><path d="m367.29,135.36c48.77,48.31,97.67,96.5,145.79,145.46-2.64,7.93-5.79,15.35-8.17,23.54-47.82-49.59-94.69-100.13-141.87-150.37,1.21-6.41,3.32-11.93,4.25-18.63Z" style="fill-rule:evenodd;"/><path d="m503.27,307.95c-.81,1.95-1.99-1-1.96-.98-5.2-4.94-10.46-11.33-15.69-16.67-30.51-31.17-60.26-63.98-90.22-96.1-12.05-12.92-24.79-25-35.63-38.57.28.06.31-.13.33-.33-.09-.58.31-.67.33-.33,45.92,49.41,93.51,98.12,139.25,148.08,1.29,1.42,3.9,2.47,3.6,4.9Z" style="fill-rule:evenodd;"/><path d="m361.08,161.83c47.23,49.75,94.34,99.61,140.89,150.04-2.75,7.39-5.26,15.01-8.17,22.23-33.31-37.3-68.94-76.7-102.97-115.72-8.32-9.54-16.7-18.93-25.82-29.09-2.34-2.61-7.88-7.9-8.17-9.81-.3-1.95,1.26-5.62,1.96-8.5.9-3.73,1.63-6.69,2.29-9.15h0Z" style="fill-rule:evenodd;"/><path d="m546.75,240.61c2.03,1.57,4.17,3.02,4.25,6.54-3.41,1.28-8.52.85-13.08.98-1.43-2.39-3.68-3.94-5.23-6.21,2.08-.86,6.04.16,8.17-.65.97-6.15-3.36-5.45-4.9-9.81.43-.33,1.22-.31,1.31-.98,3.32,2.89,6.04,6.38,9.81,8.83.65.67-.15.64-.33,1.31h0Z" style="fill-rule:evenodd;"/><path d="m806.29,435.11c-6.67,10.54-13.55,20.88-19.94,31.71-75.57-69.46-150.89-139.17-225.55-209.53,3.49-8.94,7.29-17.55,10.79-26.48,78.28,68.06,156.99,135.68,234.7,204.3h0Z" style="fill-rule:evenodd;"/><path d="m530.08,242.9c2.46,1.9,4.19,4.52,6.21,6.86-11.59,31.99-23.18,63.99-34.98,95.78-1.1-2.79-4.66-4.79-4.9-7.85-.19-2.33,2.67-8.62,3.92-12.09,9.58-26.65,21.08-57.01,29.75-82.7h0Z" style="fill-rule:evenodd;"/><path d="m276.74,249.77c2.6,2.08,5.14,4.23,7.52,6.54-8.33,27.85-16.89,55.46-25.5,83.03-5.31-4.38-3.35-9-1.31-16.67,4.59-17.2,9.22-34.63,13.73-51.65,1.98-7.49,4.3-14.21,5.56-21.25Z" style="fill-rule:evenodd;"/><path d="m545.44,250.42c-1.53,3.29.01,5.92,2.29,7.19-8.47,22.91-17.08,45.69-25.82,68.32-1.29.54-2.32-2.48-4.58-2.29-2.6.23-2.86,2.94-3.6,5.88.67,2.96,4.21,3.19,4.58,5.88.46,3.35-3.67,6.88-3.92,10.79-3.53.28-6.83.8-10.79.65,11.7-32.11,23.2-64.41,35.3-96.1,1.78-.5,4.29-.29,6.54-.33h0Z" style="fill-rule:evenodd;"/><path d="m548.38,250.75c3.99,2.32,10.82,9.06,15.69,13.4,5.43,4.85,10.31,9.65,14.71,14.06,9.89,9.89,20.63,18.39,30.07,27.46,19.8,19.02,40.42,36.92,59.49,55.24,19.61,18.84,39.56,37.24,59.49,55.24,17.6,15.89,34.77,32.13,52.3,48.38,2.27,2.11,4.94,4.14,6.54,6.86-.31,1.33-1.52,1.75-1.96,2.94-20.34-17.37-39.23-36.84-59.49-55.24-19.87-18.04-40.11-36.19-59.82-54.92-29.07-27.63-59.08-54.72-88.91-83.03-6.97-6.62-14.41-13.63-22.23-20.92-3.04-2.83-9.64-6.29-5.88-9.48h0Z" style="fill-rule:evenodd;"/><path d="m617.68,265.78c-2.51-.43-3.25-2.63-5.23-3.6.75-2.41,1.4-4.92,1.96-7.52,2.92-.35,5.76-2.52,8.17-2.29-1.53,4.58-2.78,9.43-4.9,13.4Z" style="fill-rule:evenodd;"/><path d="m612.78,254.34c-.45,2.27-1.15,4.3-1.63,6.54-2.76-2.25-5.26-4.76-8.17-6.86,2.45-2.38,6.43-.08,9.81.33h0Z" style="fill-rule:evenodd;"/><path d="m357.81,257.61c2.56,2.37-.8,3.87-2.29,5.23-4.59,4.2-9.54,9.96-14.38,13.73-2.03-2.19,1.35-3.64,2.62-4.9,4.37-4.37,9.07-10.43,14.06-14.06h0Z" style="fill-rule:evenodd;"/><path d="m550.34,260.23c1.4,1.1,2.56,2.45,3.92,3.6-.67,2.93-2.05,5.14-2.94,7.85-1.93-.14-2.96-1.18-4.58-1.63,1.01-3.46,2.14-6.8,3.6-9.81Z" style="fill-rule:evenodd;"/><path d="m360.1,260.88c.7.6.86,1.75,1.63,2.29-5.94,5.61-11.39,11.71-17.98,16.67-2.87-1.79.75-3.76,2.94-5.88,4.22-4.07,9.96-9.82,13.4-13.08h0Z" style="fill-rule:evenodd;"/><path d="m292.1,262.84c2.87,3.02,5.71,6.06,8.17,9.48-9.56,27.6-19.27,55.04-28.77,82.7-2.27-.92-4.37-4.76-6.21-7.19,8.72-28.55,17.97-56.56,26.8-84.99h0Z" style="fill-rule:evenodd;"/><path d="m781.12,474.66c-6.45,10-12.64,20.27-19.29,30.07-.76.62-2.22-1.24-3.27-2.29-70.16-70.16-142.2-140.03-212.15-210.84,3.76-8.11,7.07-16.68,10.46-25.17,75.07,69.07,149.28,139.05,224.24,208.23h0Z" style="fill-rule:evenodd;"/><path d="m339.17,272.65c-9.45-4.46-19.9,1.36-19.94,11.44-3.17-1.08-3.6-5.68-2.62-8.5,2.48-7.1,19.4-13.66,22.56-2.94h0Z" style="fill-rule:evenodd;"/><path d="m399.32,269.38c3.36,3.61,6.42,7.53,9.48,11.44-1.27,4.51-3.49,8.06-4.58,12.75-3.51-3.57-6.85-7.31-9.81-11.44,1.83-4.06,3.28-8.49,4.9-12.75h0Z" style="fill-rule:evenodd;"/><path d="m345.39,286.38c-5.71.61-9.85,2.79-12.09,6.86-1.28.35-3.2.07-4.25.65-2.05-3.4-6.15-5.51-6.54-9.81-.52-5.83,4.67-10.02,9.81-10.13,7.26-.15,9.53,8.92,13.08,12.42h0Z" style="fill-rule:evenodd;"/><path d="m306.16,281.15c2.9,2.99,5.66,6.11,8.17,9.48-9.92,26.8-20.54,52.9-30.4,79.76-2.33-2.36-4.08-5.29-6.21-7.85,9.33-27.28,19.17-54.06,28.44-81.39h0Z" style="fill-rule:evenodd;"/><path d="m393.44,284.74c3.52,2.26,5.14,6.41,8.5,8.82-3.21,1.04-7.67.83-11.44,1.31-.39-3.53,2.27-6.61,2.94-10.13h0Z" style="fill-rule:evenodd;"/><path d="m348.33,288.67c-1.03.71-.55,2.93-.65,4.58-5.45.87-7.93,4.71-10.79,8.17-.57-2.92-.52-6.46-1.31-9.15,3.06-2.26,7.56-5.52,12.75-3.6Z" style="fill-rule:evenodd;"/><path d="m322.83,291.61c-1.04,1.58-1.89,3.34-4.25,3.6,1.25-1.14,2.73-3.8,4.25-3.6Z" style="fill-rule:evenodd;"/><path d="m323.81,293.24c.83.04,1.27.48,1.31,1.31-1.12-.14-1.83.13-2.62.33.22-.76,1.09-.87,1.31-1.63h0Z" style="fill-rule:evenodd;"/><path d="m428.09,294.88c1.7,2.77,3.2,5.73,4.9,8.5,2.56,2.65,6.48,3.41,9.15,5.88,3.17,2.93,4.53,7.82,7.52,11.11,2.1,2.32,5,4.03,7.19,5.88,2.29,1.94,4.23,4.25,6.86,5.88,2.06,5.56,5.5,9.75,7.52,15.36,2.17,1.78,4.34,3.77,6.86,6.21,1.84,1.77,5.59,4.31,5.88,6.86.51,4.45-4.01,8.41-4.58,13.4-3.35-3.96-4.72-8.28-7.85-12.42-2.98-3.94-7.6-6.24-10.46-10.13-3.13-4.25-4.35-9.81-7.52-14.06-3.43-4.61-10.04-7.51-14.06-12.42-2.44-2.98-3.24-7.5-5.56-10.13-3.19-3.63-10.43-6-13.73-9.81-2.18-2.51-2.53-6.52-4.9-8.83,3.7-.98,8.32-1.05,12.75-1.31h0Z" style="fill-rule:evenodd;"/><path d="m332.96,296.51v.98c-2.14,1.26-9.38,3.21-11.11.65,4.05-.2,7.26-1.24,11.11-1.63Z" style="fill-rule:evenodd;"/><path d="m359.11,304.36c-7.87.63-11.57,5.43-15.04,10.46-2.09-1.48-3.8-3.46-4.25-5.88-2.49-13.51,17.11-17.05,19.29-4.58h0Z" style="fill-rule:evenodd;"/><path d="m405.86,296.84c2.63,3.48,3.57,6.93,6.21,10.13,3.75,4.55,10.06,6.67,13.73,10.79,2.73,3.06,3.72,7.51,6.21,10.79,3.87,5.09,9.59,7.47,13.73,12.09,2.54,4.55,3.96,8.82,6.86,12.75,3.33,4.5,8.5,7.19,11.77,11.44,4.4,5.73,5.79,13.2,11.44,18.31-.22,1.96-1.49,2.87-1.63,4.9-2.49-.09-4.41.39-6.54.65-6.64-5.29-9.25-13.31-14.06-19.94-2.97-4.1-8.02-6.61-11.11-10.79-3.3-4.45-4.13-9.53-7.52-14.06-4.29-5.08-10.22-7.42-14.38-12.75-2.66-3.4-3.89-8.12-6.86-11.44-3.25-3.64-9.85-6.35-13.4-10.13-3.01-3.21-4.12-8.35-6.86-11.77,4.59.12,7.74-1.2,12.42-.98Z" style="fill-rule:evenodd;"/><path d="m457.18,389.67c-1.79-.05-3.52-.04-4.9.33-1.77,1.61-1.95,4.81-2.94,7.19-7.57-5.09-10.61-14.02-16.02-21.25-3.08-4.12-8.07-6.65-11.11-10.79-3.04-4.14-4.18-9.52-7.19-13.73-3.67-3.41-7.4-6.77-11.44-9.81-2.75-5.53-6.43-10.13-9.15-15.69-5.12-3.38-9.75-7.25-15.04-10.46-2.29-5.56-5.89-9.8-8.17-15.36,3.53,1.02,8.7-2.46,12.42-1.31,3.13.97,4.9,9.45,6.86,12.09,3.32,4.48,10.39,6.53,14.71,11.44,3.52,4.01,5.01,9.52,8.5,13.4,4.65,5.18,10.13,7.7,14.06,12.09,2.26,4.29,3.48,9.12,6.21,13.08,3.06,4.43,8.83,6.67,12.09,11.11,2.77,3.76,3.7,8.59,6.21,12.09,1.53,2.14,3.62,3.11,4.9,5.56h0Z" style="fill-rule:evenodd;"/><path d="m318.58,299.78c2.91,2.97,5.79,5.98,8.17,9.48-10.52,25.66-21.33,51.02-32.03,76.49-1.09-2.47-5.56-4.9-5.88-7.85-.21-1.96,2.51-6.9,3.6-9.81,8.18-21.96,18.36-48.13,26.15-68.32h0Z" style="fill-rule:evenodd;"/><path d="m389.19,299.78c3.1,3.25,7.18,7.16,7.85,11.77-4.58-1.96-6.22-6.85-7.85-11.77Z" style="fill-rule:evenodd;"/><path d="m333.29,300.11c.19.68-.4,2.15.33,2.29-1.82,1.13-5.19.69-7.52,1.31.1-1.32-2.28-1.84-1.63-2.62,2.89-.38,5.6-.94,8.83-.98Z" style="fill-rule:evenodd;"/><path d="m313.68,303.05c-.1,1.65-1.27,5.05-2.62,6.54.03-1.77,1.27-5.01,2.62-6.54Z" style="fill-rule:evenodd;"/><path d="m333.62,304.36c.41,1.01.51,2.32.65,3.6-1.42,0-2.94-.11-3.92.33-.89-.85-1.54-1.95-2.62-2.62,1.47-.93,3.83-.95,5.88-1.31Z" style="fill-rule:evenodd;"/><path d="m750.72,522.39c-5.94,11.06-12.88,21.11-18.96,32.04-67.76-73.55-135.66-146.99-203.32-220.65,3.35-8.75,6.87-17.32,10.13-26.15.29-.2.59-.39.65,0,70.84,71.25,140.68,143.49,211.5,214.76h0Z" style="fill-rule:evenodd;"/><path d="m334.27,309.59c.09,1.11.52,1.88.33,3.27-1.81.37-4.13.23-5.88.65.47-1.17,1.16-2.11,1.31-3.6,1.25-.27,2.62-.42,4.25-.33h0Z" style="fill-rule:evenodd;"/><path d="m398.34,312.2c2.83,1.09,4.32,3.52,6.54,5.23-1.88-.74-5.23-2.83-6.54-5.23Z" style="fill-rule:evenodd;"/><path d="m374.48,319.39c-3.41-.03-5.94.82-9.48.65.44-2.28,1.47-3.98,1.96-6.21,3.64-.09,8.25-1.67,8.83,1.31.27,1.42-1.08,2.32-1.31,4.25Z" style="fill-rule:evenodd;"/><path d="m334.93,314.49c-.19,1.39.24,2.16.33,3.27-2.83.44-5.75.79-8.83.98.77-.98,1.08-2.41,1.63-3.6,2.28-.22,4.58-.44,6.86-.65Z" style="fill-rule:evenodd;"/><path d="m376.77,317.11c.29.91,1.62.77,1.63,1.96h-1.96c-.23-.99.56-.97.33-1.96Z" style="fill-rule:evenodd;"/><path d="m335.58,319.39v2.94c-3.77.37-7.4.88-11.11,1.31.39-1.02.79-2.04,1.31-2.94,3.05-.65,6.55-.86,9.81-1.31Z" style="fill-rule:evenodd;"/><path d="m377.75,320.7c.07,1.27-.7,1.69-.98,2.62.42,1.32,1.69,1.8,1.96,3.27-2-.04-3.91.02-5.23.65.49-1.8.49-6.92,4.25-6.54h0Z" style="fill-rule:evenodd;"/><path d="m381.02,320.7c3.7,1.75,6.39,4.5,9.81,6.54-1.11,4.23-3.13,7.55-4.25,11.77-1.64-.97-2.53-2.7-3.6-4.25.25-2.04,1.14-3.44,1.63-5.23-.96-2.53-2.85-4.13-4.25-6.21-.25-1.33,1.05-1.13.65-2.62h0Z" style="fill-rule:evenodd;"/><path d="m373.82,321.03c-.79,2.15-1.72,4.16-2.29,6.54-3.34-.36-6.48,1.09-8.83.65-.69-2.29.88-4.65,1.63-6.54,3.54.16,5.94-.82,9.48-.65Z" style="fill-rule:evenodd;"/><path d="m572.24,322.66c.84,2.77-1.07,8.24-1.31,12.09-2.3-2.86-7.41-4.37-5.56-9.48,2.14-1.02,4.89-1.43,6.86-2.62h0Z" style="fill-rule:evenodd;"/><path d="m335.91,323.97c-.11,1.31.58,1.81.33,3.27-4.29.42-9.46,1.63-13.4,1.31-.17-1.37.57-1.83.65-2.94,3.99-.69,8.09-1.28,12.42-1.63Z" style="fill-rule:evenodd;"/><path d="m560.48,324.62c.57-.66,2.15.44,3.27.33.26,1.13-.49,1.26-.33,2.29-1.17-.68-1.77-1.93-2.94-2.62Z" style="fill-rule:evenodd;"/><path d="m574.21,324.62c2.32,1.82,3.99,4.29,6.54,5.88-.69,2.03-1.15,4.29-1.63,6.54-2.66.05-4.2-1.03-6.54-1.31.3-3.95,1.31-7.19,1.63-11.11Z" style="fill-rule:evenodd;"/><path d="m525.5,324.95c1.3-.21,1.31.86,2.62.65-.53,1.87-1.43,3.36-1.96,5.23-1.08-.11-1.42-.98-1.96-1.63.35-1.5,1.09-2.62,1.31-4.25h0Z" style="fill-rule:evenodd;"/><path d="m730.46,561.94c-35.32-38.03-71.88-76.63-107.55-116.7-17.22-19.35-36.21-38.27-53.94-58.19-14.93-16.77-31.11-34-47.07-51.32-2.56-2.78-7.52-6.91-4.58-9.48,2.22.33,4.84,4.37,7.52,7.19,15.96,16.81,31.98,34.72,47.4,51.32,36.9,39.72,71.9,77.99,108.53,117.68,15.46,16.75,31.12,34.91,47.4,51.65,2.02,2.07,5.77,4.29,2.29,7.85h0Z" style="fill-rule:evenodd;"/><path d="m336.89,332.14c-4.25.76-8.78,1.24-13.4,1.63-.09-1.11-.52-1.88-.33-3.27,4.31-.49,8.63-.96,12.75-1.63,1.37.04.22,2.62.98,3.27Z" style="fill-rule:evenodd;"/><path d="m391.8,329.2c1.69.6,1.8,2.78,2.94,3.92-1.13,3.99-2.85,7.39-3.92,11.44-1.33-1.07-2.18-2.61-3.27-3.92,1.28-3.95,3-7.46,4.25-11.44Z" style="fill-rule:evenodd;"/><path d="m381.02,330.18c-.81,1.36-.87,3.49-1.96,4.58.42,1.32,1.51,1.97,2.29,2.94-6.86,1.77-14.37,6.29-12.75,14.38-2.05.4-6.45-.3-7.52.65-1.5-13.16,7.46-21.22,19.94-22.56Z" style="fill-rule:evenodd;"/><path d="m582.05,332.14c1.07.56,1.54,1.72,2.62,2.29-.51,1.23-2.5.99-3.27,1.96-.59-.93.53-2.94.65-4.25h0Z" style="fill-rule:evenodd;"/><path d="m337.21,337.05c-4,.9-8.42,1.39-13.08,1.63-.09-1.11-.52-1.88-.33-3.27,4.28-.51,8.9-.69,12.75-1.63,1.35-.04.34,2.27.65,3.27Z" style="fill-rule:evenodd;"/><path d="m251.57,334.1c2.73,3.48,4.28,8.14,7.52,11.11,1.39.19,1.52-.88,1.96-1.63,1.84.88,1.59,2.8.65,4.58,3.03,4.37,5.98,8.84,9.81,12.42,1.24.04,1.76-.64,1.96-1.63,1.49,1.26,1.71,2.04.65,3.92,2.8,4.28,6.05,8.12,9.15,12.09,1.35,1.03,2.03-1.04,2.94-.33-.39,1.25-.87,2.4-1.31,3.6,2.87,4.54,6.11,8.71,9.81,12.42,2.03.49,1.71-2.7,2.94-1.96-.39,4.16-5.04,1.77-8.17,1.63-11.55-14.71-23.27-29.25-35.3-43.48-.65-4.47-2.76-7.49-3.6-11.77.47-.19.8-.5.98-.98Z" style="fill-rule:evenodd;"/><path d="m341.46,334.43c3.01,4.07,5.51,8.65,8.5,12.75-1.91,4.19-2.66,9.54-5.23,13.08-1.62-.83-1.1-5.06-1.31-7.19-.6-6.02-1.43-13.08-1.96-18.63Z" style="fill-rule:evenodd;"/><path d="m417.3,334.76c-.06-.71,1.16-.15,1.63-.33v1.31c-1.23.35-.52-1.23-1.63-.98Z" style="fill-rule:evenodd;"/><path d="m396.71,337.05c1.89.95,2.05,3.61,3.6,4.9-1.22.85-4.29-.15-5.56.65.68-1.83,1.59-3.42,1.96-5.56Z" style="fill-rule:evenodd;"/><path d="m488.23,337.37c-1.78,5.41-3.76,10.62-5.56,16.02-1.82-1.01-3.24-2.43-4.25-4.25,1.74-3.6,2.82-7.86,4.25-11.77h5.56Z" style="fill-rule:evenodd;"/><path d="m337.54,339.01c.2.78.47,1.49.33,2.62-4.45.56-8.65,1.37-13.4,1.63.17-1.27-.58-1.6-.33-2.94,4.91,0,8.72-1.09,13.4-1.31h0Z" style="fill-rule:evenodd;"/><path d="m382.98,339.66c.59,3.79,2.04,6.9,5.23,8.83.44-.1.27-.82.33-1.31,2.2,3.04-4.03,8.41-1.96,12.42-4.21-.28-7.03.81-11.11.65-.96-3.87-5.37-5.5-5.88-9.15-.87-6.24,6.42-11.28,13.4-11.44h0Z" style="fill-rule:evenodd;"/><path d="m494.77,341.95c1.86,2.83,4.08,5.29,5.56,8.5,4.78-.45,9.67-.79,14.71-.98-19.55,51.6-39.15,103.15-58.51,154.94-7.76.74-15.77,1.23-23.86,1.63,20.76-54.66,41.45-109.36,62.11-164.1h0Z" style="fill-rule:evenodd;"/><path d="m317.27,342.6c.83,6.47,1.29,13.32,1.96,19.94-3.85-.26-6.63.56-10.13.65,2.33-7.26,5.89-13.29,8.17-20.59Z" style="fill-rule:evenodd;"/><path d="m524.85,342.6c67.49,72.75,135.5,146.7,201.69,219.67-5.62,10.39-11.97,20.07-17.98,30.07-64.57-74.68-129.13-149.37-193.52-224.24,3.23-8.54,6.74-16.79,9.81-25.5h0Z" style="fill-rule:evenodd;"/><path d="m338.19,343.58c-.19,1.39.24,2.16.33,3.27-4.89.23-9.24,1-13.73,1.63v-3.6c4.85-.05,8.53-1.28,13.4-1.31h0Z" style="fill-rule:evenodd;"/><path d="m403.24,345.22c-.1,2.08-1.23,3.13-1.63,4.9-3.5-.01-6.13.85-9.81.65.77-2.17,1.73-4.15,2.29-6.54,3.83.56,7.68-1.85,9.15.98Z" style="fill-rule:evenodd;"/><path d="m404.55,346.85c1.81.37,2.3,2.06,3.92,2.62-.99.75-3.37.12-4.9.33.18-1.13.87-1.74.98-2.94Z" style="fill-rule:evenodd;"/><path d="m338.85,348.49v3.27c-4.53.48-9.01,1.02-13.4,1.63.26-1.45-.44-1.96-.33-3.27,4.49-.63,9.01-1.23,13.73-1.63Z" style="fill-rule:evenodd;"/><path d="m353.56,351.1c1.31.76,1.68,2.47,2.62,3.6,1.5.14,3.69-.42,4.25.65-1.91,1.47-5.7,1.06-8.83,1.31.49-2.02,1.44-3.57,1.96-5.56Z" style="fill-rule:evenodd;"/><path d="m410.76,351.76c-.55,1.63-1.46,2.9-1.96,4.58-2.73.33-5.65.45-8.17.98.69-1.81,1.5-3.52,1.96-5.56,2.94.39,6.32-1.39,8.17,0Z" style="fill-rule:evenodd;"/><path d="m400.96,351.76c-.6,1.91-1.62,3.39-1.96,5.56-2.96.63-6.25.95-9.48,1.31-.52-2.03,1.35-3.95,1.63-6.21,3.68.19,6.47-.5,9.81-.65h0Z" style="fill-rule:evenodd;"/><path d="m338.52,353.39c1.4.02.87,1.96.98,3.27-4.57.55-8.8,1.44-13.73,1.63.19-1.39-.24-2.16-.33-3.27,4.4-.5,8.95-.86,13.08-1.63Z" style="fill-rule:evenodd;"/><path d="m362.06,355.68c.16-.99,3.55.05,5.23-.33.05.71-1.16.15-1.63.33-.78.23-2.93.75-3.6,0Z" style="fill-rule:evenodd;"/><path d="m460.45,356.01c7.47,4.3,11.71,11.83,15.69,19.61-.86-.1-.84.68-.98,1.31-3.3-4.33-5.71-9.55-8.5-14.38-2.19-1.87-5.58-4.2-6.21-6.54Z" style="fill-rule:evenodd;"/><path d="m370.23,357.64c.17,4.97-6.48,3.1-10.46,3.92.23-1.51,1.08-2.41,1.31-3.92,3.35.52,7.03-1.39,9.15,0Z" style="fill-rule:evenodd;"/><path d="m359.44,357.64c-.23,1.63-1.14,2.57-1.31,4.25-3.17-.22-5.57.31-8.5.33.4-1.35,1.11-2.37,1.31-3.92,3.16.11,5.82-.29,8.5-.65Z" style="fill-rule:evenodd;"/><path d="m339.17,358.29c1.15.48.77,2.49.98,3.92-4.76.25-8.82,1.21-13.73,1.31-.16-1.15-.49-2.13-.33-3.6,4.64-.26,8.96-.84,13.08-1.63h0Z" style="fill-rule:evenodd;"/><path d="m268.24,387.39c3.43,4.78,9.03,11.35,13.4,17,2.03,2.62,7.01,7.02,2.29,9.81-10.42-13.58-20.81-26.87-31.38-40.53-3.43-4.43-7.68-8.51-10.13-13.73.8-.62,2.34-.49,3.27-.98,6.3,6.99,11.75,14.84,17.65,22.23-1.21,3.69,1.05,7.52,4.9,6.21h0Z" style="fill-rule:evenodd;"/><path d="m415.67,359.27c1.11,1.94,1.95,4.15,3.27,5.88-2.41.19-7.13-1.39-10.46-.33-.59-.83-1.01-1.82-1.31-2.94,2.3-1.4,4.11-3.3,8.5-2.62Z" style="fill-rule:evenodd;"/><path d="m405.86,365.48c-5.27,1.59-9.29,4.43-12.09,8.5.94-3.09.45-8.67-.98-12.09,5.04-2.03,12.15-1.85,13.08,3.6Z" style="fill-rule:evenodd;"/><path d="m390.17,373.66c-29.97,2.72-60.57,4.81-90.22,7.85,1.7-4.29,3.77-8.22,5.23-12.75,25.14-1.73,56.43-4.31,80.41-5.88.46-.03.63-.37.98-.33,4.71.61,5.5,6.63,3.6,11.11h0Z" style="fill-rule:evenodd;"/><path d="m244.38,367.77c1.78,1.27,2.56,3.54,4.25,4.9-10.33,23.13-20.63,46.28-30.73,69.63-.21-3.11-3.41-6.44-3.27-9.81.07-1.69,2.35-5.52,3.6-8.17,8.39-17.79,18.42-39.98,26.15-56.55Z" style="fill-rule:evenodd;"/><path d="m427.43,379.21c-1.65-.01-3.11.16-3.92.98-.22,2.12,2.19,4.31,2.94,6.54-1.32,2.17-4.47,2.5-5.88,4.58,1.65,3.47,9.67.58,13.4,1.96,2.76,3.23,5.25,6.73,5.23,12.75-8.82-.59-14.43,4.7-14.71,13.73-6.48.62-7.84-2.83-11.11-6.86-3.49-4.29-4.09-7.86-11.44-8.17-2.62-4.36-5.83-8.11-8.83-12.09-4.12-8.89,3.56-20.8,11.77-23.86,4.83-1.8,12.52-1.82,16.34.98,2.9,2.12,3.66,6.43,6.21,9.48h0Z" style="fill-rule:evenodd;"/><path d="m287.53,370.06c.73.34.26,2.19-.65,1.96-.88-.87.42-1.24.65-1.96Z" style="fill-rule:evenodd;"/><path d="m270.2,370.39c4.8,2.32-.33,13.56-4.25,14.71-1.06-6.09,2.53-10.31,4.25-14.71Z" style="fill-rule:evenodd;"/><path d="m274.12,375.29c2.52,2.06,4.4,4.75,6.21,7.52-4.04,1.36-4.41-2.44-6.54-3.92-.04-1.35.57-2.04.33-3.6Z" style="fill-rule:evenodd;"/><path d="m511.12,397.19c1.15-4.52,3.2-8.14,4.58-12.42-3.3-1-6.58.83-10.46.33.77-3.16,1.79-6.05,3.27-8.5,2.74-.3,6.36-.86,8.83,0,1.8.63,3.7,3.5,4.9,4.9,1.33,1.55,4.04,3.83,4.25,5.23.27,1.81-1.44,4.99-2.62,6.21-2.7,2.79-7.82,4.22-12.75,4.25Z" style="fill-rule:evenodd;"/><path d="m378.73,377.91c-.57,1.61-.95,3.41-1.63,4.9-1.28-1.55-2.98-2.68-3.92-4.58,2.22.26,3.47-.45,5.56-.33Z" style="fill-rule:evenodd;"/><path d="m370.88,378.56c-1.4,4.05-3,7.9-4.25,12.09-3.17-2.75-5.99-7.47-8.83-9.48-.13-.79.6-.71.33-1.63,4.51-.07,8.23-.93,12.75-.98Z" style="fill-rule:evenodd;"/><path d="m390.5,378.56c-.67,1.94-1.5,3.73-1.96,5.88-3.19-.03-6.1.22-8.83.65.52-2.21,1.71-3.74,1.96-6.21,3.16.11,5.52-.59,8.83-.33Z" style="fill-rule:evenodd;"/><path d="m253.86,379.54c1.59,2.22,3.45,4.17,4.9,6.54-10.06,26.56-21.51,51.71-31.71,78.13-.77-2.69-4.09-5.42-4.25-8.5-.11-2.22,2.64-6.36,3.92-9.48,8.87-21.52,18.75-46.83,27.13-66.68h0Z" style="fill-rule:evenodd;"/><path d="m371.86,380.19c7.19,3.27,1.92,11,.33,17-1.72-1.66-3.32-3.43-4.58-5.56,1.63-3.6,2.96-7.5,4.25-11.44Z" style="fill-rule:evenodd;"/><path d="m351.92,380.85c-1.18,4.71-4.75,13.24-7.19,19.61-.83,2.16-2.39,5.08-2.29,6.54.15,2.13,4.27,6.59,5.88,8.5,2.51,2.97,4.74,5.31,6.54,7.52,4.52,5.56,8.36,11.21,13.73,14.71,3.99-3.71,5.25-9.86,7.19-15.36,1.96-5.57,4.03-11.31,5.88-16.67,4.63-.82,10.27-.63,13.73-2.62,2.06,3.28,4.18,6.5,9.48,6.54-1.85.33-3.08,1.28-3.92,2.62,0,1.86.83,2.87.65,4.9-.92,1.68-2.85.58-3.6,2.62-.41,1.11,1.27,11.17,1.96,12.75.55,1.27,2.06,1.8,2.29,2.29,4.99.3,8.42-.95,13.4-.65-3.37,12.59,13.32,23.27,17.65,10.13.92.49,1.39,1.44,2.62,1.63.07,2.94-1.55,6.25-2.62,9.81-.92,3.07-2.88,7.85-2.62,9.81.54,4.09,6.07,2.81,10.79,2.29-2.96,8.7-6.46,16.86-9.48,25.5-8.38-3.92-9.35-14.32-15.04-20.59-3.41-3.77-8.92-6.53-12.75-10.46-3.19-3.28-4.73-8.06-7.85-10.79-2.38-2.08-5.92-3.06-8.5-4.9-1.88-3.35-3.46-7-6.21-9.48-6.64.99-15.92-.66-19.61,3.27-.83-.37-.82-1.58-2.29-1.31-6.38.71-14.75-.58-18.63,2.62-2.94-1.86-8.55-.2-14.06.33-3.83.37-7.69-.26-8.17,2.94-.38,2.49,4.03,8,4.9,9.48,1.9,3.24,3.34,6.9,5.23,9.15,1.62,1.93,4.74,3.22,7.19,4.9,2.29,1.58,5.5,3.14,7.19,4.9,3.3,3.43,5.57,10.39,8.83,14.38,3.12,3.83,8.41,5.7,11.11,8.83,3.29,3.8,4.33,9.3,7.19,13.08,3.03,4,6.64,5.84,10.13,9.15,4.31,8.44,10.13,15.36,16.34,21.9-1.25,4.5.28,9.01,2.29,12.09,2.59,1.1,6.95.27,10.13,0-4.91,13.07-10.02,25.93-14.71,39.23-38.06-49.76-75.82-99.83-113.43-150.04-.84-.69-1.87-1.18-2.94-1.63,1.82-7.23,3.97-14.12,5.88-21.25,1.82-1.88,4-3.41,5.88-5.23.77-7.72-5.41-12.62-8.83-17-3.39-4.35-6.13-8.22-9.15-11.77,2.11.09,2.86,1.99,5.23,2.29,1.15.14,2.46-.75,3.92-.33,2.59.76,3.7,5.14,6.21,6.54,5.52,3.06,10.98,1.51,14.38-2.29.18-2.47-.09-4.49-.98-5.88,16.94-1.58,34.45-2.6,50.99-4.58h0Z" style="fill-rule:evenodd;"/><path d="m432.99,380.85c.54,2.41,2.52,3.37,2.94,5.88h-6.54c-.96-1.76-2-3.45-2.94-5.23,2.49.1,3.91-.89,6.54-.65h0Z" style="fill-rule:evenodd;"/><path d="m357.15,382.48c2.81,3.29,5.65,6.55,8.5,9.81-1.17,4.93-3.45,8.76-4.58,13.73-3.75-2.57-5.89-6.75-9.15-9.81,1.77-4.55,3.47-9.17,5.23-13.73Z" style="fill-rule:evenodd;"/><path d="m387.88,386.08c-.9,2.04-1.55,4.34-2.29,6.54-2.73.43-5.63.69-8.83.65.77-2.17,1.8-4.09,2.29-6.54,2.97-.19,5.58-.74,8.83-.65Z" style="fill-rule:evenodd;"/><path d="m388.53,388.04c.58,1.27,1.13,2.58.98,4.58h-2.29c-.04-2,1.42-2.51,1.31-4.58h0Z" style="fill-rule:evenodd;"/><path d="m510.46,388.04c.17,2.39-1.78,5.7-2.94,8.83-1.2,3.22-2.42,6.61-3.6,9.48-1.9.72-5.27-.04-7.19.65,2.18-6.21,4.59-12.19,6.86-18.31,1.91-.6,4.96-.05,6.86-.65h0Z" style="fill-rule:evenodd;"/><path d="m437.57,388.69c.04.61.22,1.09.65,1.31-2.79,2-7.85.19-11.77.33,1.29-2.75,7.65-2.12,11.11-1.63h0Z" style="fill-rule:evenodd;"/><path d="m471.89,391.64c.44,2.6-1.47,5.76-2.62,8.83-1.14,3.04-2.44,6.22-3.27,9.15-4.84.17-9.32.71-14.06.98-3.44-6.5.2-11.65,2.29-17.65,6.58.26,11.73-.91,17.65-1.31h0Z" style="fill-rule:evenodd;"/><path d="m263.66,392.29c2.09,2.49,4.33,4.83,5.88,7.85-9.59,27.24-18.99,54.66-28.11,82.38-1.64-2.34-6.2-4.45-6.54-7.52-.22-1.97,2.49-7.26,3.6-10.46,8.01-23.22,17.8-50.65,25.17-72.24h0Z" style="fill-rule:evenodd;"/><path d="m440.51,392.94c.1,1.3-.75,1.64-.65,2.94-.69-.94-1.64-1.62-1.96-2.94,1.2.25,1.81-.8,2.62,0Z" style="fill-rule:evenodd;"/><path d="m366.96,393.92c1.38,1.68,2.85,3.25,4.25,4.9-.93,2.82-1.24,5.51,1.31,6.86,1.07.39,2.78-.17,4.25-.33-.9,5.31-3.26,9.16-4.58,14.06-3.46-3.84-6.92-7.68-10.13-11.77,1.33-4.88,3.27-9.15,4.9-13.73Z" style="fill-rule:evenodd;"/><path d="m392.78,397.19c.33,1.63-1.01,1.6-.98,2.94-2.38.45-5.01.66-7.52.98.54-2.5,1.43-4.67,2.29-6.86,3.88-1.17,4.62,1.06,6.21,2.94h0Z" style="fill-rule:evenodd;"/><path d="m384.94,394.25c-.58,2.15-2.27,4.92-1.96,6.86-3.06.43-5.62,1.36-9.15,1.31.51-2.65,1.64-4.68,2.29-7.19,2.93-.34,5.84-.69,8.83-.98Z" style="fill-rule:evenodd;"/><path d="m505.56,436.09c-8.16-.31-13.61,2.08-17,6.54-1.99-.18-3.31-1.05-4.58-1.96,3.57-10.16,7.73-19.72,11.11-30.07,3.13-.79,7.39-.45,10.79-.98,1.56-3.46,2.92-7.1,4.25-10.79,4.44.09,8.32-.39,10.79-2.29.38-.05.58.07.65.33-5.33,13.09-10.79,26.04-16.02,39.23h0Z" style="fill-rule:evenodd;"/><path d="m533.02,396.54c3.17,2.82,5.65,6.33,8.5,9.48-1.44,3.46-3.96,5.84-7.52,7.19-1.15-2.77-2.28-5.56-4.25-7.52.87-3.27,2.07-6.21,3.27-9.15Z" style="fill-rule:evenodd;"/><path d="m528.11,397.19c-.59,4.09-2.7,6.67-3.27,10.79,4.52,1.66,6.73,10.46,2.94,14.71-2.58-.82-5.11-.6-8.17-.33-1.64,3.37-3.15,6.87-4.58,10.46-1.89-.26-2.79.47-4.58.33,4.52-12.37,9.63-24.15,14.71-35.96h2.94,0Z" style="fill-rule:evenodd;"/><path d="m350.94,398.17c3.71,2.61,5.92,6.72,9.15,9.81-.93,3.43-2.61,6.11-3.27,9.81-1.35-2.54-8.36-7.16-8.83-10.79-.41-3.11,2.83-5.04,2.94-8.83Z" style="fill-rule:evenodd;"/><path d="m443.45,398.5c.9.63,1.66,1.39,2.29,2.29-.4,1.22-1.33,3.93,0,4.9-2.33.6-2.97-4.75-2.29-7.19Z" style="fill-rule:evenodd;"/><path d="m274.45,408.31c1.4,2.56,5.46,4.82,5.88,7.85.33,2.37-2.02,7.3-2.94,10.46-6.81,23.3-13.26,49.66-19.94,71.59-.97.8-2.17-1.61-3.27-2.62-1.36-1.24-3.16-2.03-3.92-3.27,7.74-28.33,16.54-55.58,24.19-84.01Z" style="fill-rule:evenodd;"/><path d="m447.37,421.06c-5.28-.32-9.13,3.73-7.85,7.85-16.56,2.84-14.2-24.22,1.31-19.61,4.13,1.23,7.07,5.12,6.54,11.77h0Z" style="fill-rule:evenodd;"/><path d="m547.07,409.94c-1.97,2.82-4.26,5.33-6.54,7.85-.09.99,1.05,1.27.33,1.96-1.92.63-2.82-1.18-3.27-2.94,5.19.07,5.35-8.01,9.48-6.86h0Z" style="fill-rule:evenodd;"/><path d="m361.08,409.61c3.93,3.37,6.65,7.95,10.46,11.44-1.14,3.55-2.66,6.71-3.6,10.46-1.85-1.44-3.25-3.78-5.23-6.21-1.43-1.76-4.65-4.22-4.9-6.21-.41-3.21,2.97-5.64,3.27-9.48Z" style="fill-rule:evenodd;"/><path d="m458.49,428.57c-3.75-.72-6.57-2.36-8.5-4.9,1.18-2.45.71-7.25,0-9.81,4.96.06,9.21-.6,13.73-.98.38-.05.58.07.65.33-1.8,5.28-3.73,10.43-5.88,15.36h0Z" style="fill-rule:evenodd;"/><path d="m416.32,421.38c-2.76,1.01-5.98-.34-9.15,0-.23-2.28-.94-4.07-.98-6.54,6.61-1.68,6.88,3.98,10.13,6.54Z" style="fill-rule:evenodd;"/><path d="m551.98,418.11c-1.64.76-3.28,1.52-5.88,1.31-1.07-2.39,1.54-3.31,2.29-4.9,1.87.53,2.15,2.64,3.6,3.6h0Z" style="fill-rule:evenodd;"/><path d="m541.52,420.4c1.55,7.42-1.41,19.18-.33,26.15-1.16.07-.65-1.53-1.96-1.31.03-.84,1.4-.34.98-1.63.25-7.49.64-14.83.98-22.23.38-.05.27-.6.33-.98h0Z" style="fill-rule:evenodd;"/><path d="m556.88,422.04c8.97,9.45,17.05,19.78,25.82,29.42-3.9-.16-7.65.61-10.79-.33-3.71-1.11-6.93-8.56-9.81-10.79-3.86-.06-6.14-1.71-7.52-4.25-.02-1.43.89-1.94,1.31-2.94-.26-1.49-1.77-1.72-2.29-2.94.79-3.02,2.6-5.03,3.27-8.17h0Z" style="fill-rule:evenodd;"/><path d="m402.92,422.69c4.66.13,9.28.31,13.73.65.28,2.34,1.35,3.88,1.31,6.54-4.47.32-8.86.73-13.4.98-.33-2.94-1.33-5.2-1.63-8.17h0Z" style="fill-rule:evenodd;"/><path d="m447.37,423.67c1.8,3.43,4.64,5.82,8.83,6.86-2.7,1.87-5,4.15-6.86,6.86-3.11-2.99-5.73-6.48-7.85-10.46.93-2.12,2.56-3.54,5.88-3.27h0Z" style="fill-rule:evenodd;"/><path d="m549.36,424.32v1.63c-1.84.33-3.02,1.34-4.25,2.29-.34-1.83,1.28-4.33,4.25-3.92h0Z" style="fill-rule:evenodd;"/><path d="m522.23,425.96c1.85-.22,2.97.3,4.25.65-1.15,2.23-1.88,4.88-2.94,7.19-1.25-.49-2.72-.77-3.92-1.31.61-2.44,1.77-4.33,2.62-6.54h0Z" style="fill-rule:evenodd;"/><path d="m538.58,425.96c-.27,5.83-.54,11.66-.98,17.32-5.73-2.07-8.89-11.24-4.9-17.32,2.32-.34,4.26.64,5.88,0Z" style="fill-rule:evenodd;"/><path d="m548.06,428.9c1.83,1.22,3.27,2.83,4.9,4.25-.2,1-.69,1.7-.98,2.62,1.21,4.02,4.12,6.34,8.82,6.86,2.29,3.05,5.16,5.52,7.19,8.83-8.28,3.18-18.23-.42-24.19-3.6-.6-4.89.04-11.46.33-17.32,1.28.38,3.85.18,3.92-1.63h0Z" style="fill-rule:evenodd;"/><path d="m423.84,430.54c5.7-.78,8.73,15.38,2.29,16.02-5.72.56-9.41-15.04-2.29-16.02Z" style="fill-rule:evenodd;"/><path d="m438.22,433.48c.14-.73,1.61-.13,2.29-.33.13,1.4,1.45,1.6,1.63,2.94-2.04-.14-2.52-1.84-3.92-2.62h0Z" style="fill-rule:evenodd;"/><path d="m812.51,436.42c-12.6,20.65-27.05,42.57-40.53,64.07-2.21,3.52-4.13,9.07-8.17,9.15-1.15-3.37,2.01-5.99,3.6-8.5,4.97-7.86,10.23-16.59,15.36-24.52,1.15-.06,1.07,1.1,1.96,1.31,1.93-2.21,3.58-4.7,5.56-6.86-.38-1.36-2.13-1.36-2.29-2.94,7.46-10.84,14.16-22.46,21.57-33.34,1.54-.01,1.8,1.25,2.94,1.63h0Z" style="fill-rule:evenodd;"/><path d="m431.68,436.09c4.55.14,5.41,3.96,8.5,5.56,4.93.24,8.84-.53,13.73-.33-.62,1.23-1,2.7-1.63,3.92-2.46-.06-4.02.78-6.54.65-1.13,5.52-3.59,9.7-4.58,15.36,1.18.59,3.61.01,4.9-.33.66.58-.81,1.78-.65,2.94-2.9.16-6.45-.35-8.83.33,1.47-6.38,3.69-12,4.9-18.63-2.66-3.77-8.04-4.82-9.81-9.48h0Z" style="fill-rule:evenodd;"/><path d="m527.79,437.07c.42.89,1.14,1.48,1.31,2.62-.74-.53-2.25-1.44-1.31-2.62Z" style="fill-rule:evenodd;"/><path d="m512.1,476.63c-.47-1.18,2.35-3.87,2.94-5.56,4.3-12.17-4.5-26.42-9.15-31.71,5.56.01,8.57-1.55,12.75-1.31,13.94.82,19.91,28.88,9.48,36.28-3.96,2.82-10.19.94-16.02,2.29h0Z" style="fill-rule:evenodd;"/><path d="m505.23,477.28c-10.07-.65-16.32-13.27-16.34-24.52-.01-6.47,5.33-15.5,12.75-12.09,8.74,4.02,16.94,31.26,3.6,36.61Z" style="fill-rule:evenodd;"/><path d="m431.68,500.49c-1.61,3.31-2.93,8.59-6.21,9.15-2.29-7.08-9.48-9.78-13.73-15.04-3.02-3.75-4.06-8.7-6.86-13.08-7.23-5.96-15.52-10.84-18.96-20.59-6.82-4.84-14.96-8.36-17.65-17.32,2.63.44,7.7-1.88,10.79-.98,2.55.74,3.21,5.28,5.23,7.52,2.37,2.62,6.75,3.31,9.48,5.88,2.37,2.24,3.73,6.2,6.21,9.15,3.95,4.7,10.57,7.42,14.06,11.77,3.11,3.89,4.34,9.33,7.19,13.4,3.11,4.44,7.49,6.07,10.46,10.13h0Z" style="fill-rule:evenodd;"/><path d="m358.79,444.59c2.33,2.61,3.23,6.51,5.56,9.15,3.66,4.16,9.76,6.05,13.4,10.13,2.7,3.03,4.06,7.1,6.54,10.13,3.64,4.46,8.41,6.9,12.42,10.79,2.61,3.96,3.58,7.83,6.21,11.44,3.22,4.43,8.83,6.88,12.09,11.11,2.79,3.63,3.47,8.25,6.86,11.77.03,3.3.17,6.7-.65,9.15-4.75,1.89-8.24-4.18-10.79-8.17-2.23-3.49-3.9-6.87-6.21-9.81-2.54-3.24-8.18-6.64-10.46-9.48-2.46-3.05-4.21-8.92-6.86-12.42-3.62-4.78-10.16-7.65-14.06-12.42-2.85-3.49-4.14-7.21-6.54-10.46-7.85-5.44-15.57-11.02-19.61-20.27,4.47.22,7.55-.95,12.09-.65h0Z" style="fill-rule:evenodd;"/><path d="m532.69,444.92c8.24,5.07,19.08,13.44,34.32,10.46-10.17,20.78-20.54,41.35-30.73,62.11-11.65,6.6-29.47.47-35.3-9.48-1.38-2.35-2.73-6.02-2.62-8.5.15-3.12,2.5-6.87,3.92-9.81,1.48-3.06,3.41-5.9,4.58-9.15,7.06-1.44,13.9-.42,19.61-1.96,12.31-3.32,12.34-23.82,6.21-33.67h0Z" style="fill-rule:evenodd;"/><path d="m482.02,445.24c3.78,1.6,3.21,4.71,3.6,9.81.9,11.92,6.3,23.25,17.65,25.5-.94,2.44-2.21,4.54-3.27,6.86-7.55,2.04-10.95,8.23-13.73,15.04-2.82.61-4.43-2.55-5.56-4.25-3.8-5.71-7.73-11.84-11.77-17.65,4.2-11.93,8.96-23.29,13.08-35.3h0Z" style="fill-rule:evenodd;"/><path d="m407.49,529.58c-1.89-.15-3.35.14-4.9.33-.73,2.21-1.42,4.47-2.29,6.54-10.19-6.92-14.56-22.48-26.15-29.09-1.84-4.91-5.14-8.37-6.86-13.4-4.08-2.46-7.06-6.02-11.11-8.5-3.64-4.96-4.53-9.24-8.17-13.73-3.79-4.67-10.83-5.95-14.71-10.13-1.71-1.84-2.62-4.95-3.92-7.19-1.36-2.34-2.84-4.33-3.92-6.86,3.54-.82,8.27-.44,11.77-1.31,3.25,2.71,3.84,7.14,6.21,10.46,3.04,4.25,10.25,6.7,14.38,11.11,3.5,3.74,5.28,9.49,8.5,13.08,3.62,4.04,9.9,6.27,13.08,10.46,2.68,3.54,3.58,8.26,5.88,12.09,3.29,4.28,8.01,5.96,11.44,10.13,2.6,3.16,3.69,7.72,6.21,11.11,1.32,1.78,3.51,2.9,4.58,4.9h0Z" style="fill-rule:evenodd;"/><path d="m451.62,446.88c-1.27,4.39-3.18,8.16-4.58,12.42-1.19.22-2.38.46-3.92.33,1.2-4.14,2.71-7.97,3.92-12.09,1.27-.48,3.26-.23,4.58-.65h0Z" style="fill-rule:evenodd;"/><path d="m279.35,448.19c38.46,50.23,76.32,101.07,114.74,151.35-1.26,2.01-1.59,4.2-1.31,6.21-1.89,5.09-3.63,10.31-5.56,15.36-34.54-46.75-69.93-97.7-105.26-145.79-2.18-2.96-6.57-7.92-6.86-9.81-.54-3.41,4.29-13.59,4.25-17.32h0Z" style="fill-rule:evenodd;"/><path d="m272.82,466.49c.28-.06.31.13.33.33,36.99,50.56,72.8,102.65,110.16,153.31,1.01,1.37,2.84,2.88,2.62,4.9-.47.79-2.38-2.67-3.27-3.92-35.96-50.82-73.85-102.56-110.16-153.31-.14-.68.22-.87.33-1.31h0Z" style="fill-rule:evenodd;"/><path d="m273.14,472.7c37.4,51.62,74.33,103.72,111.47,155.6-1.87,6.85-5.13,12.3-7.52,18.63-36.44-52.8-71.83-106.65-107.87-159.85,1.49-4.62,2.34-9.86,3.92-14.38h0Z" style="fill-rule:evenodd;"/><path d="m467.64,487.09c3.12,4.29,6.01,8.81,9.15,13.08-3.84,1.61-10.29.61-14.71,1.63,1.78-4.97,3.55-9.96,5.56-14.71h0Z" style="fill-rule:evenodd;"/><path d="m264.64,489.05c36.69,53.97,73,108.31,109.51,162.46-.34,1.51-1.15,2.55-1.31,4.25-32.99-48.72-66.14-100.58-99.37-150.69-1.85-2.78-5.19-8.85-6.86-9.81-.86-.49-1.93-.96-3.6-.33.66-1.85,1-4.02,1.63-5.88Z" style="fill-rule:evenodd;"/><path d="m498.7,489.37c-.96,4.46-5.85,8.51-3.27,15.04-1.8-1.14-3.61-3.28-6.54-2.29.68-6.84,5.37-9.67,9.81-12.75h0Z" style="fill-rule:evenodd;"/><path d="m265.63,502.45c33.48,48.99,65.73,101.11,99.37,151.35,1.85,2.76,6.34,7.82,6.54,9.81.25,2.44-2.46,7.07-3.6,9.81-1.44,3.45-3.39,6.38-3.92,9.15-34.39-54.43-68.28-109.33-102.32-164.1,1.32-5.33,2.9-10.39,3.92-16.02h0Z" style="fill-rule:evenodd;"/><path d="m569.63,541.68c-7.59.15-14.88.59-22.56.65-2.15-1.66-3.48-4.15-4.9-6.54,1.78-4.05,2-10,1.63-16.34-.14-2.45-1.14-4.87-.98-6.86.3-3.71,3.3-5.98,3.92-8.83,5.5-.16,10.4.22,15.04,0,1.88-.09,3.97-.81,5.88-.33,6.74,1.71,11.17,15.06,9.81,26.15-.75,6.05-4.37,9.3-7.85,12.09h0Z" style="fill-rule:evenodd;"/><path d="m445.09,546.91c-.28-1.41,1.74-3.12,2.62-5.23,4.28-10.28-.92-27.72-7.85-32.36,12.46-1.39,24.12-2.44,37.26-3.27,3.95-.25,9-1.38,12.42-.98,9.54,1.1,14.3,24.2,9.48,33.67-3,5.89-17.55,4.85-26.15,5.56-10.46.86-18.95,1.81-27.79,2.62h0Z" style="fill-rule:evenodd;"/><path d="m502.29,514.87c6.45,7.07,22.06,11.1,33.02,6.87.69,2.62-.38,5.51-.98,7.85-8.95-7.88-26.54,6.7-17.98,14.38-5.19,1.59-11.96.29-15.69-1.63,4.66-5.92,4.29-19.48,1.63-27.46h0Z" style="fill-rule:evenodd;"/><path d="m541.19,514.87c1.78,5.45,1.01,14.31,0,19.94-1.77-.84-3.32-1.91-4.25-3.6,1.68-2.3,2.89-7.98,1.31-11.44,1.39-1.23,2.29-2.94,2.94-4.9h0Z" style="fill-rule:evenodd;"/><path d="m259.09,518.79c33.6,53.94,67.22,108.42,101.01,162.46.96,1.53,2.51,3.23,2.29,5.23-34.6-55.3-68.7-111.09-103.3-166.38v-1.31h0Z" style="fill-rule:evenodd;"/><path d="m435.28,537.75c-5.31.15-7.42-6.02-7.85-11.11-.21-2.47.18-6.64,2.29-7.19,5.82-1.51,9.81,13.4,5.56,18.31Z" style="fill-rule:evenodd;"/><path d="m259.74,525.66c33.93,54.33,67.38,109.13,101.33,163.44-2.41,6.08-5.19,11.81-7.52,17.98-29.81-50.17-61.21-103.89-91.53-155.6-1.86-3.18-5.65-8.29-5.88-10.46-.33-3.06,3.65-11.41,3.6-15.36h0Z" style="fill-rule:evenodd;"/><path d="m525.83,530.89c4.01-.82,5.27.99,8.17,3.27,3.42,2.69,5.53,4.2,8.17,7.85,1.42,1.96,2.56,3.62,2.62,4.25.24,2.63-3.34,7.24-7.52,6.21-2.46-.61-3.58-4.65-6.54-6.54-3.45-2.2-13.23-2.3-13.4-7.52-.12-3.61,5.8-6.97,8.5-7.52h0Z" style="fill-rule:evenodd;"/><path d="m419.26,531.54c-1.13,5.3-3.95,11.74-6.21,17-3.86-.16-7.16.25-10.46.65-2.51-5.87,1.11-11.24,2.29-16.34,4.99-.25,9.92-.54,14.38-1.31h0Z" style="fill-rule:evenodd;"/><path d="m422.86,531.87c2.94,8.61,5.51,17.6,16.02,18.63-7.2,19.28-14.22,38.73-21.9,57.53-3.8-.49-8.49,3.05-12.09,2.62-4.03-.48-5.32-5.74-8.83-7.52,8.8-23.89,17.94-47.44,26.8-71.26Z" style="fill-rule:evenodd;"/><path d="m522.23,549.19c4.87,7.79-3.31,11.54-12.75,10.46-8.71-.99-17.97-7.55-19.94-13.4,3.03-.03,6.95-.89,8.5-1.31,5.75,4.33,17.35,1.57,24.19,4.25h0Z" style="fill-rule:evenodd;"/><path d="m487.58,546.58c4.64,9.37,18.31,17.9,32.69,13.4-1.28,5.52-4.71,10.1-7.19,15.04-2.62,5.2-5.36,15.91-12.09,17-10.06,1.62-23.63-5.94-27.46-12.75-4.32-7.68-.09-14.34,3.27-21.25,2.01-4.12,4.36-8.53,6.21-11.11,1.13-.5,2.98-.29,4.58-.33h0Z" style="fill-rule:evenodd;"/><path d="m484.64,615.55c-2.16.56-4.11,1.33-6.21,1.96.82-3.87,2.1-7.27,2.94-11.11,2.13-.81,4.52-1.36,6.54-2.29.79,3.11-2.68,7.53-3.27,11.44h0Z" style="fill-rule:evenodd;"/><path d="m471.89,604.77c2.5.55,5.2.9,7.85,1.31-.69,4.43-2.05,8.19-3.27,12.09-2.76-.19-4.71-1.17-7.52-1.31.12-3.61,2.38-7.85,2.94-12.09Z" style="fill-rule:evenodd;"/><path d="m469.93,605.75c-.92,3.65-2,7.15-2.94,10.79-2.8.57-4.78,1.97-7.52,2.62.95-3.84,2.4-7.19,2.94-11.44,2.87-.3,4.73-1.59,7.52-1.96h0Z" style="fill-rule:evenodd;"/><path d="m453.26,606.73c2.51.43,5.03.85,7.52,1.31-.88,4.24-2.31,7.94-3.27,12.09-2.35-.71-5.06-1.04-7.52-1.63,1.04-3.98,2.18-7.85,3.27-11.77h0Z" style="fill-rule:evenodd;"/><path d="m395.73,607.05c2.63,2.38,5.18,4.84,7.85,7.19,3.7-.99,7.54-1.83,11.44-2.62-3.39,8.6-6.7,17.28-9.81,26.15-2.22-1.45-6.51-.19-6.21,3.92.15,2.06,2.46,3.21,2.62,4.58.2,1.72-1.78,5.55-2.62,7.85-6.02,16.55-14.34,37.32-19.94,52.63-.96-4.72-8.22-5.32-7.52,1.31-1.26-.07-2.41-.01-3.27.33-.87-1.97-.64-3.83-1.63-6.21-.65-1.55-2.75-3.09-2.94-4.58-.29-2.29,2.64-7.99,3.92-11.44,9.47-25.48,19.27-55.3,28.11-79.11h0Z" style="fill-rule:evenodd;"/><path d="m450.64,607.38c.79,2.56-1.87,7.26-2.29,10.79-3.02.25-4.92,1.62-7.19,2.62-.27-3.76,2.31-7.49,2.62-11.77,2.36-.48,4.47-1.2,6.86-1.63h0Z" style="fill-rule:evenodd;"/><path d="m442.14,609.01c-1.05,4.07-2.21,8.03-3.27,12.1-2.55-.07-4.26-.97-6.54-1.31.75-4.37,2.01-8.23,3.27-12.09,2.49.12,4.24.99,6.54,1.31Z" style="fill-rule:evenodd;"/><path d="m420.57,608.36c1.4.45,2.81.9,4.25,1.31-.98,4.14-2.43,7.82-3.27,12.09-.73-.79-1.26-1.79-1.96-2.62-.79.19-.73,1.23-.98,1.96-1.57-.17-2.74-.75-3.92-1.31,1.16-2.88,2.53-5.54,3.27-8.82,1.99.23,1.95-1.54,2.62-2.62h0Z" style="fill-rule:evenodd;"/><path d="m419.92,625.36c49.54,63.89,98.19,128.67,147.43,192.86-5.16,8.57-10.86,16.59-16.02,25.17-47.09-65.36-93.81-131.09-140.56-196.79,2.83-7.3,6.27-14,9.15-21.25h0Z" style="fill-rule:evenodd;"/><path d="m402.26,639.42c.28-.06.31.13.33.33,47.88,67.05,96.49,134.63,144.81,202.34.92,1.29,4.37,5.42,2.94,6.86-1.45,1.46-3.95-3.88-4.9-5.23-35.51-50.45-71.53-99.88-107.22-150.37-8.87-12.55-18.51-25.8-28.11-39.23-2.41-3.38-8.84-10.68-8.17-13.4.14-.54.27-.72.33-1.31h0Z" style="fill-rule:evenodd;"/><path d="m407.17,654.12c46.69,65.32,93.35,130.68,139.58,196.46-5.36,7.6-10.21,15.72-15.36,23.54-44.46-66.36-88.65-132.98-133.04-199.4,2.62-7.19,6.07-13.54,8.83-20.59h0Z" style="fill-rule:evenodd;"/><path d="m464.05,671.78c-.23,1.51-1.08,2.41-1.31,3.92-1.09-.55-1.11-2.16-2.29-2.62.6-1.04,2.27-.99,3.6-1.31Z" style="fill-rule:evenodd;"/><path d="m394.09,675.37c1.8.49,1.97,2.61,3.27,3.6-.95,3.4-1.79,6.92-2.94,10.13-2.35-.48-2.04-3.63-3.92-4.58,1.42-2.83,2.49-6.01,3.6-9.15h0Z" style="fill-rule:evenodd;"/><path d="m398.34,681.26c2.12,1.69,3.02,4.6,4.9,6.54-2.01,1.04-4.77,1.33-6.86,2.29-.25-2.59,1.55-5.83,1.96-8.83h0Z" style="fill-rule:evenodd;"/><path d="m391.15,691.72c43.81,66.45,86.71,133.83,130.43,200.38-4.77,8.53-10.26,16.33-15.04,24.84-41.54-68.07-82.86-136.38-124.22-204.63,2.82-6.99,5.73-13.88,8.83-20.59h0Z" style="fill-rule:evenodd;"/><path d="m374.48,705.45c.53-.09.56.31.98.33,41.6,70.09,85.84,140.26,127.81,210.51.86,1.43,4.15,4.42,1.63,6.54-.66.77-1.31-1.22-1.96-2.29-40.45-66.27-80.15-133.11-120.95-200.05-2.68-4.41-7.82-11.35-7.52-15.04h0Z" style="fill-rule:evenodd;"/><path d="m378.73,720.48c41.54,67.31,82.24,135.47,123.24,203.32-4.8,7.84-9.31,15.97-14.71,23.21-35.95-63.1-72.52-129.91-109.51-194.17-2.07-3.59-7.05-9.89-7.19-12.75-.12-2.39,2.52-6.29,3.92-9.48,1.8-4.1,3.01-7.31,4.25-10.13Z" style="fill-rule:evenodd;"/><path d="m571.59,820.18c-5.57,9.25-11.72,17.92-17.32,27.13-2.85-2.12.81-5.08,1.96-6.86,4.36-6.75,9.2-14.5,13.4-21.25,1.27-.29,1.16.79,1.96.98Z" style="fill-rule:evenodd;"/><path d="m524.19,893.08c.75-.1.36.94.98.98-4.63,9.65-10.88,17.66-16.02,26.8-2.61-2.05.85-4.77,1.96-6.54,4.18-6.65,8.83-14.67,13.08-21.25h0Z" style="fill-rule:evenodd;"/><path d="m503.27,926.42c.77.1.73,1.01,1.31,1.31-5.1,8.2-9.42,17.16-15.69,24.19.86-5.08,4.15-8.88,6.54-12.75,2.6-4.22,5.37-8.16,7.85-12.75h0Z" style="fill-rule:evenodd;"/><path d="m546.42,274.28c2.55.2.37,2.98,0,3.92-.56,1.44-1.05,3.44-1.63,4.9-1.15,2.91-4.04,6.25-3.92,8.83.1,2.31,4.42,5.4,6.21,7.19,6.65,6.65,14.23,13.7,19.94,20.27-3.33,1.73-6.46-1.02-10.13-.98-6.09-5.9-11.4-12.57-17.98-17.98-1.11-.02-2.28-.1-2.62.65,2.67-8.12,6.76-19.38,10.13-26.8h0Z" style="fill-rule:evenodd;"/><path d="m407.82,293.57h-2.29c1.58-3.54,3.04-7.2,4.25-11.11,3.46,2.53,5.26,6.73,8.5,9.48-2.03.92-4.91.98-7.85.98,2.27,5.03,4.92,9.68,7.52,14.38.5.17.02.34-.33.33-4.55-3.41-6.86-9.04-9.81-14.06h0Z" style="fill-rule:evenodd;"/><path d="m315.64,297.82c.89.71-.77,1.61-.98,2.29-.66-.48.64-1.74.98-2.29Z" style="fill-rule:evenodd;"/><path d="m369.9,305.66c1.92,1.24,2.25,4.07,3.92,5.56-1.49.8-4.32.26-5.88.98,0-1.53,1.63-4.25,1.96-6.54Z" style="fill-rule:evenodd;"/><path d="m358.79,351.43c-1.77-1.16-3.12-3.1-4.25-4.9-3.29-5.26-6.58-11.41-10.46-16.67-1.43-13.59,7.86-24.77,22.56-22.23-2.1,6.73-4.57,13.09-6.86,19.61.44,1.31,1.25,2.24,1.63,3.6,3.51.17,8.46-.86,12.42-1.31h.65c-8.53,3.8-15.92,10.43-15.69,21.9h0Z" style="fill-rule:evenodd;"/><path d="m380.69,68.02h2.29c40.61,34.71,83.84,71.45,125.52,106.89,10.22,8.69,20.56,17.87,31.05,26.8,3.14,2.68,9.79,6.37,10.13,9.48.28,2.62-2.08,6.22-3.27,8.83-1.47,3.21-3.09,5.88-3.92,8.5,3.04,2.97,6.85,6.02,9.15,9.48.31.46,1.06.3,1.31.65.86,1.25,1.95,3.26,2.29,4.58.55,2.14-.64,6.49,1.63,8.17,1.15-.12,1.26-1.72,1.63-2.62,1.59-3.73,3-7.28,4.58-11.11,1.27-3.08,3.76-12.8,7.19-13.4,2.34-.41,5.86,3.85,7.85,5.56,7.96,6.83,15.29,13.29,22.88,19.29,3.7-2.51,9.37-.3,13.73.33,3.9-1.1,9.57-5.62,12.75-1.63-.63,7.66-4.23,12.34-5.56,19.29,60.53,53.99,124.17,107.7,185.67,161.81,3.53.85,8.02,2.3,8.82,5.23,1.07,3.89-3.09,7.88-4.9,10.79-6.18,9.92-12.64,20.22-18.31,29.09-8.87,13.89-16.24,27.43-24.84,38.57-2.67.16-4.5,2.05-6.86.98-1.42-.64-2.28-3.99-3.27-5.23-5.81-7.32-14.4-13.75-21.57-20.92-49.41-49.41-101.45-100.38-149.71-149.06-2.67.49-4.48,1.84-7.19,2.29,2.8,4.01,6.38,7.69,9.81,11.11,25.65,25.65,50.66,51.64,76.16,77.15,29.23,29.23,57.86,59.2,86.62,88.59,2.77-.04,7.76,3.02,8.17,5.88.42,2.87-3.25,7.66-4.9,10.46-9.93,16.79-19.2,31.75-29.09,47.73-2.42,3.91-8.22,16.72-12.42,18.63-1.24.56-3.87,1.18-4.9.98-2.46-.48-2.51-3.86-3.92-5.88-2.08-2.98-5.37-5.57-7.85-8.5-34.95-41.38-71.14-83.17-106.56-123.56-2.43-2.77-4.68-7.47-9.15-7.52-.87,2.59-1.56,5.4-4.9,5.88-2.85.41-5.57-.6-6.21-3.6-6.7,13.57-13.42,27.11-20.27,40.53,6.65.22,13.85-1.59,19.29,0,5.3,1.55,10.38,9.46,12.09,17,2.97,13.08-1.86,27.31-11.11,30.07-6.68,2-11.82-.02-21.25.98-1.47,6.13-5.56,10.61-12.09,10.13-4.18-.31-6.2-3.47-8.17-5.56-.33-.35-.61-1.54-1.31-.98.68,1.17.17,3.53.33,5.23-3.66,7.08-6.72,12.88-10.13,19.94-2.75,5.7-5.81,15.73-11.12,18.96-11.87,7.22-33.02-4.28-37.92-13.4-1.58-2.95-3.12-8.61-2.62-12.42.64-4.78,5.19-11.48,7.19-15.36.71-1.39,2.16-3,1.63-4.58-10.81.63-21.21,1.67-31.71,2.62-5.82,15.03-12.11,31.53-17.65,46.42-.76,2.04-2.23,4.32-1.63,6.54,2.99,2.18,7.06-1.51,11.11-1.63,2.42-.07,5.33,1.39,8.17,1.31,3.17-.09,6.28-2.21,9.48-2.29,2.97-.07,5.68,1.87,8.5,1.63,2.7-.22,6.1-3.08,10.13-3.27,3.02-.14,6.42,1.55,9.48,1.31,3.36-.26,8.87-4.8,11.77-2.29,2.48,2.15-.89,7.77-1.63,9.81-1.45,3.98-2.3,6.93-3.92,9.81-4.04.42-6.31,3.42-10.79,3.6-3.13.13-6.32-1.94-9.48-1.63-3.44.33-6.69,3.5-10.13,3.6-3,.08-5.9-2.13-8.83-1.96-3.27.2-5.91,2.8-9.15,2.94-4.44.19-8.32-3.09-12.42-.33,9.99,14.09,21.52,29.48,33.02,43.15,2.62-.64,5.31-2.62,8.5-1.63,2.83,3.28-.84,7.55-1.63,11.11,34.14,45.63,69.12,90.39,103.3,135.98,2.93,1.07,6.07,3.08,6.21,6.21.1,2.1-2.86,5.45-4.58,8.17-10.12,16.07-19.89,30.67-30.07,46.42-2.86,4.42-4.29,8.91-10.46,8.17-2.32-1.14-2.2-3.96-3.27-5.88-4.36-7.86-10.53-15.17-15.69-22.88-36.23-54.11-71.61-108.75-108.2-161.81-1.39.57-3.02.9-4.58,1.31,1.66,4.29,4.33,8.16,6.86,12.09,36.3,56.36,73.54,112.91,110.16,169,2.69,4.12,4.64,9.11,7.52,12.42,2.08,2.4,6.46,3.77,6.21,7.85-.1,1.67-3.05,5.35-4.58,7.85-8.28,13.51-15.46,25.02-23.86,38.57-1.99,3.21-6.82,13.59-10.46,14.71-6.07,1.87-5.57-2.24-7.19-5.88-1.89-4.24-5.07-8.44-7.52-12.75-7.45-13.09-14.86-26.79-22.23-39.55-27.5-47.65-54.64-96-81.72-144.16-2.09-3.71-7.13-10.89-7.19-13.4-.03-1.29,1.51-4.08,2.29-5.88,2.62-6.09,5.42-12.13,7.52-17.65-.95-1.34-2.1-2.48-2.62-4.25-1.96.29-4.79,1.22-6.86.33-3.46-1.77-1.32-9.14-4.9-10.79-1.93,4.61-3.08,9.99-6.86,12.75-3.45-2.38-5.08-6.26-7.19-9.81-30.12-50.55-59.49-101.55-89.57-152.33-2.03-3.42-5.72-8.8-5.88-11.44-.16-2.63,1.48-5.81,2.29-8.83.65-2.44,2.27-7.29,2.29-9.15.02-1.94-1.21-3.61-.98-5.23.29-2.1,2.33-3.16,3.27-5.23,1.44-3.16,1.05-5.91,2.29-8.5-.95.6-2.66.96-3.92.33-2.06-4-10.42-7.11-11.11-11.77-.36-2.37,1.42-6.49,2.29-9.48,2.64-9.07,6.5-19.85,7.85-27.79-1.8,5.82-3.65,11-5.88,17.32-1.1,3.13-3.66,15.59-7.19,16.02-3.22.39-5.09-3.94-6.86-5.88-1.93-2.12-5.63-4.16-5.88-7.19-.16-1.93,1.72-5.45,2.62-8.17,2.71-8.23,6.13-16.58,8.5-23.86-.02-.34-.42-.26-.33.33-2.09,4.34-3.63,9-5.88,14.38-1.09,2.6-4,12.99-7.85,12.75-2.46-.15-4.21-5.05-5.23-7.19-1.64-3.44-2.52-5.74-3.92-8.5.67-2.06,2.35-4.84,2.29-6.54-.78,1.13-2.73,1.11-4.25.65-2.95-5-3.72-12.19-5.88-17.98,10.16-21.88,20.06-44.01,30.4-65.7-.96-3.14-2.68-4.85-1.63-7.85.91-2.61,5.98-4.74,9.15-3.92,1.26.33,2.99,2.93,4.25,4.58,3.78,4.92,8.33,11.33,11.77,14.71,1.14-1.36,1.67-3.34,2.94-4.58-4.91-7.51-11.04-13.8-16.34-20.92-.03-3.43-4.71-9.8-4.25-13.4.34-2.71,4.31-5.38,5.56-8.17,2.48-5.58,3.87-13.41,5.88-20.92,4.88-18.14,9.16-34.86,14.06-52.96.84-3.09,1.39-8.6,4.58-8.83,2.82-.2,5.05,3.3,6.54,4.58,2.55,2.19,4.62,3.92,6.21,5.23.58.62.24,2.16.33,3.27,4.68-1.97,7.53,3.28,10.46,6.54,3.28,3.63,7.14,6.82,5.23,11.44,4.17-1.09,4.51,5.04,6.54,3.92.29-13.63,21.69-22.39,30.73-12.09,2.46-2.53,5.02-4.43,7.85-7.52,1.93-2.11,4.72-7.45,8.5-6.86,2.27.35,3.67,3.97,4.58,5.23,1.21,1.68,3.76,3.82,3.6,6.21-.21,3.11-6.14,6.91-8.83,9.48-3.36,3.23-6.96,6.1-9.15,9.15,2.03,2.55,4.19,4.96,4.25,9.48,4.73,1.52,7.58,3.99,9.81,7.52.78,1.24.84,3.96,3.6,2.94-.06-.8-1.78-4.11-.33-5.88,2.72-3.31,14.58-.68,18.96-2.62,2.27-5.29,3.89-10.13,6.21-16.34,1.28-3.43,4.07-14.62,7.85-14.71,2.23-.06,4.95,4.25,6.54,6.21,4.29,5.29,7.62,9.22,11.77,14.38,1.62,2.01,4.19,6.36,6.21,6.86,2.52.63,4.67-1.19,6.54-.33,2.74,2.81,4.63,6.48,6.54,10.13,2.95,2.4,7.14,3.73,9.81,6.54,2.59,2.73,4.03,7.19,6.86,10.46,4.18,4.84,11.2,8.08,14.71,13.08,3.12,4.44,4.4,10.05,7.85,14.38,2.32-4.98,1.7-12.9,9.81-12.09-41.54-45.72-83.76-95.99-126.18-142.2-2.7-2.94-7.66-7.64-7.85-10.13-.19-2.55,1.86-6.69,2.62-9.81.91-3.77,1.65-7.12,2.29-10.13-1.9-2.42-.98-9.31,2.62-10.13,2.53-3.73,2.05-21.06,7.85-20.92,2.43.06,7.34,6.03,9.81,8.5,44.57,44.57,89.02,88.36,133.04,132.39,1.52,1.52,2.78,3.88,4.25,3.6,1.07-1.77,1.49-4.18,2.29-6.21-44.22-44.8-95.14-91.54-140.89-137.29-2.96-2.96-8.72-7.04-9.15-9.48-.38-2.15,1.42-6.5,2.29-9.81.8-3.04,2.51-6.71,2.62-9.48.08-2.07-1.11-3.71-.65-5.88.41-1.95,2.3-2.93,3.27-4.25,2.04-5.71,3.13-18.82,7.19-22.56h0Zm-2.94,26.8c25.74,23.5,52.09,47.14,78.45,70.61,25.39,22.6,50.42,46.69,75.84,68.65.49.42,1.28,1.76,2.29,1.31-.6-1.8-2.38-2.42-2.94-4.25,2.38-1.83,5.1-4.45,7.19-5.56,2.43-4,4.04-8.82,6.21-13.08-54.09-45.95-108.06-91.99-162.14-137.95-1.36,7.03-3.57,13.21-4.9,20.27h0Zm6.54,11.77c3.56,3.31,6.97,6.25,9.81,8.83,42.81,38.88,84.87,77.13,127.49,115.06,3.24,2.88,5.95,7.8,11.11,7.85-50.85-46.66-105.46-95.85-157.89-142.2.33,3.56,6.21,7.41,9.48,10.46Zm-13.08,12.75c49.18,48.23,98.54,96.28,148.41,143.83,2.47-7.88,5.37-15.34,8.17-22.88-50.07-46.58-101.27-92.03-152-137.95-1.72,5.47-2.98,11.4-4.58,17Zm-8.17,34.65c47.18,50.23,94.05,100.78,141.87,150.37,2.38-8.19,5.53-15.61,8.17-23.54-48.12-48.97-97.02-97.15-145.79-145.46-.93,6.7-3.04,12.22-4.25,18.63Zm136.64,149.06c-45.74-49.96-93.34-98.67-139.25-148.08-.02-.34-.42-.26-.33.33-.02.2-.05.39-.33.33,10.84,13.58,23.58,25.65,35.63,38.57,29.96,32.12,59.71,64.94,90.22,96.1,5.23,5.34,10.49,11.73,15.69,16.67-.02-.02,1.15,2.93,1.96.98.3-2.44-2.3-3.49-3.6-4.9h0Zm-140.89-132.06c-.7,2.88-2.26,6.54-1.96,8.5.29,1.9,5.83,7.2,8.17,9.81,9.12,10.17,17.5,19.55,25.82,29.09,34.03,39.01,69.66,78.41,102.97,115.72,2.91-7.22,5.43-14.84,8.17-22.23-46.55-50.43-93.66-100.29-140.89-150.04-.65,2.46-1.39,5.43-2.29,9.15h0Zm188.29,68.32c-3.77-2.44-6.49-5.93-9.81-8.83-.09.67-.87.65-1.31.98,1.54,4.36,5.88,3.65,4.9,9.81-2.13.81-6.09-.2-8.17.65,1.55,2.27,3.8,3.82,5.23,6.21,4.55-.13,9.67.3,13.08-.98-.08-3.52-2.22-4.97-4.25-6.54.18-.67.98-.64.33-1.31h0Zm24.52-8.5c-3.49,8.93-7.3,17.54-10.79,26.48,74.67,70.36,149.99,140.07,225.55,209.53,6.39-10.83,13.27-21.17,19.94-31.71-77.72-68.62-156.43-136.24-234.7-204.3h0Zm-71.26,94.8c-1.25,3.47-4.11,9.76-3.92,12.09.25,3.06,3.8,5.06,4.9,7.85,11.8-31.79,23.38-63.79,34.98-95.78-2.02-2.34-3.75-4.97-6.21-6.86-8.66,25.69-20.17,56.05-29.75,82.7h0Zm-229.15-54.59c-4.51,17.02-9.14,34.44-13.73,51.65-2.04,7.67-4,12.3,1.31,16.67,8.6-27.57,17.17-55.18,25.5-83.03-2.37-2.31-4.92-4.45-7.52-6.54-1.26,7.04-3.57,13.76-5.56,21.25Zm267.72-20.27c-12.11,31.7-23.61,64-35.3,96.1,3.96.14,7.26-.37,10.79-.65.26-3.9,4.38-7.43,3.92-10.79-.37-2.7-3.9-2.93-4.58-5.88.73-2.94.99-5.66,3.6-5.88,2.25-.19,3.29,2.83,4.58,2.29,8.75-22.64,17.35-45.41,25.82-68.32-2.28-1.27-3.82-3.9-2.29-7.19-2.25.04-4.75-.18-6.54.33h0Zm15.36,9.48c7.82,7.29,15.25,14.3,22.23,20.92,29.83,28.31,59.84,55.39,88.91,83.03,19.71,18.73,39.95,36.87,59.82,54.92,20.27,18.41,39.16,37.88,59.49,55.24.44-1.19,1.65-1.62,1.96-2.94-1.6-2.73-4.26-4.76-6.54-6.86-17.53-16.25-34.71-32.49-52.3-48.38-19.93-18-39.88-36.41-59.49-55.24-19.07-18.32-39.69-36.22-59.49-55.24-9.44-9.07-20.18-17.57-30.07-27.46-4.4-4.4-9.28-9.21-14.71-14.06-4.87-4.34-11.7-11.08-15.69-13.4-3.76,3.19,2.85,6.65,5.88,9.48h0Zm68.32-7.85c-2.42-.23-5.25,1.94-8.17,2.29-.56,2.6-1.21,5.11-1.96,7.52,1.98.96,2.72,3.17,5.23,3.6,2.12-3.98,3.38-8.83,4.9-13.4Zm-19.61,1.63c2.91,2.1,5.41,4.61,8.17,6.86.48-2.24,1.18-4.27,1.63-6.54-3.38-.41-7.35-2.71-9.81-.33h0Zm-259.22,17.65c-1.26,1.26-4.64,2.71-2.62,4.9,4.85-3.77,9.8-9.53,14.38-13.73,1.48-1.36,4.85-2.86,2.29-5.23-4.99,3.62-9.68,9.68-14.06,14.06h0Zm203-1.63c1.62.45,2.64,1.5,4.58,1.63.89-2.71,2.28-4.92,2.94-7.85-1.36-1.15-2.52-2.49-3.92-3.6-1.46,3.01-2.59,6.35-3.6,9.81Zm-200.05,3.92c-2.2,2.12-5.81,4.09-2.94,5.88,6.59-4.96,12.04-11.06,17.98-16.67-.77-.54-.93-1.68-1.63-2.29-3.45,3.26-9.18,9-13.4,13.08h0Zm-81.39,73.88c1.84,2.43,3.94,6.27,6.21,7.19,9.49-27.66,19.21-55.1,28.77-82.7-2.47-3.42-5.31-6.46-8.17-9.48-8.84,28.43-18.09,56.44-26.8,84.99h0Zm291.58-81.39c-3.39,8.49-6.7,17.06-10.46,25.17,69.96,70.81,141.99,140.68,212.15,210.84,1.05,1.05,2.51,2.91,3.27,2.29,6.65-9.8,12.83-20.07,19.29-30.07-74.97-69.18-149.17-139.16-224.24-208.23h0Zm-240.26,9.15c-.99,2.82-.56,7.42,2.62,8.5.04-10.08,10.49-15.9,19.94-11.44-3.16-10.72-20.07-4.15-22.56,2.94h0Zm77.8,6.54c2.95,4.13,6.3,7.87,9.81,11.44,1.09-4.69,3.31-8.24,4.58-12.75-3.06-3.91-6.12-7.83-9.48-11.44-1.62,4.26-3.08,8.69-4.9,12.75h0Zm-62.11-8.17c-5.14.11-10.33,4.3-9.81,10.13.39,4.3,4.49,6.41,6.54,9.81,1.05-.58,2.97-.3,4.25-.65,2.24-4.08,6.39-6.25,12.09-6.86-3.54-3.5-5.82-12.57-13.08-12.42h0Zm203.98,27.13c.33-.76,1.5-.68,2.62-.65,6.57,5.41,11.89,12.08,17.98,17.98,3.67-.04,6.8,2.71,10.13.98-5.71-6.57-13.29-13.61-19.94-20.27-1.79-1.79-6.11-4.88-6.21-7.19-.11-2.58,2.77-5.92,3.92-8.83.58-1.47,1.07-3.46,1.63-4.9.37-.95,2.55-3.72,0-3.92-3.38,7.42-7.46,18.69-10.13,26.8h0Zm-258.57,61.45c2.13,2.55,3.88,5.49,6.21,7.85,9.86-26.86,20.48-52.96,30.4-79.76-2.51-3.37-5.27-6.49-8.17-9.48-9.27,27.34-19.11,54.11-28.44,81.39h0Zm139.91-54.92c.35.01.83-.15.33-.33-2.6-4.7-5.25-9.35-7.52-14.38,2.94,0,5.82-.07,7.85-.98-3.24-2.75-5.04-6.94-8.5-9.48-1.21,3.91-2.67,7.58-4.25,11.11h2.29c2.94,5.01,5.26,10.65,9.81,14.06h0Zm-27.13-12.75c3.77-.48,8.23-.27,11.44-1.31-3.36-2.42-4.98-6.57-8.5-8.82-.67,3.53-3.34,6.61-2.94,10.13h0Zm-54.92-2.62c.79,2.7.74,6.23,1.31,9.15,2.86-3.46,5.34-7.3,10.79-8.17.1-1.64-.38-3.86.65-4.58-5.19-1.92-9.69,1.33-12.75,3.6Zm-17,2.94c2.36-.25,3.21-2.02,4.25-3.6-1.52-.2-3,2.45-4.25,3.6Zm3.92-.33c.78-.2,1.49-.47,2.62-.33-.04-.83-.48-1.27-1.31-1.31-.22.76-1.09.87-1.31,1.63h0Zm92.84,1.31c2.37,2.31,2.73,6.31,4.9,8.83,3.3,3.8,10.54,6.18,13.73,9.81,2.32,2.64,3.12,7.15,5.56,10.13,4.02,4.91,10.62,7.81,14.06,12.42,3.16,4.25,4.39,9.8,7.52,14.06,2.86,3.89,7.48,6.19,10.46,10.13,3.13,4.14,4.49,8.46,7.85,12.42.56-5,5.09-8.95,4.58-13.4-.29-2.56-4.05-5.1-5.88-6.86-2.53-2.44-4.69-4.43-6.86-6.21-2.02-5.61-5.45-9.8-7.52-15.36-2.64-1.64-4.57-3.95-6.86-5.88-2.2-1.85-5.09-3.57-7.19-5.88-2.99-3.3-4.34-8.18-7.52-11.11-2.68-2.47-6.59-3.23-9.15-5.88-1.7-2.76-3.21-5.73-4.9-8.5-4.43.26-9.04.33-12.75,1.31h0Zm-93.49,1.96c1.74,2.55,8.97.61,11.11-.65v-.98c-3.86.39-7.07,1.43-11.11,1.63Zm17.98,10.79c.45,2.43,2.16,4.4,4.25,5.88,3.46-5.03,7.17-9.83,15.04-10.46-2.18-12.48-21.78-8.93-19.29,4.58h0Zm53.61-11.11c2.75,3.42,3.85,8.56,6.86,11.77,3.55,3.79,10.15,6.5,13.4,10.13,2.97,3.32,4.21,8.04,6.86,11.44,4.16,5.33,10.1,7.67,14.38,12.75,3.39,4.53,4.22,9.61,7.52,14.06,3.09,4.18,8.14,6.69,11.11,10.79,4.8,6.63,7.42,14.65,14.06,19.94,2.13-.27,4.05-.75,6.54-.65.15-2.03,1.41-2.95,1.63-4.9-5.65-5.11-7.04-12.57-11.44-18.31-3.26-4.25-8.44-6.95-11.77-11.44-2.91-3.93-4.33-8.2-6.86-12.75-4.14-4.63-9.86-7-13.73-12.09-2.49-3.27-3.48-7.72-6.21-10.79-3.67-4.11-9.98-6.24-13.73-10.79-2.64-3.21-3.58-6.65-6.21-10.13-4.69-.22-7.83,1.1-12.42.98h0Zm-78.78,2.29c.22-.68,1.87-1.58.98-2.29-.34.54-1.65,1.81-.98,2.29Zm137.62,84.01c-2.52-3.5-3.44-8.33-6.21-12.09-3.27-4.44-9.03-6.68-12.09-11.11-2.73-3.96-3.95-8.78-6.21-13.08-3.93-4.39-9.41-6.91-14.06-12.09-3.49-3.89-4.97-9.39-8.5-13.4-4.32-4.91-11.39-6.96-14.71-11.44-1.96-2.65-3.74-11.12-6.86-12.09-3.72-1.16-8.89,2.33-12.42,1.31,2.28,5.57,5.89,9.81,8.17,15.36,5.29,3.21,9.92,7.08,15.04,10.46,2.72,5.56,6.4,10.16,9.15,15.69,4.04,3.04,7.77,6.4,11.44,9.81,3.02,4.2,4.15,9.59,7.19,13.73s8.03,6.67,11.11,10.79c5.41,7.22,8.45,16.15,16.02,21.25.99-2.39,1.17-5.58,2.94-7.19,1.38-.36,3.11-.38,4.9-.33-1.28-2.45-3.38-3.42-4.9-5.56h0Zm-159.85-16.02c-1.08,2.91-3.81,7.84-3.6,9.81.32,2.95,4.79,5.37,5.88,7.85,10.71-25.47,21.52-50.83,32.03-76.49-2.38-3.5-5.26-6.51-8.17-9.48-7.79,20.19-17.97,46.36-26.15,68.32h0Zm104.6-56.55c-.66-4.61-4.75-8.52-7.85-11.77,1.62,4.92,3.27,9.81,7.85,11.77Zm-72.57-10.46c-.65.77,1.74,1.3,1.63,2.62,2.33-.61,5.7-.18,7.52-1.31-.73-.14-.13-1.61-.33-2.29-3.23.04-5.93.6-8.83.98Zm-13.4,8.5c1.35-1.49,2.52-4.89,2.62-6.54-1.34,1.53-2.58,4.77-2.62,6.54Zm16.67-3.92c1.08.66,1.72,1.77,2.62,2.62.98-.43,2.5-.33,3.92-.33-.14-1.27-.25-2.59-.65-3.6-2.05.35-4.42.38-5.88,1.31Zm40.21,6.54c1.57-.72,4.39-.18,5.88-.98-1.67-1.49-2-4.32-3.92-5.56-.33,2.29-1.96,5.01-1.96,6.54Zm6.54,17.32h-.65c-3.96.45-8.91,1.48-12.42,1.31-.39-1.36-1.2-2.29-1.63-3.6,2.3-6.53,4.77-12.88,6.86-19.61-14.69-2.55-23.99,8.64-22.56,22.23,3.88,5.27,7.17,11.41,10.46,16.67,1.13,1.8,2.48,3.75,4.25,4.9-.23-11.47,7.16-18.1,15.69-21.9h0Zm164.75-21.9c-.07-.39-.36-.2-.65,0-3.26,8.83-6.79,17.4-10.13,26.15,67.66,73.66,135.56,147.1,203.32,220.65,6.08-10.92,13.02-20.98,18.96-32.04-70.81-71.27-140.66-143.52-211.5-214.76h0Zm-209.21,2.29c-.15,1.49-.84,2.43-1.31,3.6,1.76-.42,4.07-.28,5.88-.65.19-1.39-.24-2.16-.33-3.27-1.63-.1-3,.05-4.25.33h0Zm74.86,7.52c-2.22-1.71-3.7-4.14-6.54-5.23,1.31,2.4,4.66,4.49,6.54,5.23Zm-29.09-2.29c-.58-2.98-5.18-1.4-8.83-1.31-.5,2.23-1.52,3.93-1.96,6.21,3.54.16,6.07-.68,9.48-.65.23-1.93,1.58-2.83,1.31-4.25Zm-47.73,0c-.55,1.19-.86,2.62-1.63,3.6,3.08-.19,6-.54,8.83-.98-.09-1.11-.52-1.88-.33-3.27-2.28.22-4.58.44-6.86.65Zm48.38,3.92h1.96c-.01-1.19-1.35-1.05-1.63-1.96.23.99-.56.97-.33,1.96Zm-50.67,1.63c-.51.9-.91,1.92-1.31,2.94,3.71-.43,7.34-.94,11.11-1.31v-2.94c-3.26.45-6.76.65-9.81,1.31Zm47.73,6.54c1.33-.64,3.23-.69,5.23-.65-.28-1.47-1.54-1.95-1.96-3.27.28-.92,1.06-1.34.98-2.62-3.76-.38-3.76,4.74-4.25,6.54h0Zm6.86-3.92c1.4,2.09,3.29,3.68,4.25,6.21-.5,1.79-1.39,3.19-1.63,5.23,1.06,1.55,1.95,3.28,3.6,4.25,1.12-4.22,3.14-7.54,4.25-11.77-3.41-2.03-6.11-4.79-9.81-6.54.39,1.48-.9,1.28-.65,2.62h0Zm-16.02-1.63c-.75,1.89-2.32,4.25-1.63,6.54,2.34.44,5.49-1.01,8.83-.65.56-2.38,1.5-4.38,2.29-6.54-3.54-.16-5.94.82-9.48.65Zm201.03,3.6c-1.85,5.11,3.25,6.62,5.56,9.48.24-3.85,2.15-9.32,1.31-12.09-1.97,1.18-4.73,1.59-6.86,2.62h0Zm-241.9.33c-.08,1.12-.83,1.57-.65,2.94,3.94.33,9.11-.89,13.4-1.31.26-1.45-.43-1.96-.33-3.27-4.33.35-8.43.94-12.42,1.63Zm239.93,1.63c-.16-1.03.59-1.16.33-2.29-1.11.12-2.7-.98-3.27-.33,1.17.68,1.77,1.93,2.94,2.62Zm9.15,8.5c2.34.28,3.88,1.36,6.54,1.31.48-2.24.94-4.51,1.63-6.54-2.54-1.59-4.22-4.06-6.54-5.88-.33,3.92-1.33,7.16-1.63,11.11Zm-48.38-6.54c.54.66.88,1.52,1.96,1.63.53-1.87,1.43-3.36,1.96-5.23-1.3.21-1.31-.86-2.62-.65-.22,1.63-.95,2.75-1.31,4.25h0Zm203.98,224.9c-16.28-16.74-31.94-34.9-47.4-51.65-36.63-39.69-71.62-77.96-108.53-117.68-15.42-16.6-31.44-34.51-47.4-51.32-2.68-2.82-5.3-6.86-7.52-7.19-2.95,2.57,2.01,6.7,4.58,9.48,15.96,17.32,32.14,34.55,47.07,51.32,17.73,19.92,36.71,38.83,53.94,58.19,35.66,40.07,72.22,78.67,107.55,116.7,3.49-3.55-.27-5.77-2.29-7.85h0Zm-392.26-225.22c-4.12.68-8.44,1.15-12.75,1.63-.19,1.39.24,2.16.33,3.27,4.62-.39,9.15-.87,13.4-1.63-.76-.65.39-3.23-.98-3.27Zm51.65,11.77c1.08,1.31,1.94,2.85,3.27,3.92,1.07-4.05,2.79-7.45,3.92-11.44-1.15-1.14-1.25-3.32-2.94-3.92-1.25,3.98-2.97,7.49-4.25,11.44Zm-26.48,12.09c1.07-.95,5.47-.25,7.52-.65-1.62-8.09,5.89-12.61,12.75-14.38-.77-.97-1.87-1.62-2.29-2.94,1.1-1.08,1.15-3.21,1.96-4.58-12.48,1.33-21.44,9.4-19.94,22.56Zm220.32-16.34c.77-.97,2.75-.73,3.27-1.96-1.07-.56-1.54-1.72-2.62-2.29-.12,1.31-1.24,3.32-.65,4.25h0Zm-244.84-2.62c-3.84.95-8.47,1.12-12.75,1.63-.19,1.39.24,2.16.33,3.27,4.66-.25,9.08-.73,13.08-1.63-.31-.99.7-3.31-.65-3.27Zm-85.97,1.31c.84,4.28,2.95,7.3,3.6,11.77,12.03,14.22,23.75,28.77,35.3,43.48,3.13.14,7.79,2.52,8.17-1.63-1.24-.74-.92,2.45-2.94,1.96-3.69-3.72-6.94-7.88-9.81-12.42.44-1.2.92-2.35,1.31-3.6-.92-.71-1.59,1.36-2.94.33-3.11-3.98-6.36-7.81-9.15-12.09,1.06-1.88.84-2.66-.65-3.92-.2.99-.73,1.67-1.96,1.63-3.83-3.58-6.77-8.05-9.81-12.42.94-1.77,1.19-3.7-.65-4.58-.45.75-.57,1.82-1.96,1.63-3.24-2.97-4.78-7.64-7.52-11.11-.18.48-.51.79-.98.98Zm92.84,17.98c.21,2.13-.32,6.36,1.31,7.19,2.57-3.53,3.32-8.88,5.23-13.08-2.99-4.1-5.48-8.68-8.5-12.75.53,5.56,1.36,12.61,1.96,18.63h0Zm75.51-17.32v-1.31c-.48.18-1.69-.38-1.63.33,1.12-.25.41,1.33,1.63.98Zm-24.19,6.86c1.27-.8,4.34.2,5.56-.65-1.54-1.29-1.71-3.95-3.6-4.9-.37,2.14-1.28,3.73-1.96,5.56Zm87.93-5.23c-1.43,3.91-2.51,8.17-4.25,11.77,1.01,1.82,2.43,3.24,4.25,4.25,1.79-5.4,3.78-10.61,5.56-16.02h-5.56Zm-158.54,2.94c-.26,1.35.5,1.68.33,2.94,4.75-.27,8.95-1.07,13.4-1.63.14-1.12-.13-1.83-.33-2.62-4.68.22-8.49,1.31-13.4,1.31h0Zm45.44,10.79c.51,3.65,4.93,5.28,5.88,9.15,4.08.16,6.91-.94,11.11-.65-2.07-4.02,4.16-9.38,1.96-12.42-.06.49.12,1.21-.33,1.31-3.19-1.93-4.64-5.04-5.23-8.83-6.99.16-14.27,5.2-13.4,11.44h0Zm63.09,154.94c8.1-.4,16.1-.9,23.86-1.63,19.36-51.8,38.96-103.34,58.51-154.94-5.04.19-9.93.53-14.71.98-1.48-3.2-3.7-5.67-5.56-8.5-20.66,54.74-41.35,109.44-62.11,164.1h0Zm-123.56-142.85c3.5-.09,6.28-.91,10.13-.65-.68-6.62-1.13-13.47-1.96-19.94-2.29,7.3-5.84,13.33-8.17,20.59Zm205.94,4.9c64.38,74.87,128.94,149.56,193.52,224.24,6.01-10.01,12.35-19.68,17.98-30.07-66.18-72.97-134.2-146.91-201.69-219.67-3.06,8.7-6.58,16.96-9.81,25.5h0Zm-190.25-23.21v3.6c4.49-.63,8.84-1.4,13.73-1.63-.09-1.11-.52-1.88-.33-3.27-4.87.03-8.55,1.25-13.4,1.31h0Zm69.3-.65c-.56,2.38-1.52,4.37-2.29,6.54,3.68.19,6.3-.67,9.81-.65.41-1.77,1.54-2.82,1.63-4.9-1.47-2.83-5.33-.42-9.15-.98Zm9.48,5.56c1.53-.21,3.91.43,4.9-.33-1.63-.55-2.11-2.25-3.92-2.62-.11,1.2-.8,1.81-.98,2.94Zm-78.45.33c-.11,1.31.58,1.82.33,3.27,4.4-.62,8.88-1.15,13.4-1.63v-3.27c-4.72.41-9.24,1.01-13.73,1.63Zm26.48,6.54c3.13-.25,6.92.16,8.83-1.31-.56-1.07-2.75-.52-4.25-.65-.94-1.13-1.3-2.84-2.62-3.6-.52,1.99-1.47,3.54-1.96,5.56Zm50.99-4.9c-.46,2.04-1.27,3.74-1.96,5.56,2.53-.53,5.45-.65,8.17-.98.5-1.68,1.41-2.95,1.96-4.58-1.85-1.39-5.23.39-8.17,0Zm-11.44.65c-.28,2.26-2.15,4.19-1.63,6.21,3.23-.36,6.52-.67,9.48-1.31.34-2.16,1.36-3.65,1.96-5.56-3.34.15-6.13.84-9.81.65h0Zm-65.7,2.62c.09,1.11.52,1.88.33,3.27,4.93-.19,9.16-1.08,13.73-1.63-.11-1.31.42-3.25-.98-3.27-4.12.78-8.67,1.13-13.08,1.63Zm40.21.65c.48-.18,1.69.38,1.63-.33-1.68.37-5.07-.67-5.23.33.67.75,2.82.23,3.6,0Zm101.01,6.86c2.79,4.84,5.2,10.06,8.5,14.38.14-.63.12-1.41.98-1.31-3.98-7.79-8.22-15.31-15.69-19.61.63,2.34,4.02,4.67,6.21,6.54Zm-105.58-4.9c-.23,1.51-1.08,2.41-1.31,3.92,3.98-.82,10.63,1.05,10.46-3.92-2.12-1.39-5.8.52-9.15,0Zm-10.13.65c-.19,1.55-.91,2.58-1.31,3.92,2.93-.01,5.34-.55,8.5-.33.17-1.68,1.08-2.62,1.31-4.25-2.68.37-5.34.76-8.5.65Zm-24.84,1.63c-.16,1.47.17,2.45.33,3.6,4.91-.1,8.96-1.06,13.73-1.31-.21-1.43.17-3.44-.98-3.92-4.12.79-8.43,1.38-13.08,1.63h0Zm116.37,2.29c-1.3-1.1-2.69-2.11-3.27-3.92h-2.94c1.05,2.11,3.45,4.62,6.21,3.92Zm-179.13,18.96c-5.9-7.39-11.35-15.23-17.65-22.23-.93.49-2.47.37-3.27.98,2.46,5.22,6.7,9.29,10.13,13.73,10.57,13.66,20.96,26.96,31.38,40.53,4.72-2.79-.26-7.19-2.29-9.81-4.37-5.65-9.98-12.21-13.4-17-3.85,1.31-6.12-2.52-4.9-6.21h0Zm143.83-19.29c.29,1.12.72,2.11,1.31,2.94,3.33-1.07,8.06.52,10.46.33-1.31-1.74-2.16-3.94-3.27-5.88-4.39-.68-6.2,1.21-8.5,2.62Zm-14.38,0c1.43,3.42,1.92,9,.98,12.09,2.8-4.06,6.82-6.91,12.09-8.5-.93-5.45-8.04-5.63-13.08-3.6Zm-6.21.65c-.35-.04-.52.3-.98.33-23.98,1.57-55.28,4.16-80.41,5.88-1.46,4.53-3.53,8.46-5.23,12.75,29.66-3.03,60.25-5.12,90.22-7.85,1.91-4.48,1.12-10.5-3.6-11.11h0Zm60.47,5.88c-1.27-.8-2.53-3.34-3.92-2.94,1.69.39,2.75,3.12,3.92,2.94Zm-228.82,55.9c-1.25,2.65-3.53,6.48-3.6,8.17-.14,3.37,3.06,6.69,3.27,9.81,10.1-23.35,20.4-46.5,30.73-69.63-1.68-1.37-2.47-3.63-4.25-4.9-7.73,16.58-17.76,38.76-26.15,56.55Zm203-54.59c-3.82-2.8-11.52-2.79-16.34-.98-8.2,3.07-15.89,14.97-11.77,23.86,2.99,3.98,6.21,7.74,8.83,12.09,7.35.31,7.96,3.88,11.44,8.17,3.28,4.04,4.63,7.48,11.11,6.86.28-9.03,5.89-14.31,14.71-13.73.02-6.02-2.47-9.52-5.23-12.75-3.74-1.39-11.75,1.51-13.4-1.96,1.42-2.07,4.56-2.41,5.88-4.58-.75-2.23-3.16-4.42-2.94-6.54.82-.82,2.28-.99,3.92-.98-2.55-3.05-3.31-7.35-6.21-9.48h0Zm-134.35,2.29c.91.23,1.38-1.63.65-1.96-.24.72-1.54,1.09-.65,1.96Zm-20.92,13.08c3.92-1.15,9.05-12.38,4.25-14.71-1.71,4.4-5.31,8.62-4.25,14.71Zm186.65-8.5c-.91-1.24-1.8-4.03-2.62-3.27,3.36,5.57,6.68,12.94,12.09,15.36-2.83-3.73-6.74-8.34-9.48-12.09Zm-178.81,2.29c2.13,1.48,2.5,5.29,6.54,3.92-1.81-2.77-3.69-5.46-6.21-7.52.24,1.55-.37,2.25-.33,3.6Zm250.07,14.06c1.18-1.22,2.88-4.4,2.62-6.21-.21-1.4-2.92-3.68-4.25-5.23-1.2-1.4-3.1-4.27-4.9-4.9-2.46-.86-6.08-.3-8.83,0-1.48,2.45-2.5,5.34-3.27,8.5,3.88.5,7.16-1.33,10.46-.33-1.38,4.29-3.43,7.9-4.58,12.42,4.93-.03,10.05-1.46,12.75-4.25Zm-150.69-14.71c.94,1.89,2.64,3.03,3.92,4.58.68-1.5,1.06-3.29,1.63-4.9-2.08-.12-3.34.59-5.56.33Zm-15.04,1.31c.27.92-.46.85-.33,1.63,2.83,2.01,5.66,6.73,8.83,9.48,1.25-4.2,2.85-8.05,4.25-12.09-4.52.05-8.24.91-12.75.98Zm23.54-.65c-.26,2.47-1.44,4-1.96,6.21,2.73-.43,5.63-.69,8.83-.65.46-2.15,1.29-3.94,1.96-5.88-3.31-.26-5.67.44-8.83.33Zm-154.94,67.34c-1.28,3.12-4.04,7.26-3.92,9.48.16,3.08,3.48,5.81,4.25,8.5,10.19-26.42,21.65-51.57,31.71-78.13-1.45-2.36-3.31-4.31-4.9-6.54-8.38,19.86-18.26,45.16-27.13,66.68h0Zm140.89-54.59c1.25,2.13,2.86,3.9,4.58,5.56,1.59-6,6.87-13.73-.33-17-1.29,3.94-2.62,7.85-4.25,11.44Zm-66.68-6.21c.89,1.39,1.16,3.42.98,5.88-3.4,3.8-8.87,5.35-14.38,2.29-2.51-1.39-3.62-5.78-6.21-6.54-1.46-.43-2.77.47-3.92.33-2.37-.3-3.12-2.2-5.23-2.29,3.03,3.55,5.76,7.42,9.15,11.77,3.41,4.38,9.6,9.28,8.83,17-1.89,1.82-4.06,3.35-5.88,5.23-1.91,7.13-4.07,14.02-5.88,21.25,1.07.46,2.1.95,2.94,1.63,37.61,50.21,75.36,100.28,113.43,150.04,4.69-13.29,9.8-26.16,14.71-39.23-3.18.27-7.54,1.1-10.13,0-2.01-3.08-3.54-7.59-2.29-12.09-6.21-6.54-12.03-13.46-16.34-21.9-3.49-3.31-7.1-5.15-10.13-9.15-2.86-3.78-3.9-9.27-7.19-13.08-2.7-3.12-7.99-5-11.11-8.83-3.25-3.99-5.53-10.95-8.83-14.38-1.7-1.76-4.9-3.32-7.19-4.9-2.45-1.69-5.58-2.98-7.19-4.9-1.89-2.26-3.33-5.92-5.23-9.15-.87-1.48-5.28-6.99-4.9-9.48.49-3.2,4.34-2.58,8.17-2.94,5.5-.53,11.12-2.18,14.06-.33,3.89-3.2,12.26-1.91,18.63-2.62,1.47-.27,1.46.94,2.29,1.31,3.7-3.93,12.97-2.28,19.61-3.27,2.75,2.48,4.33,6.13,6.21,9.48,2.58,1.84,6.12,2.82,8.5,4.9,3.12,2.73,4.65,7.51,7.85,10.79,3.83,3.93,9.34,6.69,12.75,10.46,5.68,6.27,6.66,16.67,15.04,20.59,3.02-8.64,6.52-16.8,9.48-25.5-4.71.52-10.24,1.8-10.79-2.29-.26-1.95,1.69-6.74,2.62-9.81,1.07-3.56,2.69-6.87,2.62-9.81-1.22-.19-1.69-1.14-2.62-1.63-4.34,13.14-21.02,2.45-17.65-10.13-4.99-.3-8.42.95-13.4.65-.23-.49-1.74-1.02-2.29-2.29-.69-1.58-2.37-11.64-1.96-12.75.75-2.03,2.68-.94,3.6-2.62.18-2.03-.66-3.04-.65-4.9.84-1.33,2.07-2.28,3.92-2.62-5.3-.04-7.42-3.26-9.48-6.54-3.46,1.99-9.1,1.79-13.73,2.62-1.86,5.36-3.92,11.1-5.88,16.67-1.94,5.5-3.2,11.65-7.19,15.36-5.37-3.5-9.21-9.15-13.73-14.71-1.79-2.21-4.03-4.55-6.54-7.52-1.61-1.91-5.74-6.37-5.88-8.5-.1-1.46,1.46-4.37,2.29-6.54,2.44-6.38,6.01-14.9,7.19-19.61-16.55,1.97-34.06,3-50.99,4.58h0Zm125.52-3.92c.94,1.78,1.98,3.47,2.94,5.23h6.54c-.42-2.52-2.41-3.48-2.94-5.88-2.63-.23-4.05.75-6.54.65h0Zm-74.53,14.71c3.27,3.05,5.4,7.24,9.15,9.81,1.13-4.97,3.41-8.8,4.58-13.73-2.85-3.26-5.69-6.52-8.5-9.81-1.76,4.56-3.46,9.18-5.23,13.73Zm27.13-9.48c-.49,2.45-1.51,4.37-2.29,6.54,3.19.03,6.1-.22,8.83-.65.74-2.2,1.39-4.49,2.29-6.54-3.24-.08-5.86.46-8.83.65Zm8.17,5.88h2.29c.14-2-.4-3.3-.98-4.58.11,2.07-1.35,2.57-1.31,4.58h0Zm116.37-3.92c-2.27,6.12-4.68,12.1-6.86,18.31,1.93-.69,5.3.07,7.19-.65,1.17-2.87,2.39-6.26,3.6-9.48,1.16-3.13,3.11-6.43,2.94-8.83-1.91.6-4.96.05-6.86.65h0Zm-77.15,1.63c3.91-.14,8.98,1.67,11.77-.33-.44-.22-.61-.7-.65-1.31-3.46-.49-9.82-1.12-11.11,1.63h0Zm27.79,2.62c-2.09,6-5.73,11.15-2.29,17.65,4.74-.27,9.22-.81,14.06-.98.83-2.93,2.13-6.11,3.27-9.15,1.14-3.06,3.06-6.23,2.62-8.83-5.92.39-11.07,1.57-17.65,1.31h0Zm-215.74,71.59c-1.1,3.2-3.81,8.49-3.6,10.46.34,3.07,4.9,5.17,6.54,7.52,9.12-27.71,18.52-55.14,28.11-82.38-1.56-3.02-3.8-5.36-5.88-7.85-7.37,21.59-17.16,49.02-25.17,72.24Zm199.4-71.59c.32,1.32,1.27,2,1.96,2.94-.1-1.3.75-1.64.65-2.94-.8-.8-1.42.25-2.62,0Zm-75.84,14.71c3.21,4.09,6.67,7.93,10.13,11.77,1.31-4.9,3.67-8.75,4.58-14.06-1.47.16-3.18.72-4.25.33-2.55-1.36-2.24-4.04-1.31-6.86-1.39-1.66-2.87-3.23-4.25-4.9-1.63,4.58-3.57,8.85-4.9,13.73Zm24.52-13.4c-.86,2.19-1.74,4.36-2.29,6.86,2.51-.32,5.13-.53,7.52-.98-.03-1.34,1.31-1.31.98-2.94-1.59-1.88-2.33-4.11-6.21-2.94h0Zm-10.46.98c-.65,2.51-1.77,4.55-2.29,7.19,3.53.05,6.09-.88,9.15-1.31-.3-1.94,1.38-4.71,1.96-6.86-2.98.29-5.9.64-8.83.98Zm145.46,1.63c-.07-.25-.27-.38-.65-.33-2.46,1.9-6.34,2.38-10.79,2.29-1.33,3.69-2.69,7.33-4.25,10.79-3.39.53-7.65.19-10.79.98-3.38,10.35-7.55,19.91-11.11,30.07,1.27.91,2.58,1.78,4.58,1.96,3.39-4.46,8.84-6.85,17-6.54,5.23-13.18,10.69-26.14,16.02-39.23h0Zm8.17,8.83c1.97,1.95,3.1,4.74,4.25,7.52,3.55-1.35,6.08-3.73,7.52-7.19-2.85-3.14-5.33-6.65-8.5-9.48-1.2,2.94-2.4,5.88-3.27,9.15Zm-4.58-8.5c-5.08,11.81-10.19,23.58-14.71,35.96,1.78.15,2.69-.58,4.58-.33,1.42-3.59,2.93-7.09,4.58-10.46,3.06-.27,5.6-.5,8.17.33,3.79-4.25,1.58-13.05-2.94-14.71.57-4.12,2.68-6.7,3.27-10.79h-2.94,0Zm-177.17,9.81c.47,3.62,7.48,8.24,8.83,10.79.66-3.7,2.34-6.38,3.27-9.81-3.24-3.08-5.44-7.2-9.15-9.81-.11,3.79-3.35,5.72-2.94,8.83Zm97.74-1.31c-1.33-.98-.4-3.68,0-4.9-.63-.9-1.39-1.66-2.29-2.29-.68,2.44-.04,7.79,2.29,7.19Zm-195.48,86.62c.76,1.24,2.57,2.03,3.92,3.27,1.1,1,2.3,3.42,3.27,2.62,6.68-21.93,13.13-48.29,19.94-71.59.92-3.16,3.27-8.09,2.94-10.46-.42-3.03-4.48-5.28-5.88-7.85-7.65,28.43-16.45,55.68-24.19,84.01h0Zm190.57-83.03c-15.51-4.61-17.87,22.46-1.31,19.61-1.28-4.12,2.57-8.17,7.85-7.85.53-6.65-2.41-10.54-6.54-11.77h0Zm96.76,7.52c.45,1.76,1.35,3.57,3.27,2.94.72-.69-.42-.97-.33-1.96,2.28-2.51,4.57-5.02,6.54-7.85-4.13-1.14-4.29,6.93-9.48,6.86h0Zm-179.79,2.29c.25,1.99,3.47,4.45,4.9,6.21,1.98,2.44,3.38,4.77,5.23,6.21.94-3.75,2.46-6.91,3.6-10.46-3.81-3.49-6.53-8.08-10.46-11.44-.3,3.84-3.68,6.27-3.27,9.48Zm106.56-5.88c-.07-.25-.27-.38-.65-.33-4.52.38-8.77,1.04-13.73.98.71,2.56,1.18,7.35,0,9.81,1.93,2.54,4.75,4.19,8.5,4.9,2.15-4.93,4.09-10.08,5.88-15.36h0Zm-58.19,1.63c.04,2.47.75,4.26.98,6.54,3.17-.34,6.39,1.01,9.15,0-3.26-2.56-3.53-8.21-10.13-6.54Zm142.2-.33c-.75,1.59-3.36,2.51-2.29,4.9,2.61.21,4.25-.55,5.88-1.31-1.44-.95-1.73-3.06-3.6-3.6h0Zm-7.19,6.86c-.34,7.4-.73,14.74-.98,22.23.42,1.29-.95.79-.98,1.63,1.32-.23.8,1.38,1.96,1.31-1.08-6.97,1.87-18.73.33-26.15-.05.38.05.93-.33.98h0Zm12.42,8.83c.52,1.22,2.03,1.45,2.29,2.94-.42,1-1.33,1.51-1.31,2.94,1.38,2.54,3.66,4.19,7.52,4.25,2.87,2.22,6.1,9.68,9.81,10.79,3.14.94,6.89.17,10.79.33-8.78-9.64-16.86-19.97-25.82-29.42-.67,3.15-2.48,5.15-3.27,8.17h0Zm-149.06.65c4.54-.25,8.93-.66,13.4-.98.05-2.66-1.03-4.2-1.31-6.54-4.45-.35-9.07-.52-13.73-.65.3,2.97,1.31,5.23,1.63,8.17h0Zm36.94-3.92c2.12,3.99,4.73,7.47,7.85,10.46,1.86-2.71,4.16-4.99,6.86-6.86-4.19-1.04-7.02-3.44-8.83-6.86-3.32-.27-4.96,1.14-5.88,3.27h0Zm103.62,1.31c1.23-.95,2.4-1.95,4.25-2.29v-1.63c-2.97-.41-4.59,2.1-4.25,3.92h0Zm-25.5,4.25c1.21.54,2.67.81,3.92,1.31,1.07-2.31,1.79-4.96,2.94-7.19-1.28-.36-2.4-.87-4.25-.65-.84,2.21-2,4.1-2.62,6.54h0Zm13.08-6.54c-3.98,6.08-.83,15.26,4.9,17.32.44-5.66.71-11.49.98-17.32-1.62.64-3.57-.34-5.88,0Zm11.44,4.58c-.28,5.87-.93,12.44-.33,17.32,5.96,3.17,15.91,6.78,24.19,3.6-2.03-3.31-4.9-5.78-7.19-8.83-4.71-.52-7.61-2.85-8.82-6.86.29-.91.78-1.62.98-2.62-1.63-1.42-3.08-3.03-4.9-4.25-.07,1.81-2.64,2.02-3.92,1.63h0Zm-118.01,16.02c6.44-.63,3.41-16.8-2.29-16.02-7.12.98-3.43,16.58,2.29,16.02Zm16.02-10.46c-.19-1.34-1.51-1.55-1.63-2.94-.68.19-2.15-.4-2.29.33,1.4.78,1.88,2.48,3.92,2.62h0Zm367.42-1.31c-7.42,10.89-14.11,22.5-21.57,33.34.16,1.58,1.9,1.58,2.29,2.94-1.97,2.16-3.63,4.65-5.56,6.86-.89-.2-.81-1.37-1.96-1.31-5.14,7.93-10.4,16.65-15.36,24.52-1.58,2.5-4.75,5.13-3.6,8.5,4.04-.08,5.96-5.63,8.17-9.15,13.48-21.5,27.93-43.42,40.53-64.07-1.14-.38-1.4-1.65-2.94-1.63h0Zm-368.07,10.79c-1.21,6.64-3.44,12.25-4.9,18.63,2.38-.68,5.93-.17,8.83-.33-.16-1.16,1.32-2.36.65-2.94-1.3.34-3.72.92-4.9.33.98-5.66,3.45-9.85,4.58-15.36,2.52.13,4.08-.72,6.54-.65.63-1.22,1.01-2.69,1.63-3.92-4.89-.2-8.8.57-13.73.33-3.09-1.59-3.95-5.42-8.5-5.56,1.77,4.66,7.15,5.71,9.81,9.48h0Zm87.61-5.88c-.17-1.13-.88-1.73-1.31-2.62-.94,1.17.57,2.08,1.31,2.62Zm-.98,34.65c10.43-7.41,4.46-35.47-9.48-36.28-4.18-.25-7.19,1.32-12.75,1.31,4.65,5.29,13.45,19.53,9.15,31.71-.6,1.68-3.42,4.38-2.94,5.56,5.83-1.35,12.05.53,16.02-2.29h0Zm-26.48-33.67c-7.42-3.41-12.76,5.63-12.75,12.09.02,11.25,6.27,23.87,16.34,24.52,13.35-5.35,5.15-32.59-3.6-36.61Zm-80.41,49.69c-2.85-4.07-4.08-9.51-7.19-13.4-3.49-4.35-10.1-7.07-14.06-11.77-2.48-2.95-3.84-6.91-6.21-9.15-2.73-2.57-7.11-3.26-9.48-5.88-2.02-2.24-2.68-6.78-5.23-7.52-3.08-.9-8.16,1.42-10.79.98,2.7,8.96,10.84,12.48,17.65,17.32,3.44,9.75,11.73,14.64,18.96,20.59,2.8,4.37,3.84,9.33,6.86,13.08,4.25,5.26,11.44,7.96,13.73,15.04,3.28-.56,4.6-5.84,6.21-9.15-2.97-4.06-7.35-5.69-10.46-10.13Zm-74.53-45.11c4.05,9.25,11.76,14.83,19.61,20.27,2.39,3.24,3.69,6.97,6.54,10.46,3.9,4.78,10.43,7.64,14.06,12.42,2.66,3.5,4.41,9.37,6.86,12.42,2.28,2.84,7.92,6.24,10.46,9.48,2.31,2.94,3.98,6.31,6.21,9.81,2.55,3.99,6.04,10.06,10.79,8.17.82-2.45.69-5.85.65-9.15-3.39-3.52-4.07-8.14-6.86-11.77-3.26-4.24-8.88-6.68-12.09-11.11-2.63-3.62-3.6-7.48-6.21-11.44-4.01-3.89-8.78-6.33-12.42-10.79-2.48-3.04-3.84-7.11-6.54-10.13-3.64-4.08-9.74-5.98-13.4-10.13-2.33-2.64-3.22-6.54-5.56-9.15-4.55-.3-7.63.87-12.09.65h0Zm179.79,33.34c-5.71,1.54-12.56.52-19.61,1.96-1.17,3.26-3.1,6.09-4.58,9.15-1.42,2.94-3.77,6.68-3.92,9.81-.12,2.48,1.24,6.15,2.62,8.5,5.83,9.95,23.65,16.08,35.3,9.48,10.18-20.76,20.56-41.33,30.73-62.11-15.24,2.98-26.08-5.39-34.32-10.46,6.13,9.85,6.1,30.35-6.21,33.67h0Zm-57.53,1.96c4.04,5.81,7.97,11.94,11.77,17.65,1.13,1.7,2.74,4.86,5.56,4.25,2.78-6.81,6.18-12.99,13.73-15.04,1.05-2.32,2.33-4.43,3.27-6.86-11.35-2.24-16.75-13.57-17.65-25.5-.39-5.1.18-8.2-3.6-9.81-4.11,12.01-8.88,23.37-13.08,35.3h0Zm-66.03,44.13c-2.52-3.39-3.61-7.95-6.21-11.11-3.43-4.18-8.15-5.85-11.44-10.13-2.3-3.83-3.2-8.56-5.88-12.09-3.18-4.19-9.45-6.42-13.08-10.46-3.22-3.59-5-9.33-8.5-13.08-4.13-4.41-11.35-6.86-14.38-11.11-2.37-3.32-2.97-7.75-6.21-10.46-3.49.86-8.23.49-11.77,1.31,1.08,2.54,2.56,4.52,3.92,6.86,1.3,2.24,2.21,5.35,3.92,7.19,3.87,4.18,10.92,5.47,14.71,10.13,3.64,4.49,4.54,8.77,8.17,13.73,4.05,2.48,7.03,6.04,11.11,8.5,1.73,5.03,5.02,8.49,6.86,13.4,11.59,6.61,15.96,22.18,26.15,29.09.87-2.07,1.56-4.33,2.29-6.54,1.55-.19,3.01-.47,4.9-.33-1.06-2-3.26-3.12-4.58-4.9h0Zm44.13-77.15c-1.21,4.13-2.73,7.95-3.92,12.09,1.55.13,2.73-.1,3.92-.33,1.4-4.27,3.3-8.03,4.58-12.42-1.32.42-3.31.18-4.58.65h0Zm-171.94,17.98c.3,1.89,4.69,6.84,6.86,9.81,35.33,48.1,70.72,99.04,105.26,145.79,1.93-5.05,3.67-10.28,5.56-15.36-.28-2.01.05-4.2,1.31-6.21-38.41-50.29-76.27-101.12-114.74-151.35.04,3.73-4.79,13.92-4.25,17.32h0Zm-2.62,2.29c36.31,50.75,74.2,102.49,110.16,153.31.89,1.26,2.8,4.72,3.27,3.92.23-2.02-1.6-3.53-2.62-4.9-37.36-50.66-73.17-102.75-110.16-153.31-.02-.2-.05-.39-.33-.33-.1.44-.47.63-.33,1.31h0Zm-3.27,19.29c36.04,53.2,71.43,107.05,107.87,159.85,2.38-6.33,5.65-11.79,7.52-18.63-37.14-51.88-74.06-103.98-111.47-155.6-1.59,4.52-2.44,9.77-3.92,14.38h0Zm192.86,14.71c4.42-1.03,10.87-.03,14.71-1.63-3.14-4.26-6.03-8.79-9.15-13.08-2,4.75-3.77,9.74-5.56,14.71h0Zm-199.07-6.86c1.67-.63,2.73-.17,3.6.33,1.67.96,5.02,7.02,6.86,9.81,33.23,50.11,66.38,101.97,99.37,150.69.15-1.7.97-2.74,1.31-4.25-36.51-54.15-72.82-108.49-109.51-162.46-.64,1.87-.98,4.03-1.63,5.88h0Zm225.88,7.19c2.93-1,4.74,1.15,6.54,2.29-2.58-6.53,2.31-10.58,3.27-15.04-4.44,3.08-9.13,5.91-9.81,12.75h0Zm-227.19,16.34c34.04,54.77,67.93,109.68,102.32,164.1.53-2.77,2.48-5.7,3.92-9.15,1.14-2.73,3.84-7.37,3.6-9.81-.2-1.99-4.69-7.05-6.54-9.81-33.64-50.24-65.89-102.36-99.37-151.35-1.03,5.63-2.6,10.69-3.92,16.02h0Zm315.77,11.11c1.36-11.09-3.06-24.44-9.81-26.15-1.91-.48-4,.24-5.88.33-4.64.22-9.54-.16-15.04,0-.62,2.84-3.62,5.12-3.92,8.83-.16,2,.84,4.42.98,6.86.36,6.34.14,12.3-1.63,16.34,1.42,2.39,2.75,4.88,4.9,6.54,7.68-.06,14.97-.5,22.56-.65,3.47-2.79,7.1-6.05,7.85-12.09h0Zm-104.6,14.71c8.6-.71,23.16.33,26.15-5.56,4.82-9.47.06-32.57-9.48-33.67-3.42-.4-8.47.73-12.42.98-13.14.83-24.81,1.88-37.26,3.27,6.92,4.64,12.12,22.08,7.85,32.36-.88,2.11-2.89,3.82-2.62,5.23,8.84-.8,17.32-1.76,27.79-2.62h0Zm-43.48-26.48c6.94-1.53,11.36,12.53,8.83,18.96-2.8,7.1-11.44-.4-11.77-5.88,2.21,8.36,5.26,15.88,14.71,17,10.92-8.55,6.39-35.32-5.56-39.23-7.59.58-11.04,7.04-9.81,15.36.74-2.93,1.09-5.67,3.6-6.21Zm71.26,24.52c3.73,1.92,10.5,3.23,15.69,1.63-8.57-7.69,9.03-22.27,17.98-14.38.6-2.34,1.67-5.22.98-7.85-10.95,4.23-26.57.2-33.02-6.87,2.66,7.98,3.02,21.53-1.63,27.46h0Zm37.59-22.56c1.59,3.46.37,9.14-1.31,11.44.93,1.68,2.48,2.75,4.25,3.6,1.01-5.63,1.78-14.49,0-19.94-.65,1.96-1.55,3.68-2.94,4.9h0Zm-279.16.33c34.6,55.3,68.7,111.09,103.3,166.38.22-2-1.33-3.7-2.29-5.23-33.79-54.04-67.41-108.52-101.01-162.46v1.31h0Zm170.63-.65c-2.11.55-2.5,4.72-2.29,7.19.43,5.1,2.54,11.27,7.85,11.11,4.25-4.9.26-19.82-5.56-18.31Zm300.41,46.09c-.86-.16-1.1-1.8-1.96-.98-4.38,8.14-9.76,16.19-14.38,23.86-1.51,2.5-4.27,5.55-2.94,8.82,3.45-1.4,4.78-5.32,6.54-8.17,13.15-21.33,25.96-42.97,38.57-64.4-.86-.45-1.13-1.49-2.29-1.63-6.76,10.89-13.51,21.79-19.94,33.01,3.55,3.36-1.69,6.77-3.6,9.48h0Zm-473.98-24.52c.23,2.18,4.02,7.28,5.88,10.46,30.32,51.7,61.72,105.42,91.53,155.6,2.33-6.17,5.1-11.89,7.52-17.98-33.95-54.31-67.4-109.12-101.33-163.44.05,3.95-3.92,12.3-3.6,15.36h0Zm261.18-2.62c.17,5.22,9.95,5.32,13.4,7.52,2.95,1.88,4.07,5.93,6.54,6.54,4.17,1.04,7.75-3.58,7.52-6.21-.06-.63-1.2-2.3-2.62-4.25-2.64-3.65-4.75-5.15-8.17-7.85-2.9-2.28-4.17-4.09-8.17-3.27-2.7.54-8.62,3.91-8.5,7.52h0Zm-112.45-5.56c-1.18,5.1-4.8,10.47-2.29,16.34,3.3-.41,6.6-.81,10.46-.65,2.26-5.26,5.08-11.7,6.21-17-4.47.76-9.4,1.06-14.38,1.31h0Zm-8.83,70.28c3.51,1.78,4.8,7.03,8.83,7.52,3.6.43,8.3-3.1,12.09-2.62,7.68-18.8,14.7-38.25,21.9-57.53-10.51-1.04-13.08-10.02-16.02-18.63-8.87,23.82-18.01,47.37-26.8,71.26Zm101.99-58.19c-1.54.42-5.47,1.28-8.5,1.31,1.97,5.86,11.23,12.41,19.94,13.4,9.44,1.07,17.62-2.68,12.75-10.46-6.84-2.68-18.44.08-24.19-4.25h0Zm-15.04,1.96c-1.85,2.59-4.2,6.99-6.21,11.11-3.36,6.9-7.59,13.57-3.27,21.25,3.83,6.81,17.4,14.37,27.46,12.75,6.74-1.09,9.48-11.79,12.09-17,2.48-4.93,5.91-9.52,7.19-15.04-14.38,4.49-28.05-4.04-32.69-13.4-1.59.04-3.45-.18-4.58.33h0Zm4.9,57.21c-2.01.93-4.41,1.48-6.54,2.29-.84,3.85-2.12,7.25-2.94,11.11,2.1-.63,4.05-1.4,6.21-1.96.59-3.91,4.06-8.34,3.27-11.44h0Zm-18.96,12.75c2.81.13,4.76,1.12,7.52,1.31,1.22-3.9,2.58-7.66,3.27-12.09-2.65-.4-5.34-.76-7.85-1.31-.56,4.25-2.82,8.49-2.94,12.09Zm-6.54-9.15c-.54,4.25-1.99,7.6-2.94,11.44,2.74-.64,4.72-2.04,7.52-2.62.94-3.64,2.02-7.13,2.94-10.79-2.79.37-4.64,1.66-7.52,1.96h0Zm-12.42,10.79c2.46.59,5.17.93,7.52,1.63.96-4.16,2.39-7.85,3.27-12.09-2.49-.45-5.01-.88-7.52-1.31-1.09,3.92-2.23,7.79-3.27,11.77h0Zm-82.38,67.67c-1.28,3.45-4.21,9.15-3.92,11.44.19,1.49,2.3,3.03,2.94,4.58,1,2.38.76,4.24,1.63,6.21.86-.34,2.01-.39,3.27-.33-.7-6.63,6.56-6.03,7.52-1.31,5.6-15.31,13.92-36.07,19.94-52.63.83-2.3,2.81-6.12,2.62-7.85-.16-1.37-2.47-2.52-2.62-4.58-.3-4.11,3.99-5.37,6.21-3.92,3.11-8.88,6.42-17.55,9.81-26.15-3.9.78-7.74,1.63-11.44,2.62-2.66-2.35-5.22-4.81-7.85-7.19-8.84,23.81-18.65,53.62-28.11,79.11h0Zm76.16-77.15c-.3,4.28-2.89,8.01-2.62,11.77,2.27-.99,4.17-2.37,7.19-2.62.42-3.52,3.08-8.22,2.29-10.79-2.4.44-4.51,1.16-6.86,1.63h0Zm-8.17-1.31c-1.26,3.87-2.52,7.72-3.27,12.09,2.27.34,3.99,1.24,6.54,1.31,1.06-4.06,2.22-8.03,3.27-12.1-2.3-.31-4.05-1.18-6.54-1.31Zm-9.15,2.62c-1.14,3.76-2.12,7.68-3.27,11.44,2.78-.38,4.88-1.44,7.52-1.96.69-3.99,2.55-8.56,2.94-11.77-2.06,1.1-4.74,1.58-7.19,2.29h0Zm-8.5.65c-.74,3.29-2.11,5.95-3.27,8.82,1.18.56,2.35,1.14,3.92,1.31.25-.73.19-1.77.98-1.96.7.82,1.23,1.82,1.96,2.62.84-4.28,2.29-7.95,3.27-12.09-1.44-.41-2.85-.86-4.25-1.31-.67,1.08-.63,2.85-2.62,2.62h0Zm-7.19,35.63c46.76,65.69,93.47,131.42,140.56,196.79,5.15-8.58,10.86-16.6,16.02-25.17-49.23-64.19-97.89-128.98-147.43-192.86-2.89,7.25-6.32,13.95-9.15,21.25h0Zm-8.83-5.88c-.67,2.72,5.76,10.03,8.17,13.4,9.61,13.43,19.24,26.68,28.11,39.23,35.69,50.49,71.71,99.92,107.22,150.37.95,1.35,3.46,6.69,4.9,5.23,1.42-1.44-2.02-5.57-2.94-6.86-48.32-67.71-96.93-135.29-144.81-202.34-.02-.2-.05-.39-.33-.33-.05.59-.19.76-.33,1.31h0Zm-3.6,34c44.4,66.43,88.59,133.04,133.04,199.4,5.15-7.81,10-15.93,15.36-23.54-46.23-65.77-92.89-131.14-139.58-196.46-2.75,7.06-6.21,13.4-8.83,20.59h0Zm62.11-1.63c1.18.45,1.2,2.07,2.29,2.62.23-1.51,1.08-2.41,1.31-3.92-1.32.31-3,.27-3.6,1.31Zm-69.95,11.44c1.88.95,1.57,4.09,3.92,4.58,1.15-3.21,1.99-6.73,2.94-10.13-1.3-.99-1.47-3.11-3.27-3.6-1.1,3.15-2.18,6.32-3.6,9.15h0Zm5.88,5.56c2.1-.95,4.85-1.25,6.86-2.29-1.88-1.94-2.78-4.85-4.9-6.54-.41,3-2.21,6.24-1.96,8.83h0Zm-14.06,22.23c41.36,68.25,82.68,136.56,124.22,204.63,4.78-8.51,10.27-16.32,15.04-24.84-43.72-66.55-86.61-133.93-130.43-200.38-3.09,6.71-6.01,13.61-8.83,20.59h0Zm-.33,8.17c40.8,66.95,80.49,133.78,120.95,200.05.65,1.06,1.3,3.05,1.96,2.29,2.51-2.11-.78-5.1-1.63-6.54-41.97-70.25-86.21-140.42-127.81-210.51-.42-.02-.45-.42-.98-.33-.3,3.69,4.84,10.62,7.52,15.04h0Zm-7.52,10.13c-1.4,3.19-4.04,7.09-3.92,9.48.15,2.86,5.12,9.16,7.19,12.75,36.99,64.26,73.56,131.07,109.51,194.17,5.4-7.24,9.91-15.37,14.71-23.21-41-67.85-81.69-136.01-123.24-203.32-1.24,2.82-2.45,6.03-4.25,10.13Zm195.15,88.59c-4.2,6.74-9.04,14.5-13.4,21.25-1.16,1.79-4.81,4.75-1.96,6.86,5.61-9.21,11.75-17.89,17.32-27.13-.8-.19-.69-1.27-1.96-.98Zm-20.59,34.65c.05-.82-.5-1.02-.98-1.31-2.59,4.39-5.19,8.58-7.85,12.75-2.62,4.1-6.29,7.81-7.52,13.08,3.1-1.07,4.09-4.76,5.88-7.52,3.83-5.89,7.64-11.3,11.11-17,.34-.55,2.24-1.99.98-2.29-.29,1.02-.82,1.8-1.63,2.29h0Zm-37.92,60.47c-1.11,1.77-4.58,4.48-1.96,6.54,5.13-9.14,11.39-17.16,16.02-26.8-.62-.04-.23-1.08-.98-.98-4.25,6.58-8.89,14.6-13.08,21.25h0Zm-15.69,24.84c-2.39,3.86-5.68,7.67-6.54,12.75,6.27-7.03,10.59-15.99,15.69-24.19-.58-.3-.54-1.2-1.31-1.31-2.48,4.59-5.24,8.53-7.85,12.75h0Z" style="fill-rule:evenodd;"/><path d="m436.26,358.29h2.94c.58,1.81,1.97,2.83,3.27,3.92-2.76.69-5.16-1.81-6.21-3.92Z" style="fill-rule:evenodd;"/><path d="m443.12,365.48c1.39-.4,2.65,2.14,3.92,2.94-1.17.18-2.23-2.55-3.92-2.94Z" style="fill-rule:evenodd;"/><path d="m462.08,388.69c-5.42-2.43-8.73-9.79-12.09-15.36.82-.76,1.71,2.03,2.62,3.27,2.74,3.76,6.65,8.36,9.48,12.09Z" style="fill-rule:evenodd;"/><path d="m425.8,524.02c-1.24-8.32,2.22-14.78,9.81-15.36,11.95,3.91,16.48,30.67,5.56,39.23-9.45-1.12-12.5-8.63-14.71-17,.33,5.48,8.97,12.98,11.77,5.88,2.54-6.44-1.88-20.49-8.83-18.96-2.51.54-2.86,3.28-3.6,6.21Z" style="fill-rule:evenodd;"/><path d="m733.73,556.06c6.43-11.23,13.18-22.12,19.94-33.01,1.16.14,1.43,1.18,2.29,1.63-12.62,21.43-25.42,43.07-38.57,64.4-1.75,2.85-3.09,6.77-6.54,8.17-1.33-3.27,1.44-6.33,2.94-8.82,4.63-7.68,10-15.73,14.38-23.86.86-.82,1.1.82,1.96.98,1.91-2.71,7.15-6.12,3.6-9.48h0Z" style="fill-rule:evenodd;"/><path d="m433.64,608.03c-.39,3.21-2.25,7.78-2.94,11.77-2.64.52-4.74,1.58-7.52,1.96,1.14-3.76,2.13-7.68,3.27-11.44,2.45-.71,5.13-1.18,7.19-2.29h0Z" style="fill-rule:evenodd;"/><path d="m550.67,851.56c1.25.3-.65,1.74-.98,2.29-3.47,5.7-7.28,11.11-11.11,17-1.8,2.76-2.79,6.45-5.88,7.52,1.23-5.26,4.9-8.98,7.52-13.08,2.66-4.16,5.25-8.36,7.85-12.75.48.28,1.04.49.98,1.31.82-.49,1.35-1.27,1.63-2.29h0Z" style="fill-rule:evenodd;"/></svg>