<?xml version="1.0" encoding="UTF-8" standalone="no"?>
<svg id="svg2" xmlns:rdf="http://www.w3.org/1999/02/22-rdf-syntax-ns#" xmlns="http://www.w3.org/2000/svg" version="1.1" xmlns:cc="http://creativecommons.org/ns#" xmlns:dc="http://purl.org/dc/elements/1.1/" viewBox="0 0 1683.5737 1379.7649">
    <g>
        <path id="path4" d="m3.4065 0.56307c7.73 1.19 15.81-1.39 23.34 0.89-4.49 12.95-19.62 25.88-16.07 41.08 21.28 38.81 55.72 67.7 87.73 97.34 18.73 19.78 45.3 39.46 44.52 69.59-0.57 29.85 2.67 59.63 3.06 89.44-2.81 20.44-19.15 35.34-31.69 50.43-25.43 31.15-60.04 56.65-77.07 93.57 35.18 43.47 92.61 62.54 128.07 106.08 14.67 18.23 8.52 42.79 8.75 64.18-1.14 19.55 5.6 40.84-5.22 58.71-23.8 37.78-67.38 55.69-98.55 85.48 32.57 23.7 82.41 29.66 104.77 67.88 6.58 18.72 2.05 39.38 7.5 58.52 2.25 14.56 5.17 30.84-4.18 43.68-25.43 36.62-67.43 55.64-101.84 82.28-11.81 6.06-15.32-11.24-21.45-17.52-3.7-8.69-18.25-16.39-11.62-26.67 40.13-29.54 84.65-54.42 118.7-91.43 5.46-6.18-3.68-10.82-8.5-13.48-29.79-18.53-63-30.44-93.6-47.38-11.26-5.69-20.84-17.62-15.8-30.91 8.46-26.11-17.24-59.91 7.59-80.44 34.3-29.97 75.44-51.86 106.36-85.75 4.71-5.38-0.85-11.42-5.06-15.08-29.39-27.76-66.89-44.91-96.46-72.45-19.85-17.12-35.88-43.66-27.61-70.62 3.94-29.7-14.49-61.14-0.86-89.77 25.81-45.56 70.37-76.94 98.87-120.18-35.78-48.52-94.49-80-119.55-137.29-14.68-34.4-0.78-71.96-7.26-107.7-1.16-2.3 1.61-2.19 3.13-2.48z" fill="#dc2b33"/>
        <path id="path6" d="m330.7 0.63307c29.42 0.51 59.2-1.62 88.43 0.32 11.94 18.26 2.82 41.86 4.96 62.19-2.81 18.91 7.38 40.63-4.4 57.62-23.19 31.54-59.4 49.09-87.66 75.3-2.36 2.7-7.6 5.68-4.61 9.69 31.19 23.65 69.83 35.66 99.43 61.67 6.21 5.64 12.75 13.04 12.2 22.02-0.78 24.38 2.58 48.57 4.12 72.83 2.65 20.64-15.78 33.67-29.23 45.71-20.79 15.26-41.03 31.46-62.56 45.56-3.37 3.76 1.35 7.4 4.66 8.75 27.96 13.16 58.58 21.69 83.67 40.25 16.39 12.24 8.54 34.32 10.58 51.44-0.43 18.23 9.45 39.92-5.39 54.99-21.7 20.55-50.18 31.51-75.75 46.18-1.75 0.45-6.68 4.94-2.12 5.98 26.82 15.53 58.31 23.89 80.47 46.63 17.4 21.5 4.62 51.86 10.08 77.01 5.38 18.95-4.4 35.93-18.69 47.17-26.07 22.35-57.64 36.38-86.32 54.81-2.28 1.11-1.69 4.55 0.65 5.21 29.83 15.54 65.16 22.07 90.17 45.88 12.83 12.59 3.05 31.92 6.72 47.48-4.03 18.35 9.22 40.12-5.42 55.51-16.31 14.57-35.98 24.86-55.38 34.67-1.16 3.32 3.14 3.25 5.15 4.31 23.34 7.31 47.42 12.81 69.64 23.29 6.73 3.07 13.03 9.5 10.84 17.61-5.48 22.02 2.17 45.82-3.71 67.43-13.94 13.23-34.1 17.21-51.31 24.77-4.43 1.61-11.02 4.34-14.65 0.76-1.38-20.01 12.38-37.14 14.83-56.55 2.34-4.94-2.93-5.78-5.85-7.22-24.43-7.36-49.88-12.07-73.25-22.57-4.39-4.35-12.69-7.5-11.66-14.9 2.93-15.81 0.84-31.86 0.4-47.77-1.18-10.31-6.5-24.62 4.42-31.57 23.54-16.55 52.57-23.17 76.09-39.82 1.42-1.76 7.19-4.47 3.55-6.76-28.89-17.33-63.83-23.21-90.42-44.57-8.58-6.33-11.72-17.91-7.28-27.74 1.54-21.92-1.35-43.66-1.64-65.53 0.07-11.4 11-18.04 19.06-24.12 29.88-20.22 62.65-35.88 91.89-57.1 1.61-1.6 5.33-4.97 2.02-6.6-31.67-19.65-69.39-28.7-98.81-52.12-14.2-11.06 0.87-27.49-3.81-41.22-1.69-14.35 0.58-28.88-1.94-43.15-2.79-11.94 9-20.27 17.86-25.58 22.47-14.78 47.73-24.91 69.76-40.31 4.23-2.39-2.2-5.67-4.32-6.38-22.33-9.68-45.34-18.17-66.33-30.66-12.11-7.34-23.18-20.28-19.26-35.55 5.63-25.05-3.36-49.21-2.82-74.2 2.14-12.33 12.69-20.58 21.69-28.19 21.63-19.14 48.03-32.06 69.1-51.88 1.19-1.24 3.38-2.82 1.62-4.58-27.27-19.43-60.44-29.67-85.65-52.26-12.42-8.89-21.99-23.45-20.32-39.28 5.83-20.88-0.92-42.31 0.25-63.58-7.05-15.44-0.29-32 11.76-42.66 23.49-24.61 52.02-43.4 78.28-64.79 2.8-1.9 5.65-6.75 2.01-9.41-22.6-17.5-47.14-32.68-68.56-51.75-2.05-2.14 0.99-2.76 2.76-2.67z" fill="#2dad58"/>
        <path id="path8" fill="#fdf820" d="m662.27 0.016195c-3.5713 0.017496-7.1388 0.13656-10.694 0.32656-3.65 6.95 7.1606 15.93 9.4406 23.22 0.47 12.58-7.0697 23.47-11.93 34.57-21.52 46.94-58.231 87.059-69.511 138.46-7.2 25.88 4.6106 51.811 3.1906 77.861 4.72 28.09 0.43 57.87 11.4 84.68 21.62 47.98 66.51 80.94 90.87 127.05-13.17 31.11-35.57 57.71-53.82 86.08-21.12 31.45-37.71 71-26.15 109.1 1.86 30.3 2.26 61.489 7.15 91.709 17.92 49.42 63.879 80.751 94.009 122.09 3.09 3.17 3.46 8.31 0.95 11.9-20.36 32.68-47.929 60.13-68.419 92.72-18.71 28.91-26.071 66.059-14.241 99.059-0.16 25.53 2.6103 51.48 5.9203 76.93 17.04 49.14 64.65 77.201 98.32 113.98 0.92 2.14-0.46062 4.5287-1.6406 6.3187-17.4 21.87-40.44 38.341-58.1 59.991-5.54 7.33-15.42 13.05-15.8 23.05 23.87-0.8 47.97 1.4597 71.7-0.02 12.92-15.43 32.639-32.29 27.659-55.18-5.91-29.01 1.7103-59.311-6.2797-87.941-10.39-22.52-30.85-37.969-48.75-54.239-22.85-20.59-45.71-41.87-62.53-67.82-3-11.81 7.5403-21.58 12.12-31.72 23.86-42.33 66.77-73.93 80.25-121.88 1.26-33.38-3.4697-66.85-4.1297-100.32 0.6-21.44-8.94-41.509-22-57.959-25.06-31.43-56.56-57.361-79.15-90.811-3.16-4.43-5.2603-10.359-2.6203-15.569 23.14-43.91 58.62-80.721 76.87-127.26 10.58-25.42 3.3794-53.03 3.0094-79.48-2.5-29.46 0.78-60.71-11.65-88.37-20.64-48.2-64.761-80.49-90.991-125.12-1.06-1.95-0.30876-4.1694 0.48124-6.0594 19.64-45.37 50.459-84.88 69.619-130.48 20.11-44.02 5.3309-92.49 6.1609-138.58-3.57-0.22-7.1459-0.305-10.717-0.2875z"/>
    </g>
    <path id="path10" fill="#fcc447" d="m1053.6 0.63307c27.09-0.61 55.06-1.1 81.73 0.12 11.63 30.96 1.66 66.55 4.44 98.99-15.5 32.94-51.47 48.12-77.21 71.84-3.95 4.16-11.66 6.79-10.33 13.95 29.39 21.19 65.01 32.92 92.13 57.33 13.15 11.77 7.39 30.52 9.1 45.97-0.22 17.86 7.2 37.42-0.28 54.5-20.56 29.62-56.16 44.27-81.13 68.74 26.37 15.97 58.27 21.87 82.8 41.28 16.5 17.82 4.04 44.85 9.8 66.48 7.18 25.84-19.51 39.45-37.56 50.3-12.84 9.07-30.81 11.78-40.96 23.95 24.29 14.5 53.32 21.87 73.75 42.31 13.61 13.68 6.17 34.4 8.68 51.35-1.1 16.79 7.13 37.06-5.83 51.08-23.36 25.83-56.36 39.4-85.31 57.62-2.12 1.26-5.51 5.44-1.35 6.57 18.4 9.74 38.83 15.02 57.16 25.04 12.94 6.79 30.62 15.7 29.7 32.83-2.94 21.92 1.16 43.98 0.87 65.83-10.41 22.13-37.68 29.09-55.63 42.51 21.22 10.07 47.57 13.01 69.12 24.7 14.03 6 4.33 22.51 5.77 33.25-1.87 14.27 3.81 30.19-2.29 43.68-13.96 10.55-31.35 15.23-47.37 21.8-4.25 2.89-14.73 2.32-12.34-5.43 1.88-17.28 13.34-33.1 13.45-50.25-25.39-9.29-53.26-12.48-77.13-25.9-6.12-3.31-4.4-11.2-2.79-16.68 0.99-16.53 0.13-33.15-2.4-49.53-1.48-6.7 2.25-13.43 8.04-16.7 21.33-13.5 45.37-22.05 66.95-35.11 3.37-0.13 3.51-3.26 2.3-5.09-27.93-18.24-66.67-20.75-87.75-48.47-2.05-20.21 1.95-41.41-0.92-62.06-2.19-10.1-1.14-22.2 8.09-28.57 28.12-21.79 60.92-36.45 89.85-57.05 1.69-1.45 6.31-5.12 2.67-6.96-27.77-17.17-60.13-26.03-86.9-44.95-9.48-6.93-8.64-19.65-3.47-28.91-3.59-16.31-0.2-33.16-3.25-49.51-2.34-13.16 12.78-20.22 21.66-25.97 18.68-12.98 41.99-19.79 58.57-35.22-25.97-15.33-59.93-19.92-79.38-44.61-7.73-17.82 3.44-38.44-3.46-56.95-0.29-12.85-6.36-28.48 3.12-39.48 21.59-24.08 51.11-38.66 75.51-59.46 2.03-1.29 3.45-4.56 1.14-6.27-27.29-18.38-59.88-28.96-83.24-52.96-10.07-9.24-12.84-24.35-9.07-37.19 1.3-23.8-3.54-47.5-2.36-70.93 19.91-33.17 56.49-51.31 84.36-77.01 1.06-2.83-0.47-5.52-2.51-7.27-20.15-15.13-41.66-28.65-60.29-45.73-1.94-1.61 0.39-1.65 1.75-1.8z"/>
    <path id="path12" d="m1501.2 0.32307c8.48 1.64 17.18-0.26 25.66 0.86-5.55 13.31-19 25.58-16.83 40.77 20.92 38.15 54.32 67.24 86.21 96.07 17.56 17.89 39.53 35.25 45.36 60.87 0.53 31.12 2.72 62.2 3.6 93.32 0.84 9.09-1.74 17.97-6.46 25.67-28.5 44.29-73.98 74.79-100.49 120.57-1.96 3.07-0.66 7.22 1.78 9.64 36.33 37.98 87.39 58.35 122.35 97.78 20.96 23.55 7.87 56.23 11.78 84.15 2.99 19.44-0.97 40.63-15.38 54.84-25.04 28.4-58.78 46.55-87.96 70.06-4.65 5.1 5.69 6.83 9.06 9.45 33.67 18.64 79.15 27.53 96.53 65.52-0.05 29.4 10.11 58.65 6.27 87.87-20.33 41.82-67.02 60.6-101.54 88.41-5.63 6.78-17.13 6.12-19.35-3.76-5.58-12.06-21.68-21.84-19.55-35.84 39.73-29.83 84.01-54.45 118.37-90.93 2.1-2.54 4.85-6.7 1.25-9.29-31.05-21.45-66.87-34.28-100.01-51.94-10.17-5.54-21.77-14.61-18.67-27.9 4.22-21.66-1.05-43.75-3.76-65.3 1.72-9.39 9.11-16.61 15.99-22.73 33.15-27.65 71.29-49.33 101.28-80.7 2.73-3.01 5.13-8.06 1.12-11.22-28.57-30.45-67.76-47.76-98.69-75.43-20.18-16.94-37.41-42.36-31.15-70.02 6.75-32-15.82-66.65 2.09-96.99 26.51-42.12 66.46-73.39 95.73-113.31 2.28-3.43-0.81-6.9-2.78-9.55-35.81-40.71-83.46-71.4-110.52-119.5-21.7-37-6.99-82.4-11.29-121.44z" fill="#ea2284"/>
    <path id="path14" fill="#3755cf" d="m870.72 1.0724c-15.664-0.01-31.326 0.11125-46.956 0.48125 21.94 19.45 46.471 35.619 70.041 52.969 3.04 2.17 2.7087 6.8509-0.48128 8.7609-29.68 25.93-65.24 45.91-89.18 77.87-7.22 9.02-4.64 21-2.1 31.25-1.71 20.77 5.0706 41.529 0.14064 62.119-3.53 21.95 14.69 37.75 30.95 48.62 23.35 17.56 52.73 26.891 74.95 45.061-22.01 25.16-55.461 38.599-79.241 62.689-29.94 22.81-1.03 62.67-10.3 92.82-6.25 20.93 12.68 36.351 29.52 43.491 19.98 10.77 43.17 17.82 61.95 28.88-18.64 16.73-44.26 24.689-65.18 38.809-11.02 7-28.55 15.35-24.17 31.55 2.48 14.93 0.52 30.11 2.25 45.1 2.01 12.56-9.5103 26.731 2.8797 36.961 29.74 23.02 67.201 32.529 99.011 52.089 2.73 1.58 0.70936 5.5003-1.2906 6.8203-26.84 19.77-57.659 33.85-84.709 53.03-10.62 6.06-23.44 13.52-26.7 26.17 0.7 23.45 2.759 47.01 0.93904 70.47-5.18 10.98 3.351 22.05 12.211 28 26.32 18.81 58.999 25.029 86.659 41.339 3.2 1.75-1.2697 5.0706-2.8797 5.6406-24.78 15.69-53.5 24.4-77.47 41.48-11.76 8.14-3.9897 23.33-3.9797 34.83-1.86 11.69 3.4494 23.181 0.55936 34.791-1.11 5.93-4.7197 15.07 1.8203 19.25 27.12 15.89 59.359 18.78 88.159 30.08-3.21 18.63-12.59 35.581-16.63 53.991-2.46 7.02 5.591 11.53 11.361 7.6297 18.73-7.28 39.149-12.33 54.939-25.25 6.27-15.12 0.20064-32.7 2.2906-48.58-1.5-10.9 8.0197-26.951-4.1203-34.161-24.87-14.52-54.64-18.389-80.88-28.969 22.25-17.41 67.959-25.82 63.559-62.22-5.16-23.86 3.46-49.781-4.6-72.711-22.62-26.52-59.03-33.13-89.22-47.78-17.86-8.44 11.751-14.77 16.111-21 26.49-13.67 52.899-29.12 74.159-50.3 16.85-15.27 8.34-39.869 8.7-59.659-3.17-18.5 5.9106-40.82-9.0594-55.95-21.47-21.06-50.74-30.451-76.9-44.091-2.62-1.51-9.841-4.8994-2.761-7.2094 21.21-13.08 44.73-22.341 64.9-37.211 10.56-7.52 22.411-18.269 20.211-32.719-1.59-21.25-3.361-42.511-3.161-63.841 0.56-7.95-4.5794-15.03-10.259-19.97-26.49-21.05-62.8-26.55-89.67-45.43 17.36-16.83 40.09-29.921 59.43-45.491 14.83-12.25 34.05-25.28 34.3-46.63-1.01-23.83-5.6394-47.689-3.7094-71.539 0.79-10.13-4.9403-18.731-12.22-25.031-29.9-26.58-68.94-39.149-100.83-62.809-0.8-3.38 1.5297-5.7597 3.6297-7.8297 25.77-25.26 59.08-41.68 83.02-68.97 8.12-9.19 14.869-21.121 11.759-33.891-4.2-30.99 6.591-63.88-4.789-93.5-15.635-0.15-31.3-0.29-46.964-0.3z"/>
    <path id="path16" fill="#c94add" d="m1328.5 1.0131c7.14 0.03 14.32-0.09 21.5 0.28-0.82 35.25 8.24 70.53 2.95 105.65-11.73 61.9-58.81 108.95-79.68 166.99 28.04 50.13 80.51 85.18 96.94 142.18 6.73 34.48 4.44 69.91 8.31 104.72 7.73 62.78-44.81 107.88-72.4 158.3-4.27 7.97-12.1 15.5-10.38 25.33 26.76 50.42 84.49 79.99 102.36 135.78 4.38 38.29 5.16 77.13 6.87 115.6-13.75 60.97-77.24 96.35-93.75 155.83 25.1 44.05 70.1 70.95 102.75 108.67 23.68 28.57 7.14 68.51 15.58 101.72 4.83 20.26-9.34 36.82-21.89 50.51-4.92 11.42-19.79 5.79-29.57 5.9-15.33 1.4-30.73 0.31-46.07 0.28-1.8-1.3 0.04-3.44 0.75-4.86 19.94-27.78 47.55-48.63 70.06-74.1 2.06-2.8 6.54-6.63 4.18-10.48-32.01-35.25-76.13-61.96-96.03-106.99-7.06-27.74-6.73-56.99-8.41-85.31-7.56-22.81-7.41-48.36 1.7-70.73 17.87-47.83 61.37-80.11 83.66-125.09-28.22-46.18-80.18-76.9-97.83-129.99-3.47-29.94-5.52-60.27-6.55-90.27-11.74-37.76 4.86-76.58 25.64-107.73 17.76-26.71 37.02-52.54 52.38-80.77 1.45-3.05 2.43-6.92 0.66-10.01-24.35-40.7-61.48-72.1-85.04-113.32-15.77-27.19-10.45-59.67-15.63-89.47 2.03-28.86-11.17-57.39-2.98-86.07 13.39-53.48 52.71-95.04 73.76-145.21 2.93-8.95 12.28-20.3 4.91-29.3-3.37-5.68-7.73-11.66-8.75-18.04z"/>
</svg>
