<?xml version="1.0" encoding="UTF-8"?><svg id="a" xmlns="http://www.w3.org/2000/svg" width="1024" height="1024" viewBox="0 0 1024 1024"><path d="m519.05,232.48c-1.76,0-3.52.03-5.29.07-136.11-2.85-264.23,82.22-308.46,197.41-42.84,103.69-14.56,227.87,71.14,307.07,66.95,64.89,168.64,100.11,266.52,91.04,134.39-5.92,255.06-99.33,288.35-216.06,26.62-78.88,9.62-166.81-37.2-236.67-57.01-85.14-164.09-143.48-275.07-142.87h.01Z"/><path d="m415.83,294.25c-1.53,0-3.03.06-4.49.15-15.32,4.38-34.59,11.67-41.58,24.43,33.66-14.94,75.44-13.49,106.47,5.44-7.94-21.04-37.43-30.14-60.4-30.02h0Zm230.13,13.92c-3.51-.02-6.49.67-8.21,2.42-12.63,5.79-28.79,19.16-31.25,31.48,23.53,2.32,27.78-33.94,54.99-22.18,24.75,1.78-.33-11.63-15.52-11.71h0Zm-231.99,95.72c-35.17.26-73.22,19.14-84.28,50.45-1.74,10.44,10.39,9.2,17.06,4.91,40.81-23.43,90.5,1.59,131.76-11.25-5.9-25.87-35.8-43.77-64.55-44.11h.01Zm238.36,14.29c-2.3-.02-4.54.06-6.67.23-26.48,1.7-36.96,25.24-45.67,44.26,16.48,15.72,42.63-3.53,62.57,2.08,22.16-3.23,42.71,4.71,62.4,10.99,12.49-36.43-38.08-57.32-72.63-57.56h0Zm-202.35,61.23c-4.13,0-10.06,2.23-12.2.91-17.71,9.48-36.3,22.77-59.11,18.59-19.41.33-41.95-17.53-59.66-4.09-1.39,9.8,15.14,5.55,19.67,12.58,30.42,42,98.61,9.68,115.29-26.04-.61-1.48-2.11-1.94-3.99-1.95h0Zm79.22,3.52c-2.14.04-4.31.33-6.5.93-12.74,1.88-23.07,19.28-7.76,25.16,14.39,2.12,46.56,4.15,39.82-16.94-7.54-4.7-16.28-9.31-25.56-9.15h0Zm92.93,2.4c-.42,0-.84.01-1.29.05.38,25.49,37.3,56.48,68.37,49.46,16.6-.53,49.99-.18,43.95-23.54-28.34,2.65-60.08,10.39-85.57-5.48-10.38-4.46-12.51-20.46-25.46-20.5h0Zm78.51,80.11l-7.99,2.85c.18,0,.36.02.54.03-16.37,9.17-33.86,17.84-53.59,18.46-36.99,4.02-74.52-23.37-109.85-6.19-57.53-6.68-127.39,27.74-181.17-7.89-18.42,1.11-2.67,22.2,2.28,29.61,33.94,31.82,59.49,76.78,108.17,92.21,49.73,8.44,109.79,15.83,152.95-14.09,35.59-34.2,60.89-76.96,88.65-114.99h0Zm-188.05,169.66c-8.07.14-16.09,1.35-23.61,4.07-9.48,6.77-39.54,15.14-17.85,26.64,34,10.64,76.27,14.22,107.48-4.16-2.63-24.3-37.3-23.75-57.96-26.35-2.68-.17-5.38-.24-8.07-.2h.01Z" style="fill:#fff;"/><path d="m151.55,0c39.71,62.74,87.51,121.98,126.95,185.47,8.37,9.9,21.51,15.19,31.94,22.97,7.99,15.57,2.24,43.38,28.75,44.9,12.8-32.87-18.07-61.79-37.11-87.26-19.95-33.63-40.96-66.74-65.8-97.63-12.37-23.56-24.72-47.95-42.79-68.45h-41.94Zm212.67,0c14.89,58.81,35.53,116.53,53.43,174.77,5.11,7.58,17.1-2.16,24.34-4.17-15.65-56.31-24.66-115.26-41.46-170.6h-36.31Zm159.11,0c1.33,61.54-.69,123.08.63,184.43,10.45,6.08,15.69-7.16,16.19-14.24.44-8.76,14.07-9.95,14.05-18.84,1.07-34.44,1.13-69.33,8.89-103.03,2.71-15.99,2.58-32.21,4.03-48.31h-43.8,0Zm172.9,0c-19.93,64.53-41.5,129.32-54.88,195,2.57-14.13,25.51-6.3,36.39-6.1,23.57-62.42,43.36-126.75,66.53-188.9h-48.04Zm261.79,0c-12.89,13.52-27.2,26.39-34.45,43.21-50.09,56.93-108.39,107.98-151.72,169.71-10.69,14.39-2.85,32.97-6.39,49.1,14.84-3.29,20.48-18.46,29.51-27.92,78.25-74.72,149.04-155.66,226.8-230.48V0h-63.76.01ZM2.22,37.43v57.94c54.8,51.04,117.22,94.78,172.13,146.04,23.45,6.52,27.66,34.85,53.79,39,15.2,12,24.22-5.09,17.55-15.57-39.02-25.27-66.37-62.08-103.04-89.85-34.31-34.71-74.75-64.11-107.77-99.84-10.37-9.99-30.83-19.03-29.37-33.82-1.11-1.29-2.21-2.59-3.29-3.9h0Zm1019.56,109.91c-57.55,45.89-117.88,89.06-175.29,135.18-3.64,3.43-12.17,5.7-12.51-1.22-6.47.53-13.06.66-19.18,2.78,33.38-4.62-3.92,32.83,15.14,42.03,65.25-41,127.58-85.91,191.85-128.09v-50.67h-.01Zm-540.33,20.5c-4.2,9.07-9,20.8-23.15,17.95-26.58-1.83-55.27,26.07-42.03,49.1,20.62-7.96,50.76-.99,66.59-14.66-18.4-16.14,23.23-44.13-1.42-52.38h.01Zm77.61,9.56c-.8-.02-1.65,0-2.55.03-1.54,30.93-56.12,12.34-53.73,44.39,20.74,2.54,48.76,6.99,68.95.47-13.41-13.53,12.01-44.18-12.67-44.89h0Zm-196.53,3.39c-23.53,19.65,4.36,49.43-1.78,72.85,12.55,3.8,26.52-9.22,39.1-11.92,10.23-26.71-28.08-43.09-37.32-60.93h0Zm298.76,32.94c-12.53,13.13-46.7-.13-49.06,19.04,15.32,2.12,28,16.32,44.27,10.13,4.79-8.25,14.6-23.57,4.79-29.18h0ZM2.22,223.59v58.34c34.32,23.8,74.46,40.93,110.98,61.98,13.04,7.89,25.55,20.21,42.69,18.99-4.89-16.01,19.1-15.77,29.45-23.3-59.11-40.77-123.88-75.23-183.12-116.02h0Zm291.28,6.15c-.6-.02-1.27.02-2.02.15-27.29,15.5-34.95,53.72-13.65,75.3,16.58-.46,28.7-19.43,42.77-27.35-.75-10.13-16.23-15.28-18.4-26.09-6.06-5.56.33-21.64-8.71-22h0Zm453.08,18.33c-.65.04-1.37.15-2.15.37-16.25,12.67-56.87-9.31-59.7,16.78,17.59,5.97,28.2,20.82,44.47,28.05,11.79-2.61,6.19-18.15,16.37-23.45,6.06-4.09,10.78-22.27,1-21.74h.01Zm275.19,36.32c-48.08,25.08-95.15,52.03-144.56,75.05-5.44,6.94-15.85,29.49.4,26.11,48.77-17.74,95.47-39.94,144.16-57.91v-43.25h0Zm-797.67,16.44c-2.3-.06-4.59,0-6.82.18-7.4,15.32,6.91,40.75,25.57,43.07,6.45-8.05,17.4-13.58,21.65-22.99-7.23-13.68-24.28-19.87-40.4-20.27h0Zm546.03,2.48c-18.82-.4-15.04,20.05-2.81,26.82,11.22,6.3,17.2,25.4,32.42,21.6,13.04-11.54,10.71-30.18,12.39-45.28-12.27-5.73-28.38-1.44-42.01-3.14h.01Zm-561.98,39.97c-11.93,5.92-27.19,12.82-32.85,23.7,2.41,14.28,6.91,48.39,29.82,41.23,7.86-15.81,14.39-32.17,26.26-46.16,8.83-12.84-13.14-17.55-23.23-18.77h0Zm641.53,7.28c-17.2,3.23-37.09,2.25-50.21,14.72,3.23,10.35,12.61,18.15,17.28,28.03,21.45,16.16,56.7-36.99,32.93-42.75h0ZM2.22,382.49v48.65c43.53,12.92,87.51,24.32,131.86,34.36-1.72-11.69-21.71-35.77.42-36.87-43.13-16.27-88.17-30.77-132.29-46.15h0Zm1019.56,2.29c-35.46,15.03-75.81,18.92-109.47,37.19-10.69,4.91-18.96,29.71,1.66,23.76,35.62-8.12,71.69-15.52,107.81-21.98v-38.97h0Zm-188.69,16.8c-16.96,8.33,5.62,29.05,4.04,42.49,5.46,32.28,54.46,2.94,46.31-17.66-17.26-7.27-30.85-23.35-50.35-24.83h0Zm-657.06,14.67c-1.11.02-2.27.09-3.5.21-11.46,8.47-19.79,19.94-30.87,28.87-.16,15.74,17.22,28.54,32.3,29.32,13.22-13.74,36.32-59.09,2.06-58.4h0Zm678.95,54.59c-3.8,13.82-.44,32.01,2.22,46.94,13.46,1.04,35.76-5.93,33.15-20.67-9.18-10.75-23.53-20.28-35.38-26.27h.01Zm-688.92,14.75c-14.76,10.1-19.16,29.65-35.01,39.91,6.33,8.07,40.75,27.26,41.95,4.4-5.68-11.32,13.54-44.62-6.94-44.31h0Zm855.71,11.18c-35.24,2.34-70.57,3.74-105.73,6.97-15.46-.33-13.66,17.91-22.58,24.16,40.48,3.3,85.74.82,128.31,2.71v-33.84h0Zm-163.64,34.07c-1.92,14.44-2.52,29.07-5.44,43.42,5.42,17.02,40.73,13.2,48.35,2.48-18.58-13-14.88-45.67-42.92-45.9h.01Zm-743.38,1.77c-37.4,3.31-75.01,1.51-112.54,1.69v40.3c35.53-.56,71.17,1.37,106.6-1.06,6.04-.47,15.54-10.39,16.74-.66,29.09-17.11,4.16-27.42-10.8-40.26h0Zm53.29,26.24c-22.46,4.24-32.93,24.21-49.08,35.86,12.33,16.58,49.91,23.66,66.1,8.53-7.4-12.69-.64-41.7-17.02-44.39h0Zm683.42,32.46c-11.89,11.65-8.91,30.69-18.86,43.97-13.97,26.11,61.5,27.72,43.85.09-7.08-13.57-4.63-41.87-24.99-44.06h0Zm72.29.49c-10.71,5.22-47.06,8.98-28.36,22.68,40.96,9.03,85.03,8.52,126.39,16.06v-29.22c-32.44-5.07-65.88-2.99-98.03-9.52h0Zm-745.22,25.47c-23.91,5.86-38.89,36.15-22.56,54.06,17.85-3.2,35.78-.4,53.59,1.44-6.39-17.89-10.31-52.04-31.03-55.51h0Zm708.3,11.94c3.23,4.32,6.17,8.81,8.79,13.45-.96-3.87-3.69-8.32-8.79-13.45Zm8.79,13.45c3.76,15.14-20.07,21.16-39.35,22.58-.81,6.79-3.74,14.99,1.7,20.96,1.29-2.26.77-9,5.82-3.32,50.35,21.91,106.44,29.87,157.99,49.25v-52.44c-40.21-9.02-80.38-18.34-120.83-26.28-1.56-3.68-3.36-7.25-5.33-10.74h0Zm-761.45,12.17c-44.27,9.02-90.42,20.52-131.96,37.17v54.13c47.35-21.25,98.28-35.82,144.92-58.17-6.73-10.17-8.65-22.09-12.96-33.12h0Zm694.74,5.82c-10.05,7.23-11.58,19.92-19.02,28.98-17.57,17.42,31.19,31.15,36.41,15.1-15.24-11.08.87-39.51-17.39-44.08h0Zm-604.25,34.97c-13.02,11.19-37.46,29.32-22.62,46.56,17.32-3.63,34.53.13,49.26,8.64,7.56,5.26,28.4,3.51,18.28-7.5-17.34-13.35-28.24-37.3-44.92-47.69h0Zm566.98,17.8c-1.35-.01-2.83.1-4.44.35-10.39,12.96-21.75,25.98-35.26,37.05-3.72,23.88,53.45,33.45,47.61,3.98,4.23-12.89,12.34-41.17-7.91-41.37h0Zm85.03,1.97c-8.13,6.54-39.24,9.31-25.31,20.89,57.05,32.05,112.85,64.37,170.42,95.44v-45.4c-49.32-21.99-97.27-46.58-145.11-70.92h0Zm-593.78,43.88c-17.61,8.16-20.38,35.59-7.82,48.97,11.06-3.32,17.77-17.97,32.73-15.47,38.33-2.48-14.49-28.59-24.91-33.5h0Zm534.94,3.47c1.62,11.56-12.19,26.62,1.98,35.13,66.78,55.83,136.52,108.22,201.97,165.27v-55.74c-69.34-46.56-135.28-97.63-203.95-144.66h0Zm-573.53,3.69c-.5-.02-1.02-.02-1.57,0-.57.03-1.16.07-1.79.15-82.07,63.56-157.39,135.72-238.72,200.02v51.78c80.04-73.71,158.24-150.18,242.38-220.53,5.65-8.43,15.08-30.75-.3-31.43h0Zm493.78,4.03c-16.52,10.01-35.15,18.04-48.86,31.33-3.13,24.19,46.72,27.17,49.28,4,6.79-8.2,17.97-35.62-.42-35.33h0Zm-382.53,38.01c-.12,15.45-25.21,29.1-12.9,43.84,13.08-24.52,59.92,8.2,65.16-21.69-11.85-12.87-35.68-14.24-52.26-22.15h0Zm309.05.15c-1.47-.04-3.08.09-4.83.41-15.87,8.78-34.77,11.6-50.17,20.74-8.83,24.7,31.74,41.83,47.77,21.33,20.03-3.58,29.24-41.91,7.23-42.48h0Zm-229.77,21.92c-13.48,30.88,41.3,24.05,45.93,50.76,13.24-3.71,6.81-21.66,20.17-25.45,9.62-1.22,15.42-17.22,2.32-17.15-23.55,1.31-45.5-6.46-68.43-8.16h0Zm153.52.27c-17.99,10.48-68.12-4.49-56.32,29.18,1.7,19.88,37.24,37.14,44.27,11.05,13.52-7.43,30.36-33.21,12.05-40.22h0Zm166.96,2.99c-10.63,3.14-27.8,6.87-19.59,19.54,39.8,54.12,79.3,108.55,118.38,163.18,1.38,3.02,3.4,5.48,5.86,7.46h46.33c-50.23-63.6-99.8-127.41-150.99-190.18h.01Zm-434.75,7.52c-46.25,57.5-80.64,122.88-123.42,182.66h65.09c26.59-50.12,59.11-97.86,81.37-149.64-14.72-4.69-23.81-19.23-23.05-33.01h.01Zm92.55,18.07c-5.5.17-11.26,1.94-14.55,4.21-12.32,53.19-29.01,106.4-34.92,160.38h31.27c10.15-51.6,20.92-103.52,32.26-154.9-.35-7.47-6.98-9.9-14.05-9.68h-.01Zm253.14,7.78c-9.31.39-14.2,10.55-21.04,15.41,11.51,46.95,19.46,96.03,36.02,141.39h31.86c-7.66-53.26-36.27-103.23-44.91-156.75-.66-.07-1.3-.08-1.92-.06h-.01Zm-168.61,24.32c-8.13.32-11.6,12.09-23.74,9.17-8.13,37.8-5.54,78.18-14.33,116.51-2.05,2.75-2.34,4.98-1.6,6.81h32.52c10.28-42.98,3.73-88.64,7.95-132.48-.27-.01-.54-.02-.8,0h0Zm87.45,1.63c-9.28-.26-17.42,10.1-28.81,6.35-1.05,1.7-2.02,3.43-2.89,5.22,12.05,38,14.09,79.43,17.84,119.28h34.6c-4.55-43.74-12.22-87.18-18.86-130.66-.63-.12-1.25-.18-1.87-.2h-.01Z"/><path d="m136.45,0c47.31,65.95,95.68,131.35,143.6,196.9,16.15,6.15-1.6,20.85-8.98,27.75-14.03,7.5-14.01,25.66-24.6,34.07C169.21,185.99,90.56,114.36,9.67,44.93c-.19-1.06-.24-2.15-.13-3.27l.14-1.43-.98-1.13c-2.24-2.6-4.42-5.22-6.48-7.88v16.22c1.54,6,5.86,11.04,10.76,15.25,6.57,5.65,14.27,10.44,18.96,14.96,33.32,36.03,73.74,65.42,107.7,99.78l.19.2.23.17c35.78,27.1,63.06,63.6,102.32,89.35,2.16,3.86,1.57,9.19-.52,11.76-1.08,1.33-2.19,1.93-3.75,1.97s-4.02-.6-7.31-3.2l-.85-.67-1.11-.18c-11.56-1.83-18.23-8.91-25.42-17.25-6.94-8.06-14.26-17.19-26.67-21.13C120.69,186.19,57.27,141.87,2.21,90.06v17.73c43.5,39.98,94.25,73.32,136.86,114.26,22.84,16.16,39.16,40.19,66.25,51.14-18.96,18.31,3.54,49.88-16.44,64.25l-1.08-.74c-60.19-41.54-125.94-76.38-185.58-117.72v8.98c57.12,39.09,118.76,72.57,175.45,111.13-4.29,1.77-9.4,3.47-14.51,5.67-3.65,1.57-7.19,3.55-9.55,6.77-1.54,2.1-2.05,4.77-2.05,7.63-5.79-.4-11.09-2.43-16.4-5.44-6.53-3.7-12.88-8.72-19.71-12.85l-.04-.02-.03-.02c-37.73-21.75-78.76-39.28-113.15-63.67v9.32c34.19,23.24,73.39,40.09,108.75,60.48,6.2,3.75,12.62,8.83,19.89,12.96,7.28,4.13,15.65,7.32,25.36,6.63l2.61-.19c15.79,21.03,3.03,53.36-23.34,61.95l.58-3.04c-43.75-16.51-89.34-31.14-133.85-46.68v7.79c40.58,14.13,81.68,27.66,121.41,42.34-1.05.9-1.94,1.91-2.5,3.1-1.86,3.99-1,8.18.33,12.32s3.35,8.36,5.1,12.23c.71,1.56.86,2.49,1.41,3.88-42.28-9.73-84.24-20.63-125.76-32.98v7.73c43.22,12.8,86.87,24.09,130.88,34.06l4.96,1.12c8.21,14.73-14.03,36.77-29.36,40.59-14.13,2.6-3.49,11.65,3.05,18.41-36.14,2.96-72.73,1.28-109.52,1.46v7.35c36.8-.18,73.92,1.49,111.15-1.64,7.63,6.31,16.5,11.95,19.9,16.76,1.8,2.55,2.24,4.31,1.2,6.76-.8,1.88-3.48,4.48-7.52,7.36-.67-.66-1.21-1.45-2.11-1.79-2.99-1.12-5.48-.19-7.48.61s-3.82,1.82-5.44,2.59c-1.62.78-3.05,1.22-3.45,1.26h0c-35.01,2.41-70.54.56-106.24,1.12v7.23c35.34-.56,71.08,1.4,106.9-1.07h.04c2.63-.21,4.65-1.17,6.54-2.09,1.9-.91,3.66-1.86,4.94-2.38.78-.32.56-.29.66-.32.08.24.15.34.22.89l.37,3c-6.41,4.14-15.99,3.53-23.16,6.11-2.51,33.85,59.8,34.44,38.19,68.52l-.13-.34-3.51.71c-43.82,8.92-89.59,20.29-131.08,36.74v8.1c40.46-16.42,85.55-27.91,129.18-36.91,3.02,8.68,5.36,18.09,10.33,27.06-44.73,20.97-93.48,35.49-139.51,56.01v7.97c47.48-21.55,99.13-36.2,146.82-59.06l3.76-1.8-1.99-3.01c18.02-7.2,41.79-8.04,55.08,5.31-11.32,18.44-30.85,39.11-19.02,62.19,3.62,11.48,14.82-.26,21.75-2.06,9.82.89,25.65.58,31.23,9.17-82.71,58.98-158.96,128.98-237.63,193.62v16.83c82.24-64.74,158.07-137.42,240.43-201.31.09,0,.19-.02.27-.03h0c.43-.02.81-.02,1.16-.02,2.43.03,3.06.64,3.68,1.59.71,1.09,1.1,3.47.66,6.47-.86,5.89-4.52,13.57-7.12,17.54-83.06,69.5-160.29,144.77-239.09,217.44v10.9h7.59c78.62-75.69,165.05-147.94,239.95-224,10.25,10.64,13.57,27.52,29.29,33.84,14.07.11,4.37-21.69,17.61-23.92,11.42-2.54,23.65-6.25,35.52-4.18,3.58,9.72-2.13,17.98-7.06,26.39l.16-2.87-7.99,9.93c-47.07,58.51-81.73,124.78-124.96,184.81h9.41c40.39-56.76,73.57-117.93,115.97-172.52,2.62,10.42,9.86,19.83,20.62,24.68-22.28,50.69-54.21,97.95-80.51,147.84h8.89c26.31-49.31,58.46-96.67,80.67-148.32l.44-1.02c10.16.12,17.32-4.69,17.1-15.68,8.57-6.21,21.19-2.85,30.63.39-18.95,53.79-33,109.18-44.94,164.64h17.18c5.83-52.85,22.03-105.27,34.32-157.95,2.58-1.42,7-2.86,11.15-2.99,2.98-.09,5.61.44,7.2,1.38,1.54.9,2.42,2.03,2.61,4.58-11.33,51.41-22.09,103.35-32.24,154.98h12.24c13.56-52.18,20.32-106.89,31.13-158.49,15.61.71,25.71,14.99,34.14,25.69-8.71,42.92-13.26,87.07-14.79,130.75v.2c-.02.61-.04,1.23-.06,1.84h9.27s-.07-.05-.1-.08c-.76-.66-.98-1.1-1.03-1.62s.08-1.45,1.29-3.07l.44-.59.16-.7c8.68-37.84,6.65-77,13.84-113.28,5.32-.03,9.61-2.31,12.53-4.56,1.7-1.31,3.05-2.38,4.25-3.23-3.28,42.87,2,86.55-7.91,127.13h14.76c6.25-52.81,2.98-108.77,11.65-159.27,11.72,4.24,19.7,29.25,39.47,34.08-.86,1.45-1.68,2.92-2.42,4.44l-.58,1.2.4,1.27c1.46,4.59,2.75,9.25,3.93,13.94h0c1.09,34.81,8.69,69.55,11.85,104.33h9.99c-3.71-39.35-5.79-80.53-17.64-118.81.27-.53.58-1.05.88-1.58,5.64.74,10.74-.89,14.77-2.71,4.17-1.88,7.45-3.34,10.19-3.75,6.51,42.3,13.79,84.49,18.21,126.86h11.59c-8.14-49.73-12.22-101.13-24.76-149.33,12.55-19.81,32.14-3.29,48.21,2.54,9.49,49.16,21.89,97.97,33.7,146.8h15.27c-1.96-5.4-5.8-16.93-7.95-24.03-5.87-19.41-9.71-34.96-19.48-78.82-3.06-13.74-6.19-27.61-6.96-30.83-.77-3.22-1.4-6.02-1.4-6.23,0-.39,4.59-5.02,8.85-8.91,1.65-1.51,3.09-2.54,4.16-2.99.9-.38,1.69-.63,1.75-.58.06.06.6,2.47,1.18,5.36,3.61,17.86,8.44,33.92,20.61,68.59,13.99,39.86,18.87,56.84,21.82,75.9.18,1.18.26,1.64.4,2.55h14.6c-16.12-53.03-32.16-107.62-51.37-158.97l-.17-1.1-.24-.02c-.68-1.81-1.35-3.62-2.03-5.41,12.8-13.09,29.7-27.46,51.02-20.16,34.24,63.94,88.7,123.5,131.51,185.67h14.96c-4.03-1.97-7.27-4.83-9.11-8.86l-.14-.31-.2-.28c-39.05-54.59-78.52-108.99-118.3-163.07-1.68-2.6-1.76-4.11-1.46-5.18.31-1.07,1.21-2.16,3.03-3.31,3.05-1.93,8.19-3.46,13.01-4.87,49.97,61.34,98.45,123.68,147.56,185.86h14.66c-52.33-68.73-106.11-138.67-162.29-203.36-4.06-26.49,39.62-49.37,54.05-22.79,69.93,59.83,143.48,116.33,214.04,175.63v-15.24c-64.82-56.27-133.5-108.08-199.24-163.04l-.24-.2-.27-.16c-2.83-1.7-3.85-3.28-4.36-5.25-.51-1.96-.3-4.48.38-7.37.87-3.71,2.5-7.9,3.36-12.31,67.16,46.32,132.05,96.32,200.36,142.02v-13.64c-63.21-46.46-127.85-91.47-191.25-137.66-12.47-6.52-14.7-38.51,5.98-31.55,1.33,11.05,13.71,12.31,21.81,17.47,53.68,32.71,110.67,61.09,163.45,94.88v-14.02c-56.59-30.58-111.6-62.35-167.8-93.94-1.26-1.09-1.9-1.97-2.04-2.33-.15-.38-.13-.23,0-.45.24-.44,2.28-2.04,5.52-3.4,3.24-1.36,7.41-2.68,11.36-4.07,2.91-1.03,5.56-2.17,7.98-3.55,47.71,24.28,95.62,48.77,144.99,70.7v-13.03c-50.12-24.51-100.82-49.71-152.57-71.65-3.22-5.1-5.89-10.44-8.91-15.61l1.24-2.18c.4-.69.43-1.13.58-1.67,51.55,22.41,108.29,30.32,159.62,49.87v-7.75c-51.48-19.12-106.58-27.29-155.57-48.47-1.17-1.28-2.28-2.33-4.43-2.74-.9-.17-1.88.22-2.83.54-.02-.51-.15-.93-.13-1.48.1-2.33.64-5.05,1.08-7.73,9.08-.87,18.72-2.55,26.5-6.07,4.32-1.96,8.11-4.47,10.66-7.88.03.08.08.16.11.23l.78,1.84,2.13.42c40.67,7.99,81.13,17.38,121.69,26.48v-7.53c-39.2-8.79-78.42-17.85-117.95-25.66-1.41-3.15-2.9-6.26-4.59-9.25-.04-.07-.1-.14-.14-.22-1.31-4.26-4.13-8.69-8.83-13.52-.02-.03-.04-.06-.06-.09h-.02c-.14-.13-.19-.26-.33-.4l-3.09,2.18c-.94-2.64-1.38-5.41-1.57-8.15,45.2,7.69,91.52,10.35,136.6,18.6v-12.38c-41.36-7.46-84.63-7.32-124.39-15.91-1.48-1.19-2.63-2.32-2.96-2.92-.39-.72-.31-.77-.2-1.04.21-.53,2.3-2.34,5.98-3.84,3.69-1.51,8.53-2.88,13.16-4.18,4.03-1.14,7.6-2.25,10.72-3.57,32.77,6.44,66.06,4.63,97.69,9.67v-12.78c-31.37-4.61-63.33-3.15-94.93-5.76-2.51-21.47-29.57-31.04-33.78-52.35,42.73,2.34,85.81-.24,128.71,1.57v-8.86c-40.23-1.79-82.31.02-120.42-2.41,1.96-3.32,3.21-6.87,4.64-9.79,1.2-2.46,2.5-4.43,3.97-5.63s3-1.87,5.99-1.81h.25l.25-.02c34.91-3.21,70.11-4.63,105.32-6.97v-9.32c-35.73,1.81-71.56,2.93-107.06,7.05,2.28-19.48-37.86-18.81-35.4-39.71,47.37-8.91,95.56-16.05,142.46-27.23v-11.13c-36.46,6.51-72.86,13.93-108.8,22.12l-.12.03-.12.03c-4.45,1.29-6.03.65-6.55.24-.52-.42-1.1-1.74-.77-4.12.32-2.37,1.52-5.37,3.21-7.88s3.89-4.51,5.53-5.26l.12-.06.12-.07c32.16-17.46,71.57-21.64,107.39-36.49v-11.94c-34.25,9.87-68.19,20.75-101.6,32.79-17.14,8.58-40.45,3.67-51.91-10.64,50.02-23.28,103.83-39.75,153.52-63.41v-11.65c-49.34,18.1-96.4,40.44-145.26,58.25-1.42.26-2.4.24-2.76.16-.39-.09-.29-.07-.41-.24-.24-.34-.63-2.27-.09-4.89,1.03-5.01,4.63-11.78,6.9-14.87,48.52-22.68,94.7-48.95,141.62-73.49v-14.21c-44.3,25.36-93.38,46.18-136.23,71.62-10.21-19.88-44.58-.71-56.85-11.56,66.12-39.72,129.09-83.68,193.08-126.2v-14.81c-64.32,42.12-126.57,86.9-191.5,127.85-.41-.43-1.12-.76-1.37-1.32-.55-1.19-.78-2.84-.65-4.86.25-4.04,1.97-9.31,3.4-14.41,1.28-4.59,2.5-9.1,1.04-13.44.09.08.13.21.23.29,1.89,1.48,4.26,1.89,6.3,1.79,3.95-.2,7.38-1.84,9.96-4.19,56.42-45.31,115.73-87.92,172.61-133.13v-15.25c-61.78,46.66-121.83,95.36-183.89,141.53l-.05-1.08-4.21.35c-5.99.49-12.64.69-19.3,2.79-.05,0-.09,0-.14.01v.02c-.28.09-.56.08-.84.18l1.05,3.57c-17.26,7.6-38.85,7.26-56.19,4.2,82.51-91.99,175.45-181.65,263.57-271.69V.02h-1.69c-78.39,75.3-149.56,156.65-228.04,231.59l-.06.06-.06.06c-4.94,5.18-8.62,11.39-12.78,16.49-2.8,3.43-5.72,6.19-9.18,8.1.51-6.68.19-13.33.05-19.56-.18-8.23.55-15.55,5.19-21.79l.03-.04.03-.04c42.99-61.26,101.16-112.23,151.47-169.41l.38-.43.22-.51C934.6,27.75,949.67,14.61,963.26,0h-10.59c-12,12.37-25.12,24.83-32.4,41.12-49.82,56.59-108.13,107.66-151.74,169.78-2.55,3.43-4.14,7.04-5.13,10.73-1.63,2.42-3.05,4.97-4.43,7.5-5.84.84-11.93-8.62-15.85-2.13-13.36,19.34-42.21,8.73-62.55,17.01,8.03-16.74-4.45-35.18,5.5-51.73,25.95-62.93,41.97-128.71,65.73-192.28h-11.78c-22.69,60.99-42.21,123.87-65.13,184.91-4.76-.5-11.52-1.77-18.37-1.97-2.89-.08-5.73.25-8.48.94,13.5-61.72,33.53-122.85,52.35-183.87h-8.4c-19.84,64.17-41.3,128.73-54.68,194.35h.02s-.03.05-.03.07l3.98.62c-5.27,17.8-39.6,16.49-57.1,22.48,4.02-21.85,2.18-48.11-25.67-54.78,1.81-31.25,4.61-62.6,4.8-93.99h0c.98-6.61,2.18-13.17,3.68-19.68l.02-.1.02-.09c2.79-16.48,2.64-32.89,4.09-48.86h-7.98c-1.46,16.2-1.49,32.25-4.12,47.75-7.83,34.14-7.87,69.18-8.94,103.48v.11c0,1.38-.4,2.19-1.28,3.22s-2.34,2.15-4.06,3.39-3.69,2.61-5.42,4.52c-1.72,1.91-3.14,4.49-3.29,7.53v-.07c-.21,2.88-1.65,7.64-3.64,10.19-.99,1.28-1.98,1.91-2.74,2.1-.45.11-1.02.08-1.75-.11-1.21-60.46.63-121.24-.69-182.13h-9.99c1.78,62.87-8.04,126.35,1.36,188.94-7.14,3.27-13.78,8.25-21.91,9.17,5.2-17.6,7.54-45.06-20.4-43.35-17.57-5.09-5.01,27.99-27.19,17.15C440.18,114,423.2,57.24,409.74,0h-13.55c16.6,54.35,25.75,112.5,41.06,168.52-3.5,1.46-6.89,3.26-9.88,4.4-1.99.76-3.69,1.09-4.57,1.03-.79-.05-1.03-.22-1.58-.97-17.79-57.78-38.09-114.94-52.84-172.99h-13.11c21.33,62.92,34.92,128.63,57.85,190.36-11.32,27.99-38.45-7.98-36.12-24.45-22.44-9.51-38.25,16.27-43.36,32.43C292.74,130.82,248.23,64.58,201.75,0h-13.69c18.79,20.47,31.6,45.49,44.49,70.01l.16.31.22.27c24.67,30.68,45.59,63.64,65.51,97.21l.1.16.11.15c9.69,12.96,22.05,26.47,30.27,40.52,7.66,13.09,11.39,26.33,7.11,40.4-3.69-.69-6.56-1.86-8.58-3.72-2.62-2.43-4.43-5.93-5.77-10.16-2.68-8.47-3.12-19.41-7.65-28.25l-.39-.75-.71-.53c-10.96-8.19-23.64-13.41-31.2-22.3C242.58,120.36,195.58,61.71,156.34,0h-19.93.04Zm345,167.83c24.64,8.25-16.98,36.24,1.42,52.38-15.83,13.68-45.97,6.7-66.59,14.66-13.24-23.02,15.45-50.92,42.03-49.1,14.15,2.85,18.94-8.87,23.15-17.95h-.01Zm77.61,9.56c24.68.71-.74,31.36,12.67,44.89-20.2,6.52-48.21,2.06-68.95-.47-2.39-32.04,52.2-13.46,53.73-44.39.9-.04,1.75-.05,2.55-.03h0Zm-196.54,3.39c9.24,17.84,47.54,34.22,37.32,60.93-12.57,2.7-26.54,15.72-39.1,11.92,6.15-23.43-21.75-53.21,1.78-72.85h0Zm298.77,32.94c9.8,5.61,0,20.92-4.79,29.18-16.27,6.19-28.95-8.02-44.27-10.13,2.37-19.17,36.53-5.92,49.06-19.04h0Zm-367.79,16.04c9.04.36,2.65,16.44,8.71,22,2.16,10.81,17.65,15.96,18.4,26.09-14.07,7.92-26.2,26.89-42.77,27.35-21.31-21.58-13.65-59.8,13.65-75.3.75-.12,1.42-.17,2.02-.15h0Zm225.55,2.74c110.97-.6,218.05,57.73,275.06,142.87,46.82,69.86,63.82,157.8,37.2,236.68-33.3,116.73-153.96,210.14-288.35,216.05-97.88,9.07-199.57-26.14-266.52-91.04-85.69-79.21-113.97-203.39-71.14-307.08,44.23-115.19,172.35-200.26,308.47-197.41,1.76-.04,3.53-.06,5.29-.07h-.01Zm227.54,15.59c9.78-.53,5.07,17.65-1,21.75-10.19,5.3-4.59,20.83-16.37,23.45-16.27-7.23-26.89-22.08-44.47-28.05,2.83-26.09,43.44-4.11,59.69-16.78.78-.21,1.5-.33,2.15-.37h0Zm-522.49,52.77c16.12.39,33.17,6.59,40.4,20.27-4.25,9.4-15.2,14.93-21.65,22.99-18.66-2.32-32.97-27.75-25.57-43.07,2.23-.18,4.52-.24,6.82-.18h0Zm546.02,2.48c13.63,1.7,29.74-2.59,42.01,3.14-1.68,15.1.65,33.74-12.39,45.28-15.22,3.8-21.2-15.3-32.42-21.6-12.23-6.77-16.01-27.22,2.81-26.82h-.01Zm-418.5,19.96c-16.46,8.22-40.83,27.66-37.17,44.51,10.37-12.78,39.03-34.49,37.17-44.51Zm56.79.09c-31.05.71-63.23,16.41-70.81,45.34-1.68,5.48,8.55,3.25,8.89-.98,20.03-43.38,97.7-46.96,123.66-6.48,4.85,3.82,5.19,16.36,14.13,13.88-1.49-33.29-42.65-52.04-75.83-51.75h-.04Zm248.96,9.16c-1.36-.02-2.71.03-4.05.14-31.76,0-66.53,27.84-63.9,55.12,14.35-28.19,54.76-59.91,91.11-37.8,8.79,3.12,14.78,21.53,23.92,14.64-5.31-16.89-26.75-31.82-47.08-32.11h0Zm51.77,1.42c-1.01,0-1.98.04-2.92.16-3.27,7.47,24.09,20.21,33.13,26.42,6.75-12.48-15.13-26.45-30.22-26.58h0Zm-501,9.35c10.09,1.22,32.06,5.93,23.23,18.77-11.87,13.99-18.4,30.35-26.26,46.16-22.9,7.16-27.41-26.95-29.82-41.23,5.66-10.88,20.92-17.78,32.85-23.7h0Zm641.54,7.28c23.77,5.75-11.48,58.9-32.93,42.75-4.67-9.88-14.05-17.67-17.28-28.03,13.12-12.47,33.01-11.49,50.21-14.72Zm-16.6,51c19.51,1.48,33.09,17.56,50.36,24.83,8.15,20.6-40.85,49.94-46.31,17.66,1.58-13.44-21-34.16-4.04-42.49h-.01Zm-419.12,2.32c-35.17.26-73.22,19.14-84.28,50.45-1.74,10.44,10.39,9.2,17.06,4.91,40.82-23.43,90.5,1.59,131.76-11.25-5.9-25.87-35.8-43.77-64.55-44.11h.01Zm-237.94,12.35c34.26-.68,11.16,44.66-2.06,58.4-15.08-.79-32.47-13.58-32.3-29.32,11.08-8.93,19.4-20.4,30.87-28.87,1.23-.12,2.39-.19,3.5-.21h0Zm239.96.92c19.78-.05,40.29,10.37,47.88,25.71-25.67,12.76-42.79-28.72-67.62-14.3-7.4,16.01-28.32,15.25-44.55,18.09,8.63-17.31,33.88-23.66,53.47-28.37,3.53-.76,7.16-1.13,10.82-1.14h0Zm236.32,1.02c-2.3-.02-4.54.06-6.67.23-26.48,1.7-36.96,25.23-45.67,44.26,16.48,15.72,42.63-3.53,62.57,2.08,22.16-3.23,42.72,4.71,62.41,10.99,12.49-36.43-38.08-57.32-72.63-57.56h-.01Zm6.14,10.47c26.36.36,54.62,13.05,62.84,35.85-11.62-3.43-23.29-6.9-35.38-9.06-5.98-16.3-36.87-21.38-39.18-1.11-8.35,5.44-27.55,11.96-34.77,3.29,5.96-12.95,20.17-24.96,35.66-28.39,2.71-.33,5.49-.52,8.29-.57.85-.01,1.7-.01,2.55,0h0Zm-358.97,26.28c-17.49,2.94-37.52,9.59-43.04,26.6,15.18,5.48,23.77-15.85,39.84-15.37,28.04-6.06-22.03,20.91-3.17,24.96,22.58-31.93,60.68.55,91.9-4.25,27.49.16,48.56-21.4,76.47-18.53,1.17-2.65,2.37-5.83-1.7-6.83-31.41-1.37-62.95.42-94.2,3.2-22.96,15.21-46.68-9.02-66.1-9.77h0Zm451.87,10.93c-3.14.06-5.98.53-8.18,1.47-21.99,13.49,25.73,6.52,36.87,15.59,4.04-10.01-15.09-17.34-28.69-17.06h0Zm103.66,4.95c11.85,5.99,26.2,15.52,35.38,26.27,2.61,14.74-19.69,21.71-33.15,20.67-2.67-14.94-6.02-33.12-2.22-46.94h-.01Zm-324.85,1.87c-2.07.03-4.06.23-5.81.57-8.69,1.1-24.54,9.7-20.32,17.15,12.63-11.21,30.16-10.26,45.63-5.53.12-9.11-10.51-12.3-19.5-12.19h0Zm78.73,3.28c5.13,11.39,35.52,9.02,47.53,20.05,34.35,23.01,74.88-19.72,107.51,5.17,6.15-16.74-32.22-21.25-45.12-16.76-35.27-7.23-73.24-7.63-109.91-8.46h-.01Zm-442.8,9.61c20.48-.31,1.26,32.99,6.94,44.31-1.19,22.86-35.62,3.67-41.95-4.4,15.85-10.26,20.25-29.82,35.01-39.91h0Zm303.12,23.62c-.53,0-1.13.07-1.81.21-35.27,22.9-81.22,32.37-124,25.93-18.68,8.8-26.64-11.92-35.22-22.51-17.08.71-22.66,18.55-7.4,26.97-25.51,18.02-18.62,61.75,6.81,72.03-2.47-20.85-20.72-61.55,13.61-67.77-1.78,11.78-7.93,26.05,2.44,35.95,12.47.55,7.32-23.15,23.06-19.59,43.36,11.98,88-7.45,118.77-34.31,3.77-2.41,11.7-16.93,3.73-16.89h0v-.02Zm100.9,1.92c-17.59,19.17-59.98,23.02-76.35,1.5-10.71-1.55-7.84,12.85-2.89,17.53,21.85,23.57,68.85,17.33,85.65-8.27,3.19-4.6-.55-10.45-6.41-10.76h0Zm167.9,3.6c-1.88,8.84-8.47,17.2-8.41,26.18,4.47,10.74,20.66-.82,23.61,10.2,7.74,14.52,2.12,32.68,1.68,46.14,22.01.24,20.76-37.76,10.8-49.88-15.67-7.16-11.54-29.54-27.68-32.65h0Zm-139.97,12.42c14.47,34.95,59.73,39.26,95.15,41.19-16.37,9.17-33.86,17.84-53.59,18.46-36.99,4.02-74.52-23.37-109.85-6.19-57.53-6.68-127.39,27.74-181.16-7.89-18.42,1.11-2.67,22.2,2.28,29.61,33.94,31.83,59.49,76.78,108.17,92.21,49.73,8.44,109.79,15.83,152.95-14.09,36.02-34.62,61.49-78,89.66-116.38,21.57-10.9,21.26,12.63,21.71,25.03,17.93-1.41,11.56-31.59,2.79-40.92-44.15,6.35-90.02.88-128.1-21.03h-.01Zm260.11,3.69c28.04.24,24.34,32.9,42.92,45.9-7.62,10.72-42.94,14.53-48.35-2.48,2.91-14.35,3.52-28.98,5.44-43.42h-.01Zm-84.62,7.36c8.53,23.15,7.93,48.35-5.11,70.19-.93,2.79-5.84,10.54.42,9.53,23.93-18.37,35.26-63.67,4.69-79.72h0Zm-605.47,20.65c16.37,2.68,9.62,31.7,17.02,44.39-16.19,15.14-53.77,8.05-66.1-8.53,16.15-11.65,26.63-31.62,49.09-35.86h-.01Zm100.67,6.54c-7.22,28.05,7.07,59.54,30.97,78.28,12.55-1-6.02-17.18-7.32-23.26-13.69-16.14-12.49-43.57-23.65-55.01h0Zm278.78,20.56c23.3.05,49.87,4.79,68.69,12.08-54.24,5.11-111.04-1.52-166.15,4.13-1.64-.84-17.18,1.92-15.79-3.58,27.45-4.47,56.32-14.35,84.17-6.83,9.6,4.78,16.46-2.92,24.46-5.75,1.52-.04,3.06-.06,4.61-.05h.01Zm303.97,5.37c20.36,2.19,17.91,30.49,24.99,44.06,17.65,27.62-57.82,26.02-43.85-.09,9.95-13.27,6.97-32.32,18.86-43.97h0Zm-487.41,8.8c97.07,20.1,201.36,1.82,296.31,7.23,2.51,23.02-33.7,13.07-36.26,22.68-36.35,4.55-70.35,6.57-108.27,10.35-13.89-9.28-34.87,8.8-47.69-5.93-20.76,14.99-38.59-6.67-60.04-4.8-11.95-11.74-39.22-13.49-44.05-29.52h0Zm-185.51,17.16c20.72,3.47,24.64,37.61,31.03,55.51-17.81-1.84-35.74-4.64-53.59-1.44-16.33-17.91-1.36-48.2,22.56-54.06h0Zm650.38,43.38c18.26,4.56,2.14,32.99,17.39,44.08-5.22,16.05-53.97,2.32-36.41-15.1,7.44-9.06,8.97-21.75,19.02-28.98h0Zm-188.78.3c-1.42.12-3.15,1.11-3.99,2.91-12.98,18.44-31.23,34.13-52.92,43.93-26.58,4.93-53.75.93-80.52,3.63-37.92,3.3-68.86-19.65-97.91-37.61-7.78-2.94-3.38,5.26.3,7.29,26.38,19.69,55.66,42.22,90.36,44.53-12.79,1.06-27.83,19.25-6.5,13.55,10.03-3.62,20.94-4.56,31.67-3.87,9.44-.07,18.76,1.66,28.2,1.49,11.85-7.67-25.37-9.31-8.63-13.75,43.87,5.17,84.14-23.37,101.34-58.03,1.74-2.93.42-4.23-1.41-4.08h0Zm-116.5,3.27c24.04-.07,48.51,2.27,70.11,11.29-14.72,21.47-56.08,12.09-80.82,14.13-14.74-3.62-38.71,5.88-48.98-7.39,5.7-13.6,21.67-16.07,35.92-17.31,7.79-.4,15.75-.69,23.77-.72h0Zm-298.98,31.38c16.68,10.39,27.57,34.35,44.92,47.69,10.13,11.01-10.72,12.76-18.28,7.5-14.74-8.51-31.94-12.27-49.27-8.64-14.84-17.24,9.6-35.37,22.62-46.56h0Zm566.97,17.8c20.26.2,12.14,28.48,7.91,41.37,5.84,29.47-51.33,19.9-47.61-3.98,13.5-11.06,24.87-24.08,35.26-37.04,1.61-.25,3.09-.36,4.44-.35h0Zm-508.75,45.84c10.41,4.91,63.23,31.02,24.91,33.51-14.96-2.5-21.67,12.14-32.73,15.47-12.55-13.38-9.78-40.81,7.82-48.97h0Zm455.18,11.17c18.4-.29,7.22,27.13.42,35.33-2.57,23.17-52.42,20.2-49.28-4,13.71-13.29,32.34-21.33,48.86-31.33h0Zm-125.77,3.51c-56.26,20.27-121.45,14.93-178.56.56-2.91,7.03,18.86,15.05,26.56,19.12,48.61,16.35,114.9,15.63,152-19.69h0Zm-256.75,34.51c16.58,7.91,40.41,9.27,52.26,22.15-5.24,29.89-52.08-2.83-65.16,21.69-12.31-14.74,12.78-28.39,12.9-43.84h0Zm309.05.15c22.01.57,12.8,38.9-7.23,42.48-16.03,20.51-56.61,3.38-47.77-21.33,15.4-9.15,34.31-11.96,50.17-20.74,1.75-.32,3.36-.45,4.83-.41h0Zm-229.76,21.92c22.92,1.7,44.88,9.47,68.43,8.16,13.1-.07,7.3,15.92-2.32,17.15-13.36,3.8-6.93,21.75-20.17,25.45-4.63-26.71-59.41-19.88-45.93-50.76h0Zm153.52.27c18.32,7.01,1.48,32.79-12.05,40.22-7.03,26.09-42.57,8.84-44.27-11.05-11.81-33.67,38.33-18.7,56.32-29.18h0Z" style="fill:#180b08; stroke:#fff; stroke-miterlimit:10; stroke-width:5px;"/></svg>