<?xml version="1.0" encoding="UTF-8"?><svg id="a" xmlns="http://www.w3.org/2000/svg" width="1025" height="1024" viewBox="0 0 1025 1024"><path d="m674.57,154.33c12.3,37.2-42.31,47.26-38.71,88.47,1.04,11.87,8.2,23.61,9.68,35.94,3.41,28.45-7.95,45-29.03,62.21-3.37-2.16-8.2-2.86-11.06-5.53,5.37-12.77,12.92-18.87,16.59-30.41,7.65-24.08-6.41-51.16,0-77.41,7.89-32.3,46.66-39.04,52.53-73.27h0Z" style="fill-rule:evenodd;"/><path d="m666.28,159.86c-9.2,28.77-37.38,25.75-51.15,58.06-9.4,22.06,3.38,51.72-1.38,76.03-3.58,18.26-21.24,45.27-42.85,26.27,3.3-11.44,16.32-13.17,23.5-20.74,2.8-12.24,8.14-18.93,6.91-33.18-1.3-15.08-8.17-25.14-6.91-37.32,2.31-22.38,22.78-39.88,37.32-48.38,10.97-6.41,25.84-7.81,30.41-20.74h4.15Z" style="fill-rule:evenodd;"/><path d="m504.54,161.25c1.61-.22,2.46.31,2.76,1.38.08,46.53-.25,102.43-1.38,149.3-7.04,2.07-20.71,2.11-26.27,1.38,10.17-47.03,14.6-106.6,24.88-152.06h0Z" style="fill-rule:evenodd;"/><path d="m516.98,193.04c13.5,37.19,22.95,78.42,31.8,120.27-7.8,3.25-20.73.75-27.65-1.38-5.79-32.7-4.69-78.22-4.15-118.88h0Z" style="fill-rule:evenodd;"/><path d="m735.4,280.13c3.21,5.45-2.84,3.72-5.53,6.91-3.31,3.92-4.53,11.01-8.3,15.21-1.92,2.14-6.52,2.75-9.67,5.53-4.05,3.57-5.17,10.24-9.68,15.21-6.68,7.35-18.8,14.89-27.65,23.5-16.5,16.06-25.56,30.52-41.47,6.91,32.34-26.2,70.13-46.91,102.3-73.27h0Z" style="fill-rule:evenodd;"/><path d="m727.1,305.01c2.35-.51,2.61,1.08,2.76,2.76-15.51,32.42-35.9,59.95-53.92,89.85-7.21-3.39-10.46-10.74-13.82-17.97,19.7-26.84,44.47-48.61,64.97-74.65h.01Z" style="fill-rule:evenodd;"/><path d="m881.93,356.16c-3.76,20.95-25.92,31.47-48.38,33.18-12.01.92-19.47-2.54-29.03,1.38-22.41,9.19-24.11,37.65-40.09,55.29-14.76,16.29-31.56,18.98-56.68,24.88-3.27-5.06-8.07-12.7-5.53-19.35,8.97-4.07,13.3-.64,22.12-2.76,30.98-7.47,36.52-45.22,60.82-60.82,15.79-9.09,45.84-3.93,63.59-11.06-1.26-8.71-10.63-2.96-16.59-2.76-10.22.33-21.74-1.42-30.41,0-29.76,4.87-47.87,30.23-58.06,52.53-12.63,9.29-29.1,11.29-48.38,11.06-4.91-7.29-7.62-9.36-6.91-20.74,15.21-3.11,32.05,5.41,44.24-4.15,20.8-26.19,38.79-48.38,78.79-51.15,21.59-1.49,53.46,9.75,67.74-5.53,1.17-.25,1.3.54,1.38,1.38,1.18.25,1.3-.54,1.38-1.38h0Zm-29.03,17.97c4.99,1.62,10.86,2.47,12.44-4.15-3.92-2.91-11.75-.5-12.44,4.15Z" style="fill-rule:evenodd;"/><path d="m196.27,383.81c19.19,9.41,31.01,19.38,53.91,15.21,15.56-2.83,27.77-11.19,44.24-9.68,15.18,1.39,22.57,10.75,37.32,13.82,3.89,9.54,5.48,20.08-2.76,26.27-16.68-13.31-40.32-22.14-70.5-17.97-2.64.58-5.95.5-5.53,4.15-28.26-1.24-49.12-9.85-56.68-31.79h0Z" style="fill-rule:evenodd;"/><path d="m593.01,422.51c-1.51,6.15,3.34,10.08,0,13.82-10.4-.63-15.49-20.33,0-13.82Z" style="fill-rule:evenodd;"/><path d="m608.22,422.51c6.74,1.09,8.34,7.32,13.82,9.68,4.34.65,3.65-3.72,6.91-4.15,8.54,1.6,7.97,12.3,13.82,16.59,8.14,1.06,2.27-8.82,6.91-8.29-3.17,13.7,17.38,13.65,15.2,27.65-1.61,10.35-17.55,11.7-26.27,5.53-2.72-1.93-4.06-8.54-6.91-12.44-7.98-10.92-18.41-20.35-29.03-20.74.12-6.34,6.08-6.83,5.53-13.82h.02Z" style="fill-rule:evenodd;"/><path d="m460.3,439.1c2.48-.18,2.91,1.69,5.53,1.38.42,3.64-1.92,4.54-5.53,4.15v-5.53Z" style="fill-rule:evenodd;"/><path d="m597.16,451.54c-5.68,1.69-12.4,2.35-16.59,5.53-2.85-3.51,16.24-13.82,16.59-5.53Z" style="fill-rule:evenodd;"/><path d="m472.74,448.78c4.71,3.48-4.76,4.35-5.53,6.91-4.2-2.97,4.87-4.23,5.53-6.91Z" style="fill-rule:evenodd;"/><path d="m544.63,458.46c-3.59-.55-4.17-4.13-8.29-4.15,1.12-5.16,8.44-.26,8.29,4.15Z" style="fill-rule:evenodd;"/><path d="m602.69,461.22c-5.26,2.2-11.14,3.38-9.68,15.21,8.51,8.99,21.06-.13,19.35-8.29,13.96,21.29-39.13,22.89-26.26-2.76,4.32-2.19,10.86-7.78,16.59-4.15h0Z" style="fill-rule:evenodd;"/><path d="m457.54,472.28c1.48,5.16-3.43,3.94-2.76,8.29-1.62-.22-1.17-2.52-1.38-4.15-5.32.76,1.07,5.34-2.76,8.29-4.01-1.81-7.95-1.12-9.68,2.76-4.8-4.22-16.35-.84-15.21-13.82,3.59-.55,4.17-4.12,8.29-4.15-1,4.23,2.38,4.07,1.38,8.29,11.46,14.11,13.74-21.43,22.12-5.53h0v.02Z" style="fill-rule:evenodd;"/><path d="m573.66,473.66c-.69,4.35,3.01,5.4,0,8.29-3.93-1.13-7.02-3.12-8.29-6.91,1.64-1.58,4.9-1.56,8.29-1.38h0Z" style="fill-rule:evenodd;"/><path d="m312.39,480.57c-.28,12.16,1.49,26.37-4.15,33.18-37.36,7.02-87.78,5.44-132.71,6.91,6.56-10.64,18.02-7.32,27.65-9.68,35.4-8.67,68.85-26.55,109.21-30.41h0Z" style="fill-rule:evenodd;"/><path d="m833.54,512.37c-33.99,7-88.12,2.4-123.03,0-.94-8.55-4.72-20.71-1.38-29.03,42.94,9.71,81.82,17.97,124.41,29.03h0Z" style="fill-rule:evenodd;"/><path d="m481.04,508.22c1.85,11.47-12.15,30.2-6.91,47-10.31-.29-13.73-7.46-12.44-19.35,9.79-5.88,15-16.33,19.35-27.65Z" style="fill-rule:evenodd;"/><path d="m309.63,527.57c1.66,7.83,6.14,19.29,2.76,27.65-47.24-4.01-89.73-18.22-129.94-24.88,39.24-7.89,89.12-3.4,127.18-2.76h0Z" style="fill-rule:evenodd;"/><path d="m546.01,527.57c5.97-.08,24.74,16.12,11.06,23.5-14.72.69-3.14-19.84-11.06-23.5Z" style="fill-rule:evenodd;"/><path d="m536.33,602.22c-4.3,7.29-14.94,13.81-24.88,11.06,6.16-5.1,13.71-15.52,24.88-11.06Z" style="fill-rule:evenodd;"/><path d="m505.92,611.9c-8.08-4.35-16.29-5.21-26.27-2.76,3.14-9.85,26.18-9.56,26.27,2.76Z" style="fill-rule:evenodd;"/><path d="m848.75,685.16c-22.09-5.56-26.76-28.54-42.85-40.09-24.96-13.81-52.21,13.44-78.79,11.06-21.74-1.95-60.08-24.71-40.09-49.76,16.86,8.02,28.93,20.83,48.39,26.26,17.7-1.14,33.02-6.44,48.38-5.53,35.97,2.13,49.13,33.58,64.97,58.06h-.01Z" style="fill-rule:evenodd;"/><path d="m335.89,617.43c4.51,2.81,23.67,20.54,23.5,29.03-.16,7.93-11.69,14.26-20.74,24.88-8.48,9.96-11.67,22.14-17.97,27.65-8.28,7.25-21.52,21.32-29.03,30.42-6.07,7.35-12.13,16.48-20.74,22.12,14.9-45.94,46.33-87.29,64.97-134.09h0Z" style="fill-rule:evenodd;"/><path d="m547.39,622.96c2.81,4.9-2.13,12.1-4.15,16.59-22.07,5.2-46.84,6.78-52.53-13.82,6.12-4.43,10.58,1.15,16.59,1.38,16.1.6,30.82-10.71,40.09-4.15h0Z" style="fill-rule:evenodd;"/><path d="m746.45,744.61c-10.12-5-22.1-13.12-30.42-22.12-8.23-8.92-12.09-18.55-22.12-27.65-12.97-11.76-28-24.96-40.09-38.71,4.46-7.98,8.22-16.66,16.59-20.73,28.19,33.58,51.52,71.97,76.03,109.21h0Z" style="fill-rule:evenodd;"/><path d="m346.95,711.43c-22.53,9.26-36.42,27.17-59.44,35.94,25.54-32.06,53.67-61.52,82.94-89.85,7.07,6.35,20.72,9.22,19.35,19.35-1.44,10.68-40.92,22.15-42.85,34.56Z" style="fill-rule:evenodd;"/><path d="m739.54,754.28c-43.08-19.59-76.55-48.78-114.74-73.26,17.1-38.18,54.97,15.11,70.5,29.03,19.15,17.16,34.88,28.86,44.24,44.24h0Z" style="fill-rule:evenodd;"/><path d="m862.57,681.02c6.52-.07,10.47,2.43,16.59,2.76-1.25,8.78-12.89,6.86-20.74,5.53-.84-4.98,4.23-4.09,4.15-8.29h0Z" style="fill-rule:evenodd;"/><path d="m608.22,692.08c6.27,11.66-1.9,24.12,0,35.94,2.68,16.68,17.13,26.35,29.03,33.18,7.36,11.48,15.61,19.39,19.35,33.18,4.79,17.63-.41,34.45-1.38,53.92-.97,19.37,9.58,32.78,9.67,47-8.35-3.17-15.84-7.2-20.74-13.82-.13-6.11,6.93,1.72,8.3-4.15-1.36-8.59-8.84-16.02-9.68-26.26-1.01-12.35,4.93-25.35,4.14-37.32-1.67-25.5-12.63-42.29-37.32-51.15-13.14-15.61-28.55-39.25-17.97-66.35,5.73-1.53,10.14-7.43,16.59-4.15h0v-.02Z" style="fill-rule:evenodd;"/><path d="m573.66,704.52c4.47,19.5,8.88,42.4,22.12,56.68,10.19,4.1,17.17,11.4,27.65,15.2,8.09,15.19,18.85,28.9,17.97,49.77-.61,14.39-12.19,30.06-2.76,44.24-17.55-7.91-7.37-32.5-9.67-51.15-1.59-12.81-8.34-28.85-19.36-34.56-4.52-2.34-11.05-1.32-15.2-2.76-26.41-9.2-42.16-35.02-37.32-70.5,4.09-3.74,9.94-5.76,16.59-6.91h-.02Z" style="fill-rule:evenodd;"/><path d="m499.01,715.58c8,38.34,3.63,91.56,9.68,134.09-16.78-38.52-22.36-95.6-31.79-136.85,6.02-2.74,15.06,2.07,22.12,2.76h0Z" style="fill-rule:evenodd;"/><path d="m543.25,712.81c3.17,7.99-.84,17.7-4.14,23.5-1.13,23.29-5.16,43.68-13.82,59.44-2.81,16.54-2.28,36.43-11.06,47-.02-42.55-.77-84.8,0-125.8,7.17-3.89,18.43-3.69,29.03-4.15h-.01Z" style="fill-rule:evenodd;"/><path d="m370.45,158.48c-7.73,7.87.83,20.37,0,34.56-.63,10.86-4.68,20.39-4.15,29.03,1.17,19.11,11.25,41.89,23.5,49.77,3.66,2.35,9.37,1.44,12.44,2.76,19.13,8.26,29.13,28.01,31.79,49.77-6.16,4.9-9.83,12.29-22.12,11.06-.73-54.85-58.59-50.82-56.68-106.44.56-16.22,7.48-28.93,8.29-44.24.88-16.55-7.26-31.67-12.44-42.85,15.26,3.07,27.19,18.48,31.79,33.18,5.12,16.35.65,35.84,5.53,52.53,7.85,26.87,45.87,26.48,63.59,48.38,9.28,11.48,12.99,23.06,11.06,41.47-4.2,2.25-8.84,4.06-15.21,4.15-5.1-19.05-10.58-35.91-26.27-47-27.04-7.22-46.1-24.03-48.38-53.91-1.35-17.65,7.43-37.47,0-56.68.39-2.23-1.31-2.38-1.38-4.15.26-1.18-.54-1.3-1.38-1.38h.02Z" style="fill-rule:evenodd;"/><path d="m276.45,280.13c27.18,11.53,44.45,32.96,74.65,41.47,4.2,13.16,38.34,17.22,38.71,30.41.24,8.74-12.44,10.91-19.35,16.59-7.96.56-11.25-10.82-16.59-8.29-18.99-28.06-57.03-48.92-77.41-80.18h0Z" style="fill-rule:evenodd;"/><path d="m264.01,287.04c35.54,24.04,67.47,61.76,94,92.62-2.84,8.68-6.61,16.43-15.21,19.35-30.28-33.31-50.69-76.49-78.8-111.97h.01Z" style="fill-rule:evenodd;"/><path d="m316.54,457.07c-14.82-2.06-16.62-18.4-34.56-20.74-9.34-1.22-18.16,1.83-27.65,1.38-29.59-1.38-49.45-12.21-66.35-31.79-2.39-12.81-10.48-19.93-13.82-31.79-7.16-8.97-16.98-15.28-29.03-19.35,11.8-14.25,33.42,2.51,40.09,11.06-7.83,27.22,24.08,50.7,40.09,53.91,20.61,6.1,52.35-6.01,80.18,4.15,2.93,8.13,11.88,10.24,16.59,16.59,2.85,7.52-1.26,12.47-5.53,16.59h0Z" style="fill-rule:evenodd;"/><path d="m414.69,480.57c-8.56-2.01-.8-13.79-1.38-16.59,22.9-5.88-.03,2.59,1.38,16.59Z" style="fill-rule:evenodd;"/><path d="m494.86,701.75c-1.29-6.54-3.56-12.11-11.06-12.44.38-2.85,6.12-.33,5.53-4.15-10.41-7.1-29.15-5.88-38.71-13.82-2.26,10.12,19.12,8.52,24.88,15.21-4.84,4.07-12.87,2.61-17.97,0-4.35-.67-1.03,6.34-4.15,6.91-52.63-15.57-84.78-51.61-111.97-92.62-14.91-41.28-23.14-73.26-17.97-116.12,3.72-30.82,20.95-59.22,35.94-82.94,23.24-36.79,74.5-68.52,128.56-76.03,10.06-1.4,21.4,1.41,29.03-4.15,8.45,7.67,18.43,4.18,27.65,5.53,88.47,12.91,150.7,96.56,154.83,188-5.62,17.51-2.6,34.84-8.29,51.15-1.79,5.13-3.43,7.03-5.53,16.59-2.52,11.49-15.59,33.85-23.5,44.23-9.99,13.12-28.53,27.7-42.85,38.71-28.6,21.97-67.79,39.34-124.41,35.94h-.01Zm143.77-105.06c9.67,2.27,9.77-12.31,15.21-9.68.03,3.26-2.38,4.07-1.38,8.29,26.09-14.03,40.84-67.3,30.41-105.06-4.18,26.34-2.45,64.12-20.74,82.94,4.05-9.64,13.05-27.96,6.91-38.7-5,21.73-11.49,41.96-29.03,51.15,3.24-7.36,8.67-12.53,8.29-23.5-9.54,2.45-9.85,14.11-15.21,20.74-5.79,2.96-10.92,6.58-11.06,15.2,8.04-.71,11.49-6.02,16.59-9.67-1.9,1.76-1.9,6.54,0,8.29h.01Zm-33.18-239.15c-3.25-.44-5.19-2.18-9.68-1.38,2.74-3.19-.35-1.54-1.38-4.15-30.33-14.74-72.34-23.24-113.35-19.35-21.68,2.06-39.25,10.54-56.68,16.59-2.05,1.64-2.15,5.22-4.15,6.91.52-3.78-12.55.71-11.06,6.91,34.9-14.82,85.5-33.35,136.86-22.12,5.71,1.25,12.66,6.11,19.35,8.29,7.46,2.44,15.86,2.96,22.12,5.53,10.05,4.12,17.58,14.34,27.65,13.82-.43-6.48-8.24-5.59-9.68-11.06h0Zm-106.44-12.44c-5.56.26-14.17-.49-16.59,5.53,33.18,4.61,64.48,3.24,91.24,11.06-11.4-13.28-49.56-17.76-74.65-16.59h0Zm-98.15,38.71c12.77-2.9,21.73-9.6,27.65-19.35-13.51,2.15-22.38,8.95-27.64,19.35h0Zm201.82-1.38c2.1,8.5,8.19,13.01,16.59,15.21-4.2-5.7-7.8-18.59-16.59-15.21Zm41.47,19.35c1.35-7.64-6.99-16.75-16.59-17.97,4.09,7.43,9.99,13.05,16.59,17.97Zm-282,9.68c7.57.65,9.64-4.19,11.06-9.68-5.63-3.54-9.36,4.87-11.06,9.68Zm88.47,0c-4.36-.68-4.88,2.49-9.68,1.38-3.01-2.98-6.41-5.57-11.06-6.91-29.72,8.46-67.12,9.98-69.12,42.85,7.37-2.04,18.01-12.26,23.5-20.74,7.7,5.3,9.74-.53,15.21-4.15,12.29,8.18,14.37-10.48,27.65-4.15-.14,4.47-6.27,2.95-4.15,9.68,9.67-2.87,11.91-1.78,17.97,2.76,4.56-2.72,13.67-6.91,16.59,0-1.91,3.16-1.51,8.63-6.91,8.29-2.8,1.08-10.56-2.69-13.82-5.53-21.99,3.54-49.13,10.9-55.29,34.56-4.35,1.64-7.32,4.67-12.44,5.53-1.03-10.49-7.7-15.34-17.97-16.59-8.34,12.16,3.19,26.78,12.44,30.41,8.06,3.16,18.08-1.53,30.41,0,6.65.83,12.82,6.9,19.35,8.29,27.14,5.8,52.34-12.6,66.35-16.59.79,8.43,5.62,12.81,4.15,23.5-3.14-.67-7.06-2.74-9.68,0-.31,17.01-26.57,24.38-23.5,45.62,1.71,11.83,15.96,24.91,34.56,16.59,18.99,15.45,44.23,7.36,58.06-6.91,16.25,12.71,34.5,1.77,30.42-17.97-2.95-14.22-30.24-24.24-27.65-41.47-2.82-1.79-8.33-.89-8.3-5.53,3.21-5.54-1.96-19.47,5.53-20.74,6.98,1.32,3.91,12.68,9.68,15.21,16.42,2.72,31.77,11.97,49.77,9.68,14.46-1.84,24.46-11.43,35.94-15.21,16.85,7.27,34.18-4.23,34.56-22.12-6.46-4.79-5-13.69-8.29-19.35-11.85-20.38-38.22-23.66-63.59-30.41-4.25,5.87-9.46,1.15-13.82,1.38-17.52.94-29.33,13.88-45.62,17.97-1.06-11.38-7.63-17.26-15.21-22.12-.53,8.45-5.14,17.58-5.53,24.88-.58,10.89,8.84,26.35,9.68,44.24.7,15.01-4.35,28.57-2.76,38.71,1.66,10.62,8.57,17.32,6.91,26.27-4.25,22.85-48.79,17.94-49.77-4.15-.24-5.32,4.88-7.41,6.91-13.82,5.4-17.01-4.38-34.02-4.15-52.53.13-10.04,6.87-16.78,6.91-24.88.05-10.52-10.24-25.19-8.29-38.71-8.16,2.9-9.17,12.95-19.35,13.82-4.55-4.67-12.7-5.7-16.59-11.06h0v.02Zm-116.12,80.18c-10.87,31.81,2.53,82.78,16.59,107.83,4.04-3.5,5.02,7.82,11.06,6.91,3.19.42,1.54-3.99,4.15-4.15,4.21,1.32,5.56,5.5,12.44,4.15-13.93-18.39-27.75-42.47-26.27-71.88-12.82,1.53-3.88,16.26-2.76,22.12,2.77,14.6,7.17,30.89,11.06,40.09-22.29-20.28-25.51-67.43-23.5-103.68-3.21,4.09,2.7-3.2-2.76-1.38h0Zm62.21,116.12c-3.69-16.12-19.97-19.66-22.12-37.32h-4.15c3.06,17.28,13.56,34.27,26.27,37.32Zm211.5-11.06c10.19-2.25,12.85-12.03,16.59-20.74-7-.55-18.98,11.72-16.59,20.74Zm-23.5-5.53c-3.15-.65-9.23,4.77-15.21,5.53-11.83,1.5-30.43-9.75-40.09-8.29-5.58.84-8.89,5.33-13.82,5.53-7,.29-14.72-5.83-22.12-5.53-11.23.45-20.82,10.94-31.79,12.44-15.25,2.09-18.45-4.89-26.27-6.91-9.62,2.25-17.52,29.17-4.15,33.18,5.32-1.59,2.92-10.91,9.68-11.06,12.87-.26,22.91.83,31.79,6.91,9.45,6.47,12.75,20.82,20.74,27.65,21.33,18.23,76.88,5.96,67.74-29.03,11.27-5.96,21.17-7.4,31.79-1.38,3.05-8.81,2.62-26.78-8.29-29.03h0Zm-172.8,12.44c-1.26-7.49-7.01-10.5-12.44-13.83-3.69,6.68,5.07,18.2,12.44,13.82h0Zm-20.73,51.15c7.5,1.12,12.12,11.4,20.74,6.91-2.52-7.62-9.9-10.38-17.97-12.44-9.49-8.02-13.41-21.61-24.88-27.65.62,12.41,16.28,21.4,22.12,33.18h0Zm197.68,1.38c21.51.59,35.32-18,45.62-33.18-15.41,10.86-33.49,19.04-45.62,33.18Zm-17.97,24.88c-10.93-3.13-20.34,3.58-29.03,6.91-6.06-.07-12.95-.97-13.82,4.15,18.34,3.04,34.75-7.57,52.53-9.68,18.11-13.68,43.05-20.54,52.53-42.85-19.5,15.06-43.78,25.34-62.21,41.47h0Zm-134.09-12.44c1.26-5.87-2.26-6.96-5.53-8.29-3.11,3.51-1.3,10.48,5.53,8.29Zm-19.35,0c5.82,5.7,11.06,11.98,22.12,12.44-1.84-8.35-14.14-19.24-22.12-12.44Z" style="fill-rule:evenodd;"/><path d="m431.27,698.99c10.97-.37,16.14,5.06,23.5,8.29-3.62,8.82-12.55,12.34-19.35,17.97-3.65,11.08-6.48,21.72-6.91,34.56-.99,29.38-4.08,52.54-22.12,70.5-13.19,13.14-34.61,17.23-44.24,40.09,2.98,2.55,9.78,1.28,8.29,8.29-2.28,3.59-11.37,3.72-9.68-4.15-4.39,3.9-3.54,13.05-8.29,16.59-30.37-50.14,37.07-72.03,40.09-113.35,2.05-28.06-27.75-50.13-8.29-81.56,8.12-7.46,23.78-19.36,31.79-4.14-3.43,15.69-12.83,22.93-15.21,38.7-2.68,17.75,6.08,34.38,4.15,51.15-.72,6.24-6.22,21.5-9.68,29.03-9.72,21.19-37.89,28.97-35.94,55.29h2.76c20-36.78,59.34-59.44,52.53-111.97-.15-2.61-4.57-.96-4.15-4.14.46-23.5,6.97-40.95,20.74-51.15h0Zm-63.59,179.71c-.58-2.64-.5-5.95-4.15-5.53-.39,3.6-.47,6.91,4.15,5.53Z" style="fill-rule:evenodd;"/><path d="m822.48,523.43c-18.52,12.35-51.42,10.32-71.88,20.74-19.6.06-23.95,7.18-44.23,6.91-2.57-8.3.79-17.14,4.14-23.5,35.77-6.68,76.81-4.12,111.97-4.15h0Z" style="fill-rule:evenodd;"/><path d="m854.28,671.34c-13.14-5.47-16.28-19.62-24.88-29.03-9.62-10.53-23.51-21.32-41.47-23.5-17.09-2.07-37.28,5.12-55.29,1.38-11.7-2.43-35.83-19.59-37.32-30.42-.9-6.55,4.99-19.36,13.82-19.35,13.52.01,18.1,23.9,26.27,30.42,11.92,9.51,43.07,4.91,64.97,9.67,16.28,3.54,28.27,14.74,37.32,23.5,4.52,13.45,8.41,27.53,16.59,37.32h-.01Z" style="fill-rule:evenodd;"/><path d="m319.3,574.57c-18.06,17.17-36.96,6.74-52.53,20.73-11.03,9.91-13.08,26.42-23.5,38.71-9.66,11.39-29.89,19.92-45.62,20.74-17.01.88-44.08-8.45-49.77,9.67,6.76,5.44,13.75-4.22,20.74-5.53,11.94-2.23,21.38,2.71,30.41,2.76,15.02.09,34.81-5.23,47-16.59,17.35-16.17,17.9-44.24,48.38-49.77,11.86-2.15,17.93.19,31.79-4.14,12.06,8.88-7.15,25.36-17.97,29.03-8.4,2.85-19.66-.24-29.03,4.14-14.86,6.97-17.98,22.8-27.65,33.18-11.71,12.57-30.03,16.23-47,15.21-7.55-.46-15.08-4.91-23.5-5.53-15.54-1.15-31.47,6.9-45.62,9.68.45-16.97,21.44-33.11,37.32-35.94,19.45-3.47,38.42,4.65,52.53-8.3,9.82-9.02,8.63-20.49,13.82-30.41,5.18-9.9,14.53-15.53,26.27-26.27,14.61-6.02,42.29-19.64,53.91-1.38h.02Z" style="fill-rule:evenodd;"/><path d="m494.86,701.75c-1.29-6.54-3.56-12.11-11.06-12.44.38-2.85,6.12-.33,5.53-4.15-10.41-7.1-29.15-5.88-38.71-13.82-2.26,10.12,19.12,8.52,24.88,15.21-4.84,4.07-12.87,2.61-17.97,0-4.35-.67-1.03,6.34-4.15,6.91-52.63-15.57-84.78-51.61-111.97-92.62-14.91-41.28-23.14-73.26-17.97-116.12,3.72-30.82,20.95-59.22,35.94-82.94,23.24-36.79,74.5-68.52,128.56-76.03,10.06-1.4,21.4,1.41,29.03-4.15,8.45,7.67,18.43,4.18,27.65,5.53,88.47,12.91,150.7,96.56,154.83,188-5.62,17.51-2.6,34.84-8.29,51.15-1.79,5.13-3.43,7.03-5.53,16.59-2.52,11.49-15.59,33.85-23.5,44.23-9.99,13.12-28.53,27.7-42.85,38.71-28.6,21.97-67.79,39.34-124.41,35.94h-.01Zm143.77-105.06c9.67,2.27,9.77-12.31,15.21-9.68.03,3.26-2.38,4.07-1.38,8.29,26.09-14.03,40.84-67.3,30.41-105.06-4.18,26.34-2.45,64.12-20.74,82.94,4.05-9.64,13.05-27.96,6.91-38.7-5,21.73-11.49,41.96-29.03,51.15,3.24-7.36,8.67-12.53,8.29-23.5-9.54,2.45-9.85,14.11-15.21,20.74-5.79,2.96-10.92,6.58-11.06,15.2,8.04-.71,11.49-6.02,16.59-9.67-1.9,1.76-1.9,6.54,0,8.29h.01Zm-33.18-239.15c-3.25-.44-5.19-2.18-9.68-1.38,2.74-3.19-.35-1.54-1.38-4.15-30.33-14.74-72.34-23.24-113.35-19.35-21.68,2.06-39.25,10.54-56.68,16.59-2.05,1.64-2.15,5.22-4.15,6.91.52-3.78-12.55.71-11.06,6.91,34.9-14.82,85.5-33.35,136.86-22.12,5.71,1.25,12.66,6.11,19.35,8.29,7.46,2.44,15.86,2.96,22.12,5.53,10.05,4.12,17.58,14.34,27.65,13.82-.43-6.48-8.24-5.59-9.68-11.06h0Zm-106.44-12.44c-5.56.26-14.17-.49-16.59,5.53,33.18,4.61,64.48,3.24,91.24,11.06-11.4-13.28-49.56-17.76-74.65-16.59h0Zm-98.15,38.71c12.77-2.9,21.73-9.6,27.65-19.35-13.51,2.15-22.38,8.95-27.64,19.35h0Zm201.82-1.38c2.1,8.5,8.19,13.01,16.59,15.21-4.2-5.7-7.8-18.59-16.59-15.21Zm41.47,19.35c1.35-7.64-6.99-16.75-16.59-17.97,4.09,7.43,9.99,13.05,16.59,17.97Zm-282,9.68c7.57.65,9.64-4.19,11.06-9.68-5.63-3.54-9.36,4.87-11.06,9.68Zm88.47,0c-4.36-.68-4.88,2.49-9.68,1.38-3.01-2.98-6.41-5.57-11.06-6.91-29.72,8.46-67.12,9.98-69.12,42.85,7.37-2.04,18.01-12.26,23.5-20.74,7.7,5.3,9.74-.53,15.21-4.15,12.29,8.18,14.37-10.48,27.65-4.15-.14,4.47-6.27,2.95-4.15,9.68,9.67-2.87,11.91-1.78,17.97,2.76,4.56-2.72,13.67-6.91,16.59,0-1.91,3.16-1.51,8.63-6.91,8.29-2.8,1.08-10.56-2.69-13.82-5.53-21.99,3.54-49.13,10.9-55.29,34.56-4.35,1.64-7.32,4.67-12.44,5.53-1.03-10.49-7.7-15.34-17.97-16.59-8.34,12.16,3.19,26.78,12.44,30.41,8.06,3.16,18.08-1.53,30.41,0,6.65.83,12.82,6.9,19.35,8.29,27.14,5.8,52.34-12.6,66.35-16.59.79,8.43,5.62,12.81,4.15,23.5-3.14-.67-7.06-2.74-9.68,0-.31,17.01-26.57,24.38-23.5,45.62,1.71,11.83,15.96,24.91,34.56,16.59,18.99,15.45,44.23,7.36,58.06-6.91,16.25,12.71,34.5,1.77,30.42-17.97-2.95-14.22-30.24-24.24-27.65-41.47-2.82-1.79-8.33-.89-8.3-5.53,3.21-5.54-1.96-19.47,5.53-20.74,6.98,1.32,3.91,12.68,9.68,15.21,16.42,2.72,31.77,11.97,49.77,9.68,14.46-1.84,24.46-11.43,35.94-15.21,16.85,7.27,34.18-4.23,34.56-22.12-6.46-4.79-5-13.69-8.29-19.35-11.85-20.38-38.22-23.66-63.59-30.41-4.25,5.87-9.46,1.15-13.82,1.38-17.52.94-29.33,13.88-45.62,17.97-1.06-11.38-7.63-17.26-15.21-22.12-.53,8.45-5.14,17.58-5.53,24.88-.58,10.89,8.84,26.35,9.68,44.24.7,15.01-4.35,28.57-2.76,38.71,1.66,10.62,8.57,17.32,6.91,26.27-4.25,22.85-48.79,17.94-49.77-4.15-.24-5.32,4.88-7.41,6.91-13.82,5.4-17.01-4.38-34.02-4.15-52.53.13-10.04,6.87-16.78,6.91-24.88.05-10.52-10.24-25.19-8.29-38.71-8.16,2.9-9.17,12.95-19.35,13.82-4.55-4.67-12.7-5.7-16.59-11.06h0v.02Zm-116.12,80.18c-10.87,31.81,2.53,82.78,16.59,107.83,4.04-3.5,5.02,7.82,11.06,6.91,3.19.42,1.54-3.99,4.15-4.15,4.21,1.32,5.56,5.5,12.44,4.15-13.93-18.39-27.75-42.47-26.27-71.88-12.82,1.53-3.88,16.26-2.76,22.12,2.77,14.6,7.17,30.89,11.06,40.09-22.29-20.28-25.51-67.43-23.5-103.68-3.21,4.09,2.7-3.2-2.76-1.38h0Zm62.21,116.12c-3.69-16.12-19.97-19.66-22.12-37.32h-4.15c3.06,17.28,13.56,34.27,26.27,37.32Zm211.5-11.06c10.19-2.25,12.85-12.03,16.59-20.74-7-.55-18.98,11.72-16.59,20.74Zm-23.5-5.53c-3.15-.65-9.23,4.77-15.21,5.53-11.83,1.5-30.43-9.75-40.09-8.29-5.58.84-8.89,5.33-13.82,5.53-7,.29-14.72-5.83-22.12-5.53-11.23.45-20.82,10.94-31.79,12.44-15.25,2.09-18.45-4.89-26.27-6.91-9.62,2.25-17.52,29.17-4.15,33.18,5.32-1.59,2.92-10.91,9.68-11.06,12.87-.26,22.91.83,31.79,6.91,9.45,6.47,12.75,20.82,20.74,27.65,21.33,18.23,76.88,5.96,67.74-29.03,11.27-5.96,21.17-7.4,31.79-1.38,3.05-8.81,2.62-26.78-8.29-29.03h0Zm-172.8,12.44c-1.26-7.49-7.01-10.5-12.44-13.83-3.69,6.68,5.07,18.2,12.44,13.82h0Zm-20.73,51.15c7.5,1.12,12.12,11.4,20.74,6.91-2.52-7.62-9.9-10.38-17.97-12.44-9.49-8.02-13.41-21.61-24.88-27.65.62,12.41,16.28,21.4,22.12,33.18h0Zm197.68,1.38c21.51.59,35.32-18,45.62-33.18-15.41,10.86-33.49,19.04-45.62,33.18Zm-17.97,24.88c-10.93-3.13-20.34,3.58-29.03,6.91-6.06-.07-12.95-.97-13.82,4.15,18.34,3.04,34.75-7.57,52.53-9.68,18.11-13.68,43.05-20.54,52.53-42.85-19.5,15.06-43.78,25.34-62.21,41.47h0Zm-134.09-12.44c1.26-5.87-2.26-6.96-5.53-8.29-3.11,3.51-1.3,10.48,5.53,8.29Zm-19.35,0c5.82,5.7,11.06,11.98,22.12,12.44-1.84-8.35-14.14-19.24-22.12-12.44Z" style="fill-rule:evenodd;"/><path d="m573.66,361.69c-26.76-7.82-58.05-6.45-91.24-11.06,2.42-6.02,11.03-5.27,16.59-5.53,25.08-1.17,63.24,3.31,74.65,16.59Z" style="fill-rule:evenodd;"/><path d="m428.51,364.45c-5.92,9.75-14.88,16.46-27.65,19.35,5.27-10.41,14.14-17.2,27.65-19.35Z" style="fill-rule:evenodd;"/><path d="m865.34,369.98c-1.58,6.61-7.45,5.77-12.44,4.15.69-4.65,8.52-7.06,12.44-4.15Z" style="fill-rule:evenodd;"/><path d="m619.28,397.63c-8.4-2.2-14.49-6.7-16.59-15.21,8.78-3.38,12.38,9.5,16.59,15.21Z" style="fill-rule:evenodd;"/><path d="m627.57,383.81c9.6,1.22,17.94,10.33,16.59,17.97-6.6-4.92-12.5-10.54-16.59-17.97Z" style="fill-rule:evenodd;"/><path d="m373.22,401.78c-1.42,5.49-3.49,10.33-11.06,9.68,1.7-4.81,5.43-13.22,11.06-9.68Z" style="fill-rule:evenodd;"/><path d="m638.63,588.4c-5.1,3.66-8.55,8.96-16.59,9.67.14-8.62,5.26-12.24,11.06-15.2,5.36-6.63,5.67-18.29,15.21-20.74.37,10.97-5.06,16.14-8.29,23.5,17.54-9.19,24.03-29.42,29.03-51.15,6.14,10.74-2.86,29.06-6.91,38.7,18.29-18.82,16.55-56.61,20.74-82.94,10.43,37.76-4.32,91.03-30.41,105.06-1-4.22,1.41-5.04,1.38-8.29-5.44-2.63-5.53,11.94-15.21,9.68-1.9-1.76-1.9-6.54,0-8.29h-.01Z" style="fill:#fff; fill-rule:evenodd;"/><path d="m370.45,570.43h4.15c2.15,17.67,18.43,21.2,22.12,37.32-12.7-3.05-23.21-20.04-26.27-37.32Z" style="fill-rule:evenodd;"/><path d="m624.81,575.96c-3.74,8.7-6.4,18.49-16.59,20.74-2.39-9.01,9.59-21.28,16.59-20.74Z" style="fill-rule:evenodd;"/><path d="m593.01,620.19c-10.62-6.02-20.52-4.58-31.79,1.38,9.14,34.99-46.41,47.26-67.74,29.03-7.99-6.83-11.29-21.18-20.74-27.65-8.88-6.08-18.92-7.17-31.79-6.91-6.76.15-4.36,9.47-9.68,11.06-13.37-4-5.47-30.93,4.15-33.18,7.82,2.02,11.02,9,26.27,6.91,10.98-1.5,20.57-11.99,31.79-12.44,7.4-.3,15.12,5.82,22.12,5.53,4.94-.2,8.24-4.69,13.82-5.53,9.66-1.46,28.26,9.79,40.09,8.29,5.98-.76,12.06-6.18,15.21-5.53,10.91,2.25,11.35,20.22,8.29,29.03h0Zm-81.56-6.91c9.94,2.75,20.58-3.77,24.88-11.06-11.17-4.46-18.72,5.96-24.88,11.06Zm-31.79-4.15c9.97-2.45,18.18-1.59,26.27,2.76-.09-12.33-23.13-12.61-26.27-2.76Zm27.65,17.97c-6.01-.23-10.47-5.81-16.59-1.38,5.69,20.61,30.45,19.02,52.53,13.82,2.01-4.49,6.96-11.69,4.15-16.59-9.27-6.57-23.99,4.75-40.09,4.15h0Z" style="fill:#fff; fill-rule:evenodd;"/><path d="m399.48,589.78c5.43,3.32,11.17,6.34,12.44,13.83-7.37,4.38-16.13-7.14-12.44-13.82h0Z" style="fill-rule:evenodd;"/><path d="m369.07,621.58c11.47,6.04,15.39,19.63,24.88,27.65,8.07,2.06,15.45,4.82,17.97,12.44-8.62,4.49-13.24-5.79-20.74-6.91-5.83-11.78-21.49-20.76-22.12-33.18h0Z" style="fill-rule:evenodd;"/><path d="m634.48,622.96c-10.3,15.18-24.11,33.77-45.62,33.18,12.12-14.14,30.21-22.32,45.62-33.18Z" style="fill-rule:evenodd;"/><path d="m633.1,639.55c-9.47,22.32-34.42,29.17-52.53,42.85-17.78,2.11-34.19,12.71-52.53,9.68.88-5.11,7.76-4.22,13.82-4.15,8.69-3.33,18.1-10.04,29.03-6.91,18.43-16.13,42.71-26.41,62.21-41.47h0Z" style="fill:#fff; fill-rule:evenodd;"/><path d="m431.27,660.28c3.27,1.34,6.79,2.42,5.53,8.29-6.83,2.19-8.64-4.78-5.53-8.29Z" style="fill-rule:evenodd;"/><path d="m439.57,681.02c-11.06-.46-16.3-6.74-22.12-12.44,7.98-6.8,20.27,4.09,22.12,12.44Z" style="fill-rule:evenodd;"/><path d="m363.54,873.17c3.65-.42,3.57,2.89,4.15,5.53-4.61,1.38-4.53-1.93-4.15-5.53Z" style="fill-rule:evenodd;"/><path d="m337.28,493.02c-2.01,36.25,1.21,83.4,23.5,103.68-3.89-9.2-8.29-25.48-11.06-40.09-1.11-5.86-10.06-20.59,2.76-22.12-1.49,29.41,12.33,53.49,26.27,71.88-6.88,1.35-8.23-2.83-12.44-4.15-2.61.16-.96,4.57-4.15,4.15-6.04.91-7.02-10.41-11.06-6.91-14.06-25.05-27.47-76.02-16.59-107.83,5.46-1.81-.44,5.47,2.76,1.38h0Z" style="fill:#fff; fill-rule:evenodd;"/><path d="m366.3,710.05c-9.9,2.09-15.51,8.45-20.74,15.2-40.43,20.85-67.15,55.42-110.59,73.27-6.32-15.3,10.25-22.9,16.59-34.56,7.25-13.33,9.43-30,16.59-44.24,3.38-6.73,9.87-12.69,13.82-19.35,11.7-19.72,21.79-45.55,33.18-66.35-41.21-13.52-44.73,29.79-66.35,42.85-8.47,5.12-22.59,7.68-31.79,8.29-14.76.99-31.65-6.78-47-4.14-8.2,1.41-9.28,9.85-17.97,4.14-9.96,4.79-11.56,17.94-19.35,24.89-14.11-12.16-9.83-47.73,0-59.44,7.91-9.43,21.28-17.88,31.79-20.74,16.04-4.35,48.29,4.54,58.06-12.44,4.2-28.98,25.67-40.69,42.85-56.68-5.08-6.89-12.59-4.25-19.35-5.53-34.03-6.42-69.82-15.49-102.3-20.73-8.79-1.42-23.95,2.18-27.65-9.68,3.8-9.88,15.13-6.61,22.12-8.29,14.8-3.57,27.26-10.83,41.47-13.82,4.16-.88,8.08.76,12.44,0,17.16-3,35.33-12.84,53.91-17.97,18.62-5.15,37.42-7.55,55.29-15.21.6-28.19-48.66-15.99-77.41-23.5-8.68-2.27-20.57-6.43-26.27-11.06-3.74-3.04-4.49-9.62-6.91-12.44-2.08-2.42-6.29-3.12-8.29-5.53-8.05-9.66-12.25-22.48-19.35-37.32-8.35-6.52-17.15-14.07-31.79-12.44-6.84.76-9.79,6.72-16.59,4.15-5.52-7.74,8.17-17.94,11.06-26.27,12.49-3.29,19.19-10.13,31.79-9.68,25.61.92,42.74,29.61,56.68,44.24,28.72,16.91,68.09-11.53,96.77,1.38-1.16-12.49-17.13-22.38-12.44-31.79-11.33-1.11-10.17-14.71-19.35-17.97-7.88-16.19-19.72-31.73-30.41-47-9.96-14.22-26.67-28.6-22.12-48.38,20.74,5.52,34.63,17.9,48.38,30.41,42.04,21.09,75.58,50.68,118.88,70.5,16.76-31.4-28.66-43.82-41.47-63.59-10.38-24.74-8.06-43.38-9.68-70.5,14.53-22.73,1.23-53.32-16.59-63.59-4.83-.37-14.76-1.6-15.21-8.29-1.28-18.98,48.45-6.03,56.68,0,3.13,6.08,9.61,8.82,15.21,12.44,6.57,17.05,14.81,31.62,16.59,49.77.67,6.78-2.46,14.11-1.38,20.74,6.05,37.22,59.95,32.48,73.27,66.35,11.99-31.08,11.3-82.11,17.97-116.12,3.36-17.12,7.89-35.59,15.21-49.77,14.62,1.93,14.98,20.61,17.97,31.79,13.18,49.21,22.24,108.2,40.09,156.21,13.66-9.78,23.17-7.6,26.27-23.5,2.91-14.91-6.5-26.1-5.53-44.24.86-16.06,8.13-33.72,16.59-44.24,20.08-24.99,67.71-24.43,58.06-67.74-2-8.99-12.95-17.2-5.53-24.88,26.11,5.88,41.05,34.42,40.09,62.21-1.28,36.94-44.64,47.89-44.24,84.32,8.92,22.68,15.88,54.18,4.15,76.03,30.56-5.94,51.57-34.12,77.41-52.53,8.94-6.38,19.55-11.53,29.03-17.97,8.17-5.56,16.86-18.9,29.03-12.44,2.44,13.1-9.64,21.31-16.59,30.41-20.83,27.26-38.19,60.56-56.68,91.24-10.16,11.5-17.81,25.5-23.5,41.47,28.15,20.32,49.63-13.5,60.82-31.79,19.38-7.29,34.86-17.58,56.68-19.35,17.07-1.38,35.61,6.1,52.53,2.76,15.39-3.03,20.52-15.6,31.79-24.88,16.2,11.58.31,41.04-4.15,53.91-12.56,4.54-18.88,14.63-31.79,17.97-12.86,3.33-31.69-1.09-44.23,2.76-24.67,7.58-26.32,37.31-41.47,55.29-10.01,5.65-20.43,10.9-29.03,17.97,21.67,16.4,61.64,16.91,94,23.5,9.21,1.87,16.77,6.69,24.88,8.29,10.46,2.06,33.78-4.59,31.79,15.21-55.81,13.77-114.92,24.23-170.03,38.7,7.57,9.32,9.97,27.45,22.12,33.18,16.67,7.86,36.09.87,56.68,4.14,35.27,5.62,47.88,32.53,59.44,64.97,10.07,12.78,31.62,6.57,48.38,8.29.38,24.8-24.82,24.02-40.09,33.18-14.19-4.21-22.2-1.56-31.79-6.91-14.3-7.97-18.86-27.63-30.41-35.94-8.06-5.8-25.6-7.87-38.71-5.53-15.91,2.84-39.77,21.42-60.82,5.53,14.24,35.53,42.37,57.17,56.68,92.62,7.39,13.87,24.42,25.25,24.88,41.47-12.52,4.1-23.85-6.66-33.18-13.82-28.82-22.12-65.33-41.1-96.77-60.82-9.52-9.38-19.66-18.13-34.56-22.12-4.18,7.61-7.07,13.39-6.91,20.74.43,19.61,18.84,24.57,31.79,37.32,12.69,12.5,19.31,35.46,20.73,52.53,1.94,23.11-7.35,53.71,5.53,71.88,4.05,10.05,22.81,9.16,23.5,19.35.86,12.66-18.94,11.47-37.32,11.06-20.18-10.94-42.17-28.67-45.62-55.29-1.98-15.31,3.67-21.38,1.38-35.94-5.03-32.01-30-21.85-49.77-38.7-6.86-5.85-7.33-15.98-17.97-22.12-7.39,7.09-4.14,18.79-6.91,29.03-1.92,7.11-6.78,13.22-8.29,20.74-3.24,16.07.67,35.42-8.29,47,1.75,13.82-4.08,22.84-8.29,41.47-2.08,9.18-1.85,22.49-11.06,22.12-14.03-.56-6.99-31.82-8.29-42.86-.6-5.13-4.12-9.72-5.53-15.2-3.03-11.77-2.91-25.15-5.53-37.32-8.1-37.66-17.87-73.97-23.5-102.3-7.78-.87-8.52,5.3-15.21,5.53-11.9,20.49-5.07,58.45-15.21,82.94-17.05,41.19-64.88,51.07-69.12,85.71-1.7,13.93,5.62,25.63-4.15,29.03-16.86,5.86-19.75-30.13-26.27-34.56,2.6-9.35-4.01-7.39-2.76-24.89,1.33-18.62,10.11-33.32,19.35-47,2.89-.79,3.95-3.43,8.29-2.76,4.26-15.4,21.94-24.87,20.74-44.24-1.19-19.21-23.14-38.07-13.82-62.21h0Zm5.53-550.18c.07,1.77,1.77,1.92,1.38,4.15,7.43,19.2-1.35,39.02,0,56.68,2.28,29.89,21.34,46.69,48.38,53.91,15.68,11.09,21.16,27.95,26.27,47,6.36-.09,11.01-1.89,15.21-4.15,1.93-18.41-1.77-29.99-11.06-41.47-17.71-21.9-55.74-21.51-63.59-48.38-4.88-16.69-.41-36.18-5.53-52.53-4.61-14.7-16.54-30.1-31.79-33.18,5.18,11.18,13.32,26.3,12.44,42.85-.81,15.3-7.74,28.02-8.29,44.24-1.92,55.62,55.95,51.6,56.68,106.44,12.29,1.23,15.96-6.16,22.12-11.06-2.66-21.75-12.67-41.5-31.79-49.77-3.07-1.33-8.78-.41-12.44-2.76-12.25-7.88-22.33-30.65-23.5-49.77-.53-8.64,3.51-18.17,4.15-29.03.83-14.19-7.73-26.69,0-34.56.85.08,1.64.21,1.39,1.38h-.03Zm250.21,67.74c-6.41,26.26,7.65,53.33,0,77.41-3.66,11.54-11.21,17.65-16.59,30.41,2.86,2.67,7.69,3.37,11.06,5.53,21.08-17.2,32.44-33.76,29.03-62.21-1.48-12.33-8.64-24.07-9.68-35.94-3.6-41.21,51.01-51.28,38.71-88.47-5.88,34.23-44.64,40.97-52.53,73.27h0Zm40.09-67.74c-4.57,12.93-19.44,14.32-30.41,20.74-14.55,8.5-35.01,26-37.32,48.38-1.26,12.18,5.6,22.25,6.91,37.32,1.24,14.25-4.11,20.94-6.91,33.18-7.18,7.57-20.2,9.3-23.5,20.74,21.62,19.01,39.27-8,42.85-26.27,4.76-24.32-8.02-53.97,1.38-76.03,13.77-32.31,41.94-29.29,51.15-58.06h-4.15Zm-182.47,153.44c5.56.73,19.23.69,26.27-1.38,1.13-46.87,1.46-102.76,1.38-149.3-.31-1.08-1.16-1.61-2.76-1.38-10.28,45.46-14.72,105.03-24.88,152.06h0Zm41.47-1.38c6.91,2.13,19.85,4.63,27.65,1.38-8.84-41.85-18.29-83.08-31.8-120.27-.55,40.66-1.64,86.18,4.15,118.88h0Zm-167.26,48.38c5.34-2.53,8.63,8.85,16.59,8.29,6.91-5.68,19.6-7.84,19.35-16.59-.37-13.19-34.5-17.26-38.71-30.41-30.2-8.51-47.47-29.94-74.65-41.47,20.39,31.26,58.43,52.12,77.41,80.18h0Zm279.24-6.91c15.91,23.61,24.97,9.15,41.47-6.91,8.84-8.61,20.97-16.15,27.65-23.5,4.51-4.97,5.63-11.64,9.68-15.21,3.15-2.78,7.75-3.39,9.67-5.53,3.77-4.2,4.99-11.29,8.3-15.21,2.69-3.19,8.73-1.47,5.53-6.91-32.17,26.35-69.95,47.07-102.3,73.27h0Zm-290.3,45.62c8.59-2.93,12.36-10.68,15.21-19.35-26.53-30.86-58.46-68.58-94-92.62,28.11,35.48,48.52,78.66,78.8,111.97h-.01Zm319.33-19.35c3.37,7.23,6.61,14.58,13.82,17.97,18.02-29.91,38.41-57.44,53.92-89.85-.16-1.69-.41-3.27-2.76-2.76-20.51,26.04-45.27,47.81-64.97,74.65h-.01Zm-42.85,286.15c14.32-11,32.87-25.59,42.85-38.71,7.91-10.39,20.98-32.74,23.5-44.23,2.1-9.56,3.74-11.46,5.53-16.59,5.7-16.3,2.68-33.64,8.29-51.15-4.12-91.45-66.36-175.09-154.83-188-9.22-1.34-19.2,2.14-27.65-5.53-7.63,5.56-18.97,2.75-29.03,4.15-54.06,7.51-105.32,39.24-128.56,76.03-14.99,23.72-32.23,52.13-35.94,82.94-5.17,42.86,3.06,74.84,17.97,116.12,27.19,41,59.34,77.05,111.97,92.62,3.11-.57-.21-7.58,4.15-6.91,5.1,2.61,13.13,4.07,17.97,0-5.77-6.69-27.15-5.09-24.88-15.21,9.56,7.95,28.3,6.73,38.71,13.82.59,3.82-5.15,1.3-5.53,4.15,7.5.33,9.77,5.9,11.06,12.44,56.62,3.4,95.82-13.97,124.41-35.94h.01Zm-297.21-225.33c-4.71-6.34-13.66-8.46-16.59-16.59-27.83-10.16-59.56,1.95-80.18-4.15-16.01-3.21-47.92-26.69-40.09-53.91-6.67-8.55-28.28-25.31-40.09-11.06,12.05,4.08,21.87,10.38,29.03,19.35,3.34,11.86,11.43,18.98,13.82,31.79,16.91,19.59,36.76,30.42,66.35,31.79,9.49.44,18.31-2.6,27.65-1.38,17.94,2.34,19.74,18.67,34.56,20.74,4.27-4.12,8.37-9.07,5.53-16.59h0Zm558.48-82.94c-.08-.84-.2-1.64-1.38-1.38-14.28,15.28-46.15,4.04-67.74,5.53-40,2.76-57.99,24.96-78.79,51.15-12.19,9.56-29.02,1.04-44.24,4.15-.71,11.38,2,13.44,6.91,20.74,19.28.23,35.75-1.77,48.38-11.06,10.19-22.3,28.3-47.66,58.06-52.53,8.67-1.42,20.2.33,30.41,0,5.95-.19,15.33-5.94,16.59,2.76-17.75,7.13-47.8,1.97-63.59,11.06-24.3,15.6-29.84,53.35-60.82,60.82-8.82,2.13-13.15-1.31-22.12,2.76-2.54,6.65,2.26,14.3,5.53,19.35,25.12-5.9,41.92-8.59,56.68-24.88,15.98-17.64,17.68-46.11,40.09-55.29,9.56-3.92,17.02-.47,29.03-1.38,22.46-1.71,44.63-12.23,48.38-33.18-.09.84-.2,1.64-1.38,1.38h0Zm-627.6,58.06c-.42-3.65,2.89-3.57,5.53-4.15,30.18-4.17,53.82,4.67,70.5,17.97,8.25-6.18,6.65-16.72,2.76-26.27-14.76-3.08-22.14-12.43-37.32-13.82-16.47-1.51-28.67,6.84-44.24,9.68-22.91,4.17-34.72-5.79-53.91-15.21,7.55,21.95,28.41,30.56,56.68,31.79h0Zm-49.77,95.38c-9.62,2.35-21.08-.97-27.65,9.68,44.92-1.47,95.35.11,132.71-6.91,5.64-6.81,3.86-21.02,4.15-33.18-40.35,3.86-73.8,21.74-109.21,30.41h0Zm505.95-27.65c-3.34,8.32.44,20.48,1.38,29.03,34.91,2.4,89.04,7,123.03,0-42.59-11.06-81.47-19.32-124.41-29.03h0Zm1.38,44.24c-3.35,6.36-6.72,15.2-4.14,23.5,20.29.27,24.64-6.85,44.23-6.91,20.46-10.41,53.36-8.38,71.88-20.74-35.16.03-76.2-2.53-111.97,4.15h0Zm-528.07,2.76c40.21,6.66,82.7,20.87,129.94,24.88,3.38-8.35-1.11-19.82-2.76-27.65-38.06-.63-87.94-5.13-127.18,2.76h0Zm82.94,45.62c-11.74,10.74-21.08,16.37-26.27,26.27-5.19,9.92-4,21.4-13.82,30.41-14.11,12.95-33.08,4.83-52.53,8.3-15.88,2.83-36.88,18.97-37.32,35.94,14.15-2.77,30.08-10.83,45.62-9.68,8.42.62,15.95,5.07,23.5,5.53,16.97,1.02,35.29-2.64,47-15.21,9.67-10.38,12.79-26.21,27.65-33.18,9.37-4.39,20.63-1.3,29.03-4.14,10.82-3.67,30.03-20.15,17.97-29.03-13.86,4.33-19.93,2-31.79,4.14-30.48,5.52-31.03,33.6-48.38,49.77-12.19,11.36-31.98,16.67-47,16.59-9.03-.05-18.47-5-30.41-2.76-6.98,1.31-13.98,10.97-20.74,5.53,5.69-18.12,32.75-8.79,49.77-9.67,15.73-.82,35.96-9.35,45.62-20.74,10.42-12.29,12.47-28.8,23.5-38.71,15.57-13.99,34.47-3.56,52.53-20.73-11.62-18.26-39.3-4.64-53.91,1.38h-.02Zm572.3,58.06c-9.05-8.76-21.05-19.96-37.32-23.5-21.9-4.77-53.05-.16-64.97-9.67-8.16-6.52-12.75-30.4-26.27-30.42-8.84,0-14.73,12.8-13.82,19.35,1.49,10.83,25.63,27.99,37.32,30.42,18.02,3.74,38.2-3.46,55.29-1.38,17.96,2.18,31.85,12.97,41.47,23.5,8.6,9.41,11.74,23.56,24.88,29.03-8.18-9.79-12.07-23.87-16.59-37.32h.01Zm-53.91-6.91c-15.36-.91-30.68,4.39-48.38,5.53-19.45-5.43-31.52-18.24-48.39-26.26-19.99,25.06,18.35,47.82,40.09,49.76,26.58,2.38,53.83-24.87,78.79-11.06,16.1,11.55,20.77,34.53,42.85,40.09-15.84-24.48-29-55.93-64.97-58.06h.01Zm-512.86,124.41c8.61-5.63,14.67-14.77,20.74-22.12,7.51-9.09,20.75-23.16,29.03-30.42,6.3-5.51,9.49-17.69,17.97-27.65,9.05-10.62,20.58-16.95,20.74-24.88.17-8.49-18.99-26.22-23.5-29.03-18.64,46.8-50.08,88.16-64.97,134.09h0Zm399.51-116.12c-8.36,4.08-12.12,12.76-16.59,20.73,12.09,13.75,27.12,26.94,40.09,38.71,10.03,9.09,13.88,18.73,22.12,27.65,8.31,9.01,20.3,17.12,30.42,22.12-24.51-37.24-47.84-75.63-76.03-109.21h0Zm-280.62,41.47c1.37-10.13-12.28-13-19.35-19.35-29.27,28.33-57.41,57.79-82.94,89.85,23.02-8.78,36.91-26.68,59.44-35.94,1.94-12.41,41.41-23.87,42.85-34.56Zm305.5,33.18c-15.53-13.92-53.41-67.21-70.5-29.03,38.19,24.48,71.66,53.68,114.74,73.26-9.36-15.38-25.08-27.07-44.24-44.24h0Zm163.12-20.74c7.84,1.33,19.49,3.25,20.74-5.53-6.11-.34-10.07-2.83-16.59-2.76.09,4.2-4.98,3.31-4.15,8.29h0Zm-447.89,60.82c-.42,3.19,3.99,1.54,4.15,4.14,6.81,52.53-32.53,75.2-52.53,111.97h-2.76c-1.94-26.33,26.22-34.1,35.94-55.29,3.46-7.53,8.96-22.78,9.68-29.03,1.93-16.77-6.83-33.4-4.15-51.15,2.38-15.78,11.78-23.01,15.21-38.7-8.01-15.21-23.67-3.31-31.79,4.14-19.45,31.43,10.34,53.5,8.29,81.56-3.02,41.33-70.45,63.22-40.09,113.35,4.76-3.54,3.9-12.69,8.29-16.59-1.69,7.87,7.4,7.74,9.68,4.15,1.49-7.02-5.32-5.74-8.29-8.29,9.62-22.86,31.04-26.95,44.24-40.09,18.03-17.96,21.13-41.13,22.12-70.5.43-12.84,3.26-23.47,6.91-34.56,6.81-5.63,15.73-9.16,19.35-17.97-7.36-3.23-12.53-8.67-23.5-8.29-13.77,10.19-20.27,27.65-20.74,51.15h0Zm181.09-53.91c-10.59,27.1,4.83,50.74,17.97,66.35,24.69,8.86,35.65,25.64,37.32,51.15.78,11.97-5.15,24.98-4.14,37.32.83,10.25,8.32,17.67,9.68,26.26-1.37,5.87-8.42-1.97-8.3,4.15,4.89,6.63,12.38,10.66,20.74,13.82-.1-14.22-10.64-27.63-9.67-47,.97-19.47,6.17-36.29,1.38-53.92-3.74-13.78-12-21.69-19.35-33.18-11.9-6.83-26.35-16.5-29.03-33.18-1.9-11.82,6.27-24.28,0-35.94-6.45-3.28-10.86,2.62-16.59,4.15h0v.02Zm-34.56,15.21c-4.83,35.48,10.92,61.3,37.32,70.5,4.16,1.45,10.68.42,15.2,2.76,11.01,5.71,17.77,21.75,19.36,34.56,2.31,18.64-7.87,43.23,9.67,51.15-9.42-14.18,2.16-29.85,2.76-44.24.89-20.87-9.88-34.57-17.97-49.77-10.48-3.8-17.46-11.11-27.65-15.2-13.24-14.27-17.65-37.18-22.12-56.68-6.65,1.15-12.5,3.17-16.59,6.91h.02Zm-80.18,1.38c9.44,41.25,15.02,98.34,31.79,136.85-6.04-42.53-1.68-95.74-9.68-134.09-7.06-.69-16.1-5.5-22.12-2.76h0Zm37.32,4.15c-.77,40.99-.02,83.24,0,125.8,8.78-10.57,8.25-30.46,11.06-47,8.66-15.76,12.69-36.15,13.82-59.44,3.31-5.79,7.32-15.5,4.14-23.5-10.6.46-21.86.26-29.03,4.15h.01Z" style="fill-rule:evenodd; stroke:#fff; stroke-miterlimit:10; stroke-width:3px;"/><path d="m615.13,368.6c-10.07.52-17.6-9.7-27.65-13.82-6.26-2.57-14.66-3.09-22.12-5.53-6.69-2.19-13.64-7.04-19.35-8.29-51.36-11.23-101.96,7.3-136.86,22.12-1.5-6.2,11.58-10.69,11.06-6.91,2-1.69,2.1-5.28,4.15-6.91,17.42-6.05,34.99-14.53,56.68-16.59,41.01-3.89,83.02,4.61,113.35,19.35,1.03,2.61,4.13.96,1.38,4.15,4.49-.8,6.43.94,9.68,1.38,1.44,5.47,9.24,4.58,9.68,11.06h0Z" style="fill:#fff; fill-rule:evenodd;"/><path d="m467.22,422.51c10.18-.88,11.19-10.92,19.35-13.82-1.95,13.52,8.35,28.19,8.29,38.71-.04,8.1-6.78,14.84-6.91,24.88-.24,18.51,9.55,35.52,4.15,52.53-2.04,6.42-7.15,8.5-6.91,13.82.98,22.08,45.52,26.99,49.77,4.15,1.66-8.94-5.25-15.64-6.91-26.27-1.58-10.14,3.46-23.7,2.76-38.71-.84-17.89-10.26-33.35-9.68-44.24.39-7.3,5-16.44,5.53-24.88,7.58,4.86,14.15,10.74,15.21,22.12,16.29-4.09,28.09-17.03,45.62-17.97,4.36-.24,9.57,4.49,13.82-1.38,25.38,6.75,51.74,10.03,63.59,30.41,3.3,5.66,1.84,14.57,8.29,19.35-.38,17.89-17.71,29.39-34.56,22.12-11.48,3.78-21.48,13.37-35.94,15.21-18,2.29-33.35-6.96-49.77-9.68-5.77-2.53-2.7-13.89-9.68-15.21-7.49,1.26-2.32,15.19-5.53,20.74-.03,4.64,5.48,3.74,8.3,5.53-2.59,17.23,24.7,27.25,27.65,41.47,4.09,19.74-14.17,30.69-30.42,17.97-13.83,14.28-39.07,22.36-58.06,6.91-18.6,8.32-32.85-4.76-34.56-16.59-3.07-21.24,23.19-28.61,23.5-45.62,2.61-2.74,6.53-.67,9.68,0,1.47-10.69-3.36-15.07-4.15-23.5-14.02,3.99-39.21,22.39-66.35,16.59-6.53-1.4-12.7-7.47-19.35-8.29-12.33-1.53-22.35,3.16-30.41,0-9.25-3.63-20.78-18.25-12.44-30.41,10.27,1.25,16.95,6.09,17.97,16.59,5.13-.86,8.1-3.89,12.44-5.53,6.17-23.66,33.3-31.02,55.29-34.56,3.26,2.84,11.03,6.61,13.82,5.53,5.4.33,5-5.13,6.91-8.29-2.91-6.91-12.03-2.72-16.59,0-6.06-4.54-8.29-5.63-17.97-2.76-2.12-6.72,4.01-5.2,4.15-9.68-13.28-6.33-15.36,12.33-27.65,4.15-5.47,3.61-7.51,9.45-15.21,4.15-5.49,8.47-16.13,18.7-23.5,20.74,2-32.87,39.4-34.39,69.12-42.85,4.65,1.34,8.05,3.93,11.06,6.91,4.8,1.11,5.31-2.06,9.68-1.38,3.89,5.36,12.04,6.39,16.59,11.06h0v-.02Zm125.8,13.82c3.34-3.75-1.51-7.68,0-13.82-15.49-6.51-10.4,13.19,0,13.82Zm9.68,0c10.62.38,21.05,9.81,29.03,20.74,2.85,3.9,4.19,10.51,6.91,12.44,8.71,6.17,24.66,4.82,26.27-5.53,2.17-14-18.38-13.95-15.2-27.65-4.65-.53,1.23,9.35-6.91,8.29-5.85-4.29-5.28-14.99-13.82-16.59-3.26.43-2.57,4.8-6.91,4.15-5.48-2.35-7.08-8.58-13.82-9.68.55,7-5.41,7.49-5.53,13.82h-.02Zm-142.38,8.29c3.61.39,5.94-.5,5.53-4.15-2.61.31-3.05-1.56-5.53-1.38v5.53Zm120.27,12.44c4.19-3.18,10.91-3.84,16.59-5.53-.35-8.29-19.44,2.02-16.59,5.53Zm-113.35-1.38c.77-2.56,10.24-3.44,5.53-6.91-.66,2.68-9.73,3.95-5.53,6.91Zm69.12-1.38c4.13.02,4.7,3.59,8.29,4.15.14-4.41-7.17-9.3-8.29-4.15Zm49.77,11.06c-12.87,25.66,40.22,24.05,26.26,2.76,1.71,8.16-10.85,17.28-19.35,8.29-1.46-11.83,4.41-13,9.68-15.21-5.73-3.63-12.27,1.96-16.59,4.15h0Zm-172.8-1.38c.58,2.8-7.18,14.58,1.38,16.59-1.41-14,21.51-22.46-1.38-16.59Zm22.12,13.82c1-4.23-2.38-4.07-1.38-8.29-4.13.02-4.7,3.59-8.29,4.15-1.14,12.99,10.41,9.6,15.21,13.82,1.73-3.89,5.66-4.57,9.68-2.76,3.83-2.95-2.56-7.53,2.76-8.29.22,1.62-.24,3.92,1.38,4.15-.67-4.35,4.25-3.13,2.76-8.29-8.38-15.9-10.66,19.64-22.12,5.53h0v-.02Zm129.94-2.76c1.28,3.79,4.36,5.78,8.29,6.91,3.01-2.89-.69-3.95,0-8.29-3.4-.17-6.65-.2-8.29,1.38h0Zm-103.68,60.82c-1.29,11.89,2.13,19.06,12.44,19.35-5.24-16.8,8.76-35.53,6.91-47-4.35,11.32-9.56,21.77-19.35,27.65Zm95.38,15.21c13.68-7.38-5.09-23.58-11.06-23.5,7.92,3.66-3.66,24.19,11.06,23.5Z" style="fill:#fff; fill-rule:evenodd;"/></svg>