<?xml version="1.0" encoding="UTF-8"?><svg id="a" xmlns="http://www.w3.org/2000/svg" width="1024" height="1024" viewBox="0 0 1024 1024"><path d="m853.11,154.99h-.05c-24.06-22.25-10.75.34-18.65-37.93-.51-2.5-1.17-4.96-1.58-7.48,4.38-.25,8.57,1.03,12.79,1.9,7.01,1.2,13.79,3.6,19.91,7.07h.05c9.91,5.42,19.75,12.34,27.9,21.24v.05c28.82,31.29,12.27,45.68,39.06,60.78,8.54,4.55,15.9,4.1,17.42,4.17.09.05.26.16.35.21h.19c.67,1.73-15.14,9.23-34.8,3.36-24.58-6.83-42.09-32.41-62.6-53.36Z" style="stroke:#fff; stroke-miterlimit:10; stroke-width:2px;"/><path d="m896.15,137.96c-1.4.09-2.51-.88-3.37-1.81-10.25-10.7-21.36-16.18-24.67-18.5,5.02-2.72,12.36.33,14.22.45,1.37.13,2.7-.32,4.05-.39-.05.8.16,1.58.09,2.38l.05-.21c.03.55.06,1.11.08,1.66,4.65.81-1.45-14.02,12.06-16.36,3.03-.66,6.31.07,8.81,1.81-.02,1.44-.06,2.89,0,4.34-.02.75,1.05,1.36,1.61.69,1.94-3.89-4.68-25.12,13.44-24.27,9.24.64,7.17-5.54,15.09-7.79,3.63-.91,7.62-.09,10.62,2.04.35.18.39.55.35.88-1.25.04-7.69-.73-10.11,5.2-2.43,6.14-5.92,11.51-12.95,10.23-.57-1.1-.95-2.29-1.6-3.35-.49-.19-1.17.04-1.39.49.01,2.74,1.2,5.3,1.35,8.03.5,16.3-3.88,15.22-16.32,15.26-2.62.19-10.09-.95-7.96,1.4,1.01.49,2.17.57,3.23.94,4.91.02,4.25,14.64-6.69,16.84v.06Z" style="stroke:#fff; stroke-miterlimit:10; stroke-width:2px;"/><path d="m862.87,93.95c1.49,6.84,1.38,16.61-1.06,20.74-3.38-1.24-6.74-2.55-10.15-3.74,1.49-6.11,5.69-15.9,9.71-20.75.8,1.11,1.15,2.45,1.5,3.74Z" style="stroke:#fff; stroke-miterlimit:10; stroke-width:2px;"/><path d="m760.68,844.74c-1.41-1.97-2.02-4.4-1.87-6.77.71-49.98-3.75-32.6,29.5-63.7h.06c23.59-22.55,62.81-60.89,62.81-60.89.97-.97,2-1.91,2.68-3.1,0,0-54-49.65-62.64-59.81,3.24-10.16,19.63-54.79,23.99-59.68l.11.05-.1-.06c2.39-2.84,3.74-6.33,5.69-9.4,16.9,36.88,56.99,75.51,78.73,102.84h.07c3.38,4.2,6.78,8.4,9.87,12.81h.06c.72,1.06,7.89,11.5,8.45,13.25l-.08.16.21.07c4.14,8.05-1.86,17.62-6.84,25.44-8.66,13.01-20.88,22.99-34,32.07h-.11c-12.4,8.99-36.49,20.92-62.4,40.89v.06c-4.52,3.6-20.35,17.35-22.38,19.17h-.09c-6.28,5.56-12.75,10.94-19.51,15.97h-.04c-.6.49-6.37,4.85-8.26,5.67-2.24-1.94-2.67-3.24-3.92-4.99v-.04Z" style="stroke:#fff; stroke-miterlimit:10; stroke-width:2px;"/><path d="m864.31,116.28c3.97-15.73-.28-30.08-2.98-30.27-5.52,6.37-10.8,20.58-11.07,21.16-.29,1.1-.47,2.42-1.61,3.04-8.22-1.89-6.4-.96-9.29-2.44,7.81-22.05,22.67-48.89,24.86-48.9,6.87,14.44,10.62,51.51,9.13,55.5-3,.67-6.02,1.28-9.03,1.91Z" style="stroke:#fff; stroke-miterlimit:10; stroke-width:2px;"/><path d="m816.9,582.23c.75.27.08,1.11-.04,1.6-.4-.49-.12-1.09.04-1.6Z" style="stroke:#fff; stroke-miterlimit:10; stroke-width:2px;"/><path d="m581.96,288.51c18.19,16.42,33.36,26.12,54.8,39.9v.04c6.67,4.27,13.31,8.59,19.88,13.02v.05c5.49,3.64,10.82,7.51,16.08,11.45v.06c15.53,11.41,19.73,16.73,22.57,19.72v.05c33.79,35.79,18.31,61.31-.3,68.33v.05c-9.83,3.38-13.82-1.68-16.7.7-1.65,1.23-1.18,3.08-3.62,9.51-5.52,14.43-15.89,24-18.49,25.75-.4.58-.65-.35-3.09-7.04l-.05.08c-5.02-12.32-12.77-23.5-21.82-33.46l-.25.03c-.02-.17-.08-.5-.1-.66,0,0-6.96-7.25-13.54-12.84h-.04c-31.09-26.46-79.63-42.01-88.51-83.63-5.86-31.68,21.82-53.64,46.53-53.01,1.31.02,2.68-.08,3.93.36,1.04.19,1.94.87,2.72,1.54Z" style="stroke:#fff; stroke-miterlimit:10; stroke-width:2px;"/><path d="m273.29,748.12c-2.51,11.08-8.39,21.28-15.75,29.84v.04c-1.46,1.72-2.97,3.42-4.58,5.03v.07c-4.88,4.78-10.24,9.53-16.14,13.31l-.02.06c-13,8.86-29.58,15.02-43.37,16.59l-.04.04c-26.54,3.44-49.71-4.91-65.62-18.71l-.04.02c-54.47-49.45-13.57-115.32,21.75-131.66,20.62-9.31,40.05-3.56,44.03-.95,4.54,2.81,15.85,24.32,13.58,40.63.13.84-.35,7.7-3.81,15.47l-.04-.03c-2.04,4.61-6.65,11.4-12.05,14.58l-.05-.02c-4.71,2.97-7.6,2.5-8.5,2.8-.16-.1-.34-.19-.53-.27,2.04-1.59,3.83-3.47,5.24-5.59l-.06-.05c5.24-7.99,3.65-19.17-5.13-25.55l.02-.05c-11.71-7.89-26.4-5.43-36.06,6.71h-.05c-12.42,17.7-7.49,38.96,4.56,55.19v.05c3.42,4.57,7.34,8.82,11.82,12.47v.05c7.61,6.26,15.81,10.76,26.13,12.47l-.04.03c11.6,2.09,21.79-.34,29.97-5.89h.05c6.67-4.49,12.03-10.59,16.02-17.36h.06c5.99-10.62,7.11-15.7,8.52-19.32-.25-.41-.16-.65.25-.71-.02-.14,1.71-7.33,1.74-7.46,3-15.26,2.51-22.19,2.83-24.24-.07-.99-.08-1.98-.01-2.96l.19.15c0-2.58-.02-5.15,0-7.72l-.24.02c.02-5.91-.55-12.74-.55-12.74-.27-.53-.25-1.19-.2-1.75-.37-1.85-.54-3.73-.72-5.6l-.07.18c-4.07-29.24-14.72-49.17-16.83-54.31.75.36,1.45.79,2.17,1.2,32.8,23.05,47.34,84.24,41.54,115.94Z" style="stroke:#fff; stroke-miterlimit:10; stroke-width:2px;"/><path d="m416.74,448.04c-5.27-10.32-11.52-18.09-14.56-21.97h-.06c-7.6-8.61-13.07-14.41-21.94-22.08h-.06c-9.48-8.15-17.92-13.39-22.99-16.58h-.06c-42.43-25.52-96.7-36.42-134.74-4.89v.05c-28.26,23.98-35.02,59.67-32.55,95.36l.05-.22c1.98,25.44,9.95,52.13,16.1,75.1l.05.03c2.2,8.13,4.56,16.23,6.65,24.37l.05-.1c10.35,37.95,11.64,41.4,11.66,43.85,0,0-12.83-19.62-24.6-35.7l-.06.02c-19.28-26.03-30.01-39-39.51-54.49v-.05c-36.6-57.75-31.63-119.91.56-163.66l.05.02c26.7-36.49,76.53-57.64,120.57-50.95l-.14.06c10.87.19,32.95,8.68,44.79,13.94v.08c10.47,4.59,27.6,13.5,40.34,22.23v.05c37.07,25.09,46.89,52.4,52.28,95.63-.12,1.08-1.72.9-1.86-.1Z" style="stroke:#fff; stroke-miterlimit:10; stroke-width:2px;"/><path d="m124.19,679.1c-47.2,52.02-22.2,116.31,30.26,132.55l-.05.05c40.36,12.57,84.39-4.39,108.85-37.12v-.08c17.97-23.86,15.32-49.76,8.45-78.64l-.04.08c-5.23-21.35-13.74-42.87-29.77-58.47h-.05c-17.57-17.15-7.07,12-38.18-101.26-13.51-49.96-22.7-103.76,11.5-143.86,19.46-22.18,47.88-29.97,77.34-26.13,2.56.27,5.1.68,7.64,1.11l-.03.04c18.34,3.02,38.98,11.8,57.09,22.72v.04c2.55,1.53,5.02,3.2,7.49,4.86v.06c11.78,7.95,19.68,15.55,27.38,22.99v.07c9.68,9.95,17.93,21.73,22.97,31.59-5.19,1.99-8.1,2.88-13.82,5.49v.05c-2.37,1.04-4.63,2.29-7,3.32-.22.23-.65.42-.93.1-7.32-4.56-12.06-6.49-17.95-8.73l-.1.03c-14.06-5.15-30.99-5.73-45.88-2.87l-.02.02c-20.75,3.71-36.69,14.77-49.49,29.62v.03c-33.59,40.05-24.96,88.61,4.53,134.31v.06c5.16,8.01,10.58,15.88,16.41,23.47v.05c21,25.62,8.17,107.44,1.36,122.85l.03.1c-19.84,48.27-33.94,72.84-84.98,93.53-25.71,9.99-149.41,2.28-144.85-127.76l.04.19c.89-17.5,4.58-34.83,10.36-51.45,1.12-3.29,13.8-13.27,16.74-15.29v-.02c27.95-20.35,64.42-25.4,88.65-1.65.89.85,1.92,1.72,2.35,2.87-5.01-.85-35.86-11.92-66.28,21.1Z" style="stroke:#fff; stroke-miterlimit:10; stroke-width:2px;"/><path d="m671.13,258.55v.05c3.24,2.08,6.42,4.26,9.68,6.33v.05c2.62,1.65,5.17,3.4,7.75,5.11v.04c2.76,1.77,5.42,3.7,8.11,5.57v.05c2.68,1.86,5.25,3.86,7.81,5.86v.04c4.82,3.59,12.31,10.51,17.42,16.58v.04c1.46,1.6,2.73,3.37,4.02,5.1v.04c2.46,3.37,4.6,6.94,6.51,10.62l-.03.08c7.88,14.14,6.56,30.78-1.11,34.09v.08c-1.75.8-3.73.84-5.63.95l.21.08c-.22.02-.66.05-.88.07-.02.71.92,14.25-3.09,23.71.07.58-3.76,10.85-9.74,17.74-2.24-3.17-5.86-11.19-15.6-20.36-.49-.48-1.05-.92-1.42-1.5-2.37-2.12-4.62-4.4-6.94-6.59h-.02c-7.64-6.77-19.27-14.93-28.08-21.31h-.13c-28.75-19.59-95.34-56.69-98.76-88.75l-.07.15c0-1.68-2.34-12.82,10.73-26.4h.06c2.39-2.66,5.07-5.06,7.72-7.47h.07c10.8-10,27.4-22.26,41.09-16.27,3.76,6.15,4.68,26.46,50.32,56.21Z" style="stroke:#fff; stroke-miterlimit:10; stroke-width:2px;"/><path d="m787.76,138.38l.04.03c-2.5.35-4.95.95-7.4,1.53v.04c-5.68,1.41-10.68,3.72-12.65,4.52v.05c-54.36,25.58-57.26,96.2-61.16,135.54,0,0-10.28-7.56-22.69-15.75v-.05c-6.11-3.92-12.12-7.98-18.15-12.02v-.04c-40.56-26.7-58.68-69.14-37.23-107.52l.07-.02c3.41-6.35,7.97-12.1,13.14-17.24l.05.03c27.19-26.91,69.02-28.88,82.42-26.59,10.67.42,27.16,3.83,41.71,10.24v.05c18.31,8.09,30.43,21.65,32.13,25.73-1.64,1.1-.96.16-10.28,1.47Z" style="stroke:#fff; stroke-miterlimit:10; stroke-width:2px;"/><path d="m568.83,392.7c3.32,2.1,6.58,4.29,9.93,6.36l-.02.04c3.06,1.91,6.07,3.89,9.09,5.86l.02.05c7.43,4.77,14.84,9.57,21.95,14.77v.05c11.44,8.44,21.45,19.31,28.81,29.67v.06c18.04,23.4,29.75,65.61.28,72.49v.04c-10.72,2.53-13.34-4.75-17.28-4-.32,1.06,3.94,37.48-27.06,61.98-.27.22-.75.68-.92.12,1.22-4.41,4.94-8.96,3.06-26.15l-.06.12c-2.1-12.88-7.28-21.96-15.02-32.63h-.07c-2.62-3.62-5.65-6.95-8.58-10.35h-.06c-5.49-6.31-11.52-11.96-13.58-14.2h-.05c-2.69-2.64-5.4-5.28-8.01-7.99h-.06c-2.51-2.45-4.98-4.93-7.45-7.41l-.06.02c-2.34-2.5-4.93-4.79-7.22-7.32-.6-.37-15.36-14.83-21.49-22.63h-.08c-45.7-53.79-5.86-95.36,27.02-78.98v.06c10.48,4.98,8.54,8.1,26.93,19.91v.05Z" style="stroke:#fff; stroke-miterlimit:10; stroke-width:2px;"/><path d="m850.77,710.48c-.57.58-85.63,85.49-90.06,84.04,5.82-72.19,28.79-142.85,30.42-140.73,25.96,25.73,40.01,38.64,59.64,56.69Z" style="stroke:#fff; stroke-miterlimit:10; stroke-width:2px;"/><path d="m814.14,587.16c.38-1.36,1.2-2.66,2.44-3.45l.07.34c-.58,1.19-1.17,2.53-2.51,3.11Z" style="stroke:#fff; stroke-miterlimit:10; stroke-width:2px;"/><path d="m335.77,667.98c-10.97-8.52-21.92-19.48-31.61-32.8l-.06.02c-9-11.99-20.85-29.32-27.56-42.3h-.05c-32.58-63.02-8.82-113.72,30.07-135.2h.08c15.52-8.75,32.52-11.35,50.6-9.52l-.03.08c14.97,1.43,28.49,7.86,33.96,11.91-.59.91-1.62,1.44-2.48,2.11-20.18,14.08-26.42,35.36-31.28,48.23-14.53,2.47-53.34,59.02,2.34,114.25-.31,4.13-4.87,49.54-5.38,54.3-2.76-.02-14.28-7.73-18.54-11.09h-.06Z" style="stroke:#fff; stroke-miterlimit:10; stroke-width:2px;"/><path d="m357.29,609.42c.52,2.83,2.15,9.17,2.45,11.9-1.64-.44-7.08-7.62-8-8.97h-.06c-1.38-1.93-2.78-3.85-4.02-5.86h-.05c-4.3-6.64-8.62-14.94-10.92-22.45l-.06-.05c-3.5-10.66-4.33-20.22-3.2-31.26l.07.18c.51-4.99,1.92-9.86,3.67-14.58h.05c1.03-2.75,2.31-5.4,3.72-7.99h.04c1-1.9,2.23-3.69,3.48-5.46l.03.03c2.55-3.62,8.12-9.45,12.2-11.5-1.05,7.51-11.63,37.56.6,96.01Z" style="stroke:#fff; stroke-miterlimit:10; stroke-width:2px;"/><path d="m320.57,790.04c-1.77,1.92-8.64,10.66-20.09,20.17-1.48,2.46-19.34,14.74-22.4,16.64v.05c-3.43,2.09-6.83,4.24-10.4,6.12l-.02.05c-4.84,2.73-9.85,5.21-14.99,7.37l-.02.06c-2.48,1.04-4.96,2.1-7.51,2.99v.05c-4.08,1.47-8.17,2.93-12.38,4.02.36-1.2,1.28-.96,9.08-5.39h.06c11.63-7.19,21.58-14.52,31.32-26.38h.06c3.86-4.83,7.53-9.8,10.71-15.05h.06c5.16-8.67,9.52-17.74,13.59-26.91h.05c6.82-16.24,9.63-23.18,10.97-31.35l.04.05c4.86-32.45,11.46-60.71-.02-96.55.13-.17.41-.51.54-.68,2.73,3.23,5.53,6.4,8.47,9.45v.05c.59.52,7.81,8.25,16.09,14.53v.05c5.88,4.25,9.65,7.17,20.11,12.44.18,1.01.27-1.35-3.07,32.75-2.6,31.34-14.06,56.95-30.25,75.38v.07Z" style="stroke:#fff; stroke-miterlimit:10; stroke-width:2px;"/><path d="m45.54,732.86l.06.16c6.51-25.14,27.97-53.37,33.46-57.67-.4,6.19-21.31,57.58.41,109.99h.05c9.15,21.81,23.92,38.75,42.94,50.65v.05c16.4,10.12,35.28,16.62,54.72,18.61l-.14.06c79.34,6.3,141.42-47.86,161.76-87.61l.04.03c6.89-14.51,7.3-19.62,8.73-20.13-.19,1.41-.22,2.85-.52,4.24.07.58-3.27,42.57-7.6,58.42l.03.11c-6.71,27.21-20.98,49.64-47.07,66.46v.04c-4.79,3.13-9.82,5.94-15.04,8.39v.06c-89.7,41.95-271.71-16.3-231.84-151.85Z" style="stroke:#fff; stroke-miterlimit:10; stroke-width:2px;"/><path d="m814.54,105.75c5.21,13.67,6.83,28.22,6.18,33.21-4.03-.44-8.04-1.12-12.08-1.54-1.86-7.31,1.56-28.73,5.24-32.86.27.37.52.76.66,1.19Z" style="stroke:#fff; stroke-miterlimit:10; stroke-width:2px;"/><path d="m461.45,952.15c4.78-.15,21.87.35,24.32-.42,4.16-1.35,1.92,7.29-3.81,8.02-2.57.69-8.86.68-9.46.66-.47.25-38.95,1.07-41.35.9-.33-.89-1.05-6.37-.07-11.18,2.35.03,16.18,2.16,30.38,2.03Z" style="stroke:#fff; stroke-miterlimit:10; stroke-width:2px;"/><path d="m707.45,635.06c2.82-.51,17.15-2.65,17.75-2.72l.18.1.09-.19c15.26-3.48,40.83-7.04,63.12-21.2v-.05c8.22-5.21,15.53-11.72,21.54-19.18.41-.42.85-1.01,1.51-.99-.32,2.72-57.94,120.29-55.04,254.82-.06,41.83,7.29,95.94,7.97,103.49l.09.03c0,.52,0,1.05,0,1.58-1.76,1.4-9.5,4.54-13.88,5.84l-.05.06c-2.22.62-4.43,1.32-6.71,1.75l-.03.04c-5.52,1.31-13.22,2.21-16.76,2.12v.12c-1.4-.05-8.7.25-13.49-.69l-.02-.07c-.22-.06-.65-.18-.86-.24-.09-14.87,2.82-41.78-1.22-106.11-1.97-33.94-2.82-45.64-2.87-48.48l-.15-.26c-.75-26.07-6.26-69.16-3.51-140.3.19-4.94,1.44-26.49,2.35-29.49Z" style="stroke:#fff; stroke-miterlimit:10; stroke-width:2px;"/><path d="m373.43,480.66h.04c9.43-13.7,23.9-23.17,40.53-28.13l.09.02c24.15-8.74,78.69-11.2,90.32-10.84,6.05,8.34,10.7,14.42,28.41,31.86v.07c10.58,10.58,20.99,21.34,31.46,32.03v.07c49.77,49.7,24.51,75.65,23.63,80.38,1.62.15,1.07.97,5.74-2.57l.03.02c20.68-15.6,29.6-36.99,30.31-62.17,25.3,10.97,41.12-12.29,32.87-39.33-.52-2.83,1.46-3.8,2.86-5.17,9.09-8.47,16.23-19.2,18.85-31.15.2-.73.47-1.6,1.28-1.91,3.67-.85,10.69,3.92,23.04-4.35,9.85-6.49,14.99-17.56,14.59-28.47-.4-12.52-5.53-15.85-3.38-19.01,17.83-27.38,11.7-35.92,13.51-40.8,2.93-.95,7.23-.34,10.68-7.81,3.21-6.99,1.25-16.8-1.22-24.03-5.82-16.24-17.49-27.48-28.26-37.1,1.76-47.4,10.65-105.21,51.9-131.4,27.6-17.43,55.53-10.06,61.39-9.51,3.9-4.58-4.85-41.76-8.57-41.37-1.74.93-8.01,16.56-7.65,33.07-.14,1.38.64,2.97-.36,4.17-4.36-.19-3.9.18-4.55-.62-4.39-5.73-4.68-5.69-4.82-7.11.41-19.41,8.59-64.17,12.12-73.55.65.71,1.1,1.54,1.52,2.39,15.22,30.97,24.11,52.77,26.44,87.17,22.04,8.21,43.41,56.13,81.13,65.51,2.3.53,1.78.51,18.21,20.73,1.97,2.47,4.06,4.87,5.98,7.37l.1.02c9.7,11.68,11.04,12.56,13.03,15.56h.07c2.2,3.14,4.36,6.49,5.07,10.26l.07-.09c.11,1.82,1.31,6.92-4.21,12.36-4.83,4.69-11.85,7.58-19.18,9.83v.04c-2.64.77-5.32,1.44-8,2.08l-.16-.04c-9.01,2.35-20.15-8.02-24.56-16.42l.02-.13c-1.12-2.09-3.73-8.67-3.2-10.72,1.37-1.28,3.09-2.21,4.36-3.6h.05c.01-.17.04-.53.06-.71-.09-.13-.26-.39-.35-.52-.67,0-1.49-.18-1.98.4-3.81,3.8-7.84,1.66-8.62,1.55-.89-.11-1.67,1.27-.73,1.74,1.5.69,3.13,1.08,4.67,1.67.62,3.76,2.08,8.35,3.74,11.5h.05c1.29,2.67,3.12,5.08,5.01,7.39h.07c3.06,3.48,6.88,6.36,11.1,8.48-.02.3-.03.6-.03.91-6.4.04-12.87.39-19.22-.51-.8.1-11.51-1.13-23.81-4.36l.04-.05c-13.43-2.46-42.92-16.35-46.68-16.8-6.38-1.05-12.09,5.81-14,10.22-4.99,10.16-4.12,20.26-3.97,26.11,3.52,118.34,42.35,186.68,15.27,254.85h-.05c-19.89,54.4-74.52,71.29-135.1,74.23l.17.04c-4.1.21-8.2.41-12.3.43l-.07.12c-45.83-.2-87.68-6.59-132.63-27.26-.84-.4-1.82-.7-2.74-.35-.05.19-.17.56-.22.74.19,15.8.79,1.35-.14,26.38-4.2,49.92-33.69,90.87-53.02,105.25-11.06,10.85-26.84,23.18-28.85,45.27l-.05-.03c-1.31,24.96,13.51,56,21.95,122.68l.04-.19c1.06,8.14,2.1,16.28,2.94,24.45l.09-.04c.51,6.26,1.73,13.65,1.63,17.13-4.97,1.68-30.28,1-34.54.73-10.27-.4-22.22-1.99-22.22-1.99,0,0-.48-13.11-3.38-52.73-8.2-88.61-25.85-143.46-27.18-150.11l-.1-.08c-22.4-79.86-74.6-193.25-26.37-264.18Z" style="stroke:#fff; stroke-miterlimit:10; stroke-width:2px;"/><path d="m764.87,953.5c.88,2.7.85,5.57,1.31,8.32-12.18,5.12-41.3,9.53-53.94,8.46.02-.7.27-6.62.86-7.97,17.05,1.07,30.14,1.03,51.77-8.81Z" style="stroke:#fff; stroke-miterlimit:10; stroke-width:2px;"/><path d="m490.53,948.82c.49-.1.96-.28,1.46-.26,2.37-.66.87.67,7.69-1.71v-.05c.78-.21,1.46-.67,2.23-.84,1.68-1.08,3.64-1.62,5.49-2.3.14.35.29.69.4,1.07h.06c.06.18.25.71.26.9,2.15,4.1-.51,5.77-7.94,7.86-.88.16-1.74.53-2.66.42-2.31.43-4.7.26-7.02-.03-.2-1.59-.42-3.19-.78-4.75.2-.07.6-.22.8-.29v-.02Z" style="stroke:#fff; stroke-miterlimit:10; stroke-width:2px;"/><path d="m759.65,847.12c.86,1.39,1.9,2.67,2.84,4.01-.89,1.12-1.85,2.51-3.48,2.57.11-4.59-.34-5.81.63-6.57Z" style="stroke:#fff; stroke-miterlimit:10; stroke-width:2px;"/><path d="m473.22,843.14l-.14.12c-9.12-41.04-20.58-61.5,5.05-89.36v-.04c2.83-3.16,6.02-5.99,9.01-9v-.07c6.97-6.62,14.07-13.15,20.29-20.43h.04c30.31-35.87,37.53-72.3,37.53-114.26,1.13.35,2.23.78,3.3,1.28,14.52,6.53,38.83,14.39,38.83,14.39-.92,4.16-1.68,8.36-3.01,12.43l.03.13c-11.57,39.05-41.04,69.52-63.37,95.87l.02.03c-5.7,6.74-11.19,13.62-16.76,20.46l.02.03c-22.18,27.37-20.46,31.15-16.49,47.72l-.02.24.12-.02c9.25,32.29,18.37,89.02,20.24,136.59-4.81,4.64-12.19,7.14-18.47,7.34,0,0-5.39-54.73-16.35-103.3l.13-.12Z" style="stroke:#fff; stroke-miterlimit:10; stroke-width:2px;"/><path d="m834.08,186.79c2.87,9.72,16.98,16.05,23.76,17.33,10.91,1.81,20.95-4.46,26.12,8.51.28.61.66,1.44,1.48,1.46,2.58-1.23.31-12.16-8.46-14.54-6.97-1.97-26.34,2.56-36.55-8.65-3.18-3.37-3.5-6.4-6.34-4.11Z" style="fill:#003; stroke:#000; stroke-miterlimit:10; stroke-width:2px;"/><path d="m834.08,186.79c2.87,9.72,16.98,16.05,23.76,17.33,10.91,1.81,20.95-4.46,26.12,8.51.28.61.66,1.44,1.48,1.46,2.58-1.23.31-12.16-8.46-14.54-6.97-1.97-26.34,2.56-36.55-8.65-3.18-3.37-3.5-6.4-6.34-4.11Z" style="fill:#003; stroke:#000; stroke-miterlimit:10; stroke-width:2px;"/></svg>