<?xml version="1.0" encoding="UTF-8"?><svg id="a" xmlns="http://www.w3.org/2000/svg" width="1024" height="1024" viewBox="0 0 1024 1024"><path d="m723.6,685.01c-.68,1.42-2.38,2.03-3.81,1.36-1.42-.68-2.03-2.38-1.36-3.8.68-1.43,2.38-2.04,3.81-1.36s2.03,2.38,1.36,3.8m-2.52-326.38c1.58,0,2.86,1.28,2.86,2.86s-1.28,2.86-2.86,2.86-2.86-1.28-2.86-2.86,1.28-2.86,2.86-2.86m-38.86-35.52c-4.22,0-7.64-3.42-7.64-7.64s3.42-7.64,7.64-7.64,7.64,3.42,7.64,7.64-3.42,7.64-7.64,7.64m-7.64,40.98c-1.92,0-3.47-1.55-3.47-3.47s1.55-3.47,3.47-3.47,3.47,1.56,3.47,3.47-1.56,3.47-3.47,3.47m-4.64,338.22c-1.42,3-5.01,4.28-8.01,2.86-3-1.42-4.28-5.01-2.86-8.01,1.42-3,5.01-4.28,8.01-2.86,3,1.42,4.28,5.01,2.86,8.01m-24.04,52.64c-.68,1.43-2.38,2.04-3.81,1.36-1.43-.67-2.04-2.38-1.36-3.81s2.38-2.04,3.81-1.36,2.04,2.38,1.36,3.81m-9.17-472.85c-2.72,0-4.93-2.21-4.93-4.93s2.21-4.93,4.93-4.93,4.93,2.21,4.93,4.93-2.21,4.93-4.93,4.93m-5.91,99.01c-3.26,0-5.91-2.64-5.91-5.9s2.64-5.91,5.91-5.91,5.91,2.64,5.91,5.91-2.64,5.9-5.91,5.9m-11.81-50.39c-4.21,0-7.62-3.41-7.62-7.62s3.41-7.62,7.62-7.62,7.62,3.41,7.62,7.62-3.41,7.62-7.62,7.62m-.67,362.19c-2.13,4.51-7.52,6.43-12.03,4.3-4.5-2.14-6.43-7.52-4.3-12.03,2.14-4.51,7.52-6.43,12.03-4.3,4.51,2.14,6.43,7.52,4.3,12.03m-13.11,90.11c-.67,1.42-2.38,2.03-3.8,1.36-1.43-.68-2.04-2.38-1.36-3.81s2.38-2.04,3.81-1.36c1.42.68,2.03,2.38,1.36,3.81m-14.68-492.6c-2.72,0-4.93-2.21-4.93-4.93s2.21-4.93,4.93-4.93,4.93,2.21,4.93,4.93-2.21,4.93-4.93,4.93m-6.33,451.45c-1.42,3-5.01,4.28-8.01,2.86-3-1.42-4.28-5.01-2.86-8.01,1.42-3,5.01-4.28,8.01-2.86,3,1.42,4.29,5.01,2.86,8.01m-22.87-372.23c0-4.99,4.04-9.03,9.03-9.03s9.03,4.04,9.03,9.03-4.04,9.03-9.03,9.03-9.03-4.04-9.03-9.03m-2.86-37.59c0-1.58,1.28-2.86,2.86-2.86s2.86,1.28,2.86,2.86-1.28,2.86-2.86,2.86-2.86-1.28-2.86-2.86m-.26,323.96c-.67,1.43-2.38,2.04-3.8,1.36-1.43-.68-2.04-2.38-1.36-3.81s2.38-2.03,3.8-1.36c1.43.68,2.04,2.38,1.36,3.81m-12.65,147.99c-1.46,3.09-5.15,4.41-8.24,2.95-3.09-1.46-4.41-5.16-2.94-8.25,1.46-3.09,5.15-4.41,8.24-2.95,3.09,1.47,4.41,5.16,2.94,8.25m-18.33-99.1c2.13-4.51,7.52-6.43,12.02-4.29,4.51,2.13,6.43,7.52,4.3,12.03s-7.52,6.43-12.03,4.3-6.43-7.52-4.3-12.03m2.82,42.93c-.68,1.42-2.38,2.03-3.81,1.36-1.43-.68-2.03-2.38-1.36-3.8.68-1.43,2.38-2.03,3.81-1.36,1.43.68,2.04,2.38,1.36,3.81m-14.56-370.02c-4.51,0-8.16-3.66-8.16-8.16s3.66-8.16,8.16-8.16,8.16,3.65,8.16,8.16-3.65,8.16-8.16,8.16m-13.39,260.06c-1.4,2.95-4.92,4.2-7.87,2.81-2.95-1.4-4.21-4.92-2.81-7.86,1.4-2.95,4.92-4.21,7.86-2.81,2.94,1.4,4.21,4.92,2.81,7.86m-13.61,42.53c-1.4,2.95-4.92,4.21-7.86,2.81-2.95-1.39-4.21-4.91-2.81-7.86,1.4-2.94,4.92-4.2,7.87-2.81,2.95,1.4,4.21,4.92,2.81,7.87m-2,107.53c-1.16,2.46-4.1,3.51-6.56,2.34s-3.51-4.1-2.35-6.56c1.17-2.46,4.11-3.51,6.57-2.34,2.46,1.16,3.51,4.1,2.34,6.56m-8.65,35.77c-1.47,3.1-5.17,4.42-8.27,2.95-3.1-1.47-4.42-5.17-2.95-8.27,1.47-3.1,5.17-4.42,8.27-2.95,3.1,1.47,4.42,5.17,2.95,8.27m-12.54-96.64c1.63-3.44,5.73-4.9,9.17-3.28,3.44,1.63,4.9,5.73,3.27,9.17-1.62,3.44-5.73,4.9-9.17,3.28-3.43-1.63-4.9-5.73-3.27-9.17m-10.54-409.12c0-4.22,3.42-7.64,7.65-7.64s7.64,3.42,7.64,7.64-3.42,7.64-7.64,7.64-7.65-3.42-7.65-7.64m0,48.63c-1.91,0-3.47-1.56-3.47-3.47s1.56-3.47,3.47-3.47,3.47,1.55,3.47,3.47-1.55,3.47-3.47,3.47m-14.27,307.23c-.82,1.73-2.89,2.48-4.62,1.65-1.73-.82-2.48-2.89-1.65-4.63.82-1.73,2.89-2.48,4.62-1.65,1.74.82,2.48,2.89,1.65,4.63m-12.75-443.83c-2.72,0-4.93-2.21-4.93-4.93s2.21-4.93,4.93-4.93,4.93,2.21,4.93,4.93-2.21,4.93-4.93,4.93m0,47.17c-2.72,0-4.93-2.21-4.93-4.93s2.21-4.93,4.93-4.93,4.93,2.21,4.93,4.93-2.21,4.93-4.93,4.93m3.28,354.32c-.82,1.73-2.89,2.48-4.63,1.65-1.74-.82-2.48-2.89-1.65-4.62.82-1.73,2.89-2.48,4.62-1.65,1.73.82,2.47,2.89,1.65,4.63m-3.67,136.65c-1.17,2.46-4.11,3.51-6.56,2.34-2.46-1.16-3.51-4.1-2.35-6.56,1.17-2.46,4.1-3.51,6.56-2.34s3.51,4.1,2.35,6.56m-19.49-51.36c-3.81-1.81-5.44-6.36-3.63-10.18,1.8-3.81,6.36-5.44,10.18-3.63,3.81,1.81,5.44,6.36,3.64,10.18-1.81,3.82-6.36,5.45-10.18,3.64m-.7,93.99c-1.17,2.46-4.1,3.51-6.56,2.35-2.46-1.17-3.51-4.11-2.34-6.56,1.16-2.46,4.1-3.51,6.56-2.34,2.46,1.16,3.51,4.1,2.35,6.56m-14.84-485.17c0-3.8,3.08-6.88,6.89-6.88s6.88,3.08,6.88,6.88-3.08,6.88-6.88,6.88-6.89-3.08-6.89-6.88m.34,318.33c-1.93,4.07-6.8,5.81-10.87,3.88s-5.81-6.79-3.88-10.87c1.93-4.07,6.8-5.81,10.87-3.89,4.07,1.93,5.81,6.8,3.89,10.87m-7.41,120.6c-1.81,3.81-6.36,5.44-10.18,3.64-3.82-1.81-5.44-6.36-3.64-10.18,1.81-3.81,6.36-5.44,10.18-3.63,3.81,1.81,5.44,6.36,3.64,10.17m-19.43-479.94c-2.72,0-4.93-2.21-4.93-4.93s2.21-4.93,4.93-4.93,4.93,2.21,4.93,4.93-2.21,4.93-4.93,4.93m-12.42-40.96c0-3.43,2.78-6.21,6.21-6.21s6.21,2.78,6.21,6.21-2.78,6.21-6.21,6.21-6.21-2.78-6.21-6.21m-2.82,137.54c-4.99,0-9.03-4.04-9.03-9.03s4.04-9.03,9.03-9.03,9.03,4.04,9.03,9.03-4.04,9.03-9.03,9.03m1.1,328.66c-2.47,5.21-8.69,7.44-13.91,4.97-5.21-2.47-7.44-8.69-4.97-13.91,2.47-5.21,8.69-7.44,13.91-4.97,5.21,2.47,7.44,8.69,4.97,13.91m.38,80.29c-.82,1.73-2.89,2.48-4.63,1.65-1.73-.82-2.48-2.89-1.65-4.62.82-1.73,2.89-2.48,4.63-1.65,1.73.82,2.47,2.89,1.65,4.63m-21.72-134.11c-.68,1.43-2.38,2.04-3.8,1.36-1.43-.68-2.04-2.38-1.36-3.81.68-1.43,2.38-2.03,3.8-1.36,1.43.68,2.04,2.38,1.36,3.81m-8.31,103.54c-1.16,2.46-4.1,3.51-6.56,2.34-2.46-1.16-3.51-4.1-2.35-6.56,1.17-2.46,4.1-3.51,6.56-2.34,2.46,1.16,3.51,4.1,2.34,6.56m-15.22-462.93c-3.42,0-6.19-2.77-6.19-6.19s2.77-6.19,6.19-6.19,6.19,2.77,6.19,6.19-2.77,6.19-6.19,6.19m-8.51,72.5c-3.32,0-6.02-2.69-6.02-6.01s2.7-6.01,6.02-6.01,6.01,2.69,6.01,6.01-2.69,6.01-6.01,6.01m-6.86,61.87c-4.99,0-9.03-4.04-9.03-9.03s4.04-9.03,9.03-9.03,9.03,4.04,9.03,9.03-4.04,9.03-9.03,9.03m-2.67,157.59c-1.39,2.95-4.92,4.21-7.87,2.81-2.95-1.4-4.21-4.91-2.81-7.86s4.92-4.21,7.86-2.81c2.95,1.4,4.21,4.92,2.81,7.87m-2.88,97.89c-1.17,2.46-4.1,3.51-6.56,2.34s-3.51-4.1-2.34-6.56c1.16-2.46,4.1-3.51,6.56-2.34,2.46,1.16,3.51,4.1,2.34,6.56m-7.77,45.42c-1.47,3.1-5.17,4.42-8.27,2.95-3.1-1.47-4.42-5.17-2.95-8.27,1.47-3.1,5.17-4.42,8.27-2.95,3.1,1.47,4.42,5.17,2.95,8.27m-13.2-96.95c1.8-3.8,6.34-5.43,10.14-3.63,3.8,1.8,5.43,6.35,3.63,10.15-1.8,3.8-6.35,5.43-10.15,3.63s-5.43-6.35-3.62-10.15m-6.38-297.17c-1.58,0-2.86-1.28-2.86-2.86s1.28-2.86,2.86-2.86,2.86,1.28,2.86,2.86-1.28,2.86-2.86,2.86m68.97,275.31c2.14-4.51,7.52-6.43,12.03-4.3,4.5,2.13,6.43,7.52,4.29,12.03-2.14,4.51-7.52,6.43-12.03,4.29-4.51-2.13-6.43-7.52-4.3-12.02m14.03-281.39c1.58,0,2.86,1.28,2.86,2.86s-1.28,2.86-2.86,2.86-2.86-1.28-2.86-2.86,1.28-2.86,2.86-2.86m69.47,40.1c3.26,0,5.91,2.64,5.91,5.9s-2.65,5.91-5.91,5.91-5.9-2.64-5.9-5.91,2.64-5.9,5.9-5.9m11.81,50.17c0,3.26-2.64,5.91-5.9,5.91s-5.91-2.64-5.91-5.91,2.64-5.9,5.91-5.9,5.9,2.64,5.9,5.9m47.24-172.13c4.22,0,7.64,3.42,7.64,7.64s-3.42,7.64-7.64,7.64-7.64-3.42-7.64-7.64,3.42-7.64,7.64-7.64m11.4,144c1.92,0,3.47,1.55,3.47,3.47s-1.55,3.47-3.47,3.47-3.47-1.56-3.47-3.47,1.55-3.47,3.47-3.47m3.47-177.17c1.92,0,3.47,1.56,3.47,3.47s-1.55,3.47-3.47,3.47-3.47-1.56-3.47-3.47,1.56-3.47,3.47-3.47m41.68,65.43c5.76,0,10.44,4.68,10.44,10.44s-4.68,10.44-10.44,10.44-10.44-4.67-10.44-10.44,4.67-10.44,10.44-10.44m0-52.1c2.72,0,4.93,2.21,4.93,4.93s-2.21,4.93-4.93,4.93-4.93-2.21-4.93-4.93,2.21-4.93,4.93-4.93m52.79,4.93c3.43,0,6.21,2.78,6.21,6.21s-2.78,6.21-6.21,6.21-6.21-2.78-6.21-6.21,2.78-6.21,6.21-6.21m-338.63,347.07c-.82,1.74-2.89,2.48-4.62,1.65-1.74-.82-2.48-2.89-1.65-4.62.82-1.73,2.89-2.48,4.63-1.65,1.73.82,2.47,2.89,1.65,4.62m-.18,92.24c-1.16,2.46-4.1,3.51-6.56,2.34-2.46-1.16-3.51-4.1-2.34-6.56,1.16-2.46,4.1-3.51,6.56-2.34,2.46,1.17,3.51,4.1,2.34,6.56m-11.76-143.35c1.4-2.95,4.92-4.21,7.86-2.81,2.95,1.4,4.2,4.92,2.81,7.86-1.4,2.95-4.92,4.21-7.86,2.81-2.95-1.4-4.21-4.92-2.81-7.86m-10.52,90.42c-1.81,3.81-6.36,5.44-10.18,3.64-3.81-1.81-5.44-6.36-3.64-10.18,1.81-3.81,6.36-5.44,10.18-3.63,3.81,1.81,5.44,6.36,3.64,10.17m-19.75-60.27c-.68,1.43-2.38,2.03-3.8,1.36-1.43-.68-2.04-2.38-1.36-3.81s2.38-2.04,3.81-1.36,2.04,2.38,1.36,3.81m-6.93-61.23c-1.73-.82-2.47-2.89-1.65-4.63.82-1.73,2.89-2.47,4.63-1.65,1.73.82,2.47,2.89,1.65,4.62-.82,1.73-2.89,2.47-4.63,1.65m42.17-124.98c1.58,0,2.86,1.28,2.86,2.86s-1.28,2.86-2.86,2.86-2.86-1.28-2.86-2.86,1.28-2.86,2.86-2.86m242.79-184.04c-177.25,0-320.94,143.69-320.94,320.94s143.69,320.94,320.94,320.94,320.94-143.69,320.94-320.94-143.69-320.94-320.94-320.94"/><path d="m387.28,407.02c31.3,13.32,63.78,23.67,96.6,32.39,32.85,8.71,66.08,15.73,99.35,22.24,66.54,12.83,133.7,23.41,197.94,44.69,32.03,10.62,63.21,24.28,91.62,42.58,14.25,9.06,27.8,19.24,40.42,30.49,12.62,11.27,24.33,23.56,35.01,36.72-20.5-27.03-45.82-50.37-74.12-69.23-28.36-18.86-59.62-33.02-91.72-44.15-32.13-11.23-65.25-19.2-98.41-26.31-33.21-7.05-66.58-13.11-99.81-19.62-33.27-6.37-66.43-13.21-99.16-21.75-32.74-8.49-64.98-18.87-96.29-31.55-31.3-12.72-61.52-28.16-89.96-46.48-28.55-18.16-54.99-39.52-79.54-62.89,23.77,24.16,49.99,45.99,78.22,64.9,28.3,18.81,58.51,34.72,89.82,47.95m275.73,239.09c4.22-7.35,8.09-15.09,9.66-23.44-1.28,4.04-3.09,7.83-5.01,11.53-2.03,3.66-4.23,7.22-6.67,10.62-4.76,6.87-10.13,13.29-15.8,19.39-11.42,12.17-24.15,23.09-38,32.3-6.89,4.65-14.09,8.85-21.54,12.52-7.42,3.74-15.16,6.82-23.1,9.28-15.86,4.82-32.71,6.87-49.5,4.8,8.2,2.05,16.74,2.73,25.25,2.59,8.52-.26,17.03-1.53,25.3-3.69,16.61-4.25,32.12-12,46.33-21.39,14.15-9.54,27.06-20.9,38.12-33.85,5.55-6.45,10.61-13.34,14.97-20.65m67.44-51.32c3.74,1.62,8.1-.09,9.72-3.84s-.09-8.1-3.84-9.72-8.1.09-9.72,3.84.09,8.1,3.84,9.72m-.98,2.27c-1.92-.83-3.42-2.21-4.45-3.86.52,1.66,1.47,3.15,2.71,4.37,1.58,1.61,3.64,2.78,5.85,3.65,2.23.86,4.62,1.39,7.14,1.82-2.49.6-5.14.61-7.71.02-2.57-.58-5.07-1.81-7.04-3.75-1.93-1.95-3.27-4.67-3.22-7.44,0-1.41.28-2.76.77-4.01.02-1.26.28-2.54.81-3.76,2.06-4.74,7.41-7,12.22-5.36-.31-.24-.62-.46-.94-.68-1.69-1.16-3.61-1.93-5.65-2.34-2.04-.4-4.18-.4-6.47-.23,1.97-1.14,4.31-1.76,6.7-1.68,2.39.05,4.77.87,6.79,2.19,2,1.36,3.68,3.19,4.71,5.36.47.99.79,2.1.92,3.21.87,2.31.89,4.94-.17,7.38-2.17,4.99-7.99,7.29-12.98,5.12m206.18,44.33c-17.59-8.69-36.15-15.31-55.03-20.55-18.95-5.03-38.24-8.7-57.69-10.97-19.45-2.24-39.05-3.33-58.59-2.54,9.77.12,19.53.54,29.26,1.33,9.73.72,19.43,1.74,29.1,3.08,19.31,2.66,38.51,6.27,57.28,11.47,18.82,5.02,37.22,11.59,54.84,19.88,8.8,4.17,17.37,8.82,25.62,14.02,8.28,5.13,16.19,10.88,23.7,17.12-7.15-6.66-14.95-12.64-23.05-18.14-8.15-5.43-16.68-10.31-25.44-14.72m-175.29,34.5c-30.87-3.27-61.69-7.72-92.21-13.69-2.46,3.61-5.14,7.35-8.04,11.12,31.41,7.45,63.27,12.99,95.31,17.15,69.96,8.87,140.87,10.24,211.32,4.93,2.94-1.49,5.71-2.88,8.29-4.14-34.15-3.84-68.5-5.2-102.82-7.01-37.31-2-74.63-4.41-111.84-8.35m-11.23,55.63c-38.35-5.06-76.11-14.04-112.96-25.7-1.74-.55-3.45-1.14-5.18-1.71-3.29,2.77-6.71,5.44-10.26,7.98,10.62,4.32,21.45,8.53,32.53,12.55,95.73,34.67,173,25.4,230.27,7.06-6.21,1-12.46,1.86-18.72,2.59-38.49,3.91-77.41,2.37-115.7-2.77m-308.59-153.52c-7.96-4.95-16.15-9.55-23.76-15.03l-11.6-7.95c-3.86-2.66-7.78-5.24-11.43-8.18-7.41-5.74-14.9-11.38-22.24-17.21l-21.2-18.46c-27.63-25.34-52.78-53.26-75.54-82.97l-16.34-22.82c-2.8-3.73-5.25-7.71-7.74-11.65-4.41-5.29-8.82-10.73-13.23-16.29,11.29,18.13,23.26,35.82,36.16,52.84,22.95,29.75,48.19,57.69,75.77,83.14,27.53,25.51,57.5,48.33,89.18,68.38,31.68,20.07,65.1,37.36,99.68,51.87,16.33,6.93,32.94,13.22,49.75,18.94,3.58-2.44,7.09-4.77,10.51-6.98-19.17-5.46-38.15-11.65-56.85-18.68-35.03-13.34-68.98-29.6-101.12-48.91m314.42,116.24c-32.89-3.82-65.62-9.47-97.88-17.06-2.77,3.45-5.73,6.91-8.85,10.33,33.95,9.5,68.55,16.7,103.49,21.49,37.58,5.15,75.58,7.41,113.52,6.16,27.96-1.14,56.06-4,83.33-10.51,6.29-3.15,12.04-6.11,17.25-8.76-32.54,3.27-65.27,4.73-98.01,4.91-37.69-.12-75.37-2.23-112.84-6.56m153.05,19.25l-14.18,1.69c-2.37.26-4.73.62-7.1.8l-7.12.54c-4.75.35-9.49.75-14.26,1.04-38.08,1.75-76.3-.1-114.13-4.82-35.96-4.43-71.53-11.85-106.44-21.57-3.12,3.25-6.42,6.43-9.86,9.52,37.41,12.19,75.78,21.39,114.72,27.08,38.01,5.55,76.65,7.51,114.95,4.12,10.28-.98,20.55-2.31,30.72-4.16,19.18-6.85,35.88-14.53,50.01-21.5-7.68,1.9-15.44,3.51-23.22,4.93l-14.1,2.34v-.02Zm-220.61-88.74c.14.15.13.59-.02,1.29,29.39,3.73,58.91,6.56,88.43,9.7,36.92,3.91,73.95,7.82,110.47,15.04,18.24,3.7,36.33,8.19,53.93,14.27,8.82,2.97,17.46,6.43,25.94,10.25,5.17,2.34,10.22,4.93,15.2,7.66-165.34-129.11-390.2-11.81-620.59-183.4l.09.06c28.6,23.46,59.49,44.13,92.43,60.95,32.89,16.9,67.67,30.02,103.28,40,28.19,8.03,56.93,14.1,85.89,18.92,21.75-10.13,44.09,1.47,44.98,5.26m-51.51-1.68c-27.16-4.56-54.15-10.28-80.7-17.76-35.84-10.19-70.87-23.57-103.98-40.75-33.12-17.15-64.36-37.93-92.8-62.03-14.23-12.03-27.72-24.91-40.63-38.34-.12-.13-.25-.26-.37-.39-5.81-5.28-11.6-10.75-17.42-16.43,17.65,20.01,36.48,38.98,56.65,56.44,28.24,24.03,58.73,45.34,91.14,63.29,32.38,17.98,66.59,32.62,101.77,44.22,23.69,7.92,47.83,14.46,72.23,19.96,5.47-3.22,10.24-5.96,14.1-8.19m-19.93,11.66c-22.92-5.21-45.62-11.37-67.96-18.75-35.4-11.82-69.82-26.72-102.4-44.98-32.55-18.28-63.39-39.7-91.43-64.34-27.93-24.79-53.25-52.35-76.2-81.69l-.87-1.18c-5.13-5.54-10.26-11.24-15.39-17.12l14.97,20.07c23.08,29.29,48.4,56.79,76.16,81.62l21.29,18.09,22.15,16.98c3.64,2.91,7.53,5.46,11.37,8.08l11.55,7.85c7.57,5.43,15.72,9.94,23.64,14.84,31.97,19.04,65.73,35.04,100.56,48.15,19.81,7.54,39.97,14.13,60.39,19.91,4.27-2.7,8.34-5.2,12.16-7.5m-269.62-115.73l10.41,9.69,5.21,4.84c1.72,1.61,3.6,3.07,5.4,4.61,7.27,6.08,14.45,12.28,21.76,18.31l22.59,17.27c1.86,1.47,3.79,2.85,5.76,4.16l5.85,4.04,11.69,8.08c31.5,21.08,64.71,39.59,99.14,55.43,13.11,6.09,26.39,11.79,39.84,17.11,3.09-2.28,6.17-4.49,9.21-6.63-15.8-5.4-31.42-11.28-46.84-17.74-34.77-14.74-68.36-32.29-100.18-52.63-31.78-20.37-62.04-43.28-89.33-69.39-27.43-25.94-52.5-54.3-75.13-84.46-14.3-19.75-27.5-40.22-39.71-61.27-1.38-1.77-2.76-3.54-4.12-5.35.86,2.76,2.12,6.1,3.76,9.95,12.11,20.29,25.11,40.02,39.16,59.02,22.69,30.44,48.09,58.81,75.54,84.94m532,149.31c-36.92-4.23-74.01-6.99-111.06-10.63-29.86-2.84-59.68-6.44-89.36-11.15-2.05,3.63-4.43,7.58-7.12,11.71,29.77,5.87,59.83,10.28,89.99,13.9,37.06,4.38,74.3,7.22,111.57,9.7,18.64,1.32,37.27,2.59,55.9,4.11,15.77,1.33,31.53,2.89,47.2,5.11,2.11-1.02,4.09-1.95,5.96-2.76-15.69-5.15-31.74-8.97-47.93-12.14-18.3-3.19-36.68-5.94-55.17-7.85m7.5-15.16c-36.47-6.7-73.44-10.18-110.39-13.64-29.84-2.69-59.7-5.54-89.48-9.23-1.22,3.05-3.17,7.24-5.8,12.17,29.03,4.67,58.25,8.19,87.51,11.45,36.94,4.1,74.02,7.27,110.96,12,18.48,2.27,36.85,5.4,55.12,8.96,16.22,3.47,32.3,7.72,47.89,13.32,1.45-.63,2.83-1.21,4.14-1.7-1.11-.91-2.23-1.78-3.34-2.66-30.19-15.61-63.3-24.68-96.61-30.68m-328.69,22.55c-9.55-4.26-19.02-8.71-28.38-13.35-42.13-21.19-82.36-46.24-119.81-74.91,40.19,32.58,87.57,64.57,142.67,92.93,1.83-1.58,3.68-3.12,5.53-4.65m-26.19-17.76c10.01,5.01,20.15,9.78,30.38,14.35,2.73-2.19,5.46-4.32,8.19-6.39-12.62-4.99-25.11-10.31-37.44-15.98-34.6-16.08-67.95-34.85-99.58-56.18l-11.74-8.18-5.87-4.08c-1.97-1.34-3.91-2.73-5.77-4.22l-22.66-17.47c-7.33-6.11-14.55-12.34-21.79-18.54-1.79-1.58-3.66-3.06-5.38-4.71l-5.18-4.93-10.36-9.86c-27.29-26.62-52.5-55.4-74.87-86.25-11.53-16.3-22.36-33.08-32.49-50.24,7.9,15.98,20.67,37.53,38.67,62.39,9.21,12.25,18.85,24.17,28.89,35.74,12.61,14.51,25.77,28.55,39.55,41.96,27.65,26.69,57.1,51.56,88.57,73.63,31.42,22.13,64.49,41.91,98.91,58.99m-203.03-297.26c.74-.52,1.48-1.07,2.23-1.65-33.72-16.69-65.49-37-94.34-62.37-7.1-6.24-16.89-13.84-27.82-21.57-24.3-17.18-54.27-35.02-73.14-40.21,28.61,10.09,77.93,44.65,99.99,64.03,28.5,25.07,59.85,45.19,93.09,61.76m88.41,32.84c1.45,1.44,2.75,2.74,3.82,3.8,230.88,72.94,506.38,49.01,577.86,293.74.46-.29.93-.57,1.4-.88-71.33-247.93-350.8-221.7-583.07-296.67m257.15,349.36c1.3.37,2.59.72,3.87,1.09-5.61,4.54-11.66,8.56-18.16,11.74-10.56,5.26-22.37,8.22-34.06,7.83,11.65-.95,22.77-4.7,32.84-10.19,5.02-2.77,9.84-5.94,14.33-9.51.4-.32.79-.65,1.19-.95" style="fill:#fffffe;"/><path d="m730.46,594.79c-3.74-1.62-5.46-5.98-3.84-9.72s5.98-5.46,9.72-3.84c3.74,1.62,5.46,5.99,3.84,9.72s-5.98,5.46-9.72,3.84m-77.19,129.85c-11.1-4.02-21.92-8.21-32.53-12.55,3.55-2.53,6.96-5.2,10.26-7.98,1.73.56,3.45,1.15,5.18,1.71,36.86,11.65,74.62,20.63,112.96,25.7,38.3,5.12,77.21,6.67,115.7,2.77,6.25-.71,12.49-1.58,18.72-2.59-57.28,18.34-134.56,27.62-230.27-7.06m5.92,31.04c-10.56,5.26-22.37,8.22-34.06,7.83,11.65-.95,22.76-4.7,32.84-10.19,5.02-2.77,9.84-5.94,14.33-9.51.41-.31.8-.65,1.19-.95,1.3.37,2.59.72,3.87,1.09-5.61,4.54-11.66,8.56-18.16,11.74m-49.26-55.08c-14.21,9.41-29.72,17.15-46.33,21.39-8.27,2.16-16.78,3.43-25.3,3.69-8.52.14-17.05-.54-25.25-2.59,16.79,2.07,33.63.02,49.5-4.8,7.93-2.45,15.67-5.54,23.1-9.28,7.45-3.68,14.65-7.86,21.54-12.52,13.85-9.21,26.59-20.14,38-32.3,5.68-6.11,11.06-12.53,15.8-19.39,2.44-3.4,4.64-6.95,6.67-10.62,1.93-3.7,3.73-7.5,5.01-11.53-1.57,8.34-5.44,16.09-9.66,23.44-4.36,7.31-9.42,14.19-14.97,20.65-11.06,12.95-23.97,24.3-38.12,33.85m-200.99-113.18c37.44,28.68,77.68,53.72,119.81,74.91,9.37,4.65,18.84,9.09,28.38,13.35-1.85,1.53-3.69,3.08-5.53,4.66-55.11-28.36-102.48-60.34-142.67-92.93m-110.16-230.36c28.43,18.31,58.66,33.74,89.96,46.48,31.31,12.69,63.55,23.08,96.29,31.55,32.73,8.54,65.89,15.37,99.16,21.75,33.24,6.51,66.6,12.57,99.81,19.62,33.17,7.11,66.29,15.08,98.41,26.31,32.11,11.13,63.36,25.3,91.72,44.15,28.3,18.86,53.62,42.2,74.12,69.23-10.69-13.15-22.41-25.45-35.01-36.72-12.62-11.26-26.18-21.43-40.42-30.49-28.41-18.3-59.59-31.97-91.62-42.58-64.24-21.28-131.4-31.85-197.94-44.68-33.28-6.52-66.52-13.53-99.35-22.24-32.81-8.73-65.3-19.08-96.6-32.39-31.31-13.23-61.53-29.13-89.82-47.95-28.23-18.91-54.45-40.73-78.22-64.9,24.54,23.37,50.98,44.75,79.54,62.89m685.37,317.19c-7.53-6.25-15.42-11.99-23.7-17.12-8.24-5.2-16.81-9.86-25.62-14.02-17.63-8.28-36.03-14.84-54.84-19.88-18.77-5.2-37.97-8.81-57.28-11.47-9.66-1.33-19.37-2.37-29.1-3.08-9.73-.79-19.48-1.21-29.26-1.33,19.54-.79,39.14.3,58.59,2.54,19.45,2.27,38.74,5.94,57.69,10.97,18.88,5.24,37.44,11.85,55.03,20.55,8.77,4.4,17.28,9.28,25.44,14.72,8.11,5.5,15.89,11.48,23.05,18.14m-256.41-76.68c1.58,1.61,3.64,2.78,5.85,3.65,2.23.86,4.62,1.39,7.14,1.82-2.49.6-5.14.61-7.71.02-2.57-.58-5.07-1.81-7.04-3.75-1.93-1.95-3.27-4.67-3.22-7.44,0-1.41.28-2.75.77-4.01.02-1.26.28-2.54.81-3.76,2.06-4.74,7.41-7,12.22-5.36-.31-.24-.62-.46-.94-.68-1.69-1.16-3.61-1.93-5.65-2.34-2.04-.4-4.18-.4-6.47-.23,1.97-1.14,4.31-1.76,6.7-1.68,2.39.05,4.77.86,6.79,2.19,2,1.36,3.68,3.19,4.71,5.36.47.99.79,2.1.92,3.21.87,2.31.89,4.94-.17,7.38-2.17,4.99-7.99,7.29-12.98,5.12-1.92-.83-3.42-2.21-4.45-3.86.52,1.66,1.47,3.15,2.71,4.37m-178.19,13.74c-35.18-11.6-69.38-26.24-101.77-44.22-32.4-17.94-62.91-39.26-91.14-63.29-20.17-17.46-39-36.41-56.64-56.42,5.81,5.69,11.61,11.16,17.42,16.43.12.13.25.26.37.39,12.9,13.43,26.39,26.29,40.63,38.34,28.44,24.1,59.68,44.89,92.81,62.04,33.12,17.17,68.14,30.55,103.98,40.74,26.55,7.48,53.54,13.19,80.7,17.76-3.86,2.24-8.63,4.97-14.1,8.19-24.4-5.49-48.53-12.03-72.22-19.95m-6.15,11.01c-34.84-13.1-68.59-29.11-100.56-48.15-7.91-4.89-16.07-9.41-23.64-14.83l-11.55-7.85c-3.84-2.62-7.74-5.16-11.37-8.08l-22.15-16.98-21.29-18.09c-27.75-24.84-53.08-52.32-76.15-81.63l-14.97-20.06c5.13,5.89,10.26,11.6,15.39,17.12l.87,1.18c22.95,29.34,48.27,56.9,76.2,81.69,28.06,24.65,58.89,46.08,91.44,64.36,32.57,18.25,67,33.15,102.4,44.98,22.33,7.39,45.03,13.55,67.96,18.75-3.83,2.29-7.9,4.8-12.16,7.5-20.4-5.78-40.57-12.36-60.39-19.91m-5.15,11.33c-34.58-14.51-68-31.8-99.68-51.87-31.69-20.05-61.65-42.87-89.18-68.38-27.58-25.45-52.83-53.39-75.77-83.14-12.9-17.02-24.87-34.71-36.16-52.84,4.4,5.57,8.82,11,13.23,16.29,2.49,3.94,4.94,7.92,7.74,11.65l16.34,22.82c22.75,29.71,47.9,57.63,75.54,82.97l21.2,18.46c7.33,5.84,14.83,11.46,22.24,17.21,3.66,2.95,7.57,5.53,11.43,8.18l11.6,7.95c7.61,5.49,15.8,10.08,23.76,15.03,32.14,19.31,66.09,35.58,101.12,48.91,18.7,7.03,37.68,13.21,56.85,18.68-3.42,2.21-6.93,4.55-10.51,6.99-16.8-5.72-33.41-12.02-49.75-18.94m-4.11,11.79c-34.43-15.84-67.64-34.35-99.14-55.43l-11.69-8.08-5.85-4.04c-1.96-1.33-3.9-2.7-5.76-4.16l-22.59-17.27c-7.31-6.03-14.48-12.23-21.74-18.31-1.79-1.54-3.67-3-5.41-4.62l-5.21-4.84-10.41-9.69c-27.46-26.14-52.85-54.49-75.54-84.94-14.05-18.99-27.05-38.73-39.16-59.02-1.65-3.84-2.9-7.18-3.76-9.95,1.37,1.81,2.76,3.57,4.12,5.35,12.22,21.04,25.41,41.52,39.71,61.27,22.63,30.17,47.69,58.52,75.13,84.46,27.29,26.11,57.56,49.02,89.33,69.39,31.82,20.34,65.41,37.88,100.18,52.63,15.41,6.46,31.04,12.35,46.84,17.74-3.04,2.14-6.11,4.34-9.21,6.63-13.43-5.32-26.73-11.01-39.84-17.11M236.43,385.22c10.13,17.17,20.96,33.95,32.49,50.24,22.38,30.86,47.58,59.63,74.88,86.26l10.35,9.87,5.18,4.93c1.72,1.65,3.59,3.13,5.38,4.71,7.25,6.19,14.47,12.43,21.8,18.54l22.66,17.47c1.87,1.49,3.81,2.88,5.78,4.21l5.87,4.08,11.74,8.18c31.63,21.35,64.98,40.11,99.58,56.18,12.33,5.67,24.82,10.99,37.43,15.98-2.73,2.08-5.46,4.2-8.19,6.39-10.23-4.57-20.36-9.34-30.38-14.35-34.42-17.08-67.5-36.86-98.91-58.99-31.47-22.08-60.92-46.95-88.57-73.63-13.78-13.41-26.93-27.45-39.55-41.96-10.05-11.56-19.69-23.49-28.9-35.74-18-24.86-30.76-46.41-38.67-62.39m729.77,290.07c-8.48-3.82-17.12-7.29-25.94-10.25-17.59-6.08-35.69-10.57-53.93-14.27-36.53-7.22-73.56-11.12-110.47-15.04-29.51-3.14-59.04-5.97-88.43-9.7.15-.7.16-1.14.02-1.29-.9-3.78-23.24-15.4-44.98-5.26-28.96-4.81-57.69-10.88-85.89-18.92-35.61-9.98-70.38-23.1-103.28-40-32.94-16.81-63.83-37.48-92.43-60.95l-.08-.07c230.41,171.59,455.26,54.27,620.59,183.4-4.98-2.73-10.03-5.32-15.2-7.66m-70.81,52.43c-10.17,1.84-20.44,3.18-30.72,4.16-38.3,3.4-76.94,1.44-114.95-4.11-38.94-5.7-77.31-14.89-114.72-27.08,3.44-3.08,6.73-6.27,9.86-9.52,34.91,9.72,70.47,17.13,106.44,21.57,37.83,4.72,76.04,6.57,114.13,4.82,4.75-.28,9.51-.69,14.26-1.04l7.12-.54c2.37-.18,4.73-.54,7.1-.8l14.19-1.69,14.1-2.33c7.78-1.41,15.54-3.03,23.22-4.93-14.11,6.97-30.81,14.64-50.01,21.5m53.23-23.1c-27.26,6.52-55.37,9.38-83.33,10.51-37.93,1.25-75.95-1.02-113.52-6.16-34.94-4.79-69.54-11.98-103.49-21.49,3.14-3.42,6.08-6.88,8.85-10.33,32.26,7.6,64.99,13.25,97.88,17.06,37.46,4.32,75.16,6.43,112.84,6.56,32.73-.19,65.46-1.66,98.01-4.91-5.2,2.65-10.95,5.61-17.25,8.76m18.18-9.23c-70.44,5.3-141.35,3.94-211.32-4.93-32.03-4.16-63.9-9.7-95.31-17.15,2.9-3.77,5.58-7.51,8.04-11.12,30.52,5.96,61.35,10.42,92.21,13.69,37.21,3.94,74.54,6.35,111.84,8.35,34.32,1.81,68.67,3.17,102.82,7.01-2.58,1.25-5.35,2.64-8.29,4.14m8.72-4.35c-15.67-2.22-31.43-3.77-47.2-5.11-18.63-1.52-37.28-2.79-55.9-4.11-37.27-2.48-74.52-5.33-111.57-9.7-30.16-3.62-60.22-8.03-89.99-13.9,2.68-4.13,5.07-8.08,7.12-11.71,29.67,4.71,59.49,8.3,89.36,11.15,37.04,3.65,74.14,6.4,111.06,10.63,18.49,1.9,36.86,4.66,55.17,7.85,16.18,3.17,32.23,7.01,47.93,12.14-1.86.82-3.85,1.74-5.96,2.76m10.32-4.56c-1.3.49-2.68,1.07-4.14,1.7-15.6-5.61-31.67-9.84-47.89-13.32-18.27-3.56-36.65-6.69-55.12-8.96-36.94-4.73-74.02-7.91-110.97-12.01-29.26-3.26-58.47-6.79-87.51-11.45,2.63-4.93,4.59-9.11,5.8-12.17,29.78,3.7,59.64,6.55,89.48,9.23,36.95,3.46,73.92,6.94,110.39,13.64,33.3,6,66.42,15.08,96.61,30.68,1.12.89,2.24,1.76,3.35,2.67m12.23,4.55c-71.47-244.74-346.99-220.79-577.86-293.75-1.07-1.06-2.37-2.36-3.82-3.8-15.08-14.99-48.78-48.48-57.75-57.2-4.3-4.17-15.78,12.83-28.44,22.72-.74.57-1.48,1.12-2.22,1.64-33.25-16.57-64.59-36.69-93.09-61.76-22.05-19.4-71.37-53.95-99.99-64.03,18.88,5.19,48.84,23.03,73.14,40.21,9.81-31.56-1.19-93.27,36.98-104.1-33.93-18.31-87.46,50.67-122.38,61.06h-.06c-3.11-.11-5.57.46-7.17,1.92-36.38,8.73-96.27,11.52-86.1,37.28,52.4-29.47,110.03,41.37,150.83,30.42,54.43,79.07,68.86,172.72,232.36,298.48,46.57,35.83,90.19,64.6,131.19,87.34-12.52,11.55-24.26,24.32-33.87,38.2,38.77,15.92,72.17,9.46,99.21-6.02,11.45,4.9,22.68,9.32,33.69,13.25-7.48,10.29-14.23,21.44-19.1,33.12,28.73,5.2,50.49-4.16,66.57-18.73,127.78,31.75,225.41-2.16,308.31-54.88-.13-.47-.28-.92-.42-1.38" style="fill:#0b0b09;"/><path d="m730.46,594.79c-3.74-1.62-5.46-5.98-3.84-9.72s5.98-5.46,9.72-3.84c3.74,1.62,5.46,5.99,3.84,9.72s-5.98,5.46-9.72,3.84m-77.19,129.85c-11.1-4.02-21.92-8.21-32.53-12.55,3.55-2.53,6.96-5.2,10.26-7.98,1.73.56,3.45,1.15,5.18,1.71,36.86,11.65,74.62,20.63,112.96,25.7,38.3,5.12,77.21,6.67,115.7,2.77,6.25-.71,12.49-1.58,18.72-2.59-57.28,18.34-134.56,27.62-230.27-7.06m5.92,31.04c-10.56,5.26-22.37,8.22-34.06,7.83,11.65-.95,22.76-4.7,32.84-10.19,5.02-2.77,9.84-5.94,14.33-9.51.41-.31.8-.65,1.19-.95,1.3.37,2.59.72,3.87,1.09-5.61,4.54-11.66,8.56-18.16,11.74m-49.26-55.08c-14.21,9.41-29.72,17.15-46.33,21.39-8.27,2.16-16.78,3.43-25.3,3.69-8.52.14-17.05-.54-25.25-2.59,16.79,2.07,33.63.02,49.5-4.8,7.93-2.45,15.67-5.54,23.1-9.28,7.45-3.68,14.65-7.86,21.54-12.52,13.85-9.21,26.59-20.14,38-32.3,5.68-6.11,11.06-12.53,15.8-19.39,2.44-3.4,4.64-6.95,6.67-10.62,1.93-3.7,3.73-7.5,5.01-11.53-1.57,8.34-5.44,16.09-9.66,23.44-4.36,7.31-9.42,14.19-14.97,20.65-11.06,12.95-23.97,24.3-38.12,33.85m-200.99-113.18c37.44,28.68,77.68,53.72,119.81,74.91,9.37,4.65,18.84,9.09,28.38,13.35-1.85,1.53-3.69,3.08-5.53,4.66-55.11-28.36-102.48-60.34-142.67-92.93m-110.16-230.36c28.43,18.31,58.66,33.74,89.96,46.48,31.31,12.69,63.55,23.08,96.29,31.55,32.73,8.54,65.89,15.37,99.16,21.75,33.24,6.51,66.6,12.57,99.81,19.62,33.17,7.11,66.29,15.08,98.41,26.31,32.11,11.13,63.36,25.3,91.72,44.15,28.3,18.86,53.62,42.2,74.12,69.23-10.69-13.15-22.41-25.45-35.01-36.72-12.62-11.26-26.18-21.43-40.42-30.49-28.41-18.3-59.59-31.97-91.62-42.58-64.24-21.28-131.4-31.85-197.94-44.68-33.28-6.52-66.52-13.53-99.35-22.24-32.81-8.73-65.3-19.08-96.6-32.39-31.31-13.23-61.53-29.13-89.82-47.95-28.23-18.91-54.45-40.73-78.22-64.9,24.54,23.37,50.98,44.75,79.54,62.89m685.37,317.19c-7.53-6.25-15.42-11.99-23.7-17.12-8.24-5.2-16.81-9.86-25.62-14.02-17.63-8.28-36.03-14.84-54.84-19.88-18.77-5.2-37.97-8.81-57.28-11.47-9.66-1.33-19.37-2.37-29.1-3.08-9.73-.79-19.48-1.21-29.26-1.33,19.54-.79,39.14.3,58.59,2.54,19.45,2.27,38.74,5.94,57.69,10.97,18.88,5.24,37.44,11.85,55.03,20.55,8.77,4.4,17.28,9.28,25.44,14.72,8.11,5.5,15.89,11.48,23.05,18.14m-256.41-76.68c1.58,1.61,3.64,2.78,5.85,3.65,2.23.86,4.62,1.39,7.14,1.82-2.49.6-5.14.61-7.71.02-2.57-.58-5.07-1.81-7.04-3.75-1.93-1.95-3.27-4.67-3.22-7.44,0-1.41.28-2.75.77-4.01.02-1.26.28-2.54.81-3.76,2.06-4.74,7.41-7,12.22-5.36-.31-.24-.62-.46-.94-.68-1.69-1.16-3.61-1.93-5.65-2.34-2.04-.4-4.18-.4-6.47-.23,1.97-1.14,4.31-1.76,6.7-1.68,2.39.05,4.77.86,6.79,2.19,2,1.36,3.68,3.19,4.71,5.36.47.99.79,2.1.92,3.21.87,2.31.89,4.94-.17,7.38-2.17,4.99-7.99,7.29-12.98,5.12-1.92-.83-3.42-2.21-4.45-3.86.52,1.66,1.47,3.15,2.71,4.37m-178.19,13.74c-35.18-11.6-69.38-26.24-101.77-44.22-32.4-17.94-62.91-39.26-91.14-63.29-20.17-17.46-39-36.41-56.64-56.42,5.81,5.69,11.61,11.16,17.42,16.43.12.13.25.26.37.39,12.9,13.43,26.39,26.29,40.63,38.34,28.44,24.1,59.68,44.89,92.81,62.04,33.12,17.17,68.14,30.55,103.98,40.74,26.55,7.48,53.54,13.19,80.7,17.76-3.86,2.24-8.63,4.97-14.1,8.19-24.4-5.49-48.53-12.03-72.22-19.95m-6.15,11.01c-34.84-13.1-68.59-29.11-100.56-48.15-7.91-4.89-16.07-9.41-23.64-14.83l-11.55-7.85c-3.84-2.62-7.74-5.16-11.37-8.08l-22.15-16.98-21.29-18.09c-27.75-24.84-53.08-52.32-76.15-81.63l-14.97-20.06c5.13,5.89,10.26,11.6,15.39,17.12l.87,1.18c22.95,29.34,48.27,56.9,76.2,81.69,28.06,24.65,58.89,46.08,91.44,64.36,32.57,18.25,67,33.15,102.4,44.98,22.33,7.39,45.03,13.55,67.96,18.75-3.83,2.29-7.9,4.8-12.16,7.5-20.4-5.78-40.57-12.36-60.39-19.91m-5.15,11.33c-34.58-14.51-68-31.8-99.68-51.87-31.69-20.05-61.65-42.87-89.18-68.38-27.58-25.45-52.83-53.39-75.77-83.14-12.9-17.02-24.87-34.71-36.16-52.84,4.4,5.57,8.82,11,13.23,16.29,2.49,3.94,4.94,7.92,7.74,11.65l16.34,22.82c22.75,29.71,47.9,57.63,75.54,82.97l21.2,18.46c7.33,5.84,14.83,11.46,22.24,17.21,3.66,2.95,7.57,5.53,11.43,8.18l11.6,7.95c7.61,5.49,15.8,10.08,23.76,15.03,32.14,19.31,66.09,35.58,101.12,48.91,18.7,7.03,37.68,13.21,56.85,18.68-3.42,2.21-6.93,4.55-10.51,6.99-16.8-5.72-33.41-12.02-49.75-18.94m-4.11,11.79c-34.43-15.84-67.64-34.35-99.14-55.43l-11.69-8.08-5.85-4.04c-1.96-1.33-3.9-2.7-5.76-4.16l-22.59-17.27c-7.31-6.03-14.48-12.23-21.74-18.31-1.79-1.54-3.67-3-5.41-4.62l-5.21-4.84-10.41-9.69c-27.46-26.14-52.85-54.49-75.54-84.94-14.05-18.99-27.05-38.73-39.16-59.02-1.65-3.84-2.9-7.18-3.76-9.95,1.37,1.81,2.76,3.57,4.12,5.35,12.22,21.04,25.41,41.52,39.71,61.27,22.63,30.17,47.69,58.52,75.13,84.46,27.29,26.11,57.56,49.02,89.33,69.39,31.82,20.34,65.41,37.88,100.18,52.63,15.41,6.46,31.04,12.35,46.84,17.74-3.04,2.14-6.11,4.34-9.21,6.63-13.43-5.32-26.73-11.01-39.84-17.11M236.43,385.22c10.13,17.17,20.96,33.95,32.49,50.24,22.38,30.86,47.58,59.63,74.88,86.26l10.35,9.87,5.18,4.93c1.72,1.65,3.59,3.13,5.38,4.71,7.25,6.19,14.47,12.43,21.8,18.54l22.66,17.47c1.87,1.49,3.81,2.88,5.78,4.21l5.87,4.08,11.74,8.18c31.63,21.35,64.98,40.11,99.58,56.18,12.33,5.67,24.82,10.99,37.43,15.98-2.73,2.08-5.46,4.2-8.19,6.39-10.23-4.57-20.36-9.34-30.38-14.35-34.42-17.08-67.5-36.86-98.91-58.99-31.47-22.08-60.92-46.95-88.57-73.63-13.78-13.41-26.93-27.45-39.55-41.96-10.05-11.56-19.69-23.49-28.9-35.74-18-24.86-30.76-46.41-38.67-62.39m729.77,290.07c-8.48-3.82-17.12-7.29-25.94-10.25-17.59-6.08-35.69-10.57-53.93-14.27-36.53-7.22-73.56-11.12-110.47-15.04-29.51-3.14-59.04-5.97-88.43-9.7.15-.7.16-1.14.02-1.29-.9-3.78-23.24-15.4-44.98-5.26-28.96-4.81-57.69-10.88-85.89-18.92-35.61-9.98-70.38-23.1-103.28-40-32.94-16.81-63.83-37.48-92.43-60.95l-.08-.07c230.41,171.59,455.26,54.27,620.59,183.4-4.98-2.73-10.03-5.32-15.2-7.66m-70.81,52.43c-10.17,1.84-20.44,3.18-30.72,4.16-38.3,3.4-76.94,1.44-114.95-4.11-38.94-5.7-77.31-14.89-114.72-27.08,3.44-3.08,6.73-6.27,9.86-9.52,34.91,9.72,70.47,17.13,106.44,21.57,37.83,4.72,76.04,6.57,114.13,4.82,4.75-.28,9.51-.69,14.26-1.04l7.12-.54c2.37-.18,4.73-.54,7.1-.8l14.19-1.69,14.1-2.33c7.78-1.41,15.54-3.03,23.22-4.93-14.11,6.97-30.81,14.64-50.01,21.5m53.23-23.1c-27.26,6.52-55.37,9.38-83.33,10.51-37.93,1.25-75.95-1.02-113.52-6.16-34.94-4.79-69.54-11.98-103.49-21.49,3.14-3.42,6.08-6.88,8.85-10.33,32.26,7.6,64.99,13.25,97.88,17.06,37.46,4.32,75.16,6.43,112.84,6.56,32.73-.19,65.46-1.66,98.01-4.91-5.2,2.65-10.95,5.61-17.25,8.76m18.18-9.23c-70.44,5.3-141.35,3.94-211.32-4.93-32.03-4.16-63.9-9.7-95.31-17.15,2.9-3.77,5.58-7.51,8.04-11.12,30.52,5.96,61.35,10.42,92.21,13.69,37.21,3.94,74.54,6.35,111.84,8.35,34.32,1.81,68.67,3.17,102.82,7.01-2.58,1.25-5.35,2.64-8.29,4.14m8.72-4.35c-15.67-2.22-31.43-3.77-47.2-5.11-18.63-1.52-37.28-2.79-55.9-4.11-37.27-2.48-74.52-5.33-111.57-9.7-30.16-3.62-60.22-8.03-89.99-13.9,2.68-4.13,5.07-8.08,7.12-11.71,29.67,4.71,59.49,8.3,89.36,11.15,37.04,3.65,74.14,6.4,111.06,10.63,18.49,1.9,36.86,4.66,55.17,7.85,16.18,3.17,32.23,7.01,47.93,12.14-1.86.82-3.85,1.74-5.96,2.76m10.32-4.56c-1.3.49-2.68,1.07-4.14,1.7-15.6-5.61-31.67-9.84-47.89-13.32-18.27-3.56-36.65-6.69-55.12-8.96-36.94-4.73-74.02-7.91-110.97-12.01-29.26-3.26-58.47-6.79-87.51-11.45,2.63-4.93,4.59-9.11,5.8-12.17,29.78,3.7,59.64,6.55,89.48,9.23,36.95,3.46,73.92,6.94,110.39,13.64,33.3,6,66.42,15.08,96.61,30.68,1.12.89,2.24,1.76,3.35,2.67m12.23,4.55c-71.47-244.74-346.99-220.79-577.86-293.75-1.07-1.06-2.37-2.36-3.82-3.8-15.08-14.99-48.78-48.48-57.75-57.2-4.3-4.17-15.78,12.83-28.44,22.72-.74.57-1.48,1.12-2.22,1.64-33.25-16.57-64.59-36.69-93.09-61.76-22.05-19.4-71.37-53.95-99.99-64.03,18.88,5.19,48.84,23.03,73.14,40.21,9.81-31.56-1.19-93.27,36.98-104.1-33.93-18.31-87.46,50.67-122.38,61.06h-.06c-3.11-.11-5.57.46-7.17,1.92-36.38,8.73-96.27,11.52-86.1,37.28,52.4-29.47,110.03,41.37,150.83,30.42,54.43,79.07,68.86,172.72,232.36,298.48,46.57,35.83,90.19,64.6,131.19,87.34-12.52,11.55-24.26,24.32-33.87,38.2,38.77,15.92,72.17,9.46,99.21-6.02,11.45,4.9,22.68,9.32,33.69,13.25-7.48,10.29-14.23,21.44-19.1,33.12,28.73,5.2,50.49-4.16,66.57-18.73,127.78,31.75,225.41-2.16,308.31-54.88-.13-.47-.28-.92-.42-1.38" style="fill:#0b0b09;"/></svg>