<?xml version="1.0" encoding="UTF-8"?><svg id="a" xmlns="http://www.w3.org/2000/svg" width="1024" height="1024" viewBox="0 0 1024 1024"><g id="b"><g id="c"><path id="d" d="m260.93,771.22s142.66-474.21,277.77-611.1c56.25-56.98,125.55-37.07,145.02-22.56,56.37,41.91,77.14,102.3,107.67,153.35-89.46-21.62-59.46-63.45-157.95-54.79l58.49,537.45-431-2.36h0Z" style="fill-rule:evenodd; stroke:#000; stroke-width:2px;"/><path id="e" d="m255.57,795.52l38.88-144.41c63.81-23.01,216.15-21.75,395.36,23.61l26.48,138.4-460.72-17.6h0Z" style="fill-rule:evenodd; stroke:#020002; stroke-width:2px;"/><path id="f" d="m534.15,763.66l1.34-124.94,12.64-5.53c43,.73,78.04,7.36,105.07,19.79l15.28,120.23-15.28,6.58-119.05-16.14h0Zm39.26-108.97l4.63,76.58,55.03,8.29-4.35-25.16-44.59-20.53,39.55-7.8-3.5-23.66c-15.61-7.07-31.17-8.45-46.78-7.72h.01Z" style="fill:#ffcd00; fill-rule:evenodd; stroke:#000;"/><path id="g" d="m535.57,639.08l13.62-5.81,2.64,124.01-17.15,6.54.89-124.74Z" style="fill:#bc9500; fill-rule:evenodd; stroke:#000;"/><path id="h" d="m572.84,647.53l.2,7.19c12.97-1.1,28.09-.33,47.23,7.28l3.21,23.66,11.34-2.85-5.04-25.61c-21.62-9.84-39.43-10.85-56.94-9.67h0Z" style="fill:#bc9500; fill-rule:evenodd; stroke:#000;"/><path id="i" d="m586.05,694.03l42.47,18.09,5.28,28.05,11.3,2.15-7.64-38.65-51.42-9.63h0Z" style="fill:#bc9500; fill-rule:evenodd; stroke:#000;"/><path id="j" d="m255.49,843.65c126.12,12.76,279.68-7.72,479.21,5.57,54.91,3.66,124.74,4.19,178.96-37.15,9.67-7.36,25.53-28.61-16.46-35.28-11.71-4.23-11.67,21.46-118.81,7.8-139.05-17.72-278.79-65.97-398.65-75.76-119.9-9.8-220.95-10.36-268.99,44.59-42.8,48.9,18.62,77.47,144.74,90.23h0Z" style="fill-rule:evenodd; stroke:#000; stroke-width:2px;"/><path id="k" d="m249.39,729.88c-39.3,1.38-79.91,2.56-116.9,19.43-13.45,5.69-23.74,18.17-29.14,33.65-8.09,17.52-6.5,41.13,6.34,55.07,22.44,25.53,54.06,34.51,83.4,43.08,96.33,25.73,195.99,17.97,294.03,15.12,85.48-3.17,171.16-2.56,256.43,5.73,106.73-4.51,146.85-27.39,173.11-91.65-69.54,25.24-78.32,42.72-206.27,17.64-104.13-26.22-204.49-72.51-310.41-88.61-49.87-6.3-100.31-10.16-150.59-9.47h0Z" style="fill:#303; fill-rule:evenodd; stroke:#000; stroke-width:2px;"/><path id="l" d="m634.22,238.72c-5.04-13.94-10.97-28.05-5.49-35.61,7.11-9.8,24.22-13.82,16.42,12.11" style="fill:none; stroke:#000; stroke-width:2px;"/></g></g><path d="m755,867c24.82,15.48-247.48-16.22-355.95,8.3-180.66,40.84-226.95-49.91-223.61-78.97,3.34-29.06,54.56-54.01,235.69-26.26,126.19,19.33,267.49,49.28,343.87,96.94Z" style="fill:#130114; fill-rule:evenodd; stroke:#000; stroke-width:2px;"/><path d="m755,867c24.82,15.48-247.48-16.22-355.95,8.3-180.66,40.84-226.95-49.91-223.61-78.97,3.34-29.06,54.56-54.01,235.69-26.26,126.19,19.33,267.49,49.28,343.87,96.94Z" style="fill:#130114; fill-rule:evenodd; stroke:#000; stroke-width:2px;"/></svg>